<svg width="149" height="149" viewBox="0 0 149 149" fill="none" xmlns="http://www.w3.org/2000/svg">
<g clip-path="url(#clip0_332_173)">
<path d="M111.749 37.2501C111.749 57.8227 95.0719 74.5001 74.4993 74.5001C53.9267 74.5001 37.2493 57.8227 37.2493 37.2501C37.2493 16.6774 53.9267 0 74.4993 0C95.0719 0 111.749 16.6774 111.749 37.2501Z" fill="black"/>
<path d="M111.749 111.751C111.749 132.323 95.0719 149.001 74.4993 149.001C53.9267 149.001 37.2493 132.323 37.2493 111.751C37.2493 91.1779 53.9267 74.5001 74.4993 74.5001C95.0719 74.5001 111.749 91.1779 111.749 111.751Z" fill="black"/>
<path d="M0 149.001C9.87931 149.001 19.354 145.076 26.3397 138.091C33.3255 131.105 37.25 121.63 37.25 111.751C37.25 101.872 33.3255 92.3969 26.3397 85.4111C19.354 78.4254 9.87932 74.5009 8.88109e-06 74.5009L0 149.001Z" fill="black"/>
<path d="M149 149.001C139.121 149.001 129.646 145.076 122.66 138.091C115.675 131.105 111.75 121.63 111.75 111.751C111.75 101.872 115.675 92.3969 122.66 85.4111C129.646 78.4254 139.121 74.5009 149 74.5009V149.001Z" fill="black"/>
<path d="M8.88109e-06 74.5009C9.87932 74.5009 19.354 70.5756 26.3397 63.5898C33.3255 56.6041 37.2493 47.1294 37.2493 37.2501C37.2493 27.3707 33.3255 17.896 26.3397 10.9103C19.354 3.92455 9.87932 1.92358e-06 8.88109e-06 0V74.5009Z" fill="black"/>
<path d="M149 74.5009C139.121 74.5009 129.646 70.5756 122.66 63.5898C115.675 56.6041 111.749 47.1294 111.749 37.2501C111.749 27.3707 115.675 17.896 122.66 10.9103C129.646 3.92455 139.121 1.92358e-06 149 0V74.5009Z" fill="black"/>
</g>
<defs>
<clipPath id="clip0_332_173">
<rect width="149" height="149" fill="white"/>
</clipPath>
</defs>
</svg>
