<svg width="1536" height="1047" viewBox="0 0 1536 1047" fill="none" xmlns="http://www.w3.org/2000/svg">
<path d="M0.566895 539.053L640.012 525.71C640.012 525.71 701.84 524.441 767.567 524.441C833.294 524.441 893.451 525.71 893.451 525.71L1534.57 539.053" stroke="black" stroke-width="2"/>
<path d="M0.566895 507.383L640.012 520.725C640.012 520.725 701.84 521.995 767.567 521.995C833.294 521.995 893.451 520.725 893.451 520.725L1534.57 507.383" stroke="black" stroke-width="2"/>
<path d="M0.566895 571.161L640.012 531.135C640.012 531.135 701.84 527.326 767.567 527.326C833.294 527.326 893.451 531.135 893.451 531.135L1534.57 571.161" stroke="black" stroke-width="2"/>
<path d="M0.566895 476.154L640.012 516.181C640.012 516.181 701.84 519.989 767.567 519.989C833.294 519.989 893.451 516.181 893.451 516.181L1534.57 476.154" stroke="black" stroke-width="2"/>
<path d="M0.566895 602.509L640.012 535.799C640.012 535.799 701.84 529.451 767.567 529.451C833.294 529.451 893.451 535.799 893.451 535.799L1534.57 602.509" stroke="black" stroke-width="2"/>
<path d="M0.566895 444.159L640.012 510.869C640.012 510.869 701.84 517.217 767.567 517.217C833.294 517.217 893.451 510.869 893.451 510.869L1534.57 444.159" stroke="black" stroke-width="2"/>
<path d="M0.566895 633.858L640.012 540.463C640.012 540.463 701.84 531.576 767.567 531.576C833.294 531.576 893.451 540.463 893.451 540.463L1534.57 633.858" stroke="black" stroke-width="2"/>
<path d="M0.566895 412.167L640.012 505.562C640.012 505.562 701.84 514.449 767.567 514.449C833.294 514.449 893.451 505.562 893.451 505.562L1534.57 412.167" stroke="black" stroke-width="2"/>
<path d="M0.566895 665.966L640.012 545.887C640.012 545.887 701.84 534.461 767.567 534.461C833.294 534.461 893.451 545.887 893.451 545.887L1534.57 665.966" stroke="black" stroke-width="2"/>
<path d="M0.566895 380.935L640.012 501.013C640.012 501.013 701.84 512.439 767.567 512.439C833.294 512.439 893.451 501.013 893.451 501.013L1534.57 380.935" stroke="black" stroke-width="2"/>
<path d="M0.566895 697.314L640.012 550.551C640.012 550.551 701.84 536.586 767.567 536.586C833.294 536.586 893.451 550.551 893.451 550.551L1534.57 697.314" stroke="black" stroke-width="2"/>
<path d="M0.566895 348.942L640.012 495.705C640.012 495.705 701.84 509.67 767.567 509.67C833.294 509.67 893.451 495.705 893.451 495.705L1534.57 348.942" stroke="black" stroke-width="2"/>
<path d="M0.566895 729.423L640.012 555.976C640.012 555.976 701.84 539.472 767.567 539.472C833.294 539.472 893.451 555.976 893.451 555.976L1534.57 729.423" stroke="black" stroke-width="2"/>
<path d="M0.566895 317.71L640.012 491.157C640.012 491.157 701.84 507.661 767.567 507.661C833.294 507.661 893.451 491.157 893.451 491.157L1534.57 317.71" stroke="black" stroke-width="2"/>
<path d="M0.566895 760.766L640.012 560.634C640.012 560.634 701.84 541.591 767.567 541.591C833.294 541.591 893.451 560.634 893.451 560.634L1534.57 760.766" stroke="black" stroke-width="2"/>
<path d="M0.566895 285.718L640.012 485.849C640.012 485.849 701.84 504.893 767.567 504.893C833.294 504.893 893.451 485.849 893.451 485.849L1534.57 285.718" stroke="black" stroke-width="2"/>
<path d="M0.566895 792.878L640.012 566.062C640.012 566.062 701.84 544.479 767.567 544.479C833.294 544.479 893.451 566.062 893.451 566.062L1534.57 792.878" stroke="black" stroke-width="2"/>
<path d="M0.566895 254.486L640.012 481.301C640.012 481.301 701.84 502.884 767.567 502.884C833.294 502.884 893.451 481.301 893.451 481.301L1534.57 254.486" stroke="black" stroke-width="2"/>
<path d="M0.566895 824.222L640.012 570.723C640.012 570.723 701.84 546.601 767.567 546.601C833.294 546.601 893.451 570.723 893.451 570.723L1534.57 824.222" stroke="black" stroke-width="2"/>
<path d="M0.566895 222.494L640.012 475.993C640.012 475.993 701.84 500.115 767.567 500.115C833.294 500.115 893.451 475.993 893.451 475.993L1534.57 222.494" stroke="black" stroke-width="2"/>
<path d="M0.566895 855.571L640.012 575.387C640.012 575.387 701.84 548.726 767.567 548.726C833.294 548.726 893.451 575.387 893.451 575.387L1534.57 855.571" stroke="black" stroke-width="2"/>
<path d="M0.566895 190.498L640.012 470.682C640.012 470.682 701.84 497.343 767.567 497.343C833.294 497.343 893.451 470.682 893.451 470.682L1534.57 190.498" stroke="black" stroke-width="2"/>
<path d="M0.566895 887.682L640.012 580.814C640.012 580.814 701.84 551.614 767.567 551.614C833.294 551.614 893.451 580.814 893.451 580.814L1534.57 887.682" stroke="black" stroke-width="2"/>
<path d="M0.566895 159.268L640.012 466.136C640.012 466.136 701.84 495.336 767.567 495.336C833.294 495.336 893.451 466.136 893.451 466.136L1534.57 159.268" stroke="black" stroke-width="2"/>
<path d="M0.566895 919.025L640.012 585.473C640.012 585.473 701.84 553.733 767.567 553.733C833.294 553.733 893.451 585.473 893.451 585.473L1534.57 919.025" stroke="black" stroke-width="2"/>
<path d="M0.566895 127.273L640.012 460.825C640.012 460.825 701.84 492.564 767.567 492.564C833.294 492.564 893.451 460.825 893.451 460.825L1534.57 127.273" stroke="black" stroke-width="2"/>
<path d="M0.566895 951.139L640.012 590.903C640.012 590.903 701.84 556.625 767.567 556.625C833.294 556.625 893.451 590.903 893.451 590.903L1534.57 951.139" stroke="black" stroke-width="2"/>
<path d="M0.566895 96.041L640.012 456.277C640.012 456.277 701.84 490.556 767.567 490.556C833.294 490.556 893.451 456.277 893.451 456.277L1534.57 96.041" stroke="black" stroke-width="2"/>
<path d="M0.566895 982.482L640.012 595.562C640.012 595.562 701.84 558.744 767.567 558.744C833.294 558.744 893.451 595.562 893.451 595.562L1534.57 982.482" stroke="black" stroke-width="2"/>
<path d="M0.566895 64.0488L640.012 450.969C640.012 450.969 701.84 487.787 767.567 487.787C833.294 487.787 893.451 450.969 893.451 450.969L1534.57 64.0488" stroke="black" stroke-width="2"/>
<path d="M0.566895 1014.59L640.012 600.986C640.012 600.986 701.84 561.629 767.567 561.629C833.294 561.629 893.451 600.986 893.451 600.986L1534.57 1014.59" stroke="black" stroke-width="2"/>
<path d="M0.566895 32.8164L640.012 446.421C640.012 446.421 701.84 485.778 767.567 485.778C833.294 485.778 893.451 446.421 893.451 446.421L1534.57 32.8164" stroke="black" stroke-width="2"/>
<path d="M0.566895 1045.94L640.012 605.65C640.012 605.65 701.84 563.754 767.567 563.754C833.294 563.754 893.451 605.65 893.451 605.65L1534.57 1045.94" stroke="black" stroke-width="2"/>
<path d="M0.566895 0.824219L640.012 441.113C640.012 441.113 701.84 483.009 767.567 483.009C833.294 483.009 893.451 441.113 893.451 441.113L1534.57 0.824219" stroke="black" stroke-width="2"/>
<g filter="url(#filter0_f_275_236)">
<rect x="352.567" y="266.692" width="816" height="520.541" fill="white"/>
<rect x="353.567" y="267.692" width="814" height="518.541" stroke="black" stroke-width="2"/>
</g>
<defs>
<filter id="filter0_f_275_236" x="152.567" y="66.6919" width="1216" height="920.541" filterUnits="userSpaceOnUse" color-interpolation-filters="sRGB">
<feFlood flood-opacity="0" result="BackgroundImageFix"/>
<feBlend mode="normal" in="SourceGraphic" in2="BackgroundImageFix" result="shape"/>
<feGaussianBlur stdDeviation="100" result="effect1_foregroundBlur_275_236"/>
</filter>
</defs>
</svg>
