<svg width="496" height="144" viewBox="0 0 496 144" fill="none" xmlns="http://www.w3.org/2000/svg">
<path d="M137 144H45V107.229C50.3705 107.427 56.0051 107.529 61.9033 107.529H82.2314C89.9372 107.529 96.1819 106.4 100.965 104.142C105.748 101.75 109.401 98.8265 111.926 95.3721C114.45 91.7848 116.177 88.1312 117.107 84.4111C118.037 80.5582 118.503 77.1036 118.503 74.0479V70.0801L92.1963 70.0029V73.4502C92.1962 77.5687 91.0662 81.0898 88.8076 84.0127C86.549 86.9354 82.4304 88.3973 76.4521 88.3975H45V45.748H76.6514C82.497 45.7482 86.549 47.2099 88.8076 50.1328C91.0661 53.0557 92.1963 56.6431 92.1963 60.8945V66.0029L118.503 66.0801V62.2891C118.503 58.5691 118.171 54.6497 117.507 50.5312C116.843 46.4126 115.314 42.5589 112.923 38.9717C110.664 35.2517 107.077 32.2625 102.161 30.0039C97.3781 27.7453 90.7345 26.6153 82.2314 26.6152H0V0H137V144Z" fill="#CCCCCC"/>
<path d="M472.575 95.04V18.1499H489.836V95.04H472.575Z" fill="#CCCCCC"/>
<path d="M440.932 95.04V18.1499H458.193V95.04H440.932Z" fill="#CCCCCC"/>
<path d="M343.424 95.04V28.6111L342.116 18.1499H402.791C409.853 18.1499 415.258 19.0217 419.006 20.7652C422.842 22.5087 425.501 25.1241 426.983 28.6111C428.465 32.011 429.206 36.2827 429.206 41.4261V71.6329C429.206 76.8636 428.465 81.2224 426.983 84.7095C425.588 88.1094 422.973 90.6811 419.137 92.4247C415.388 94.1682 409.94 95.04 402.791 95.04H343.424ZM360.685 82.4865H401.745C408.458 82.4865 411.858 79.3917 411.945 73.2021V39.857C411.945 37.3288 411.204 35.193 409.722 33.4495C408.24 31.6187 405.581 30.7034 401.745 30.7034H360.685V82.4865Z" fill="#CCCCCC"/>
<path d="M267.074 95.04C260.971 95.04 256.177 94.1682 252.689 92.4247C249.202 90.6811 246.718 88.0658 245.236 84.5787C243.841 81.0917 243.144 76.7764 243.144 71.6329V41.4261C243.144 36.3699 243.841 32.1418 245.236 28.7419C246.631 25.2548 249.072 22.6395 252.559 20.896C256.046 19.0653 260.884 18.1499 267.074 18.1499H305.257C311.36 18.1499 316.111 19.0653 319.511 20.896C322.998 22.6395 325.439 25.2548 326.833 28.7419C328.315 32.1418 329.056 36.3699 329.056 41.4261V71.6329C329.056 79.3045 327.356 85.1454 323.957 89.1555C320.557 93.0785 314.324 95.04 305.257 95.04H267.074ZM270.866 82.4865H301.596C304.821 82.4865 307.306 81.6583 309.049 80.0019C310.88 78.3456 311.795 76.079 311.795 73.2021V39.857C311.795 37.3288 310.88 35.193 309.049 33.4495C307.219 31.6187 304.734 30.7034 301.596 30.7034H270.866C267.727 30.7034 265.199 31.5316 263.281 33.1879C261.364 34.8443 260.405 37.0673 260.405 39.857V73.2021C260.405 76.1662 261.32 78.4763 263.151 80.1327C265.069 81.7019 267.64 82.4865 270.866 82.4865Z" fill="#CCCCCC"/>
<path d="M152.308 95.0399V28.611L151 18.019H208.929C214.508 18.019 218.867 18.76 222.006 20.2421C225.231 21.7241 227.585 23.6855 229.067 26.1265C230.636 28.4803 231.639 31.0084 232.075 33.7109C232.51 36.4134 232.728 38.9851 232.728 41.4261V49.1412C232.728 51.1463 232.423 53.4129 231.813 55.941C231.203 58.382 230.069 60.7793 228.413 63.1331C226.757 65.3997 224.359 67.3176 221.221 68.8868C218.083 70.3688 213.985 71.1098 208.929 71.1098H195.591C190.099 71.1098 184.955 70.979 180.161 70.7175C175.453 70.456 171.922 70.238 169.569 70.0637V95.0399H152.308ZM169.569 58.5563H205.137C209.06 58.5563 211.762 57.5974 213.244 55.6795C214.726 53.7616 215.467 51.4514 215.467 48.7489V40.5107C215.467 37.721 214.726 35.3673 213.244 33.4494C211.762 31.5315 209.103 30.5725 205.268 30.5725H169.569V58.5563Z" fill="#CCCCCC"/>
<path d="M484.322 108.542H486.962L493.482 119.062H493.522V108.542H495.902V122.822H493.262L486.762 112.322H486.702V122.822H484.322V108.542Z" fill="#CCCCCC"/>
<path d="M475.307 110.241C474.547 110.241 473.887 110.395 473.327 110.701C472.78 111.008 472.333 111.421 471.987 111.941C471.64 112.448 471.38 113.028 471.207 113.681C471.047 114.335 470.967 115.001 470.967 115.681C470.967 116.361 471.047 117.028 471.207 117.681C471.38 118.335 471.64 118.921 471.987 119.441C472.333 119.948 472.78 120.355 473.327 120.661C473.887 120.968 474.547 121.121 475.307 121.121C476.067 121.121 476.72 120.968 477.267 120.661C477.827 120.355 478.28 119.948 478.627 119.441C478.973 118.921 479.227 118.335 479.387 117.681C479.56 117.028 479.647 116.361 479.647 115.681C479.647 115.001 479.56 114.335 479.387 113.681C479.227 113.028 478.973 112.448 478.627 111.941C478.28 111.421 477.827 111.008 477.267 110.701C476.72 110.395 476.067 110.241 475.307 110.241ZM475.307 108.201C476.373 108.201 477.327 108.401 478.167 108.801C479.02 109.201 479.74 109.741 480.327 110.421C480.913 111.101 481.36 111.895 481.667 112.801C481.987 113.708 482.147 114.668 482.147 115.681C482.147 116.708 481.987 117.675 481.667 118.581C481.36 119.488 480.913 120.281 480.327 120.961C479.74 121.641 479.02 122.181 478.167 122.581C477.327 122.968 476.373 123.161 475.307 123.161C474.24 123.161 473.28 122.968 472.427 122.581C471.587 122.181 470.873 121.641 470.287 120.961C469.7 120.281 469.247 119.488 468.927 118.581C468.62 117.675 468.467 116.708 468.467 115.681C468.467 114.668 468.62 113.708 468.927 112.801C469.247 111.895 469.7 111.101 470.287 110.421C470.873 109.741 471.587 109.201 472.427 108.801C473.28 108.401 474.24 108.201 475.307 108.201Z" fill="#CCCCCC"/>
<path d="M457.897 118.061C457.897 118.608 457.991 119.075 458.177 119.461C458.364 119.848 458.624 120.168 458.957 120.421C459.291 120.661 459.671 120.841 460.097 120.961C460.537 121.068 461.011 121.121 461.517 121.121C462.064 121.121 462.531 121.061 462.917 120.941C463.304 120.808 463.617 120.641 463.857 120.441C464.097 120.241 464.271 120.015 464.377 119.761C464.484 119.495 464.537 119.228 464.537 118.961C464.537 118.415 464.411 118.015 464.157 117.761C463.917 117.495 463.651 117.308 463.357 117.201C462.851 117.015 462.257 116.841 461.577 116.681C460.911 116.508 460.084 116.288 459.097 116.021C458.484 115.861 457.971 115.655 457.557 115.401C457.157 115.135 456.837 114.841 456.597 114.521C456.357 114.201 456.184 113.861 456.077 113.501C455.984 113.141 455.937 112.775 455.937 112.401C455.937 111.681 456.084 111.061 456.377 110.541C456.684 110.008 457.084 109.568 457.577 109.221C458.071 108.875 458.631 108.621 459.257 108.461C459.884 108.288 460.517 108.201 461.157 108.201C461.904 108.201 462.604 108.301 463.257 108.501C463.924 108.688 464.504 108.975 464.997 109.361C465.504 109.748 465.904 110.228 466.197 110.801C466.491 111.361 466.637 112.015 466.637 112.761H464.137C464.071 111.841 463.757 111.195 463.197 110.821C462.637 110.435 461.924 110.241 461.057 110.241C460.764 110.241 460.464 110.275 460.157 110.341C459.851 110.395 459.571 110.495 459.317 110.641C459.064 110.775 458.851 110.961 458.677 111.201C458.517 111.441 458.437 111.741 458.437 112.101C458.437 112.608 458.591 113.008 458.897 113.301C459.217 113.581 459.631 113.795 460.137 113.941C460.191 113.955 460.397 114.015 460.757 114.121C461.131 114.215 461.544 114.321 461.997 114.441C462.451 114.561 462.891 114.681 463.317 114.801C463.757 114.908 464.071 114.988 464.257 115.041C464.724 115.188 465.131 115.388 465.477 115.641C465.824 115.895 466.111 116.188 466.337 116.521C466.577 116.841 466.751 117.188 466.857 117.561C466.977 117.935 467.037 118.308 467.037 118.681C467.037 119.481 466.871 120.168 466.537 120.741C466.217 121.301 465.791 121.761 465.257 122.121C464.724 122.481 464.117 122.741 463.437 122.901C462.757 123.075 462.064 123.161 461.357 123.161C460.544 123.161 459.777 123.061 459.057 122.861C458.337 122.661 457.711 122.355 457.177 121.941C456.644 121.528 456.217 121.001 455.897 120.361C455.577 119.708 455.411 118.941 455.397 118.061H457.897Z" fill="#CCCCCC"/>
<path d="M442.176 108.542H448.996C450.569 108.542 451.749 108.882 452.536 109.562C453.322 110.242 453.716 111.188 453.716 112.402C453.716 113.082 453.616 113.648 453.416 114.102C453.216 114.542 452.982 114.902 452.716 115.182C452.449 115.448 452.182 115.642 451.916 115.762C451.662 115.882 451.476 115.962 451.356 116.002V116.042C451.569 116.068 451.796 116.135 452.036 116.242C452.289 116.348 452.522 116.522 452.736 116.762C452.949 116.988 453.122 117.288 453.256 117.662C453.402 118.035 453.476 118.502 453.476 119.062C453.476 119.902 453.536 120.668 453.656 121.362C453.789 122.042 453.989 122.528 454.256 122.822H451.576C451.389 122.515 451.276 122.175 451.236 121.802C451.209 121.428 451.196 121.068 451.196 120.722C451.196 120.068 451.156 119.508 451.076 119.042C450.996 118.562 450.849 118.168 450.636 117.862C450.422 117.542 450.129 117.308 449.756 117.162C449.396 117.015 448.929 116.942 448.356 116.942H444.676V122.822H442.176V108.542ZM444.676 115.042H448.776C449.576 115.042 450.182 114.855 450.596 114.482C451.009 114.095 451.216 113.522 451.216 112.762C451.216 112.308 451.149 111.942 451.016 111.662C450.882 111.368 450.696 111.142 450.456 110.982C450.229 110.822 449.962 110.715 449.656 110.662C449.362 110.608 449.056 110.582 448.736 110.582H444.676V115.042Z" fill="#CCCCCC"/>
<path d="M429.578 108.542H439.858V110.702H432.078V114.442H439.278V116.482H432.078V120.662H439.998V122.822H429.578V108.542Z" fill="#CCCCCC"/>
<path d="M416.238 108.542H422.538C423.552 108.542 424.378 108.688 425.018 108.982C425.658 109.275 426.152 109.642 426.498 110.082C426.845 110.522 427.078 111.002 427.198 111.522C427.332 112.042 427.398 112.522 427.398 112.962C427.398 113.402 427.332 113.882 427.198 114.402C427.078 114.908 426.845 115.382 426.498 115.822C426.152 116.262 425.658 116.628 425.018 116.922C424.378 117.202 423.552 117.342 422.538 117.342H418.738V122.822H416.238V108.542ZM418.738 115.302H422.398C422.678 115.302 422.965 115.262 423.258 115.182C423.552 115.102 423.818 114.975 424.058 114.802C424.312 114.615 424.512 114.375 424.658 114.082C424.818 113.775 424.898 113.395 424.898 112.942C424.898 112.475 424.832 112.088 424.698 111.782C424.565 111.475 424.385 111.235 424.158 111.062C423.932 110.875 423.672 110.748 423.378 110.682C423.085 110.615 422.772 110.582 422.438 110.582H418.738V115.302Z" fill="#CCCCCC"/>
<path d="M398.074 108.542H408.354V110.702H400.574V114.442H407.774V116.482H400.574V120.662H408.494V122.822H398.074V108.542Z" fill="#CCCCCC"/>
<path d="M383.581 108.542H386.081V114.222H392.581V108.542H395.081V122.822H392.581V116.382H386.081V122.822H383.581V108.542Z" fill="#CCCCCC"/>
<path d="M370.425 108.542H381.985V110.702H377.445V122.822H374.945V110.702H370.425V108.542Z" fill="#CCCCCC"/>
<path d="M353.003 108.542H364.563V110.702H360.023V122.822H357.523V110.702H353.003V108.542Z" fill="#CCCCCC"/>
<path d="M345.248 110.241C344.488 110.241 343.828 110.395 343.268 110.701C342.722 111.008 342.275 111.421 341.928 111.941C341.582 112.448 341.322 113.028 341.148 113.681C340.988 114.335 340.908 115.001 340.908 115.681C340.908 116.361 340.988 117.028 341.148 117.681C341.322 118.335 341.582 118.921 341.928 119.441C342.275 119.948 342.722 120.355 343.268 120.661C343.828 120.968 344.488 121.121 345.248 121.121C346.008 121.121 346.662 120.968 347.208 120.661C347.768 120.355 348.222 119.948 348.568 119.441C348.915 118.921 349.168 118.335 349.328 117.681C349.502 117.028 349.588 116.361 349.588 115.681C349.588 115.001 349.502 114.335 349.328 113.681C349.168 113.028 348.915 112.448 348.568 111.941C348.222 111.421 347.768 111.008 347.208 110.701C346.662 110.395 346.008 110.241 345.248 110.241ZM345.248 108.201C346.315 108.201 347.268 108.401 348.108 108.801C348.962 109.201 349.682 109.741 350.268 110.421C350.855 111.101 351.302 111.895 351.608 112.801C351.928 113.708 352.088 114.668 352.088 115.681C352.088 116.708 351.928 117.675 351.608 118.581C351.302 119.488 350.855 120.281 350.268 120.961C349.682 121.641 348.962 122.181 348.108 122.581C347.268 122.968 346.315 123.161 345.248 123.161C344.182 123.161 343.222 122.968 342.368 122.581C341.528 122.181 340.815 121.641 340.228 120.961C339.642 120.281 339.188 119.488 338.868 118.581C338.562 117.675 338.408 116.708 338.408 115.681C338.408 114.668 338.562 113.708 338.868 112.801C339.188 111.895 339.642 111.101 340.228 110.421C340.815 109.741 341.528 109.201 342.368 108.801C343.222 108.401 344.182 108.201 345.248 108.201Z" fill="#CCCCCC"/>
<path d="M324.635 108.542H327.275L333.795 119.062H333.835V108.542H336.215V122.822H333.575L327.075 112.322H327.015V122.822H324.635V108.542Z" fill="#CCCCCC"/>
<path d="M313.462 120.121H316.242V122.821C316.229 123.648 315.975 124.341 315.482 124.901C314.989 125.461 314.342 125.821 313.542 125.981V124.761C313.982 124.654 314.309 124.408 314.522 124.021C314.749 123.648 314.855 123.248 314.842 122.821H313.462V120.121Z" fill="#CCCCCC"/>
<path d="M295.788 108.542H299.308L303.248 119.722H303.288L307.128 108.542H310.608V122.822H308.228V111.802H308.188L304.228 122.822H302.168L298.208 111.802H298.168V122.822H295.788V108.542Z" fill="#CCCCCC"/>
<path d="M283.23 108.542H293.51V110.702H285.73V114.442H292.93V116.482H285.73V120.662H293.65V122.822H283.23V108.542Z" fill="#CCCCCC"/>
<path d="M270.015 108.542H281.575V110.702H277.035V122.822H274.535V110.702H270.015V108.542Z" fill="#CCCCCC"/>
<path d="M260.046 118.061C260.046 118.608 260.139 119.075 260.326 119.461C260.513 119.848 260.773 120.168 261.106 120.421C261.439 120.661 261.819 120.841 262.246 120.961C262.686 121.068 263.159 121.121 263.666 121.121C264.213 121.121 264.679 121.061 265.066 120.941C265.453 120.808 265.766 120.641 266.006 120.441C266.246 120.241 266.419 120.015 266.526 119.761C266.633 119.495 266.686 119.228 266.686 118.961C266.686 118.415 266.559 118.015 266.306 117.761C266.066 117.495 265.799 117.308 265.506 117.201C264.999 117.015 264.406 116.841 263.726 116.681C263.059 116.508 262.233 116.288 261.246 116.021C260.633 115.861 260.119 115.655 259.706 115.401C259.306 115.135 258.986 114.841 258.746 114.521C258.506 114.201 258.333 113.861 258.226 113.501C258.133 113.141 258.086 112.775 258.086 112.401C258.086 111.681 258.233 111.061 258.526 110.541C258.833 110.008 259.233 109.568 259.726 109.221C260.219 108.875 260.779 108.621 261.406 108.461C262.033 108.288 262.666 108.201 263.306 108.201C264.053 108.201 264.753 108.301 265.406 108.501C266.073 108.688 266.653 108.975 267.146 109.361C267.653 109.748 268.053 110.228 268.346 110.801C268.639 111.361 268.786 112.015 268.786 112.761H266.286C266.219 111.841 265.906 111.195 265.346 110.821C264.786 110.435 264.073 110.241 263.206 110.241C262.913 110.241 262.613 110.275 262.306 110.341C261.999 110.395 261.719 110.495 261.466 110.641C261.213 110.775 260.999 110.961 260.826 111.201C260.666 111.441 260.586 111.741 260.586 112.101C260.586 112.608 260.739 113.008 261.046 113.301C261.366 113.581 261.779 113.795 262.286 113.941C262.339 113.955 262.546 114.015 262.906 114.121C263.279 114.215 263.693 114.321 264.146 114.441C264.599 114.561 265.039 114.681 265.466 114.801C265.906 114.908 266.219 114.988 266.406 115.041C266.873 115.188 267.279 115.388 267.626 115.641C267.973 115.895 268.259 116.188 268.486 116.521C268.726 116.841 268.899 117.188 269.006 117.561C269.126 117.935 269.186 118.308 269.186 118.681C269.186 119.481 269.019 120.168 268.686 120.741C268.366 121.301 267.939 121.761 267.406 122.121C266.873 122.481 266.266 122.741 265.586 122.901C264.906 123.075 264.213 123.161 263.506 123.161C262.693 123.161 261.926 123.061 261.206 122.861C260.486 122.661 259.859 122.355 259.326 121.941C258.793 121.528 258.366 121.001 258.046 120.361C257.726 119.708 257.559 118.941 257.546 118.061H260.046Z" fill="#CCCCCC"/>
<path d="M249.157 117.222L243.797 108.542H246.697L250.477 114.942L254.197 108.542H256.997L251.657 117.222V122.822H249.157V117.222Z" fill="#CCCCCC"/>
<path d="M234.109 118.061C234.109 118.608 234.202 119.075 234.389 119.461C234.576 119.848 234.836 120.168 235.169 120.421C235.502 120.661 235.882 120.841 236.309 120.961C236.749 121.068 237.222 121.121 237.729 121.121C238.276 121.121 238.742 121.061 239.129 120.941C239.516 120.808 239.829 120.641 240.069 120.441C240.309 120.241 240.482 120.015 240.589 119.761C240.696 119.495 240.749 119.228 240.749 118.961C240.749 118.415 240.622 118.015 240.369 117.761C240.129 117.495 239.862 117.308 239.569 117.201C239.062 117.015 238.469 116.841 237.789 116.681C237.122 116.508 236.296 116.288 235.309 116.021C234.696 115.861 234.182 115.655 233.769 115.401C233.369 115.135 233.049 114.841 232.809 114.521C232.569 114.201 232.396 113.861 232.289 113.501C232.196 113.141 232.149 112.775 232.149 112.401C232.149 111.681 232.296 111.061 232.589 110.541C232.896 110.008 233.296 109.568 233.789 109.221C234.282 108.875 234.842 108.621 235.469 108.461C236.096 108.288 236.729 108.201 237.369 108.201C238.116 108.201 238.816 108.301 239.469 108.501C240.136 108.688 240.716 108.975 241.209 109.361C241.716 109.748 242.116 110.228 242.409 110.801C242.702 111.361 242.849 112.015 242.849 112.761H240.349C240.282 111.841 239.969 111.195 239.409 110.821C238.849 110.435 238.136 110.241 237.269 110.241C236.976 110.241 236.676 110.275 236.369 110.341C236.062 110.395 235.782 110.495 235.529 110.641C235.276 110.775 235.062 110.961 234.889 111.201C234.729 111.441 234.649 111.741 234.649 112.101C234.649 112.608 234.802 113.008 235.109 113.301C235.429 113.581 235.842 113.795 236.349 113.941C236.402 113.955 236.609 114.015 236.969 114.121C237.342 114.215 237.756 114.321 238.209 114.441C238.662 114.561 239.102 114.681 239.529 114.801C239.969 114.908 240.282 114.988 240.469 115.041C240.936 115.188 241.342 115.388 241.689 115.641C242.036 115.895 242.322 116.188 242.549 116.521C242.789 116.841 242.962 117.188 243.069 117.561C243.189 117.935 243.249 118.308 243.249 118.681C243.249 119.481 243.082 120.168 242.749 120.741C242.429 121.301 242.002 121.761 241.469 122.121C240.936 122.481 240.329 122.741 239.649 122.901C238.969 123.075 238.276 123.161 237.569 123.161C236.756 123.161 235.989 123.061 235.269 122.861C234.549 122.661 233.922 122.355 233.389 121.941C232.856 121.528 232.429 121.001 232.109 120.361C231.789 119.708 231.622 118.941 231.609 118.061H234.109Z" fill="#CCCCCC"/>
<path d="M214.305 108.542H224.585V110.702H216.805V114.442H224.005V116.482H216.805V120.662H224.725V122.822H214.305V108.542Z" fill="#CCCCCC"/>
<path d="M199.811 108.542H202.311V114.222H208.811V108.542H211.311V122.822H208.811V116.382H202.311V122.822H199.811V108.542Z" fill="#CCCCCC"/>
<path d="M186.656 108.542H198.216V110.702H193.676V122.822H191.176V110.702H186.656V108.542Z" fill="#CCCCCC"/>
<path d="M168.24 108.542H171.22L174.46 113.582L177.84 108.542H180.64L175.92 115.422L180.98 122.822H177.94L174.38 117.362L170.76 122.822H167.9L172.96 115.422L168.24 108.542Z" fill="#CCCCCC"/>
<path d="M163.914 108.542H166.414V122.822H163.914V108.542Z" fill="#CCCCCC"/>
<path d="M152.059 108.542H161.919V110.702H154.559V114.442H161.019V116.482H154.559V122.822H152.059V108.542Z" fill="#CCCCCC"/>
</svg>
