<svg width="233" height="38" viewBox="0 0 233 38" fill="none" xmlns="http://www.w3.org/2000/svg">
<g clip-path="url(#clip0_835_17331)">
<path d="M110.369 32.4182V5.1414H116.493V32.4182H110.369Z" fill="#F5F5F5"/>
<path d="M100.07 32.4182V5.1414H106.193V32.4182H100.07Z" fill="#F5F5F5"/>
<path d="M66.4073 32.4182V8.85251L65.9434 5.1414H87.4681C89.9732 5.1414 91.8906 5.45063 93.2202 6.06914C94.5811 6.6877 95.5244 7.61549 96.05 8.85251C96.576 10.0587 96.8386 11.574 96.8386 13.3986V24.1146C96.8386 25.9701 96.576 27.5164 96.05 28.7535C95.5552 29.9596 94.6274 30.8719 93.2669 31.4904C91.9368 32.109 90.0041 32.4182 87.4681 32.4182H66.4073ZM72.5307 27.9649H87.0972C89.4784 27.9649 90.6843 26.867 90.7156 24.6712V12.842C90.7156 11.9451 90.4525 11.1874 89.9269 10.5689C89.4009 9.91948 88.4577 9.59474 87.0972 9.59474H72.5307V27.9649Z" fill="#F5F5F5"/>
<path d="M40.249 32.4182C38.0842 32.4182 36.3832 32.109 35.1462 31.4904C33.9091 30.8719 33.0277 29.9441 32.502 28.7071C32.0072 27.47 31.7598 25.9392 31.7598 24.1146V13.3986C31.7598 11.605 32.0072 10.105 32.502 8.89891C32.9968 7.66184 33.8627 6.73409 35.0998 6.11554C36.3368 5.4661 38.0532 5.1414 40.249 5.1414H53.7946C55.9595 5.1414 57.6451 5.4661 58.851 6.11554C60.0881 6.73409 60.9542 7.66184 61.449 8.89891C61.9746 10.105 62.2376 11.605 62.2376 13.3986V24.1146C62.2376 26.8361 61.6345 28.9081 60.4282 30.3307C59.2223 31.7224 57.0111 32.4182 53.7946 32.4182H40.249ZM41.5943 27.9649H52.4958C53.6399 27.9649 54.5215 27.6711 55.14 27.0835C55.7894 26.4959 56.1141 25.6918 56.1141 24.6712V12.842C56.1141 11.9451 55.7894 11.1874 55.14 10.5689C54.4906 9.91948 53.6091 9.59474 52.4958 9.59474H41.5943C40.4809 9.59474 39.5841 9.88855 38.9037 10.4761C38.2233 11.0637 37.8831 11.8523 37.8831 12.842V24.6712C37.8831 25.7227 38.2079 26.5423 38.8573 27.1299C39.5377 27.6865 40.45 27.9649 41.5943 27.9649Z" fill="#F5F5F5"/>
<path d="M0.463891 32.4183V8.85255L0 5.095H20.5504C22.5297 5.095 24.076 5.35788 25.1893 5.88361C26.3336 6.40938 27.1686 7.10522 27.6944 7.97115C28.251 8.80616 28.6067 9.70302 28.7613 10.6617C28.9159 11.6204 28.9932 12.5327 28.9932 13.3987V16.1357C28.9932 16.847 28.885 17.651 28.6685 18.5479C28.4521 19.4138 28.05 20.2643 27.4624 21.0993C26.8748 21.9034 26.0244 22.5838 24.911 23.1404C23.7977 23.6661 22.3441 23.929 20.5504 23.929H15.8187C13.8704 23.929 12.0457 23.8826 10.3448 23.7899C8.67477 23.6971 7.42228 23.6198 6.58727 23.5579V32.4183H0.463891ZM6.58727 19.4757H19.2051C20.5968 19.4757 21.5555 19.1355 22.0813 18.4551C22.607 17.7747 22.8699 16.9552 22.8699 15.9965V13.074C22.8699 12.0843 22.607 11.2493 22.0813 10.569C21.5555 9.88854 20.6123 9.54838 19.2515 9.54838H6.58727V19.4757Z" fill="#F5F5F5"/>
<path d="M127.121 -7.62939e-06V37.5134" stroke="#F5F5F5" stroke-width="1.25045"/>
<path d="M226.248 21.6213H227.732L231.397 27.5338H231.419V21.6213H232.757V29.647H231.273L227.62 23.7458H227.586V29.647H226.248V21.6213Z" fill="#F5F5F5"/>
<path d="M221.18 22.5767C220.753 22.5767 220.382 22.6629 220.067 22.8352C219.76 23.0076 219.509 23.2399 219.315 23.5321C219.119 23.8169 218.974 24.1429 218.876 24.5101C218.786 24.8773 218.741 25.252 218.741 25.6341C218.741 26.0163 218.786 26.391 218.876 26.7582C218.974 27.1254 219.119 27.4551 219.315 27.7474C219.509 28.0321 219.76 28.2607 220.067 28.4331C220.382 28.6054 220.753 28.6916 221.18 28.6916C221.607 28.6916 221.975 28.6054 222.282 28.4331C222.597 28.2607 222.851 28.0321 223.046 27.7474C223.241 27.4551 223.384 27.1254 223.474 26.7582C223.571 26.391 223.619 26.0163 223.619 25.6341C223.619 25.252 223.571 24.8773 223.474 24.5101C223.384 24.1429 223.241 23.8169 223.046 23.5321C222.851 23.2399 222.597 23.0076 222.282 22.8352C221.975 22.6629 221.607 22.5767 221.18 22.5767ZM221.18 21.4302C221.78 21.4302 222.316 21.5426 222.788 21.7674C223.267 21.9922 223.672 22.2957 224.002 22.6779C224.331 23.0601 224.583 23.5059 224.755 24.0155C224.935 24.5251 225.025 25.0646 225.025 25.6341C225.025 26.2111 224.935 26.7545 224.755 27.264C224.583 27.7736 224.331 28.2195 224.002 28.6017C223.672 28.9838 223.267 29.2873 222.788 29.5122C222.316 29.7294 221.78 29.8381 221.18 29.8381C220.581 29.8381 220.041 29.7294 219.562 29.5122C219.089 29.2873 218.688 28.9838 218.359 28.6017C218.029 28.2195 217.774 27.7736 217.595 27.264C217.422 26.7545 217.336 26.2111 217.336 25.6341C217.336 25.0646 217.422 24.5251 217.595 24.0155C217.774 23.5059 218.029 23.0601 218.359 22.6779C218.688 22.2957 219.089 21.9922 219.562 21.7674C220.041 21.5426 220.581 21.4302 221.18 21.4302Z" fill="#F5F5F5"/>
<path d="M211.397 26.9718C211.397 27.279 211.449 27.5413 211.554 27.7586C211.659 27.9759 211.805 28.1558 211.993 28.2981C212.18 28.4331 212.394 28.5342 212.634 28.6017C212.881 28.6616 213.147 28.6916 213.432 28.6916C213.739 28.6916 214.001 28.6579 214.218 28.5904C214.436 28.5155 214.612 28.4218 214.747 28.3094C214.882 28.197 214.979 28.0696 215.039 27.9272C215.099 27.7773 215.129 27.6275 215.129 27.4776C215.129 27.1704 215.058 26.9455 214.915 26.8031C214.781 26.6533 214.631 26.5484 214.466 26.4884C214.181 26.3835 213.848 26.2861 213.466 26.1962C213.091 26.0988 212.626 25.9751 212.072 25.8252C211.727 25.7353 211.438 25.6191 211.206 25.4768C210.981 25.3269 210.801 25.1621 210.667 24.9822C210.532 24.8023 210.434 24.6112 210.374 24.4089C210.322 24.2066 210.296 24.0005 210.296 23.7907C210.296 23.386 210.378 23.0376 210.543 22.7453C210.715 22.4455 210.94 22.1983 211.217 22.0034C211.494 21.8086 211.809 21.6662 212.161 21.5763C212.514 21.4789 212.869 21.4302 213.229 21.4302C213.649 21.4302 214.042 21.4864 214.41 21.5988C214.784 21.7037 215.11 21.8648 215.387 22.0821C215.672 22.2995 215.897 22.5692 216.062 22.8915C216.227 23.2062 216.309 23.5734 216.309 23.993H214.904C214.867 23.476 214.691 23.1125 214.376 22.9027C214.061 22.6854 213.66 22.5767 213.173 22.5767C213.008 22.5767 212.839 22.5954 212.667 22.6329C212.495 22.6629 212.338 22.7191 212.195 22.8015C212.053 22.8765 211.933 22.9814 211.835 23.1162C211.746 23.2511 211.701 23.4198 211.701 23.6221C211.701 23.9069 211.787 24.1316 211.959 24.2965C212.139 24.4539 212.371 24.5738 212.656 24.6562C212.686 24.6637 212.802 24.6974 213.005 24.7574C213.214 24.8098 213.447 24.8698 213.701 24.9372C213.956 25.0047 214.204 25.0721 214.443 25.1396C214.691 25.1995 214.867 25.2445 214.971 25.2744C215.234 25.3569 215.462 25.4693 215.657 25.6117C215.852 25.7541 216.013 25.9189 216.141 26.1062C216.276 26.2861 216.373 26.4809 216.433 26.6908C216.5 26.9006 216.534 27.1104 216.534 27.3202C216.534 27.7699 216.44 28.1558 216.253 28.478C216.073 28.7927 215.833 29.0513 215.534 29.2536C215.234 29.4559 214.893 29.6021 214.511 29.692C214.129 29.7894 213.739 29.8381 213.342 29.8381C212.884 29.8381 212.454 29.7819 212.049 29.6695C211.644 29.5571 211.292 29.3847 210.993 29.1524C210.693 28.9202 210.453 28.6241 210.273 28.2644C210.093 27.8972 210 27.4663 209.992 26.9718H211.397Z" fill="#F5F5F5"/>
<path d="M202.561 21.6213H206.394C207.278 21.6213 207.941 21.8124 208.383 22.1945C208.825 22.5767 209.047 23.1088 209.047 23.7907C209.047 24.1729 208.99 24.4914 208.878 24.7462C208.765 24.9935 208.634 25.1958 208.484 25.3531C208.335 25.503 208.185 25.6117 208.035 25.6791C207.892 25.7466 207.787 25.7915 207.72 25.814V25.8365C207.84 25.8515 207.967 25.8889 208.102 25.9489C208.245 26.0089 208.376 26.1063 208.496 26.2412C208.616 26.3685 208.713 26.5372 208.788 26.747C208.87 26.9568 208.912 27.2191 208.912 27.5338C208.912 28.0059 208.945 28.4368 209.013 28.8265C209.087 29.2087 209.2 29.4822 209.35 29.647H207.844C207.739 29.4747 207.675 29.2836 207.653 29.0738C207.638 28.864 207.63 28.6616 207.63 28.4668C207.63 28.0996 207.608 27.7849 207.563 27.5226C207.518 27.2528 207.435 27.0317 207.316 26.8594C207.196 26.6795 207.03 26.5484 206.821 26.466C206.619 26.3835 206.356 26.3423 206.034 26.3423H203.966V29.647H202.561V21.6213ZM203.966 25.2745H206.27C206.72 25.2745 207.06 25.1696 207.293 24.9597C207.525 24.7424 207.642 24.4202 207.642 23.9931C207.642 23.7383 207.604 23.5322 207.529 23.3748C207.454 23.2099 207.349 23.0826 207.214 22.9926C207.087 22.9027 206.937 22.8428 206.765 22.8128C206.6 22.7828 206.427 22.7678 206.248 22.7678H203.966V25.2745Z" fill="#F5F5F5"/>
<path d="M195.48 21.6213H201.258V22.8353H196.886V24.9372H200.932V26.0838H196.886V28.4331H201.337V29.647H195.48V21.6213Z" fill="#F5F5F5"/>
<path d="M187.982 21.6213H191.523C192.093 21.6213 192.557 21.7037 192.917 21.8685C193.277 22.0334 193.554 22.2395 193.749 22.4868C193.944 22.7341 194.075 23.0039 194.143 23.2961C194.218 23.5884 194.255 23.8581 194.255 24.1054C194.255 24.3527 194.218 24.6225 194.143 24.9148C194.075 25.1995 193.944 25.4655 193.749 25.7128C193.554 25.9601 193.277 26.1662 192.917 26.3311C192.557 26.4884 192.093 26.5671 191.523 26.5671H189.388V29.647H187.982V21.6213ZM189.388 25.4206H191.445C191.602 25.4206 191.763 25.3981 191.928 25.3531C192.093 25.3082 192.243 25.237 192.378 25.1396C192.52 25.0347 192.632 24.8998 192.715 24.7349C192.805 24.5626 192.85 24.349 192.85 24.0942C192.85 23.8319 192.812 23.6146 192.737 23.4422C192.662 23.2699 192.561 23.135 192.434 23.0376C192.306 22.9327 192.16 22.8615 191.996 22.824C191.83 22.7865 191.655 22.7678 191.467 22.7678H189.388V25.4206Z" fill="#F5F5F5"/>
<path d="M177.773 21.6213H183.551V22.8353H179.179V24.9372H183.225V26.0838H179.179V28.4331H183.63V29.647H177.773V21.6213Z" fill="#F5F5F5"/>
<path d="M169.629 21.6213H171.034V24.8136H174.687V21.6213H176.092V29.647H174.687V26.0276H171.034V29.647H169.629V21.6213Z" fill="#F5F5F5"/>
<path d="M162.234 21.6213H168.731V22.8353H166.18V29.647H164.774V22.8353H162.234V21.6213Z" fill="#F5F5F5"/>
<path d="M152.443 21.6213H158.941V22.8353H156.389V29.647H154.984V22.8353H152.443V21.6213Z" fill="#F5F5F5"/>
<path d="M148.085 22.5767C147.657 22.5767 147.286 22.6629 146.972 22.8352C146.664 23.0076 146.414 23.2399 146.218 23.5321C146.024 23.8169 145.877 24.1429 145.78 24.5101C145.69 24.8773 145.645 25.252 145.645 25.6341C145.645 26.0163 145.69 26.391 145.78 26.7582C145.877 27.1254 146.024 27.4551 146.218 27.7474C146.414 28.0321 146.664 28.2607 146.972 28.4331C147.286 28.6054 147.657 28.6916 148.085 28.6916C148.512 28.6916 148.879 28.6054 149.186 28.4331C149.501 28.2607 149.756 28.0321 149.951 27.7474C150.145 27.4551 150.288 27.1254 150.377 26.7582C150.475 26.391 150.524 26.0163 150.524 25.6341C150.524 25.252 150.475 24.8773 150.377 24.5101C150.288 24.1429 150.145 23.8169 149.951 23.5321C149.756 23.2399 149.501 23.0076 149.186 22.8352C148.879 22.6629 148.512 22.5767 148.085 22.5767ZM148.085 21.4302C148.684 21.4302 149.22 21.5426 149.692 21.7674C150.172 21.9922 150.576 22.2957 150.906 22.6779C151.236 23.0601 151.487 23.5059 151.659 24.0155C151.839 24.5251 151.929 25.0646 151.929 25.6341C151.929 26.2111 151.839 26.7545 151.659 27.264C151.487 27.7736 151.236 28.2195 150.906 28.6017C150.576 28.9838 150.172 29.2873 149.692 29.5122C149.22 29.7294 148.684 29.8381 148.085 29.8381C147.485 29.8381 146.945 29.7294 146.466 29.5122C145.994 29.2873 145.593 28.9838 145.263 28.6017C144.933 28.2195 144.679 27.7736 144.499 27.264C144.327 26.7545 144.24 26.2111 144.24 25.6341C144.24 25.0646 144.327 24.5251 144.499 24.0155C144.679 23.5059 144.933 23.0601 145.263 22.6779C145.593 22.2957 145.994 21.9922 146.466 21.7674C146.945 21.5426 147.485 21.4302 148.085 21.4302Z" fill="#F5F5F5"/>
<path d="M136.498 21.6213H137.982L141.646 27.5338H141.669V21.6213H143.006V29.647H141.522L137.869 23.7458H137.836V29.647H136.498V21.6213Z" fill="#F5F5F5"/>
<path d="M217.336 7.86637H219.314L221.529 14.1498H221.551L223.709 7.86637H225.665V15.8921H224.328V9.69857H224.305L222.079 15.8921H220.922L218.696 9.69857H218.673V15.8921H217.336V7.86637Z" fill="#F5F5F5"/>
<path d="M210.277 7.86637H216.055V9.08035H211.682V11.1823H215.729V12.3289H211.682V14.6781H216.134V15.8921H210.277V7.86637Z" fill="#F5F5F5"/>
<path d="M202.85 7.86637H209.347V9.08035H206.795V15.8921H205.39V9.08035H202.85V7.86637Z" fill="#F5F5F5"/>
<path d="M197.247 13.2169C197.247 13.5241 197.299 13.7864 197.404 14.0037C197.509 14.221 197.655 14.4009 197.843 14.5433C198.03 14.6781 198.243 14.7793 198.483 14.8467C198.731 14.9067 198.997 14.9367 199.281 14.9367C199.589 14.9367 199.851 14.9029 200.068 14.8355C200.285 14.7605 200.462 14.6669 200.596 14.5545C200.731 14.4421 200.829 14.3147 200.889 14.1723C200.949 14.0224 200.979 13.8726 200.979 13.7227C200.979 13.4154 200.907 13.1906 200.765 13.0482C200.63 12.8984 200.481 12.7935 200.315 12.7335C200.031 12.6286 199.697 12.5312 199.315 12.4413C198.94 12.3438 198.476 12.2202 197.921 12.0703C197.577 11.9804 197.288 11.8642 197.056 11.7218C196.831 11.572 196.651 11.4071 196.516 11.2273C196.381 11.0474 196.284 10.8563 196.224 10.654C196.171 10.4517 196.145 10.2456 196.145 10.0358C196.145 9.63109 196.228 9.28263 196.392 8.9904C196.565 8.69063 196.79 8.44337 197.067 8.24851C197.344 8.05369 197.659 7.91131 198.011 7.82136C198.364 7.72395 198.719 7.67526 199.079 7.67526C199.499 7.67526 199.892 7.73145 200.259 7.84386C200.634 7.94878 200.96 8.10988 201.237 8.3272C201.522 8.54453 201.747 8.81429 201.911 9.13654C202.077 9.45127 202.159 9.81845 202.159 10.2381H200.754C200.716 9.72104 200.54 9.35757 200.225 9.14775C199.911 8.93046 199.51 8.8218 199.023 8.8218C198.858 8.8218 198.689 8.84051 198.517 8.87798C198.345 8.90795 198.187 8.96418 198.045 9.04659C197.903 9.12153 197.782 9.22644 197.685 9.36132C197.595 9.49621 197.55 9.66485 197.55 9.86717C197.55 10.1519 197.637 10.3767 197.809 10.5416C197.989 10.699 198.221 10.8188 198.506 10.9013C198.536 10.9088 198.652 10.9425 198.854 11.0025C199.064 11.0549 199.296 11.1149 199.551 11.1823C199.806 11.2497 200.053 11.3172 200.293 11.3846C200.54 11.4446 200.716 11.4895 200.821 11.5195C201.084 11.602 201.312 11.7144 201.507 11.8568C201.702 11.9991 201.863 12.164 201.99 12.3513C202.125 12.5312 202.223 12.726 202.282 12.9359C202.35 13.1457 202.384 13.3555 202.384 13.5653C202.384 14.0149 202.29 14.4009 202.103 14.7231C201.923 15.0378 201.683 15.2964 201.383 15.4987C201.084 15.701 200.743 15.8471 200.36 15.9371C199.978 16.0345 199.589 16.0832 199.191 16.0832C198.735 16.0832 198.304 16.027 197.899 15.9146C197.494 15.8022 197.142 15.6298 196.842 15.3975C196.542 15.1652 196.303 14.8692 196.123 14.5095C195.943 14.1423 195.849 13.7114 195.842 13.2169H197.247Z" fill="#F5F5F5"/>
<path d="M191.128 12.7448L188.115 7.86637H189.745L191.87 11.4633L193.961 7.86637H195.534L192.533 12.7448V15.8921H191.128V12.7448Z" fill="#F5F5F5"/>
<path d="M182.669 13.2169C182.669 13.5241 182.721 13.7864 182.826 14.0037C182.931 14.221 183.077 14.4009 183.264 14.5433C183.452 14.6781 183.665 14.7793 183.905 14.8467C184.153 14.9067 184.419 14.9367 184.703 14.9367C185.01 14.9367 185.273 14.9029 185.49 14.8355C185.707 14.7605 185.884 14.6669 186.018 14.5545C186.153 14.4421 186.251 14.3147 186.311 14.1723C186.371 14.0224 186.401 13.8726 186.401 13.7227C186.401 13.4154 186.33 13.1906 186.187 13.0482C186.052 12.8984 185.902 12.7935 185.737 12.7335C185.453 12.6286 185.119 12.5312 184.737 12.4413C184.362 12.3438 183.898 12.2202 183.343 12.0703C182.998 11.9804 182.71 11.8642 182.478 11.7218C182.253 11.572 182.073 11.4071 181.938 11.2273C181.803 11.0474 181.706 10.8563 181.646 10.654C181.593 10.4517 181.567 10.2456 181.567 10.0358C181.567 9.63109 181.65 9.28263 181.815 8.9904C181.987 8.69063 182.212 8.44337 182.489 8.24851C182.766 8.05369 183.081 7.91131 183.433 7.82136C183.785 7.72395 184.141 7.67526 184.501 7.67526C184.921 7.67526 185.314 7.73145 185.681 7.84386C186.056 7.94878 186.382 8.10988 186.659 8.3272C186.944 8.54453 187.169 8.81429 187.334 9.13654C187.498 9.45127 187.581 9.81845 187.581 10.2381H186.176C186.138 9.72104 185.962 9.35757 185.648 9.14775C185.333 8.93046 184.932 8.8218 184.445 8.8218C184.28 8.8218 184.111 8.84051 183.939 8.87798C183.767 8.90795 183.609 8.96418 183.467 9.04659C183.324 9.12153 183.205 9.22644 183.107 9.36132C183.017 9.49621 182.972 9.66485 182.972 9.86717C182.972 10.1519 183.058 10.3767 183.231 10.5416C183.411 10.699 183.643 10.8188 183.928 10.9013C183.958 10.9088 184.074 10.9425 184.276 11.0025C184.486 11.0549 184.718 11.1149 184.973 11.1823C185.228 11.2497 185.475 11.3172 185.715 11.3846C185.962 11.4446 186.138 11.4895 186.243 11.5195C186.506 11.602 186.734 11.7144 186.929 11.8568C187.124 11.9991 187.285 12.164 187.413 12.3513C187.547 12.5312 187.645 12.726 187.705 12.9359C187.772 13.1457 187.806 13.3555 187.806 13.5653C187.806 14.0149 187.712 14.4009 187.525 14.7231C187.345 15.0378 187.105 15.2964 186.805 15.4987C186.506 15.701 186.165 15.8471 185.782 15.9371C185.4 16.0345 185.01 16.0832 184.614 16.0832C184.156 16.0832 183.725 16.027 183.321 15.9146C182.916 15.8022 182.564 15.6298 182.264 15.3975C181.964 15.1652 181.725 14.8692 181.545 14.5095C181.365 14.1423 181.271 13.7114 181.264 13.2169H182.669Z" fill="#F5F5F5"/>
<path d="M171.539 7.86637H177.317V9.08035H172.944V11.1823H176.991V12.3289H172.944V14.6781H177.395V15.8921H171.539V7.86637Z" fill="#F5F5F5"/>
<path d="M163.393 7.86637H164.798V11.0587H168.451V7.86637H169.856V15.8921H168.451V12.2727H164.798V15.8921H163.393V7.86637Z" fill="#F5F5F5"/>
<path d="M156 7.86637H162.497V9.08035H159.946V15.8921H158.54V9.08035H156V7.86637Z" fill="#F5F5F5"/>
<path d="M145.65 7.86637H147.325L149.146 10.699L151.046 7.86637H152.619L149.966 11.7331L152.81 15.8921H151.102L149.101 12.8234L147.066 15.8921H145.459L148.303 11.7331L145.65 7.86637Z" fill="#F5F5F5"/>
<path d="M143.219 7.86637H144.624V15.8921H143.219V7.86637Z" fill="#F5F5F5"/>
<path d="M136.555 7.86637H142.096V9.08035H137.96V11.1823H141.59V12.3289H137.96V15.8921H136.555V7.86637Z" fill="#F5F5F5"/>
</g>
<defs>
<clipPath id="clip0_835_17331">
<rect width="233" height="37.5134" rx="2.20227" fill="white"/>
</clipPath>
</defs>
</svg>
