<svg width="710" height="144" viewBox="0 0 710 144" fill="none" xmlns="http://www.w3.org/2000/svg">
<path d="M137 144H45V107.229C50.3705 107.427 56.0051 107.529 61.9033 107.529H82.2314C89.9372 107.529 96.1819 106.4 100.965 104.142C105.748 101.75 109.401 98.8265 111.926 95.3721C114.45 91.7848 116.177 88.1312 117.107 84.4111C118.037 80.5582 118.503 77.1036 118.503 74.0479V70.0801L92.1963 70.0029V73.4502C92.1962 77.5687 91.0662 81.0898 88.8076 84.0127C86.549 86.9354 82.4304 88.3973 76.4521 88.3975H45V45.748H76.6514C82.497 45.7481 86.549 47.2099 88.8076 50.1328C91.0661 53.0557 92.1963 56.6431 92.1963 60.8945V66.0029L118.503 66.0801V62.2891C118.503 58.5691 118.171 54.6497 117.507 50.5312C116.843 46.4126 115.314 42.5589 112.923 38.9717C110.664 35.2517 107.077 32.2625 102.161 30.0039C97.3781 27.7453 90.7345 26.6153 82.2314 26.6152H0V0H137V144Z" fill="black"/>
<path d="M415.789 104.776V39.3352H430.48V104.776H415.789Z" fill="black"/>
<path d="M391.083 104.776V39.3352H405.774V104.776H391.083Z" fill="black"/>
<path d="M310.321 104.776V48.2387L309.208 39.3352H360.849C366.858 39.3352 371.459 40.0772 374.649 41.5611C377.914 43.045 380.177 45.2709 381.438 48.2387C382.699 51.1324 383.33 54.768 383.33 59.1456V84.8546C383.33 89.3063 382.699 93.0161 381.438 95.984C380.251 98.8776 378.025 101.066 374.76 102.55C371.57 104.034 366.933 104.776 360.849 104.776H310.321ZM325.012 94.092H359.958C365.671 94.092 368.565 91.458 368.639 86.1901V57.8101C368.639 55.6584 368.008 53.8406 366.747 52.3566C365.486 50.7985 363.223 50.0195 359.958 50.0195H325.012V94.092Z" fill="black"/>
<path d="M247.564 104.776C242.37 104.776 238.29 104.034 235.322 102.55C232.354 101.066 230.239 98.8405 228.978 95.8727C227.791 92.9049 227.197 89.2321 227.197 84.8546V59.1456C227.197 54.8422 227.791 51.2437 228.978 48.35C230.165 45.3822 232.243 43.1563 235.21 41.6724C238.178 40.1143 242.296 39.3352 247.564 39.3352H280.062C285.256 39.3352 289.299 40.1143 292.193 41.6724C295.161 43.1563 297.238 45.3822 298.426 48.35C299.687 51.2437 300.318 54.8422 300.318 59.1456V84.8546C300.318 91.3838 298.871 96.355 295.977 99.768C293.083 103.107 287.778 104.776 280.062 104.776H247.564ZM250.792 94.092H276.946C279.691 94.092 281.806 93.3871 283.29 91.9774C284.848 90.5677 285.627 88.6386 285.627 86.1901V57.8101C285.627 55.6584 284.848 53.8406 283.29 52.3566C281.731 50.7985 279.617 50.0195 276.946 50.0195H250.792C248.121 50.0195 245.969 50.7243 244.337 52.134C242.704 53.5438 241.888 55.4358 241.888 57.8101V86.1901C241.888 88.7128 242.667 90.679 244.225 92.0887C245.858 93.4242 248.046 94.092 250.792 94.092Z" fill="black"/>
<path d="M152.113 104.776V48.2387L151 39.2239H200.303C205.052 39.2239 208.762 39.8545 211.433 41.1159C214.178 42.3772 216.181 44.0466 217.443 46.1241C218.778 48.1274 219.631 50.2791 220.002 52.5792C220.373 54.8793 220.559 57.0681 220.559 59.1456V65.7119C220.559 67.4184 220.299 69.3475 219.78 71.4992C219.26 73.5767 218.296 75.6171 216.886 77.6204C215.476 79.5495 213.436 81.1818 210.765 82.5174C208.094 83.7787 204.607 84.4094 200.303 84.4094H188.951C184.277 84.4094 179.899 84.2981 175.819 84.0755C171.812 83.8529 168.807 83.6674 166.804 83.519V104.776H152.113ZM166.804 73.7251H197.076C200.415 73.7251 202.715 72.909 203.976 71.2766C205.237 69.6443 205.868 67.6781 205.868 65.378V58.3665C205.868 55.9922 205.237 53.9889 203.976 52.3566C202.715 50.7243 200.452 49.9081 197.187 49.9081H166.804V73.7251Z" fill="black"/>
<line x1="455.979" y1="27" x2="455.979" y2="117" stroke="black" stroke-width="3"/>
<path d="M693.8 78.8726H697.36L706.151 93.0576H706.205V78.8726H709.414V98.1275H705.854L697.09 83.9695H697.009V98.1275H693.8V78.8726Z" fill="black"/>
<path d="M681.644 81.1648C680.619 81.1648 679.729 81.3715 678.974 81.785C678.237 82.1985 677.635 82.7559 677.167 83.457C676.7 84.1402 676.349 84.9223 676.115 85.8032C675.9 86.6842 675.792 87.5831 675.792 88.5C675.792 89.4169 675.9 90.3158 676.115 91.1968C676.349 92.0777 676.7 92.8688 677.167 93.5699C677.635 94.2531 678.237 94.8015 678.974 95.215C679.729 95.6285 680.619 95.8352 681.644 95.8352C682.669 95.8352 683.55 95.6285 684.287 95.215C685.042 94.8015 685.653 94.2531 686.12 93.5699C686.588 92.8688 686.93 92.0777 687.145 91.1968C687.379 90.3158 687.496 89.4169 687.496 88.5C687.496 87.5831 687.379 86.6842 687.145 85.8032C686.93 84.9223 686.588 84.1402 686.12 83.457C685.653 82.7559 685.042 82.1985 684.287 81.785C683.55 81.3715 682.669 81.1648 681.644 81.1648ZM681.644 78.4141C683.082 78.4141 684.368 78.6837 685.5 79.2231C686.651 79.7624 687.622 80.4906 688.413 81.4075C689.204 82.3244 689.806 83.3941 690.22 84.6166C690.651 85.8392 690.867 87.1336 690.867 88.5C690.867 89.8843 690.651 91.1878 690.22 92.4103C689.806 93.6329 689.204 94.7026 688.413 95.6195C687.622 96.5364 686.651 97.2645 685.5 97.8039C684.368 98.3252 683.082 98.5859 681.644 98.5859C680.206 98.5859 678.911 98.3252 677.76 97.8039C676.628 97.2645 675.666 96.5364 674.875 95.6195C674.084 94.7026 673.473 93.6329 673.041 92.4103C672.628 91.1878 672.421 89.8843 672.421 88.5C672.421 87.1336 672.628 85.8392 673.041 84.6166C673.473 83.3941 674.084 82.3244 674.875 81.4075C675.666 80.4906 676.628 79.7624 677.76 79.2231C678.911 78.6837 680.206 78.4141 681.644 78.4141Z" fill="black"/>
<path d="M658.171 91.7092C658.171 92.4463 658.297 93.0755 658.548 93.5969C658.8 94.1183 659.151 94.5498 659.6 94.8913C660.05 95.215 660.562 95.4577 661.137 95.6195C661.731 95.7633 662.369 95.8352 663.052 95.8352C663.789 95.8352 664.418 95.7543 664.94 95.5925C665.461 95.4127 665.884 95.188 666.207 94.9183C666.531 94.6486 666.764 94.343 666.908 94.0014C667.052 93.6418 667.124 93.2823 667.124 92.9227C667.124 92.1856 666.953 91.6462 666.612 91.3046C666.288 90.9451 665.928 90.6934 665.533 90.5495C664.85 90.2978 664.05 90.0641 663.133 89.8484C662.234 89.6147 661.119 89.318 659.789 88.9584C658.962 88.7427 658.27 88.464 657.712 88.1224C657.173 87.7629 656.741 87.3674 656.418 86.9359C656.094 86.5044 655.861 86.0459 655.717 85.5605C655.591 85.0751 655.528 84.5807 655.528 84.0773C655.528 83.1064 655.726 82.2704 656.121 81.5693C656.535 80.8501 657.074 80.2569 657.739 79.7894C658.404 79.322 659.16 78.9804 660.005 78.7646C660.85 78.5309 661.704 78.4141 662.567 78.4141C663.573 78.4141 664.517 78.5489 665.398 78.8186C666.297 79.0703 667.079 79.4568 667.744 79.9782C668.428 80.4996 668.967 81.1468 669.362 81.9199C669.758 82.675 669.956 83.5559 669.956 84.5627H666.585C666.495 83.3222 666.072 82.4502 665.317 81.9468C664.562 81.4255 663.6 81.1648 662.432 81.1648C662.036 81.1648 661.632 81.2097 661.218 81.2996C660.805 81.3715 660.427 81.5064 660.085 81.7041C659.744 81.8839 659.456 82.1356 659.223 82.4592C659.007 82.7828 658.899 83.1874 658.899 83.6728C658.899 84.356 659.106 84.8953 659.519 85.2908C659.951 85.6684 660.508 85.956 661.191 86.1538C661.263 86.1718 661.542 86.2527 662.027 86.3965C662.531 86.5224 663.088 86.6662 663.699 86.828C664.31 86.9898 664.904 87.1516 665.479 87.3134C666.072 87.4572 666.495 87.5651 666.747 87.637C667.376 87.8348 667.924 88.1045 668.392 88.4461C668.859 88.7877 669.246 89.1832 669.551 89.6326C669.875 90.0641 670.108 90.5316 670.252 91.035C670.414 91.5384 670.495 92.0418 670.495 92.5452C670.495 93.6239 670.27 94.5498 669.821 95.3228C669.389 96.0779 668.814 96.6982 668.095 97.1836C667.376 97.669 666.558 98.0196 665.641 98.2354C664.724 98.4691 663.789 98.5859 662.836 98.5859C661.74 98.5859 660.706 98.4511 659.735 98.1814C658.764 97.9117 657.919 97.4982 657.2 96.9409C656.481 96.3836 655.905 95.6734 655.474 94.8104C655.043 93.9295 654.818 92.8957 654.8 91.7092H658.171Z" fill="black"/>
<path d="M636.971 78.8726H646.167C648.288 78.8726 649.879 79.331 650.94 80.2479C652.001 81.1648 652.531 82.4413 652.531 84.0773C652.531 84.9942 652.396 85.7583 652.127 86.3696C651.857 86.9629 651.542 87.4483 651.183 87.8258C650.823 88.1854 650.464 88.4461 650.104 88.6079C649.762 88.7697 649.511 88.8776 649.349 88.9315V88.9855C649.637 89.0214 649.942 89.1113 650.266 89.2551C650.607 89.399 650.922 89.6327 651.21 89.9563C651.497 90.2619 651.731 90.6665 651.911 91.1698C652.109 91.6732 652.207 92.3025 652.207 93.0576C652.207 94.1902 652.288 95.224 652.45 96.1589C652.63 97.0758 652.9 97.732 653.259 98.1275H649.646C649.394 97.714 649.241 97.2556 649.187 96.7522C649.151 96.2488 649.133 95.7634 649.133 95.2959C649.133 94.415 649.079 93.6599 648.971 93.0306C648.863 92.3834 648.666 91.853 648.378 91.4395C648.09 91.008 647.695 90.6934 647.191 90.4957C646.706 90.2979 646.077 90.199 645.304 90.199H640.342V98.1275H636.971V78.8726ZM640.342 87.6371H645.87C646.949 87.6371 647.767 87.3854 648.324 86.882C648.881 86.3606 649.16 85.5875 649.16 84.5628C649.16 83.9515 649.07 83.4571 648.89 83.0795C648.711 82.684 648.459 82.3784 648.135 82.1626C647.83 81.9469 647.47 81.8031 647.057 81.7311C646.661 81.6592 646.248 81.6233 645.816 81.6233H640.342V87.6371Z" fill="black"/>
<path d="M619.984 78.8726H633.846V81.7851H623.355V86.828H633.064V89.5788H623.355V95.215H634.035V98.1275H619.984V78.8726Z" fill="black"/>
<path d="M601.997 78.8726H610.492C611.858 78.8726 612.973 79.0703 613.836 79.4658C614.699 79.8614 615.364 80.3558 615.832 80.9491C616.299 81.5424 616.614 82.1896 616.775 82.8908C616.955 83.5919 617.045 84.2391 617.045 84.8324C617.045 85.4257 616.955 86.0729 616.775 86.7741C616.614 87.4573 616.299 88.0955 615.832 88.6888C615.364 89.2821 614.699 89.7765 613.836 90.172C612.973 90.5496 611.858 90.7384 610.492 90.7384H605.368V98.1275H601.997V78.8726ZM605.368 87.9877H610.303C610.681 87.9877 611.067 87.9337 611.463 87.8258C611.858 87.718 612.218 87.5472 612.541 87.3135C612.883 87.0618 613.153 86.7381 613.35 86.3426C613.566 85.9291 613.674 85.4167 613.674 84.8055C613.674 84.1762 613.584 83.6548 613.404 83.2413C613.225 82.8278 612.982 82.5042 612.676 82.2705C612.371 82.0188 612.02 81.848 611.625 81.7581C611.229 81.6682 610.807 81.6233 610.357 81.6233H605.368V87.9877Z" fill="black"/>
<path d="M577.505 78.8726H591.366V81.7851H580.876V86.828H590.584V89.5788H580.876V95.215H591.555V98.1275H577.505V78.8726Z" fill="black"/>
<path d="M557.962 78.8726H561.333V86.5314H570.097V78.8726H573.468V98.1275H570.097V89.4439H561.333V98.1275H557.962V78.8726Z" fill="black"/>
<path d="M540.224 78.8726H555.811V81.7851H549.689V98.1275H546.318V81.7851H540.224V78.8726Z" fill="black"/>
<path d="M516.731 78.8726H532.319V81.7851H526.197V98.1275H522.826V81.7851H516.731V78.8726Z" fill="black"/>
<path d="M506.275 81.1648C505.25 81.1648 504.36 81.3715 503.605 81.785C502.868 82.1985 502.266 82.7559 501.798 83.457C501.331 84.1402 500.98 84.9223 500.746 85.8032C500.531 86.6842 500.423 87.5831 500.423 88.5C500.423 89.4169 500.531 90.3158 500.746 91.1968C500.98 92.0777 501.331 92.8688 501.798 93.5699C502.266 94.2531 502.868 94.8015 503.605 95.215C504.36 95.6285 505.25 95.8352 506.275 95.8352C507.299 95.8352 508.18 95.6285 508.918 95.215C509.673 94.8015 510.284 94.2531 510.751 93.5699C511.219 92.8688 511.56 92.0777 511.776 91.1968C512.01 90.3158 512.127 89.4169 512.127 88.5C512.127 87.5831 512.01 86.6842 511.776 85.8032C511.56 84.9223 511.219 84.1402 510.751 83.457C510.284 82.7559 509.673 82.1985 508.918 81.785C508.18 81.3715 507.299 81.1648 506.275 81.1648ZM506.275 78.4141C507.713 78.4141 508.998 78.6837 510.131 79.2231C511.282 79.7624 512.253 80.4906 513.044 81.4075C513.835 82.3244 514.437 83.3941 514.85 84.6166C515.282 85.8392 515.498 87.1336 515.498 88.5C515.498 89.8843 515.282 91.1878 514.85 92.4103C514.437 93.6329 513.835 94.7026 513.044 95.6195C512.253 96.5364 511.282 97.2645 510.131 97.8039C508.998 98.3252 507.713 98.5859 506.275 98.5859C504.836 98.5859 503.542 98.3252 502.391 97.8039C501.259 97.2645 500.297 96.5364 499.506 95.6195C498.715 94.7026 498.103 93.6329 497.672 92.4103C497.259 91.1878 497.052 89.8843 497.052 88.5C497.052 87.1336 497.259 85.8392 497.672 84.6166C498.103 83.3941 498.715 82.3244 499.506 81.4075C500.297 80.4906 501.259 79.7624 502.391 79.2231C503.542 78.6837 504.836 78.4141 506.275 78.4141Z" fill="black"/>
<path d="M478.479 78.8726H482.039L490.831 93.0576H490.885V78.8726H494.094V98.1275H490.534L481.77 83.9695H481.689V98.1275H478.479V78.8726Z" fill="black"/>
<path d="M696.248 61.4868H699.997V65.1275C699.979 66.2421 699.637 67.177 698.972 67.9321C698.307 68.6872 697.435 69.1726 696.356 69.3884V67.7433C696.949 67.5995 697.39 67.2669 697.677 66.7455C697.983 66.2421 698.127 65.7028 698.109 65.1275H696.248V61.4868Z" fill="black"/>
<path d="M672.418 45.8726H677.164L682.477 60.9475H682.531L687.709 45.8726H692.401V65.1275H689.192V50.2683H689.138L683.798 65.1275H681.021L675.681 50.2683H675.627V65.1275H672.418V45.8726Z" fill="black"/>
<path d="M655.485 45.8726H669.347V48.7851H658.856V53.828H668.565V56.5788H658.856V62.215H669.536V65.1275H655.485V45.8726Z" fill="black"/>
<path d="M637.665 45.8726H653.252V48.7851H647.131V65.1275H643.76V48.7851H637.665V45.8726Z" fill="black"/>
<path d="M624.224 58.7092C624.224 59.4463 624.349 60.0755 624.601 60.5969C624.853 61.1183 625.203 61.5498 625.653 61.8914C626.102 62.215 626.615 62.4577 627.19 62.6195C627.783 62.7633 628.421 62.8352 629.105 62.8352C629.842 62.8352 630.471 62.7543 630.992 62.5925C631.514 62.4127 631.936 62.188 632.26 61.9183C632.584 61.6486 632.817 61.343 632.961 61.0014C633.105 60.6418 633.177 60.2823 633.177 59.9227C633.177 59.1856 633.006 58.6462 632.664 58.3046C632.341 57.9451 631.981 57.6934 631.586 57.5495C630.903 57.2978 630.102 57.0641 629.186 56.8484C628.287 56.6147 627.172 56.318 625.842 55.9585C625.015 55.7427 624.322 55.464 623.765 55.1224C623.226 54.7629 622.794 54.3674 622.471 53.9359C622.147 53.5044 621.913 53.0459 621.769 52.5605C621.644 52.0751 621.581 51.5807 621.581 51.0773C621.581 50.1064 621.778 49.2704 622.174 48.5693C622.587 47.8501 623.127 47.2569 623.792 46.7894C624.457 46.322 625.212 45.9804 626.057 45.7646C626.902 45.5309 627.756 45.4141 628.619 45.4141C629.626 45.4141 630.57 45.5489 631.451 45.8186C632.35 46.0703 633.132 46.4568 633.797 46.9782C634.48 47.4996 635.02 48.1468 635.415 48.9199C635.811 49.675 636.008 50.5559 636.008 51.5627H632.637C632.548 50.3222 632.125 49.4502 631.37 48.9468C630.615 48.4255 629.653 48.1648 628.484 48.1648C628.089 48.1648 627.684 48.2097 627.271 48.2996C626.857 48.3715 626.48 48.5064 626.138 48.7041C625.797 48.8839 625.509 49.1356 625.275 49.4592C625.06 49.7828 624.952 50.1874 624.952 50.6728C624.952 51.356 625.158 51.8953 625.572 52.2908C626.003 52.6684 626.561 52.956 627.244 53.1538C627.316 53.1718 627.594 53.2527 628.08 53.3965C628.583 53.5224 629.141 53.6662 629.752 53.828C630.363 53.9898 630.956 54.1516 631.532 54.3134C632.125 54.4572 632.548 54.5651 632.799 54.637C633.428 54.8348 633.977 55.1045 634.444 55.4461C634.912 55.7877 635.298 56.1832 635.604 56.6326C635.928 57.0641 636.161 57.5316 636.305 58.035C636.467 58.5384 636.548 59.0418 636.548 59.5452C636.548 60.6239 636.323 61.5498 635.874 62.3228C635.442 63.0779 634.867 63.6982 634.148 64.1836C633.428 64.669 632.61 65.0196 631.694 65.2354C630.777 65.4691 629.842 65.5859 628.889 65.5859C627.792 65.5859 626.758 65.4511 625.788 65.1814C624.817 64.9117 623.972 64.4982 623.253 63.9409C622.534 63.3836 621.958 62.6734 621.527 61.8104C621.095 60.9295 620.871 59.8957 620.853 58.7092H624.224Z" fill="black"/>
<path d="M609.542 57.5766L602.314 45.8726H606.225L611.322 54.5022L616.338 45.8726H620.113L612.913 57.5766V65.1275H609.542V57.5766Z" fill="black"/>
<path d="M589.25 58.7092C589.25 59.4463 589.376 60.0755 589.627 60.5969C589.879 61.1183 590.23 61.5498 590.679 61.8914C591.129 62.215 591.641 62.4577 592.216 62.6195C592.81 62.7633 593.448 62.8352 594.131 62.8352C594.868 62.8352 595.497 62.7543 596.019 62.5925C596.54 62.4127 596.963 62.188 597.286 61.9183C597.61 61.6486 597.844 61.343 597.987 61.0014C598.131 60.6418 598.203 60.2823 598.203 59.9227C598.203 59.1856 598.032 58.6462 597.691 58.3046C597.367 57.9451 597.008 57.6934 596.612 57.5495C595.929 57.2978 595.129 57.0641 594.212 56.8484C593.313 56.6147 592.198 56.318 590.868 55.9585C590.041 55.7427 589.349 55.464 588.791 55.1224C588.252 54.7629 587.821 54.3674 587.497 53.9359C587.173 53.5044 586.94 53.0459 586.796 52.5605C586.67 52.0751 586.607 51.5807 586.607 51.0773C586.607 50.1064 586.805 49.2704 587.2 48.5693C587.614 47.8501 588.153 47.2569 588.818 46.7894C589.484 46.322 590.239 45.9804 591.084 45.7646C591.929 45.5309 592.783 45.4141 593.646 45.4141C594.652 45.4141 595.596 45.5489 596.477 45.8186C597.376 46.0703 598.158 46.4568 598.823 46.9782C599.507 47.4996 600.046 48.1468 600.441 48.9199C600.837 49.675 601.035 50.5559 601.035 51.5627H597.664C597.574 50.3222 597.151 49.4502 596.396 48.9468C595.641 48.4255 594.679 48.1648 593.511 48.1648C593.115 48.1648 592.711 48.2097 592.297 48.2996C591.884 48.3715 591.506 48.5064 591.165 48.7041C590.823 48.8839 590.535 49.1356 590.302 49.4592C590.086 49.7828 589.978 50.1874 589.978 50.6728C589.978 51.356 590.185 51.8953 590.598 52.2908C591.03 52.6684 591.587 52.956 592.27 53.1538C592.342 53.1718 592.621 53.2527 593.106 53.3965C593.61 53.5224 594.167 53.6662 594.778 53.828C595.39 53.9898 595.983 54.1516 596.558 54.3134C597.151 54.4572 597.574 54.5651 597.826 54.637C598.455 54.8348 599.003 55.1045 599.471 55.4461C599.938 55.7877 600.325 56.1832 600.63 56.6326C600.954 57.0641 601.188 57.5316 601.331 58.035C601.493 58.5384 601.574 59.0418 601.574 59.5452C601.574 60.6239 601.349 61.5498 600.9 62.3228C600.468 63.0779 599.893 63.6982 599.174 64.1836C598.455 64.669 597.637 65.0196 596.72 65.2354C595.803 65.4691 594.868 65.5859 593.915 65.5859C592.819 65.5859 591.785 65.4511 590.814 65.1814C589.843 64.9117 588.998 64.4982 588.279 63.9409C587.56 63.3836 586.985 62.6734 586.553 61.8104C586.122 60.9295 585.897 59.8957 585.879 58.7092H589.25Z" fill="black"/>
<path d="M562.546 45.8726H576.407V48.7851H565.917V53.828H575.625V56.5788H565.917V62.215H576.596V65.1275H562.546V45.8726Z" fill="black"/>
<path d="M543.003 45.8726H546.374V53.5314H555.138V45.8726H558.509V65.1275H555.138V56.4439H546.374V65.1275H543.003V45.8726Z" fill="black"/>
<path d="M525.265 45.8726H540.852V48.7851H534.73V65.1275H531.359V48.7851H525.265V45.8726Z" fill="black"/>
<path d="M500.434 45.8726H504.452L508.821 52.6684L513.379 45.8726H517.154L510.79 55.1495L517.612 65.1275H513.513L508.713 57.7653L503.832 65.1275H499.976L506.798 55.1495L500.434 45.8726Z" fill="black"/>
<path d="M494.601 45.8726H497.972V65.1275H494.601V45.8726Z" fill="black"/>
<path d="M478.614 45.8726H491.909V48.7851H481.985V53.828H490.696V56.5788H481.985V65.1275H478.614V45.8726Z" fill="black"/>
</svg>
