<svg width="559" height="90" viewBox="0 0 559 90" fill="none" xmlns="http://www.w3.org/2000/svg">
<path d="M264.789 77.776V12.335H279.48V77.776H264.789Z" fill="black"/>
<path d="M240.083 77.776V12.335H254.774V77.776H240.083Z" fill="black"/>
<path d="M159.321 77.776V21.2385L158.208 12.335H209.849C215.858 12.335 220.459 13.0769 223.649 14.5608C226.914 16.0448 229.177 18.2707 230.438 21.2385C231.699 24.1322 232.33 27.7678 232.33 32.1453V57.8543C232.33 62.3061 231.699 66.0159 230.438 68.9837C229.251 71.8774 227.025 74.0662 223.76 75.5501C220.57 77.034 215.933 77.776 209.849 77.776H159.321ZM174.012 67.0917H208.958C214.671 67.0917 217.565 64.4578 217.639 59.1898V30.8098C217.639 28.6581 217.008 26.8403 215.747 25.3564C214.486 23.7983 212.223 23.0192 208.958 23.0192H174.012V67.0917Z" fill="black"/>
<path d="M96.5641 77.776C91.3704 77.776 87.2896 77.034 84.3218 75.5501C81.3539 74.0662 79.2393 71.8403 77.978 68.8725C76.7908 65.9046 76.1973 62.2319 76.1973 57.8543V32.1453C76.1973 27.842 76.7908 24.2434 77.978 21.3498C79.1651 18.3819 81.2426 16.1561 84.2105 14.6721C87.1783 13.114 91.2962 12.335 96.5641 12.335H129.062C134.256 12.335 138.299 13.114 141.193 14.6721C144.161 16.1561 146.238 18.3819 147.426 21.3498C148.687 24.2434 149.318 27.842 149.318 32.1453V57.8543C149.318 64.3836 147.871 69.3547 144.977 72.7678C142.083 76.1066 136.778 77.776 129.062 77.776H96.5641ZM99.7917 67.0917H125.946C128.691 67.0917 130.806 66.3869 132.29 64.9772C133.848 63.5674 134.627 61.6383 134.627 59.1898V30.8098C134.627 28.6581 133.848 26.8403 132.29 25.3564C130.731 23.7983 128.617 23.0192 125.946 23.0192H99.7917C97.1206 23.0192 94.9689 23.7241 93.3366 25.1338C91.7043 26.5435 90.8881 28.4355 90.8881 30.8098V59.1898C90.8881 61.7125 91.6672 63.6787 93.2253 65.0885C94.8576 66.424 97.0464 67.0917 99.7917 67.0917Z" fill="black"/>
<path d="M1.11294 77.776V21.2385L0 12.2236H49.3034C54.0519 12.2236 57.7617 12.8543 60.4328 14.1156C63.1781 15.377 65.1814 17.0464 66.4427 19.1239C67.7782 21.1272 68.6315 23.2789 69.0025 25.5789C69.3734 27.879 69.5589 30.0678 69.5589 32.1453V38.7117C69.5589 40.4182 69.2992 42.3473 68.7799 44.499C68.2605 46.5765 67.296 48.6169 65.8862 50.6202C64.4765 52.5493 62.4361 54.1816 59.765 55.5171C57.094 56.7784 53.6068 57.4091 49.3034 57.4091H37.9514C33.277 57.4091 28.8994 57.2978 24.8186 57.0752C20.812 56.8526 17.8071 56.6672 15.8038 56.5188V77.776H1.11294ZM15.8038 46.7249H46.0758C49.4147 46.7249 51.7147 45.9087 52.9761 44.2764C54.2374 42.6441 54.8681 40.6779 54.8681 38.3778V31.3663C54.8681 28.992 54.2374 26.9887 52.9761 25.3564C51.7147 23.724 49.4518 22.9079 46.1871 22.9079H15.8038V46.7249Z" fill="black"/>
<line x1="304.979" y1="-6.55671e-08" x2="304.979" y2="90" stroke="black" stroke-width="3"/>
<path d="M542.8 51.8726H546.36L555.151 66.0576H555.205V51.8726H558.414V71.1275H554.854L546.09 56.9695H546.009V71.1275H542.8V51.8726Z" fill="black"/>
<path d="M530.644 54.1648C529.619 54.1648 528.729 54.3715 527.974 54.785C527.237 55.1985 526.635 55.7559 526.167 56.457C525.7 57.1402 525.349 57.9223 525.115 58.8032C524.9 59.6842 524.792 60.5831 524.792 61.5C524.792 62.4169 524.9 63.3158 525.115 64.1968C525.349 65.0777 525.7 65.8688 526.167 66.5699C526.635 67.2531 527.237 67.8015 527.974 68.215C528.729 68.6285 529.619 68.8352 530.644 68.8352C531.669 68.8352 532.55 68.6285 533.287 68.215C534.042 67.8015 534.653 67.2531 535.12 66.5699C535.588 65.8688 535.93 65.0777 536.145 64.1968C536.379 63.3158 536.496 62.4169 536.496 61.5C536.496 60.5831 536.379 59.6842 536.145 58.8032C535.93 57.9223 535.588 57.1402 535.12 56.457C534.653 55.7559 534.042 55.1985 533.287 54.785C532.55 54.3715 531.669 54.1648 530.644 54.1648ZM530.644 51.4141C532.082 51.4141 533.368 51.6837 534.5 52.2231C535.651 52.7624 536.622 53.4906 537.413 54.4075C538.204 55.3244 538.806 56.3941 539.22 57.6166C539.651 58.8392 539.867 60.1336 539.867 61.5C539.867 62.8843 539.651 64.1878 539.22 65.4103C538.806 66.6329 538.204 67.7026 537.413 68.6195C536.622 69.5364 535.651 70.2645 534.5 70.8039C533.368 71.3252 532.082 71.5859 530.644 71.5859C529.206 71.5859 527.911 71.3252 526.76 70.8039C525.628 70.2645 524.666 69.5364 523.875 68.6195C523.084 67.7026 522.473 66.6329 522.041 65.4103C521.628 64.1878 521.421 62.8843 521.421 61.5C521.421 60.1336 521.628 58.8392 522.041 57.6166C522.473 56.3941 523.084 55.3244 523.875 54.4075C524.666 53.4906 525.628 52.7624 526.76 52.2231C527.911 51.6837 529.206 51.4141 530.644 51.4141Z" fill="black"/>
<path d="M507.171 64.7092C507.171 65.4463 507.297 66.0755 507.548 66.5969C507.8 67.1183 508.151 67.5498 508.6 67.8913C509.05 68.215 509.562 68.4577 510.137 68.6195C510.731 68.7633 511.369 68.8352 512.052 68.8352C512.789 68.8352 513.418 68.7543 513.94 68.5925C514.461 68.4127 514.884 68.188 515.207 67.9183C515.531 67.6486 515.764 67.343 515.908 67.0014C516.052 66.6418 516.124 66.2823 516.124 65.9227C516.124 65.1856 515.953 64.6462 515.612 64.3046C515.288 63.9451 514.928 63.6934 514.533 63.5495C513.85 63.2978 513.05 63.0641 512.133 62.8484C511.234 62.6147 510.119 62.318 508.789 61.9584C507.962 61.7427 507.27 61.464 506.712 61.1224C506.173 60.7629 505.741 60.3674 505.418 59.9359C505.094 59.5044 504.861 59.0459 504.717 58.5605C504.591 58.0751 504.528 57.5807 504.528 57.0773C504.528 56.1064 504.726 55.2704 505.121 54.5693C505.535 53.8501 506.074 53.2569 506.739 52.7894C507.404 52.322 508.16 51.9804 509.005 51.7646C509.85 51.5309 510.704 51.4141 511.567 51.4141C512.573 51.4141 513.517 51.5489 514.398 51.8186C515.297 52.0703 516.079 52.4568 516.744 52.9782C517.428 53.4996 517.967 54.1468 518.362 54.9199C518.758 55.675 518.956 56.5559 518.956 57.5627H515.585C515.495 56.3222 515.072 55.4502 514.317 54.9468C513.562 54.4255 512.6 54.1648 511.432 54.1648C511.036 54.1648 510.632 54.2097 510.218 54.2996C509.805 54.3715 509.427 54.5064 509.085 54.7041C508.744 54.8839 508.456 55.1356 508.223 55.4592C508.007 55.7828 507.899 56.1874 507.899 56.6728C507.899 57.356 508.106 57.8953 508.519 58.2908C508.951 58.6684 509.508 58.956 510.191 59.1538C510.263 59.1718 510.542 59.2527 511.027 59.3965C511.531 59.5224 512.088 59.6662 512.699 59.828C513.31 59.9898 513.904 60.1516 514.479 60.3134C515.072 60.4572 515.495 60.5651 515.747 60.637C516.376 60.8348 516.924 61.1045 517.392 61.4461C517.859 61.7877 518.246 62.1832 518.551 62.6326C518.875 63.0641 519.108 63.5316 519.252 64.035C519.414 64.5384 519.495 65.0418 519.495 65.5452C519.495 66.6239 519.27 67.5498 518.821 68.3228C518.389 69.0779 517.814 69.6982 517.095 70.1836C516.376 70.669 515.558 71.0196 514.641 71.2354C513.724 71.4691 512.789 71.5859 511.836 71.5859C510.74 71.5859 509.706 71.4511 508.735 71.1814C507.764 70.9117 506.919 70.4982 506.2 69.9409C505.481 69.3836 504.905 68.6734 504.474 67.8104C504.043 66.9295 503.818 65.8957 503.8 64.7092H507.171Z" fill="black"/>
<path d="M485.971 51.8726H495.167C497.288 51.8726 498.879 52.331 499.94 53.2479C501.001 54.1648 501.531 55.4413 501.531 57.0773C501.531 57.9942 501.396 58.7583 501.127 59.3696C500.857 59.9629 500.542 60.4483 500.183 60.8258C499.823 61.1854 499.464 61.4461 499.104 61.6079C498.762 61.7697 498.511 61.8776 498.349 61.9315V61.9855C498.637 62.0214 498.942 62.1113 499.266 62.2551C499.607 62.399 499.922 62.6327 500.21 62.9563C500.497 63.2619 500.731 63.6665 500.911 64.1698C501.109 64.6732 501.207 65.3025 501.207 66.0576C501.207 67.1902 501.288 68.224 501.45 69.1589C501.63 70.0758 501.9 70.732 502.259 71.1275H498.646C498.394 70.714 498.241 70.2556 498.187 69.7522C498.151 69.2488 498.133 68.7634 498.133 68.2959C498.133 67.415 498.079 66.6599 497.971 66.0306C497.863 65.3834 497.666 64.853 497.378 64.4395C497.09 64.008 496.695 63.6934 496.191 63.4957C495.706 63.2979 495.077 63.199 494.304 63.199H489.342V71.1275H485.971V51.8726ZM489.342 60.6371H494.87C495.949 60.6371 496.767 60.3854 497.324 59.882C497.881 59.3606 498.16 58.5875 498.16 57.5628C498.16 56.9515 498.07 56.4571 497.89 56.0795C497.711 55.684 497.459 55.3784 497.135 55.1626C496.83 54.9469 496.47 54.8031 496.057 54.7311C495.661 54.6592 495.248 54.6233 494.816 54.6233H489.342V60.6371Z" fill="black"/>
<path d="M468.984 51.8726H482.846V54.7851H472.355V59.828H482.064V62.5788H472.355V68.215H483.035V71.1275H468.984V51.8726Z" fill="black"/>
<path d="M450.997 51.8726H459.492C460.858 51.8726 461.973 52.0703 462.836 52.4658C463.699 52.8614 464.364 53.3558 464.832 53.9491C465.299 54.5424 465.614 55.1896 465.775 55.8908C465.955 56.5919 466.045 57.2391 466.045 57.8324C466.045 58.4257 465.955 59.0729 465.775 59.7741C465.614 60.4573 465.299 61.0955 464.832 61.6888C464.364 62.2821 463.699 62.7765 462.836 63.172C461.973 63.5496 460.858 63.7384 459.492 63.7384H454.368V71.1275H450.997V51.8726ZM454.368 60.9877H459.303C459.681 60.9877 460.067 60.9337 460.463 60.8258C460.858 60.718 461.218 60.5472 461.541 60.3135C461.883 60.0618 462.153 59.7381 462.35 59.3426C462.566 58.9291 462.674 58.4167 462.674 57.8055C462.674 57.1762 462.584 56.6548 462.404 56.2413C462.225 55.8278 461.982 55.5042 461.676 55.2705C461.371 55.0188 461.02 54.848 460.625 54.7581C460.229 54.6682 459.807 54.6233 459.357 54.6233H454.368V60.9877Z" fill="black"/>
<path d="M426.505 51.8726H440.366V54.7851H429.876V59.828H439.584V62.5788H429.876V68.215H440.555V71.1275H426.505V51.8726Z" fill="black"/>
<path d="M406.962 51.8726H410.333V59.5314H419.097V51.8726H422.468V71.1275H419.097V62.4439H410.333V71.1275H406.962V51.8726Z" fill="black"/>
<path d="M389.224 51.8726H404.811V54.7851H398.689V71.1275H395.318V54.7851H389.224V51.8726Z" fill="black"/>
<path d="M365.731 51.8726H381.319V54.7851H375.197V71.1275H371.826V54.7851H365.731V51.8726Z" fill="black"/>
<path d="M355.275 54.1648C354.25 54.1648 353.36 54.3715 352.605 54.785C351.868 55.1985 351.266 55.7559 350.798 56.457C350.331 57.1402 349.98 57.9223 349.746 58.8032C349.531 59.6842 349.423 60.5831 349.423 61.5C349.423 62.4169 349.531 63.3158 349.746 64.1968C349.98 65.0777 350.331 65.8688 350.798 66.5699C351.266 67.2531 351.868 67.8015 352.605 68.215C353.36 68.6285 354.25 68.8352 355.275 68.8352C356.299 68.8352 357.18 68.6285 357.918 68.215C358.673 67.8015 359.284 67.2531 359.751 66.5699C360.219 65.8688 360.56 65.0777 360.776 64.1968C361.01 63.3158 361.127 62.4169 361.127 61.5C361.127 60.5831 361.01 59.6842 360.776 58.8032C360.56 57.9223 360.219 57.1402 359.751 56.457C359.284 55.7559 358.673 55.1985 357.918 54.785C357.18 54.3715 356.299 54.1648 355.275 54.1648ZM355.275 51.4141C356.713 51.4141 357.998 51.6837 359.131 52.2231C360.282 52.7624 361.253 53.4906 362.044 54.4075C362.835 55.3244 363.437 56.3941 363.85 57.6166C364.282 58.8392 364.498 60.1336 364.498 61.5C364.498 62.8843 364.282 64.1878 363.85 65.4103C363.437 66.6329 362.835 67.7026 362.044 68.6195C361.253 69.5364 360.282 70.2645 359.131 70.8039C357.998 71.3252 356.713 71.5859 355.275 71.5859C353.836 71.5859 352.542 71.3252 351.391 70.8039C350.259 70.2645 349.297 69.5364 348.506 68.6195C347.715 67.7026 347.103 66.6329 346.672 65.4103C346.259 64.1878 346.052 62.8843 346.052 61.5C346.052 60.1336 346.259 58.8392 346.672 57.6166C347.103 56.3941 347.715 55.3244 348.506 54.4075C349.297 53.4906 350.259 52.7624 351.391 52.2231C352.542 51.6837 353.836 51.4141 355.275 51.4141Z" fill="black"/>
<path d="M327.479 51.8726H331.039L339.831 66.0576H339.885V51.8726H343.094V71.1275H339.534L330.77 56.9695H330.689V71.1275H327.479V51.8726Z" fill="black"/>
<path d="M545.248 34.4868H548.997V38.1275C548.979 39.2421 548.637 40.177 547.972 40.9321C547.307 41.6872 546.435 42.1726 545.356 42.3884V40.7433C545.949 40.5995 546.39 40.2669 546.677 39.7455C546.983 39.2421 547.127 38.7028 547.109 38.1275H545.248V34.4868Z" fill="black"/>
<path d="M521.418 18.8726H526.164L531.477 33.9475H531.531L536.709 18.8726H541.401V38.1275H538.192V23.2683H538.138L532.798 38.1275H530.021L524.681 23.2683H524.627V38.1275H521.418V18.8726Z" fill="black"/>
<path d="M504.485 18.8726H518.347V21.7851H507.856V26.828H517.565V29.5788H507.856V35.215H518.536V38.1275H504.485V18.8726Z" fill="black"/>
<path d="M486.665 18.8726H502.252V21.7851H496.131V38.1275H492.76V21.7851H486.665V18.8726Z" fill="black"/>
<path d="M473.224 31.7092C473.224 32.4463 473.349 33.0755 473.601 33.5969C473.853 34.1183 474.203 34.5498 474.653 34.8914C475.102 35.215 475.615 35.4577 476.19 35.6195C476.783 35.7633 477.421 35.8352 478.105 35.8352C478.842 35.8352 479.471 35.7543 479.992 35.5925C480.514 35.4127 480.936 35.188 481.26 34.9183C481.584 34.6486 481.817 34.343 481.961 34.0014C482.105 33.6418 482.177 33.2823 482.177 32.9227C482.177 32.1856 482.006 31.6462 481.664 31.3046C481.341 30.9451 480.981 30.6934 480.586 30.5495C479.903 30.2978 479.102 30.0641 478.186 29.8484C477.287 29.6147 476.172 29.318 474.842 28.9585C474.015 28.7427 473.322 28.464 472.765 28.1224C472.226 27.7629 471.794 27.3674 471.471 26.9359C471.147 26.5044 470.913 26.0459 470.769 25.5605C470.644 25.0751 470.581 24.5807 470.581 24.0773C470.581 23.1064 470.778 22.2704 471.174 21.5693C471.587 20.8501 472.127 20.2569 472.792 19.7894C473.457 19.322 474.212 18.9804 475.057 18.7646C475.902 18.5309 476.756 18.4141 477.619 18.4141C478.626 18.4141 479.57 18.5489 480.451 18.8186C481.35 19.0703 482.132 19.4568 482.797 19.9782C483.48 20.4996 484.02 21.1468 484.415 21.9199C484.811 22.675 485.008 23.5559 485.008 24.5627H481.637C481.548 23.3222 481.125 22.4502 480.37 21.9468C479.615 21.4255 478.653 21.1648 477.484 21.1648C477.089 21.1648 476.684 21.2097 476.271 21.2996C475.857 21.3715 475.48 21.5064 475.138 21.7041C474.797 21.8839 474.509 22.1356 474.275 22.4592C474.06 22.7828 473.952 23.1874 473.952 23.6728C473.952 24.356 474.158 24.8953 474.572 25.2908C475.003 25.6684 475.561 25.956 476.244 26.1538C476.316 26.1718 476.594 26.2527 477.08 26.3965C477.583 26.5224 478.141 26.6662 478.752 26.828C479.363 26.9898 479.956 27.1516 480.532 27.3134C481.125 27.4572 481.548 27.5651 481.799 27.637C482.428 27.8348 482.977 28.1045 483.444 28.4461C483.912 28.7877 484.298 29.1832 484.604 29.6326C484.928 30.0641 485.161 30.5316 485.305 31.035C485.467 31.5384 485.548 32.0418 485.548 32.5452C485.548 33.6239 485.323 34.5498 484.874 35.3228C484.442 36.0779 483.867 36.6982 483.148 37.1836C482.428 37.669 481.61 38.0196 480.694 38.2354C479.777 38.4691 478.842 38.5859 477.889 38.5859C476.792 38.5859 475.758 38.4511 474.788 38.1814C473.817 37.9117 472.972 37.4982 472.253 36.9409C471.534 36.3836 470.958 35.6734 470.527 34.8104C470.095 33.9295 469.871 32.8957 469.853 31.7092H473.224Z" fill="black"/>
<path d="M458.542 30.5766L451.314 18.8726H455.225L460.322 27.5022L465.338 18.8726H469.113L461.913 30.5766V38.1275H458.542V30.5766Z" fill="black"/>
<path d="M438.25 31.7092C438.25 32.4463 438.376 33.0755 438.627 33.5969C438.879 34.1183 439.23 34.5498 439.679 34.8914C440.129 35.215 440.641 35.4577 441.216 35.6195C441.81 35.7633 442.448 35.8352 443.131 35.8352C443.868 35.8352 444.497 35.7543 445.019 35.5925C445.54 35.4127 445.963 35.188 446.286 34.9183C446.61 34.6486 446.844 34.343 446.987 34.0014C447.131 33.6418 447.203 33.2823 447.203 32.9227C447.203 32.1856 447.032 31.6462 446.691 31.3046C446.367 30.9451 446.008 30.6934 445.612 30.5495C444.929 30.2978 444.129 30.0641 443.212 29.8484C442.313 29.6147 441.198 29.318 439.868 28.9585C439.041 28.7427 438.349 28.464 437.791 28.1224C437.252 27.7629 436.821 27.3674 436.497 26.9359C436.173 26.5044 435.94 26.0459 435.796 25.5605C435.67 25.0751 435.607 24.5807 435.607 24.0773C435.607 23.1064 435.805 22.2704 436.2 21.5693C436.614 20.8501 437.153 20.2569 437.818 19.7894C438.484 19.322 439.239 18.9804 440.084 18.7646C440.929 18.5309 441.783 18.4141 442.646 18.4141C443.652 18.4141 444.596 18.5489 445.477 18.8186C446.376 19.0703 447.158 19.4568 447.823 19.9782C448.507 20.4996 449.046 21.1468 449.441 21.9199C449.837 22.675 450.035 23.5559 450.035 24.5627H446.664C446.574 23.3222 446.151 22.4502 445.396 21.9468C444.641 21.4255 443.679 21.1648 442.511 21.1648C442.115 21.1648 441.711 21.2097 441.297 21.2996C440.884 21.3715 440.506 21.5064 440.165 21.7041C439.823 21.8839 439.535 22.1356 439.302 22.4592C439.086 22.7828 438.978 23.1874 438.978 23.6728C438.978 24.356 439.185 24.8953 439.598 25.2908C440.03 25.6684 440.587 25.956 441.27 26.1538C441.342 26.1718 441.621 26.2527 442.106 26.3965C442.61 26.5224 443.167 26.6662 443.778 26.828C444.39 26.9898 444.983 27.1516 445.558 27.3134C446.151 27.4572 446.574 27.5651 446.826 27.637C447.455 27.8348 448.003 28.1045 448.471 28.4461C448.938 28.7877 449.325 29.1832 449.63 29.6326C449.954 30.0641 450.188 30.5316 450.331 31.035C450.493 31.5384 450.574 32.0418 450.574 32.5452C450.574 33.6239 450.349 34.5498 449.9 35.3228C449.468 36.0779 448.893 36.6982 448.174 37.1836C447.455 37.669 446.637 38.0196 445.72 38.2354C444.803 38.4691 443.868 38.5859 442.915 38.5859C441.819 38.5859 440.785 38.4511 439.814 38.1814C438.843 37.9117 437.998 37.4982 437.279 36.9409C436.56 36.3836 435.985 35.6734 435.553 34.8104C435.122 33.9295 434.897 32.8957 434.879 31.7092H438.25Z" fill="black"/>
<path d="M411.546 18.8726H425.407V21.7851H414.917V26.828H424.625V29.5788H414.917V35.215H425.596V38.1275H411.546V18.8726Z" fill="black"/>
<path d="M392.003 18.8726H395.374V26.5314H404.138V18.8726H407.509V38.1275H404.138V29.4439H395.374V38.1275H392.003V18.8726Z" fill="black"/>
<path d="M374.265 18.8726H389.852V21.7851H383.73V38.1275H380.359V21.7851H374.265V18.8726Z" fill="black"/>
<path d="M349.434 18.8726H353.452L357.821 25.6684L362.379 18.8726H366.154L359.79 28.1495L366.612 38.1275H362.513L357.713 30.7653L352.832 38.1275H348.976L355.798 28.1495L349.434 18.8726Z" fill="black"/>
<path d="M343.601 18.8726H346.972V38.1275H343.601V18.8726Z" fill="black"/>
<path d="M327.614 18.8726H340.909V21.7851H330.985V26.828H339.696V29.5788H330.985V38.1275H327.614V18.8726Z" fill="black"/>
</svg>
