<svg width="149" height="149" viewBox="0 0 149 149" fill="none" xmlns="http://www.w3.org/2000/svg">
<g clip-path="url(#clip0_332_56)">
<path d="M117.71 -6.09894e-06C134.991 -5.34357e-06 149 14.009 149 31.29L149 98.34L101.32 98.34L101.32 47.68L50.66 47.68L50.66 -1.45359e-05L117.71 -6.09894e-06Z" fill="black"/>
<path d="M31.29 149C14.009 149 4.29726e-07 134.991 -3.2565e-07 117.71L-3.2565e-06 50.66L47.68 50.66L47.68 101.32L98.34 101.32L98.34 149L31.29 149Z" fill="black"/>
<path d="M23.84 47.68C10.6735 47.68 -7.08852e-06 37.0065 -5.47092e-06 23.84C-5.47092e-06 10.6735 10.6735 -1.39391e-05 23.84 -1.33636e-05C37.0065 -1.2788e-05 47.68 10.6735 47.68 23.84C47.68 37.0065 37.0065 47.68 23.84 47.68Z" fill="black"/>
<path d="M98.34 74.5C98.34 61.3335 87.6665 50.66 74.5 50.66C61.3335 50.66 50.66 61.3335 50.66 74.5C50.66 87.6665 61.3335 98.34 74.5 98.34C87.6665 98.34 98.34 87.6665 98.34 74.5Z" fill="black"/>
<path d="M149 125.16C149 111.994 138.326 101.32 125.16 101.32C111.994 101.32 101.32 111.994 101.32 125.16C101.32 138.326 111.994 149 125.16 149C138.326 149 149 138.326 149 125.16Z" fill="black"/>
</g>
<defs>
<clipPath id="clip0_332_56">
<rect width="149" height="149" fill="white"/>
</clipPath>
</defs>
</svg>
