<svg width="264" height="264" viewBox="0 0 264 264" fill="none" xmlns="http://www.w3.org/2000/svg">
<mask id="mask0_550_509" style="mask-type:luminance" maskUnits="userSpaceOnUse" x="60" y="85" width="144" height="94">
<path d="M204 85.3806H60V178.914H204V85.3806Z" fill="white"/>
</mask>
<g mask="url(#mask0_550_509)">
<mask id="mask1_550_509" style="mask-type:luminance" maskUnits="userSpaceOnUse" x="60" y="85" width="144" height="94">
<path d="M204 85.3806H60V178.914H204V85.3806Z" fill="white"/>
</mask>
<g mask="url(#mask1_550_509)">
<path d="M78.7031 122.143C80.6117 122.143 82.1592 120.59 82.1592 118.674C82.1592 116.758 80.6117 115.205 78.7031 115.205C76.7944 115.205 75.2471 116.758 75.2471 118.674C75.2471 120.59 76.7944 122.143 78.7031 122.143Z" fill="#C1CD23"/>
<path d="M92.9893 112.372C94.2314 112.372 95.4455 112.742 96.4782 113.435C97.5109 114.127 98.3157 115.112 98.7909 116.264C99.2662 117.415 99.3905 118.683 99.1482 119.906C98.9061 121.128 98.308 122.252 97.4297 123.133C96.5515 124.015 95.4326 124.615 94.2145 124.858C92.9963 125.101 91.7339 124.977 90.5864 124.5C89.439 124.022 88.4582 123.214 87.7682 122.178C87.0782 121.141 86.71 119.923 86.71 118.676C86.71 117.004 87.3715 115.401 88.5491 114.219C89.7267 113.036 91.324 112.372 92.9893 112.372Z" fill="#F16119"/>
<path d="M107.276 122.143C109.185 122.143 110.732 120.59 110.732 118.674C110.732 116.758 109.185 115.205 107.276 115.205C105.368 115.205 103.82 116.758 103.82 118.674C103.82 120.59 105.368 122.143 107.276 122.143Z" fill="#C1CD23"/>
<path d="M92.9902 136.479C94.8989 136.479 96.4462 134.926 96.4462 133.01C96.4462 131.094 94.8989 129.541 92.9902 129.541C91.0814 129.541 89.5342 131.094 89.5342 133.01C89.5342 134.926 91.0814 136.479 92.9902 136.479Z" fill="#C1CD23"/>
<path d="M89.5342 104.332C89.5342 105.018 89.7369 105.689 90.1166 106.259C90.4963 106.83 91.0361 107.275 91.6676 107.537C92.2991 107.8 92.994 107.868 93.6645 107.735C94.3348 107.601 94.9507 107.27 95.434 106.785C95.9173 106.3 96.2465 105.682 96.3798 105.009C96.5131 104.336 96.4448 103.638 96.1832 103.004C95.9215 102.37 95.4786 101.829 94.9103 101.447C94.3418 101.066 93.6737 100.863 92.9902 100.863C92.0736 100.863 91.1947 101.228 90.5465 101.879C89.8982 102.529 89.5342 103.412 89.5342 104.332Z" fill="#C1CD23"/>
<path d="M80.4469 110.989C80.9304 111.473 81.5462 111.803 82.2164 111.937C82.8868 112.071 83.5815 112.002 84.2127 111.739C84.8441 111.476 85.3836 111.031 85.763 110.461C86.1426 109.891 86.3452 109.22 86.3452 108.534C86.3452 107.848 86.1426 107.178 85.763 106.607C85.3836 106.037 84.8441 105.592 84.2127 105.329C83.5815 105.067 82.8868 104.998 82.2164 105.131C81.5462 105.265 80.9304 105.595 80.4469 106.08C79.7993 106.731 79.4355 107.614 79.4355 108.534C79.4355 109.454 79.7993 110.337 80.4469 110.989Z" fill="#C1CD23"/>
<path d="M105.531 110.989C105.048 111.473 104.432 111.803 103.762 111.937C103.091 112.071 102.397 112.002 101.765 111.739C101.134 111.476 100.595 111.031 100.215 110.461C99.8355 109.891 99.6328 109.22 99.6328 108.534C99.6328 107.848 99.8355 107.178 100.215 106.607C100.595 106.037 101.134 105.592 101.765 105.329C102.397 105.067 103.091 104.998 103.762 105.131C104.432 105.265 105.048 105.595 105.531 106.08C106.179 106.731 106.543 107.614 106.543 108.534C106.543 109.454 106.179 110.337 105.531 110.989Z" fill="#C1CD23"/>
<path d="M85.332 131.262C85.8156 130.778 86.1451 130.159 86.2789 129.486C86.4126 128.813 86.3444 128.115 86.0829 127.481C85.8215 126.847 85.3786 126.305 84.8101 125.924C84.2417 125.542 83.5734 125.339 82.8896 125.339C82.206 125.339 81.5376 125.542 80.9691 125.924C80.4007 126.305 79.9578 126.847 79.6963 127.481C79.4347 128.115 79.3667 128.813 79.5003 129.486C79.634 130.159 79.9635 130.778 80.4472 131.262C80.7678 131.585 81.1483 131.841 81.5676 132.015C81.9866 132.19 82.4359 132.279 82.8896 132.279C83.3433 132.279 83.7926 132.19 84.2118 132.015C84.6308 131.841 85.0115 131.585 85.332 131.262Z" fill="#C1CD23"/>
<path d="M62.6422 115.783C63.2118 115.783 63.7686 115.953 64.2423 116.27C64.7159 116.588 65.085 117.039 65.303 117.568C65.521 118.096 65.578 118.677 65.4669 119.238C65.3557 119.799 65.0815 120.314 64.6787 120.718C64.2759 121.123 63.7627 121.398 63.2041 121.51C62.6454 121.621 62.0663 121.564 61.5401 121.345C61.0138 121.126 60.564 120.756 60.2476 120.28C59.9311 119.805 59.7622 119.246 59.7622 118.674C59.7615 118.294 59.8355 117.918 59.9799 117.567C60.1244 117.216 60.3365 116.897 60.6041 116.628C60.8717 116.359 61.1894 116.146 61.5392 116.001C61.889 115.856 62.2638 115.782 62.6422 115.783Z" fill="#006990"/>
<path d="M123.342 115.783C122.772 115.782 122.214 115.95 121.74 116.267C121.266 116.584 120.896 117.035 120.677 117.564C120.458 118.092 120.4 118.673 120.511 119.234C120.621 119.796 120.895 120.311 121.298 120.716C121.7 121.121 122.213 121.397 122.772 121.509C123.331 121.621 123.91 121.564 124.437 121.345C124.963 121.127 125.414 120.756 125.73 120.281C126.047 119.805 126.216 119.246 126.216 118.674C126.216 117.908 125.913 117.174 125.375 116.632C124.836 116.09 124.105 115.784 123.342 115.783Z" fill="#006990"/>
<path d="M90.1104 149.137C90.1104 148.565 90.2794 148.006 90.5958 147.53C90.9121 147.055 91.362 146.684 91.8883 146.466C92.4145 146.247 92.9936 146.19 93.5522 146.301C94.1109 146.413 94.624 146.688 95.0269 147.092C95.4295 147.497 95.704 148.012 95.815 148.573C95.9261 149.133 95.8692 149.715 95.6511 150.243C95.4332 150.771 95.064 151.223 94.5904 151.54C94.1168 151.858 93.5601 152.028 92.9904 152.028C92.2266 152.028 91.494 151.723 90.9538 151.181C90.4137 150.639 90.1104 149.903 90.1104 149.137Z" fill="#006990"/>
<path d="M90.1104 88.2169C90.1092 88.7889 90.2771 89.3484 90.593 89.8246C90.9088 90.3008 91.3581 90.6722 91.8844 90.8919C92.4106 91.1116 92.9898 91.1696 93.5487 91.0587C94.1078 90.9478 94.6215 90.6729 95.0248 90.2688C95.4282 89.8647 95.703 89.3496 95.8146 88.7887C95.9261 88.2277 95.8695 87.6461 95.6517 87.1175C95.4339 86.5889 95.0647 86.1371 94.591 85.8192C94.1173 85.5012 93.5602 85.3315 92.9904 85.3315C92.2276 85.3315 91.4958 85.6354 90.9559 86.1763C90.416 86.7172 90.1118 87.4511 90.1104 88.2169Z" fill="#006990"/>
<path d="M69.4917 99.1723C69.8944 99.5769 70.4076 99.8525 70.9663 99.9642C71.5251 100.076 72.1042 100.019 72.6306 99.8C73.157 99.5812 73.6068 99.2107 73.9234 98.7352C74.24 98.2598 74.4089 97.7007 74.4089 97.1288C74.4089 96.5569 74.24 95.9979 73.9234 95.5224C73.6068 95.047 73.157 94.6764 72.6306 94.4577C72.1042 94.2389 71.5251 94.1818 70.9663 94.2935C70.4076 94.4052 69.8944 94.6807 69.4917 95.0853C68.9521 95.6274 68.6489 96.3624 68.6489 97.1288C68.6489 97.8952 68.9521 98.6303 69.4917 99.1723Z" fill="#006990"/>
<path d="M116.47 99.1723C116.067 99.5769 115.554 99.8525 114.995 99.9642C114.437 100.076 113.857 100.019 113.331 99.8C112.805 99.5812 112.355 99.2107 112.038 98.7352C111.722 98.2598 111.553 97.7007 111.553 97.1288C111.553 96.5569 111.722 95.9979 112.038 95.5224C112.355 95.047 112.805 94.6764 113.331 94.4577C113.857 94.2389 114.437 94.1818 114.995 94.2935C115.554 94.4052 116.067 94.6807 116.47 95.0853C117.01 95.6274 117.313 96.3624 117.313 97.1288C117.313 97.8952 117.01 98.6303 116.47 99.1723Z" fill="#006990"/>
<path d="M73.5525 142.264C73.9554 141.86 74.23 141.345 74.3412 140.784C74.4526 140.223 74.3956 139.642 74.1776 139.114C73.9597 138.585 73.5906 138.133 73.117 137.816C72.6433 137.498 72.0864 137.328 71.5167 137.328C70.947 137.328 70.3901 137.498 69.9165 137.816C69.4428 138.133 69.0737 138.585 68.8558 139.114C68.6378 139.642 68.5809 140.223 68.6922 140.784C68.8035 141.345 69.078 141.86 69.481 142.264C70.021 142.806 70.7532 143.11 71.5167 143.11C72.2802 143.11 73.0125 142.806 73.5525 142.264Z" fill="#006990"/>
<path d="M107.266 91.6192C107.048 92.1478 106.679 92.5996 106.206 92.9175C105.732 93.2355 105.175 93.4054 104.606 93.4056C104.036 93.4058 103.479 93.2364 103.005 92.9188C102.532 92.6012 102.162 92.1497 101.944 91.6214C101.726 91.093 101.669 90.5116 101.78 89.9507C101.891 89.3898 102.165 88.8746 102.568 88.4702C102.971 88.0658 103.484 87.7905 104.043 87.679C104.602 87.5675 105.181 87.6249 105.707 87.8439C106.413 88.1374 106.973 88.6998 107.265 89.4077C107.557 90.1157 107.558 90.9111 107.266 91.6192Z" fill="#006990"/>
<path d="M84.0327 147.924C84.2509 147.396 84.3081 146.815 84.1971 146.254C84.086 145.693 83.8117 145.178 83.4089 144.773C83.0061 144.369 82.4929 144.093 81.9339 143.982C81.3753 143.87 80.796 143.928 80.2697 144.147C79.7433 144.365 79.2936 144.736 78.9772 145.212C78.6608 145.687 78.492 146.246 78.4922 146.818C78.4925 147.39 78.6616 147.949 78.9784 148.425C79.2952 148.9 79.7453 149.27 80.2718 149.489C80.621 149.635 80.9954 149.71 81.3737 149.71C81.7518 149.71 82.1263 149.635 82.4758 149.49C82.8251 149.345 83.1425 149.132 83.4097 148.863C83.6769 148.594 83.8887 148.275 84.0327 147.924Z" fill="#006990"/>
<path d="M84.0327 89.4202C84.2509 89.9485 84.3081 90.5299 84.1971 91.0908C84.086 91.6518 83.8117 92.167 83.4089 92.5714C83.0061 92.9759 82.4929 93.2513 81.9339 93.3628C81.3753 93.4743 80.796 93.417 80.2697 93.1981C79.7433 92.9791 79.2936 92.6084 78.9772 92.1328C78.6608 91.6572 78.492 91.098 78.4922 90.5262C78.4925 89.9542 78.6616 89.3953 78.9784 88.9199C79.2952 88.4446 79.7453 88.0742 80.2718 87.8556C80.621 87.7099 80.9954 87.6347 81.3737 87.6345C81.7518 87.6343 82.1263 87.709 82.4758 87.8543C82.8251 87.9997 83.1425 88.2128 83.4097 88.4815C83.6769 88.7502 83.8887 89.0692 84.0327 89.4202Z" fill="#006990"/>
<path d="M66.0527 104.342C66.5792 104.561 67.0293 104.931 67.3461 105.406C67.6628 105.882 67.832 106.441 67.8323 107.012C67.8325 107.584 67.6637 108.144 67.3474 108.619C67.031 109.095 66.5812 109.465 66.0549 109.684C65.5285 109.903 64.9494 109.961 64.3906 109.849C63.8318 109.738 63.3185 109.462 62.9157 109.058C62.5129 108.653 62.2386 108.138 62.1275 107.577C62.0165 107.016 62.0736 106.435 62.2918 105.907C62.4359 105.556 62.6477 105.237 62.9148 104.968C63.182 104.699 63.4994 104.486 63.8488 104.341C64.1982 104.195 64.5727 104.121 64.9509 104.121C65.3291 104.121 65.7035 104.196 66.0527 104.342Z" fill="#006990"/>
<path d="M63.8511 127.66C64.3774 127.441 64.9566 127.384 65.5154 127.495C66.0742 127.607 66.5875 127.882 66.9904 128.286C67.3932 128.691 67.6676 129.206 67.7787 129.767C67.8898 130.328 67.8327 130.909 67.6146 131.437C67.3965 131.966 67.0272 132.417 66.5534 132.735C66.0796 133.053 65.5226 133.222 64.9529 133.222C64.3831 133.221 63.8263 133.052 63.3527 132.734C62.8792 132.416 62.5102 131.964 62.2926 131.435C62.1474 131.085 62.0725 130.709 62.0723 130.329C62.0721 129.95 62.1465 129.574 62.2913 129.223C62.4361 128.872 62.6484 128.554 62.916 128.285C63.1837 128.017 63.5015 127.805 63.8511 127.66Z" fill="#006990"/>
<path d="M119.932 104.346C119.405 104.563 118.954 104.933 118.636 105.408C118.318 105.883 118.148 106.442 118.147 107.015C118.147 107.587 118.315 108.146 118.631 108.623C118.947 109.099 119.397 109.47 119.923 109.689C120.45 109.909 121.03 109.966 121.589 109.855C122.148 109.743 122.661 109.468 123.064 109.063C123.467 108.658 123.742 108.143 123.853 107.582C123.963 107.02 123.906 106.438 123.687 105.91C123.543 105.56 123.331 105.241 123.065 104.973C122.798 104.705 122.481 104.492 122.132 104.347C121.784 104.202 121.41 104.127 121.032 104.126C120.655 104.126 120.281 104.201 119.932 104.346Z" fill="#006990"/>
<path d="M70.2264 120.568C71.2681 120.568 72.1125 119.721 72.1125 118.675C72.1125 117.629 71.2681 116.782 70.2264 116.782C69.1848 116.782 68.3403 117.629 68.3403 118.675C68.3403 119.721 69.1848 120.568 70.2264 120.568Z" fill="#94A545"/>
<path d="M115.752 120.568C116.794 120.568 117.638 119.721 117.638 118.675C117.638 117.629 116.794 116.782 115.752 116.782C114.711 116.782 113.866 117.629 113.866 118.675C113.866 119.721 114.711 120.568 115.752 120.568Z" fill="#94A545"/>
<path d="M92.9898 143.418C94.0313 143.418 94.8758 142.57 94.8758 141.525C94.8758 140.479 94.0313 139.631 92.9898 139.631C91.9481 139.631 91.1035 140.479 91.1035 141.525C91.1035 142.57 91.9481 143.418 92.9898 143.418Z" fill="#94A545"/>
<path d="M92.9898 97.7188C94.0313 97.7188 94.8758 96.8711 94.8758 95.8255C94.8758 94.7798 94.0313 93.9321 92.9898 93.9321C91.9481 93.9321 91.1035 94.7798 91.1035 95.8255C91.1035 96.8711 91.9481 97.7188 92.9898 97.7188Z" fill="#94A545"/>
<path d="M75.5626 103.849C75.8261 104.114 76.1623 104.294 76.5282 104.367C76.8942 104.441 77.2736 104.404 77.6184 104.26C77.9632 104.117 78.2579 103.874 78.4652 103.563C78.6727 103.252 78.7833 102.885 78.7833 102.511C78.7833 102.136 78.6727 101.77 78.4652 101.459C78.2579 101.147 77.9632 100.904 77.6184 100.761C77.2736 100.618 76.8942 100.581 76.5282 100.654C76.1623 100.727 75.8261 100.908 75.5626 101.173C75.387 101.348 75.2477 101.557 75.1528 101.786C75.0577 102.016 75.0088 102.262 75.0088 102.511C75.0088 102.759 75.0577 103.006 75.1528 103.235C75.2477 103.465 75.387 103.673 75.5626 103.849Z" fill="#94A545"/>
<path d="M110.416 103.849C110.152 104.114 109.816 104.294 109.45 104.367C109.085 104.441 108.705 104.404 108.36 104.26C108.016 104.117 107.721 103.874 107.513 103.563C107.306 103.252 107.195 102.885 107.195 102.511C107.195 102.136 107.306 101.77 107.513 101.459C107.721 101.147 108.016 100.904 108.36 100.761C108.705 100.618 109.085 100.581 109.45 100.654C109.816 100.727 110.152 100.908 110.416 101.173C110.592 101.348 110.731 101.557 110.826 101.786C110.921 102.016 110.97 102.262 110.97 102.511C110.97 102.759 110.921 103.006 110.826 103.235C110.731 103.465 110.592 103.673 110.416 103.849Z" fill="#94A545"/>
<path d="M78.2286 136.168C78.4927 135.904 78.6725 135.566 78.7456 135.199C78.8186 134.831 78.7814 134.451 78.6386 134.105C78.496 133.758 78.2543 133.462 77.944 133.254C77.6339 133.046 77.269 132.935 76.896 132.935C76.5227 132.935 76.1579 133.046 75.8477 133.254C75.5375 133.462 75.2958 133.758 75.153 134.105C75.0104 134.451 74.9732 134.831 75.0462 135.199C75.1192 135.566 75.2991 135.904 75.5632 136.168C75.9169 136.523 76.3962 136.722 76.896 136.722C77.3956 136.722 77.875 136.523 78.2286 136.168Z" fill="#94A545"/>
<path d="M103.443 98.283C103.301 98.6292 103.059 98.9253 102.749 99.1338C102.439 99.3422 102.075 99.4537 101.702 99.4541C101.328 99.4545 100.964 99.3439 100.653 99.1362C100.343 98.9283 100.101 98.6327 99.9576 98.2867C99.8145 97.9408 99.7769 97.5601 99.8495 97.1926C99.922 96.8252 100.102 96.4877 100.365 96.2227C100.629 95.9577 100.965 95.7772 101.331 95.704C101.697 95.6308 102.076 95.6682 102.421 95.8114C102.882 96.0046 103.248 96.3728 103.439 96.8358C103.631 97.2988 103.632 97.8189 103.443 98.283Z" fill="#94A545"/>
<path d="M86.0214 140.513C86.165 140.167 86.2033 139.786 86.1313 139.418C86.0593 139.051 85.8802 138.713 85.6168 138.447C85.3532 138.182 85.0173 138.001 84.6513 137.927C84.2854 137.854 83.9058 137.891 83.5609 138.034C83.2159 138.177 82.9208 138.419 82.7131 138.73C82.5055 139.042 82.3947 139.408 82.3945 139.783C82.3944 140.157 82.5048 140.524 82.7122 140.835C82.9196 141.147 83.2144 141.39 83.5593 141.533C84.0206 141.725 84.5387 141.725 85.0004 141.534C85.4619 141.342 85.829 140.975 86.0214 140.513Z" fill="#94A545"/>
<path d="M86.0205 96.8405C86.1631 97.1866 86.2005 97.5674 86.1275 97.9347C86.0547 98.3021 85.8747 98.6395 85.6109 98.9043C85.3468 99.1689 85.0106 99.3491 84.6446 99.4219C84.2784 99.4947 83.8993 99.4569 83.5546 99.3133C83.21 99.1697 82.9155 98.9268 82.7085 98.6151C82.5015 98.3035 82.3912 97.9372 82.3916 97.5626C82.392 97.1881 82.503 96.8221 82.7108 96.5109C82.9185 96.1997 83.2135 95.9574 83.5584 95.8145C84.0206 95.6247 84.5387 95.626 85.0001 95.8182C85.4613 96.0104 85.828 96.3779 86.0205 96.8405Z" fill="#94A545"/>
<path d="M72.6832 108.179C73.0281 108.323 73.3229 108.566 73.5301 108.877C73.7375 109.189 73.8481 109.555 73.8479 109.93C73.8478 110.304 73.7368 110.671 73.5292 110.982C73.3216 111.293 73.0266 111.536 72.6815 111.679C72.3365 111.822 71.957 111.859 71.591 111.785C71.2251 111.711 70.8891 111.531 70.6256 111.265C70.3622 111 70.1831 110.662 70.1111 110.294C70.0391 109.926 70.0774 109.546 70.2211 109.2C70.3157 108.97 70.4545 108.762 70.6295 108.586C70.8046 108.41 71.0124 108.271 71.2412 108.177C71.4699 108.082 71.715 108.033 71.9625 108.034C72.2099 108.034 72.4548 108.084 72.6832 108.179Z" fill="#94A545"/>
<path d="M71.2373 125.67C71.5818 125.526 71.9612 125.488 72.3274 125.56C72.6936 125.632 73.0303 125.812 73.2947 126.076C73.5592 126.341 73.7396 126.678 73.8129 127.045C73.8862 127.413 73.8493 127.794 73.7069 128.14C73.5645 128.486 73.3229 128.782 73.0127 128.991C72.7025 129.199 72.3377 129.311 71.9644 129.311C71.5912 129.311 71.2263 129.2 70.9159 128.992C70.6055 128.784 70.3636 128.488 70.2208 128.142C70.1255 127.913 70.0762 127.666 70.0757 127.418C70.0752 127.17 70.1236 126.924 70.218 126.694C70.3124 126.464 70.4511 126.256 70.626 126.08C70.8009 125.904 71.0086 125.765 71.2373 125.67Z" fill="#94A545"/>
<path d="M113.302 108.183C112.959 108.327 112.666 108.57 112.46 108.88C112.254 109.191 112.145 109.556 112.146 109.929C112.146 110.302 112.257 110.666 112.464 110.976C112.671 111.286 112.965 111.528 113.308 111.67C113.652 111.812 114.03 111.849 114.394 111.776C114.759 111.703 115.093 111.523 115.356 111.259C115.619 110.996 115.798 110.66 115.87 110.294C115.943 109.928 115.906 109.548 115.764 109.204C115.571 108.741 115.204 108.374 114.743 108.183C114.281 107.991 113.763 107.991 113.302 108.183Z" fill="#94A545"/>
<path d="M103.583 129.762C103.545 129.703 103.524 129.634 103.523 129.563C103.523 129.493 103.543 129.423 103.58 129.364C103.618 129.304 103.671 129.256 103.735 129.226C103.799 129.196 103.869 129.186 103.939 129.195H106.079C106.154 129.195 106.227 129.217 106.29 129.257C106.353 129.297 106.403 129.354 106.435 129.422L110.456 138.491H110.603L114.623 129.422C114.654 129.353 114.704 129.294 114.767 129.254C114.83 129.214 114.904 129.193 114.979 129.195H117.114C117.183 129.186 117.254 129.196 117.318 129.226C117.382 129.256 117.435 129.304 117.473 129.364C117.51 129.423 117.53 129.493 117.529 129.563C117.529 129.634 117.508 129.703 117.47 129.762L110.981 143.933C110.95 144.003 110.899 144.063 110.835 144.104C110.771 144.145 110.696 144.167 110.62 144.166H110.411C110.335 144.167 110.261 144.146 110.197 144.104C110.134 144.063 110.084 144.003 110.055 143.933L103.583 129.762Z" fill="#685040"/>
<path d="M121.992 129.599C121.995 129.494 122.038 129.394 122.113 129.32C122.188 129.246 122.288 129.204 122.393 129.202H124.336C124.44 129.205 124.54 129.248 124.614 129.321C124.689 129.395 124.732 129.494 124.737 129.599V143.516C124.732 143.621 124.689 143.72 124.614 143.794C124.54 143.867 124.44 143.91 124.336 143.913H122.393C122.288 143.911 122.188 143.869 122.113 143.795C122.038 143.721 121.995 143.621 121.992 143.516V129.599Z" fill="#685040"/>
<path d="M130.024 129.599C130.024 129.547 130.034 129.495 130.054 129.446C130.075 129.397 130.104 129.353 130.141 129.317C130.179 129.28 130.223 129.251 130.272 129.231C130.32 129.211 130.372 129.202 130.425 129.202H135.219C137.709 129.202 139.635 130.903 139.635 133.091C139.635 134.707 138.319 135.971 137.337 136.43C138.466 136.787 140.059 137.927 140.059 139.831C140.059 142.184 138.048 143.884 135.49 143.884H130.408C130.355 143.885 130.303 143.875 130.255 143.856C130.206 143.836 130.162 143.807 130.125 143.77C130.087 143.733 130.058 143.689 130.037 143.641C130.017 143.592 130.007 143.54 130.007 143.487L130.024 129.599ZM134.965 135.381C135.209 135.383 135.451 135.335 135.676 135.239C135.901 135.144 136.105 135.003 136.273 134.826C136.442 134.648 136.573 134.438 136.658 134.208C136.742 133.978 136.779 133.733 136.766 133.488C136.779 133.248 136.741 133.008 136.654 132.785C136.568 132.561 136.435 132.358 136.265 132.189C136.095 132.021 135.891 131.89 135.667 131.806C135.443 131.722 135.204 131.687 134.965 131.702H132.706V135.381H134.965ZM135.259 141.435C135.509 141.438 135.757 141.39 135.988 141.294C136.22 141.198 136.43 141.057 136.606 140.878C136.781 140.699 136.92 140.487 137.012 140.254C137.105 140.02 137.15 139.771 137.145 139.519C137.145 138.471 136.1 137.694 135.01 137.694H132.751V141.435H135.259Z" fill="#685040"/>
<path d="M144.293 129.599C144.293 129.547 144.303 129.495 144.324 129.446C144.344 129.398 144.373 129.354 144.411 129.317C144.448 129.28 144.492 129.251 144.541 129.231C144.59 129.212 144.642 129.202 144.694 129.203H150.68C151.277 129.196 151.87 129.308 152.424 129.533C152.978 129.758 153.482 130.091 153.907 130.513C154.332 130.935 154.669 131.437 154.9 131.99C155.13 132.544 155.248 133.138 155.248 133.738C155.221 134.677 154.91 135.587 154.357 136.345C153.803 137.103 153.033 137.675 152.148 137.983L155.017 143.323C155.055 143.385 155.076 143.456 155.077 143.528C155.078 143.601 155.059 143.672 155.022 143.735C154.985 143.797 154.932 143.849 154.869 143.883C154.805 143.917 154.733 143.934 154.661 143.93H152.464C152.396 143.934 152.328 143.919 152.268 143.886C152.208 143.853 152.158 143.803 152.125 143.743L149.341 138.171H147.015V143.533C147.012 143.637 146.969 143.737 146.896 143.81C146.822 143.884 146.723 143.927 146.62 143.93H144.705C144.653 143.931 144.601 143.921 144.552 143.901C144.504 143.882 144.459 143.853 144.422 143.816C144.385 143.779 144.355 143.735 144.335 143.686C144.315 143.638 144.304 143.586 144.304 143.533L144.293 129.599ZM150.454 135.909C151.01 135.892 151.538 135.659 151.925 135.258C152.312 134.856 152.528 134.319 152.526 133.76C152.512 133.217 152.287 132.701 151.9 132.322C151.514 131.942 150.995 131.728 150.454 131.725H147.037V135.909H150.454Z" fill="#685040"/>
<path d="M158.851 143.384L165.362 129.212C165.391 129.142 165.441 129.082 165.504 129.041C165.568 128.999 165.642 128.978 165.718 128.979H165.927C166.003 128.975 166.079 128.995 166.143 129.037C166.207 129.078 166.256 129.14 166.282 129.212L172.731 143.384C172.77 143.442 172.79 143.512 172.791 143.582C172.792 143.653 172.772 143.722 172.735 143.782C172.697 143.841 172.643 143.889 172.58 143.919C172.516 143.949 172.445 143.96 172.376 143.95H170.557C170.424 143.958 170.291 143.921 170.181 143.845C170.07 143.769 169.988 143.659 169.947 143.531L168.92 141.264H162.657L161.635 143.531C161.59 143.656 161.507 143.764 161.397 143.839C161.288 143.915 161.158 143.954 161.025 143.95H159.207C159.137 143.96 159.066 143.949 159.002 143.919C158.939 143.889 158.885 143.841 158.847 143.782C158.81 143.722 158.79 143.653 158.791 143.582C158.792 143.512 158.812 143.442 158.851 143.384ZM167.886 138.905L165.791 134.28H165.729L163.673 138.905H167.886Z" fill="#685040"/>
<path d="M177.046 129.385C177.058 129.285 177.108 129.194 177.184 129.129C177.26 129.064 177.358 129.03 177.458 129.034H177.978L186.691 138.33V129.6C186.691 129.495 186.733 129.394 186.807 129.32C186.88 129.246 186.981 129.204 187.087 129.204H189.012C189.116 129.206 189.216 129.249 189.29 129.323C189.364 129.396 189.409 129.496 189.412 129.6V143.772C189.408 143.875 189.362 143.972 189.288 144.042C189.213 144.113 189.115 144.152 189.012 144.152H188.51L179.756 134.515V143.585C179.756 143.638 179.746 143.69 179.726 143.738C179.706 143.787 179.676 143.831 179.639 143.868C179.601 143.905 179.557 143.934 179.509 143.953C179.46 143.973 179.408 143.983 179.355 143.982H177.458C177.354 143.979 177.254 143.937 177.18 143.863C177.105 143.789 177.061 143.69 177.057 143.585L177.046 129.385Z" fill="#685040"/>
<path d="M197.527 131.741H194.32C194.215 131.739 194.115 131.696 194.04 131.621C193.967 131.546 193.925 131.444 193.925 131.338V129.638C193.925 129.532 193.967 129.431 194.04 129.357C194.115 129.283 194.215 129.241 194.32 129.241H203.475C203.525 129.24 203.579 129.25 203.627 129.269C203.676 129.289 203.721 129.318 203.757 129.355C203.795 129.392 203.823 129.436 203.844 129.485C203.865 129.533 203.875 129.585 203.875 129.638V131.338C203.875 131.445 203.833 131.547 203.757 131.623C203.682 131.698 203.58 131.741 203.475 131.741H200.272V143.532C200.268 143.636 200.223 143.736 200.149 143.809C200.075 143.883 199.976 143.926 199.871 143.928H197.923C197.819 143.926 197.721 143.883 197.646 143.809C197.573 143.735 197.531 143.636 197.527 143.532V131.741Z" fill="#685040"/>
<path d="M103.583 150.783C103.545 150.724 103.524 150.655 103.523 150.584C103.523 150.514 103.543 150.445 103.58 150.385C103.618 150.325 103.671 150.278 103.735 150.248C103.799 150.218 103.869 150.207 103.939 150.216H106.079C106.155 150.216 106.228 150.238 106.292 150.279C106.355 150.321 106.405 150.38 106.435 150.449L110.456 159.484H110.603L114.623 150.449C114.652 150.378 114.701 150.318 114.765 150.277C114.829 150.235 114.903 150.214 114.979 150.216H117.114C117.183 150.207 117.254 150.218 117.318 150.248C117.382 150.278 117.435 150.325 117.473 150.385C117.51 150.445 117.53 150.514 117.529 150.584C117.529 150.655 117.508 150.724 117.47 150.783L110.981 164.955C110.95 165.025 110.899 165.084 110.835 165.125C110.771 165.167 110.696 165.188 110.62 165.187H110.411C110.335 165.188 110.261 165.167 110.197 165.126C110.134 165.084 110.084 165.025 110.055 164.955L103.583 150.783Z" fill="#685040"/>
<path d="M123.247 150.637C123.25 150.533 123.292 150.433 123.366 150.36C123.439 150.286 123.538 150.243 123.642 150.24H125.59C125.694 150.243 125.793 150.286 125.867 150.36C125.94 150.433 125.983 150.533 125.986 150.637V164.554C125.983 164.659 125.941 164.758 125.867 164.833C125.794 164.908 125.695 164.952 125.59 164.956H123.642C123.538 164.952 123.439 164.908 123.365 164.833C123.292 164.758 123.25 164.659 123.247 164.554V150.637Z" fill="#685040"/>
<path d="M132.524 150.637C132.524 150.585 132.535 150.533 132.555 150.484C132.575 150.435 132.605 150.391 132.642 150.355C132.679 150.318 132.724 150.288 132.772 150.269C132.821 150.249 132.873 150.24 132.925 150.24H134.851C134.955 150.243 135.054 150.286 135.127 150.36C135.201 150.433 135.243 150.533 135.246 150.637V162.434H140.588C140.641 162.433 140.693 162.443 140.741 162.462C140.79 162.482 140.834 162.511 140.872 162.548C140.909 162.585 140.939 162.629 140.959 162.677C140.979 162.726 140.989 162.778 140.989 162.83V164.531C140.989 164.638 140.947 164.74 140.872 164.816C140.797 164.891 140.695 164.933 140.588 164.933H132.925C132.819 164.933 132.717 164.891 132.642 164.816C132.567 164.74 132.524 164.638 132.524 164.531V150.637Z" fill="#685040"/>
<path d="M145.908 150.637C145.908 150.532 145.95 150.431 146.024 150.356C146.098 150.282 146.199 150.24 146.304 150.24H148.229C148.334 150.242 148.434 150.284 148.509 150.358C148.584 150.432 148.627 150.532 148.63 150.637V162.433H153.972C154.077 162.433 154.178 162.475 154.252 162.55C154.326 162.624 154.368 162.725 154.368 162.83V164.531C154.368 164.637 154.326 164.738 154.252 164.814C154.178 164.889 154.078 164.932 153.972 164.933H146.304C146.198 164.932 146.098 164.889 146.024 164.814C145.95 164.738 145.908 164.637 145.908 164.531V150.637Z" fill="#685040"/>
<path d="M158.72 164.405L165.237 150.233C165.266 150.162 165.317 150.103 165.382 150.062C165.446 150.021 165.522 150.002 165.598 150.007H165.807C165.884 150.001 165.96 150.021 166.024 150.062C166.089 150.105 166.137 150.167 166.163 150.239L172.612 164.411C172.648 164.47 172.667 164.539 172.666 164.608C172.666 164.678 172.646 164.746 172.609 164.805C172.572 164.864 172.52 164.911 172.457 164.942C172.395 164.972 172.325 164.985 172.256 164.977H170.432C170.299 164.985 170.168 164.948 170.059 164.872C169.949 164.796 169.868 164.685 169.828 164.558L168.8 162.291H162.532L161.51 164.558C161.464 164.683 161.381 164.79 161.272 164.866C161.162 164.941 161.033 164.98 160.9 164.977H159.076C159.006 164.985 158.936 164.973 158.872 164.942C158.809 164.912 158.756 164.864 158.719 164.804C158.681 164.744 158.662 164.675 158.662 164.604C158.662 164.534 158.683 164.464 158.72 164.405ZM167.756 159.927L165.666 155.307H165.598L163.548 159.927H167.756Z" fill="#685040"/>
<path d="M183.455 150.006C185.337 150.026 187.149 150.72 188.566 151.961C188.639 152.037 188.68 152.139 188.68 152.245C188.68 152.351 188.639 152.452 188.566 152.528L187.273 153.894C187.238 153.936 187.196 153.969 187.147 153.992C187.097 154.015 187.045 154.027 186.991 154.027C186.937 154.027 186.884 154.015 186.835 153.992C186.785 153.969 186.742 153.936 186.709 153.894C185.84 153.109 184.714 152.673 183.545 152.67C182.265 152.67 181.037 153.181 180.131 154.089C179.226 154.998 178.718 156.231 178.718 157.517C178.718 158.802 179.226 160.035 180.131 160.944C181.037 161.853 182.265 162.363 183.545 162.363C184.402 162.354 185.249 162.175 186.037 161.836V160.096H184.342C184.291 160.097 184.24 160.089 184.193 160.07C184.145 160.052 184.102 160.024 184.065 159.989C184.028 159.954 183.999 159.911 183.979 159.865C183.958 159.818 183.947 159.767 183.946 159.716V158.055C183.945 158.003 183.955 157.95 183.974 157.902C183.993 157.853 184.022 157.808 184.059 157.771C184.096 157.734 184.14 157.705 184.189 157.685C184.238 157.666 184.289 157.657 184.342 157.658H188.368C188.47 157.663 188.565 157.707 188.635 157.781C188.704 157.855 188.743 157.953 188.741 158.055V163.44C188.741 163.505 188.727 163.569 188.698 163.627C188.671 163.685 188.629 163.736 188.577 163.775C186.992 164.671 185.201 165.141 183.382 165.141C181.385 165.141 179.471 164.345 178.059 162.928C176.647 161.511 175.854 159.589 175.854 157.585C175.854 155.581 176.647 153.659 178.059 152.241C179.471 150.824 181.385 150.028 183.382 150.028L183.455 150.006Z" fill="#685040"/>
<path d="M194.535 150.637C194.535 150.532 194.577 150.431 194.651 150.357C194.726 150.282 194.826 150.24 194.931 150.24H203.436C203.488 150.24 203.539 150.249 203.588 150.269C203.637 150.288 203.682 150.318 203.718 150.355C203.756 150.391 203.785 150.435 203.805 150.484C203.826 150.533 203.836 150.585 203.836 150.637V152.338C203.836 152.444 203.794 152.547 203.718 152.622C203.643 152.698 203.541 152.74 203.436 152.74H197.223V156.187H202.396C202.501 156.19 202.6 156.233 202.675 156.308C202.748 156.383 202.79 156.484 202.791 156.589V158.329C202.793 158.382 202.783 158.434 202.763 158.483C202.742 158.532 202.714 158.576 202.678 158.614C202.642 158.651 202.597 158.681 202.548 158.701C202.501 158.722 202.449 158.732 202.396 158.732H197.223V162.411H203.436C203.488 162.41 203.539 162.42 203.588 162.44C203.637 162.459 203.682 162.488 203.718 162.525C203.756 162.562 203.785 162.606 203.805 162.655C203.826 162.703 203.836 162.755 203.836 162.808V164.508C203.836 164.615 203.794 164.717 203.718 164.793C203.643 164.868 203.541 164.911 203.436 164.911H194.931C194.878 164.911 194.827 164.9 194.779 164.88C194.729 164.86 194.686 164.83 194.649 164.793C194.612 164.755 194.583 164.711 194.564 164.662C194.545 164.613 194.535 164.561 194.535 164.508V150.637Z" fill="#685040"/>
<path d="M105.831 171.601C106.334 171.601 107.096 171.635 107.695 171.635H110.518C111.292 171.635 111.806 171.601 112.037 171.578C112.057 171.589 112.073 171.604 112.085 171.623C112.097 171.642 112.104 171.664 112.105 171.686C111.989 172.316 111.921 172.955 111.902 173.596C111.815 173.64 111.72 173.666 111.623 173.671C111.526 173.677 111.428 173.663 111.337 173.63C111.295 173.323 111.223 173.022 111.122 172.729C111.09 172.623 111.022 172.532 110.931 172.471C110.839 172.41 110.729 172.383 110.62 172.394C109.982 172.349 109.343 172.349 108.705 172.394C108.638 172.394 108.576 172.536 108.576 172.621C108.576 173.33 108.576 174.112 108.576 174.985C108.575 175.006 108.583 175.026 108.596 175.041C108.61 175.057 108.628 175.067 108.649 175.07C109.112 175.07 110.061 175.07 110.428 175.07C110.659 175.07 110.727 174.94 110.812 174.684C110.864 174.515 110.907 174.343 110.942 174.169C111.159 174.133 111.382 174.15 111.591 174.22C111.542 174.637 111.517 175.058 111.518 175.478C111.518 176.045 111.518 176.391 111.518 176.799C111.319 176.874 111.103 176.887 110.896 176.839C110.856 176.647 110.805 176.458 110.744 176.272C110.659 175.994 110.552 175.949 110.383 175.937C110.049 175.909 108.926 175.909 108.609 175.909C108.576 175.909 108.553 175.949 108.553 175.983C108.553 176.725 108.553 177.439 108.553 177.848C108.553 178.074 108.626 178.278 108.886 178.335C109.206 178.41 109.53 178.464 109.857 178.494C109.887 178.676 109.865 178.862 109.795 179.032C109.197 179.032 108.53 178.998 107.728 178.998C106.927 178.998 106.48 179.032 105.848 179.032C105.812 178.949 105.793 178.86 105.793 178.769C105.793 178.678 105.812 178.588 105.848 178.505C106.064 178.487 106.279 178.455 106.492 178.409C106.831 178.335 106.887 178.193 106.898 177.842C106.91 177.491 106.927 176.283 106.927 175.319C106.927 173.902 106.927 173.29 106.898 172.848C106.87 172.406 106.791 172.389 106.576 172.332C106.362 172.275 106.074 172.236 105.808 172.196C105.746 172.001 105.754 171.79 105.831 171.601Z" fill="#685040"/>
<path d="M115.963 178.1C115.265 177.326 114.896 176.309 114.935 175.266C114.919 174.727 115.025 174.193 115.245 173.701C115.465 173.21 115.794 172.776 116.206 172.431C117.005 171.757 118.02 171.395 119.064 171.411C119.565 171.379 120.069 171.453 120.54 171.629C121.011 171.804 121.441 172.078 121.8 172.432C122.159 172.785 122.44 173.211 122.624 173.68C122.808 174.15 122.892 174.654 122.87 175.158C122.902 176.043 122.642 176.914 122.13 177.635C121.745 178.122 121.253 178.514 120.693 178.78C120.133 179.047 119.519 179.18 118.9 179.171C118.363 179.208 117.825 179.131 117.319 178.946C116.813 178.762 116.352 178.474 115.963 178.1ZM120.238 178.14C120.837 177.624 121.029 176.66 121.029 175.606C121.029 174.319 120.667 173.117 119.899 172.505C119.559 172.226 119.13 172.078 118.691 172.085C118.375 172.076 118.063 172.159 117.793 172.324C117.059 172.794 116.799 173.814 116.799 174.954C116.799 176.093 117.155 177.391 118.03 178.066C118.383 178.346 118.822 178.495 119.273 178.485C119.625 178.49 119.968 178.367 120.238 178.14Z" fill="#685040"/>
<path d="M125.369 171.612C125.872 171.612 126.685 171.612 127.272 171.612C127.86 171.612 128.588 171.578 129.142 171.578C129.202 171.762 129.202 171.961 129.142 172.145C128.899 172.185 128.662 172.241 128.515 172.27C128.193 172.349 128.12 172.553 128.12 172.927C128.12 173.948 128.12 174.668 128.12 175.319C128.12 175.62 128.148 176.351 128.193 176.737C128.289 177.553 128.888 178.177 130.158 178.177C130.971 178.177 131.926 177.984 132.033 176.181C132.09 175.133 132.09 174.083 132.033 173.035C132.033 172.627 131.954 172.378 131.53 172.292C131.263 172.224 130.991 172.175 130.717 172.145C130.669 171.959 130.669 171.764 130.717 171.578C131.197 171.578 131.773 171.612 132.383 171.612C133.326 171.612 133.71 171.578 133.953 171.578C134.019 171.761 134.019 171.962 133.953 172.145C133.761 172.196 133.569 172.207 133.388 172.27C133.089 172.338 132.982 172.553 132.959 173.131C132.908 174.055 132.897 175.399 132.79 176.255C132.598 178.522 131.259 179.174 129.571 179.174C127.38 179.174 126.651 178.091 126.533 176.878C126.459 176.017 126.459 173.539 126.448 172.91C126.454 172.787 126.42 172.664 126.351 172.562C126.282 172.46 126.181 172.383 126.064 172.343C125.834 172.273 125.597 172.224 125.358 172.196C125.295 172.006 125.299 171.8 125.369 171.612Z" fill="#685040"/>
<path d="M136.489 171.605C136.884 171.605 137.398 171.639 138.279 171.639C138.617 171.639 139.013 171.639 139.205 171.639C139.323 171.894 139.479 172.129 139.668 172.336C140.712 173.657 142.491 175.88 143.214 176.696C143.232 176.702 143.252 176.702 143.271 176.696C143.271 175.12 143.271 173.935 143.214 173.005C143.186 172.614 143.079 172.439 142.683 172.325C142.415 172.266 142.143 172.22 141.87 172.189C141.822 172.003 141.822 171.808 141.87 171.622C142.147 171.622 142.7 171.656 143.609 171.656C144.349 171.656 144.897 171.622 145.151 171.622C145.199 171.808 145.199 172.003 145.151 172.189C144.982 172.218 144.829 172.252 144.637 172.297C144.315 172.41 144.168 172.501 144.123 173.034C144.05 173.969 144.027 175.437 144.016 177.393C144.016 177.96 144.016 178.64 144.016 179.094C143.613 179.071 143.21 179.071 142.808 179.094C141.966 177.988 139.549 174.831 138.544 173.578C138.54 173.572 138.536 173.567 138.53 173.564C138.524 173.56 138.517 173.559 138.51 173.559C138.503 173.559 138.497 173.56 138.491 173.564C138.485 173.567 138.48 173.572 138.476 173.578C138.476 174.887 138.476 176.979 138.51 177.546C138.51 178.039 138.713 178.232 139.047 178.317C139.239 178.362 139.47 178.396 139.815 178.459C139.873 178.633 139.873 178.823 139.815 178.997C139.323 178.997 138.759 178.963 138.16 178.963C137.561 178.963 136.918 178.997 136.466 178.997C136.415 178.821 136.415 178.635 136.466 178.459C136.719 178.425 136.968 178.368 137.211 178.289C137.341 178.233 137.45 178.14 137.525 178.02C137.599 177.9 137.636 177.761 137.629 177.62C137.703 176.945 137.725 174.723 137.737 173.085C137.748 172.943 137.717 172.801 137.646 172.677C137.576 172.554 137.469 172.455 137.341 172.393C137.066 172.283 136.777 172.212 136.483 172.183C136.425 171.995 136.427 171.793 136.489 171.605Z" fill="#685040"/>
<path d="M147.964 171.601C148.201 171.601 149.387 171.635 149.749 171.635C150.658 171.635 150.98 171.601 152.007 171.601C152.935 171.546 153.851 171.823 154.594 172.384C154.989 172.717 155.305 173.135 155.518 173.607C155.731 174.078 155.836 174.592 155.825 175.11C155.851 175.685 155.741 176.257 155.502 176.78C155.263 177.302 154.903 177.76 154.452 178.115C153.494 178.795 152.332 179.125 151.16 179.05C150.488 179.05 149.353 179.016 148.286 178.999H147.783C147.721 178.891 147.71 178.483 147.783 178.46C148.042 178.437 148.299 178.393 148.551 178.33C148.681 178.307 148.796 178.235 148.876 178.13C148.955 178.025 148.992 177.894 148.98 177.763C148.98 177.389 148.98 176.301 148.98 175.326C148.98 174.192 148.98 173.364 148.98 172.837C148.947 172.491 148.885 172.355 148.563 172.27C148.433 172.231 148.133 172.185 147.891 172.146C147.863 171.961 147.889 171.772 147.964 171.601ZM150.884 178.098C151.183 178.3 151.539 178.402 151.9 178.387C152.176 178.395 152.45 178.339 152.701 178.223C152.952 178.107 153.173 177.934 153.346 177.718C153.898 177.041 154.169 176.176 154.103 175.303C154.127 174.793 154.027 174.285 153.81 173.824C153.594 173.362 153.267 172.961 152.86 172.656C152.363 172.341 151.781 172.186 151.194 172.214C151.05 172.212 150.906 172.228 150.765 172.259C150.717 172.296 150.683 172.348 150.669 172.406C150.669 172.763 150.669 174.243 150.669 175.286C150.669 176.329 150.669 177.378 150.669 177.667C150.695 177.829 150.77 177.98 150.884 178.098Z" fill="#685040"/>
<path d="M159.388 177.381C160.032 175.856 160.941 173.464 161.229 172.625C161.361 172.303 161.462 171.969 161.528 171.627C161.698 171.627 161.912 171.627 162.138 171.627C162.364 171.627 162.607 171.627 162.759 171.627C162.833 171.871 162.918 172.194 163.002 172.409C163.398 173.452 164.386 176.145 164.843 177.239C165.261 178.226 165.323 178.322 166.278 178.464C166.323 178.643 166.307 178.833 166.232 179.002C165.922 179.002 165.408 178.968 164.459 178.968C163.601 178.968 162.974 179.002 162.596 179.002C162.542 178.827 162.542 178.639 162.596 178.464C162.819 178.439 163.038 178.382 163.245 178.294C163.289 178.274 163.323 178.238 163.343 178.195C163.363 178.151 163.366 178.101 163.352 178.055C163.233 177.558 163.068 177.072 162.861 176.604C162.848 176.578 162.827 176.557 162.802 176.542C162.778 176.527 162.749 176.519 162.72 176.519C162.488 176.519 161.997 176.519 161.63 176.519C161.065 176.519 160.885 176.519 160.721 176.519C160.67 176.519 160.602 176.587 160.574 176.638C160.401 177.061 160.269 177.5 160.179 177.948C160.179 178.152 160.23 178.271 160.529 178.345C160.732 178.39 160.935 178.43 161.15 178.464C161.189 178.643 161.178 178.829 161.116 179.002C160.851 179.002 160.303 178.968 159.473 178.968C158.908 178.968 158.343 179.002 157.993 179.002C157.942 178.826 157.942 178.639 157.993 178.464C158.874 178.35 159.044 178.197 159.388 177.381ZM161.647 173.413C161.444 174.025 161.11 174.972 160.896 175.607C160.896 175.646 160.896 175.692 160.941 175.703C161.077 175.703 161.376 175.703 161.72 175.703C162.065 175.703 162.353 175.703 162.46 175.703C162.567 175.703 162.511 175.658 162.511 175.629C162.404 175.318 161.946 174.036 161.709 173.407C161.701 173.396 161.689 173.388 161.675 173.384L161.647 173.413Z" fill="#685040"/>
<path d="M173.94 179.002C173.488 179.002 172.743 178.968 171.811 178.968C170.783 178.968 170.066 179.002 169.693 179.002C169.649 178.919 169.626 178.826 169.626 178.732C169.626 178.638 169.649 178.546 169.693 178.463C170.055 178.418 170.365 178.367 170.529 178.333C170.902 178.248 170.987 178.078 171.009 177.585C171.071 176.315 171.06 174.472 171.06 172.517C171.06 172.483 171.02 172.409 170.987 172.409C170.772 172.409 170.185 172.409 169.812 172.409C169.62 172.409 169.439 172.477 169.247 172.84C169.079 173.187 168.934 173.545 168.813 173.911C168.601 173.928 168.39 173.872 168.214 173.752C168.31 173.237 168.445 172.205 168.491 171.581C168.51 171.557 168.534 171.537 168.561 171.523C168.588 171.508 168.618 171.499 168.649 171.496C169.014 171.61 169.396 171.662 169.778 171.649H174.036C174.521 171.68 175.007 171.632 175.476 171.508C175.521 171.508 175.572 171.593 175.583 171.615C175.423 172.347 175.319 173.09 175.273 173.838C175.078 173.9 174.869 173.9 174.674 173.838C174.633 173.463 174.559 173.093 174.454 172.732C174.434 172.63 174.379 172.538 174.298 172.473C174.218 172.408 174.117 172.373 174.013 172.375C173.586 172.347 173.158 172.347 172.732 172.375C172.716 172.385 172.703 172.399 172.694 172.414C172.684 172.43 172.678 172.447 172.675 172.466C172.675 174.234 172.636 177.12 172.675 177.766C172.673 177.873 172.701 177.977 172.756 178.069C172.811 178.16 172.891 178.234 172.986 178.282C173.308 178.369 173.636 178.43 173.968 178.463C174.029 178.639 174.019 178.833 173.94 179.002Z" fill="#685040"/>
<path d="M178.379 171.605C178.74 171.605 179.384 171.639 180.186 171.639C181.287 171.639 181.779 171.605 182.1 171.605C182.16 171.789 182.16 171.988 182.1 172.172C181.862 172.194 181.625 172.235 181.395 172.297C181.112 172.376 181.095 172.58 181.084 172.864C181.084 173.295 181.084 173.997 181.084 175.029C181.084 176.061 181.084 177.297 181.084 177.767C181.084 178.028 181.134 178.249 181.468 178.334C181.732 178.403 182 178.456 182.269 178.493C182.31 178.676 182.279 178.869 182.184 179.031C181.852 179.031 181.23 178.997 180.293 178.997C179.356 178.997 178.74 179.031 178.356 179.031C178.317 178.947 178.297 178.855 178.297 178.762C178.297 178.669 178.317 178.577 178.356 178.493C178.633 178.447 178.813 178.419 178.966 178.385C179.327 178.311 179.384 178.192 179.423 177.818C179.463 177.444 179.423 176.044 179.423 175.046C179.423 173.833 179.423 173.346 179.423 172.835C179.423 172.558 179.327 172.399 179.113 172.342C178.866 172.268 178.613 172.219 178.356 172.195C178.305 172 178.313 171.795 178.379 171.605Z" fill="#685040"/>
<path d="M186.109 178.1C185.411 177.326 185.041 176.309 185.081 175.266C185.065 174.727 185.171 174.193 185.391 173.701C185.611 173.21 185.94 172.776 186.352 172.431C187.151 171.756 188.165 171.394 189.209 171.411C189.712 171.379 190.215 171.453 190.686 171.629C191.158 171.804 191.586 172.078 191.946 172.432C192.305 172.785 192.586 173.211 192.769 173.68C192.954 174.15 193.038 174.654 193.015 175.158C193.048 176.043 192.787 176.914 192.276 177.635C191.89 178.122 191.398 178.513 190.839 178.779C190.278 179.045 189.665 179.18 189.046 179.171C188.509 179.208 187.971 179.131 187.465 178.946C186.959 178.762 186.497 178.474 186.109 178.1ZM190.384 178.14C190.983 177.624 191.175 176.66 191.175 175.606C191.175 174.319 190.813 173.117 190.045 172.505C189.705 172.225 189.276 172.076 188.837 172.085C188.521 172.079 188.211 172.162 187.938 172.324C187.21 172.794 186.951 173.814 186.951 174.954C186.951 176.093 187.306 177.391 188.182 178.066C188.535 178.347 188.974 178.496 189.424 178.485C189.774 178.489 190.115 178.366 190.384 178.14Z" fill="#685040"/>
<path d="M195.207 171.605C195.601 171.605 196.115 171.639 197.002 171.639C197.335 171.639 197.73 171.639 197.922 171.639C198.043 171.893 198.199 172.128 198.386 172.336C199.431 173.657 201.209 175.88 201.933 176.696C201.95 176.702 201.97 176.702 201.989 176.696C201.989 175.12 201.989 173.935 201.933 173.005C201.933 172.614 201.798 172.439 201.408 172.325C201.136 172.266 200.864 172.221 200.588 172.189C200.541 172.003 200.541 171.808 200.588 171.622C200.865 171.622 201.417 171.656 202.328 171.656C203.067 171.656 203.621 171.622 203.87 171.622C203.924 171.807 203.924 172.004 203.87 172.189C203.699 172.218 203.547 172.252 203.355 172.297C203.034 172.41 202.887 172.501 202.841 173.034C202.768 173.969 202.746 175.437 202.734 177.393C202.734 177.96 202.734 178.64 202.734 179.094C202.332 179.071 201.928 179.071 201.526 179.094C200.689 177.988 198.273 174.831 197.262 173.578C197.259 173.572 197.254 173.567 197.248 173.564C197.242 173.56 197.235 173.559 197.229 173.559C197.222 173.559 197.214 173.56 197.208 173.564C197.202 173.567 197.197 173.572 197.194 173.578C197.194 174.887 197.194 176.979 197.229 177.546C197.229 178.039 197.432 178.232 197.765 178.317C197.957 178.362 198.189 178.396 198.533 178.459C198.594 178.633 198.594 178.823 198.533 178.997C198.041 178.997 197.477 178.963 196.878 178.963C196.28 178.963 195.635 178.997 195.184 178.997C195.128 178.822 195.128 178.634 195.184 178.459C195.435 178.424 195.683 178.367 195.923 178.289C196.053 178.233 196.162 178.14 196.237 178.02C196.312 177.9 196.348 177.761 196.342 177.62C196.415 176.945 196.438 174.723 196.449 173.085C196.461 172.943 196.428 172.801 196.359 172.677C196.288 172.554 196.181 172.455 196.054 172.393C195.779 172.282 195.49 172.211 195.195 172.183C195.138 171.994 195.143 171.792 195.207 171.605Z" fill="#685040"/>
</g>
</g>
</svg>
