<svg width="354" height="107" viewBox="0 0 354 107" fill="none" xmlns="http://www.w3.org/2000/svg">
<g clip-path="url(#clip0_95_305)">
<path d="M318.362 93.0472C320.192 93.0472 321.465 93.8484 322.162 94.7893V93.2199H323.73V101.165C323.73 103.918 321.483 105.661 318.432 105.661C316.01 105.661 314.145 104.686 313.449 103.065L314.722 102.264C315.244 103.605 316.709 104.354 318.399 104.354C320.524 104.353 322.162 103.273 322.162 101.287V100.521C321.465 101.48 320.192 102.281 318.362 102.281C315.279 102.28 313.361 100.208 313.361 97.6469C313.361 95.1031 315.279 93.0474 318.362 93.0472ZM105.234 0.168467L139.569 33.2988L139.755 33.4781V104.816H70.2315L70.0566 104.641L34.9388 70.1079V104.816H0V0H105.059L105.234 0.168467ZM159.078 89.6308C161.987 89.6308 164.339 90.7633 165.332 92.4181L164.112 93.3946C163.241 92.001 161.446 91.0937 159.007 91.0937C156.464 91.0939 155.123 92.07 155.122 93.237C155.122 94.5611 156.342 94.823 159.583 95.154C163.503 95.5722 165.665 96.0434 165.665 98.5874C165.665 101.061 163.102 102.526 159.722 102.526C156.638 102.526 153.851 101.252 152.718 99.2314L153.938 98.1522C155.176 100.26 157.58 101.061 159.758 101.061C162.231 101.061 164.026 100.155 164.027 98.7621C164.027 97.2464 162.806 97.0197 159.061 96.619C155.802 96.288 153.537 95.7993 153.537 93.3946C153.537 91.2166 155.767 89.6308 159.078 89.6308ZM171.894 93.0472C174.786 93.0472 176.999 94.9802 176.999 97.7856C176.999 100.573 174.786 102.526 171.894 102.526C168.967 102.526 166.772 100.573 166.772 97.7856C166.772 94.9804 168.967 93.0472 171.894 93.0472ZM214.053 93.0472C216.684 93.0472 218.254 94.2144 218.254 96.3227V100.434C218.254 101.114 218.706 101.305 219.717 101.078V102.334C217.975 102.665 217.034 102.019 216.877 100.956L216.86 100.869C216.041 101.914 214.49 102.526 212.765 102.526C210.727 102.526 209.106 101.584 209.106 99.7899C209.106 98.1 210.569 97.2276 212.712 96.9837L216.738 96.5317V96.3055C216.738 95.1555 215.796 94.3884 214.019 94.3884C212.469 94.3884 211.144 95.1195 210.761 96.1648L209.454 95.572C210.029 94.039 211.928 93.0474 214.053 93.0472ZM232.557 93.0472C235.538 93.0472 237.4 95.0326 237.4 97.5766V98.1865H228.864C229.054 99.9985 230.552 101.165 232.557 101.165C234.317 101.165 235.572 100.26 235.99 98.9883L237.26 99.6493C236.721 101.183 235.013 102.526 232.557 102.526C229.543 102.526 227.382 100.573 227.382 97.7856C227.382 95.0848 229.491 93.0472 232.557 93.0472ZM262.827 93.0472C265.72 93.0474 267.932 94.9804 267.932 97.7856C267.932 100.573 265.72 102.526 262.827 102.526C259.901 102.526 257.704 100.573 257.704 97.7856C257.704 94.9802 259.901 93.0472 262.827 93.0472ZM285.443 93.0472C288.422 93.0474 290.287 95.0328 290.287 97.5766V98.1865H281.748C281.941 99.9985 283.439 101.165 285.443 101.165C287.201 101.165 288.457 100.26 288.874 98.9883L290.147 99.6493C289.608 101.182 287.9 102.526 285.443 102.526C282.428 102.526 280.268 100.573 280.268 97.7856C280.268 95.0848 282.375 93.0472 285.443 93.0472ZM189.052 93.2199H193.27V94.5611H189.052V99.3357C189.052 100.625 189.819 101.027 191.195 101.027C191.961 101.027 192.659 100.853 193.321 100.609L193.601 101.95C192.904 102.229 191.875 102.439 190.952 102.439C189.036 102.439 187.502 101.671 187.502 99.4766V94.5611H185.288V93.2199H187.502V90.5543H189.052V93.2199ZM339.78 93.2199H343.996V94.5611H339.78V99.3357C339.78 100.625 340.546 101.027 341.922 101.027C342.688 101.027 343.387 100.853 344.049 100.609L344.328 101.95C343.629 102.229 342.603 102.439 341.679 102.439C339.762 102.439 338.229 101.671 338.229 99.4766V94.5611H336.015V93.2199H338.229V90.5543H339.78V93.2199ZM183.301 89.6308C183.928 89.6308 184.766 89.7352 185.254 89.9444L184.992 91.3219C184.399 91.1476 183.963 91.0767 183.301 91.0767C181.768 91.0769 181.002 91.6876 181.002 93.0813V93.2199H184.783V94.5611H181.002V102.334H179.468V94.5611H177.255V93.2199H179.468V93.0472C179.468 90.7474 180.984 89.6313 183.301 89.6308ZM198.188 100.4L200.802 93.2199H202.16L204.775 100.4L207.492 93.2199H209.112L205.489 102.334H204.095L201.446 95.2756L198.814 102.334H197.422L193.78 93.2199H195.452L198.188 100.4ZM225.984 93.1516C226.403 93.1516 226.768 93.2036 227.012 93.2732V94.8404C226.628 94.7533 226.384 94.702 225.949 94.702C223.857 94.7022 222.464 95.9222 222.464 98.0478V102.334H220.896V93.2199H222.464V95.137C223.143 93.9346 224.294 93.1516 225.984 93.1516ZM249.683 89.8228C253.883 89.823 256.669 92.2622 256.669 96.0773C256.669 99.893 253.883 102.334 249.683 102.334H243.497V89.8228H249.683ZM274.752 93.0472C277.296 93.0472 278.691 94.7889 278.691 97.263V102.334H277.104V97.506C277.104 95.7814 276.217 94.493 274.317 94.493C272.487 94.493 271.164 95.7469 271.164 97.6809V102.334H269.596V93.2199H271.164V94.8234C271.808 93.8652 273.044 93.0472 274.752 93.0472ZM304.205 89.8228C306.817 89.8228 308.632 91.0609 308.632 93.4479C308.632 95.4512 307.306 96.6872 305.286 97.0007L308.892 102.334H306.976L303.456 97.0881H298.054V102.334H296.383V89.8228H304.205ZM311.765 102.334H310.195V93.2199H311.765V102.334ZM327.555 94.8234C328.2 93.8652 329.438 93.0472 331.145 93.0472C333.687 93.0474 335.08 94.7889 335.08 97.263V102.334H333.497V97.506C333.497 95.7818 332.608 94.4934 330.709 94.493C328.879 94.493 327.555 95.7469 327.555 97.6809V102.334H325.985V89.8228H327.555V94.8234ZM212.938 98.2205C211.579 98.3773 210.639 98.7278 210.639 99.7729C210.64 100.713 211.528 101.236 212.887 101.236C214.682 101.236 216.738 100.399 216.738 98.6918V97.7856L212.938 98.2205ZM171.894 94.4054C169.838 94.4057 168.271 95.7122 168.271 97.7856C168.271 99.8415 169.838 101.165 171.894 101.165C173.915 101.165 175.483 99.8415 175.483 97.7856C175.483 95.7122 173.915 94.4054 171.894 94.4054ZM262.827 94.4054C260.772 94.4054 259.202 95.7122 259.202 97.7856C259.202 99.8415 260.772 101.165 262.827 101.165C264.849 101.165 266.417 99.8413 266.417 97.7856C266.417 95.7124 264.849 94.4059 262.827 94.4054ZM318.537 94.3522C316.482 94.3522 314.877 95.6432 314.877 97.6469C314.877 99.6677 316.482 100.939 318.537 100.939C320.384 100.939 322.229 99.7893 322.229 97.6809V97.6106C322.229 95.5202 320.384 94.3522 318.537 94.3522ZM245.135 100.886H249.683C252.924 100.886 254.981 98.987 254.981 96.0773C254.979 93.1505 252.922 91.2686 249.664 91.2686H245.135V100.886ZM232.487 94.3714C230.727 94.3716 229.279 95.3462 228.932 96.9837H235.867C235.762 95.7467 234.524 94.3714 232.487 94.3714ZM285.373 94.3714C283.613 94.3714 282.166 95.346 281.818 96.9837H288.751C288.647 95.7467 287.411 94.3714 285.373 94.3714ZM298.054 95.6423H304.12C305.896 95.6421 306.994 94.8586 306.994 93.4479C306.994 92.0368 305.896 91.2688 304.12 91.2686H298.054V95.6423ZM311.833 91.6355H310.127V89.8228H311.833V91.6355ZM231.932 32.7551C248.334 32.7551 259.977 42.8996 259.977 56.8801C259.977 70.86 248.334 81.0027 231.932 81.0027C215.53 81.0027 203.888 70.86 203.888 56.8801C203.888 42.8998 215.53 32.7551 231.932 32.7551ZM182.576 33.5355C194.282 33.536 202 39.2579 202 50.1819C202 61.1057 194.282 66.8278 182.576 66.828H167.458V80.2223H152.857V33.5355H182.576ZM288.177 33.5355C305.478 33.5358 315.899 42.6397 315.899 56.8801C315.899 71.1198 305.478 80.222 288.177 80.2223H263.475V33.5355H288.177ZM333.405 80.2223H319.126V45.7591H333.405V80.2223ZM352.312 80.2223H338.033V45.7591H352.312V80.2223ZM36.9071 33.5441L70.0396 69.0842L70.2186 69.2762H106.021V32.5313H35.9625L36.9071 33.5441ZM231.932 45.4348C224.663 45.435 218.811 49.7273 218.811 56.8801C218.811 64.0323 224.663 68.323 231.932 68.323C239.2 68.323 245.054 64.0323 245.054 56.8801C245.054 49.7273 239.202 45.4348 231.932 45.4348ZM277.755 67.8688H288.177C296.796 67.8686 301.428 63.5119 301.428 56.8801C301.428 50.2476 296.796 45.8892 288.177 45.889H277.755V67.8688ZM167.458 54.6025H181.804C185.598 54.6023 187.591 52.8475 187.591 50.1819C187.591 47.5161 185.598 45.7593 181.804 45.7591H167.458V54.6025ZM333.405 43.8739H319.126V33.5355H333.405V43.8739ZM352.312 43.8739H338.033V33.5355H352.312V43.8739Z" fill="white"/>
</g>
<defs>
<clipPath id="clip0_95_305">
<rect width="353.755" height="107" fill="white"/>
</clipPath>
</defs>
</svg>
