<svg width="162" height="49" viewBox="0 0 162 49" fill="none" xmlns="http://www.w3.org/2000/svg">
<g clip-path="url(#clip0_40_5984)">
<path d="M145.792 42.6104C146.63 42.6104 147.213 42.9773 147.532 43.4082V42.6895H148.25V46.3281C148.25 47.5888 147.221 48.3867 145.824 48.3867C144.715 48.3867 143.861 47.9402 143.542 47.1982L144.125 46.8311C144.364 47.4454 145.035 47.7881 145.809 47.7881C146.782 47.788 147.532 47.2933 147.532 46.3838V46.0332C147.213 46.4721 146.63 46.8389 145.792 46.8389C144.38 46.8387 143.502 45.8895 143.502 44.7168C143.502 43.5519 144.38 42.6105 145.792 42.6104ZM48.1914 0.0771484L63.915 15.249L64 15.3311V48H32.1621L32.082 47.9199L16 32.1055V48H0V0H48.1113L48.1914 0.0771484ZM72.8486 41.0459C74.1809 41.0459 75.2579 41.5645 75.7129 42.3223L75.1543 42.7695C74.7553 42.1313 73.9334 41.7158 72.8164 41.7158C71.6519 41.7159 71.0375 42.1629 71.0371 42.6973C71.0371 43.3037 71.5959 43.4236 73.0801 43.5752C74.8754 43.7667 75.8652 43.9825 75.8652 45.1475C75.8652 46.2805 74.6915 46.9512 73.1436 46.9512C71.7313 46.9511 70.4551 46.3679 69.9365 45.4424L70.4951 44.9482C71.0617 45.9134 72.1629 46.2803 73.1602 46.2803C74.2928 46.2802 75.1149 45.8656 75.1152 45.2275C75.1152 44.5334 74.5562 44.4296 72.8408 44.2461C71.3487 44.0945 70.3115 43.8707 70.3115 42.7695C70.3115 41.7721 71.3326 41.0459 72.8486 41.0459ZM78.7178 42.6104C80.0423 42.6104 81.0556 43.4956 81.0557 44.7803C81.0557 46.057 80.0423 46.9512 78.7178 46.9512C77.3773 46.9511 76.3721 46.0569 76.3721 44.7803C76.3721 43.4957 77.3773 42.6104 78.7178 42.6104ZM98.0244 42.6104C99.2293 42.6104 99.9482 43.1449 99.9482 44.1104V45.9932C99.9482 46.3044 100.155 46.3918 100.618 46.2881V46.8633C99.8202 47.0149 99.3892 46.7192 99.3174 46.2324L99.3096 46.1924C98.9346 46.6711 98.2244 46.9511 97.4346 46.9512C96.5011 46.9512 95.759 46.5199 95.7588 45.6982C95.7588 44.9243 96.4288 44.5248 97.4102 44.4131L99.2539 44.2061V44.1025C99.2539 43.5759 98.8227 43.2246 98.0088 43.2246C97.2987 43.2246 96.6922 43.5594 96.5166 44.0381L95.918 43.7666C96.1813 43.0646 97.0512 42.6105 98.0244 42.6104ZM106.498 42.6104C107.863 42.6104 108.716 43.5196 108.716 44.6846V44.9639H104.807C104.894 45.7937 105.58 46.3281 106.498 46.3281C107.304 46.3281 107.879 45.9135 108.07 45.3311L108.652 45.6338C108.405 46.336 107.623 46.9512 106.498 46.9512C105.118 46.9512 104.128 46.057 104.128 44.7803C104.128 43.5435 105.094 42.6104 106.498 42.6104ZM120.36 42.6104C121.685 42.6105 122.698 43.4957 122.698 44.7803C122.698 46.0569 121.685 46.951 120.36 46.9512C119.02 46.9512 118.014 46.057 118.014 44.7803C118.014 43.4956 119.02 42.6104 120.36 42.6104ZM130.717 42.6104C132.081 42.6105 132.935 43.5197 132.935 44.6846V44.9639H129.025C129.113 45.7937 129.799 46.3281 130.717 46.3281C131.522 46.328 132.097 45.9134 132.288 45.3311L132.871 45.6338C132.624 46.3359 131.842 46.9511 130.717 46.9512C129.336 46.9512 128.347 46.057 128.347 44.7803C128.347 43.5435 129.312 42.6104 130.717 42.6104ZM86.5752 42.6895H88.5068V43.3037H86.5752V45.4902C86.5752 46.0806 86.9265 46.2646 87.5566 46.2646C87.9076 46.2646 88.2271 46.1849 88.5303 46.0732L88.6582 46.6875C88.339 46.8152 87.8682 46.9111 87.4453 46.9111C86.5677 46.9111 85.8654 46.5598 85.8652 45.5547V43.3037H84.8516V42.6895H85.8652V41.4688H86.5752V42.6895ZM155.6 42.6895H157.531V43.3037H155.6V45.4902C155.6 46.0806 155.951 46.2646 156.581 46.2646C156.932 46.2646 157.252 46.1849 157.555 46.0732L157.683 46.6875C157.363 46.8152 156.893 46.9111 156.47 46.9111C155.592 46.9111 154.89 46.5598 154.89 45.5547V43.3037H153.876V42.6895H154.89V41.4688H155.6V42.6895ZM83.9414 41.0459C84.2287 41.0459 84.6125 41.0937 84.8359 41.1895L84.7158 41.8203C84.4445 41.7405 84.2446 41.708 83.9414 41.708C83.2395 41.7081 82.8887 41.9878 82.8887 42.626V42.6895H84.6201V43.3037H82.8887V46.8633H82.1865V43.3037H81.1729V42.6895H82.1865V42.6104C82.1865 41.5572 82.8804 41.0461 83.9414 41.0459ZM90.7588 45.9775L91.9561 42.6895H92.5781L93.7754 45.9775L95.0195 42.6895H95.7617L94.1025 46.8633H93.4639L92.251 43.6309L91.0459 46.8633H90.4082L88.7402 42.6895H89.5059L90.7588 45.9775ZM103.488 42.6582C103.68 42.6582 103.847 42.682 103.959 42.7139V43.4316C103.783 43.3917 103.671 43.3682 103.472 43.3682C102.514 43.3683 101.876 43.927 101.876 44.9004V46.8633H101.158V42.6895H101.876V43.5674C102.187 43.0168 102.714 42.6582 103.488 42.6582ZM114.341 41.1338C116.264 41.1339 117.54 42.2509 117.54 43.998C117.54 45.7454 116.264 46.8631 114.341 46.8633H111.508V41.1338H114.341ZM125.821 42.6104C126.986 42.6104 127.625 43.408 127.625 44.541V46.8633H126.898V44.6523C126.898 43.8625 126.492 43.2725 125.622 43.2725C124.784 43.2725 124.178 43.8467 124.178 44.7324V46.8633H123.46V42.6895H124.178V43.4238C124.473 42.985 125.039 42.6104 125.821 42.6104ZM139.309 41.1338C140.505 41.1338 141.336 41.7008 141.336 42.7939C141.336 43.7113 140.729 44.2773 139.804 44.4209L141.455 46.8633H140.578L138.966 44.4609H136.492V46.8633H135.727V41.1338H139.309ZM142.771 46.8633H142.052V42.6895H142.771V46.8633ZM150.002 43.4238C150.297 42.985 150.864 42.6104 151.646 42.6104C152.81 42.6105 153.448 43.408 153.448 44.541V46.8633H152.723V44.6523C152.723 43.8627 152.316 43.2727 151.446 43.2725C150.608 43.2725 150.002 43.8467 150.002 44.7324V46.8633H149.283V41.1338H150.002V43.4238ZM97.5137 44.9795C96.8915 45.0513 96.4609 45.2118 96.4609 45.6904C96.4612 46.121 96.8681 46.3604 97.4902 46.3604C98.3121 46.3603 99.2539 45.9772 99.2539 45.1953V44.7803L97.5137 44.9795ZM78.7178 43.2324C77.7763 43.2325 77.0586 43.8308 77.0586 44.7803C77.0586 45.7218 77.7763 46.3281 78.7178 46.3281C79.6434 46.3281 80.3613 45.7218 80.3613 44.7803C80.3613 43.8308 79.6434 43.2324 78.7178 43.2324ZM120.36 43.2324C119.419 43.2324 118.7 43.8308 118.7 44.7803C118.7 45.7218 119.419 46.3281 120.36 46.3281C121.286 46.328 122.004 45.7217 122.004 44.7803C122.004 43.8309 121.286 43.2326 120.36 43.2324ZM145.872 43.208C144.931 43.208 144.196 43.7992 144.196 44.7168C144.196 45.6422 144.931 46.2246 145.872 46.2246C146.718 46.2246 147.563 45.6979 147.563 44.7324V44.7002C147.563 43.7429 146.718 43.208 145.872 43.208ZM112.258 46.2002H114.341C115.825 46.2 116.767 45.3305 116.767 43.998C116.766 42.6577 115.824 41.7959 114.332 41.7959H112.258V46.2002ZM106.466 43.2168C105.66 43.2169 104.997 43.6632 104.838 44.4131H108.014C107.966 43.8466 107.399 43.2168 106.466 43.2168ZM130.685 43.2168C129.879 43.2168 129.216 43.6631 129.057 44.4131H132.232C132.184 43.8466 131.618 43.2168 130.685 43.2168ZM136.492 43.7988H139.27C140.083 43.7987 140.586 43.4399 140.586 42.7939C140.586 42.1477 140.083 41.796 139.27 41.7959H136.492V43.7988ZM142.802 41.9639H142.021V41.1338H142.802V41.9639ZM106.212 15C113.723 15 119.055 19.6456 119.055 26.0479C119.055 32.4499 113.723 37.0947 106.212 37.0947C98.7006 37.0947 93.3693 32.4499 93.3691 26.0479C93.3691 19.6457 98.7005 15 106.212 15ZM83.6094 15.3574C88.9702 15.3576 92.5049 17.9779 92.5049 22.9805C92.5049 27.983 88.9702 30.6034 83.6094 30.6035H76.6865V36.7373H70V15.3574H83.6094ZM131.969 15.3574C139.892 15.3575 144.664 19.5266 144.664 26.0479C144.664 32.5689 139.892 36.7372 131.969 36.7373H120.657V15.3574H131.969ZM152.681 36.7373H146.142V20.9551H152.681V36.7373ZM161.339 36.7373H154.8V20.9551H161.339V36.7373ZM16.9014 15.3613L32.0742 31.6367L32.1562 31.7246H48.5518V14.8975H16.4688L16.9014 15.3613ZM106.212 20.8066C102.883 20.8067 100.203 22.7723 100.203 26.0479C100.203 29.3232 102.883 31.2881 106.212 31.2881C109.54 31.2881 112.221 29.3232 112.221 26.0479C112.221 22.7723 109.541 20.8066 106.212 20.8066ZM127.196 31.0801H131.969C135.916 31.08 138.037 29.0849 138.037 26.0479C138.037 23.0106 135.916 21.0147 131.969 21.0146H127.196V31.0801ZM76.6865 25.0049H83.2559C84.9935 25.0048 85.9062 24.2012 85.9062 22.9805C85.9062 21.7597 84.9936 20.9552 83.2559 20.9551H76.6865V25.0049ZM152.681 20.0918H146.142V15.3574H152.681V20.0918ZM161.339 20.0918H154.8V15.3574H161.339V20.0918Z" fill="black"/>
</g>
<defs>
<clipPath id="clip0_40_5984">
<rect width="162" height="49" fill="white"/>
</clipPath>
</defs>
</svg>
