<svg width="1536" height="1496" viewBox="0 0 1536 1496" fill="none" xmlns="http://www.w3.org/2000/svg">
<path d="M0.70166 769.995L640.147 750.925C640.147 750.925 701.975 749.11 767.702 749.11C833.429 749.11 893.585 750.925 893.585 750.925L1534.7 769.995" stroke="black" stroke-width="2"/>
<path d="M0.70166 724.73L640.147 743.8C640.147 743.8 701.975 745.615 767.702 745.615C833.429 745.615 893.585 743.8 893.585 743.8L1534.7 724.73" stroke="black" stroke-width="2"/>
<path d="M0.70166 815.886L640.147 758.678C640.147 758.678 701.975 753.234 767.702 753.234C833.429 753.234 893.585 758.678 893.585 758.678L1534.7 815.886" stroke="black" stroke-width="2"/>
<path d="M0.70166 680.095L640.147 737.304C640.147 737.304 701.975 742.747 767.702 742.747C833.429 742.747 893.585 737.304 893.585 737.304L1534.7 680.095" stroke="black" stroke-width="2"/>
<path d="M0.70166 860.692L640.147 765.344C640.147 765.344 701.975 756.271 767.702 756.271C833.429 756.271 893.585 765.344 893.585 765.344L1534.7 860.692" stroke="black" stroke-width="2"/>
<path d="M0.70166 634.365L640.147 729.713C640.147 729.713 701.975 738.786 767.702 738.786C833.429 738.786 893.585 729.713 893.585 729.713L1534.7 634.365" stroke="black" stroke-width="2"/>
<path d="M0.70166 905.498L640.147 772.011C640.147 772.011 701.975 759.309 767.702 759.309C833.429 759.309 893.585 772.011 893.585 772.011L1534.7 905.498" stroke="black" stroke-width="2"/>
<path d="M0.70166 588.639L640.147 722.126C640.147 722.126 701.975 734.828 767.702 734.828C833.429 734.828 893.585 722.126 893.585 722.126L1534.7 588.639" stroke="black" stroke-width="2"/>
<path d="M0.70166 951.389L640.147 779.763C640.147 779.763 701.975 763.432 767.702 763.432C833.429 763.432 893.585 779.763 893.585 779.763L1534.7 951.389" stroke="black" stroke-width="2"/>
<path d="M0.70166 543.999L640.147 715.625C640.147 715.625 701.975 731.957 767.702 731.957C833.429 731.957 893.585 715.625 893.585 715.625L1534.7 543.999" stroke="black" stroke-width="2"/>
<path d="M0.70166 996.195L640.147 786.43C640.147 786.43 701.975 766.469 767.702 766.469C833.429 766.469 893.585 786.43 893.585 786.43L1534.7 996.195" stroke="black" stroke-width="2"/>
<path d="M0.70166 498.272L640.147 708.038C640.147 708.038 701.975 727.998 767.702 727.998C833.429 727.998 893.585 708.038 893.585 708.038L1534.7 498.272" stroke="black" stroke-width="2"/>
<path d="M0.70166 1042.09L640.147 794.183C640.147 794.183 701.975 770.593 767.702 770.593C833.429 770.593 893.585 794.183 893.585 794.183L1534.7 1042.09" stroke="black" stroke-width="2"/>
<path d="M0.70166 453.633L640.147 701.538C640.147 701.538 701.975 725.127 767.702 725.127C833.429 725.127 893.585 701.538 893.585 701.538L1534.7 453.633" stroke="black" stroke-width="2"/>
<path d="M0.70166 1086.88L640.147 800.841C640.147 800.841 701.975 773.622 767.702 773.622C833.429 773.622 893.585 800.841 893.585 800.841L1534.7 1086.88" stroke="black" stroke-width="2"/>
<path d="M0.70166 407.907L640.147 693.951C640.147 693.951 701.975 721.17 767.702 721.17C833.429 721.17 893.585 693.951 893.585 693.951L1534.7 407.907" stroke="black" stroke-width="2"/>
<path d="M0.70166 1132.78L640.147 808.598C640.147 808.598 701.975 777.75 767.702 777.75C833.429 777.75 893.585 808.598 893.585 808.598L1534.7 1132.78" stroke="black" stroke-width="2"/>
<path d="M0.70166 363.268L640.147 687.451C640.147 687.451 701.975 718.299 767.702 718.299C833.429 718.299 893.585 687.451 893.585 687.451L1534.7 363.268" stroke="black" stroke-width="2"/>
<path d="M0.70166 1177.58L640.147 815.261C640.147 815.261 701.975 780.784 767.702 780.784C833.429 780.784 893.585 815.261 893.585 815.261L1534.7 1177.58" stroke="black" stroke-width="2"/>
<path d="M0.70166 317.542L640.147 679.864C640.147 679.864 701.975 714.341 767.702 714.341C833.429 714.341 893.585 679.864 893.585 679.864L1534.7 317.542" stroke="black" stroke-width="2"/>
<path d="M0.70166 1222.39L640.147 821.927C640.147 821.927 701.975 783.821 767.702 783.821C833.429 783.821 893.585 821.927 893.585 821.927L1534.7 1222.39" stroke="black" stroke-width="2"/>
<path d="M0.70166 271.811L640.147 672.273C640.147 672.273 701.975 710.379 767.702 710.379C833.429 710.379 893.585 672.273 893.585 672.273L1534.7 271.811" stroke="black" stroke-width="2"/>
<path d="M0.70166 1268.28L640.147 829.684C640.147 829.684 701.975 787.948 767.702 787.948C833.429 787.948 893.585 829.684 893.585 829.684L1534.7 1268.28" stroke="black" stroke-width="2"/>
<path d="M0.70166 227.175L640.147 665.776C640.147 665.776 701.975 707.511 767.702 707.511C833.429 707.511 893.585 665.776 893.585 665.776L1534.7 227.175" stroke="black" stroke-width="2"/>
<path d="M0.70166 1313.08L640.147 836.342C640.147 836.342 701.975 790.977 767.702 790.977C833.429 790.977 893.585 836.342 893.585 836.342L1534.7 1313.08" stroke="black" stroke-width="2"/>
<path d="M0.70166 181.445L640.147 658.185C640.147 658.185 701.975 703.549 767.702 703.549C833.429 703.549 893.585 658.185 893.585 658.185L1534.7 181.445" stroke="black" stroke-width="2"/>
<path d="M0.70166 1358.98L640.147 844.104C640.147 844.104 701.975 795.11 767.702 795.11C833.429 795.11 893.585 844.104 893.585 844.104L1534.7 1358.98" stroke="black" stroke-width="2"/>
<path d="M0.70166 136.805L640.147 651.684C640.147 651.684 701.975 700.678 767.702 700.678C833.429 700.678 893.585 651.684 893.585 651.684L1534.7 136.805" stroke="black" stroke-width="2"/>
<path d="M0.70166 1403.78L640.147 850.762C640.147 850.762 701.975 798.139 767.702 798.139C833.429 798.139 893.585 850.762 893.585 850.762L1534.7 1403.78" stroke="black" stroke-width="2"/>
<path d="M0.70166 91.0796L640.147 644.098C640.147 644.098 701.975 696.721 767.702 696.721C833.429 696.721 893.585 644.098 893.585 644.098L1534.7 91.0796" stroke="black" stroke-width="2"/>
<path d="M0.70166 1449.67L640.147 858.515C640.147 858.515 701.975 802.263 767.702 802.263C833.429 802.263 893.585 858.515 893.585 858.515L1534.7 1449.67" stroke="black" stroke-width="2"/>
<path d="M0.70166 46.4399L640.147 637.598C640.147 637.598 701.975 693.849 767.702 693.849C833.429 693.849 893.585 637.598 893.585 637.598L1534.7 46.4399" stroke="black" stroke-width="2"/>
<path d="M0.70166 1494.48L640.147 865.18C640.147 865.18 701.975 805.299 767.702 805.299C833.429 805.299 893.585 865.18 893.585 865.18L1534.7 1494.48" stroke="black" stroke-width="2"/>
<path d="M0.70166 0.713867L640.147 630.011C640.147 630.011 701.975 689.892 767.702 689.892C833.429 689.892 893.585 630.011 893.585 630.011L1534.7 0.713867" stroke="black" stroke-width="2"/>
<g filter="url(#filter0_f_273_113)">
<rect x="352.702" y="380.714" width="816" height="744" fill="white"/>
<rect x="353.702" y="381.714" width="814" height="742" stroke="black" stroke-width="2"/>
</g>
<defs>
<filter id="filter0_f_273_113" x="152.702" y="180.714" width="1216" height="1144" filterUnits="userSpaceOnUse" color-interpolation-filters="sRGB">
<feFlood flood-opacity="0" result="BackgroundImageFix"/>
<feBlend mode="normal" in="SourceGraphic" in2="BackgroundImageFix" result="shape"/>
<feGaussianBlur stdDeviation="100" result="effect1_foregroundBlur_273_113"/>
</filter>
</defs>
</svg>
