<svg width="264" height="264" viewBox="0 0 264 264" fill="none" xmlns="http://www.w3.org/2000/svg">
<rect width="264" height="264" fill="white"/>
<mask id="mask0_318_326" style="mask-type:luminance" maskUnits="userSpaceOnUse" x="60" y="85" width="144" height="94">
<path d="M204 85.3807H60V178.914H204V85.3807Z" fill="white"/>
</mask>
<g mask="url(#mask0_318_326)">
<mask id="mask1_318_326" style="mask-type:luminance" maskUnits="userSpaceOnUse" x="60" y="85" width="144" height="94">
<path d="M204 85.3807H60V178.914H204V85.3807Z" fill="white"/>
</mask>
<g mask="url(#mask1_318_326)">
<path d="M78.7021 122.143C80.6107 122.143 82.1582 120.59 82.1582 118.674C82.1582 116.758 80.6107 115.205 78.7021 115.205C76.7935 115.205 75.2461 116.758 75.2461 118.674C75.2461 120.59 76.7935 122.143 78.7021 122.143Z" fill="#C1CD23"/>
<path d="M92.9884 112.372C94.2304 112.372 95.4445 112.742 96.4772 113.435C97.51 114.127 98.3147 115.112 98.7899 116.263C99.2652 117.415 99.3895 118.683 99.1472 119.905C98.9051 121.128 98.307 122.252 97.4287 123.133C96.5505 124.015 95.4316 124.615 94.2135 124.858C92.9954 125.101 91.7329 124.977 90.5854 124.5C89.438 124.022 88.4573 123.214 87.7672 122.178C87.0772 121.141 86.709 119.923 86.709 118.676C86.709 117.004 87.3705 115.401 88.5481 114.218C89.7257 113.036 91.323 112.372 92.9884 112.372Z" fill="#F16119"/>
<path d="M107.276 122.143C109.185 122.143 110.732 120.59 110.732 118.674C110.732 116.758 109.185 115.205 107.276 115.205C105.368 115.205 103.82 116.758 103.82 118.674C103.82 120.59 105.368 122.143 107.276 122.143Z" fill="#C1CD23"/>
<path d="M92.9892 136.479C94.898 136.479 96.4452 134.926 96.4452 133.01C96.4452 131.094 94.898 129.541 92.9892 129.541C91.0804 129.541 89.5332 131.094 89.5332 133.01C89.5332 134.926 91.0804 136.479 92.9892 136.479Z" fill="#C1CD23"/>
<path d="M89.5332 104.332C89.5332 105.018 89.7359 105.689 90.1156 106.26C90.4953 106.83 91.0351 107.275 91.6666 107.537C92.2981 107.8 92.993 107.869 93.6635 107.735C94.3339 107.601 94.9497 107.27 95.433 106.785C95.9163 106.3 96.2456 105.682 96.3788 105.009C96.5122 104.336 96.4438 103.638 96.1822 103.004C95.9205 102.371 95.4776 101.829 94.9093 101.448C94.3408 101.066 93.6727 100.863 92.9892 100.863C92.0726 100.863 91.1937 101.228 90.5455 101.879C89.8973 102.53 89.5332 103.412 89.5332 104.332Z" fill="#C1CD23"/>
<path d="M80.4469 110.989C80.9304 111.474 81.5462 111.804 82.2164 111.937C82.8868 112.071 83.5815 112.002 84.2127 111.739C84.8441 111.476 85.3836 111.032 85.763 110.461C86.1426 109.891 86.3452 109.22 86.3452 108.534C86.3452 107.848 86.1426 107.178 85.763 106.607C85.3836 106.037 84.8441 105.592 84.2127 105.329C83.5815 105.067 82.8868 104.998 82.2164 105.131C81.5462 105.265 80.9304 105.595 80.4469 106.08C79.7993 106.731 79.4355 107.614 79.4355 108.534C79.4355 109.455 79.7993 110.337 80.4469 110.989Z" fill="#C1CD23"/>
<path d="M105.531 110.989C105.048 111.474 104.432 111.804 103.762 111.937C103.091 112.071 102.397 112.002 101.765 111.739C101.134 111.476 100.595 111.032 100.215 110.461C99.8355 109.891 99.6328 109.22 99.6328 108.534C99.6328 107.848 99.8355 107.178 100.215 106.607C100.595 106.037 101.134 105.592 101.765 105.329C102.397 105.067 103.091 104.998 103.762 105.131C104.432 105.265 105.048 105.595 105.531 106.08C106.179 106.731 106.543 107.614 106.543 108.534C106.543 109.455 106.179 110.337 105.531 110.989Z" fill="#C1CD23"/>
<path d="M85.332 131.262C85.8156 130.778 86.1451 130.159 86.2789 129.486C86.4126 128.813 86.3444 128.115 86.0829 127.481C85.8215 126.847 85.3786 126.305 84.8101 125.924C84.2417 125.542 83.5734 125.339 82.8896 125.339C82.206 125.339 81.5376 125.542 80.9691 125.924C80.4007 126.305 79.9578 126.847 79.6963 127.481C79.4347 128.115 79.3667 128.813 79.5003 129.486C79.634 130.159 79.9635 130.778 80.4472 131.262C80.7678 131.585 81.1483 131.841 81.5676 132.015C81.9866 132.19 82.4359 132.28 82.8896 132.28C83.3433 132.28 83.7926 132.19 84.2118 132.015C84.6308 131.841 85.0115 131.585 85.332 131.262Z" fill="#C1CD23"/>
<path d="M62.6417 115.783C63.2113 115.783 63.7682 115.953 64.2418 116.27C64.7154 116.588 65.0845 117.039 65.3025 117.568C65.5205 118.096 65.5775 118.677 65.4664 119.238C65.3553 119.799 65.081 120.314 64.6782 120.718C64.2754 121.123 63.7623 121.398 63.2036 121.51C62.6449 121.621 62.0658 121.564 61.5396 121.345C61.0133 121.126 60.5635 120.756 60.2471 120.28C59.9306 119.805 59.7617 119.246 59.7617 118.674C59.761 118.294 59.835 117.918 59.9794 117.567C60.1239 117.216 60.336 116.897 60.6036 116.628C60.8712 116.36 61.189 116.147 61.5387 116.002C61.8885 115.857 62.2633 115.782 62.6417 115.783Z" fill="#006990"/>
<path d="M123.341 115.783C122.771 115.782 122.213 115.95 121.739 116.268C121.265 116.584 120.895 117.036 120.676 117.564C120.457 118.092 120.399 118.673 120.51 119.235C120.62 119.796 120.894 120.311 121.297 120.716C121.699 121.121 122.212 121.397 122.771 121.509C123.33 121.621 123.909 121.564 124.436 121.346C124.962 121.127 125.413 120.756 125.729 120.281C126.046 119.805 126.215 119.246 126.215 118.674C126.215 117.908 125.912 117.174 125.374 116.632C124.835 116.09 124.104 115.784 123.341 115.783Z" fill="#006990"/>
<path d="M90.1094 149.136C90.1094 148.565 90.2784 148.006 90.5948 147.53C90.9112 147.055 91.3611 146.684 91.8873 146.466C92.4135 146.247 92.9926 146.19 93.5513 146.301C94.1099 146.413 94.623 146.688 95.0259 147.092C95.4286 147.497 95.703 148.012 95.814 148.572C95.9252 149.133 95.8683 149.715 95.6502 150.243C95.4322 150.771 95.063 151.223 94.5895 151.54C94.1158 151.858 93.5591 152.028 92.9894 152.028C92.2256 152.028 91.493 151.723 90.9528 151.181C90.4128 150.639 90.1094 149.903 90.1094 149.136Z" fill="#006990"/>
<path d="M90.1094 88.2169C90.1083 88.7889 90.2762 89.3484 90.592 89.8246C90.9078 90.3008 91.3571 90.6722 91.8834 90.8919C92.4096 91.1116 92.9888 91.1696 93.5478 91.0587C94.1068 90.9478 94.6205 90.6729 95.0238 90.2688C95.4272 89.8647 95.702 89.3496 95.8136 88.7887C95.9252 88.2277 95.8685 87.6461 95.6507 87.1175C95.4329 86.5889 95.0637 86.1371 94.59 85.8192C94.1164 85.5012 93.5592 85.3315 92.9894 85.3315C92.2266 85.3315 91.4949 85.6354 90.9549 86.1763C90.415 86.7172 90.1108 87.4511 90.1094 88.2169Z" fill="#006990"/>
<path d="M69.4913 99.1723C69.894 99.5769 70.4071 99.8525 70.9658 99.9642C71.5246 100.076 72.1037 100.019 72.6301 99.8C73.1565 99.5812 73.6064 99.2107 73.9229 98.7352C74.2395 98.2598 74.4084 97.7007 74.4084 97.1288C74.4084 96.5569 74.2395 95.9979 73.9229 95.5224C73.6064 95.047 73.1565 94.6764 72.6301 94.4577C72.1037 94.2389 71.5246 94.1818 70.9658 94.2935C70.4071 94.4052 69.894 94.6807 69.4913 95.0853C68.9516 95.6274 68.6484 96.3624 68.6484 97.1288C68.6484 97.8952 68.9516 98.6303 69.4913 99.1723Z" fill="#006990"/>
<path d="M116.47 99.1723C116.067 99.5769 115.554 99.8525 114.995 99.9642C114.437 100.076 113.857 100.019 113.331 99.8C112.805 99.5812 112.355 99.2107 112.038 98.7352C111.722 98.2598 111.553 97.7007 111.553 97.1288C111.553 96.5569 111.722 95.9979 112.038 95.5224C112.355 95.047 112.805 94.6764 113.331 94.4577C113.857 94.2389 114.437 94.1818 114.995 94.2935C115.554 94.4052 116.067 94.6807 116.47 95.0853C117.01 95.6274 117.313 96.3624 117.313 97.1288C117.313 97.8952 117.01 98.6303 116.47 99.1723Z" fill="#006990"/>
<path d="M73.5525 142.264C73.9554 141.86 74.23 141.345 74.3412 140.784C74.4526 140.223 74.3956 139.642 74.1776 139.114C73.9597 138.585 73.5906 138.133 73.117 137.816C72.6433 137.498 72.0864 137.328 71.5167 137.328C70.947 137.328 70.3901 137.498 69.9165 137.816C69.4428 138.133 69.0737 138.585 68.8558 139.114C68.6378 139.642 68.5809 140.223 68.6922 140.784C68.8035 141.345 69.078 141.86 69.481 142.264C70.021 142.806 70.7532 143.11 71.5167 143.11C72.2802 143.11 73.0125 142.806 73.5525 142.264Z" fill="#006990"/>
<path d="M107.266 91.6193C107.048 92.1478 106.679 92.5996 106.206 92.9176C105.732 93.2356 105.175 93.4054 104.606 93.4056C104.036 93.4059 103.479 93.2365 103.005 92.9189C102.532 92.6013 102.162 92.1498 101.944 91.6214C101.726 91.0931 101.669 90.5117 101.78 89.9508C101.891 89.3899 102.165 88.8746 102.568 88.4703C102.971 88.0659 103.484 87.7905 104.043 87.6791C104.602 87.5676 105.181 87.625 105.707 87.844C106.413 88.1374 106.973 88.6999 107.265 89.4078C107.557 90.1157 107.558 90.9112 107.266 91.6193Z" fill="#006990"/>
<path d="M84.0327 147.924C84.2509 147.396 84.3081 146.815 84.1971 146.254C84.086 145.693 83.8117 145.177 83.4089 144.773C83.0061 144.369 82.4929 144.093 81.9339 143.982C81.3753 143.87 80.796 143.927 80.2697 144.146C79.7433 144.365 79.2936 144.736 78.9772 145.212C78.6608 145.687 78.492 146.246 78.4922 146.818C78.4925 147.39 78.6616 147.949 78.9784 148.424C79.2952 148.9 79.7453 149.27 80.2718 149.489C80.621 149.634 80.9954 149.71 81.3737 149.71C81.7518 149.71 82.1263 149.635 82.4758 149.49C82.8251 149.345 83.1425 149.132 83.4097 148.863C83.6769 148.594 83.8887 148.275 84.0327 147.924Z" fill="#006990"/>
<path d="M84.0327 89.4202C84.2509 89.9485 84.3081 90.5299 84.1971 91.0908C84.086 91.6518 83.8117 92.167 83.4089 92.5714C83.0061 92.9759 82.4929 93.2513 81.9339 93.3628C81.3753 93.4743 80.796 93.417 80.2697 93.1981C79.7433 92.9791 79.2936 92.6084 78.9772 92.1328C78.6608 91.6572 78.492 91.098 78.4922 90.5262C78.4925 89.9542 78.6616 89.3953 78.9784 88.9199C79.2952 88.4446 79.7453 88.0742 80.2718 87.8556C80.621 87.7099 80.9954 87.6347 81.3737 87.6345C81.7518 87.6343 82.1263 87.709 82.4758 87.8543C82.8251 87.9997 83.1425 88.2128 83.4097 88.4815C83.6769 88.7502 83.8887 89.0692 84.0327 89.4202Z" fill="#006990"/>
<path d="M66.0527 104.342C66.5792 104.561 67.0293 104.931 67.3461 105.406C67.6628 105.882 67.832 106.441 67.8323 107.012C67.8325 107.584 67.6637 108.144 67.3474 108.619C67.031 109.095 66.5812 109.465 66.0549 109.684C65.5285 109.903 64.9494 109.961 64.3906 109.849C63.8318 109.738 63.3185 109.462 62.9157 109.058C62.5129 108.653 62.2386 108.138 62.1275 107.577C62.0165 107.016 62.0736 106.435 62.2918 105.907C62.4359 105.556 62.6477 105.237 62.9148 104.968C63.182 104.699 63.4994 104.486 63.8488 104.341C64.1982 104.195 64.5727 104.121 64.9509 104.121C65.3291 104.121 65.7035 104.196 66.0527 104.342Z" fill="#006990"/>
<path d="M63.8511 127.66C64.3774 127.441 64.9566 127.384 65.5154 127.495C66.0742 127.607 66.5875 127.882 66.9904 128.286C67.3932 128.691 67.6676 129.206 67.7787 129.767C67.8898 130.328 67.8327 130.909 67.6146 131.438C67.3965 131.966 67.0272 132.417 66.5534 132.735C66.0796 133.053 65.5226 133.222 64.9529 133.222C64.3831 133.222 63.8263 133.052 63.3527 132.734C62.8792 132.416 62.5102 131.964 62.2926 131.435C62.1474 131.085 62.0725 130.709 62.0723 130.329C62.0721 129.95 62.1465 129.574 62.2913 129.223C62.4361 128.872 62.6484 128.554 62.916 128.285C63.1837 128.017 63.5015 127.805 63.8511 127.66Z" fill="#006990"/>
<path d="M119.931 104.345C119.404 104.563 118.953 104.933 118.635 105.408C118.317 105.883 118.147 106.442 118.146 107.015C118.146 107.587 118.314 108.146 118.63 108.623C118.946 109.099 119.396 109.47 119.922 109.689C120.449 109.909 121.029 109.966 121.588 109.855C122.147 109.743 122.66 109.468 123.063 109.063C123.466 108.658 123.741 108.143 123.852 107.581C123.962 107.02 123.905 106.438 123.686 105.91C123.542 105.56 123.33 105.241 123.064 104.973C122.797 104.705 122.48 104.492 122.132 104.347C121.783 104.202 121.409 104.127 121.031 104.126C120.654 104.126 120.28 104.201 119.931 104.345Z" fill="#006990"/>
<path d="M70.226 120.568C71.2676 120.568 72.112 119.721 72.112 118.675C72.112 117.629 71.2676 116.782 70.226 116.782C69.1843 116.782 68.3398 117.629 68.3398 118.675C68.3398 119.721 69.1843 120.568 70.226 120.568Z" fill="#94A545"/>
<path d="M115.751 120.568C116.793 120.568 117.637 119.721 117.637 118.675C117.637 117.629 116.793 116.782 115.751 116.782C114.71 116.782 113.865 117.629 113.865 118.675C113.865 119.721 114.71 120.568 115.751 120.568Z" fill="#94A545"/>
<path d="M92.9898 143.418C94.0313 143.418 94.8758 142.57 94.8758 141.525C94.8758 140.479 94.0313 139.631 92.9898 139.631C91.9481 139.631 91.1035 140.479 91.1035 141.525C91.1035 142.57 91.9481 143.418 92.9898 143.418Z" fill="#94A545"/>
<path d="M92.9898 97.7189C94.0313 97.7189 94.8758 96.8712 94.8758 95.8255C94.8758 94.7799 94.0313 93.9322 92.9898 93.9322C91.9481 93.9322 91.1035 94.7799 91.1035 95.8255C91.1035 96.8712 91.9481 97.7189 92.9898 97.7189Z" fill="#94A545"/>
<path d="M75.5616 103.849C75.8251 104.114 76.1613 104.294 76.5272 104.367C76.8932 104.441 77.2727 104.403 77.6174 104.26C77.9622 104.117 78.2569 103.874 78.4642 103.563C78.6717 103.251 78.7823 102.885 78.7823 102.511C78.7823 102.136 78.6717 101.77 78.4642 101.459C78.2569 101.147 77.9622 100.904 77.6174 100.761C77.2727 100.618 76.8932 100.581 76.5272 100.654C76.1613 100.727 75.8251 100.908 75.5616 101.173C75.386 101.348 75.2467 101.557 75.1518 101.786C75.0567 102.016 75.0078 102.262 75.0078 102.511C75.0078 102.759 75.0567 103.005 75.1518 103.235C75.2467 103.465 75.386 103.673 75.5616 103.849Z" fill="#94A545"/>
<path d="M110.416 103.849C110.152 104.114 109.816 104.294 109.45 104.367C109.085 104.441 108.705 104.403 108.36 104.26C108.016 104.117 107.721 103.874 107.513 103.563C107.306 103.251 107.195 102.885 107.195 102.511C107.195 102.136 107.306 101.77 107.513 101.459C107.721 101.147 108.016 100.904 108.36 100.761C108.705 100.618 109.085 100.581 109.45 100.654C109.816 100.727 110.152 100.908 110.416 101.173C110.592 101.348 110.731 101.557 110.826 101.786C110.921 102.016 110.97 102.262 110.97 102.511C110.97 102.759 110.921 103.005 110.826 103.235C110.731 103.465 110.592 103.673 110.416 103.849Z" fill="#94A545"/>
<path d="M78.2286 136.168C78.4927 135.904 78.6725 135.566 78.7456 135.199C78.8186 134.832 78.7814 134.451 78.6386 134.105C78.496 133.758 78.2543 133.463 77.944 133.254C77.6339 133.046 77.269 132.935 76.896 132.935C76.5227 132.935 76.1579 133.046 75.8477 133.254C75.5375 133.463 75.2958 133.758 75.153 134.105C75.0104 134.451 74.9732 134.832 75.0462 135.199C75.1192 135.566 75.2991 135.904 75.5632 136.168C75.9169 136.523 76.3962 136.722 76.896 136.722C77.3956 136.722 77.875 136.523 78.2286 136.168Z" fill="#94A545"/>
<path d="M103.442 98.2831C103.3 98.6293 103.058 98.9255 102.748 99.1339C102.438 99.3423 102.074 99.4538 101.701 99.4542C101.328 99.4547 100.963 99.344 100.652 99.1363C100.342 98.9284 100.1 98.6328 99.9566 98.2869C99.8136 97.9409 99.776 97.5602 99.8485 97.1928C99.9211 96.8254 100.101 96.4878 100.364 96.2228C100.628 95.9578 100.964 95.7773 101.33 95.7041C101.696 95.6309 102.075 95.6683 102.42 95.8116C102.881 96.0047 103.247 96.3729 103.438 96.8359C103.63 97.2989 103.631 97.8191 103.442 98.2831Z" fill="#94A545"/>
<path d="M86.0214 140.513C86.165 140.167 86.2033 139.786 86.1313 139.418C86.0593 139.051 85.8802 138.713 85.6168 138.447C85.3532 138.182 85.0173 138.001 84.6513 137.927C84.2854 137.854 83.9058 137.891 83.5609 138.034C83.2159 138.177 82.9208 138.419 82.7131 138.731C82.5055 139.042 82.3947 139.408 82.3945 139.783C82.3944 140.158 82.5048 140.524 82.7122 140.835C82.9196 141.147 83.2144 141.39 83.5593 141.533C84.0206 141.725 84.5387 141.725 85.0004 141.534C85.4619 141.343 85.829 140.975 86.0214 140.513Z" fill="#94A545"/>
<path d="M86.0196 96.8405C86.1622 97.1866 86.1995 97.5674 86.1265 97.9347C86.0537 98.3021 85.8737 98.6395 85.6099 98.9042C85.3458 99.1688 85.0096 99.349 84.6436 99.4218C84.2774 99.4946 83.8983 99.4569 83.5537 99.3133C83.209 99.1696 82.9145 98.9267 82.7076 98.615C82.5005 98.3035 82.3902 97.9372 82.3906 97.5626C82.391 97.1881 82.5021 96.822 82.7098 96.5109C82.9176 96.1997 83.2125 95.9573 83.5574 95.8144C84.0196 95.6246 84.5378 95.626 84.9991 95.8182C85.4603 96.0104 85.8271 96.3779 86.0196 96.8405Z" fill="#94A545"/>
<path d="M72.6817 108.179C73.0266 108.323 73.3214 108.566 73.5287 108.877C73.736 109.189 73.8467 109.555 73.8464 109.93C73.8463 110.304 73.7353 110.671 73.5277 110.982C73.3201 111.293 73.0252 111.536 72.68 111.679C72.335 111.822 71.9556 111.859 71.5896 111.785C71.2236 111.711 70.8876 111.531 70.6242 111.265C70.3607 111 70.1817 110.662 70.1097 110.294C70.0376 109.926 70.0759 109.546 70.2196 109.2C70.3142 108.97 70.453 108.762 70.6281 108.586C70.8031 108.41 71.011 108.271 71.2397 108.177C71.4684 108.082 71.7135 108.033 71.961 108.034C72.2084 108.034 72.4534 108.084 72.6817 108.179Z" fill="#94A545"/>
<path d="M71.2359 125.67C71.5803 125.526 71.9597 125.488 72.3259 125.56C72.6922 125.632 73.0289 125.812 73.2932 126.076C73.5577 126.341 73.7381 126.678 73.8114 127.045C73.8847 127.413 73.8479 127.794 73.7054 128.14C73.563 128.486 73.3214 128.783 73.0112 128.991C72.701 129.199 72.3362 129.311 71.963 129.311C71.5897 129.311 71.2248 129.2 70.9144 128.992C70.604 128.784 70.3622 128.488 70.2194 128.142C70.124 127.913 70.0747 127.667 70.0742 127.418C70.0737 127.17 70.1221 126.924 70.2165 126.694C70.311 126.465 70.4496 126.256 70.6245 126.08C70.7994 125.904 71.0072 125.765 71.2359 125.67Z" fill="#94A545"/>
<path d="M113.301 108.183C112.958 108.327 112.665 108.569 112.459 108.88C112.253 109.191 112.144 109.556 112.145 109.929C112.145 110.302 112.256 110.666 112.463 110.976C112.67 111.286 112.964 111.528 113.307 111.67C113.651 111.812 114.029 111.849 114.393 111.776C114.758 111.703 115.092 111.523 115.355 111.259C115.618 110.995 115.797 110.659 115.869 110.293C115.942 109.928 115.905 109.548 115.763 109.204C115.57 108.741 115.203 108.374 114.742 108.182C114.28 107.991 113.762 107.991 113.301 108.183Z" fill="#94A545"/>
<path d="M103.583 129.762C103.545 129.703 103.524 129.634 103.523 129.563C103.523 129.493 103.543 129.423 103.58 129.364C103.618 129.304 103.671 129.256 103.735 129.226C103.799 129.196 103.869 129.185 103.939 129.195H106.079C106.154 129.195 106.227 129.217 106.29 129.257C106.353 129.297 106.403 129.354 106.435 129.422L110.456 138.491H110.603L114.623 129.422C114.654 129.353 114.704 129.294 114.767 129.254C114.83 129.214 114.904 129.193 114.979 129.195H117.114C117.183 129.185 117.254 129.196 117.318 129.226C117.382 129.256 117.435 129.304 117.473 129.364C117.51 129.423 117.53 129.493 117.529 129.563C117.529 129.634 117.508 129.703 117.47 129.762L110.981 143.933C110.95 144.003 110.899 144.063 110.835 144.104C110.771 144.145 110.696 144.167 110.62 144.166H110.411C110.335 144.167 110.261 144.146 110.197 144.104C110.134 144.063 110.084 144.003 110.055 143.933L103.583 129.762Z" fill="#685040"/>
<path d="M121.992 129.599C121.995 129.494 122.038 129.394 122.113 129.32C122.188 129.246 122.288 129.204 122.393 129.203H124.336C124.44 129.205 124.54 129.248 124.614 129.321C124.689 129.395 124.732 129.495 124.737 129.599V143.516C124.732 143.621 124.689 143.72 124.614 143.794C124.54 143.867 124.44 143.91 124.336 143.913H122.393C122.288 143.911 122.188 143.869 122.113 143.795C122.038 143.721 121.995 143.621 121.992 143.516V129.599Z" fill="#685040"/>
<path d="M130.023 129.599C130.023 129.547 130.033 129.495 130.053 129.446C130.074 129.398 130.103 129.354 130.14 129.317C130.178 129.28 130.222 129.251 130.271 129.231C130.319 129.211 130.371 129.202 130.424 129.202H135.218C137.708 129.202 139.634 130.903 139.634 133.091C139.634 134.707 138.318 135.971 137.336 136.43C138.465 136.787 140.058 137.927 140.058 139.831C140.058 142.184 138.047 143.884 135.489 143.884H130.407C130.354 143.885 130.302 143.875 130.254 143.856C130.205 143.836 130.161 143.807 130.124 143.77C130.086 143.733 130.057 143.689 130.036 143.641C130.016 143.592 130.006 143.54 130.006 143.488L130.023 129.599ZM134.964 135.381C135.208 135.383 135.45 135.335 135.675 135.239C135.9 135.144 136.104 135.003 136.272 134.826C136.441 134.648 136.572 134.438 136.657 134.208C136.741 133.978 136.778 133.733 136.765 133.488C136.778 133.248 136.74 133.008 136.653 132.785C136.567 132.561 136.434 132.358 136.264 132.189C136.094 132.021 135.89 131.89 135.666 131.806C135.442 131.722 135.203 131.687 134.964 131.702H132.705V135.381H134.964ZM135.258 141.436C135.508 141.438 135.756 141.39 135.987 141.294C136.219 141.198 136.429 141.057 136.605 140.878C136.78 140.699 136.919 140.487 137.011 140.254C137.104 140.02 137.149 139.771 137.144 139.519C137.144 138.471 136.099 137.694 135.009 137.694H132.75V141.436H135.258Z" fill="#685040"/>
<path d="M144.293 129.6C144.293 129.547 144.303 129.495 144.324 129.446C144.344 129.398 144.373 129.354 144.411 129.317C144.448 129.28 144.492 129.251 144.541 129.231C144.59 129.212 144.642 129.202 144.694 129.203H150.68C151.277 129.196 151.87 129.308 152.424 129.533C152.978 129.758 153.482 130.091 153.907 130.513C154.332 130.935 154.669 131.437 154.9 131.99C155.13 132.544 155.248 133.138 155.248 133.738C155.221 134.678 154.91 135.587 154.357 136.345C153.803 137.103 153.033 137.675 152.148 137.984L155.017 143.323C155.055 143.385 155.076 143.456 155.077 143.529C155.078 143.601 155.059 143.673 155.022 143.735C154.985 143.798 154.932 143.849 154.869 143.883C154.805 143.918 154.733 143.934 154.661 143.93H152.464C152.396 143.934 152.328 143.919 152.268 143.886C152.208 143.853 152.158 143.803 152.125 143.743L149.341 138.171H147.015V143.533C147.012 143.637 146.969 143.737 146.896 143.811C146.822 143.884 146.723 143.927 146.62 143.93H144.705C144.653 143.931 144.601 143.921 144.552 143.902C144.504 143.882 144.459 143.853 144.422 143.816C144.385 143.779 144.355 143.735 144.335 143.686C144.315 143.638 144.304 143.586 144.304 143.533L144.293 129.6ZM150.454 135.909C151.01 135.892 151.538 135.659 151.925 135.258C152.312 134.856 152.528 134.319 152.526 133.76C152.512 133.218 152.287 132.702 151.9 132.322C151.514 131.942 150.995 131.728 150.454 131.725H147.037V135.909H150.454Z" fill="#685040"/>
<path d="M158.851 143.383L165.362 129.212C165.391 129.142 165.441 129.082 165.504 129.041C165.568 128.999 165.642 128.978 165.718 128.979H165.927C166.003 128.975 166.079 128.995 166.143 129.037C166.207 129.078 166.256 129.14 166.282 129.212L172.731 143.383C172.77 143.442 172.79 143.511 172.791 143.582C172.792 143.653 172.772 143.722 172.735 143.782C172.697 143.841 172.643 143.889 172.58 143.919C172.516 143.949 172.445 143.96 172.376 143.95H170.557C170.424 143.958 170.291 143.921 170.181 143.845C170.07 143.769 169.988 143.659 169.947 143.531L168.92 141.263H162.657L161.635 143.531C161.59 143.656 161.507 143.764 161.397 143.839C161.288 143.915 161.158 143.953 161.025 143.95H159.207C159.137 143.96 159.066 143.949 159.002 143.919C158.939 143.889 158.885 143.841 158.847 143.782C158.81 143.722 158.79 143.653 158.791 143.582C158.792 143.511 158.812 143.442 158.851 143.383ZM167.886 138.905L165.791 134.28H165.729L163.673 138.905H167.886Z" fill="#685040"/>
<path d="M177.045 129.385C177.058 129.285 177.107 129.194 177.183 129.129C177.259 129.064 177.357 129.03 177.457 129.034H177.977L186.69 138.33V129.6C186.69 129.495 186.732 129.394 186.806 129.32C186.879 129.245 186.98 129.204 187.086 129.204H189.011C189.115 129.206 189.215 129.249 189.289 129.322C189.363 129.396 189.408 129.496 189.411 129.6V143.772C189.407 143.875 189.361 143.972 189.287 144.042C189.212 144.113 189.114 144.152 189.011 144.152H188.509L179.755 134.515V143.585C179.755 143.638 179.745 143.69 179.725 143.738C179.705 143.787 179.675 143.831 179.638 143.868C179.6 143.905 179.556 143.934 179.508 143.953C179.459 143.973 179.407 143.983 179.355 143.982H177.457C177.353 143.979 177.253 143.936 177.179 143.863C177.104 143.789 177.06 143.69 177.056 143.585L177.045 129.385Z" fill="#685040"/>
<path d="M197.526 131.741H194.319C194.214 131.739 194.114 131.696 194.039 131.621C193.966 131.545 193.924 131.444 193.924 131.338V129.638C193.924 129.532 193.966 129.431 194.039 129.357C194.114 129.283 194.214 129.241 194.319 129.241H203.474C203.524 129.24 203.578 129.25 203.626 129.269C203.675 129.289 203.72 129.318 203.757 129.355C203.794 129.392 203.822 129.436 203.843 129.484C203.864 129.533 203.874 129.585 203.874 129.638V131.338C203.874 131.445 203.832 131.547 203.757 131.623C203.681 131.698 203.579 131.741 203.474 131.741H200.271V143.531C200.267 143.636 200.222 143.736 200.148 143.809C200.074 143.883 199.975 143.925 199.87 143.928H197.922C197.818 143.925 197.72 143.883 197.645 143.809C197.572 143.735 197.53 143.636 197.526 143.531V131.741Z" fill="#685040"/>
<path d="M103.583 150.783C103.545 150.724 103.524 150.655 103.523 150.584C103.523 150.514 103.543 150.445 103.58 150.385C103.618 150.325 103.671 150.278 103.735 150.248C103.799 150.218 103.869 150.207 103.939 150.216H106.079C106.155 150.216 106.228 150.238 106.292 150.279C106.355 150.321 106.405 150.38 106.435 150.449L110.456 159.484H110.603L114.623 150.449C114.652 150.378 114.701 150.318 114.765 150.277C114.829 150.235 114.903 150.214 114.979 150.216H117.114C117.183 150.207 117.254 150.218 117.318 150.248C117.382 150.278 117.435 150.325 117.473 150.385C117.51 150.445 117.53 150.514 117.529 150.584C117.529 150.655 117.508 150.724 117.47 150.783L110.981 164.955C110.95 165.025 110.899 165.084 110.835 165.125C110.771 165.167 110.696 165.188 110.62 165.187H110.411C110.335 165.188 110.261 165.167 110.197 165.126C110.134 165.084 110.084 165.025 110.055 164.955L103.583 150.783Z" fill="#685040"/>
<path d="M123.246 150.637C123.249 150.533 123.291 150.433 123.365 150.36C123.438 150.286 123.537 150.243 123.641 150.24H125.59C125.693 150.243 125.792 150.286 125.866 150.36C125.939 150.433 125.982 150.533 125.985 150.637V164.554C125.982 164.659 125.94 164.758 125.866 164.833C125.793 164.908 125.694 164.952 125.59 164.956H123.641C123.537 164.952 123.438 164.908 123.365 164.833C123.291 164.758 123.249 164.659 123.246 164.554V150.637Z" fill="#685040"/>
<path d="M132.523 150.637C132.523 150.585 132.534 150.533 132.554 150.484C132.574 150.435 132.604 150.391 132.641 150.355C132.678 150.318 132.723 150.288 132.771 150.269C132.82 150.249 132.872 150.24 132.924 150.24H134.85C134.954 150.243 135.053 150.286 135.126 150.36C135.2 150.433 135.243 150.533 135.245 150.637V162.434H140.587C140.64 162.433 140.692 162.443 140.74 162.462C140.789 162.482 140.833 162.511 140.871 162.548C140.908 162.585 140.938 162.629 140.958 162.677C140.978 162.726 140.988 162.778 140.988 162.83V164.531C140.988 164.638 140.946 164.74 140.871 164.816C140.796 164.891 140.694 164.933 140.587 164.933H132.924C132.818 164.933 132.716 164.891 132.641 164.816C132.566 164.74 132.523 164.638 132.523 164.531V150.637Z" fill="#685040"/>
<path d="M145.908 150.637C145.908 150.532 145.95 150.431 146.024 150.356C146.098 150.282 146.199 150.24 146.304 150.24H148.229C148.334 150.242 148.434 150.284 148.509 150.358C148.584 150.432 148.627 150.532 148.63 150.637V162.433H153.972C154.077 162.433 154.178 162.475 154.252 162.55C154.326 162.624 154.368 162.725 154.368 162.83V164.531C154.368 164.637 154.326 164.738 154.252 164.814C154.178 164.889 154.078 164.932 153.972 164.933H146.304C146.198 164.932 146.098 164.889 146.024 164.814C145.95 164.738 145.908 164.637 145.908 164.531V150.637Z" fill="#685040"/>
<path d="M158.72 164.405L165.237 150.233C165.266 150.162 165.317 150.103 165.382 150.062C165.446 150.021 165.522 150.002 165.598 150.007H165.807C165.884 150.001 165.96 150.02 166.024 150.062C166.089 150.104 166.137 150.166 166.163 150.239L172.612 164.411C172.648 164.47 172.667 164.538 172.666 164.608C172.666 164.678 172.646 164.746 172.609 164.805C172.572 164.864 172.52 164.911 172.457 164.942C172.395 164.972 172.325 164.985 172.256 164.977H170.432C170.299 164.985 170.168 164.948 170.059 164.872C169.949 164.796 169.868 164.685 169.828 164.558L168.8 162.291H162.532L161.51 164.558C161.464 164.683 161.381 164.79 161.272 164.866C161.162 164.941 161.033 164.98 160.9 164.977H159.076C159.006 164.985 158.936 164.973 158.872 164.942C158.809 164.912 158.756 164.864 158.719 164.804C158.681 164.744 158.662 164.675 158.662 164.604C158.662 164.534 158.683 164.464 158.72 164.405ZM167.756 159.927L165.666 155.307H165.598L163.548 159.927H167.756Z" fill="#685040"/>
<path d="M183.454 150.006C185.336 150.026 187.148 150.72 188.565 151.961C188.638 152.037 188.679 152.139 188.679 152.245C188.679 152.351 188.638 152.452 188.565 152.528L187.272 153.894C187.237 153.936 187.195 153.969 187.146 153.992C187.096 154.015 187.044 154.027 186.99 154.027C186.936 154.027 186.883 154.015 186.834 153.992C186.784 153.969 186.741 153.936 186.708 153.894C185.839 153.109 184.713 152.673 183.544 152.67C182.264 152.67 181.036 153.181 180.13 154.089C179.225 154.998 178.717 156.231 178.717 157.517C178.717 158.802 179.225 160.035 180.13 160.944C181.036 161.853 182.264 162.363 183.544 162.363C184.401 162.354 185.248 162.175 186.036 161.836V160.096H184.341C184.29 160.097 184.239 160.089 184.192 160.07C184.144 160.052 184.101 160.024 184.064 159.989C184.027 159.954 183.998 159.911 183.978 159.864C183.957 159.818 183.946 159.767 183.945 159.716V158.055C183.944 158.002 183.954 157.95 183.973 157.901C183.992 157.853 184.021 157.808 184.058 157.771C184.095 157.734 184.14 157.705 184.188 157.685C184.237 157.666 184.288 157.657 184.341 157.658H188.367C188.469 157.663 188.564 157.707 188.634 157.781C188.703 157.855 188.742 157.953 188.74 158.055V163.44C188.74 163.505 188.726 163.569 188.697 163.627C188.67 163.685 188.628 163.736 188.576 163.775C186.991 164.671 185.2 165.141 183.381 165.141C181.384 165.141 179.47 164.345 178.058 162.928C176.646 161.511 175.854 159.589 175.854 157.585C175.854 155.581 176.646 153.658 178.058 152.241C179.47 150.824 181.384 150.028 183.381 150.028L183.454 150.006Z" fill="#685040"/>
<path d="M194.535 150.637C194.535 150.532 194.577 150.431 194.651 150.357C194.726 150.282 194.826 150.24 194.931 150.24H203.436C203.488 150.24 203.539 150.249 203.588 150.269C203.637 150.288 203.682 150.318 203.718 150.355C203.756 150.391 203.785 150.435 203.805 150.484C203.826 150.533 203.836 150.585 203.836 150.637V152.338C203.836 152.444 203.794 152.547 203.718 152.622C203.643 152.698 203.541 152.74 203.436 152.74H197.223V156.187H202.396C202.501 156.19 202.6 156.233 202.675 156.308C202.748 156.383 202.79 156.484 202.791 156.589V158.329C202.793 158.382 202.783 158.434 202.763 158.483C202.742 158.532 202.714 158.576 202.678 158.614C202.642 158.651 202.597 158.681 202.548 158.701C202.501 158.722 202.449 158.732 202.396 158.732H197.223V162.411H203.436C203.488 162.41 203.539 162.42 203.588 162.44C203.637 162.459 203.682 162.488 203.718 162.525C203.756 162.562 203.785 162.606 203.805 162.655C203.826 162.703 203.836 162.755 203.836 162.808V164.508C203.836 164.615 203.794 164.717 203.718 164.793C203.643 164.868 203.541 164.911 203.436 164.911H194.931C194.878 164.911 194.827 164.9 194.779 164.88C194.729 164.86 194.686 164.83 194.649 164.793C194.612 164.755 194.583 164.711 194.564 164.662C194.545 164.613 194.535 164.561 194.535 164.508V150.637Z" fill="#685040"/>
<path d="M105.83 171.601C106.333 171.601 107.095 171.635 107.694 171.635H110.517C111.291 171.635 111.805 171.601 112.036 171.578C112.056 171.589 112.072 171.604 112.084 171.623C112.096 171.642 112.103 171.664 112.104 171.686C111.988 172.316 111.92 172.955 111.901 173.596C111.814 173.64 111.719 173.666 111.622 173.671C111.525 173.677 111.427 173.663 111.336 173.63C111.294 173.323 111.222 173.022 111.121 172.729C111.089 172.623 111.021 172.532 110.93 172.471C110.838 172.41 110.728 172.383 110.619 172.394C109.981 172.349 109.342 172.349 108.704 172.394C108.637 172.394 108.575 172.536 108.575 172.621C108.575 173.33 108.575 174.112 108.575 174.985C108.574 175.006 108.582 175.026 108.595 175.041C108.609 175.057 108.627 175.067 108.648 175.07C109.111 175.07 110.06 175.07 110.427 175.07C110.658 175.07 110.726 174.94 110.811 174.684C110.863 174.515 110.906 174.343 110.941 174.169C111.158 174.133 111.381 174.15 111.59 174.22C111.541 174.637 111.516 175.058 111.517 175.478C111.517 176.045 111.517 176.391 111.517 176.799C111.318 176.874 111.102 176.887 110.896 176.839C110.855 176.647 110.804 176.458 110.743 176.272C110.658 175.994 110.551 175.949 110.382 175.937C110.048 175.909 108.925 175.909 108.608 175.909C108.575 175.909 108.552 175.949 108.552 175.983C108.552 176.725 108.552 177.439 108.552 177.848C108.552 178.074 108.625 178.278 108.885 178.335C109.205 178.41 109.529 178.464 109.856 178.494C109.886 178.676 109.864 178.862 109.794 179.032C109.196 179.032 108.529 178.998 107.727 178.998C106.926 178.998 106.479 179.032 105.847 179.032C105.811 178.949 105.792 178.86 105.792 178.769C105.792 178.678 105.811 178.588 105.847 178.505C106.063 178.487 106.278 178.455 106.491 178.409C106.83 178.335 106.886 178.193 106.897 177.842C106.909 177.491 106.926 176.283 106.926 175.319C106.926 173.902 106.926 173.29 106.897 172.848C106.869 172.406 106.79 172.389 106.576 172.332C106.361 172.275 106.073 172.236 105.807 172.196C105.745 172.001 105.753 171.79 105.83 171.601Z" fill="#685040"/>
<path d="M115.962 178.1C115.264 177.326 114.895 176.309 114.934 175.265C114.918 174.727 115.024 174.192 115.244 173.701C115.464 173.21 115.793 172.776 116.205 172.431C117.004 171.757 118.019 171.395 119.063 171.411C119.564 171.378 120.068 171.453 120.539 171.629C121.01 171.804 121.44 172.078 121.799 172.431C122.158 172.785 122.439 173.211 122.623 173.68C122.808 174.15 122.891 174.653 122.869 175.158C122.901 176.043 122.641 176.914 122.129 177.635C121.744 178.122 121.252 178.514 120.692 178.78C120.132 179.047 119.518 179.18 118.899 179.171C118.362 179.207 117.824 179.131 117.318 178.946C116.812 178.762 116.351 178.474 115.962 178.1ZM120.237 178.14C120.836 177.624 121.028 176.66 121.028 175.606C121.028 174.319 120.666 173.117 119.898 172.505C119.558 172.226 119.129 172.077 118.69 172.085C118.374 172.076 118.062 172.159 117.792 172.324C117.058 172.794 116.798 173.814 116.798 174.954C116.798 176.093 117.154 177.391 118.029 178.066C118.382 178.346 118.822 178.495 119.272 178.485C119.624 178.49 119.967 178.367 120.237 178.14Z" fill="#685040"/>
<path d="M125.368 171.612C125.871 171.612 126.684 171.612 127.271 171.612C127.859 171.612 128.587 171.578 129.141 171.578C129.201 171.762 129.201 171.961 129.141 172.145C128.898 172.185 128.661 172.241 128.514 172.27C128.192 172.349 128.119 172.553 128.119 172.927C128.119 173.948 128.119 174.668 128.119 175.319C128.119 175.62 128.147 176.351 128.192 176.737C128.288 177.553 128.887 178.177 130.157 178.177C130.97 178.177 131.925 177.984 132.032 176.181C132.089 175.133 132.089 174.083 132.032 173.035C132.032 172.627 131.953 172.378 131.529 172.292C131.262 172.224 130.99 172.175 130.716 172.145C130.668 171.959 130.668 171.764 130.716 171.578C131.196 171.578 131.772 171.612 132.382 171.612C133.325 171.612 133.709 171.578 133.952 171.578C134.018 171.761 134.018 171.962 133.952 172.145C133.76 172.196 133.568 172.207 133.387 172.27C133.088 172.338 132.981 172.553 132.958 173.131C132.907 174.055 132.896 175.399 132.789 176.255C132.597 178.522 131.258 179.174 129.57 179.174C127.379 179.174 126.65 178.091 126.532 176.878C126.458 176.017 126.458 173.539 126.447 172.91C126.453 172.787 126.419 172.664 126.35 172.562C126.281 172.46 126.18 172.383 126.063 172.343C125.833 172.273 125.596 172.224 125.357 172.196C125.294 172.006 125.298 171.8 125.368 171.612Z" fill="#685040"/>
<path d="M136.489 171.605C136.884 171.605 137.398 171.639 138.279 171.639C138.617 171.639 139.013 171.639 139.205 171.639C139.323 171.894 139.479 172.129 139.668 172.337C140.712 173.657 142.491 175.88 143.214 176.696C143.232 176.702 143.252 176.702 143.271 176.696C143.271 175.12 143.271 173.935 143.214 173.006C143.186 172.614 143.079 172.439 142.683 172.325C142.415 172.266 142.143 172.22 141.87 172.189C141.822 172.003 141.822 171.808 141.87 171.622C142.147 171.622 142.7 171.656 143.609 171.656C144.349 171.656 144.897 171.622 145.151 171.622C145.199 171.808 145.199 172.003 145.151 172.189C144.982 172.218 144.829 172.252 144.637 172.297C144.315 172.41 144.168 172.501 144.123 173.034C144.05 173.969 144.027 175.437 144.016 177.393C144.016 177.96 144.016 178.64 144.016 179.094C143.613 179.071 143.21 179.071 142.808 179.094C141.966 177.988 139.549 174.831 138.544 173.578C138.54 173.572 138.536 173.567 138.53 173.564C138.524 173.561 138.517 173.559 138.51 173.559C138.503 173.559 138.497 173.561 138.491 173.564C138.485 173.567 138.48 173.572 138.476 173.578C138.476 174.888 138.476 176.979 138.51 177.546C138.51 178.039 138.713 178.232 139.047 178.317C139.239 178.363 139.47 178.396 139.815 178.459C139.873 178.634 139.873 178.823 139.815 178.997C139.323 178.997 138.759 178.963 138.16 178.963C137.561 178.963 136.918 178.997 136.466 178.997C136.415 178.821 136.415 178.635 136.466 178.459C136.719 178.425 136.968 178.368 137.211 178.289C137.341 178.233 137.45 178.14 137.525 178.02C137.599 177.9 137.636 177.761 137.629 177.62C137.703 176.945 137.725 174.723 137.737 173.085C137.748 172.943 137.717 172.801 137.646 172.677C137.576 172.554 137.469 172.455 137.341 172.393C137.066 172.283 136.777 172.212 136.483 172.184C136.425 171.995 136.427 171.793 136.489 171.605Z" fill="#685040"/>
<path d="M147.964 171.601C148.201 171.601 149.387 171.635 149.749 171.635C150.658 171.635 150.98 171.601 152.007 171.601C152.935 171.546 153.851 171.823 154.594 172.384C154.989 172.717 155.305 173.135 155.518 173.607C155.731 174.078 155.836 174.592 155.825 175.11C155.851 175.685 155.741 176.257 155.502 176.78C155.263 177.302 154.903 177.76 154.452 178.115C153.494 178.795 152.332 179.125 151.16 179.05C150.488 179.05 149.353 179.016 148.286 178.999H147.783C147.721 178.891 147.71 178.483 147.783 178.46C148.042 178.437 148.299 178.394 148.551 178.33C148.681 178.307 148.796 178.235 148.876 178.13C148.955 178.025 148.992 177.894 148.98 177.763C148.98 177.389 148.98 176.301 148.98 175.326C148.98 174.192 148.98 173.364 148.98 172.837C148.947 172.491 148.885 172.355 148.563 172.27C148.433 172.231 148.133 172.185 147.891 172.146C147.863 171.961 147.889 171.772 147.964 171.601ZM150.884 178.098C151.183 178.3 151.539 178.402 151.9 178.387C152.176 178.395 152.45 178.339 152.701 178.223C152.952 178.107 153.173 177.934 153.346 177.718C153.898 177.041 154.169 176.176 154.103 175.303C154.127 174.793 154.027 174.285 153.81 173.824C153.594 173.362 153.267 172.961 152.86 172.656C152.363 172.341 151.781 172.187 151.194 172.214C151.05 172.213 150.906 172.228 150.765 172.259C150.717 172.296 150.683 172.348 150.669 172.406C150.669 172.764 150.669 174.243 150.669 175.286C150.669 176.329 150.669 177.378 150.669 177.667C150.695 177.829 150.77 177.98 150.884 178.098Z" fill="#685040"/>
<path d="M159.388 177.381C160.032 175.856 160.941 173.464 161.229 172.625C161.361 172.303 161.462 171.969 161.528 171.627C161.698 171.627 161.912 171.627 162.138 171.627C162.364 171.627 162.607 171.627 162.759 171.627C162.833 171.871 162.918 172.194 163.002 172.409C163.398 173.453 164.386 176.145 164.843 177.239C165.261 178.226 165.323 178.322 166.278 178.464C166.323 178.643 166.307 178.833 166.232 179.002C165.922 179.002 165.408 178.968 164.459 178.968C163.601 178.968 162.974 179.002 162.596 179.002C162.542 178.827 162.542 178.639 162.596 178.464C162.819 178.439 163.038 178.382 163.245 178.294C163.289 178.274 163.323 178.239 163.343 178.195C163.363 178.151 163.366 178.102 163.352 178.056C163.233 177.558 163.068 177.072 162.861 176.604C162.848 176.578 162.827 176.557 162.802 176.542C162.778 176.527 162.749 176.519 162.72 176.519C162.488 176.519 161.997 176.519 161.63 176.519C161.065 176.519 160.885 176.519 160.721 176.519C160.67 176.519 160.602 176.587 160.574 176.638C160.401 177.061 160.269 177.5 160.179 177.948C160.179 178.152 160.23 178.271 160.529 178.345C160.732 178.39 160.935 178.43 161.15 178.464C161.189 178.643 161.178 178.83 161.116 179.002C160.851 179.002 160.303 178.968 159.473 178.968C158.908 178.968 158.343 179.002 157.993 179.002C157.942 178.826 157.942 178.64 157.993 178.464C158.874 178.35 159.044 178.197 159.388 177.381ZM161.647 173.413C161.444 174.025 161.11 174.972 160.896 175.607C160.896 175.646 160.896 175.692 160.941 175.703C161.077 175.703 161.376 175.703 161.72 175.703C162.065 175.703 162.353 175.703 162.46 175.703C162.567 175.703 162.511 175.658 162.511 175.629C162.404 175.318 161.946 174.036 161.709 173.407C161.701 173.396 161.689 173.388 161.675 173.384L161.647 173.413Z" fill="#685040"/>
<path d="M173.939 179.001C173.487 179.001 172.742 178.968 171.81 178.968C170.782 178.968 170.065 179.001 169.692 179.001C169.648 178.919 169.625 178.826 169.625 178.732C169.625 178.638 169.648 178.546 169.692 178.463C170.054 178.418 170.365 178.367 170.528 178.333C170.901 178.248 170.986 178.078 171.008 177.584C171.07 176.315 171.059 174.472 171.059 172.517C171.059 172.483 171.019 172.409 170.986 172.409C170.771 172.409 170.184 172.409 169.811 172.409C169.619 172.409 169.438 172.477 169.246 172.84C169.078 173.187 168.933 173.545 168.812 173.911C168.6 173.928 168.389 173.872 168.213 173.752C168.309 173.237 168.444 172.205 168.49 171.581C168.509 171.557 168.533 171.537 168.56 171.523C168.587 171.508 168.617 171.499 168.648 171.496C169.013 171.61 169.395 171.662 169.777 171.649H174.035C174.52 171.68 175.006 171.632 175.475 171.508C175.52 171.508 175.571 171.593 175.582 171.615C175.422 172.347 175.318 173.09 175.272 173.837C175.077 173.9 174.868 173.9 174.673 173.837C174.632 173.463 174.558 173.093 174.453 172.732C174.433 172.63 174.378 172.538 174.297 172.473C174.217 172.408 174.116 172.373 174.012 172.375C173.585 172.347 173.157 172.347 172.731 172.375C172.715 172.385 172.702 172.398 172.693 172.414C172.683 172.43 172.677 172.447 172.674 172.466C172.674 174.234 172.635 177.12 172.674 177.766C172.672 177.872 172.701 177.977 172.755 178.069C172.81 178.16 172.89 178.234 172.985 178.282C173.307 178.369 173.635 178.43 173.967 178.463C174.028 178.639 174.018 178.833 173.939 179.001Z" fill="#685040"/>
<path d="M178.379 171.605C178.74 171.605 179.384 171.639 180.186 171.639C181.287 171.639 181.779 171.605 182.1 171.605C182.16 171.79 182.16 171.988 182.1 172.172C181.862 172.194 181.625 172.236 181.395 172.297C181.112 172.376 181.095 172.58 181.084 172.864C181.084 173.295 181.084 173.998 181.084 175.029C181.084 176.061 181.084 177.297 181.084 177.767C181.084 178.028 181.134 178.249 181.468 178.334C181.732 178.403 182 178.456 182.269 178.493C182.31 178.677 182.279 178.869 182.184 179.031C181.852 179.031 181.23 178.997 180.293 178.997C179.356 178.997 178.74 179.031 178.356 179.031C178.317 178.947 178.297 178.855 178.297 178.762C178.297 178.669 178.317 178.577 178.356 178.493C178.633 178.447 178.813 178.419 178.966 178.385C179.327 178.312 179.384 178.192 179.423 177.818C179.463 177.444 179.423 176.044 179.423 175.046C179.423 173.833 179.423 173.346 179.423 172.835C179.423 172.558 179.327 172.399 179.113 172.342C178.866 172.268 178.613 172.219 178.356 172.195C178.305 172.001 178.313 171.795 178.379 171.605Z" fill="#685040"/>
<path d="M186.109 178.1C185.411 177.326 185.041 176.309 185.081 175.265C185.065 174.727 185.171 174.192 185.391 173.701C185.611 173.21 185.94 172.776 186.352 172.431C187.151 171.756 188.165 171.394 189.209 171.411C189.712 171.378 190.215 171.453 190.686 171.629C191.158 171.804 191.586 172.078 191.946 172.431C192.305 172.785 192.586 173.211 192.769 173.68C192.954 174.15 193.038 174.653 193.015 175.158C193.048 176.043 192.787 176.914 192.276 177.635C191.89 178.121 191.398 178.513 190.839 178.779C190.278 179.045 189.665 179.179 189.046 179.171C188.509 179.207 187.971 179.131 187.465 178.946C186.959 178.762 186.497 178.474 186.109 178.1ZM190.384 178.14C190.983 177.624 191.175 176.66 191.175 175.606C191.175 174.319 190.813 173.117 190.045 172.505C189.705 172.225 189.276 172.076 188.837 172.085C188.521 172.079 188.211 172.162 187.938 172.324C187.21 172.794 186.951 173.814 186.951 174.954C186.951 176.093 187.306 177.391 188.182 178.066C188.535 178.347 188.974 178.496 189.424 178.485C189.774 178.488 190.115 178.366 190.384 178.14Z" fill="#685040"/>
<path d="M195.206 171.605C195.6 171.605 196.114 171.639 197.001 171.639C197.334 171.639 197.729 171.639 197.921 171.639C198.042 171.893 198.198 172.128 198.385 172.337C199.43 173.657 201.208 175.88 201.932 176.696C201.949 176.702 201.969 176.702 201.988 176.696C201.988 175.12 201.988 173.935 201.932 173.006C201.932 172.614 201.797 172.439 201.407 172.325C201.135 172.266 200.863 172.221 200.587 172.189C200.54 172.003 200.54 171.808 200.587 171.622C200.864 171.622 201.416 171.656 202.327 171.656C203.066 171.656 203.62 171.622 203.869 171.622C203.923 171.808 203.923 172.004 203.869 172.189C203.698 172.218 203.546 172.252 203.354 172.297C203.033 172.41 202.886 172.501 202.84 173.034C202.767 173.969 202.745 175.437 202.733 177.393C202.733 177.96 202.733 178.64 202.733 179.094C202.331 179.071 201.927 179.071 201.525 179.094C200.688 177.988 198.272 174.831 197.261 173.578C197.258 173.572 197.253 173.567 197.247 173.564C197.241 173.561 197.234 173.559 197.228 173.559C197.221 173.559 197.213 173.561 197.207 173.564C197.201 173.567 197.197 173.572 197.193 173.578C197.193 174.888 197.193 176.979 197.228 177.546C197.228 178.039 197.431 178.232 197.764 178.317C197.956 178.363 198.188 178.396 198.532 178.459C198.593 178.633 198.593 178.823 198.532 178.997C198.04 178.997 197.476 178.963 196.877 178.963C196.279 178.963 195.634 178.997 195.183 178.997C195.127 178.822 195.127 178.634 195.183 178.459C195.434 178.424 195.682 178.367 195.922 178.289C196.052 178.233 196.161 178.14 196.236 178.02C196.311 177.9 196.347 177.761 196.341 177.62C196.414 176.945 196.437 174.723 196.448 173.085C196.46 172.943 196.427 172.801 196.358 172.677C196.287 172.554 196.18 172.455 196.053 172.393C195.778 172.282 195.489 172.211 195.194 172.184C195.137 171.994 195.142 171.792 195.206 171.605Z" fill="#685040"/>
</g>
</g>
</svg>
