<svg width="234" height="247" viewBox="0 0 234 247" fill="none" xmlns="http://www.w3.org/2000/svg">
<path d="M150.271 246.451C146.835 245.342 145.792 243.97 144.199 238.484L143.284 235.328L139.951 234.706C138.118 234.367 136.449 234.084 136.248 234.08C136.044 234.077 134.764 235.42 133.405 237.062C130.795 240.215 129.462 241.126 127.083 241.396C123.601 241.788 120.106 239.28 119.336 235.834C118.98 234.248 119.03 233.705 119.826 230.375C120.313 228.338 120.662 226.55 120.603 226.402C120.54 226.254 119.283 225.073 117.809 223.779L115.13 221.426L111.78 222.733C109.482 223.628 107.919 224.036 106.8 224.036C102.683 224.036 99.5929 221.002 99.5929 216.964C99.5929 214.344 100.235 213.12 103.206 210.076L105.833 207.387L104.605 203.8L103.378 200.216L99.922 199.663C95.5976 198.968 94.426 198.478 92.9352 196.734C90.0391 193.351 90.7862 188.181 94.4787 186.015C95.2784 185.548 97.3781 184.751 99.1486 184.251L102.367 183.336L102.92 180.565C103.223 179.045 103.572 177.412 103.694 176.942C103.894 176.172 103.644 175.859 101.179 173.828C97.9869 171.202 97.7862 170.985 96.9502 169.241C95.5516 166.335 96.7199 162.313 99.5238 160.368C100.686 159.562 101.347 159.364 103.226 159.259C105.477 159.131 105.517 159.114 105.517 158.219V157.308L104.283 157.745C101.449 158.756 99.4119 158.213 94.7617 155.198L91.5925 153.144L90.0786 154.036C89.2493 154.523 87.6433 155.402 86.5111 155.981L84.4543 157.041V161.457C84.4543 166.499 84.1383 167.901 82.5915 169.708C79.5967 173.206 73.9066 173.397 70.8163 170.106C70.2831 169.537 69.026 167.503 68.0189 165.581L66.1891 162.093L62.0194 162.03L57.8497 161.971L55.9541 165.548C53.8741 169.474 52.1496 171.324 49.9611 171.979C45.6236 173.279 41.128 170.913 39.861 166.657C39.499 165.453 39.4332 164.084 39.5878 161.043L39.7919 157.024L37.192 155.534C35.7637 154.711 34.1346 153.77 33.5752 153.434L32.5549 152.828L29.6259 154.662C25.2423 157.406 24.673 157.64 22.3923 157.64C17.6401 157.64 13.9212 153.543 14.4708 148.909C14.6617 147.29 15.468 145.667 18.3114 141.162C19.3942 139.454 19.404 139.391 18.8577 138.529C18.5484 138.045 17.617 136.419 16.7877 134.922L15.2771 132.197L11.114 132.401C6.52959 132.628 5.05193 132.322 2.9358 130.71C1.72471 129.785 0.411591 127.435 0.0791983 125.599C-0.243321 123.831 0.447793 121.189 1.63256 119.645C2.47177 118.549 5.41723 116.519 6.92122 115.995C7.08577 115.939 6.83237 115.232 6.36175 114.429C5.13749 112.339 5.01572 110.842 5.74304 106.945L6.37491 103.555L5.10787 102.91C1.73129 101.186 0.0100886 98.3128 0.286534 94.8605C0.46754 92.5831 1.05005 91.27 2.5343 89.789C3.98564 88.3344 5.28558 87.742 7.45765 87.5446L9.33683 87.3734L9.70542 85.1322C10.232 81.9432 10.1925 81.4693 9.09 78.0269C7.91182 74.3542 7.86903 73.3669 8.82343 72.1525C9.53429 71.2474 9.53758 71.1816 9.13607 66.2978C8.90241 63.4543 8.85305 61.2362 9.02089 61.0683C9.90288 60.1863 11.634 62.569 12.5686 65.9555C13.0688 67.7656 13.2301 67.9959 14.0693 68.1177C14.9052 68.2395 15.0895 68.0947 15.6984 66.8342C17.0279 64.0862 19.7726 62.4473 23.0439 62.4473C24.9889 62.4473 26.0289 62.8883 29.9485 65.3829L33.1177 67.4002L35.8328 65.7745C37.3236 64.876 38.9362 63.9677 39.4167 63.7538L40.2855 63.3589L40.2395 58.5441C40.1967 54.4139 40.2789 53.5615 40.8022 52.5742C42.4115 49.5531 44.7218 48.1511 48.0885 48.1511C50.83 48.1511 52.5775 48.9278 54.2065 50.8695L55.2695 52.1332L57.0829 51.0406C59.1825 49.7769 60.4496 49.4774 62.8323 49.6781C64.8727 49.8526 66.4689 50.5667 68.2789 52.1135L69.6151 53.2588L70.0956 52.3406C70.3588 51.8338 71.0697 50.9485 71.672 50.3692C74.9564 47.223 80.8374 47.6805 83.4538 51.2907C85.0302 53.4694 85.2309 54.5192 84.9874 59.3603C84.7801 63.4839 84.8031 63.7242 85.4087 63.9184C85.7575 64.0303 87.3866 64.9287 89.0222 65.9127L91.9973 67.7063L95.2192 65.6725C99.8727 62.7336 101.607 62.2696 104.592 63.1647C107.228 63.9546 110.098 67.3904 110.118 69.7764C110.121 70.4609 110.345 70.7768 111.003 71.0237C111.487 71.208 112.56 71.853 113.389 72.4553C114.718 73.4261 116.377 74.2225 116.377 73.8934C116.377 73.8276 116.081 73.1957 115.719 72.4849C114.899 70.8756 114.837 67.7985 115.591 66.2978C116.838 63.8229 118.345 62.8027 122.959 61.2954C124.496 60.7952 125.783 60.3641 125.819 60.3377C125.875 60.2982 126.82 54.799 126.997 53.4793C127.047 53.0975 126.033 52.1102 123.956 50.5173C120.642 47.98 119.543 46.522 119.198 44.2118C118.763 41.3025 120.787 37.7054 123.496 36.5733C124.967 35.9579 127.8 36.0237 131.272 36.7477L134.155 37.35L135.88 35.2042C139.243 31.0214 139.042 31.9363 137.43 28.1615C135.616 23.9161 135.445 22.2969 136.551 19.8846C137.989 16.7384 141.389 15.0139 144.69 15.7511C146.46 16.1493 147.013 16.4915 149.653 18.8479L151.69 20.6678L152.605 19.0684C153.875 16.8404 154.895 16.248 157.344 16.3105C158.433 16.3369 159.493 16.2513 159.7 16.1196C159.904 15.988 160.243 14.7901 160.447 13.4605C160.901 10.5381 161.349 9.61002 163.063 8.05995C165.298 6.04256 168.072 5.65422 170.883 6.96075C173.131 8.00729 174.059 9.33028 175.53 13.5823L176.767 17.1497L180.223 17.7388C182.125 18.0613 183.784 18.3279 183.912 18.3345C184.037 18.3411 185.044 17.1629 186.15 15.7116C188.625 12.46 189.253 11.8479 190.919 11.0745C195.151 9.10978 200.229 11.9236 201.068 16.7022C201.193 17.4097 200.963 19.3185 200.476 21.6387L199.676 25.4233L200.565 26.0816C201.052 26.4403 202.368 27.5099 203.487 28.4577C205.514 30.1723 205.527 30.1756 206.637 29.7115C207.499 29.3528 207.841 28.948 208.15 27.9114C208.466 26.8582 208.71 26.5752 209.299 26.5752C209.71 26.5752 210.316 26.7727 210.648 27.0162C211.073 27.3256 211.955 27.4111 213.623 27.3058C215.453 27.1873 216.273 27.2861 217.234 27.7435C219.129 28.642 220.65 30.4092 221.222 32.374C222.124 35.4741 221.377 37.4586 217.793 41.4736L215.512 44.0308L216.829 47.3975C217.553 49.2503 218.204 50.8267 218.274 50.9057C218.346 50.9814 219.922 51.2381 221.775 51.475C226.054 52.018 227.656 52.6302 229.038 54.2428C231.747 57.4054 231.467 61.6706 228.37 64.4614C227.393 65.3434 226.113 65.9654 223.454 66.8507L219.86 68.0486L219.448 70.9249C219.221 72.5079 218.958 74.1699 218.863 74.624C218.711 75.3481 219.044 75.7134 221.667 77.6682C225.629 80.6268 226.462 81.9005 226.462 84.994C226.462 88.1468 225.32 90.1115 222.67 91.5102C221.038 92.3725 220.653 92.4449 218.616 92.2803C216.589 92.1191 216.391 92.1553 216.605 92.6588C217.322 94.3438 217.714 95.6043 217.727 96.2625C217.744 97.1148 217.671 97.105 220.034 96.5554C221.785 96.1473 221.871 96.0749 223.325 93.6955C224.145 92.356 225.491 90.5493 226.32 89.687C227.673 88.2719 227.966 88.1172 229.282 88.1238C230.082 88.1238 230.924 88.2455 231.148 88.3871C231.457 88.5812 231.02 90.1214 229.4 94.5544L227.245 100.459L221.328 104.381C216.835 107.363 215.46 108.433 215.618 108.824C215.73 109.111 216.783 111.938 217.954 115.104C219.126 118.269 221.176 123.604 222.516 126.951C226.534 137.009 227.873 142.521 228.173 150.225C228.558 160.184 226.481 166.364 220.896 171.874C217.339 175.382 213.409 177.504 205.106 180.394C204.537 180.591 204.527 180.654 205.014 181.19C206.739 183.096 207.041 186.683 205.682 189.174C204.53 191.291 203.122 192.186 199.011 193.4C197.125 193.96 195.543 194.453 195.493 194.503C195.381 194.618 194.045 201.157 194.045 201.598C194.045 201.779 195.368 202.984 196.981 204.27C199.153 206.001 200.117 207.018 200.673 208.167C202.259 211.438 201.239 215.318 198.261 217.326C196.013 218.84 194.664 218.935 190.231 217.892L186.449 217L184.011 219.613C182.668 221.051 181.566 222.387 181.556 222.582C181.546 222.776 182.066 224.257 182.711 225.873C184.353 229.983 184.488 231.915 183.293 234.235C181.997 236.756 180.213 237.951 177.488 238.125C174.697 238.303 173.542 237.756 170.162 234.663C168.622 233.251 167.256 232.099 167.128 232.099C167 232.099 165.4 232.596 163.574 233.205L160.253 234.311L159.572 238.243C158.788 242.765 158.022 244.256 155.794 245.553C154.27 246.445 151.591 246.879 150.271 246.451ZM154.02 245.681C154.796 245.451 155.958 244.694 156.741 243.914C158.203 242.453 158.482 241.63 159.266 236.433L159.654 233.857L163.544 232.557L167.431 231.257L170.291 233.942C173.509 236.97 174.546 237.529 176.935 237.529C179.677 237.529 181.954 236.019 183.004 233.504C183.784 231.638 183.629 230.273 182.197 226.379C181.473 224.411 180.881 222.693 180.881 222.562C180.881 222.43 182.069 220.949 183.52 219.274L186.163 216.23L190.214 217.23C194.006 218.165 194.364 218.201 195.872 217.78C199.291 216.822 201.503 213.14 200.624 209.872C200.068 207.808 199.561 207.189 196.168 204.432C194.368 202.97 193.163 201.763 193.259 201.512C193.351 201.279 193.749 199.485 194.147 197.527L194.871 193.966L198.323 192.929C202.108 191.797 203.477 191.182 204.29 190.254C206.024 188.279 206.4 185.136 205.192 182.648C204.807 181.852 204.31 181.131 204.086 181.046C203.862 180.96 202.217 181.263 200.426 181.72C196.352 182.764 192.406 183.445 188.727 183.741L185.877 183.971L186.058 187.012C187.088 204.32 175.253 220.462 158.265 224.912C154.293 225.955 147.339 226.317 143.429 225.688C128.33 223.259 116.607 212.646 112.714 197.873C112.033 195.283 111.934 194.167 111.934 188.987C111.934 182.961 112.102 181.687 113.488 177.304C114.156 175.184 116.269 170.633 117.206 169.293C117.476 168.912 117.694 168.494 117.694 168.362C117.694 168.013 113.702 165.219 112.609 164.804C111.345 164.324 111.237 164.558 112.095 165.943C113.346 167.964 112.283 169.705 110.509 168.54C108.433 167.181 106.563 164.324 105.823 161.382L105.438 159.861H103.654C99.8266 159.861 96.9601 162.701 96.9601 166.493C96.9601 168.862 97.9968 170.412 101.446 173.216C103.967 175.267 104.552 175.902 104.421 176.455C104.332 176.83 104.006 178.472 103.694 180.101C103.384 181.73 103.085 183.234 103.029 183.445C102.973 183.655 102.14 184.05 101.179 184.327C100.215 184.6 98.6122 185.057 97.6183 185.344C94.0147 186.377 92.1717 188.296 91.8064 191.393C91.6385 192.808 91.7472 193.37 92.4975 194.901C93.7251 197.409 95.1698 198.208 99.9747 199.034C102.028 199.39 103.789 199.679 103.891 199.679C103.993 199.683 104.273 200.459 104.51 201.41C104.75 202.362 105.316 204.073 105.767 205.215L106.59 207.291L105.793 208.177C105.352 208.664 104.016 210.122 102.821 211.418C101.117 213.265 100.574 214.107 100.32 215.299C99.6851 218.29 101.127 221.472 103.684 222.707C105.82 223.743 107.745 223.582 111.855 222.029L115.426 220.679L117.302 222.453C118.332 223.431 119.711 224.635 120.369 225.129L121.567 226.031L120.593 229.884C119.474 234.304 119.53 235.69 120.915 237.822C121.988 239.481 124.443 240.82 126.408 240.82C129.015 240.82 130.917 239.346 134.836 234.294L135.689 233.198L138.95 233.873C140.744 234.242 142.564 234.587 142.995 234.64C143.693 234.722 143.9 235.137 144.851 238.385C145.44 240.392 146.072 242.318 146.26 242.663C146.858 243.769 148.52 245.138 149.827 245.605C151.426 246.175 152.315 246.191 154.02 245.681ZM157.844 224.365C165.496 222.341 173.233 217.352 177.448 211.721L178.413 210.431L179.236 196.912L180.058 183.392L185.653 183.188C191.271 182.981 193.584 182.688 198.521 181.562C204.948 180.095 213.07 176.955 216.73 174.523C219.442 172.719 222.851 169.178 224.28 166.687C228.176 159.874 228.706 149.916 225.78 138.384C224.898 134.902 222.878 128.995 222.407 128.524C222.17 128.287 213.469 129.676 210.253 130.463C209.552 130.634 209.513 130.805 209.513 133.652C209.51 141.54 207.061 148.981 203.164 152.937C198.728 157.452 190.642 158.976 182.362 156.867C179.897 156.238 178.548 156.113 174.299 156.116C171.011 156.119 168.444 156.294 167.072 156.603L164.949 157.087L164.87 158.331C164.581 162.817 162.063 166.651 158.298 168.316L156.959 168.912L159.503 178.268C160.921 183.488 162.257 187.779 162.527 187.976C162.79 188.171 163.208 189.115 163.455 190.076C163.843 191.587 163.837 191.866 163.425 192.13C163.159 192.298 162.764 192.436 162.547 192.436C162.05 192.442 161.089 189.316 161.296 188.368C161.51 187.387 156.383 168.892 155.925 168.991C155.724 169.033 154.52 169.165 153.246 169.284C151.433 169.455 150.933 169.613 150.929 170.027C150.916 171.821 154.688 193.802 155.198 194.911C155.534 195.635 155.905 196.842 156.027 197.596C156.221 198.811 156.165 198.992 155.53 199.192C155.139 199.317 154.698 199.294 154.553 199.14C154.072 198.626 153.608 195.654 153.924 195.108C154.125 194.759 153.533 190.379 152.164 182.079L150.1 169.576L142.702 169.669C126.652 169.869 122.702 171.071 115.781 177.853C113.211 180.371 113.142 180.48 112.79 182.596C112.27 185.706 112.342 192.574 112.925 195.651C114.073 201.697 116.802 207.496 120.751 212.281L122.048 213.85L123.509 211.952C126.803 207.663 133.207 199.693 133.504 199.511C134.336 198.995 133.609 200.189 131.476 202.849C130.186 204.458 127.642 207.683 125.822 210.023L122.512 214.275L124.391 216.023C128.955 220.275 134.843 223.25 141.553 224.701C145.72 225.606 153.789 225.438 157.844 224.365ZM181.582 205.195C184.458 199.502 186.041 191.323 185.347 185.758L185.113 183.886H182.833H180.552L180.549 184.955C180.545 185.544 180.252 190.688 179.894 196.392C179.535 202.095 179.242 207.351 179.239 208.075V209.391L179.89 208.322C180.249 207.732 181.009 206.324 181.582 205.195ZM119.105 174.082C119.974 173.453 120.968 172.387 121.314 171.709L121.946 170.472L120.237 169.586L118.529 168.698L117.911 169.461C116.838 170.788 113.744 177.495 113.744 178.495C113.744 178.6 114.597 177.906 115.637 176.952C116.677 175.997 118.24 174.707 119.105 174.082ZM79.8403 171.051C80.4754 170.722 81.3969 170.031 81.8873 169.517C83.5032 167.812 83.7961 166.572 83.7961 161.392V156.649L84.7241 156.268C85.2342 156.054 86.9686 155.089 88.5779 154.122L91.5069 152.364L93.1656 153.427C94.0739 154.013 95.6371 155.01 96.631 155.646C99.6982 157.607 101.989 157.982 104.582 156.955C105.415 156.626 105.441 156.547 105.142 155.191C104.678 153.082 102.305 148.448 98.938 143.077C97.2925 140.454 95.6635 137.825 95.3146 137.236L94.6795 136.169L91.6254 139.22C86.9225 143.916 81.3442 147.375 75.144 149.445C66.798 152.229 56.869 152.111 48.5065 149.123C38.5775 145.578 30.1229 138.085 25.4003 128.649C23.9127 125.678 22.0401 120.139 21.7374 117.822C21.5366 116.282 21.4379 116.117 20.8126 116.262C12.3547 118.243 11.8347 118.276 9.11633 116.993L7.66499 116.308L5.84835 117.259C2.10975 119.217 0.727529 121.166 0.727529 124.483C0.727529 126.852 1.58978 128.722 3.35705 130.176C5.19673 131.694 6.86856 132.019 11.5517 131.769L15.6128 131.552L16.8469 133.777C17.5249 135.001 18.5615 136.762 19.1506 137.69L20.2235 139.381L18.555 141.968C14.6419 148.037 14.2503 149.679 15.9189 152.973C17.5347 156.162 21.0232 157.768 24.232 156.797C25.0448 156.554 27.2794 155.382 29.1948 154.194L32.6833 152.039L34.806 153.398C35.9743 154.148 37.712 155.129 38.6696 155.583L40.404 156.406L40.2065 160.78C39.9762 165.861 40.2395 167.121 41.9508 169.122C44.2183 171.772 47.641 172.443 50.8201 170.857C52.8046 169.869 53.1699 169.405 55.6217 164.775L57.4482 161.323L61.9832 161.378L66.5182 161.431L68.4928 165.15C69.5789 167.194 70.9743 169.363 71.5897 169.965C73.6696 171.995 77.1219 172.449 79.8403 171.051ZM123.739 168.994C124.552 165.96 122.643 161.411 119.198 158.166C118.441 157.452 116.644 156.096 115.209 155.155C113.774 154.214 112.286 152.97 111.898 152.387C111.513 151.808 110.085 147.958 108.726 143.831C104.21 130.127 102.13 124.835 97.0095 114.034C95.9136 111.727 94.9131 109.838 94.788 109.838C94.4524 109.838 83.8125 115.798 83.6348 116.084C83.5064 116.295 98.0889 140.744 101.393 145.858C103.016 148.366 105.329 153.329 105.806 155.316C106.007 156.166 106.175 157.689 106.175 158.7C106.175 161.938 108.163 166.127 110.48 167.78C111.26 168.332 111.579 168.408 111.878 168.109C112.174 167.809 112.017 167.263 111.204 165.765L110.141 163.811H110.967C112.188 163.811 113.813 164.577 116.213 166.289C120.863 169.609 123.334 170.498 123.739 168.994ZM131.312 158.68C134.813 155.191 134.906 155.06 133.49 155.685C131.197 156.699 127.952 158.756 125.566 160.704L123.397 162.481L124.042 164.442L124.684 166.407L126.168 164.367C126.984 163.248 129.301 160.687 131.312 158.68ZM127.073 158.739C131.187 155.718 136.854 153.26 141.961 152.276L144.015 151.877L145.315 147.889C146.319 144.818 146.526 143.814 146.223 143.531C145.634 142.975 139.105 140.392 138.789 140.589C138.638 140.681 138.42 141.471 138.302 142.343L138.095 143.93L134.195 145.246L130.295 146.559L127.349 143.739C124.312 140.826 122.969 140.109 120.616 140.122C118.306 140.138 115.535 142.119 114.679 144.364C114.037 146.059 114.317 148.112 115.693 151.769C116.943 155.096 117.19 155.494 119.023 157.153C120.109 158.137 121.455 159.605 122.008 160.411L123.018 161.875L124.058 161.03C124.631 160.566 125.987 159.536 127.073 158.739ZM193.838 156.85C194.874 156.643 195.661 156.32 195.598 156.126C195.352 155.392 192.623 154.267 191.113 154.28C189.428 154.293 183.678 156.383 184.501 156.682C186.193 157.294 191.175 157.386 193.838 156.85ZM165.413 156.426C165.413 156.347 165.265 156.189 165.084 156.077C164.903 155.965 164.755 156.031 164.755 156.221C164.755 156.412 164.903 156.57 165.084 156.57C165.265 156.57 165.413 156.504 165.413 156.426ZM186.272 154.925C188.23 154.188 190.359 153.608 191.1 153.608C192.716 153.608 194.578 154.352 195.73 155.458L196.596 156.284L198.791 155.29C205.024 152.463 208.786 144.249 208.93 133.155C208.98 129.554 208.213 111.112 208.006 110.871C207.95 110.805 207.489 111.042 206.982 111.398C204.83 112.895 202.016 113.201 199.804 112.175C199.08 111.842 197.274 110.503 195.789 109.203L193.087 106.836L189.961 108.008C188.24 108.653 186.686 109.18 186.505 109.18C186.15 109.18 186.015 109.815 185.465 114.106C185.041 117.424 184.603 118.569 183.254 119.918C181.605 121.57 180.127 122.104 177.597 121.959C175.869 121.86 175.079 121.636 174.023 120.938C172.236 119.754 171.739 118.931 170.32 114.797C168.968 110.865 169.613 111.339 164.321 110.388L161.747 109.923L159.44 112.912C157.176 115.837 155.507 117.407 154.655 117.407C154.043 117.407 154.122 117.871 154.849 118.529C156.166 119.721 156.399 122.91 155.33 125.042C155.083 125.533 154.882 126.069 154.882 126.237C154.882 126.402 155.994 127.307 157.35 128.248C159.542 129.762 159.799 130.045 159.618 130.765C159.506 131.213 159.394 131.759 159.368 131.98C159.345 132.2 160.779 133.783 162.553 135.495C165.324 138.164 165.861 138.549 166.338 138.213C167.503 137.387 169.237 136.581 170.277 136.383C174.217 135.633 178.548 139.243 178.571 143.294C178.574 144.048 178.215 146.194 177.774 148.063L176.971 151.459L178.186 152.447C178.854 152.99 180.068 154.063 180.881 154.829C181.694 155.596 182.454 156.228 182.563 156.235C182.675 156.238 184.343 155.649 186.272 154.925ZM174.134 155.418C175.944 155.418 178.238 155.524 179.236 155.652L181.046 155.889L179.729 154.662C179.005 153.987 177.929 153.059 177.333 152.601L176.257 151.769L177.086 148.247C177.544 146.312 177.919 144.107 177.919 143.347C177.919 138.154 171.386 134.991 167.467 138.289C166.697 138.937 166.552 139.283 166.661 140.214C166.805 141.448 166.789 141.468 162.122 145.513C160.134 147.237 158.571 148.007 157.057 148.01C156.491 148.014 156.452 148.198 156.643 150.018C156.758 151.117 156.922 152.134 157.011 152.276C157.097 152.417 157.85 152.723 158.683 152.953C160 153.325 160.345 153.306 161.362 152.822C162.422 152.318 162.599 152.312 163.307 152.776C163.735 153.059 164.179 153.661 164.294 154.115C164.64 155.494 165.89 155.952 168.54 155.665C169.807 155.53 172.324 155.418 174.134 155.418ZM114.896 151.41C113.863 148.655 113.702 147.875 113.81 146.128C113.981 143.419 115.182 141.626 117.674 140.362C121.116 138.615 123.265 139.187 127.438 142.952L130.522 145.74L133.987 144.654C137.677 143.502 137.68 143.498 137.851 141.129C137.933 140.02 137.904 139.993 135.959 139.411C132.427 138.351 130.522 136.097 130.535 132.99C130.545 130.844 131.466 128.949 133.596 126.691C134.57 125.658 135.84 123.91 136.419 122.811C136.999 121.709 137.914 120.274 138.453 119.619C139.559 118.276 143.288 116.272 145.318 115.93L146.658 115.702L146.009 114.794C144.617 112.839 144.476 111.214 145.315 106.863L146.082 102.884L145.299 102.338C144.867 102.035 143.574 100.992 142.422 100.014L140.329 98.2404L136.594 99.7608C132.73 101.331 131.572 101.522 129.449 100.932C128.07 100.551 126.112 98.9776 125.25 97.5624L124.69 96.6409L124.331 98.0725C123.663 100.728 122.439 101.939 118.075 104.26L114.093 106.382L114.083 110.549L114.073 114.718L117.282 116.433C121.587 118.734 122.492 119.461 123.476 121.399C125.506 125.408 123.933 130.124 119.833 132.322C118.635 132.964 118.088 133.02 113.744 132.941L108.972 132.855L107.975 134.655L106.981 136.456L109.479 144.041C111.164 149.159 112.237 151.907 112.78 152.493C113.613 153.391 115.798 154.925 115.995 154.744C116.058 154.688 115.564 153.187 114.896 151.41ZM157.001 154.56C157.107 154.454 156.975 153.845 156.709 153.207C156.442 152.572 156.129 151.104 156.011 149.949L155.794 147.846L151.578 145.628C149.261 144.407 147.276 143.406 147.174 143.406C147.069 143.406 146.984 143.745 146.984 144.16C146.984 144.575 146.256 147.082 145.368 149.735C143.781 154.474 143.765 154.56 144.463 154.714C145.46 154.935 156.768 154.796 157.001 154.56ZM143.38 153.727C143.561 153.25 143.653 152.802 143.584 152.733C143.515 152.661 142.32 152.855 140.928 153.161C138.154 153.77 138.035 154.161 140.566 154.352C141.471 154.421 142.399 154.504 142.63 154.536C142.863 154.569 143.199 154.204 143.38 153.727ZM158.667 153.608C157.762 153.22 157.439 153.22 157.679 153.608C157.791 153.789 158.206 153.928 158.604 153.914C159.299 153.891 159.302 153.882 158.667 153.608ZM48.4078 146.819C48.5328 145.983 48.704 145.114 48.7895 144.894C48.8784 144.667 48.4835 144.295 47.8944 144.051C46.4068 143.436 43.5733 140.55 42.7275 138.786C42.3325 137.963 41.1182 133.448 40.0321 128.748C38.9461 124.049 37.9061 119.862 37.7251 119.448C37.2808 118.437 35.4839 117.73 32.8775 117.542C30.4059 117.364 28.9612 116.726 28.4412 115.581C28.2371 115.136 27.8817 114.774 27.6513 114.774C27.2301 114.774 23.0834 115.67 22.3627 115.916C22.0829 116.015 22.1422 116.779 22.5832 118.786C25.2752 131.002 33.2888 141.247 44.4355 146.714C46.262 147.609 47.8516 148.343 47.9668 148.343C48.082 148.343 48.2827 147.658 48.4078 146.819ZM74.601 145.565C80.9098 144.723 85.4416 142.712 85.4416 140.747C85.4416 140.336 84.553 135.215 83.467 129.367C82.3809 123.515 81.4923 118.368 81.4923 117.924C81.4923 116.578 82.6936 115.676 89.3908 111.98C92.922 110.032 95.9926 108.209 96.2196 107.923C97.2201 106.669 96.3645 104.391 92.356 97.6381C86.9916 88.6043 81.5647 83.6052 75.4171 82.0354C72.7119 81.3443 71.4844 81.3673 71.7641 82.0946C73.2056 85.853 70.8229 90.8092 66.584 92.8628C60.002 96.0518 53.2258 95.0283 47.7693 90.026L45.6861 88.1205L43.5963 88.3179C39.6899 88.6865 36.3429 89.8121 33.9043 91.5793C33.2461 92.0565 33.1769 92.0105 32.4233 90.592C31.9889 89.7726 31.4952 89.1045 31.3241 89.1045C31.153 89.1045 29.2113 90.9211 27.0063 93.1426C24.2945 95.8708 22.9287 97.4999 22.7806 98.168C22.6062 98.9578 23.2216 100.834 25.782 107.347C29.4647 116.713 29.5107 116.775 32.8445 116.953C35.0166 117.072 37.4191 117.799 38.0213 118.526C38.2155 118.757 39.3246 123.025 40.4896 128.011C41.6513 132.993 42.9216 137.696 43.3133 138.46C44.373 140.54 46.3608 142.521 48.3781 143.508C52.4327 145.493 66.719 146.612 74.601 145.565ZM87.3109 142.218C88.6371 141.205 90.7467 139.273 92.0039 137.93L94.2878 135.485L88.8313 126.365C85.8299 121.347 83.1839 117.035 82.947 116.779C81.8247 115.571 82.0847 118.355 84.1252 129.449C85.9747 139.493 86.1557 140.833 85.7772 141.748C85.5436 142.31 85.0697 142.922 84.7274 143.107C84.1778 143.4 84.1548 144.064 84.6978 144.064C84.8097 144.064 85.9879 143.235 87.3109 142.218ZM145.983 139.072C145.44 137.097 143.877 135.245 142.547 134.994C141.073 134.718 140.402 135.241 140.402 136.67C140.402 138.381 142.044 139.516 145.503 140.194C146.375 140.365 146.355 140.411 145.983 139.072ZM156.034 135.356C157.617 134.425 158.973 133.04 158.709 132.618C158.607 132.447 158.657 131.842 158.821 131.266C159.114 130.242 159.078 130.193 156.896 128.741C155.626 127.896 153.849 126.277 152.763 124.97C150.604 122.38 150.577 122.377 147.323 123.95C144.347 125.388 143.423 127.58 144.364 130.963C144.63 131.927 145.187 132.533 147.066 133.899C150.841 136.643 153.197 137.028 156.034 135.356ZM107.682 133.813L108.541 132.118L112.879 132.325C117.726 132.559 118.934 132.348 120.896 130.927C123.631 128.946 124.578 124.647 122.933 121.672C121.982 119.954 120.432 118.763 116.417 116.657L113.415 115.084V110.545V106.004L117.387 103.917C121.722 101.637 122.966 100.482 123.627 98.1186C124.476 95.081 123.183 91.5629 120.58 89.8384C119.27 88.9696 119.056 88.9367 114.014 88.8346L108.801 88.7293L108.271 87.6828C107.978 87.1069 106.998 85.3955 106.089 83.8817C104.457 81.16 104.444 81.1139 104.984 80.199L105.53 79.2742L103.858 77.6024C102.436 76.184 102.199 75.7693 102.288 74.8676L102.39 73.8013L105.803 73.7058L109.219 73.6137L109.035 72.4783C108.93 71.8365 109.002 71.2507 109.196 71.1323C109.838 70.7341 109.259 68.0486 108.222 66.6137C106.978 64.8892 104.316 63.4346 102.403 63.4346C100.449 63.4346 99.2309 63.9282 95.7161 66.1431C94.0278 67.2061 92.4514 68.1506 92.2112 68.2427C91.9709 68.3349 90.8981 67.8412 89.8219 67.1468C88.7457 66.4491 87.0311 65.4454 86.0076 64.909L84.1515 63.9381L84.3457 59.3241C84.5596 54.2559 84.372 53.3641 82.6541 51.3269C79.6 47.7035 73.7255 48.0688 71.0467 52.0444C70.3095 53.137 70.0363 53.861 70.1647 54.3744C70.3095 54.947 70.0988 55.3189 69.2596 55.9771L68.167 56.8328L68.7759 58.5705C69.1115 59.5249 69.7467 60.7853 70.1844 61.3711C70.9249 62.3551 70.9479 62.5032 70.5102 63.349C70.2502 63.8525 69.7895 65.1525 69.4834 66.2352C69.1807 67.3213 68.6409 68.4567 68.2855 68.766C67.6602 69.3058 67.6767 69.3288 68.891 69.5328C74.9235 70.553 82.2855 73.6795 86.9719 77.2108C94.9296 83.207 100.62 92.1454 102.742 101.992C103.891 107.307 103.7 114.732 102.275 120.343L101.686 122.666L102.614 124.838C103.124 126.033 104.23 128.923 105.072 131.259C105.915 133.596 106.652 135.508 106.711 135.508C106.774 135.508 107.208 134.744 107.682 133.813ZM215.73 128.771C219.057 128.143 221.811 127.586 221.848 127.537C221.884 127.488 220.307 123.153 218.343 117.911C216.378 112.665 214.811 108.258 214.857 108.117C214.907 107.975 217.599 106.089 220.847 103.927L226.751 99.9945L228.644 94.7947C229.687 91.9381 230.549 89.4139 230.559 89.1868C230.569 88.9334 230.131 88.7754 229.41 88.7754C227.844 88.7754 226.116 90.4176 223.895 94.018L222.183 96.789L220.209 97.2037C217.26 97.8224 217.082 97.7961 217.079 96.7561C217.079 95.5648 216.539 93.6658 215.99 92.9155C215.595 92.3758 215.236 92.8925 212.399 98.0495C210.668 101.202 209.075 104.368 208.861 105.082C208.555 106.103 208.585 108.637 208.993 116.828C209.279 122.574 209.513 127.869 209.513 128.593C209.513 129.321 209.549 129.913 209.595 129.913C209.641 129.91 212.399 129.396 215.73 128.771ZM181.046 120.781C183.573 119.527 184.389 117.904 185.011 112.889C185.271 110.792 185.521 109.038 185.567 108.999C185.755 108.828 192.867 106.218 193.143 106.218C193.308 106.218 194.707 107.343 196.257 108.722C197.803 110.098 199.564 111.431 200.166 111.684C202.342 112.592 205.402 112.036 207.124 110.424C207.726 109.858 207.867 109.371 207.867 107.863C207.867 106.843 208.098 105.326 208.381 104.497L208.894 102.989L207.551 99.8299L206.205 96.6705L207.943 94.6071C208.897 93.4717 210.056 92.0401 210.52 91.428L211.366 90.3123L215.213 91.0659C219.699 91.9479 221.242 91.8426 223.144 90.5229C225.102 89.1604 226.04 87.1529 225.892 84.6188C225.747 82.0683 224.954 80.9691 221.265 78.1981C219.778 77.0824 218.435 76.0556 218.28 75.9207C218.125 75.7825 218.234 74.2883 218.524 72.5968C218.813 70.9052 219.09 69.0951 219.136 68.5718C219.218 67.6734 219.419 67.5549 223.006 66.3241C227.35 64.8333 228.588 64.0237 229.555 62.0227C231.191 58.6461 229.522 54.1835 226.149 52.9066C225.372 52.6137 218.784 51.5869 217.678 51.5869C217.533 51.5869 217.411 51.3434 217.411 51.0472C217.411 50.7543 216.819 49.0364 216.095 47.2296L214.778 43.9518L217.329 41.003C220.508 37.327 220.834 36.7214 220.844 34.4736C220.857 30.7614 217.964 27.7962 214.331 27.7962C213.36 27.7962 212.416 27.8883 212.231 28.0035C212.027 28.1286 212.198 28.7999 212.682 29.751C214.074 32.5023 213.498 36.4153 211.04 40.9537C210.418 42.1022 210.059 43.1158 210.22 43.2771C210.378 43.4351 210.099 45.5677 209.575 48.1511L208.647 52.7388L209.236 55.0425C213.238 70.7571 206.449 87.4787 192.59 96.0387C189.372 98.0232 186.012 99.4416 181.891 100.551C179.055 101.317 178.153 101.403 172.818 101.403C167.447 101.403 166.591 101.321 163.656 100.531C154.086 97.954 145.93 91.8788 140.846 83.5394L139.559 81.4298L134.975 81.5055C132.454 81.5483 130.275 81.6536 130.134 81.7425C129.992 81.8281 130.157 82.4534 130.502 83.1313L131.131 84.3621L128.656 87.1463C127.293 88.6767 125.885 90.5789 125.52 91.3753C124.108 94.4721 125.437 98.2272 128.524 99.8563C130.729 101.021 132.385 100.87 136.449 99.1355C138.348 98.3259 140.132 97.6611 140.415 97.6611C140.698 97.6611 141.418 98.1647 142.011 98.7768C142.607 99.3889 143.89 100.465 144.867 101.163C145.842 101.86 146.645 102.677 146.648 102.973C146.651 103.269 146.358 104.951 145.996 106.711C145.19 110.631 145.183 111.608 145.957 113.293C146.789 115.104 147.527 115.643 149.475 115.86C150.393 115.962 151.693 116.308 152.361 116.624C153.543 117.19 153.615 117.187 155.027 116.499C156.129 115.966 157.09 114.988 159.002 112.464C160.671 110.259 161.681 109.193 161.991 109.311C162.247 109.41 164.061 109.742 166.022 110.052L169.59 110.618L170.834 114.422C171.913 117.726 172.265 118.411 173.499 119.606C175.596 121.636 178.429 122.077 181.046 120.781ZM101.716 120.287C103.875 110.197 102.963 101.067 98.9709 92.8332C92.7246 79.9489 80.5972 71.3791 66.4392 69.8455L64.3824 69.6217L64.5699 71.2178C64.9352 74.3542 65.7876 77.8723 66.4853 79.113L67.1929 80.3767L70.8525 80.7585C75.8252 81.2752 76.309 81.3969 79.5144 82.9306C84.6254 85.3692 89.8219 91.428 94.9789 100.952C97.5031 105.616 97.7993 107.129 96.4566 108.531L95.5351 109.492L97.9343 114.521C99.254 117.285 100.478 119.954 100.653 120.451C101.077 121.649 101.436 121.593 101.716 120.287ZM20.0853 115.758C24.0543 114.857 27.3716 114.047 27.4605 113.958C27.6382 113.777 22.9814 101.627 22.5503 101.146C22.3923 100.972 21.4642 101.281 20.3288 101.887C18.1173 103.065 16.9983 103.19 16.2315 102.341C15.7741 101.834 15.6885 100.406 15.6029 91.869L15.5075 81.9795L16.3961 80.6894C18.1732 78.1059 18.7129 76.4012 18.578 73.7651C18.4496 71.2277 17.9 70.1417 16.9259 70.5168C16.5573 70.6584 16.3697 71.3528 16.2512 73.0279C16.1361 74.6174 15.8827 75.6179 15.4351 76.2169C14.507 77.4675 13.3222 78.0566 12.2757 77.7933C11.5385 77.609 11.3937 77.3918 11.3937 76.4736C11.3937 75.8483 11.6965 74.986 12.0881 74.4858C13.0392 73.2813 13.2202 73.6269 12.4238 75.1177C11.6669 76.5262 11.815 77.2568 12.8516 77.2568C14.9579 77.2568 16.373 73.1135 15.3067 70.0594C14.6321 68.1144 14.0891 68.2065 11.3049 70.734C8.31003 73.4458 8.30016 73.5018 9.7482 78.0269C10.2912 79.7218 10.7388 81.4661 10.7421 81.8972C10.7487 82.3316 9.61985 89.0551 8.23433 96.8384C5.91746 109.864 5.74633 111.108 6.11821 112.471C6.79616 114.959 9.66922 117.206 12.381 117.368C12.6509 117.384 16.1196 116.66 20.0853 115.758ZM7.81638 95.624C8.51737 91.7735 9.09 88.5088 9.09 88.3706C9.09 87.8342 6.54605 88.16 4.97623 88.8972C3.04111 89.8055 2.44873 90.411 1.54699 92.4021C0.36881 94.9954 0.813098 98.2963 2.6067 100.254C3.4492 101.176 6.17745 102.989 6.39466 102.772C6.47364 102.69 7.11539 99.4745 7.81638 95.624ZM20.1741 101.212C21.971 100.264 22.1882 100.044 22.0533 99.3099C21.9645 98.8393 22.1751 97.987 22.5437 97.332C22.8958 96.7002 23.9259 94.6992 24.8342 92.8892C25.7392 91.0791 27.286 88.4068 28.27 86.9522C29.8333 84.6452 30.09 84.033 30.2907 82.1506C30.8634 76.8093 34.4144 72.7383 42.3293 68.3546C48.49 64.9419 50.0631 63.3556 51.2545 59.3504C52.0674 56.6156 52.8342 55.0227 54.0124 53.6241L54.8647 52.6071L53.6142 51.2249C50.4943 47.7628 45.696 47.7463 42.5925 51.1887C40.8812 53.0876 40.5653 54.5653 40.7956 59.5676L40.9898 63.7637L38.9461 64.7971C37.8206 65.3631 36.0862 66.3471 35.0923 66.9823L33.2855 68.1341L32.1304 67.4858C31.4952 67.1304 29.7411 66.0444 28.2305 65.0735C25.8709 63.5531 25.216 63.2865 23.531 63.1647C20.8949 62.9771 19.019 63.7209 17.3439 65.6198C15.9913 67.16 15.4746 68.5455 15.8333 69.6809C16.0077 70.2305 16.1591 70.2832 16.7087 69.9903C17.6433 69.4901 18.2621 69.829 18.815 71.152C19.3185 72.3598 19.4238 75.9766 18.9894 77.0923C18.8084 77.5563 18.996 78.1718 19.6344 79.1953L20.5362 80.64L19.1342 82.8154C18.3608 84.0133 17.3307 85.7839 16.8436 86.7547L15.9551 88.5187L16.1591 94.6531C16.2743 98.0264 16.4355 101.12 16.5211 101.528C16.735 102.578 17.7552 102.489 20.1741 101.212ZM212.258 97.0062C214.176 93.5309 214.946 91.8393 214.676 91.6945C214.463 91.5793 213.692 91.3852 212.968 91.2667L211.652 91.0528L209.302 93.9785L206.952 96.9042L208.114 99.5963C208.749 101.077 209.312 102.249 209.361 102.196C209.408 102.147 210.714 99.8102 212.258 97.0062ZM178.962 100.468C180.486 100.202 182.763 99.6687 184.024 99.2836C186.397 98.5596 191.613 96.1637 191.926 95.6536C192.07 95.4232 191.195 91.9315 190.876 91.4576C190.833 91.3918 190.01 91.6155 189.046 91.9512C187.713 92.4153 186.403 92.5535 183.514 92.5304C180.091 92.5074 179.37 92.3889 175.968 91.2864C173.897 90.6184 170.863 89.8285 169.221 89.5323C164.439 88.6734 153.799 88.805 152.279 89.7463C152.025 89.9009 151.696 90.8948 151.548 91.9512C151.288 93.781 151.318 93.9127 152.134 94.5808C153.579 95.7655 158.515 98.2042 161.359 99.1355C166.842 100.936 173.427 101.433 178.962 100.468ZM195.595 93.1755C205.33 85.718 210.905 72.7482 209.552 60.7129C209.338 58.8074 208.98 56.6255 208.759 55.8587L208.354 54.4633L207.262 59.3307C205.422 67.5385 203.671 71.4778 201.193 72.9884C199.051 74.2949 195.648 73.5545 192.344 71.0566C191.346 70.3029 190.455 69.6875 190.359 69.6875C190.267 69.6875 190.622 71.2804 191.152 73.2253C192.446 77.9743 193.96 84.5991 194.233 86.7021C194.44 88.2916 194.387 88.4825 193.509 89.3579C192.989 89.8779 192.304 90.4439 191.985 90.6217C191.442 90.9244 191.439 91.0495 191.939 92.7378C192.518 94.7058 192.666 95.0283 192.972 95.0283C193.084 95.0283 194.266 94.1957 195.595 93.1755ZM62.8356 93.5507C65.6724 92.8102 67.7425 91.6254 69.3847 89.7989C71.1191 87.8671 71.8036 85.876 71.4745 83.6974L71.254 82.2098L69.5953 81.9926C66.5544 81.5878 65.1821 79.5112 64.3955 74.1304C64.1849 72.6823 63.9414 71.0171 63.8525 70.428C63.711 69.4999 63.5629 69.3584 62.7171 69.3584C62.184 69.3584 61.7462 69.2103 61.7462 69.0293C61.7462 68.8351 62.9409 68.7002 64.6687 68.7002C66.6959 68.7002 67.6997 68.5653 67.9531 68.2625C68.1506 68.0223 68.6146 66.8737 68.9766 65.712C69.3419 64.5502 69.773 63.3951 69.9376 63.145C70.1383 62.8356 69.9409 62.2268 69.3255 61.2559C68.8252 60.4694 68.2296 59.153 67.9992 58.3335L67.5812 56.8427L66.0641 57.7115C64.0763 58.8502 62.2333 60.6306 61.5488 62.0655C61.2493 62.7007 60.7227 65.0801 60.3772 67.3575C59.538 72.8798 58.9818 74.8709 57.2507 78.5041C55.365 82.4632 53.0152 84.8953 49.3589 86.6659C47.9371 87.357 46.6964 87.979 46.6076 88.0514C46.3673 88.2455 48.8191 90.3386 50.7575 91.5958C54.3382 93.916 58.7086 94.6235 62.8356 93.5507ZM30.9325 87.2944C30.4322 84.915 30.3598 84.915 28.767 87.3274C27.9409 88.5779 26.7924 90.5493 26.2099 91.7077L25.1534 93.8172L28.1483 91.0495C30.9226 88.4858 31.1266 88.2093 30.9325 87.2944ZM127.162 87.9526C130.519 84.089 130.384 84.3556 129.722 82.8911L129.156 81.6339L125.151 81.4134C119.662 81.1106 116.963 80.6861 116.499 80.0509C116.183 79.6165 115.265 79.5145 111.167 79.4618L106.218 79.396L105.694 80.2813C105.191 81.1337 105.214 81.2357 106.287 82.9141C106.899 83.8751 107.794 85.4383 108.275 86.3894L109.147 88.1172L113.833 88.1238C117.68 88.1304 118.757 88.2423 119.859 88.7425C121.475 89.4764 123.552 91.5333 123.854 92.7016C124.055 93.4783 124.111 93.4223 124.512 92.0269C124.809 90.9935 125.658 89.6837 127.162 87.9526ZM150.416 92.7082C150.067 92.5831 149.712 92.5403 149.626 92.6193C149.36 92.8628 150.39 93.3499 150.732 93.1393C150.91 93.0307 150.768 92.8365 150.416 92.7082ZM147.964 90.5624C147.787 90.0984 147.642 87.4327 147.642 84.6386C147.642 81.4035 147.52 79.5606 147.306 79.5606C147.122 79.5606 145.898 79.8535 144.591 80.2122C143.281 80.5676 141.79 80.9461 141.277 81.0481C140.142 81.2752 140.194 81.4628 142.294 84.6188C143.584 86.5605 147.777 91.4082 148.168 91.4082C148.231 91.4082 148.139 91.0297 147.964 90.5624ZM17.9955 83.4867L19.6706 80.7124L19.1144 79.6659L18.555 78.6226L17.3998 80.3241C16.4257 81.7622 16.2183 82.3908 16.0801 84.3325C15.9913 85.5996 16.0077 86.5507 16.1196 86.4486C16.2315 86.3433 17.0773 85.0105 17.9955 83.4867ZM115.554 78.7181C116.14 78.5601 116.199 78.3133 116.101 76.4176C116.012 74.703 115.887 74.2949 115.442 74.2949C115.143 74.2949 114.024 73.7025 112.961 72.9785C110.825 71.5272 109.183 71.1783 109.785 72.3006C109.973 72.6527 110.276 73.0345 110.457 73.1431C110.634 73.255 110.782 73.561 110.782 73.821C110.782 74.2061 110.052 74.2949 106.833 74.2949C102.42 74.2949 102.278 74.3871 103.549 76.444C104.171 77.451 105.494 78.3034 106.998 78.6687C107.922 78.8892 114.758 78.9287 115.554 78.7181ZM126.296 72.1755C132.497 70.6057 135.175 67.4661 135.58 61.2921C136.38 49.1121 143.778 37.4981 154.49 31.5973C155.882 30.8305 157.133 30.1657 157.268 30.1163C157.403 30.0703 157.232 29.2903 156.89 28.3853C156.333 26.9241 156.136 26.72 155.109 26.5489C152.786 26.1671 151.055 24.1925 151.338 22.2508C151.459 21.4281 151.196 21.0529 149.314 19.381C145.97 16.4125 144.222 15.7346 141.619 16.3895C138.489 17.1794 136.179 20.3387 136.528 23.3632C136.617 24.1333 137.351 26.3152 138.16 28.2108L139.635 31.6598L137.96 33.6641C137.041 34.7632 135.843 36.2047 135.3 36.8629L134.313 38.0641L130.384 37.2776C125.704 36.3396 123.917 36.57 121.853 38.3801C120.284 39.759 119.411 42.8295 119.984 44.9555C120.465 46.7458 121.722 48.1379 125.138 50.6687C127.395 52.3406 127.896 52.8605 127.744 53.3937C127.639 53.759 127.316 55.569 127.024 57.4153L126.49 60.7787L123.324 61.8154C119.069 63.2075 117.572 64.1158 116.502 65.939C115.485 67.68 115.331 70.1219 116.12 71.9978L116.607 73.1529L120.405 72.9292C122.495 72.8074 125.144 72.4684 126.296 72.1755ZM149.09 61.1407C150.133 53.5451 150.248 52.1629 149.801 52.6071C149.379 53.0317 146.967 71.5338 147.29 71.8629C147.543 72.1196 147.747 70.892 149.09 61.1407ZM11.4595 69.7895C12.5456 68.7496 12.5916 68.1144 11.7656 65.4684C11.1765 63.5662 9.84035 61.2559 9.52112 61.5784C9.3105 61.7858 10.1234 70.6748 10.3537 70.6748C10.4525 70.6748 10.9494 70.2766 11.4595 69.7895ZM137.614 57.6753C141.099 48.3157 145.99 41.24 150.34 39.2489C151.301 38.8112 153.197 38.2912 154.553 38.0905C157.729 37.6264 158.66 37.2513 159.118 36.2475C159.703 34.9607 159.562 33.9175 158.568 32.1765L157.646 30.5639L155.251 31.8639C146.128 36.8136 139.454 45.5545 137.137 55.5888C136.406 58.7548 135.972 61.3711 136.219 61.1309C136.311 61.042 136.939 59.4854 137.614 57.6753ZM198.182 51.3401C198.682 50.4811 200.031 48.3222 201.183 46.5418L203.276 43.3034L202.134 41.7501C200.492 39.5122 195.881 35.1878 193.387 33.5456C187.091 29.4022 180.825 27.5 173.266 27.4374C167.5 27.3881 167.299 27.5131 167.895 30.7745C168.118 31.9955 168.398 33.5489 168.517 34.2268C168.737 35.4708 169.784 36.7774 170.567 36.7774C170.804 36.7774 170.906 36.5634 170.797 36.2837C170.534 35.5959 171.123 35.665 171.788 36.4022C172.242 36.9024 172.992 37.0472 175.872 37.1887C179.68 37.373 181.381 37.8733 183.784 39.499C185.827 40.8812 193.259 48.1873 195.197 50.7181C196.102 51.8996 196.938 52.8737 197.056 52.8836C197.178 52.8935 197.682 52.199 198.182 51.3401ZM210.296 40.9734C213.37 35.4379 213.587 30.9292 210.915 28.1384C209.697 26.8681 208.937 26.957 208.667 28.3984C208.545 29.0369 208.542 30.0275 208.654 30.5935C208.769 31.1629 208.766 32.3444 208.651 33.2165C208.489 34.4309 208.305 34.8027 207.861 34.8027C207.463 34.8027 207.216 34.4539 207.071 33.6838C206.831 32.397 206.09 31.5808 205.715 32.1897C205.432 32.6471 205.455 38.9527 205.748 40.901C205.942 42.2075 206.041 42.3128 207.324 42.6222C208.075 42.8032 208.795 42.9678 208.92 42.9908C209.049 43.0138 209.664 42.1055 210.296 40.9734ZM204.975 37.1295C204.873 33.3119 204.945 32.2061 205.323 31.7059C205.949 30.8733 206.831 31.2254 207.311 32.499C207.515 33.0421 207.798 33.4863 207.94 33.4863C208.243 33.4863 208.289 30.3994 207.989 30.0999C207.877 29.9847 207.262 30.1098 206.62 30.3796C205.304 30.9292 205.485 31.0148 202.385 28.3853C201.318 27.4802 200.12 26.516 199.719 26.2461L198.991 25.7525L199.804 21.8032C200.851 16.7285 200.591 15.0665 198.435 13.0162C196.382 11.0646 193.361 10.5842 190.843 11.8018C189.76 12.3251 188.789 13.3091 186.913 15.7873L184.422 19.0783L183.063 18.8413C182.316 18.713 180.562 18.4365 179.166 18.2292C177.771 18.0186 176.494 17.7026 176.323 17.5216C176.155 17.3439 175.52 15.6622 174.911 13.7863C173.177 8.43183 170.906 6.47697 166.976 6.941C163.616 7.33922 161.421 9.87001 160.967 13.8686L160.747 15.8103L161.642 15.1027C162.853 14.1516 165.785 14.1253 167.306 15.0534C168.484 15.7708 168.48 15.7642 168.388 18.3542C168.339 19.7628 168.477 20.3618 169.01 21.0397C169.971 22.2607 170.133 23.5178 169.573 25.3542L169.089 26.9306L170.975 26.7167C173.516 26.4304 179.087 27.0656 182.842 28.0693C190.188 30.0341 197.738 35.0101 202.25 40.8615C203.48 42.4544 203.684 42.5926 204.356 42.2766C205.09 41.9311 205.1 41.8455 204.975 37.1295ZM168.8 40.5554C170.745 39.7886 172.976 38.4426 172.979 38.0312C172.983 37.9062 172.315 37.7054 171.498 37.5837C170.682 37.4586 169.659 37.0801 169.221 36.7379C168.434 36.1192 168.428 36.1192 167.773 37.0209C167.411 37.5211 166.996 37.814 166.855 37.6725C166.716 37.531 166.983 37.0341 167.45 36.5634C168.214 35.8032 168.267 35.5926 167.977 34.5197C167.799 33.8615 167.444 33.0881 167.19 32.8018C166.638 32.1765 166.582 31.7125 167.102 32.0317C167.513 32.2851 167.243 29.7083 166.723 28.4248C166.486 27.839 166.44 27.9146 166.42 28.8954C166.41 29.5404 166.032 30.8074 165.578 31.7158C164.597 33.6871 162.642 34.9903 161.122 34.6843C160.253 34.5098 160.157 34.5888 159.963 35.609C159.697 37.0406 158.709 37.9358 156.87 38.4262L155.399 38.8145L156.705 39.6142C160.164 41.727 164.89 42.0956 168.8 40.5554ZM163.376 33.4798C164.656 32.6965 165.726 30.5705 165.736 28.7802C165.739 27.8357 165.96 27.3453 166.634 26.7628C167.447 26.0651 167.493 25.9137 167.121 25.1008C166.792 24.3768 166.559 24.2419 165.923 24.4031C165.252 24.571 165.018 24.3933 164.363 23.2019C163.88 22.3232 163.323 21.7637 162.869 21.6979C162.471 21.642 160.868 22.2278 159.312 22.9979L156.478 24.4031L156.695 25.5714C157.12 27.8357 158.887 31.854 159.963 32.996C161.211 34.3157 161.852 34.4078 163.376 33.4798ZM24.3735 232.218C22.6227 231.75 21.7604 230.5 21.7604 228.426C21.7604 226.797 21.869 226.518 22.8366 225.655C23.6922 224.889 24.2155 224.694 25.42 224.694C26.6969 224.694 27.0984 224.865 28.0463 225.813C28.9941 226.761 29.1652 227.163 29.1652 228.44C29.1652 231.007 26.8088 232.866 24.3735 232.218ZM26.6805 231.467C27.9771 230.928 28.5728 229.986 28.5728 228.479C28.5728 226.995 27.9804 226.034 26.7529 225.52C25.3377 224.928 24.0575 225.237 23.0735 226.406C21.6551 228.091 22.3199 230.789 24.357 231.612C25.318 232 25.4233 231.994 26.6805 231.467ZM66.6828 226.429C65.9127 226.04 65.2249 225.274 64.6061 224.118C63.6879 222.404 63.6649 222.391 62.1083 222.391C60.5582 222.391 60.5187 222.417 59.6433 224.03C58.5342 226.063 57.695 226.672 55.9968 226.662C53.6504 226.649 52.5314 225.198 52.5281 222.167C52.5248 220.281 52.5051 220.242 51.2183 219.504L49.9118 218.757L48.1511 219.751C47.1835 220.298 46.0613 220.745 45.6598 220.745C44.4026 220.745 42.9578 219.768 42.4609 218.583C41.908 217.25 42.1121 216.118 43.2047 214.499C44.1492 213.097 44.1525 212.86 43.2836 211.385C42.6123 210.244 42.5399 210.214 40.5587 210.214C38.2714 210.214 37.35 209.747 36.5404 208.18C35.5201 206.212 36.4318 204.441 39.1732 203.059C40.3941 202.444 40.4665 202.325 40.5192 200.785C40.5784 199.159 40.5784 199.159 38.9033 198.182C36.7181 196.905 35.846 195.289 36.412 193.571C36.9616 191.909 38.3767 191.129 40.8483 191.126C42.8163 191.119 42.8262 191.116 43.5469 189.787L44.271 188.45L43.3001 186.874C42.767 186.005 42.3293 184.866 42.3293 184.343C42.3325 182.908 43.4219 181.378 44.758 180.937C45.7486 180.608 46.1337 180.647 47.3349 181.194C48.1116 181.549 49.0265 182.053 49.372 182.316C49.9315 182.747 50.1487 182.711 51.4289 181.997L52.8605 181.197V179.091C52.8605 177.258 52.9757 176.856 53.7655 175.981C55.6842 173.851 58.3861 174.572 59.9296 177.62C60.7655 179.265 60.782 179.278 62.3584 179.278C63.892 179.278 63.971 179.232 64.5337 177.985C65.4322 175.991 66.7387 174.911 68.2526 174.911C70.7636 174.911 72.0965 176.692 71.9056 179.785C71.8168 181.23 71.8661 181.315 73.1792 182.099L74.545 182.915L76.1642 181.918C77.9644 180.812 79.0833 180.684 80.5116 181.421C82.4402 182.418 82.7166 184.702 81.206 187.16L80.2582 188.697L81.0744 190.076L81.8873 191.455H83.9507C86.3696 191.455 87.4787 192.123 88.0777 193.93C88.6503 195.668 87.7453 197.28 85.5238 198.468C83.8158 199.383 83.7961 199.413 83.7961 200.937C83.7961 202.444 83.8356 202.5 85.4317 203.398C87.4754 204.547 88.0744 205.386 88.0744 207.097C88.0744 209.391 86.3268 210.655 83.3748 210.5C81.8247 210.418 81.7655 210.448 80.9493 211.817L80.1134 213.215L80.9789 214.519C82.0716 216.171 82.3414 217.517 81.828 218.754C80.9131 220.966 78.4646 221.416 75.9239 219.837L74.3607 218.866L72.9884 219.672C71.6555 220.462 71.6193 220.528 71.6193 222.239C71.6193 224.388 71.2244 225.494 70.2338 226.136C68.9536 226.965 67.9103 227.051 66.6828 226.429ZM57.9155 225.395C58.2512 225.099 58.8831 224.155 59.3175 223.296L60.1106 221.732H62.0754H64.0401L64.8563 223.345C66.3965 226.386 68.5159 227.107 70.2206 225.172C70.8295 224.477 70.9611 223.937 70.9644 222.124L70.9677 219.922L72.6757 219.017L74.3837 218.112L75.6475 218.948C77.6715 220.288 78.4152 220.472 79.6724 219.949C81.7556 219.077 81.9827 217.642 80.4688 214.881L79.4453 213.011L80.3339 211.448L81.2192 209.885H83.1444C86.3236 209.885 87.5478 209.019 87.4853 206.821C87.4524 205.613 86.6724 204.754 84.7011 203.757L83.1379 202.964V200.999V199.034L84.7011 198.241C85.56 197.807 86.5539 197.132 86.9061 196.74C87.8078 195.743 87.742 193.983 86.7678 192.946C86.08 192.215 85.7147 192.113 83.7664 192.113H81.5483L80.5215 190.441L79.4914 188.773L80.4326 187.233C81.7754 185.034 81.8708 184.639 81.3508 183.399C80.482 181.319 79.0175 181.088 76.2563 182.606L74.3936 183.632L72.781 182.609L71.1684 181.589L71.2507 179.851C71.3593 177.495 70.8821 176.389 69.5098 175.813C67.7326 175.072 66.584 175.652 65.3335 177.926L64.3001 179.805L62.3123 179.752L60.3245 179.703L59.5643 178.205C58.6889 176.481 57.3791 175.329 56.2963 175.329C55.8817 175.329 55.0951 175.708 54.5455 176.168C53.6339 176.938 53.5385 177.208 53.4496 179.315L53.3542 181.618L51.6988 182.573L50.0467 183.527L48.4505 182.487C46.3772 181.141 44.8502 181.098 43.7674 182.359C42.7308 183.563 42.7834 184.603 43.9978 186.719L45.0049 188.483L44.0801 190.135L43.152 191.784H41.003C38.6236 191.784 37.5573 192.291 37.034 193.673C36.4449 195.22 37.1887 196.52 39.2982 197.645L41.1774 198.646L41.1215 200.693L41.0688 202.743L39.2719 203.708C36.5831 205.149 36.0138 206.913 37.6955 208.595C38.561 209.457 38.8737 209.556 40.7726 209.556H42.8887L43.9287 211.228L44.9686 212.903L43.7806 214.825C42.4181 217.036 42.4444 218.297 43.8793 219.425C45.0476 220.344 46.2159 220.251 48.0359 219.1C48.8915 218.557 49.7275 218.112 49.8887 218.112C50.0533 218.112 50.8563 218.52 51.679 219.017L53.1699 219.922L53.1797 222.002C53.1929 224.474 53.5483 225.254 54.9437 225.856C56.0923 226.353 56.9809 226.215 57.9155 225.395ZM14.0529 217.912C12.2132 217.138 11.9795 214.785 13.6151 213.498C14.7933 212.574 15.8892 212.682 17.051 213.847C17.8869 214.68 18.0185 215.019 17.8474 215.881C17.4426 217.898 15.9353 218.705 14.0529 217.912ZM16.5112 216.977C16.9555 216.533 17.3175 215.865 17.3175 215.496C17.3175 214.578 16.1756 213.505 15.2014 213.505C14.3721 213.505 13.0392 214.861 13.0392 215.703C13.0392 216.335 14.53 217.783 15.1784 217.783C15.468 217.783 16.067 217.421 16.5112 216.977ZM216.644 197.817C216.306 197.481 216.384 196.125 216.753 195.898C216.951 195.776 217.082 196.168 217.082 196.866C217.082 198.07 217.023 198.198 216.644 197.817ZM212.968 194.088C213.08 193.907 213.607 193.759 214.14 193.759C214.673 193.759 215.108 193.907 215.108 194.088C215.108 194.269 214.581 194.417 213.936 194.417C213.238 194.417 212.847 194.285 212.968 194.088ZM218.399 194.088C218.399 193.907 218.919 193.759 219.55 193.759C220.182 193.759 220.702 193.907 220.702 194.088C220.702 194.269 220.182 194.417 219.55 194.417C218.919 194.417 218.399 194.269 218.399 194.088ZM216.424 191.291C216.424 190.659 216.572 190.139 216.753 190.139C216.934 190.139 217.082 190.659 217.082 191.291C217.082 191.922 216.934 192.442 216.753 192.442C216.572 192.442 216.424 191.922 216.424 191.291ZM229.588 181.681C229.315 181.582 228.686 181.121 228.189 180.657C227.455 179.973 227.284 179.528 227.284 178.291C227.284 177.054 227.455 176.609 228.189 175.921C229.387 174.799 230.348 174.546 231.704 174.993C234.65 175.964 234.732 180.542 231.819 181.559C230.727 181.937 230.355 181.957 229.588 181.681ZM232.636 180.223C233.56 179.11 233.669 178.084 232.991 176.925C231.253 173.947 226.847 175.997 227.985 179.259C228.667 181.213 231.352 181.77 232.636 180.223ZM98.7011 51.9094C97.9408 51.6067 96.1407 49.3424 95.7984 48.263C95.6371 47.7595 95.2817 47.6377 93.9818 47.6377C92.3724 47.6377 92.3593 47.6476 91.5431 49.2602C90.5361 51.2447 89.6343 51.916 87.9789 51.916C85.5173 51.916 84.4576 50.5601 84.451 47.4073C84.4477 45.515 84.4378 45.492 83.1181 44.7745L81.7885 44.0538L79.8797 45.0937C78.1849 46.0185 77.8327 46.0975 76.7006 45.8145C75.8088 45.594 75.1933 45.153 74.647 44.3467C73.6992 42.9447 73.8144 41.7336 75.088 39.7195L75.9766 38.3143L75.2822 36.886L74.5911 35.4609H72.4519C70.5826 35.4609 70.1844 35.3458 69.2991 34.5559C68.5784 33.9109 68.2328 33.2527 68.1012 32.2621C67.9334 30.9983 68.0189 30.7745 69.0358 29.7938C69.6513 29.2014 70.632 28.461 71.2178 28.1549C72.1952 27.6349 72.2775 27.4671 72.2775 25.94C72.2775 24.4064 72.2018 24.2485 71.2079 23.7482C68.5521 22.4088 67.5944 20.6119 68.4468 18.5682C69.0819 17.0543 70.4378 16.3731 72.837 16.3698C74.7293 16.3665 74.7523 16.3566 75.4698 15.0369L76.1905 13.7073L75.223 12.177C73.5478 9.53762 74.16 7.0167 76.6776 6.18407C77.9249 5.77269 78.8562 6.0261 80.7058 7.28327L81.8675 8.07311L83.3254 7.25694L84.7834 6.44406V4.35756C84.7834 2.60674 84.9183 2.11308 85.616 1.28375C87.4228 -0.865287 90.0424 -0.263031 91.7109 2.6923C92.741 4.51881 92.7509 4.5254 94.3174 4.5254C95.7786 4.5254 95.9234 4.44971 96.3282 3.47227C96.5685 2.89635 97.1938 1.93208 97.7203 1.33311C98.5266 0.414921 98.8952 0.247079 100.116 0.247079C101.245 0.247079 101.791 0.454412 102.631 1.20805C103.654 2.12296 103.703 2.27764 103.654 4.3411L103.605 6.50988L105.026 7.34251L106.448 8.17513L108.074 7.17137C109.867 6.06888 111.006 5.92737 112.379 6.64152C114.281 7.62224 114.597 10.1497 113.096 12.4107L112.125 13.8752L112.856 15.208L113.59 16.5376L115.999 16.7022C118.131 16.847 118.503 16.9753 119.204 17.7915C120.145 18.8874 120.284 21.0825 119.481 22.2311C119.198 22.6359 118.233 23.3368 117.341 23.791C115.735 24.6039 115.719 24.6269 115.719 26.2C115.719 27.7633 115.742 27.7995 117.358 28.6782C119.362 29.7708 119.997 30.6264 119.997 32.239C119.997 33.1375 119.737 33.7661 119.049 34.5362C118.177 35.5136 117.904 35.609 115.745 35.7341L113.389 35.8657L112.731 37.1591L112.069 38.4558L113.106 40.2658C114.32 42.3885 114.254 43.7477 112.869 45.1332C111.536 46.4661 109.716 46.42 107.659 45.0082L106.287 44.0637L104.915 44.8831C103.568 45.6828 103.542 45.7355 103.542 47.5093C103.542 49.7736 102.838 51.1722 101.393 51.7778C100.126 52.3076 99.7312 52.3274 98.7011 51.9094ZM89.8384 50.6424C90.174 50.3462 90.796 49.4214 91.2206 48.5855L91.9907 47.0651L94.0245 47.121L96.0584 47.1737L96.9832 49.0035C98.0001 51.0143 99.1914 51.7844 100.699 51.4059C102.226 51.0209 102.884 49.8032 102.887 47.3481L102.891 45.1694L104.599 44.2644L106.307 43.3594L107.57 44.1953C110.249 45.9692 111.947 45.9033 112.938 43.988C113.616 42.6749 113.544 42.1615 112.428 40.3481C111.885 39.4628 111.441 38.6137 111.441 38.4591C111.441 38.3044 111.822 37.4915 112.293 36.6556L113.142 35.1318H115.107C117.17 35.1318 118.793 34.5296 119.135 33.6377C119.247 33.3415 119.339 32.6241 119.339 32.035C119.339 30.8074 118.562 29.9649 116.459 28.9085L115.061 28.2076V26.2724V24.334L116.798 23.3533C118.997 22.1126 119.471 21.5334 119.471 20.0853C119.471 18.216 118.21 17.3604 115.452 17.3604H113.251L112.316 15.57L111.381 13.7797L112.398 12.3021C113.688 10.4295 113.761 8.79055 112.609 7.63541C111.533 6.56254 110.43 6.61519 108.186 7.85262L106.326 8.87283L104.687 7.90527L103.049 6.93442L103.157 5.10462C103.289 2.83711 102.64 1.44172 101.222 0.948067C99.5699 0.372139 98.2601 1.1192 97.128 3.28468L96.1802 5.09145L94.1858 5.0388L92.1947 4.98614L91.1976 3.20241C89.7133 0.54656 88.1665 -0.0326592 86.2643 1.35615C85.7378 1.7412 85.5732 2.33687 85.4416 4.35098L85.277 6.86531L83.6052 7.82958L81.9333 8.79385L80.3142 7.75388C78.333 6.48355 76.8948 6.3947 75.7429 7.47744C74.5812 8.57006 74.6372 10.1333 75.9141 12.1211L76.9178 13.6843L75.9963 15.3528L75.0749 17.0214L72.8271 17.028C70.7867 17.0313 70.4938 17.1201 69.6184 17.9922C67.9498 19.6608 68.5126 21.4511 71.1783 22.9551L72.9357 23.949V26.0289V28.1088L71.2902 28.8789C68.8878 30.0044 68.1111 31.515 69.0391 33.2626C69.6941 34.4868 70.3917 34.783 72.656 34.7929L74.8478 34.8027L75.8088 36.5042L76.7697 38.2057L75.6738 40.0223C74.3311 42.2569 74.3048 43.1323 75.5422 44.373C76.7961 45.6269 77.9677 45.6104 80.0147 44.3105L81.624 43.2903L83.3682 44.2282L85.1092 45.1694L85.1125 47.3481C85.1125 49.0298 85.2638 49.7143 85.7772 50.3692C86.7942 51.6593 88.545 51.7778 89.8384 50.6424ZM11.7919 41.6481C9.91605 41.1478 8.84976 38.5051 9.78769 36.672C10.4196 35.4313 11.476 34.8192 12.9833 34.8093C15.0204 34.7995 16.3302 36.1323 16.3302 38.2155C16.3302 40.7364 14.2602 42.303 11.7919 41.6481ZM14.9316 40.3152C15.9814 39.3378 15.9485 37.35 14.8657 36.2672C13.1281 34.5329 10.0773 35.744 10.0773 38.1695C10.0773 40.9504 12.9109 42.2009 14.9316 40.3152ZM19.7266 21.6321C18.2588 21.0496 17.8276 18.8249 18.963 17.6895C20.4341 16.2184 22.9123 17.3209 22.9123 19.4502C22.9123 21.122 21.2701 22.2475 19.7266 21.6321ZM21.5235 20.7962C22.3298 20.2334 22.5141 18.7393 21.8591 18.0844C21.6419 17.8672 21.0792 17.6895 20.6086 17.6895C19.5061 17.6895 18.963 18.2489 18.963 19.381C18.963 20.1643 19.9405 21.3096 20.6086 21.3096C20.7106 21.3096 21.122 21.0792 21.5235 20.7962ZM207.867 17.6335C207.867 16.9983 209.055 15.8991 209.306 16.3039C209.408 16.4718 209.128 16.949 208.68 17.3702C208.068 17.9429 207.867 18.0087 207.867 17.6335ZM212.011 17.0642C211.158 16.1196 211.932 15.9386 212.814 16.8766C213.386 17.4887 213.452 17.6895 213.077 17.6895C212.801 17.6895 212.323 17.4064 212.011 17.0642ZM32.1271 15.6754C32.1271 15.0501 33.3547 13.8719 33.6739 14.1911C33.7989 14.3162 33.5028 14.8164 33.0157 15.3068C32.3641 15.9551 32.1271 16.0538 32.1271 15.6754ZM36.5667 15.0534C35.688 14.0825 36.1586 13.9311 37.0636 14.8921C37.4882 15.3463 37.6856 15.7149 37.5013 15.7149C37.317 15.7149 36.8958 15.4187 36.5667 15.0534ZM208.219 13.2696C207.818 12.8418 207.627 12.4074 207.795 12.3054C207.963 12.2 208.43 12.4666 208.832 12.8944C209.233 13.3223 209.424 13.7567 209.256 13.8587C209.088 13.964 208.621 13.6975 208.219 13.2696ZM212.146 12.9175C213.028 11.9795 213.36 12.0454 212.82 13.0524C212.616 13.4309 212.208 13.7402 211.912 13.7402C211.474 13.7402 211.517 13.5856 212.146 12.9175ZM32.4661 11.2819C31.7289 10.3933 32.295 10.0708 33.0947 10.9231C33.6969 11.5649 33.766 11.7656 33.3777 11.7656C33.0947 11.7656 32.6866 11.5484 32.4661 11.2819ZM36.4054 10.9429C36.83 10.4887 37.3269 10.1201 37.5079 10.1201C37.6889 10.1201 37.4882 10.4887 37.0636 10.9429C36.6391 11.397 36.1421 11.7656 35.9611 11.7656C35.7801 11.7656 35.9809 11.397 36.4054 10.9429ZM63.1186 112.652C60.1402 109.512 57.9912 105.889 59.1134 105.889C59.2944 105.889 59.4425 106.053 59.4425 106.257C59.4425 107.139 62.0062 110.72 64.1388 112.82C65.4223 114.083 66.2319 115.104 65.9555 115.104C65.6757 115.104 64.4021 114.001 63.1186 112.652ZM46.2028 113.869C44.6033 112.049 42.3293 106.567 42.3293 104.526C42.3293 103.006 42.7439 103.651 43.2014 105.882C43.57 107.695 45.4985 112.03 46.42 113.129C47.4731 114.379 47.2658 115.077 46.2028 113.869ZM59.4425 84.4971C59.4425 84.3161 59.821 84.168 60.2883 84.168C60.7524 84.168 61.4172 84.0133 61.7693 83.8257C62.2597 83.5657 62.4045 83.5953 62.4045 83.9573C62.4045 84.214 62.1708 84.5168 61.8845 84.6254C61.0584 84.9447 59.4425 84.8591 59.4425 84.4971ZM170.679 33.2066C170.679 32.7722 171.976 31.7092 172.216 31.9494C172.334 32.0679 172.16 32.4628 171.834 32.8248C171.212 33.5127 170.679 33.6871 170.679 33.2066ZM58.0044 217.589C55.1543 216.901 52.2912 215.256 50.0566 213.018C43.254 206.219 43.2442 195.417 50.0335 188.628C56.8229 181.839 67.6668 181.849 74.4167 188.651C81.2258 195.516 81.206 206.205 74.3706 213.064C70.1548 217.293 63.9084 219.021 58.0044 217.589ZM66.3109 216.977C69.3419 216.171 71.672 214.815 73.946 212.541C80.5544 205.936 80.5544 195.694 73.946 189.148C70.4938 185.725 66.9099 184.215 62.2399 184.215C57.7378 184.215 54.167 185.646 50.7872 188.812C47.3382 192.038 45.6203 196.043 45.6203 200.861C45.6203 208.262 50.5305 214.808 57.5996 216.832C60.0678 217.54 63.9545 217.602 66.3109 216.977ZM89.8087 42.8526C86.8172 42.0463 84.0988 40.4403 81.8214 38.1333C78.4284 34.6941 76.8915 30.9391 76.8915 26.0816C76.8915 21.1944 78.4317 17.4163 81.8017 14.0299C91.1087 4.68008 106.409 8.36601 110.654 20.9805C111.085 22.264 111.263 23.7482 111.263 26.0816C111.263 31.1366 109.683 34.9805 106.185 38.4229C101.966 42.5761 95.3903 44.3566 89.8087 42.8526ZM98.2337 42.224C104.125 40.6542 108.726 35.9776 110.292 29.965C112.513 21.4313 106.998 12.2724 98.2337 9.93912C95.9366 9.33028 92.3231 9.33357 89.947 9.95229C84.2864 11.4267 79.4914 16.1657 78.0006 21.7604C77.4247 23.9259 77.4247 28.2372 78.0006 30.4027C79.4684 35.9217 84.2535 40.6969 89.8055 42.1944C92.0598 42.7999 96.0123 42.8131 98.2337 42.224ZM59.7716 215.776C57.1816 215.348 53.4693 213.423 51.5606 211.514C49.4576 209.414 47.6969 205.84 47.2822 202.832C47.1111 201.578 47.0848 200.344 47.2263 200.091C47.3843 199.811 47.6344 200.706 47.868 202.371C48.2992 205.448 49.5629 208.374 51.2841 210.29L52.3669 211.497L54.8351 210.991C56.191 210.711 57.6358 210.421 58.0439 210.342C58.7284 210.214 58.7843 210.023 58.7843 207.923C58.7843 206.669 58.6329 205.554 58.4519 205.439C57.8332 205.057 56.8097 202.681 56.8097 201.628C56.8097 201.055 56.4938 199.433 56.1087 198.027C55.4176 195.506 55.4176 195.454 56.0265 194.223C57.0039 192.258 58.1031 191.649 60.9465 191.508C64.695 191.317 66.1891 191.643 67.4726 192.926C69.0128 194.466 69.1839 195.789 68.2065 198.574C67.7688 199.818 67.3377 201.456 67.2455 202.217C67.1534 202.977 66.7815 204.02 66.4162 204.53C65.9423 205.198 65.7251 206.117 65.6428 207.798L65.5309 210.138L68.8219 210.806L72.1129 211.474L73.3372 210.151C76.0062 207.278 77.3391 202.513 76.5986 198.498C76.0029 195.276 74.7655 192.906 72.4651 190.609C67.364 185.505 59.8835 184.866 53.8544 189.013C52.8802 189.681 52.2023 189.977 52.2023 189.727C52.2023 189.497 52.9494 188.816 53.8643 188.217C63.1548 182.135 75.4797 187.591 77.2469 198.57C78.1322 204.07 75.8055 209.661 71.2277 213.031C68.0847 215.345 63.6353 216.411 59.7716 215.776ZM63.7077 211.866C64.5041 211.441 65.0373 209.832 65.0373 207.861C65.0373 206.429 64.9616 206.265 64.3034 206.265C63.6485 206.265 63.6945 206.163 64.7509 205.291C66.3043 204.01 66.7387 202.865 66.6169 200.361L66.5182 198.294L63.4576 196.309C60.726 194.539 60.3114 194.364 59.5906 194.693C58.0932 195.375 57.4712 196.918 57.4679 199.946C57.4679 203.787 58.5342 205.478 61.3382 206.087C61.9273 206.215 62.3222 206.459 62.2136 206.633C62.1083 206.808 61.7002 206.857 61.3085 206.745C59.3043 206.173 59.4425 206.051 59.4425 208.397C59.4425 210.27 59.5544 210.684 60.2488 211.382C61.1045 212.235 62.6217 212.448 63.7077 211.866ZM91.0363 41.3552C88.2817 40.822 85.0269 38.9297 82.8482 36.6029C81.7392 35.4182 80.8341 34.3058 80.8341 34.1314C80.8341 33.4765 81.3969 33.8582 82.3348 35.145C83.2267 36.3693 83.3946 36.4581 84.4543 36.2738C85.0861 36.1652 86.7909 35.8921 88.2389 35.6716L90.8717 35.2668L90.9705 33.0585L91.0659 30.8535H89.2262C87.0015 30.8535 85.7345 30.2546 84.8163 28.767C83.9211 27.3223 83.9442 25.9071 84.9018 23.0966C87.6531 15.004 91.8393 11.8677 96.7956 14.1878C99.718 15.5536 101.821 18.3773 103.424 23.09C104.602 26.5522 104.385 28.0068 102.41 29.8498C101.726 30.4915 101.11 30.6857 99.4185 30.7943L97.2892 30.9292V33.0157V35.1022L98.5234 35.2898C99.2013 35.3951 100.87 35.6814 102.226 35.925C104.599 36.3528 104.724 36.3462 105.454 35.6749C106.632 34.5987 108.429 30.5902 108.795 28.2273C109.762 21.9678 106.33 15.6161 100.416 12.7266C98.1844 11.6373 97.9902 11.6011 94.1628 11.6011C90.4011 11.6011 90.1082 11.6504 87.9888 12.6542C82.2427 15.3759 78.7838 21.4215 79.3696 27.7271C79.5473 29.6424 79.5112 29.9584 79.1458 29.6095C78.8365 29.31 78.718 28.2964 78.7476 26.154C78.8332 19.7003 81.8774 14.9579 87.7453 12.1309C90.1576 10.9692 90.3024 10.9429 94.1628 10.9429C98.0396 10.9429 98.1581 10.9659 100.672 12.1671C104.079 13.7929 106.458 16.169 108.067 19.5588C109.134 21.8065 109.292 22.4746 109.413 25.1963C109.578 28.9974 108.923 31.7125 107.182 34.4045C103.667 39.8446 97.3254 42.5728 91.0363 41.3552ZM95.8708 37.0505C96.5817 36.3791 96.631 36.0829 96.631 32.4694C96.631 29.6753 96.5158 28.563 96.2196 28.4577C95.9597 28.3655 96.1538 28.0331 96.7561 27.5493C98.1712 26.4139 98.9183 24.4722 98.9282 21.9118C98.938 18.4958 99.2145 18.6768 93.962 18.6768H89.3908L89.3974 21.721C89.4039 25.6768 90.0918 27.0656 92.5238 28.0364C94.4655 28.8098 94.4919 28.8263 94.2483 29.0665C94.1463 29.1718 93.5144 29.106 92.8496 28.9217L91.6418 28.5893L91.7504 32.5484C91.8525 36.2475 91.9117 36.5503 92.6357 37.1361C93.6625 37.9654 94.9296 37.9325 95.8708 37.0505ZM92.8266 25.1206C92.0039 24.5183 92.4086 24.0938 93.2841 24.6401C93.8007 24.9659 94.1364 24.9725 94.7979 24.673C95.7786 24.2254 95.9662 24.7355 95.0086 25.2456C94.1463 25.7097 93.5868 25.6768 92.8266 25.1206Z" fill="#1A1A1A"/>
</svg>
