<svg width="455" height="464" viewBox="0 0 455 464" fill="none" xmlns="http://www.w3.org/2000/svg">
<path d="M112.098 463.049L75.5211 462.876L75.0946 460.348C74.5568 457.171 75.2058 444.906 76.3742 435.999C79.1868 414.678 85.0903 401.567 101.533 380.16C104.229 376.649 106.343 373.7 106.225 373.607C106.108 373.515 103.79 373.088 101.07 372.661C94.5976 371.648 86.5615 369.292 81.8202 367.03C79.7308 366.035 77.7156 365.219 77.3385 365.219C76.9614 365.219 76.6523 364.798 76.6523 364.285C76.6523 361.862 84.979 331.319 92.6133 305.721C93.6024 302.407 94.3689 299.693 94.3257 299.693C91.9395 299.693 45.6947 304.255 43.5806 304.694C41.8806 305.053 37.708 305.356 34.3081 305.368C29.437 305.381 27.3785 305.102 24.5906 304.045C18.0937 301.591 14.2054 295.181 14.9967 288.208C16.2824 276.76 31.854 263.617 61.5073 248.961L72.6343 243.459L58.1074 243.434C45.4042 243.416 43.2715 243.274 41.1017 242.291C37.9553 240.857 34.8397 237.333 34.0732 234.329C33.7456 233.049 31.2173 215.172 28.4541 194.606C25.6909 174.039 23.2121 156.799 22.9401 156.298C22.6743 155.803 19.9729 154.048 16.9439 152.41C13.9149 150.765 10.4222 148.435 9.17974 147.223C4.22825 142.395 1.85449 135.41 1.85449 125.649C1.85449 114.442 5.7551 103.89 11.8873 98.5305L14.9287 95.8662L12.1346 75.5409C9.42082 55.8401 9.26009 55.0426 6.89253 49.918C4.25915 44.2186 0 31.4411 0 29.2405C0 27.9918 0.203994 27.9299 2.84974 28.3318L5.70565 28.7645L5.31621 26.2238C5.10604 24.8268 4.75368 21.2476 4.53732 18.268L4.1417 12.8467L6.5649 10.541C7.99904 9.17485 9.30337 7.16581 9.76699 5.63277C10.2677 3.95136 11.2444 2.53576 12.5364 1.6147L14.5269 0.19292L185.678 0.0322004C304.681 -0.0728875 357.577 0.0754703 359.265 0.532912C362.485 1.39834 366.268 4.90333 367.455 8.1116C367.975 9.53956 369.242 16.9575 370.262 24.6104C371.282 32.2633 372.277 39.5205 372.475 40.7445L372.827 42.9699L378.199 40.2747C385.283 36.7202 390.16 35.5334 397.789 35.5148C409.249 35.4901 418.627 39.502 427.238 48.1192C435.731 56.6128 439.49 65.7121 439.508 77.8281C439.539 99.1981 425.019 116.13 403.247 120.104C403.185 120.111 403.847 122.484 404.706 125.371C407.092 133.376 406.962 142.562 404.304 154.425C402.085 164.322 397.993 178.478 395.019 186.545C393.585 190.433 393.183 192.349 393.468 194.012L393.845 196.25L404.471 196.2C416.037 196.145 419.591 196.757 426.403 199.965C430.867 202.067 436.832 208.02 439.002 212.532C445.906 226.911 443.879 251.168 433.562 277.594L431.213 283.621H427.708H424.203L424.283 288.412C424.333 291.045 424.159 294.383 423.9 295.83L423.43 298.457H432.863C443.421 298.463 445.146 298.989 447.557 302.933C449.121 305.504 449.109 307.81 447.501 312.038C446.797 313.899 436.486 345.19 424.586 381.582C410.974 423.227 402.746 449.314 402.388 451.984C401.726 456.954 400.15 459.804 396.985 461.776L394.698 463.198L271.683 463.204C204.025 463.21 132.213 463.136 112.098 463.049ZM395.65 460.88C398.666 459.359 401.188 455.427 401.188 452.25V450.525H270.756H140.323V452.337C140.323 456.163 142.709 459.847 146.196 461.399C147.723 462.073 169.834 462.227 270.471 462.246L392.893 462.271L395.65 460.88ZM272.666 377.891C285.864 338.792 296.954 306.32 297.306 305.733C297.831 304.861 297.695 304.602 296.564 304.336C293.226 303.557 241.368 295.552 241.115 295.774C240.96 295.91 238.97 311.785 236.689 331.053C233.103 361.368 232.393 366.195 231.404 366.956C227.466 369.991 213.254 375.035 203.704 376.797C196.848 378.058 196.842 378.064 199.321 384.641C201.002 389.123 204.062 394.161 208.148 399.175C215.189 407.816 225.444 424.94 232.739 440.214L237.066 449.277L242.87 449.128L248.675 448.98L272.666 377.891ZM415.215 406.679C422.799 383.411 429.006 364.131 429.006 363.834C429.006 363.537 428.709 363.476 428.351 363.698C427.436 364.261 424.951 363.55 423.795 362.394C422.49 361.089 422.558 357.615 423.906 356.41C425.798 354.716 428.555 354.784 430.069 356.558C431.077 357.733 431.454 356.768 439.329 332.914C443.842 319.234 447.538 307.402 447.545 306.617C447.557 304.416 445.863 301.665 443.86 300.633C442.469 299.91 439.824 299.693 432.474 299.693H422.898L420.926 303.396C415.326 313.893 402.487 319.672 390.748 316.965C383.416 315.271 375.8 309.405 372.506 302.908L370.88 299.693L339.205 299.7L307.537 299.706L304.446 301.165C302.746 301.968 300.619 303.427 299.717 304.404C298.184 306.073 287.434 337.204 254.653 434.917L249.831 449.295L325.624 449.135L401.423 448.98L415.215 406.679ZM196.762 376.661C208.612 375.103 220.542 371.543 228.393 367.222L231.459 365.528L235.656 330.033C237.962 310.511 239.928 294.464 240.021 294.371C240.206 294.186 293.653 302.531 296.101 303.124C298.833 303.792 297.176 302.982 290.531 300.392C279.509 296.096 267.894 288.789 254.894 277.959C246.876 271.283 229.221 253.597 221.667 244.677C216.864 239.002 215.171 237.426 213.285 236.851L210.924 236.14L208.989 239.132C205.323 244.782 198.041 248.905 188.058 250.976C183.057 252.008 180.541 252.163 173.086 251.903C159.227 251.409 150.164 248.244 143.241 241.462C140.583 238.866 139.353 238.056 138.555 238.372C137.956 238.613 134.531 242.142 130.94 246.222C127.348 250.302 119.986 257.949 114.583 263.222C95.5002 281.835 80.5344 292.387 64.5981 298.463C55.0228 302.11 54.9177 302.166 57.7983 301.826C64.5425 301.035 95.3703 298.42 95.5743 298.624C95.7042 298.754 93.5839 306.456 90.8639 315.741C85.319 334.688 80.1264 353.461 79.1497 358.11C78.7912 359.81 78.3585 361.8 78.1978 362.536C77.8949 363.853 77.9319 363.859 81.134 362.987C86.8953 361.417 95.9638 360.28 102.726 360.28C115.201 360.267 124.517 362.369 135.755 367.722C146.221 372.711 155.468 375.437 166.904 376.908C173.624 377.774 189.257 377.644 196.762 376.661ZM429.29 361.535C430.619 360.069 430.174 357.516 428.419 356.583C427.127 355.891 424.061 356.7 424.061 357.733C424.061 358.054 423.9 358.734 423.702 359.247C423.263 360.397 425.513 362.746 427.059 362.746C427.683 362.746 428.691 362.202 429.29 361.535ZM407.531 314.072C424.499 306.128 428.604 284.74 415.697 271.517C400.62 256.076 374.471 264.526 370.781 286.026C368.63 298.562 376.239 310.703 389.128 315.308C391.446 316.137 393.622 316.365 397.789 316.223C402.499 316.056 403.989 315.729 407.531 314.072ZM45.7441 302.994C58.1012 300.522 73.4441 294.124 84.3794 286.897C99.8211 276.692 120.981 256.818 136.886 237.568C141.318 232.208 146.054 223.356 147.142 218.405L147.815 215.32L142.481 204.805C136.392 192.8 135.922 190.68 138.605 187.157C140.385 184.814 141.454 181.624 140.453 181.624C140.113 181.624 137.937 183.336 135.625 185.432C133.319 187.528 131.329 188.955 131.218 188.609C131.1 188.263 132.547 184.412 134.426 180.048C137.634 172.605 138.685 168 137.362 167.178C137.09 167.011 134.809 169.218 132.287 172.086C128.17 176.759 126.724 178.026 126.724 176.938C126.724 176.747 127.799 174.732 129.116 172.457C130.433 170.188 131.861 167.332 132.299 166.108C133.054 163.975 132.757 160.6 131.811 160.613C131.372 160.625 126.513 168.185 119.151 180.301C116.005 185.475 115.597 186.526 115.597 189.431C115.597 192.528 115.881 193.122 120.697 200.12C127.101 209.423 128.968 212.959 129.493 216.785C130.068 220.939 128.832 223.239 125.345 224.506C123.892 225.038 117.556 227.313 111.27 229.569C79.4835 240.949 52.717 253.455 36.1626 264.662C29.1526 269.403 19.8925 278.54 17.8773 282.694C16.7275 285.074 16.3813 286.792 16.3813 290.161C16.3813 293.944 16.6348 294.94 18.242 297.542C22.2972 304.101 31.3162 305.887 45.7441 302.994ZM302.968 300.466L306.245 298.766L322.447 298.581L338.643 298.401L339.384 295.323C340.608 290.205 338.896 285.068 333.969 279.102C322.323 265.014 284.807 245.443 239.675 229.915C226.78 225.483 226.304 225.155 226.267 220.822C226.236 216.322 227.824 212.835 233.882 204.181C239.934 195.527 240.923 193.215 240.206 189.407C239.99 188.251 236.299 181.692 232.003 174.83C225.686 164.748 224.078 162.56 223.602 163.407C222.582 165.23 223.584 169.199 226.199 173.718C230.427 181.024 229.53 181.043 223.157 173.786L218.521 168.507L218.336 171.628C218.181 174.268 218.645 175.888 221.34 182.051C223.095 186.069 224.666 189.697 224.839 190.124C225.5 191.787 223.72 190.73 219.665 187.052C215.745 183.503 215.412 183.318 215.226 184.653C215.096 185.543 215.776 187.157 217 188.857C220.147 193.239 219.411 196.003 211.066 211.296C208.439 216.105 208.229 216.81 208.556 219.629C209.137 224.636 214.293 234.119 220.487 241.586C227.855 250.463 250.48 273.007 258.349 279.319C266.688 285.995 276.604 292.603 283.169 295.855C288.275 298.383 297.572 302.08 298.981 302.135C299.371 302.154 301.17 301.4 302.968 300.466ZM369.823 295.83C369.563 294.383 369.396 291.181 369.446 288.715L369.538 284.227L354.61 284.629C346.401 284.845 339.588 285.105 339.477 285.197C339.366 285.29 339.595 285.97 339.984 286.706C340.868 288.35 341.084 293.036 340.423 296.139L339.935 298.457H355.117H370.293L369.823 295.83ZM367.313 283.244C369.817 282.898 370.157 282.644 370.868 280.617C373.056 274.355 378.996 268.006 385.598 264.878C389.518 263.024 390.154 262.913 396.861 262.913C403.581 262.913 404.199 263.018 408.168 264.903C413.576 267.462 419.14 272.741 421.588 277.631C422.608 279.671 423.442 281.717 423.442 282.175C423.442 282.768 424.407 283.003 426.793 283.003H430.149L432.684 276.525C435.583 269.107 439.076 256.824 440.596 248.695C442.099 240.665 442.068 224.654 440.535 219.641C435.132 201.925 420.092 194.624 395.495 197.777C392.485 198.166 389.895 198.352 389.74 198.197C389.586 198.043 390.995 193.845 392.868 188.869C396.762 178.509 400.923 164.414 403.402 153.189C409.008 127.745 401.108 109.379 382.477 104.564C377.463 103.266 357.787 103.748 332.263 105.794C309.057 107.655 303.605 107.271 288.528 102.703C285.555 101.807 283.119 100.836 283.119 100.546C283.119 99.8039 283.515 99.8719 288.8 101.559C298.419 104.632 317.118 107.37 317.118 105.707C317.118 105.343 316.828 104.867 316.481 104.65C315.381 103.97 306.356 90.1482 301.948 82.3964C297.325 74.2675 292.336 63.9874 289.016 55.7659C286.049 48.3974 284.318 45.6651 280.325 42.0179C271.034 33.5243 256.068 30.7055 227.905 32.152C220.363 32.5353 208.841 32.8753 202.294 32.9062C195.754 32.9309 190.395 32.9989 190.395 33.0545C190.395 33.1102 191.68 33.7778 193.257 34.5381C197.207 36.4544 202.177 41.7026 204.495 46.4131C207.357 52.2238 208.779 59.277 209.873 73.1363C211.653 95.5324 214.052 109.942 217.965 121.662C221.229 131.429 224.449 136.059 229.648 138.433C233.141 140.028 235.391 139.867 239.724 137.697C244.416 135.354 247.272 132.22 254.758 121.217C265.075 106.06 271.51 99.5195 276.196 99.433C283.286 99.3032 288.683 112.52 288.683 130.032C288.683 150.129 283.212 167.536 270.434 188.115C263.196 199.773 256.736 214.467 253.237 227.245C251.791 232.53 251.747 233.024 252.712 233.364C256.278 234.632 271.281 240.585 275.652 242.47C278.514 243.706 281.054 244.498 281.302 244.232C281.549 243.966 282.909 238.093 284.325 231.182C288.683 209.887 291.773 201.313 296.675 196.88C300.91 193.06 302.505 192.893 316.407 194.828C323.09 195.755 332.449 196.936 337.208 197.449C348.539 198.673 374.094 199.242 380.455 198.42C385.512 197.764 388.034 198.141 384.782 199.069C381.383 200.039 360.94 200.354 350.19 199.613C340.231 198.92 321.186 196.905 316.5 196.052L314.336 195.656L317.019 198.574C322.02 204.02 323.893 210.764 323.906 223.35C323.906 227.77 323.498 234.119 322.997 237.45C321.952 244.362 319.727 254.326 318.849 256.014C317.656 258.289 317.705 256.447 318.954 251.551C324.487 229.884 324.11 210.684 317.971 201.405C313.817 195.131 305.324 192.708 299.476 196.132C293.535 199.613 290.259 207.97 285.27 232.369C284.059 238.291 282.927 243.595 282.761 244.164C282.513 244.98 284.801 246.358 293.758 250.784C307.203 257.423 316.605 262.981 324.332 268.847C330.161 273.273 336.504 279.609 337.672 282.175L338.334 283.621H351.439C358.646 283.621 365.792 283.448 367.313 283.244ZM186.067 250.197C191.86 249.264 198.165 246.921 202.01 244.269C205.546 241.833 209.916 236.727 209.106 235.979C208.847 235.732 205.54 234.663 201.756 233.599L194.882 231.671L191.649 233.847C187.1 236.906 182.612 238.087 176.801 237.747C169.377 237.321 163.461 233.649 157.83 225.984L155.499 222.806L154.553 228.277L153.614 233.754L148.359 235.509C145.473 236.474 142.716 237.407 142.233 237.586C140.107 238.384 149.274 245.4 155.474 247.718C163.313 250.648 176.603 251.73 186.067 250.197ZM83.8292 238.829L91.7974 235.454L71.0889 235.429C58.4783 235.411 49.4593 235.139 48.019 234.743C45.0209 233.908 41.2995 230.57 40.0014 227.547C39.4512 226.256 38.2767 219.641 37.3927 212.841C36.1441 203.266 35.4084 199.644 34.1412 196.769C32.6514 193.382 32.5216 192.442 32.6329 185.951C32.7874 177.445 31.2296 165.397 29.641 162.77C28.077 160.186 24.7266 157.046 24.7266 158.177C24.7266 159.141 34.3637 230.088 34.9448 233.432C35.3713 235.849 39.0989 240.201 41.7261 241.345C43.0922 241.945 47.8212 242.161 59.7208 242.179L75.8549 242.204L83.8292 238.829ZM142.796 236.023C144.187 235.577 144.106 235.522 142.06 235.466C140.805 235.429 139.606 235.683 139.396 236.023C138.957 236.74 140.564 236.74 142.796 236.023ZM187.477 234.928C193.615 232.178 200.934 223.338 205.002 213.769C205.941 211.556 207.802 208.502 209.131 206.969C214.627 200.651 216.747 194.284 213.879 192.745C213.192 192.38 212.154 192.164 211.567 192.263C210.658 192.417 210.429 191.731 210.065 187.781C209.249 178.886 205.441 172.24 199.951 170.145C196.143 168.692 193.238 169.613 188.738 173.687C182.389 179.436 178.037 180.27 166.595 177.915C159.103 176.376 157.218 176.37 154.72 177.89C152.192 179.436 150.473 182.817 149.559 188.053C149.163 190.328 148.662 192.102 148.446 191.991C148.23 191.879 147.03 191.274 145.788 190.637C143.111 189.271 141.745 189.629 141.189 191.842C140.645 194.018 142.382 200.849 144.669 205.522C146.48 209.237 150.072 213.15 151.667 213.15C152.105 213.15 153.088 214.677 153.861 216.538C157.613 225.582 164.66 233.309 171.541 235.911C174.582 237.061 184.021 236.48 187.477 234.928ZM103.598 231.077C108.16 229.377 115.158 226.861 119.151 225.489C131.959 221.075 132.571 221.187 95.1725 221.174C64.5425 221.162 61.9462 221.075 59.6467 220.037C56.6733 218.683 53.2425 214.949 52.7603 212.538C52.4821 211.148 51.8331 210.579 49.5397 209.726C45.9729 208.403 43.1108 206.734 39.717 203.995C38.2705 202.827 37.0898 201.999 37.0898 202.153C37.0898 203.149 40.2981 225.421 40.5701 226.33C41.1697 228.308 44.7304 231.856 47.2834 233.018C49.5335 234.038 51.8454 234.143 72.5354 234.156L95.3024 234.168L103.598 231.077ZM150.739 233.488C151.809 233.117 152.687 232.771 152.687 232.715C152.687 232.666 153.107 230.255 153.614 227.368C154.121 224.481 154.541 221.904 154.541 221.65C154.541 221.397 153.039 221.187 151.203 221.187H147.865L144.873 227.214C143.222 230.527 141.782 233.451 141.665 233.704C141.343 234.421 148.557 234.248 150.739 233.488ZM211.196 229.995C210.046 227.702 208.773 224.778 208.358 223.505C207.641 221.292 207.487 221.187 204.872 221.187C203.37 221.187 202.14 221.452 202.14 221.774C202.14 222.095 200.736 224.216 199.018 226.478C197.299 228.747 195.983 230.682 196.082 230.768C196.941 231.535 207.468 234.051 210.027 234.106L213.285 234.168L211.196 229.995ZM251.778 228.141C252.372 225.848 253.021 223.344 253.225 222.577L253.589 221.187H240.54C226.811 221.187 226.372 221.285 228.282 223.894C228.937 224.79 247.927 232.085 250.066 232.264C250.412 232.289 251.185 230.434 251.778 228.141ZM128.578 218.516C128.578 215.691 126.705 210.851 124.331 207.55C122.378 204.83 121.321 203.977 118.799 203.093C115.461 201.925 109.891 197.888 108.797 195.848C108.179 194.686 107.517 194.606 98.727 194.612L89.3247 194.618L87.0004 198.222C83.5449 203.587 79.3414 207.538 74.7979 209.695C70.9158 211.543 70.4954 211.605 62.28 211.605C56.4384 211.605 53.7803 211.821 53.7803 212.297C53.7803 213.058 55.9995 216.093 57.4769 217.354C60.4194 219.87 60.8521 219.901 95.3518 219.926L128.578 219.95V218.516ZM153.818 219.487C153.7 219.233 153.218 218.009 152.736 216.773C152.186 215.345 151.172 214.189 149.96 213.608L148.05 212.699L148.26 216.322L148.471 219.95H151.246C152.773 219.95 153.929 219.74 153.818 219.487ZM207.085 218.108C207.085 216.495 209.36 211.605 213.854 203.569C214.614 202.209 214.793 201.653 214.256 202.333C213.718 203.013 212.055 205.102 210.565 206.969C209.082 208.836 206.869 212.526 205.657 215.159L203.456 219.95H205.274C206.869 219.95 207.085 219.734 207.085 218.108ZM257.107 212.223C258.714 208.143 261.193 202.512 262.615 199.705L265.205 194.606H253.243H241.282L240.565 196.176C240.175 197.035 237.622 200.905 234.902 204.768C229.716 212.13 227.521 216.217 227.497 218.572L227.484 219.975L240.837 219.808L254.189 219.641L257.107 212.223ZM217.55 195.069C217.575 194.816 217.316 194.606 216.976 194.606C216.636 194.606 216.376 195.372 216.401 196.305C216.438 197.814 216.506 197.863 216.976 196.769C217.266 196.089 217.526 195.323 217.55 195.069ZM392.534 195.805C392.534 195.106 392.256 194.704 391.916 194.915C391.576 195.125 391.298 195.7 391.298 196.188C391.298 196.676 391.576 197.078 391.916 197.078C392.256 197.078 392.534 196.503 392.534 195.805ZM104.779 191.793C100.674 188.399 95.3147 188.412 92.1188 191.811L90.6538 193.369L98.6466 193.344L106.633 193.326L104.779 191.793ZM217.594 192.096C217.594 191.397 217.316 190.995 216.976 191.206C216.636 191.416 216.357 191.991 216.357 192.479C216.357 192.967 216.636 193.369 216.976 193.369C217.316 193.369 217.594 192.794 217.594 192.096ZM269.674 187.188C279.144 172.018 284.739 157.157 287.094 140.893L287.49 138.18L277.42 138.625C264.704 139.193 254.702 139.978 254.232 140.454C254.028 140.658 254.752 147.427 255.833 155.507C258.09 172.321 258.096 172.413 256.835 174.843C255.234 177.94 253.2 178.533 244.206 178.533C239.767 178.533 236.139 178.688 236.139 178.873C236.139 179.059 237.06 180.66 238.191 182.428C240.571 186.155 241.702 189.116 241.702 191.62V193.394L253.855 193.227L266.008 193.06L269.674 187.188ZM221.154 184.641C219.955 181.754 219.794 181.599 219.318 182.885C218.904 184.004 219.145 184.665 220.474 186.056C221.395 187.014 222.224 187.806 222.31 187.806C222.397 187.806 221.878 186.384 221.154 184.641ZM254.733 175.492C257.008 173.211 257.008 172.982 254.684 155.661C253.664 148.064 252.829 141.45 252.829 140.955C252.829 140.25 252.161 140.139 249.584 140.417C247.797 140.609 243.353 141.103 239.705 141.505C233.821 142.154 232.763 142.123 230.334 141.196C223.856 138.717 217.903 128.722 214.342 114.331L212.339 106.233L129.505 106.245C60.747 106.251 46.4118 106.394 45.1507 107.092L43.63 107.939L45.9667 108.916C55.8759 113.051 65.6737 114.64 76.6523 113.886C80.9053 113.595 87.5753 113.348 91.4883 113.335C97.8059 113.317 98.9433 113.484 101.688 114.831C106.361 117.125 110.268 121.526 113.149 127.733C117.921 138.037 119.021 139.849 121.63 141.685C124.678 143.83 128.906 144.404 133.53 143.298C135.99 142.704 137.671 141.684 140.842 138.847C145.874 134.353 154.974 129.772 162.886 127.751C170.44 125.829 185.171 125.674 190.395 127.467C196.675 129.624 199.945 131.676 204.631 136.424C210.497 142.358 214.324 149.677 216.901 159.902C218.49 166.213 218.923 167.171 221.513 170.077L224.369 173.279L223.157 170.497C221.692 167.122 221.575 163.512 222.891 162.195C223.429 161.664 224.072 161.225 224.332 161.225C224.585 161.225 226.155 163.382 227.812 166.015C229.469 168.649 231.75 172.265 232.881 174.052L234.939 177.297H243.934H252.922L254.733 175.492ZM245.72 139.632C255.432 138.705 267.782 137.846 278.328 137.357L287.446 136.937L287.496 132.857C287.644 120.914 286.655 114.59 283.589 107.871C281.438 103.167 278.922 100.645 276.375 100.645C272.221 100.645 266.076 106.721 257.626 119.19C248.279 132.981 244.404 137.184 238.587 139.836C237.412 140.374 237.004 140.695 237.684 140.547C238.364 140.405 241.98 139.991 245.72 139.632ZM407.988 112.359C419.492 109.015 429.247 98.7716 432.381 86.7421C433.611 82.0131 433.599 73.7235 432.35 68.8957C430.168 60.4206 424.339 52.2671 417.063 47.4887C405.608 39.9718 389.338 39.978 377.865 47.5072C373.031 50.6846 368.5 55.7288 365.687 61.0821C359.308 73.2166 360.532 88.85 368.698 99.5443L370.812 102.314L376.573 102.666C379.744 102.858 383.12 103.315 384.078 103.686C385.462 104.218 386.013 104.168 386.748 103.426C387.261 102.919 387.916 102.499 388.207 102.499C389.153 102.499 390.68 104.409 390.68 105.59C390.68 106.227 391.224 106.913 391.885 107.129C392.553 107.339 394.568 108.996 396.367 110.807C400.063 114.535 400.373 114.578 407.988 112.359ZM44.0627 106.363C45.1816 105.343 50.2258 105.268 128.708 105.12L212.166 104.959L211.808 102.957C211.61 101.856 211.282 99.705 211.078 98.1719C210.88 96.6389 210.59 94.7658 210.435 93.9993L210.151 92.6084H183.99H157.823L155.104 91.1681C150.832 88.918 148.94 85.685 148.149 79.3179C147.395 73.2352 147.933 73.4948 141.17 76.0046L137.387 77.4078L137.696 82.4273C138.055 88.1268 137.548 89.5856 134.568 91.403C132.664 92.559 131.094 92.6023 90.3879 92.6084C53.6196 92.6084 47.883 92.4848 45.8801 91.6503C41.9672 90.0122 38.3262 85.7654 38.3262 82.8353C38.3262 81.9884 37.4855 81.3331 35.3899 80.5481C31.0937 78.9408 27.3908 76.6722 23.0266 72.9756C20.9001 71.1767 19.1569 69.9218 19.1507 70.1815C19.1384 70.4473 19.8863 76.2765 20.8074 83.1382L22.4764 95.6127L24.9244 96.7192C26.272 97.325 28.8621 98.8643 30.6733 100.132C34.2154 102.617 42.0722 107.444 42.5668 107.444C42.7275 107.444 43.4013 106.956 44.0627 106.363ZM338.136 104.335C348.162 103.63 357.793 102.907 359.537 102.74L362.695 102.431L360 97.1829C358.51 94.3022 357.299 91.5328 357.299 91.0383C357.299 89.87 357.107 89.8947 354.684 91.3721C352.768 92.5405 351.556 92.6023 331.12 92.6084H309.577L310.794 94.5248C314.312 100.082 318.46 105.59 319.133 105.608C319.554 105.615 328.109 105.046 338.136 104.335ZM20.9496 94.7102C21.3947 94.3208 17.7599 68.8215 17.0675 67.4615C15.8621 65.094 11.127 58.4425 11.127 59.1225C11.127 59.8828 15.2872 90.7231 15.7941 93.715C16.1279 95.6745 16.2083 95.7302 18.4213 95.3284C19.6823 95.1058 20.8136 94.8215 20.9496 94.7102ZM134.636 89.8329C135.644 88.986 136.614 87.5271 136.794 86.5937C137.072 85.1163 136.348 78.4896 135.86 78.0754C135.767 77.995 133.598 78.335 131.051 78.8296C127.632 79.4972 122.026 79.7197 109.724 79.6826C96.7736 79.6394 88.6695 79.9855 73.5615 81.2342C61.1921 82.2604 51.4374 82.7549 46.8259 82.5942C40.5268 82.3716 39.5625 82.4706 39.5625 83.3113C39.5625 85.1472 42.5915 88.7387 45.2496 90.0554C47.883 91.3598 48.291 91.3721 90.357 91.3721H132.813L134.636 89.8329ZM209.898 88.7449C209.521 85.957 208.321 70.9665 208.321 69.0255C208.321 67.9313 207.258 67.8819 183.335 67.8819H158.343L153.509 70.4596C150.844 71.8752 148.607 73.0745 148.526 73.1239C148.452 73.1734 148.774 75.7944 149.25 78.9594C149.942 83.6018 150.443 85.1225 151.877 86.8904C155.586 91.4772 154.825 91.3721 184.089 91.3721H210.25L209.898 88.7449ZM354.715 89.8267C356.396 88.4111 356.508 88.0835 356.013 85.9632C355.716 84.6898 355.463 80.8633 355.444 77.4634C355.426 73.705 354.239 62.6151 352.422 49.1515C349.516 27.6579 349.38 26.9594 347.631 24.802C346.642 23.5781 344.868 22.0636 343.693 21.433C341.635 20.3265 337.845 20.2833 244.311 20.2833C138.351 20.2833 144.551 20.0731 142.882 23.7388C142.277 25.074 142.27 26.6689 142.852 31.3546C143.927 39.9841 143.556 39.5947 148.668 37.6289L152.996 35.9661L152.804 33.4007C152.631 31.1568 152.785 30.792 154.04 30.4768C156.389 29.8895 180.275 30.5139 187.922 31.3669C194.987 32.152 203.197 32.0531 229.957 30.8539C260.933 29.463 277.315 33.9014 285.579 45.9247C286.519 47.2908 288.559 51.5005 290.104 55.2775C293.572 63.7464 300.675 78.026 305.212 85.6541L308.618 91.3721H330.749H352.879L354.715 89.8267ZM56.3395 80.2266C59.7208 79.5405 64.6352 78.1249 67.2501 77.0864C71.843 75.269 92.5083 65.0631 104.303 58.7825L110.015 55.7473L107.072 54.9932C98.0037 52.6689 87.804 42.5866 83.4521 31.6451C82.6609 29.6484 81.95 27.9238 81.8758 27.8249C81.8017 27.7198 77.7465 28.1958 72.863 28.8819C48.1921 32.3375 34.0114 32.7887 14.1498 30.755C7.31288 30.0564 1.57014 29.6361 1.38469 29.8153C0.754164 30.4459 5.66856 44.676 8.66048 50.8824C12.9753 59.8519 16.1588 64.4263 22.1735 70.3607C32.5154 80.5481 41.7137 83.2062 56.3395 80.2266ZM78.5068 79.5652C90.6414 78.5267 96.0503 78.3474 105.706 78.675C124.838 79.3179 135.359 77.7663 146.548 72.6541C149.076 71.4981 155.592 68.0426 161.032 64.9703C175.552 56.7735 188.633 50.4064 195.649 48.113C199.049 47.0003 202.059 45.8814 202.337 45.628C203.221 44.8305 197.596 38.6118 194.073 36.4853C188.905 33.3698 184.85 32.3684 177.413 32.3684C161.291 32.356 145.306 38.6427 96.4336 64.2038C79.8173 72.8952 69.7351 77.6118 63.4422 79.6455C61.1859 80.375 59.3438 81.0673 59.3438 81.1848C59.3438 81.3084 60.2463 81.2837 61.3528 81.1291C62.4593 80.9808 70.174 80.2761 78.5068 79.5652ZM361.039 56.3964C362.164 54.4245 365.02 50.7773 367.387 48.2861L371.684 43.7611L369.359 26.6133C368.08 17.1801 366.67 8.74831 366.225 7.87052C364.952 5.37313 360.668 1.84342 358.418 1.44161C357.293 1.2438 279.41 1.15726 185.344 1.25616L14.3167 1.42925L12.7342 2.91903C11.8564 3.74118 10.9971 5.26805 10.8117 6.31893C10.4902 8.15488 13.0556 28.6037 13.6923 29.2343C14.088 29.6299 24.8255 30.7673 28.281 30.7797L30.9082 30.792V27.6703C30.9082 25.9518 31.3286 23.7326 31.8478 22.7374C33.8383 18.88 32.1569 19.0036 79.6813 19.1891L122.91 19.356L125.537 21.2105C129.097 23.7326 130.402 26.57 131.409 34.0374C131.879 37.5238 132.423 41.2637 132.609 42.3579L132.949 44.3422L137.69 42.1786C140.292 40.9917 142.512 39.9347 142.623 39.8296C142.728 39.7183 142.388 36.541 141.856 32.7702C140.805 25.2038 141.17 23.1268 144.014 20.5923C145.386 19.3684 146.387 19.356 243.513 19.1953L341.628 19.0346L344.367 20.4811C345.869 21.2723 347.897 23.0526 348.867 24.4311C350.536 26.7987 350.783 28.0536 353.33 46.9447C354.814 57.9542 356.038 67.2328 356.056 67.5728C356.075 67.9128 356.742 66.3427 357.54 64.0802C358.337 61.8239 359.907 58.3622 361.039 56.3964ZM208.031 64.0184C207.814 62.5719 207.487 60.6123 207.307 59.6603L206.974 57.9356L191.112 58.1149L175.25 58.3003L168.295 62.2195C164.469 64.3707 161.341 66.2499 161.341 66.3921C161.341 66.5281 171.936 66.6456 184.887 66.6456H208.433L208.031 64.0184ZM206.603 57.0269C206.794 56.8415 206.807 56.143 206.634 55.4815C206.337 54.3503 205.688 54.2823 194.932 54.2823C184.726 54.2823 183.292 54.4121 181.097 55.531C179.75 56.2171 178.649 56.9157 178.649 57.0764C178.649 57.4967 206.189 57.4473 206.603 57.0269ZM111.331 53.4292C110.942 52.9594 110.559 50.666 110.484 48.3294L110.342 44.0826L115.597 43.8971C121.976 43.6808 123.633 44.0269 123.633 45.5909C123.633 48.4592 124.127 48.5952 127.985 46.753C130.012 45.7887 131.663 44.7935 131.657 44.54C131.589 41.3379 129.116 27.4849 128.356 26.0074C127.799 24.938 126.322 23.2752 125.073 22.3232L122.804 20.5923L79.2919 20.4254L35.7855 20.2585L33.9619 22.0759C32.3856 23.6584 32.1445 24.3508 32.1445 27.3427V30.792H38.8578C46.3747 30.792 60.3946 29.5124 72.9434 27.6889C77.5301 27.0212 81.61 26.4711 81.9995 26.4711C82.3951 26.4649 83.0009 27.2994 83.3594 28.3194C83.8231 29.6484 84.4103 30.1739 85.4303 30.1862C87.8782 30.1986 88.4098 31.0455 89.2443 36.2875C90.4065 43.6251 90.8392 43.9404 99.6357 44.0207L106.633 44.0826L107.338 48.3788C107.727 50.7464 107.907 53.0398 107.734 53.4787C107.517 54.0474 108.098 54.2823 109.736 54.2823C111.622 54.2823 111.912 54.1277 111.331 53.4292ZM106.726 51.346C106.553 50.4126 106.238 48.6013 106.027 47.3279L105.65 45.0098H100.112C97.0703 45.0098 94.5791 45.2385 94.5791 45.5105C94.5791 47.1178 103.456 53.0089 105.91 53.0336C106.813 53.0459 106.973 52.6998 106.726 51.346ZM119.231 51.0925C121.142 50.0169 122.804 49.0588 122.922 48.9723C123.039 48.8795 122.947 47.9523 122.718 46.9076L122.298 45.0098H116.784H111.27L111.276 46.7098C111.282 47.6432 111.455 49.4544 111.665 50.7278C112.011 52.8049 112.24 53.0459 113.903 53.0459C114.923 53.0459 117.321 52.1682 119.231 51.0925ZM205.502 51.6551C205.002 50.0293 203.438 46.8643 203.135 46.8643C202.43 46.8643 189.189 51.4696 187.922 52.1558C186.562 52.8976 187.563 52.9965 196.156 53.0212L205.929 53.0459L205.502 51.6551ZM87.8967 34.7916C87.532 32.2385 87.2229 31.6884 86.0732 31.5215C85.3128 31.4102 84.6885 31.4906 84.6885 31.6946C84.6885 32.3807 87.8597 38.3336 88.1007 38.0987C88.2305 37.9689 88.1378 36.4792 87.8967 34.7916ZM166.286 32.1458C168.042 31.6513 167.084 31.5215 161.186 31.472C154.417 31.4164 153.923 31.4906 153.923 32.5971C153.923 35.5457 154.306 35.657 159.369 34.161C161.984 33.3883 165.099 32.4796 166.286 32.1458ZM12.1717 28.1648C11.9924 27.3983 11.3742 23.1577 10.7993 18.7378C10.2306 14.318 9.55063 10.4792 9.29101 10.201C8.63575 9.49629 5.57584 13.298 5.4893 14.9238C5.37803 17.0193 5.43984 17.7673 6.20636 23.4915L6.91726 28.8695L8.87066 29.1106C9.94008 29.2466 11.195 29.4012 11.6586 29.4568C12.2273 29.5248 12.3942 29.1106 12.1717 28.1648ZM50.1764 431.789C48.495 429.99 48.4579 427.672 50.096 425.916C52.717 423.104 57.4893 425.026 57.4893 428.89C57.4893 432.796 52.853 434.632 50.1764 431.789ZM55.5111 431.239C55.9191 430.831 56.2529 429.774 56.2529 428.89C56.2529 426.85 55.2021 425.799 53.1621 425.799C51.1222 425.799 50.0713 426.85 50.0713 428.89C50.0713 430.93 51.1222 431.981 53.1621 431.981C54.0461 431.981 55.1031 431.647 55.5111 431.239ZM61.6433 425.947C33.2263 400.04 13.3771 366.789 3.71516 328.908C1.70613 321.008 1.57014 320.093 2.41702 320.093C2.72611 320.093 3.17737 321.274 3.41227 322.72C5.03804 332.592 13.0804 355.538 19.2125 367.784C30.6053 390.52 47.5986 412.434 66.7617 429.1C68.9686 431.022 70.3656 432.592 69.8525 432.592C69.3395 432.586 65.649 429.601 61.6433 425.947ZM58.2311 408.688C52.5254 402.97 45.874 395.626 43.4446 392.362C29.709 373.953 20.1583 353.529 15.213 331.992C14.7247 329.872 14.5392 328.005 14.7927 327.845C15.0523 327.684 16.2824 331.455 17.525 336.215C20.4983 347.62 23.2244 354.895 28.7385 366.146C37.7018 384.425 51.2643 402.098 66.3475 415.136C68.4988 416.99 69.6795 418.418 69.2715 418.665C68.8882 418.906 64.1531 414.629 58.2311 408.688ZM38.3262 417.744C38.3262 416.366 40.3847 410.345 40.8545 410.345C41.1017 410.345 42.4864 411.76 43.9329 413.491C46.0409 416.007 46.3932 416.749 45.6947 417.188C45.2125 417.497 44.3965 417.75 43.8896 417.763C43.3828 417.769 41.9177 417.948 40.6443 418.158C38.9629 418.437 38.3262 418.325 38.3262 417.744ZM43.1973 416.607L44.6685 416.199L42.9191 414.116L41.1697 412.039L40.4156 414.128C39.9952 415.278 39.6367 416.428 39.612 416.681C39.5563 417.225 41.1141 417.194 43.1973 416.607ZM31.6624 405.393C30.8031 404.596 30.185 403.038 29.913 401.011C29.4432 397.444 29.1835 397.116 25.3447 395.286L22.563 393.963V389.976V385.983L20.2511 385.031C18.9776 384.506 17.9329 383.72 17.9329 383.288C17.9268 382.435 22.8288 384.617 23.5891 385.804C23.8117 386.156 23.8488 387.887 23.6633 389.655L23.3357 392.875L26.6491 394.656C30.0304 396.473 30.2653 396.838 31.3286 401.987C31.7798 404.163 32.1507 404.559 34.6172 405.505L37.3989 406.568L35.1983 406.605C33.8136 406.623 32.5031 406.178 31.6624 405.393ZM22.2539 242.915C22.2539 242.099 24.6895 240.102 25.1407 240.554C25.3633 240.776 25.0356 241.518 24.4237 242.198C23.2553 243.49 22.2539 243.818 22.2539 242.915ZM30.29 241.895C29.4926 241.042 29.1217 240.35 29.4679 240.35C30.2591 240.35 32.4474 242.723 32.0394 243.131C31.8725 243.298 31.0875 242.742 30.29 241.895ZM23.175 234.78C21.5245 232.956 22.4084 232.672 24.1084 234.477C24.9058 235.33 25.2767 236.023 24.9306 236.023C24.5844 236.023 23.7931 235.466 23.175 234.78ZM30.0366 234.477C31.0318 232.963 32.1445 232.419 32.1445 233.457C32.1445 234.057 30.086 236.023 29.4555 236.023C29.2206 236.023 29.4802 235.33 30.0366 234.477ZM435.095 158.134C434.304 155.865 432.869 155.76 431.194 157.849C430.032 159.296 429.766 159.364 427.868 158.696C425.971 158.035 425.835 157.812 426.181 155.976C426.651 153.473 425.402 152.138 423.523 153.145C421.674 154.134 420.778 153.93 419.542 152.23C418.46 150.741 418.46 150.648 419.659 149.121C421.112 147.279 420.772 145.777 418.893 145.758C416.945 145.746 416.228 145.078 415.74 142.822C415.338 140.967 415.456 140.745 417.162 140.151C419.233 139.428 420.203 137.759 418.985 137.017C416.463 135.484 416.42 135.41 417.032 133.308C417.576 131.417 417.836 131.244 420.061 131.244C422.769 131.244 423.442 130.156 422.194 127.819C421.6 126.706 421.712 126.249 422.88 125.006C424.592 123.177 425.142 123.158 426.941 124.846C428.11 125.94 428.517 126.033 429.296 125.384C429.816 124.957 430.242 123.838 430.242 122.898C430.242 121.489 430.57 121.131 432.183 120.809C434.223 120.401 435.806 121.205 435.806 122.645C435.806 123.102 436.319 123.745 436.949 124.085C437.87 124.574 438.346 124.351 439.403 122.917C440.615 121.279 440.868 121.192 442.587 121.848C443.619 122.231 444.485 122.837 444.516 123.189C444.547 123.541 444.615 124.66 444.67 125.68C444.775 127.627 445.548 127.869 448.583 126.91C449.609 126.589 450.166 126.867 450.982 128.116C451.995 129.661 451.995 129.847 450.907 131.862C449.609 134.273 449.789 134.625 452.62 135.2C454.425 135.565 454.684 135.874 454.845 137.84C455.018 139.83 454.839 140.133 453.145 140.72C450.821 141.53 450.741 142.816 452.916 144.398C454.468 145.529 454.517 145.721 453.77 147.545C453.065 149.232 452.663 149.48 450.617 149.48C447.928 149.48 447.372 150.326 448.534 152.645C449.275 154.11 449.207 154.394 447.81 155.704C446.284 157.139 446.253 157.145 444.182 156.032C441.82 154.759 440.751 155.099 440.751 157.12C440.751 158.993 439.626 159.988 437.506 159.988C436.102 159.988 435.608 159.611 435.095 158.134ZM439.632 156.755C439.892 154.085 442.525 152.985 444.46 154.734C445.641 155.803 445.808 155.816 446.753 154.87C447.594 154.029 447.644 153.572 447.05 152.267C445.968 149.894 447.217 148.243 450.104 148.243C453.083 148.243 453.838 146.593 451.6 144.961C449.343 143.316 449.473 140.924 451.878 140.015C454.647 138.971 454.462 136.69 451.563 136.146C448.966 135.657 448.014 133.432 449.64 131.633C450.877 130.267 450.907 129.451 449.751 128.493C449.071 127.93 448.552 127.924 447.514 128.481C446.5 129.024 445.777 129.031 444.627 128.511C443.335 127.918 443.131 127.473 443.341 125.668C443.545 123.943 443.353 123.442 442.364 123.133C441.53 122.868 440.794 123.164 440.071 124.054C438.47 126.039 436.041 125.767 434.86 123.48C433.624 121.087 432.041 121.304 431.349 123.968C430.607 126.83 428.703 127.689 426.583 126.125C425.229 125.124 424.734 125.037 423.894 125.655C423.016 126.298 422.966 126.7 423.585 128.332C424.555 130.91 422.96 132.907 420.345 132.387C418.961 132.109 418.54 132.301 418.2 133.37C417.885 134.353 418.169 135.002 419.294 135.886C421.347 137.5 420.896 140.083 418.411 140.949C417.44 141.289 416.643 141.79 416.643 142.074C416.643 143.644 417.564 144.534 419.196 144.534C421.514 144.534 422.806 147.174 421.297 148.843C420.203 150.054 420.061 151.699 421.007 152.286C421.365 152.509 422.49 152.348 423.498 151.927C425.074 151.278 425.501 151.328 426.558 152.286C427.491 153.127 427.695 153.869 427.417 155.371C427.108 157.015 427.256 157.398 428.338 157.683C429.228 157.911 429.989 157.559 430.792 156.533C432.486 154.382 434.835 154.555 435.806 156.898C436.343 158.202 436.999 158.752 438.006 158.752C439.168 158.752 439.471 158.375 439.632 156.755ZM434.99 43.3408C434.532 42.5928 451.686 25.4511 452.292 26.0569C452.546 26.3103 448.837 30.4273 444.052 35.2119C439.261 40.0027 435.187 43.656 434.99 43.3408ZM427.77 35.7188C427.77 34.6185 442.16 5.44731 442.704 5.44731C442.989 5.44731 443.224 5.65749 443.217 5.91094C443.211 6.67746 428.487 36.3555 428.116 36.3555C427.924 36.3555 427.77 36.0712 427.77 35.7188ZM416.024 30.7179C416.024 29.7226 421.557 10.269 421.965 9.82392C423.028 8.68031 422.466 11.697 419.999 20.3636C417.353 29.6793 416.024 33.1349 416.024 30.7179ZM337.246 439.46C337.054 439.145 338.983 437.748 341.536 436.351C349.417 432.024 362.189 423.147 370.28 416.366C390.531 399.403 407.098 378.466 419.047 354.71C422.045 348.763 424.635 343.478 424.809 342.965C424.988 342.452 425.328 342.223 425.575 342.452C426.181 343.014 421.73 352.911 417.137 361.201C399.05 393.852 373.934 419.141 340.491 438.36C338.896 439.275 337.437 439.769 337.246 439.46ZM341.227 424.717C341.227 424.457 342.549 423.555 344.163 422.708C354.888 417.064 368.655 406.339 379.559 395.119C391.706 382.626 400.02 370.856 407.883 355.019C412.297 346.136 412.179 346.334 412.643 346.798C413.138 347.292 407.908 358.234 403.921 365.064C391.292 386.675 374.441 404.546 353.985 418.01C347.761 422.115 342.444 425.181 341.56 425.181C341.375 425.181 341.227 424.971 341.227 424.717ZM393.097 406.327C392.584 402.098 394.24 399.218 397.183 399.218C399.915 399.218 401.794 397.413 401.85 394.736C401.924 391.441 402.654 390.428 406.183 388.746C409.385 387.213 409.54 387.028 409.725 384.524C409.948 381.408 411.079 380.988 411.079 384.023C411.079 387.318 410.529 388.078 406.999 389.636C403.599 391.138 403.556 391.213 402.752 396.22C402.314 398.958 401.405 399.787 398.308 400.263C395.273 400.726 394.389 401.449 394.376 403.465C394.37 405.047 393.245 407.557 393.097 406.327ZM350.87 387.448C348.558 386.756 345.628 383.986 344.552 381.464C344.082 380.37 343.705 378.009 343.712 376.21C343.755 365.664 354.851 359.26 361.855 365.738C364.266 367.963 365.335 370.72 365.323 374.627C365.298 380.543 361.428 385.995 356.236 387.436C353.565 388.177 353.305 388.177 350.87 387.448ZM357.936 385.464C361.762 383.529 364.191 379.486 364.228 374.973C364.303 366.795 358.022 362.023 351.408 365.231C344.447 368.6 342.469 378.781 347.748 384.067C350.808 387.127 353.831 387.541 357.936 385.464ZM412.315 376.618C412.315 376 416.939 369.595 417.403 369.571C417.916 369.546 420.97 375.332 420.97 376.327C420.97 376.704 419.208 376.964 416.643 376.964C414.263 376.964 412.315 376.809 412.315 376.618ZM418.695 373.589C417.564 371.215 417.279 371.246 415.394 373.892L414.083 375.728H416.902H419.715L418.695 373.589ZM158.25 364.1C158.25 363.309 162.416 356.589 165.223 352.856C171.163 344.943 181.233 336.697 190.704 331.98C192.744 330.966 197.831 329.001 202.016 327.622C211.313 324.55 216.623 321.657 221.025 317.255C226.347 311.933 229.339 304.657 229.339 297.054C229.339 294.804 229.574 293.58 229.957 293.821C230.884 294.396 230.699 300.182 229.629 304.305C226.582 315.994 217.958 323.746 202.467 328.729C194.202 331.387 189.356 333.655 183.354 337.655C174.217 343.75 165.73 352.658 161.199 360.904C159.369 364.236 158.25 365.448 158.25 364.1ZM393.95 304.163C393.004 303.143 391.867 301.857 391.428 301.307C390.871 300.608 389.616 300.312 387.255 300.312C384.665 300.312 383.88 300.095 383.88 299.384C383.88 298.871 384.109 298.457 384.381 298.457C385.499 298.457 387.125 293.536 387.552 288.869C388.071 283.195 388.559 282.057 391.582 279.399C393.177 277.996 393.771 276.97 393.771 275.616C393.771 273.273 395.99 271.635 398.357 272.228C400.199 272.692 401.188 274.163 401.188 276.432C401.188 277.427 401.819 278.422 402.969 279.238C405.398 280.969 406.752 284.097 406.764 288.041C406.789 292.43 407.617 295.793 409.212 297.95C409.929 298.927 410.35 299.99 410.146 300.324C409.935 300.658 407.976 300.93 405.788 300.93C402.332 300.93 401.807 301.078 401.807 302.073C401.807 303.606 399.983 305.158 397.615 305.634C395.99 305.955 395.396 305.72 393.95 304.163ZM399.21 302.661C400.546 301.325 400.002 300.93 396.837 300.93C393.919 300.93 393.771 301.004 394.389 302.166C395.137 303.563 398.017 303.854 399.21 302.661ZM399.223 276.049C399.081 275.029 398.611 274.658 397.479 274.658C396.348 274.658 395.878 275.029 395.736 276.049C395.569 277.236 395.823 277.439 397.479 277.439C399.136 277.439 399.39 277.236 399.223 276.049ZM342.463 247.768C342.463 247.36 356.99 247.149 384.807 247.149C412.625 247.149 427.151 247.36 427.151 247.768C427.151 248.176 412.625 248.386 384.807 248.386C356.99 248.386 342.463 248.176 342.463 247.768ZM349.417 232.474C346.228 232.344 344.317 232.004 344.317 231.578C344.317 231.102 345.764 231.015 349.046 231.294C351.649 231.516 354.449 231.695 355.265 231.695C356.1 231.695 356.588 231.967 356.372 232.314C356.161 232.654 355.661 232.876 355.253 232.808C354.851 232.734 352.224 232.586 349.417 232.474ZM368.426 232.419C368.426 232.079 377.772 231.677 391.143 231.454C403.636 231.238 417.267 230.898 421.433 230.7C426.274 230.465 429.006 230.558 429.006 230.947C429.006 231.621 417.947 232.066 387.434 232.641C375.825 232.858 368.426 232.771 368.426 232.419ZM348.422 216.804C341.536 216.34 339.984 216.043 340.701 215.326C340.862 215.159 345.016 215.333 349.924 215.71C358.665 216.383 397.628 216.099 415.715 215.234C421.279 214.968 423.56 215.048 423.133 215.493C421.749 216.934 365.094 217.929 348.422 216.804ZM363.48 187.286C363.48 186.804 365.156 186.557 368.58 186.538C371.387 186.52 375.627 186.279 378.007 186.007C382.625 185.469 384.714 185.858 381.692 186.687C378.384 187.596 363.48 188.084 363.48 187.286ZM337.827 174.991C328.097 174.769 294.017 172.945 293.702 172.63C292.898 171.826 295.439 171.851 311.592 172.766C332.115 173.934 360.489 174.064 371.517 173.044C387.28 171.585 387.923 171.548 387.28 172.222C385.988 173.563 353.924 175.362 337.827 174.991ZM344.008 159.988C342.92 159.71 346.611 159.481 352.972 159.432C358.918 159.383 370.033 158.937 377.661 158.443C390.402 157.621 392.639 157.615 391.836 158.418C391.681 158.573 384.888 159.129 376.746 159.655C361.243 160.644 347.161 160.792 344.008 159.988ZM301.602 149.102C299.859 147.038 299.803 146.605 300.434 140.423C300.848 136.337 300.848 132.301 300.428 128.153C300.088 124.753 299.624 120.228 299.408 118.102C299.074 114.819 299.191 114.034 300.18 112.921C301.324 111.642 301.658 111.623 312.791 112.025C322.224 112.365 327.849 112.149 344.936 110.82C356.322 109.929 368.012 109.305 370.898 109.435C377.439 109.732 381.846 111.598 386.587 116.08C392.862 122.021 395.31 128.994 394.914 139.861C394.574 149.226 396.453 148.571 368.661 149.072C295.952 150.394 302.69 150.394 301.602 149.102ZM372.308 147.835C386.062 147.539 391.625 147.211 392.398 146.648C393.257 146.018 393.505 144.652 393.678 139.484C393.801 135.855 393.573 131.633 393.14 129.698C390.927 119.727 383.027 112.198 373.149 110.653C370.769 110.276 365.119 110.455 355.29 111.203C327.676 113.317 321.285 113.595 312.173 113.082C307.19 112.804 302.733 112.822 302.14 113.119C300.162 114.108 299.921 115.586 300.836 121.044C301.417 124.543 301.658 129.81 301.54 136.807C301.442 142.587 301.615 147.705 301.917 148.188C302.492 149.084 317.118 149.01 372.308 147.835ZM228.103 119.363C228.103 118.998 231.929 118.571 237.53 118.324C242.716 118.089 248.279 117.737 249.893 117.539C251.679 117.316 252.829 117.415 252.829 117.792C252.829 118.485 248.341 118.967 236.293 119.573C230.965 119.839 228.103 119.764 228.103 119.363ZM225.308 104.953C225.104 104.626 225.58 104.335 226.365 104.31C227.151 104.292 235.304 103.921 244.484 103.488C253.664 103.062 261.292 102.802 261.434 102.913C262.299 103.599 259.654 103.915 249.009 104.384C242.438 104.675 234.507 105.058 231.373 105.231C227.991 105.423 225.531 105.312 225.308 104.953ZM223.157 88.9489C223.157 88.578 223.503 88.2751 223.93 88.2689C224.356 88.2628 240.688 87.725 260.229 87.0697C279.769 86.4145 295.878 86.0003 296.033 86.1548C296.181 86.3032 296.175 86.5628 296.014 86.7235C295.847 86.8843 282.798 87.4344 267.01 87.9413C251.222 88.442 234.896 89.0293 230.73 89.2333C225.5 89.4929 223.157 89.4064 223.157 88.9489ZM220.685 73.5999C220.685 73.2599 222.007 72.821 223.621 72.6232C228.764 71.9927 278.94 71.5043 283.119 72.0421C285.901 72.4068 277.426 72.7098 255.611 73.025C238.271 73.2785 223.318 73.6494 222.385 73.8472C221.433 74.0512 220.685 73.9399 220.685 73.5999ZM218.756 59.073C218.243 58.6465 217.322 56.6313 216.704 54.5914C215.399 50.2518 213.724 46.7345 211.61 43.9157C209.749 41.4368 210.145 39.6874 212.698 39.1249C213.712 38.9024 223.503 38.6984 234.457 38.6736C256.94 38.618 263.258 39.2053 267.646 41.7583C275.058 46.0731 281.524 56.248 278.668 59.104C277.574 60.1981 220.073 60.1672 218.756 59.073ZM278.508 57.948C279.336 56.6128 275.114 49.4915 271.59 46.2709C267.115 42.1786 265.619 41.4492 259.808 40.5405C253.46 39.5514 212.859 39.6071 211.857 40.6085C211.356 41.1092 211.517 41.7521 212.457 43.0255C214.293 45.5167 216.629 50.3446 217.897 54.2823C218.502 56.1491 219.114 57.8924 219.257 58.1458C219.696 58.9123 278.038 58.7145 278.508 57.948ZM401.541 107.71C399.866 106.035 400.793 103.735 403.142 103.735C404.063 103.735 405.516 105.386 405.516 106.431C405.516 106.944 403.605 108.681 403.043 108.681C402.752 108.681 402.079 108.242 401.541 107.71ZM414.943 101.473C413.799 101.009 414.003 98.3265 415.233 97.6341C417.502 96.3669 419.604 99.2908 417.755 101.139C416.983 101.912 416.247 101.998 414.943 101.473ZM374.02 97.8999C373.476 97.2447 373.464 96.6883 373.971 95.7364C375.281 93.2822 378.86 94.8586 378.02 97.5229C377.544 99.0126 375.133 99.2413 374.02 97.8999ZM405.757 88.1391C402.394 84.325 398.994 80.4306 398.197 79.4848C396.775 77.7972 396.756 77.5994 397.195 69.1182C397.436 64.3584 397.887 60.4639 398.184 60.4639C398.499 60.4639 398.555 64.1482 398.326 68.9946L397.918 77.5314L405.429 85.9694C409.552 90.6056 412.934 94.5557 412.934 94.7411C412.934 95.9095 411.159 94.2837 405.757 88.1391ZM422.849 88.6213C421.977 87.5642 422.497 85.4501 423.745 84.968C424.227 84.7825 425.223 85.1287 425.965 85.7283C427.114 86.6555 427.207 87.0203 426.595 88.17C425.767 89.7154 423.943 89.938 422.849 88.6213ZM367.832 84.9123C366.194 82.9404 368.611 79.8372 370.54 81.4382C371.702 82.4026 371.807 84.0345 370.775 85.0668C369.786 86.0559 368.741 86.0003 367.832 84.9123ZM424.184 73.9399C422.336 72.0916 424.388 69.2048 426.669 70.4287C428.493 71.4054 427.671 74.6817 425.606 74.6817C425.235 74.6817 424.592 74.3479 424.184 73.9399ZM368.809 70.0331C368.259 69.4829 367.808 68.7906 367.808 68.5001C367.808 67.5419 369.792 65.9594 370.75 66.151C372.283 66.4539 373.167 68.3208 372.376 69.5818C371.449 71.0592 370.014 71.2385 368.809 70.0331ZM417.217 60.1054C416.136 58.7949 417.217 57.064 419.115 57.064C421.013 57.064 422.095 58.7949 421.013 60.1054C420.568 60.6432 419.715 61.0821 419.115 61.0821C418.516 61.0821 417.663 60.6432 417.217 60.1054ZM377.105 57.7131C375.467 55.7411 377.884 52.638 379.812 54.239C380.975 55.2033 381.08 56.8353 380.047 57.8676C379.058 58.8567 378.013 58.8011 377.105 57.7131ZM404.922 51.8529C404.18 50.4744 404.607 48.9599 405.874 48.4777C407.166 47.9832 408.508 48.6632 408.94 50.0417C409.756 52.6009 406.183 54.2081 404.922 51.8529ZM390.043 50.5362C389.536 49.5842 389.548 49.0279 390.092 48.3726C391.205 47.0312 393.616 47.2599 394.092 48.7497C394.933 51.414 391.353 52.9903 390.043 50.5362ZM336.281 47.5752C336.281 46.7592 338.717 44.7626 339.168 45.2138C339.391 45.4364 339.063 46.1781 338.451 46.8581C337.283 48.1501 336.281 48.4777 336.281 47.5752ZM344.62 46.8581C344.008 46.1781 343.681 45.4364 343.903 45.2138C344.354 44.7626 346.79 46.7592 346.79 47.5752C346.79 48.4777 345.789 48.1501 344.62 46.8581ZM337.202 39.4402C336.59 38.7602 336.263 38.0184 336.485 37.7958C336.937 37.3446 339.372 39.3412 339.372 40.1572C339.372 41.0597 338.371 40.7321 337.202 39.4402ZM343.699 40.1572C343.699 39.3412 346.135 37.3446 346.586 37.7958C346.809 38.0184 346.481 38.7602 345.869 39.4402C344.701 40.7321 343.699 41.0597 343.699 40.1572ZM33.3809 69.9156C33.3809 69.5447 37.4793 69.1553 43.7351 68.9328C49.4284 68.735 56.8464 68.1353 60.2215 67.6037C65.8036 66.7321 67.5097 66.7197 66.6566 67.5728C65.2287 69.0008 33.3809 71.2447 33.3809 69.9156ZM23.4902 56.2295C23.4902 55.7226 26.3585 55.5186 33.4241 55.5186C44.8664 55.5186 61.4146 54.1957 75.3357 52.1682C84.571 50.8267 85.9681 50.734 85.1459 51.5562C84.6452 52.0631 71.3547 54.0412 60.5801 55.2157C48.6495 56.5138 23.4902 57.2062 23.4902 56.2295ZM21.9819 43.075C18.9405 42.7844 16.1588 42.2528 15.8003 41.8943C15.349 41.443 16.7399 41.3936 20.4056 41.7397C32.6576 42.8833 61.0931 41.6532 72.8012 39.4772C75.3789 38.9951 77.1283 39.6627 74.9586 40.2932C72.9372 40.8867 57.8602 42.5063 48.5259 43.1306C37.8502 43.8477 29.845 43.8291 21.9819 43.075ZM92.5515 39.8852C92.3723 39.4216 92.0323 37.2024 91.7912 34.9461C91.3646 30.9899 91.4017 30.8353 92.8112 30.483C93.6148 30.279 96.4954 30.1986 99.2091 30.2975C103.79 30.4706 104.198 30.5942 104.872 32.0284C105.267 32.8814 105.688 35.1068 105.805 36.9737L106.015 40.3736L99.444 40.5467C94.3566 40.6827 92.7988 40.5343 92.5515 39.8852ZM104.748 36.8191C103.957 30.9713 104.482 31.4102 98.2757 31.4102C92.0508 31.4102 92.3661 31.0949 93.1202 36.5781L93.5097 39.4463H99.3081H105.1L104.748 36.8191ZM109.032 39.0507C108.803 38.1544 108.593 35.861 108.556 33.9509L108.488 30.483L114.422 30.3099C118.756 30.1801 120.536 30.3531 121.03 30.9466C121.815 31.8924 123.132 39.3722 122.65 40.1572C122.471 40.4478 119.423 40.6827 115.881 40.6827H109.44L109.032 39.0507ZM121.562 37.7464C121.389 36.813 121.074 35.0017 120.863 33.7283L120.486 31.4102H114.948H109.415L109.421 33.1102C109.427 34.0436 109.6 35.8548 109.811 37.1282L110.194 39.4463H116.036H121.877L121.562 37.7464ZM431.169 149.739C427.052 147.594 425.297 144.831 425.297 140.485C425.297 136.931 426.731 133.791 429.129 132.084C436.146 127.09 445.721 132.047 445.684 140.652C445.653 147.631 437.234 152.904 431.169 149.739ZM439.502 148.398C446.191 145.035 446.092 135.744 439.329 132.264C435.657 130.372 432.332 130.83 429.358 133.636C421.631 140.918 430.038 153.151 439.502 148.398Z" fill="black"/>
</svg>
