<svg width="569" height="568" viewBox="0 0 569 568" fill="none" xmlns="http://www.w3.org/2000/svg">
<path d="M111.524 567.673C110.067 567.498 105.697 566.649 101.821 565.784C92.4359 563.69 91.4952 562.711 92.1628 555.754C93.0125 546.908 95.9789 539.458 98.2929 540.353C98.9984 540.619 99.5522 540.057 99.9012 538.699C100.713 535.566 100.447 532.061 98.7708 523.746C96.4493 512.229 95.6982 502.352 94.4844 467.817C93.8698 450.406 93.0353 434.018 92.6332 431.401C92.2311 428.784 91.518 423.564 91.0628 419.809C89.3178 405.568 85.9494 395.728 79.0682 384.804C75.366 378.932 73.1279 372.134 72.0658 363.576C71.603 359.897 71.0795 356.733 70.8898 356.543C70.7077 356.361 70.556 358.159 70.556 360.549C70.556 369.001 73.9624 379.994 78.7496 386.973C84.7734 395.766 87.9826 405.925 90.0462 422.752L91.3359 433.29L88.0736 439.663C79.9104 455.595 54.7833 490.433 45.6338 498.513C42.2653 501.479 39.0789 507.973 40.2776 509.415C40.8466 510.098 41.2639 513.747 41.3701 519.027C41.5446 527.448 42.9102 533.518 45.9752 539.45C48.4788 544.291 46.2104 546.893 39.4734 546.878C34.4586 546.87 29.4742 544.731 23.7387 540.118C16.4327 534.246 6.828 520.84 3.04225 511.236L1.45664 507.222L5.01479 503.899C8.89916 500.288 19.5888 494.537 22.4338 494.537C23.4049 494.537 24.5049 495.076 24.8691 495.736C25.4533 496.775 25.8402 496.677 27.8355 495C29.8611 493.293 30.1798 492.451 30.6274 487.694C32.3571 469.046 39.1548 446.324 48.3498 428.419C55.8758 413.77 57.7876 407.23 58.258 394.591C58.5084 387.755 58.2504 383.355 57.2642 377.9C56.5207 373.826 55.8834 367.999 55.8379 364.949L55.762 359.396L53.1067 359.874C46.3394 361.088 33.9731 364.403 28.7231 366.421C7.10112 374.721 -2.78431 392.588 2.65533 413.55C2.98915 414.832 2.8981 415.636 2.41255 415.636C1.03178 415.636 -0.174495 407.253 0.128972 399.749C0.386919 393.248 0.720728 391.852 3.25468 386.511C10.0447 372.202 23.8828 364.274 51.6652 358.759L55.9062 357.917L56.8848 352.454C57.4235 349.442 58.4932 345.065 59.267 342.713C60.5719 338.722 60.5871 338.267 59.4339 335.968C57.8787 332.843 58.3718 323.048 60.6402 312.207C61.4975 308.102 62.5976 300.933 63.0831 296.267C64.1756 285.79 63.4169 283.605 56.9835 278.856C49.7761 273.53 40.5735 263.03 30.8474 249.018C20.264 233.784 15.7803 216.175 15.9699 190.577C16.0306 182.452 15.7651 177.756 15.1733 176.648C13.9443 174.357 13.9519 168.644 15.1885 167.157C18.0487 163.705 25.6278 162.484 29.2845 164.874C31.0978 166.065 31.2495 166.535 30.9233 169.927C30.6653 172.643 29.9066 174.486 28.1617 176.656L25.7567 179.653L28.5259 187.065C35.4904 205.72 45.3834 220.78 63.379 240.134C68.3559 245.49 71.3981 248.13 73.2948 248.76C75.8211 249.594 83.7113 249.48 84.5913 248.608C84.7962 248.395 85.1907 244.564 85.4638 240.088C85.7749 235.088 86.2149 232.334 86.6246 232.941C86.9811 233.488 87.057 237.243 86.7915 241.287C86.139 251.051 86.5108 252.28 90.6607 254.116C94.4692 255.8 97.2762 255.481 99.9543 253.046C101.35 251.787 101.661 250.694 101.661 247.121C101.661 244.716 102.003 242.539 102.42 242.281C102.875 242 103.179 243.032 103.179 244.89C103.179 247.88 103.255 247.971 105.735 247.971C108.284 247.971 108.284 247.971 107.746 245.027C107.23 242.182 107.298 242.053 109.726 241.309C112.214 240.543 112.252 240.566 112.745 243.305C113.019 244.83 113.383 246.332 113.565 246.643C113.815 247.075 117.775 245.55 118.944 244.564C119.353 244.215 116.023 226.349 115.272 224.831C114.559 223.397 114.536 223.405 114.839 224.998C115.021 225.954 114.543 227.388 113.724 228.336C112.002 230.316 112.04 229.641 113.459 233.647C114.581 236.841 114.566 237.023 113.003 238.29C110.727 240.141 105.682 241.355 102.655 240.786C100.447 240.376 99.8026 239.701 98.0349 235.984C95.8348 231.379 95.8348 231.379 89.6441 232.183C88.0281 232.395 87.7019 231.879 86.1845 226.644C85.259 223.466 83.4154 219.172 82.0802 217.093C80.7525 215.014 79.66 212.306 79.66 211.061C79.66 206.472 82.3684 205.159 88.9537 206.563C91.7532 207.162 91.7987 207.132 91.7987 204.856C91.7987 203.581 92.1249 202.337 92.527 202.086C92.9291 201.836 95.2885 202.162 97.7618 202.8C102.913 204.135 107.427 204.317 108.11 203.209C108.967 201.821 111.471 202.42 113.906 204.598C115.864 206.35 116.319 207.352 116.379 210.037C116.455 213.186 116.342 213.36 113.8 213.99C109.248 215.128 109.104 215.227 109.878 216.607C110.272 217.305 111.478 217.92 112.571 217.965C114.149 218.034 114.468 217.776 114.126 216.698C113.891 215.955 114.058 215.348 114.49 215.348C115.454 215.348 115.507 215.568 118.269 231.136C119.475 237.941 120.628 243.677 120.833 243.874C121.03 244.071 123.283 243.654 125.84 242.948C128.897 242.099 130.491 241.264 130.491 240.513C130.491 239.891 125.666 213.702 119.763 182.316C113.352 148.198 109.225 124.49 109.514 123.352C109.787 122.26 110.72 121.258 111.706 120.993C112.647 120.742 128.275 120.53 146.423 120.522C179.152 120.515 179.485 120.492 186.458 118.626C190.327 117.594 194.765 116.069 196.32 115.249L199.15 113.755L148.236 113.717L97.3142 113.687L97.9742 117.29C104.271 151.939 112.844 201.381 112.601 201.624C112.427 201.798 112.093 201.76 111.865 201.533C111.638 201.297 107.571 179.319 102.822 152.682C95.023 108.884 94.2947 104.014 95.1899 101.859C97.3369 96.7228 94.0595 96.9959 153.038 96.9959H206.357V89.3865C206.357 78.6134 208.633 74.0083 215.841 70.2302C220.651 67.7038 228.973 67.9162 234.656 70.7081C237.546 72.1268 239.701 73.8414 240.93 75.7001C242.637 78.272 245.072 86.8222 246.203 94.1509L246.635 96.9959H277.3H307.958L308.747 93.9612C309.179 92.2922 309.877 89.5989 310.302 87.9829C310.72 86.3594 311.577 84.6145 312.199 84.091C312.821 83.5751 313.329 82.4523 313.329 81.5874C313.329 79.7438 316.235 73.4772 317.092 73.4772C317.411 73.4772 318.921 71.884 320.438 69.9419L323.192 66.3989V56.6652V46.9239H330.02H336.848V51.8552C336.848 56.1721 337.023 56.7866 338.274 56.7866C339.056 56.7866 340.125 57.3025 340.649 57.9398C342.037 59.6012 341.081 66.1106 338.76 70.8523C337.713 73.0069 336.848 75.9581 336.848 77.4223C336.848 81.5495 335.391 84.789 332.971 86.0408C330.855 87.1332 330.779 87.3684 330.779 92.7246C330.779 97.5573 331.021 98.5588 332.683 100.478C333.722 101.692 334.792 103.369 335.042 104.203C335.3 105.038 336.165 106.441 336.977 107.329C338.138 108.596 338.229 109.028 337.409 109.339C336.575 109.658 338.995 124.482 349.571 183.84C357.408 227.782 362.582 258.721 362.301 259.851C362.036 260.898 360.996 262.583 359.987 263.592L358.159 265.42L256.278 265.45L154.389 265.473L149.647 269.084C147.037 271.072 142.599 273.849 139.784 275.26C128.457 280.935 127.153 283.036 125.969 297.618C125.537 302.982 125.18 309.961 125.18 313.14C125.18 320.226 123.23 337.425 121.804 342.918C121.227 345.148 120.894 347.113 121.06 347.288C121.629 347.849 142.121 342.675 151.088 339.709C173.105 332.41 199.112 317.502 210.28 305.781C218.686 296.958 222.623 288.225 223.192 277.179L223.427 272.627L204.461 272.225C194.029 272.005 223.898 271.838 270.844 271.846C336.082 271.853 340.785 271.907 290.812 272.058L225.43 272.256L224.967 276.618C222.38 300.63 209.589 314.111 171.838 332.592C158.577 339.086 147.014 343.077 130.111 346.977C123.435 348.517 117.859 349.882 117.722 350.019C117.586 350.148 117.859 350.99 118.337 351.878C118.875 352.887 119.687 353.349 120.484 353.114C125.415 351.627 153.364 344.936 153.607 345.186C154.04 345.611 150.079 364.274 147.348 374.668C144.594 385.175 140.315 396.829 139.071 397.231C138.57 397.398 137.243 396.131 136.112 394.424C134.982 392.724 133.981 391.419 133.874 391.533C133.768 391.647 134.458 395.152 135.399 399.332C137.524 408.717 139.595 422.661 139.595 427.532C139.595 432.645 137.175 446.908 133.503 463.432C129.398 481.928 116.986 530.991 116.152 532.031C115.348 533.04 115.985 537.781 116.926 537.781C117.297 537.781 119.604 539.617 122.039 541.855C127.304 546.696 131.644 549.328 137.319 551.111C142.667 552.795 143.388 553.402 143.388 556.209C143.388 559.532 137.895 564.638 132.63 566.201C128.602 567.4 116.387 568.249 111.524 567.673ZM127.357 565.814C135.688 564.464 141.871 560.23 141.871 555.875C141.871 553.387 141.006 553.205 137.053 554.851C133.594 556.3 126.295 556.316 122.244 554.889L119.111 553.782L119.3 556.103C119.596 559.752 118.094 560.245 109.863 559.206C105.978 558.72 100.781 557.62 98.3156 556.771C95.8499 555.921 93.7181 555.231 93.5739 555.231C92.9974 555.231 93.3691 559.972 94.0443 561.239C94.8485 562.749 98.3915 563.902 106.972 565.45C114.005 566.717 121.023 566.846 127.357 565.814ZM117.715 555.693C117.373 552.78 118.709 552.12 122.358 553.41C126.826 554.988 137.319 554.692 137.319 552.985C137.319 552.681 136.037 552.052 134.474 551.581C130.696 550.451 125.165 546.885 120.666 542.675L117.009 539.253L114.073 542.568C108.74 548.6 105.766 548.919 100.683 543.995C98.2929 541.673 97.6783 541.4 97.0714 542.341C95.9258 544.101 93.9381 551.301 94.2112 552.697C94.6664 555.026 106.737 558.235 114.179 558.007C117.889 557.886 117.965 557.84 117.715 555.693ZM44.1923 544.495C46.4532 543.304 45.6793 541.726 41.537 539.071C36.6891 535.968 33.0703 531.955 30.8777 527.266C29.9749 525.332 29.1328 523.587 29.0038 523.397C28.8673 523.207 27.9493 524.057 26.9554 525.294L25.1498 527.539L22.3427 524.884C18.7315 521.478 13.4056 513.345 11.3572 508.102C10.4772 505.857 9.51368 503.77 9.21021 503.459C8.58052 502.814 4.02093 505.834 3.44434 507.283C3.23192 507.822 4.552 511.236 6.3728 514.87C17.1383 536.264 34.269 549.692 44.1923 544.495ZM111.638 542.963C114.187 540.209 114.559 539.337 114.559 536.135V532.471H108.55C102.602 532.471 102.534 532.493 102.124 534.557C100.652 542.007 100.645 541.984 103.171 544.109C106.479 546.893 108.239 546.65 111.638 542.963ZM42.4626 534.481C40.3459 528.465 39.2686 520.575 39.8376 515.211L40.3307 510.469H34.2462C28.928 510.469 27.8886 510.242 26.0602 508.664C24.2015 507.07 23.9208 506.228 23.6552 501.456C23.4049 497.086 23.109 496.055 22.1075 496.055C20.0971 496.055 11.3952 500.455 10.9096 501.714C9.91578 504.294 22.4641 525.643 24.9753 525.643C25.2939 525.643 25.9388 524.793 26.4168 523.746C27.6913 520.946 30.0432 521.288 31.075 524.421C32.4102 528.457 36.2339 533.722 39.6555 536.241C41.3777 537.501 43.0316 538.54 43.335 538.54C43.6385 538.54 43.244 536.712 42.4626 534.481ZM39.9893 504.127L42.3715 499.294L39.2003 498.346C37.463 497.83 35.1339 496.753 34.0262 495.971C31.4923 494.166 31.6516 494.15 28.0555 496.533C25.3243 498.338 25.036 498.839 25.036 501.745C25.036 503.846 25.5822 505.644 26.6064 506.957C28.0024 508.732 28.7079 508.952 32.8958 508.952H37.6071L39.9893 504.127ZM142.129 386.996C146.15 375.138 152.666 347.986 151.703 347.098C151.422 346.84 124.209 353.418 120.878 354.548C120.294 354.745 121.227 357.78 123.625 363.432C125.62 368.151 128.283 375.002 129.542 378.643C131.629 384.72 137.486 395.152 138.806 395.152C139.109 395.152 140.604 391.48 142.129 386.996ZM117.472 347.659C118.428 346.992 119.528 345.588 119.93 344.549C121.349 340.816 122.98 327.016 123.678 312.837C124.679 292.489 125.142 288.233 126.728 284.584C128.602 280.267 131.113 278.09 138.813 274.114C159.737 263.311 173.53 243.76 177.892 218.709C179.023 212.23 179.47 194.151 178.605 189.842C178.18 187.702 178.074 187.657 173.151 187.657H168.136L166.831 194.864C161.816 222.57 149.146 237.706 125.188 244.595C121.311 245.71 116.736 247.257 115.021 248.039C113.155 248.881 110.143 249.458 107.541 249.473C104.081 249.488 103.179 249.738 103.179 250.687C103.179 251.339 102.139 252.917 100.872 254.184C98.7025 256.361 98.2929 256.475 93.9078 256.157C89.7199 255.853 89.0144 255.55 86.9204 253.152C84.6369 250.535 84.4927 250.489 79.8952 250.831C73.1658 251.331 69.9718 249.556 62.0817 240.938C43.7978 220.947 33.2372 204.719 26.9175 186.883L24.7781 180.821L21.0227 180.829H17.2748L17.6693 196.002C18.4659 225.84 23.1545 238.191 42.9861 262.711C46.6732 267.279 51.9156 272.847 54.624 275.093C66.8461 285.229 66.8613 285.274 62.15 311.585C60.9361 318.413 59.9347 326.356 59.9347 329.247C59.9347 334.352 60.0181 334.58 63.1211 337.948C64.8736 339.845 67.2103 341.871 68.3255 342.447C71.9064 344.299 79.8269 345.914 92.2159 347.318C108.284 349.131 115.234 349.23 117.472 347.659ZM359.297 262.15C360.298 260.982 361.11 259.108 361.087 257.977C361.065 256.855 355.344 224.012 348.372 185.001L335.702 114.066L328.017 113.853L320.332 113.633L319.968 116.509C319.77 118.087 319.755 119.635 319.93 119.946C320.104 120.257 321.91 120.515 323.951 120.515C325.991 120.515 327.903 120.917 328.207 121.41C328.51 121.903 334.124 151.521 340.679 187.224C350.724 241.932 352.454 252.378 351.65 253.661C350.709 255.163 349.768 255.178 257.499 255.368L164.289 255.565L160.291 259.517C158.083 261.695 156.285 263.743 156.285 264.077C156.285 264.411 201.547 264.593 256.877 264.479L357.461 264.282L359.297 262.15ZM204.916 246.264C204.954 241.985 205.212 234.102 205.485 228.746C205.879 220.947 205.773 218.838 204.931 218.14C204.142 217.487 203.99 215.924 204.301 211.782L204.719 206.289L201.176 206.745C199.226 206.995 197.397 207.412 197.109 207.67C196.813 207.928 195.228 211.896 193.581 216.486C188.878 229.596 188.096 231.28 186.738 231.288C185.881 231.295 184.47 233.73 182.186 239.2C178.332 248.403 175.093 252.022 172.27 250.277C171.542 249.829 171.709 248.942 172.961 246.484C173.864 244.716 174.44 243.108 174.243 242.918C173.636 242.311 168.902 247.591 167.074 250.907L165.344 254.04H185.092H204.84L204.916 246.264ZM350.33 253.092C350.861 252.432 347.492 232.494 339.23 187.414C326.295 116.843 327.372 120.955 321.963 121.417L319.232 121.653L317.502 128.534C315.34 137.122 313.011 142.599 310.545 144.906C308.884 146.461 307.95 146.673 303.209 146.582C297.17 146.461 286.814 143.464 277.073 139.026C273.962 137.607 271.33 136.447 271.231 136.447C270.943 136.447 271.557 152.834 272.414 167.931C273.348 184.417 274.979 199.431 276.959 209.658C277.763 213.831 278.431 217.328 278.431 217.434C278.431 217.54 276.549 217.624 274.258 217.624H270.085L270.002 222.366C269.949 224.975 269.698 233.169 269.433 240.574L268.947 254.04H309.255C340.581 254.04 349.73 253.827 350.33 253.092ZM176.473 247.068C178.014 245.679 184.204 231.614 183.544 230.999C183.362 230.832 181.799 230.461 180.07 230.172L176.929 229.656L175.609 233.692C174.88 235.915 173.811 238.677 173.219 239.838C172.179 241.901 172.195 241.939 174.084 241.461C176.527 240.847 176.625 242.273 174.44 246.559C172.824 249.716 173.371 249.852 176.473 247.068ZM138.35 237.918C141.127 236.454 145.482 233.002 149.124 229.383C155.8 222.753 159.366 216.805 162.423 207.185L164.175 201.669L162.317 200.425C155.496 195.843 149.108 186.382 146.794 177.415C144.852 169.911 145.49 156.832 148.145 149.389C151.794 139.193 158.47 131.713 170.055 124.862L174.865 122.017L143.009 122.214L111.145 122.411L110.917 124.353C110.796 125.423 115.492 151.817 121.349 183.021C127.213 214.218 132.008 239.891 132.008 240.065C132.008 240.877 134.072 240.187 138.35 237.918ZM108.52 231.265C110.174 230.423 111.524 229.353 111.524 228.883C111.524 228.412 111.994 227.653 112.579 227.191C113.466 226.478 113.421 226.015 112.29 224.217L110.955 222.077L110.485 223.944C109.445 228.101 105.455 226.864 105.455 222.373V219.725L101.851 220.264C99.8709 220.56 98.1639 220.879 98.0577 220.985C97.7618 221.266 101.73 230.802 102.587 231.849C103.672 233.169 105.045 233.04 108.52 231.265ZM190.349 221.228C192.064 216.531 197.511 200.569 202.443 185.76C208.557 167.423 211.759 158.827 212.48 158.827C213.064 158.827 214.748 161.179 216.212 164.062C218.519 168.591 218.875 170.025 218.875 174.683C218.875 180.449 219.141 179.751 211.402 194.196C207.374 201.707 205.417 208.444 205.743 213.633C205.963 216.979 206.228 217.411 209.453 219.566C215.583 223.663 220.651 224.839 231.773 224.755C242.257 224.672 245.322 224.05 258.705 219.263C262.461 217.92 267.627 216.729 271.072 216.418C275.859 215.993 276.913 215.674 276.564 214.764C274.933 210.523 272.012 186.496 270.874 167.931C270.29 158.501 269.782 138.161 270.047 134.815C270.07 134.542 273.416 135.779 277.482 137.569C291.874 143.897 303.482 146.673 307.905 144.837C312.214 143.055 315.689 133.837 318.61 116.471C320.438 105.622 322.357 88.643 321.902 87.4139C321.485 86.2911 313.913 84.7738 313.026 85.6387C312.654 86.0028 310.871 91.4273 309.073 97.6939C305.363 110.629 301.479 119.695 298.846 121.539C295.463 123.913 293.612 123.322 281.625 116.076C277.452 113.558 273.552 111.873 270.055 111.077C263.401 109.559 252.446 108.763 247.826 109.453C244.67 109.931 244.367 110.144 245.042 111.403C245.459 112.184 245.596 113.345 245.353 113.998C244.222 116.926 234.663 120.522 228.032 120.507C222.35 120.492 220.848 119.892 220.195 117.374L219.626 115.166L215.454 117.214C212.905 118.466 209.081 121.493 205.599 125.021C198.338 132.373 194.507 139.565 190.82 152.758C189.31 158.182 187.247 165.23 186.245 168.424C185.107 172.066 184.576 175.177 184.834 176.77C185.153 178.742 184.766 179.994 183.127 182.346C181.025 185.365 181.01 185.479 180.51 201.313C180.176 211.881 179.584 219.005 178.749 222.479C178.059 225.355 177.589 227.798 177.703 227.911C178.203 228.397 183.408 229.634 185.221 229.694C187.095 229.755 187.421 229.216 190.349 221.228ZM95.152 226.265C96.6921 225.673 96.6693 224.551 95.0989 222.806C93.2857 220.803 91.04 221 91.04 223.162C91.04 224.846 92.2842 226.728 93.407 226.728C93.7029 226.728 94.4919 226.523 95.152 226.265ZM109.248 222.13C109.248 220.651 108.861 219.9 108.11 219.9C106.964 219.9 106.449 223.678 107.458 224.687C108.376 225.605 109.248 224.361 109.248 222.13ZM113.125 219.68C111.812 218.367 111.312 219.612 112.381 221.539C113.254 223.132 113.383 223.17 113.648 221.903C113.808 221.129 113.572 220.128 113.125 219.68ZM108.322 218.026C108.436 217.92 108.186 216.934 107.769 215.833C107.131 214.157 106.547 213.831 104.142 213.831C101.365 213.838 96.3507 216.182 96.3507 217.487C96.3507 218.959 97.7542 219.232 102.792 218.732C105.72 218.451 108.209 218.125 108.322 218.026ZM179.364 184.607C181.496 182.998 183.59 179.554 183.59 177.657C183.605 173.963 176.276 171.148 171.087 172.863C166.702 174.304 165.587 178.659 168.416 183.294C169.812 185.578 170.207 185.76 173.917 185.737C176.193 185.722 178.529 185.236 179.364 184.607ZM22.8662 179.091C22.32 178.909 21.5082 179.122 21.0682 179.562C20.5068 180.123 20.8026 180.222 22.062 179.895C23.0862 179.63 23.4352 179.281 22.8662 179.091ZM21.1592 177.824C22.889 177.21 24.7401 176.884 25.2788 177.088C25.8402 177.301 26.9706 176.178 27.9645 174.403C31.5529 168.022 28.6776 163.698 21.8648 165.223C17.3659 166.224 14.8775 169.16 15.5375 172.665C15.9699 174.994 17.4342 178.932 17.8514 178.932C17.9425 178.932 19.4295 178.431 21.1592 177.824ZM300.22 117.556C301.168 116.137 301.949 114.688 301.949 114.331C301.949 113.975 297.284 113.687 291.578 113.687C285.881 113.687 281.427 113.907 281.693 114.172C281.958 114.438 284.325 115.978 286.943 117.601C290.911 120.059 292.276 120.515 295.099 120.348C297.997 120.166 298.733 119.764 300.22 117.556ZM236.522 117.776C238.601 117.101 241.286 115.758 242.485 114.787L244.67 113.011L241.81 110.629C237.121 106.714 235.27 101.411 237.842 99.2719C240.224 97.2994 238.555 87.065 234.989 81.7771C232.835 78.5755 229.671 77.5892 224.512 78.492L220.651 79.1672L220.522 84.7359C220.4 89.8189 220.211 90.4638 218.261 92.1329C217.092 93.1343 215.643 93.9612 215.036 93.9612C213.603 93.9612 213.633 96.5483 215.074 97.7546C215.704 98.2705 216.918 98.5057 217.79 98.2781C218.671 98.0505 220.469 98.5208 221.887 99.3554C225.923 101.738 226.227 106.305 222.843 113.929C221.455 117.055 221.387 117.685 222.327 118.277C224.095 119.399 232.41 119.103 236.522 117.776ZM202.898 109.324C204.438 106.98 206.259 101.555 206.342 99.0822C206.35 98.7712 182.482 98.5132 153.296 98.5132H100.227L98.1108 100.334C96.4114 101.798 96.0093 102.754 96.07 105.197C96.1155 106.874 96.3734 109.127 96.6466 110.204L97.1397 112.169H149.078H201.024L202.898 109.324ZM305.212 105.447C306.388 101.958 307.207 98.9609 307.04 98.8015C306.873 98.6346 293.232 98.5815 276.724 98.6953L246.703 98.8926L247.963 102.625C248.653 104.674 249.73 106.601 250.36 106.912C250.99 107.223 255.42 107.822 260.223 108.247C265.025 108.672 270.829 109.688 273.12 110.5C276.686 111.767 279.159 111.972 290.19 111.889L303.087 111.79L305.212 105.447ZM335.331 111.031C335.331 110.113 334.155 109.893 329.322 109.893C326.022 109.893 322.775 109.688 322.115 109.43C321.257 109.104 320.916 109.423 320.916 110.568C320.916 112.086 321.303 112.169 328.123 112.169C334.026 112.169 335.331 111.964 335.331 111.031ZM331.826 106.13C330.657 104.894 329.694 103.96 329.671 104.044C329.656 104.135 328.814 105.144 327.805 106.29L325.961 108.376H329.952H333.942L331.826 106.13ZM325.544 105.88C327.645 104.461 328.123 103.657 328.123 101.518C328.123 99.0519 327.956 98.8774 325.385 98.665C322.661 98.4374 322.646 98.445 322.16 101.996C321.273 108.475 321.432 108.649 325.544 105.88ZM333.434 103.824C332.175 101.396 330.506 100.653 331.302 102.876C331.947 104.681 333.1 106.1 333.927 106.1C334.299 106.1 334.079 105.076 333.434 103.824ZM328.503 92.0646C328.503 88.2257 328.214 86.3746 327.615 86.3746C327.122 86.3746 326.09 85.8056 325.324 85.1C323.238 83.2185 322.737 84.5386 323.04 91.0707L323.306 96.9049L325.718 97.2083C327.038 97.3752 328.207 97.5649 328.313 97.6332C328.419 97.7015 328.503 95.1903 328.503 92.0646ZM322.797 83.3627C323.753 82.3005 324.011 81.1929 323.693 79.5845C323.351 77.8927 323.913 75.8822 325.87 71.8082C329.868 63.4628 329.223 60.8606 324.641 66.8389C323.283 68.6142 320.886 71.4288 319.315 73.0979C316.288 76.3071 314.847 79.2431 314.847 82.2019C314.847 83.5751 315.332 84.0682 316.933 84.311C320.962 84.9255 321.447 84.8421 322.797 83.3627ZM339.837 61.4751C339.875 58.7439 339.655 58.2356 338.555 58.4481C337.432 58.6605 337.205 59.6847 337.06 65.1395L336.894 71.5806L338.35 68.1666C339.147 66.2851 339.814 63.2732 339.837 61.4751ZM335.331 54.1312V48.4412H330.02H324.709V54.1312V59.8212H330.02H335.331V54.1312ZM214.642 543.911C212.829 542.091 212.427 541.051 212.427 538.161C212.427 535.27 212.829 534.231 214.642 532.41L216.865 530.195H369.107C509.247 530.195 521.568 530.096 524.004 528.935C527.289 527.38 530.217 523.086 530.384 519.573C530.452 518.117 537.295 478.051 545.58 430.544C553.872 383.044 560.655 343.016 560.655 341.605C560.655 339.86 559.972 338.267 558.53 336.651C556.565 334.459 555.89 334.231 549.995 333.715L543.585 333.161L552.939 333.047C562.286 332.941 562.286 332.941 564.471 335.119C565.669 336.317 566.883 338.244 567.172 339.39C567.521 340.771 562.293 372.354 551.953 431.477C539.071 505.128 535.892 522.024 534.473 524.512C532.736 527.554 527.918 530.953 525.346 530.953C524.117 530.953 524.102 531.067 525.21 532.281C528.639 536.074 528.305 541.575 524.459 544.594C522.524 546.119 521.765 546.127 369.691 546.127H216.865L214.642 543.911ZM523.996 542.925C526.689 540.232 526.795 536.332 524.261 533.631L522.456 531.712H369.774H217.092L215.514 533.707C212.419 537.645 214.498 544.124 219.08 544.829C220.218 545.004 288.824 545.11 371.542 545.072L521.925 544.989L523.996 542.925ZM262.802 521.546C261.072 519.816 260.223 518.253 260.223 516.804C260.223 515.613 261.421 507.981 262.878 499.848C264.335 491.715 265.533 484.455 265.533 483.726C265.533 482.474 262.658 482.399 215.803 482.399H166.08L164.213 480.54L162.355 478.674V457.879C162.355 437.986 162.423 436.992 163.925 435.081L165.503 433.085L177.771 433.237L190.046 433.389L178.552 433.806C168.682 434.163 166.838 434.428 165.465 435.665C163.918 437.068 163.872 437.751 163.872 457.742C163.872 476.762 163.978 478.469 165.26 479.629C166.52 480.767 171.459 480.881 220.598 480.881H274.554L275.73 479.197C276.731 477.771 276.913 474.395 276.913 457.659C276.913 439.246 276.807 437.675 275.464 436.014L274.015 434.223L237.721 433.829L201.426 433.427L237.979 433.26C272.058 433.1 274.561 432.994 274.926 431.758C275.138 431.029 278.605 411.82 282.626 389.083C290.273 345.877 290.638 344.481 294.947 341.552C296.851 340.262 299.438 340.118 327.357 339.769L357.689 339.39L358.766 337.144C359.684 335.232 361.565 320.848 360.951 320.454C360.837 320.378 343.509 321.394 322.433 322.722C301.358 324.042 283.992 325.021 283.832 324.892C283.529 324.641 288.058 288.916 288.445 288.536C288.574 288.415 306.425 293.073 328.123 298.885C349.821 304.696 368.257 309.301 369.091 309.119C369.926 308.937 372.217 308.171 374.182 307.412C377.695 306.062 377.786 306.069 379.872 307.625C381.033 308.489 382.163 310.189 382.376 311.403C382.656 313.026 383.24 313.664 384.652 313.861C389.226 314.49 389.613 317.419 385.676 321.774C384.158 323.458 381.746 327.365 380.312 330.468C378.514 334.36 377.019 336.499 375.494 337.372C374.273 338.062 373.272 338.889 373.272 339.2C373.264 339.511 379.789 339.769 387.77 339.769H402.268L401.767 334.648C400.925 325.954 400.751 325.506 398.057 324.975C391.715 323.723 391.472 323.443 391.472 317.389C391.472 313.337 391.161 311.623 390.296 310.902C387.664 308.725 387.565 307.336 389.833 304.719C393.665 300.303 394.021 299.112 392.466 295.774L391.093 292.823L385.782 292.588C380.487 292.353 380.471 292.345 380.244 290.061C380.122 288.794 384.151 255.049 389.204 215.06C394.256 175.07 398.285 142.281 398.156 142.197C390.152 136.917 384.53 131.128 380.1 123.61C372.126 110.068 370.609 93.6578 375.965 78.8031C377.323 75.0325 377.649 73.1358 377.164 71.8461C374.652 65.223 375.859 54.6927 379.424 52.0449C381.276 50.6717 381.556 50.6565 383.718 51.7718C386.723 53.3195 388.02 57.1583 387.383 62.5752C387.125 64.8209 387.117 66.6492 387.383 66.6492C387.641 66.6492 389.022 65.625 390.448 64.3732C392.777 62.3324 395.265 61.3765 395.265 62.5373C395.265 63.5691 389.006 73.3862 388.126 73.7276C386.374 74.3952 388.149 83.7951 391.214 90.0996C393.748 95.2965 400.766 103.824 402.518 103.824C402.913 103.824 405.06 89.2272 407.29 71.3909C410.871 42.7816 411.531 38.7986 412.874 37.6302C414.3 36.386 418.708 36.3026 482.072 36.3026C539.344 36.3026 549.973 36.4695 551.217 37.3799C552.658 38.4344 552.575 39.3676 546.392 88.423L540.095 138.389L542.598 143.677C544.897 148.525 545.125 148.775 545.345 146.689C545.481 145.437 548.971 117.654 553.091 84.9483C559.835 31.523 560.488 25.2412 559.57 23.0259C557.362 17.7456 562.627 18.0946 484.735 18.0946H414.46L411.918 19.8016C407.336 22.8969 407.002 24.1715 403.641 51.4759C400.136 79.9942 399.901 81.4736 399.074 80.5708C398.103 79.5162 405.371 25.6812 406.858 22.8969C407.563 21.5693 409.255 19.6954 410.613 18.7243L413.094 16.9566L485.805 16.7593C536.726 16.6152 559.441 16.8048 561.603 17.389C563.295 17.8442 565.654 19.1871 566.845 20.3706C568.605 22.1383 569 23.1852 569 26.1365C569 29.1332 537.318 282.52 535.968 290.312C535.725 291.693 534.374 294.105 532.956 295.676L530.376 298.528L546.278 303.619C555.018 306.418 562.172 309.013 562.172 309.385C562.172 310.333 553.379 316.827 549.282 318.898C543.251 321.956 537.826 323.17 528.199 323.625C523.07 323.86 518.685 324.376 518.45 324.755C517.031 327.054 531.12 334.572 542.826 337.774C549.639 339.64 550.587 340.118 552.12 342.455C553.136 344.003 553.819 346.21 553.811 347.917C553.811 349.488 547.181 387.899 539.086 433.283C528.624 491.92 523.95 516.508 522.934 518.253C522.145 519.604 520.362 521.478 518.966 522.418L516.424 524.125H390.903H265.382L262.802 521.546ZM517.881 521.424C522.668 517.851 522.122 520.248 536.817 437.91C544.48 394.993 550.754 359.449 550.769 358.933C550.784 358.205 539.609 357.955 499.392 357.795C471.124 357.689 447.909 357.621 447.811 357.659C447.704 357.689 449.829 359.479 452.522 361.642L457.423 365.564H498.072H538.722L538.251 368.03C537.986 369.388 531.719 402.587 524.322 441.81L510.863 513.125L504.847 513.603C501.532 513.861 447.826 514.308 385.501 514.589L272.179 515.105L272.597 513.352C273.181 510.947 300.432 366.049 300.432 365.359C300.432 365.056 308.929 364.805 319.308 364.805H338.183L340.99 361.384L343.79 357.954L316.652 358.159L289.507 358.357L282.839 395.911C276.58 431.181 276.238 433.609 277.3 435.854C278.211 437.781 278.431 442.045 278.431 457.704C278.431 481.898 278.416 481.928 270.085 482.573L267.43 482.778L264.638 497.951C263.098 506.297 261.823 514.323 261.808 515.78C261.763 519.019 263.667 521.66 266.687 522.57C267.984 522.957 321.439 523.192 392.367 523.116C515.734 522.987 515.78 522.987 517.881 521.424ZM318.162 511.038C318.359 509.68 319.035 504.817 319.672 500.227C321.697 485.593 329.459 462.279 342.166 432.706C345.391 425.195 347.985 418.989 347.932 418.921C347.879 418.845 345.793 419.262 343.289 419.854C337.341 421.25 331.408 421.227 325.817 419.771C316.971 417.472 313.018 412.768 313.14 404.681C313.276 395.971 317.927 386.685 324.322 382.399C326.378 381.01 328.905 378.454 329.937 376.709C330.968 374.956 332.971 371.99 334.39 370.116L336.969 366.702L319.725 366.497C310.242 366.383 302.306 366.474 302.086 366.694C301.866 366.914 295.789 398.414 288.582 436.697C281.374 474.979 275.168 507.92 274.789 509.9L274.099 513.504H295.956H317.813L318.162 511.038ZM355.359 511.797C355.549 510.856 356.755 500.189 358.053 488.089C363.197 440.042 369.842 403.08 377.065 382.368C378.286 378.863 382.231 370.586 385.828 363.963C393.293 350.224 393.824 348.873 391.707 348.873C389.204 348.873 377.869 351.969 372.657 354.07L367.68 356.081L365.632 365.943C360.344 391.518 354.608 401.585 341.969 407.541C333.123 411.698 331.158 412.26 328.897 411.228C324.11 409.043 321.637 395.402 324.611 387.611C325.483 385.342 326.067 383.355 325.908 383.203C325.127 382.421 319.786 388.339 317.897 392.079C311.524 404.704 314.126 414.984 324.451 417.98C329.481 419.444 341.574 419.278 345.944 417.692C347.811 417.009 349.563 416.69 349.821 416.994C350.087 417.29 347.454 424.141 343.964 432.22C328.814 467.309 321.834 489.553 319.831 509.142L319.383 513.504H337.205H355.026L355.359 511.797ZM443.486 498.141C443.509 490.107 443.767 481.814 444.055 479.705L444.594 475.874L440.603 474.471C435.224 472.574 430.551 470.207 420.931 464.517C407.586 456.612 403.77 454.889 400.849 455.436C399.446 455.701 398.3 456.035 398.3 456.187C398.3 456.338 394.886 468.781 390.713 483.84C386.541 498.9 383.127 511.562 383.127 511.979C383.127 512.48 393.566 512.745 413.284 512.745H443.441L443.486 498.141ZM509.475 511.797C509.672 511.273 515.916 478.583 523.359 439.155L536.878 367.461L523.92 366.983C505.082 366.292 458.235 366.224 458.235 366.892C458.242 367.203 458.857 368.485 459.608 369.737C462.923 375.237 464.281 381.678 469.751 417.912C470.29 421.455 470.737 430.164 470.737 437.258C470.753 452.151 469.827 455.967 465.374 459.366C463.166 461.042 462.787 461.801 462.779 464.471C462.779 469.228 461.368 473.31 458.887 475.791C456.846 477.831 456.308 477.998 452.704 477.657C450.527 477.452 448.198 477.05 447.522 476.762C446.726 476.428 446.119 476.693 445.8 477.52C445.079 479.394 444.26 508.33 444.859 510.712L445.368 512.745H477.239C502.04 512.745 509.194 512.533 509.475 511.797ZM458.546 473.993C459.631 472.71 460.518 471.428 460.526 471.148C460.533 470.867 460.852 468.477 461.239 465.837C461.618 463.197 461.74 458.743 461.505 455.936L461.072 450.838L449.988 449.882C423.586 447.599 402.973 444.185 396.851 441.089C390.979 438.108 379.333 435.301 379.333 436.856C379.333 437.296 380.873 438.404 382.747 439.314C384.621 440.224 386.161 441.226 386.161 441.529C386.161 441.833 384.31 442.925 382.042 443.965C375.98 446.741 373.605 452.34 377.141 455.542C379.349 457.537 386.723 457.393 396.1 455.162L403.383 453.433L408.853 456.187C411.857 457.704 418.094 461.186 422.714 463.925C435.406 471.459 447.34 476.276 453.425 476.306C456.035 476.329 456.922 475.92 458.546 473.993ZM466.064 456.627C471.352 450.337 470.813 430.885 464.251 391.738C462.574 381.716 461.376 376.815 459.752 373.325C457.203 367.832 451.232 361.513 446.02 358.789L442.538 356.968L438.054 359.692C433.441 362.491 426.735 368.765 424.072 372.771C423.237 374.023 420.832 380.335 418.723 386.807C414.513 399.757 402.852 439.602 402.852 441.066C402.852 442.682 425.369 446.263 447.993 448.228C464.145 449.639 462.787 449.078 462.787 454.366C462.787 456.847 463.098 458.88 463.477 458.88C463.856 458.88 465.025 457.863 466.064 456.627ZM383.096 441.476C383.081 441.241 381.974 440.361 380.631 439.519C378.036 437.895 376.845 434.603 378.855 434.603C382.019 434.603 391.654 437.19 395.948 439.193C398.619 440.437 400.872 441.362 400.963 441.256C401.046 441.142 403.937 431.318 407.381 419.429C415.029 393.066 419.968 377.558 422.008 373.545C422.85 371.884 425.529 368.462 427.956 365.936L432.364 361.346L426.796 362.051C416.44 363.364 404.21 359.988 397.025 353.835C394.302 351.506 393.839 351.331 393.407 352.485C393.133 353.213 390.053 359.092 386.563 365.564C379.819 378.052 377.088 385.274 373.355 400.493C371.193 409.309 365.677 437.895 365.677 440.3C365.677 443.077 376.284 445.012 380.661 443.024C382.019 442.409 383.112 441.719 383.096 441.476ZM340.33 406.577C354.995 399.378 358.956 391.874 365.776 358.364C369.782 338.7 369.114 340.27 375.517 335.346C376.784 334.375 377.816 333.245 377.816 332.835C377.816 331.166 381.882 323.943 384.318 321.281C388.976 316.197 387.064 314.081 380.866 317.449C377.141 319.483 370.867 325.415 370.07 327.669C369.858 328.275 369.433 328.541 369.137 328.268C368.386 327.57 369.964 324.687 372.634 321.865L374.865 319.505L368.94 319.869C365.685 320.074 362.901 320.347 362.749 320.476C362.597 320.613 362.21 323.898 361.899 327.782C361.581 331.659 360.951 335.771 360.488 336.909C360.033 338.055 353.319 347.417 345.573 357.712C328.799 380.009 325.256 386.367 324.823 394.932C324.406 403.148 327.334 410.325 331.09 410.325C331.97 410.325 336.127 408.641 340.33 406.577ZM431.219 359.874C437.235 358.607 437.94 358.174 435.846 357.059C432.888 355.489 424.952 346.749 423.017 342.925C420.233 337.433 418.784 331.234 418.784 324.846C418.784 319.9 418.959 319.247 420.491 318.466C423.806 316.759 427.129 312.981 427.129 310.91C427.129 308.3 424.975 306.396 422.251 306.6C420.347 306.745 419.96 306.396 419.05 303.702C417.676 299.666 413.822 295.076 410.712 293.779C407.298 292.353 400.584 292.436 398.452 293.923C397.511 294.583 395.781 297.231 394.605 299.803C393.422 302.382 391.73 305.136 390.842 305.918L389.234 307.351L391.206 309.696C393.005 311.835 393.141 312.442 392.731 316.789C392.223 322.244 392.511 322.57 398.49 323.466C400.47 323.769 402.093 324.224 402.086 324.49C402.086 324.755 402.64 329.99 403.33 336.12C404.013 342.243 404.362 347.796 404.111 348.448C403.785 349.306 402.602 349.632 399.84 349.632C397.739 349.632 396.024 349.943 396.024 350.322C396.024 351.422 400.462 354.859 404.589 356.953C412.146 360.777 421.902 361.854 431.219 359.874ZM349.943 349.647C352.757 345.937 355.261 342.387 355.504 341.749C355.898 340.74 352.795 340.596 329.284 340.551C311.789 340.513 301.532 340.786 299.461 341.347C295.197 342.493 291.616 346.377 290.964 350.557C290.683 352.348 290.289 354.404 290.084 355.132C289.735 356.376 291.374 356.46 317.259 356.422L344.814 356.384L349.943 349.647ZM551.194 355.663C551.475 355.208 551.884 352.826 552.112 350.36C552.423 346.893 552.218 345.436 551.202 343.881C550.026 342.083 549.563 341.924 546.809 342.364C542.492 343.054 542.249 343.358 544.078 345.839C545.519 347.781 545.595 348.289 544.738 350.353C542.363 356.088 533.79 353.031 535.308 346.984C535.679 345.482 535.512 345.247 534.283 345.573C533.206 345.854 532.91 346.438 533.168 347.788C533.73 350.709 531.484 353.425 528.51 353.425C525.551 353.425 523.715 351.688 523.351 348.555C523.002 345.459 521.204 345.042 521.204 348.054C521.204 352.522 516.713 354.821 513.026 352.242C511.19 350.952 510.681 346.802 512.183 345.3C512.79 344.693 512.047 344.033 509.407 342.865C505.227 341.013 495.409 340.042 495.409 341.484C495.409 341.977 497.541 344.412 500.151 346.893L504.893 351.407L500.788 350.922C494.598 350.186 487.701 347.629 482.368 344.086L477.581 340.907L450.838 340.718C433.904 340.604 424.095 340.801 424.095 341.271C424.095 343.32 428.889 349.359 433.866 353.577L437.182 356.392L493.93 356.437C534.086 356.475 550.83 356.248 551.194 355.663ZM376.754 351.24C385.221 348.433 393.513 346.817 394.484 347.788C394.871 348.175 396.927 348.373 399.059 348.228L402.928 347.963L402.7 344.435L402.473 340.907L389.575 340.664C382.482 340.536 375.282 340.634 373.567 340.884L370.465 341.347L369.486 346.817C368.955 349.822 368.333 352.758 368.113 353.342C367.855 354.025 368.09 354.237 368.78 353.956C369.372 353.721 372.953 352.5 376.754 351.24ZM518.776 350.998C521.242 348.532 518.662 344.685 514.907 345.224C512.965 345.497 512.176 349.033 513.655 350.815C514.755 352.143 517.532 352.242 518.776 350.998ZM531.029 350.815C531.985 349.67 531.863 346.514 530.877 346.567C530.566 346.582 529.109 346.597 527.653 346.597C525.384 346.597 524.997 346.855 524.997 348.342C524.997 349.306 525.407 350.497 525.908 350.998C527.152 352.242 529.929 352.143 531.029 350.815ZM543.258 350.292C544.624 347.743 543.046 345.08 540.171 345.08C538.479 345.08 537.644 345.558 537.045 346.878C535.839 349.518 537.326 351.908 540.171 351.908C541.658 351.908 542.674 351.377 543.258 350.292ZM475.684 339.352C475.684 339.117 474.645 337.835 473.378 336.507C472.111 335.172 469.463 331.386 467.498 328.101C462.544 319.816 455.723 312.715 447.029 306.798L439.647 301.775L439.185 305.424C438.494 310.849 433.995 319.938 430.407 323.162C428.73 324.664 425.741 326.515 423.753 327.274L420.15 328.655L420.628 331.629C420.886 333.267 421.583 335.771 422.183 337.19L423.26 339.769H449.472C463.887 339.769 475.684 339.58 475.684 339.352ZM502.237 339.458C502.237 338.866 490.652 332.896 490.266 333.283C490.053 333.495 490.781 335.043 491.897 336.719C493.846 339.663 494.059 339.769 498.072 339.769C500.363 339.769 502.237 339.625 502.237 339.458ZM335.012 320.507C373.818 318.14 375.373 317.988 377.733 316.311C379.075 315.355 380.069 314.46 379.933 314.324C379.561 313.952 291.298 290.456 290.266 290.456C289.667 290.456 288.794 295.076 287.641 304.302C286.693 311.919 285.729 319.391 285.501 320.909L285.092 323.678L289.917 323.314C292.572 323.117 312.867 321.857 335.012 320.507ZM380.851 311.433C380.851 310.879 380.168 309.794 379.333 309.043C377.998 307.837 377.437 307.776 374.781 308.573C373.112 309.074 371.747 309.764 371.747 310.105C371.747 310.705 376.822 312.184 379.523 312.366C380.251 312.419 380.851 311.994 380.851 311.433ZM525.961 292.732C526.947 290.782 529.018 276.337 533.73 238.487C537.265 210.113 540.345 185.783 540.58 184.417L541.005 181.929L537.599 184.417C535.277 186.109 534.056 187.619 533.768 189.174C533.525 190.426 530.589 213.466 527.235 240.384C523.882 267.301 520.825 290.084 520.43 291.025C519.998 292.064 519.049 292.747 517.995 292.762C516.508 292.793 516.637 292.997 518.928 294.264C522.57 296.275 524.368 295.888 525.961 292.732ZM393.642 288.21C396.077 285.555 397.39 284.918 404.749 282.809C419.012 278.727 427.084 280.093 433.722 287.725L436.529 290.957L451.748 283.605C469.076 275.237 472.657 274.152 481.063 274.729C488.369 275.229 493.543 277.46 501.456 283.522C504.597 285.927 508.405 288.643 509.915 289.553C512.957 291.397 518.754 291.837 519.315 290.266C519.641 289.341 532.478 188.537 532.296 188.294C532.243 188.226 529.276 188.355 525.695 188.582L519.186 188.992L515.62 193.445C508.458 202.397 496.942 210.113 485.167 213.846C476.989 216.44 461.459 216.835 452.886 214.673C424.315 207.458 405.196 183.271 404.976 154.04L404.908 145.467L402.556 144.481C401.259 143.935 400.068 143.593 399.916 143.73C399.461 144.109 381.071 290.023 381.397 290.646C381.564 290.957 383.764 291.215 386.29 291.215C390.675 291.215 391.017 291.078 393.642 288.21ZM495.789 207.761C496.047 207.344 495.728 207.003 495.076 207.003C494.423 207.003 493.892 207.344 493.892 207.761C493.892 208.179 494.211 208.52 494.605 208.52C495 208.52 495.531 208.179 495.789 207.761ZM500.083 204.613C502.366 203.74 503.406 201.646 504.513 195.706C506.061 187.391 505.894 186.951 500.295 184.334C497.556 183.051 494.34 181.314 493.156 180.464C491.973 179.622 490.44 178.932 489.75 178.932C489.059 178.932 486.647 177.195 484.401 175.063C480.441 171.315 480.137 171.178 474.774 170.7L469.235 170.207V158.835C469.235 145.626 468.439 146.598 478.552 147.447C483.885 147.887 485.031 148.214 485.334 149.374C485.577 150.285 486.533 150.861 488.073 151.005C491.161 151.309 492.405 154.283 490.948 157.909C489.181 162.317 489.211 162.681 491.753 165.792C494.317 168.925 498.467 170.587 503.724 170.587C506.41 170.587 506.767 169.38 506.782 160.185C506.789 153.873 506.941 153.107 508.375 152.341C509.559 151.711 510.522 151.726 512.183 152.417C516.303 154.116 518.45 157.682 520.043 165.466C520.324 166.831 520.954 167.552 521.872 167.552C522.645 167.552 524.186 168.462 525.293 169.57C527.546 171.823 531.583 179.789 532.303 183.416C532.561 184.705 533.024 185.76 533.327 185.76C534.837 185.76 541.233 179.038 542.993 175.609C546.877 168.015 546.028 154.124 541.02 143.624C534.223 129.353 520.696 118.959 499.582 111.767C492.367 109.309 489.332 109.173 481.753 110.971C474.409 112.708 461.975 112.291 456.315 110.113C452.567 108.672 452.355 108.672 445.315 110.045C429.489 113.133 423.48 113.778 418.708 112.913C413.8 112.025 409.559 110.333 404.642 107.299L401.509 105.356L398.338 109.461C394.727 114.149 388.786 118.466 384.075 119.824C382.3 120.332 380.851 121.175 380.851 121.691C380.851 123.344 387.284 131.417 391.904 135.567C396.904 140.05 407.609 145.596 414.232 147.136C416.531 147.667 421.553 148.13 425.407 148.153L432.402 148.206L433.593 153.426C436.491 166.156 435.763 176.929 431.279 187.763C426.34 199.689 426.902 200.175 445.717 200.175C460.776 200.175 467.528 200.812 481.753 203.573C496.206 206.38 495.553 206.343 500.083 204.613ZM430.164 201.313C430.164 201.108 429.481 200.25 428.647 199.416C426.522 197.292 426.742 194.963 429.747 187.695C431.188 184.212 432.774 179.038 433.267 176.201C434.276 170.412 433.768 159.457 432.228 153.6L431.249 149.898L424.444 149.655C418.511 149.45 412.222 148.312 408.034 146.689C405.067 145.535 405.689 162.036 408.997 172.195C411.782 180.775 416.47 188.605 422.85 195.372C428.1 200.933 430.164 202.61 430.164 201.313ZM511.751 195.448L517.623 189.204L513.155 188.271C510.696 187.763 508.299 187.33 507.829 187.308C507.32 187.292 506.744 189.326 506.433 192.247C506.145 194.985 505.613 198.225 505.257 199.454C504.908 200.683 504.9 201.692 505.249 201.692C505.591 201.692 508.519 198.885 511.751 195.448ZM530.399 186.655C531.492 186.192 531.507 185.768 530.596 182.725C529.011 177.46 524.724 170.321 522.494 169.229C520.749 168.379 520.021 168.47 516.864 169.942C512.366 172.036 504.491 172.627 498.361 171.33C494.302 170.465 493.49 169.949 490.159 166.103C486.92 162.363 485.782 161.612 481.017 160.079C478.028 159.116 475.092 158.516 474.493 158.744C472.566 159.48 473.18 163.531 475.449 165.048C476.572 165.799 479.986 168.887 483.035 171.914C486.078 174.941 489.173 177.415 489.909 177.422C490.637 177.422 492.261 178.12 493.513 178.977C501.767 184.599 510.659 187.201 521.583 187.179C525.756 187.179 529.724 186.936 530.399 186.655ZM514.854 169.13C516.576 168.349 518.185 167.377 518.435 166.975C518.685 166.566 518.42 164.403 517.843 162.173C516.69 157.735 512.343 152.834 509.976 153.289C508.474 153.577 507.692 157.606 507.601 165.466C507.548 170.564 507.556 170.587 509.634 170.571C510.78 170.564 513.132 169.911 514.854 169.13ZM489.219 158.789C491.123 154.617 489.606 151.294 486.199 152.189C485.281 152.424 484.788 153.251 484.78 154.556C484.773 155.648 484.568 157.287 484.325 158.19C484.014 159.373 484.28 159.927 485.289 160.185C487.921 160.868 488.339 160.716 489.219 158.789ZM545.019 87.9678C548.319 61.7179 550.8 39.7014 550.549 39.0338C550.124 37.9337 543.691 37.8199 482.247 37.8199C427.911 37.8199 414.255 38.0172 413.61 38.7986C412.737 39.8455 404.271 104.567 404.878 105.546C405.614 106.737 414.414 110.735 417.631 111.335C420.84 111.934 421.068 111.843 423.852 108.968C428.859 103.801 438.828 97.7091 446.756 94.9779C450.777 93.5895 454.836 92.4515 455.777 92.4515C457.408 92.4439 457.468 92.2315 457.044 88.0816C456.801 85.6842 456.255 82.9985 455.83 82.1185C455.238 80.897 455.428 79.7969 456.649 77.4071C458.69 73.409 458.66 73.2117 455.997 72.2027C451.536 70.526 449.138 63.0759 451.816 59.2522C453.645 56.6348 458.037 55.7927 462.301 57.2494C465.579 58.3646 466.094 58.357 469.038 57.1811C472.892 55.641 477.702 56.1493 480.562 58.3949C482.14 59.6392 482.512 60.5875 482.512 63.3263C482.512 66.8768 483.134 67.7569 488.521 71.8309C490.607 73.4014 490.857 74.0159 490.857 77.5589C490.857 84.6069 484.431 91.7611 479.022 90.7293C477.983 90.5245 477.201 90.7369 477.209 91.2225C477.209 91.6853 479.667 92.6563 482.671 93.3847C495.265 96.4193 507.92 104.507 515.992 114.68C517.585 116.691 520.901 119.672 523.359 121.319C525.817 122.957 530.179 126.834 533.054 129.93C535.922 133.025 538.441 135.589 538.653 135.627C538.866 135.658 541.726 114.21 545.019 87.9678ZM386.776 117.047C390.903 115.204 398.535 108.179 399.415 105.417C399.764 104.317 398.998 102.997 396.517 100.402C392.587 96.3055 388.688 89.3561 387.216 83.8179C385.858 78.712 385.843 73.0069 387.186 72.4834C388.384 72.0282 392.549 65.2002 391.98 64.6236C391.768 64.4188 391.017 65.1243 390.304 66.2016C388.839 68.4473 386.207 68.8418 386.07 66.8389C386.025 66.1106 386.055 63.3946 386.139 60.7999C386.275 56.6576 386.063 55.861 384.363 54.1616C383.309 53.0995 382.102 52.2346 381.7 52.2346C379.5 52.2346 377.05 57.659 377.08 62.4766C377.08 63.7284 377.535 66.8768 378.074 69.4639C379.03 74.0007 378.977 74.4256 376.799 80.8439C373.097 91.7308 373.575 105.637 378.013 116.167C379.728 120.241 379.652 120.234 386.776 117.047ZM510.939 111.342C505.659 105.956 499.476 101.54 492.891 98.4677C488.02 96.1993 478.317 93.3543 477.664 94.0068C477.459 94.2116 477.664 96.8062 478.127 99.7726L478.961 105.174L484.72 106.464C495.182 108.816 501.023 110.546 507.548 113.239C511.091 114.703 514.33 115.909 514.733 115.932C515.135 115.947 513.428 113.884 510.939 111.342ZM440.785 109.423C451.3 107.458 460.981 104.909 461.58 103.938C461.762 103.634 462.149 101.305 462.438 98.756L462.961 94.1206L460.791 93.6426C457.499 92.9219 447.363 95.782 439.647 99.6057C433.449 102.678 423.503 110.068 423.382 111.684C423.328 112.473 427.114 111.98 440.785 109.423ZM482.133 109.575L485.926 108.649L482.512 107.632C480.638 107.071 478.711 106.236 478.233 105.789C477.482 105.068 474.903 89.8341 474.918 86.1849C474.925 85.4111 475.502 84.8572 476.291 84.8572C478.059 84.8572 479.477 83.4158 479.477 81.6253C479.477 80.6011 479.015 80.2749 477.793 80.4494C476.253 80.6618 476.132 80.4115 476.329 77.5134C476.617 73.4166 474.493 71.8082 469.114 72.0358C467.096 72.1192 464.418 71.9675 463.166 71.6868C460.951 71.2012 460.829 71.3302 458.743 76.2236C457.218 79.8121 456.839 81.4888 457.415 82.0654C457.871 82.5206 458.242 84.0986 458.242 85.578C458.265 89.9555 459.016 91.6625 461.171 92.2163C465.063 93.2102 468.006 92.7929 469.971 90.9493C471.026 89.9631 472.126 89.3865 472.414 89.6824C473.317 90.5852 469.933 93.3316 467.24 93.8778C464.805 94.3785 464.645 94.6137 463.864 98.9912C462.696 105.531 462.544 105.759 458.66 106.843C456.733 107.382 455.329 108.004 455.549 108.217C457.757 110.424 475.054 111.312 482.133 109.575ZM192.891 462.104C200.713 461.983 213.519 461.983 221.341 462.104C229.163 462.226 222.76 462.332 207.116 462.332C191.472 462.332 185.069 462.226 192.891 462.104ZM249.063 462.112C251.9 461.96 256.338 461.968 258.925 462.112C261.52 462.264 259.198 462.377 253.774 462.377C248.35 462.377 246.233 462.256 249.063 462.112ZM179.804 451.293C179.804 450.8 194.219 450.535 221.531 450.535C248.843 450.535 263.257 450.8 263.257 451.293C263.257 451.786 248.843 452.052 221.531 452.052C194.219 452.052 179.804 451.786 179.804 451.293ZM269.327 419.983C269.327 418.056 282.08 345.861 282.99 342.652C283.423 341.104 284.667 338.783 285.752 337.501C289.651 332.865 289.143 332.926 321.826 333.101L351.642 333.26L322.054 333.67C292.891 334.072 292.428 334.102 289.674 335.817C288.005 336.856 286.283 338.836 285.395 340.748C284.454 342.758 281.45 358.015 277.285 381.875C273.651 402.739 270.366 420.135 270.002 420.529C269.592 420.969 269.327 420.757 269.327 419.983ZM45.9297 409.081C36.2567 404.916 26.1664 396.707 21.1365 388.901L18.8225 385.312L21.9938 381.693C28.3514 374.448 38.9044 367.332 42.326 367.992C43.7675 368.265 43.9571 369.001 48.9112 393.164C50.7776 402.299 52.128 410.067 51.908 410.424C51.339 411.342 51.0279 411.274 45.9297 409.081ZM48.8961 399.894C46.4152 387.042 42.5916 369.972 42.0757 369.456C40.9452 368.325 31.1357 374.6 25.9388 379.774L20.4005 385.304L23.6628 389.978C27.6913 395.744 34.7924 401.707 42.4095 405.72C51.0886 410.295 50.9293 410.439 48.8961 399.894ZM190.82 368.03C180.563 356.892 174.099 348.828 171.55 343.987L169.979 340.998L176.216 337.63C188.013 331.272 194.606 327.259 198.649 323.974C200.872 322.161 202.921 320.909 203.201 321.182C204.688 322.669 205.356 361.376 204.051 370.495C203.08 377.278 202.693 378.461 201.449 378.461C200.887 378.461 196.108 373.765 190.82 368.03ZM202.147 374.099C203.004 370.685 203.543 342.72 202.951 332.494L202.405 323.018L199.977 324.869C195.121 328.579 190.577 331.401 181.488 336.386C176.39 339.185 172.217 341.704 172.217 341.985C172.217 342.925 176.443 349.154 180.487 354.184C185.517 360.451 200.205 376.185 201.016 376.185C201.35 376.185 201.866 375.245 202.147 374.099ZM234.428 320.552C227.759 318.572 216.22 313.299 216.22 312.237C216.22 311.835 217.464 310.128 218.982 308.451C220.499 306.767 222.927 302.822 224.376 299.681C226.902 294.219 229.846 282.626 229.868 278.067C229.876 276.701 230.225 276.018 230.824 276.201C232.569 276.732 235.126 283.15 238.153 294.629C241.135 305.918 242.652 310.667 245.709 318.337L247.303 322.32L243.714 322.282C241.734 322.259 237.554 321.478 234.428 320.552ZM244.662 319.475C242.144 313.345 239.397 304.992 237.432 297.496C233.844 283.795 232.076 278.727 231.317 279.933C230.953 280.51 230.65 281.807 230.65 282.824C230.604 289.03 225.362 302.564 220.575 308.778L217.859 312.306L223.298 314.771C230.938 318.231 238.843 320.727 242.288 320.772C244.784 320.795 245.133 320.605 244.662 319.475ZM9.104 299.75C9.11159 298.634 12.2297 294.09 12.6773 294.538C13.2312 295.091 10.5303 300.319 9.68818 300.319C9.36954 300.319 9.104 300.061 9.104 299.75ZM18.777 295.334C17.0169 294.378 15.9092 292.732 17.0245 292.732C17.5707 292.732 22.76 295.888 22.76 296.222C22.76 296.859 20.7799 296.419 18.777 295.334ZM8.15567 289.121C6.17555 287.892 5.40929 286.663 6.63833 286.663C7.41976 286.67 12.1387 289.583 12.1387 290.069C12.1387 290.843 10.1965 290.388 8.15567 289.121ZM15.6968 289.174C15.1961 288.354 18.0563 283.628 19.0577 283.628C19.4446 283.628 19.255 284.569 18.6329 285.714C16.7741 289.151 16.1444 289.895 15.6968 289.174ZM375.525 263.865C375.494 261.801 389.333 152.007 389.757 150.861C390.106 149.936 390.251 149.981 390.516 151.096C390.979 153.046 377.035 263.372 376.215 264.244C375.798 264.692 375.532 264.54 375.525 263.865ZM361.884 222.138C361.884 221.706 358.129 199.97 353.539 173.834C348.949 147.705 345.368 126.159 345.573 125.947C345.785 125.742 346.104 125.727 346.293 125.916C346.476 126.098 350.246 146.893 354.661 172.127C359.077 197.36 362.893 219.111 363.128 220.469C363.409 222.032 363.265 222.935 362.726 222.935C362.263 222.935 361.884 222.578 361.884 222.138ZM100.485 201.631C100.212 201.184 95.9638 177.93 91.0476 149.951C81.4125 95.0992 81.4656 95.6379 85.479 92.4818C87.4212 90.9493 88.195 90.9266 142.349 90.9266C178.446 90.9266 197.253 91.1845 197.253 91.6852C197.253 92.186 179.311 92.4439 144.951 92.4439H92.6408L90.6 94.204C89.0068 95.5696 88.5668 96.6166 88.5895 98.9457C88.6047 100.584 92.4132 124.361 97.0411 151.779C101.669 179.197 105.455 201.813 105.455 202.041C105.455 202.815 100.994 202.451 100.485 201.631ZM17.2445 88.4609C10.371 78.7879 0 60.7544 0 58.4784C0 57.9018 27.2437 51.3925 29.3983 51.4532C30.7488 51.4835 30.6805 52.0828 27.2968 69.1149C23.9511 85.9497 22.1227 93.2026 21.2123 93.2026C20.8861 93.2026 19.1032 91.0707 17.2445 88.4609ZM22.7676 83.9089C25.0512 74.2056 28.9128 53.5774 28.5107 53.1829C28.2376 52.9098 7.0556 57.5225 2.80706 58.7819C1.60837 59.1384 1.90425 60.0413 5.35619 66.5203C8.80812 72.9841 20.2109 90.9266 20.8709 90.9266C21.0075 90.9266 21.8572 87.7705 22.7676 83.9089ZM65.4653 83.5599C60.8678 78.0065 55.1551 69.1984 51.7942 62.469C48.8657 56.6045 45.8462 48.5778 46.3925 48.115C47.1663 47.4626 79.2351 37.1447 79.5386 37.4482C79.7435 37.6454 79.3186 41.9926 78.5979 47.106C75.8818 66.4368 71.254 86.2684 69.3118 86.9132C68.849 87.0726 67.1192 85.5628 65.4653 83.5599ZM72.0506 74.8353C74.4024 65.5264 78.5827 40.2856 77.8923 39.5876C77.4675 39.1703 49.3664 48.244 48.3953 49.1089C47.5001 49.9131 52.5756 61.5282 57.1124 69.0618C62.5217 78.052 68.1965 85.2442 69.1297 84.311C69.5166 83.9241 70.8291 79.6604 72.0506 74.8353ZM113.557 54.4726C102.458 43.7527 94.8258 34.9977 94.8409 33.0024C94.8409 32.5244 96.29 31.3106 98.0653 30.3091C105.045 26.3641 116.129 18.6939 120.142 15.0296C125.104 10.4852 124.565 9.69614 126.348 24.1639C128.715 43.4644 128.731 65.8906 126.364 65.8906C125.817 65.8906 120.059 60.7544 113.557 54.4726ZM126.682 52.2346C126.697 42.5692 125.825 30.734 124.323 20.1809L123.488 14.3088L119.976 17.1918C115.052 21.2279 109.863 24.824 102.799 29.1104C99.4612 31.1361 96.5934 32.8886 96.4341 33.01C96.2748 33.1314 97.1093 34.5197 98.2929 36.0902C105.751 45.9983 124.975 64.396 126.068 62.6738C126.401 62.1503 126.682 57.4542 126.682 52.2346ZM1.51733 53.1374C1.51733 52.796 7.57908 51.2407 14.9837 49.6779C49.3133 42.425 69.8277 36.3329 85.2438 28.8145C97.2231 22.9728 113.421 12.1694 121.243 4.81033C124.687 1.57082 127.456 -0.523101 127.456 0.114179C127.456 2.53433 112.89 14.3468 100.227 22.1762C80.5249 34.3604 63.4928 40.3766 23.7008 49.1999C1.98012 54.0174 1.51733 54.1009 1.51733 53.1374ZM165.389 51.4C165.389 50.2317 167.87 46.1652 168.591 46.1652C169.516 46.1652 169.304 46.9239 167.605 49.6779C165.951 52.356 165.389 52.7884 165.389 51.4ZM198.793 48.464C197.966 47.6371 197.094 46.1804 196.859 45.2245C196.616 44.2762 196.525 34.5045 196.646 23.519C196.935 -1.4942 195.501 0.584548 212.32 0.796975L224.186 0.948706L212.548 1.36597C196.737 1.93497 198.012 -0.151355 198.012 25.2185C198.012 41.9546 198.194 45.3307 199.196 46.757L200.371 48.4412H254.457C305.887 48.4412 308.603 48.373 309.802 47.0529C310.902 45.8314 311.053 43.1761 311.053 25.1047C311.053 7.42773 310.886 4.37789 309.862 3.35369C309.202 2.70124 308.61 2.08671 308.535 1.98809C308.459 1.89705 292.178 1.63151 272.361 1.41149L236.325 0.994235L272.877 0.819734L309.422 0.645244L311 2.64054C312.502 4.55238 312.571 5.54623 312.571 25.4385V46.2335L310.712 48.0998L308.846 49.9586H254.571C201.532 49.9586 200.25 49.9206 198.793 48.464ZM175.419 47.5612C174.076 46.7115 172.976 45.7025 172.976 45.3155C172.976 44.481 177.202 46.5446 177.938 47.7281C178.848 49.1999 177.907 49.1392 175.419 47.5612ZM164.441 41.1808C163.295 40.5587 162.355 39.6862 162.355 39.2462C162.355 38.8138 162.613 38.5786 162.924 38.7303C166.603 40.5208 167.665 41.196 167.665 41.7346C167.665 42.6299 166.854 42.4857 164.441 41.1808ZM171.459 40.9153C171.459 39.8456 174.038 35.5515 174.683 35.5515C175.601 35.5439 175.343 36.5226 173.742 39.1476C172.24 41.6208 171.459 42.2202 171.459 40.9153ZM340.088 31.2043C335.862 30.4153 333.942 23.8604 336.856 20.1506C340.095 16.031 346.544 17.169 348.19 22.1459C349.92 27.3807 345.58 32.2361 340.088 31.2043ZM344.017 29.4898C347.879 28.0179 348.357 22.2445 344.806 19.9154C339.261 16.2814 333.624 24.5508 338.843 28.6628C341.134 30.4608 341.362 30.4988 344.017 29.4898ZM479.841 29.1787C478.332 26.8724 478.901 24.5736 481.389 22.95C483.862 21.3265 486.412 21.8727 487.785 24.3156C488.839 26.2123 488.809 26.531 487.352 28.4883C485.16 31.4395 481.541 31.7658 479.841 29.1787ZM485.873 28.2835C487.299 26.8572 487.39 25.5523 486.154 24.3156C484.818 22.9804 482.929 23.2004 481.42 24.8695C478.537 28.0559 482.815 31.3409 485.873 28.2835ZM227.843 29.6642C235.687 29.5429 248.319 29.5429 255.913 29.6642C263.5 29.7856 257.074 29.8918 241.635 29.8918C226.196 29.8918 219.991 29.7856 227.843 29.6642ZM283.552 29.6718C286.161 29.5201 290.425 29.5201 293.035 29.6718C295.645 29.816 293.513 29.9374 288.293 29.9374C283.074 29.9374 280.942 29.816 283.552 29.6718ZM213.944 18.8532C213.944 18.3601 228.359 18.0946 255.671 18.0946C282.983 18.0946 297.397 18.3601 297.397 18.8532C297.397 19.3464 282.983 19.6119 255.671 19.6119C228.359 19.6119 213.944 19.3464 213.944 18.8532ZM247.697 212.017C251.574 203.255 261.983 183.15 262.248 183.909C262.635 185.009 247.545 216.107 246.627 216.107C246.225 216.107 246.703 214.271 247.697 212.017ZM259.464 205.69C259.464 204.294 263.576 194.864 264.191 194.864C265.01 194.864 264.433 196.867 262.059 202.261C260.481 205.849 259.464 207.192 259.464 205.69ZM103.937 108.376C102.117 106.555 102.01 104.742 103.604 102.473C106.016 99.0291 111.524 100.979 111.524 105.281C111.524 109.415 106.873 111.312 103.937 108.376ZM110.007 106.859C110.583 105.781 110.583 104.901 110.007 103.824C108.573 101.146 103.937 102.307 103.937 105.341C103.937 108.376 108.573 109.537 110.007 106.859ZM115.211 109.119C113.314 108.012 112.783 104.719 114.164 102.602C116.569 98.9381 122.904 101.04 122.904 105.508C122.904 108.725 118.261 110.902 115.211 109.119ZM120.924 106.669C122.76 103.74 117.563 100.736 115.333 103.429C113.709 105.379 115.53 108.543 118.094 108.239C119.194 108.103 120.469 107.397 120.924 106.669ZM125.939 108.376C122.145 104.583 126.25 98.6498 131.075 100.949C133.95 102.322 134.428 106.904 131.879 108.679C129.573 110.303 127.767 110.204 125.939 108.376ZM131.098 107.466C132.365 106.199 132.236 103.437 130.847 102.291C129.96 101.548 129.246 101.525 127.813 102.178C124.77 103.566 125.673 108.376 128.973 108.376C129.641 108.376 130.597 107.966 131.098 107.466ZM393.877 404.491C391.904 400.812 389.295 386.048 390.615 386.048C391.009 386.048 391.555 387.838 391.836 390.031C392.109 392.223 393.005 396.533 393.824 399.613C395.303 405.174 395.326 407.2 393.877 404.491ZM438.653 257.856C436.249 256.346 433.957 252.432 433.957 249.814C433.957 246.787 436.552 243.191 439.754 241.78C443.357 240.179 445.937 240.46 449.298 242.812C451.672 244.466 453.356 249.169 452.628 252.083C451.118 258.091 443.828 261.103 438.653 257.856ZM447.128 256.984C448.152 256.521 449.578 255.034 450.307 253.691C452.757 249.139 450.132 243.51 444.943 242.212C442.325 241.552 438.001 243.768 436.597 246.484C433.176 253.107 440.224 260.132 447.128 256.984ZM461.588 257.917C456.512 254.829 456.209 247.895 460.951 243.517C463.485 241.181 464.031 240.998 467.453 241.325C476.139 242.159 479.197 251.832 472.543 257.431C469.728 259.791 465.01 260.003 461.588 257.917ZM470.047 257.484C473.196 256.164 475.282 252.067 474.531 248.669C473.438 243.684 466.14 240.9 462.309 244.003C457.302 248.062 458.091 255.003 463.834 257.499C466.838 258.812 466.868 258.812 470.047 257.484ZM484.871 257.408C480.145 253.433 480.441 246.264 485.471 242.88C493.52 237.455 503.315 246.119 498.861 254.723C496.32 259.639 489.158 261.012 484.871 257.408ZM493.437 257.537C501.372 254.222 499.453 242.66 490.971 242.66C487.299 242.66 483.62 245.414 482.891 248.714C482.224 251.779 484.318 255.899 487.307 257.37C490.281 258.835 490.326 258.835 493.437 257.537Z" fill="black"/>
</svg>
