<svg width="239" height="247" viewBox="0 0 239 247" fill="none" xmlns="http://www.w3.org/2000/svg">
<path d="M141.159 245.906C141.159 245.236 141.127 245.226 140.551 245.745C140.012 246.235 139.042 246.288 131.959 246.209C124.334 246.123 123.956 246.091 123.532 245.449C123.147 244.867 123.17 244.614 123.719 243.592L124.354 242.408L117.126 212.37C113.151 195.847 109.813 182.109 109.715 181.836C109.613 181.563 108.117 187.114 106.384 194.167C103.474 206.024 103.244 207.211 103.309 209.914C103.398 213.692 103.178 214.665 102.181 214.915C101.303 215.136 101.346 215.034 100.366 219.275C99.7778 221.824 99.7251 222.485 100.064 223.116C100.419 223.78 100.347 224.08 99.4884 225.477C98.7223 226.723 97.9923 229.189 96.2002 236.598L93.8985 246.12L91.7151 246.219C90.3769 246.278 89.5351 246.183 89.5351 245.975C89.5351 245.791 90.4952 241.615 91.6724 236.7C92.8496 231.784 93.8097 227.634 93.8097 227.479C93.8097 227.325 93.4151 227.045 92.9318 226.861C92.1426 226.562 91.9124 226.667 90.6761 227.881L89.2983 229.235L90.0776 231.922C90.5084 233.398 90.7977 234.756 90.7221 234.937C90.6432 235.121 89.5877 235.789 88.3744 236.42L86.1647 237.571L84.126 235.348C82.2057 233.254 82.0347 233.142 81.1272 233.431C80.5978 233.599 79.7725 233.819 79.2957 233.924C78.5131 234.095 78.3618 234.395 77.6976 237.078L76.9644 240.047L74.2878 239.833C72.818 239.715 71.575 239.587 71.5257 239.547C71.4764 239.508 71.1739 238.252 70.8516 236.755L70.2663 234.033L68.3954 233.454L66.5244 232.875L64.5581 234.977C63.4796 236.134 62.503 237.078 62.3944 237.078C62.2826 237.078 61.1811 236.476 59.9448 235.743L57.6956 234.404L58.6558 231.563L59.6159 228.722L58.2645 227.345L56.9098 225.964L54.7264 226.595C53.5262 226.944 52.2274 227.312 51.8394 227.41C51.2409 227.568 50.9582 227.262 49.9487 225.359C49.2943 224.129 48.7617 223.011 48.7617 222.873C48.7617 222.643 50.5537 220.893 52.2833 219.44C52.9837 218.848 52.9935 218.769 52.5365 217.053C52.2734 216.076 52.0005 215.218 51.9249 215.142C51.8493 215.067 50.8497 214.79 49.6988 214.531C46.0818 213.712 46.2035 213.843 46.3843 210.884C46.4731 209.467 46.5948 208.25 46.6572 208.178C46.7197 208.109 47.9758 207.81 49.4522 207.514L52.1386 206.978L52.7042 205.176L53.2697 203.374L51.1423 201.19L49.0181 199.01L50.3893 196.699L51.7638 194.387L54.6113 195.351L57.4589 196.311L58.8629 194.91L60.267 193.506L59.4219 190.754C58.955 189.241 58.6985 187.896 58.8465 187.765C58.9978 187.637 60.1092 186.986 61.3159 186.321C63.4138 185.174 63.5354 185.144 63.9465 185.726C64.1865 186.062 65.0579 187.088 65.8865 188.005L67.3892 189.672L69.2569 189.152C71.312 188.58 71.1213 188.889 72.1209 184.506L72.522 182.734L75.1361 182.915C76.5731 183.013 77.8259 183.168 77.9179 183.263C78.01 183.355 78.3553 184.638 78.6841 186.111C79.0129 187.584 79.3319 188.824 79.3943 188.866C79.4568 188.909 80.246 189.172 81.1502 189.455L82.7943 189.965L84.9908 187.824L87.1873 185.68L89.4858 187.068L91.7809 188.455L90.8208 191.296L89.8606 194.137L91.2121 195.515L92.5668 196.896L94.7501 196.265C95.9503 195.916 97.2492 195.548 97.6372 195.449C98.2257 195.295 98.5151 195.584 99.4325 197.251C100.031 198.343 100.557 199.204 100.597 199.165C100.636 199.126 102.014 193.47 103.658 186.601C105.299 179.729 106.726 173.849 106.824 173.534C106.995 172.994 106.325 172.958 95.8056 172.958H84.6028V169.834V166.711H103.546H122.486L123.121 165.905C123.913 164.896 128.122 162.765 129.325 162.765C129.822 162.765 130.798 162.965 131.499 163.212C132.226 163.469 132.988 163.547 133.268 163.396C133.541 163.251 135.724 162.568 138.121 161.88L142.485 160.628L110.336 160.539C80.976 160.457 78.0856 160.496 76.9677 160.996C76.2936 161.295 75.8135 161.653 75.8957 161.792C76.0963 162.114 74.3634 163.626 72.2195 164.998C69.8488 166.513 67.1031 167.414 65.0809 167.335C63.5552 167.28 62.6904 167.605 56.0187 170.775C51.9643 172.702 48.5874 174.339 48.5118 174.412C48.4394 174.487 48.5611 174.885 48.7814 175.299C49.1497 175.987 49.0675 176.158 47.8278 177.223C46.5257 178.344 46.4829 178.443 46.7953 179.571C47.0945 180.659 47.2557 180.777 48.9261 181.149C50.4781 181.498 50.7346 181.662 50.7346 182.313C50.7346 183.898 50.3235 185.124 49.7876 185.128C49.4949 185.128 48.7189 185.276 48.0613 185.46C47.088 185.729 46.8315 185.983 46.6605 186.838C46.4797 187.739 46.6211 188.054 47.6798 189.139L48.9063 190.395L48.1007 191.872C47.6568 192.681 47.282 193.345 47.2655 193.345C47.2491 193.345 46.4501 193.111 45.4866 192.825C43.7373 192.306 43.734 192.306 42.8923 193.144C42.0571 193.983 42.0538 193.986 42.5832 195.64L43.1126 197.297L41.6164 198.175L40.1203 199.053L38.9234 197.649C37.7923 196.321 37.6673 196.265 36.5855 196.544C35.5629 196.807 35.3985 197.011 34.9875 198.544L34.5271 200.25H32.7877H31.0449L30.8312 198.826C30.5616 197.028 30.4202 196.821 29.1312 196.38C28.1349 196.041 28.0165 196.091 26.869 197.363L25.6556 198.708L24.2187 197.925C23.4295 197.491 22.785 197.054 22.785 196.945C22.785 196.837 23.0251 196.045 23.321 195.18C23.8537 193.615 23.8537 193.605 23.0185 192.773C22.2326 191.987 22.0978 191.961 20.6938 192.312C18.6518 192.825 18.7241 192.852 17.8626 191.319L17.0932 189.952L18.4644 188.672C19.7139 187.508 19.8125 187.301 19.5659 186.351C19.3325 185.447 19.0661 185.243 17.5634 184.806C16.6098 184.529 15.8437 184.191 15.8569 184.056C15.87 183.921 15.8799 183.155 15.8799 182.353V180.896L17.6555 180.528C19.3357 180.179 19.441 180.097 19.6514 178.979C19.8487 177.927 19.7435 177.67 18.6682 176.569C17.4944 175.365 17.4779 175.316 17.9777 174.395C19.0234 172.458 18.9346 172.498 20.8089 173.123L22.5286 173.691L23.3539 172.866C24.1529 172.067 24.1694 171.982 23.7682 170.308C23.3999 168.779 23.4131 168.532 23.8899 168.184C24.4719 167.756 24.6231 164.935 24.2187 161.989L24.0115 160.463H18.5466C15.5412 160.463 12.5753 160.318 11.9571 160.141C10.5464 159.736 9.08649 158.362 8.6689 157.04C8.49133 156.481 6.39347 130.432 4.00954 99.1517C-0.324279 42.332 -0.327563 42.2794 0.293903 41.1154C1.61904 38.6394 -1.14961 38.8005 40.2321 38.8005H77.2472L77.7601 37.722C78.6249 35.9102 80.0553 34.47 81.7947 33.6611C83.8695 32.6944 83.9813 32.6976 86.191 33.74C88.473 34.8185 90.0415 34.6903 92.3761 33.227C95.6577 31.1752 98.1205 31.241 102.622 33.5065C106.344 35.3775 107.383 36.3245 107.222 37.7055L107.094 38.8038L128.434 38.7216L149.775 38.6361L150.531 35.6767C152.948 26.1871 158.445 18.4335 166.603 13.0047C181.476 3.10733 201.396 4.87637 214.111 17.2235C217.383 20.4032 219.122 22.5964 221.174 26.141C228.079 38.0705 227.77 53.2784 220.382 65.3197C217.955 69.2753 211.753 75.4933 208.038 77.6964C201.54 81.5534 194.638 83.5197 187.618 83.5197H185.129L185.307 85.4104C185.409 86.4495 186.648 102.578 188.069 121.252C189.486 139.925 190.719 155.199 190.811 155.192C190.903 155.189 191.465 153.653 192.067 151.782C194.155 145.285 196.49 143.25 204.21 141.194C204.454 141.129 204.621 140.543 204.621 139.771C204.621 138.521 204.559 138.442 203.326 138.11C201.892 137.722 201.593 137.193 201.721 135.282C201.77 134.533 201.646 133.987 201.406 133.908C200.787 133.701 200.925 132.905 201.777 131.751C202.971 130.136 203.089 129.554 202.228 129.548C200.636 129.538 199.85 128.055 200.393 126.089C201.014 123.843 202.711 122.79 204.322 123.652C204.799 123.905 205.506 123.849 207.015 123.438C208.14 123.129 209.501 122.863 210.04 122.846C210.875 122.817 211.046 122.958 211.208 123.8C211.333 124.444 211.563 124.744 211.875 124.661C212.135 124.592 213.033 124.464 213.864 124.379C215.18 124.241 215.456 124.319 215.92 124.987C216.83 126.286 216.574 127.841 214.95 130.87C213.223 134.085 212.645 134.815 211.819 134.815C210.8 134.815 210.363 137.005 210.921 139.304L211.392 141.224L212.881 141.438C216.094 141.895 218.425 143.841 220.132 147.488C221.089 149.533 222.029 153.239 222.049 155.038C222.072 157.277 222.282 157.504 224.344 157.504C225.781 157.504 226.692 157.734 228.155 158.474C229.214 159.01 230.128 159.398 230.184 159.342C230.378 159.148 231.87 151.112 232.449 147.146C233.261 141.579 233.265 130.823 232.456 126.759C232.13 125.132 231.525 122.948 231.104 121.906C230.269 119.831 230.582 118.894 231.436 120.91C234.514 128.153 234.583 141.234 231.621 155.689L230.723 160.075L231.653 161.325C232.683 162.702 233.557 165.264 233.557 166.901C233.557 167.483 232.242 174.014 230.634 181.412C228.517 191.155 227.464 195.351 226.82 196.627C225.679 198.879 223.334 201.154 220.96 202.315C219.931 202.818 219.089 203.384 219.089 203.568C219.089 203.755 221.325 213.258 224.054 224.685C226.787 236.114 229.043 245.601 229.069 245.772C229.095 245.939 228.526 246.193 227.803 246.327C225.787 246.709 186.865 246.676 186.865 246.294C186.865 246.117 186.431 245.749 185.902 245.476C185.33 245.176 184.771 244.512 184.524 243.835L184.113 242.694L183.538 243.638C183.222 244.157 182.669 244.677 182.304 244.792C181.943 244.907 181.601 245.328 181.542 245.726L181.44 246.449L161.3 246.534L141.159 246.62V245.906ZM180.946 245.124C180.946 244.098 180.128 242.082 179.371 241.247C179.062 240.905 178.26 240.346 177.589 240.001C176.517 239.455 175.603 239.379 170.109 239.379H163.848V221.459V203.538H161.385H158.922L158.837 221.377L158.751 239.215L152.122 239.379L145.493 239.544L144.264 240.54C142.771 241.75 141.817 243.44 141.817 244.881V245.956H161.382H180.946V245.124ZM226.652 245.124C226.652 244.098 225.833 242.082 225.077 241.247C224.768 240.905 223.966 240.346 223.295 240.001C222.223 239.455 221.309 239.379 215.814 239.379H209.554V221.459V203.538H207.091H204.628L204.542 221.377L204.457 239.215L197.828 239.379L191.199 239.544L189.969 240.54C188.476 241.75 187.523 243.44 187.523 244.881V245.956H207.087H226.652V245.124ZM93.4809 245.37C93.4809 244.834 109.244 179.775 109.415 179.604C109.514 179.505 109.662 179.495 109.744 179.577C109.83 179.66 113.259 193.707 117.37 210.789C121.48 227.871 124.873 241.895 124.913 241.951C124.985 242.056 126.455 241.316 127.287 240.757C127.625 240.527 126.034 233.428 119.642 206.711C115.199 188.146 111.566 172.81 111.566 172.629C111.566 172.412 119.31 172.301 134.083 172.301H156.601L157.219 171.067C157.558 170.39 157.923 169.279 158.025 168.601L158.215 167.368H121.74H85.2605V169.834V172.301H96.4403C102.589 172.301 107.62 172.419 107.62 172.56C107.62 172.705 106.15 178.956 104.355 186.453C102.56 193.95 98.7058 210.075 95.7892 222.281C92.8759 234.487 90.413 244.736 90.3177 245.052C90.173 245.545 90.3834 245.627 91.8138 245.627C92.7312 245.627 93.4809 245.512 93.4809 245.37ZM140.163 245.144C140.617 244.598 140.416 242.75 139.63 240.284L139.134 238.722H136.01H132.89L128.937 240.737C124.992 242.75 123.528 244.055 123.959 245.176C124.222 245.867 139.591 245.837 140.163 245.144ZM228.296 245.37C228.296 245.229 226.294 236.759 223.847 226.546C221.398 216.333 219.165 206.978 218.885 205.758L218.379 203.538H216.945C216.156 203.538 215.443 203.65 215.361 203.785C215.278 203.92 217.116 211.92 219.444 221.564L223.68 239.097L225.14 240.517C226.501 241.839 227.303 243.516 227.306 245.052C227.31 245.367 227.53 245.627 227.803 245.627C228.076 245.627 228.296 245.512 228.296 245.37ZM186.816 244.496C186.753 244.44 186.332 244.292 185.879 244.17L185.057 243.947L185.869 244.654C186.385 245.098 186.727 245.219 186.806 244.979C186.878 244.769 186.882 244.552 186.816 244.496ZM182.646 243.769C183.238 243.233 183.439 242.312 183.051 241.921C182.896 241.77 181.739 242.112 181.019 242.523C180.841 242.625 181.591 244.312 181.818 244.312C181.943 244.312 182.318 244.068 182.646 243.769ZM141.663 242.753C142.925 239.738 144.895 238.738 149.61 238.728C151.455 238.725 153.319 238.561 153.75 238.363L154.533 238.008L154.049 235.568C153.668 233.658 153.441 233.132 152.99 233.132C152.678 233.132 152.26 232.941 152.07 232.708C151.208 231.669 146.559 213.916 145.454 207.435C145.115 205.445 144.786 203.772 144.724 203.719C144.661 203.663 143.688 203.551 142.557 203.476L140.502 203.331V218.194C140.502 232.78 140.489 233.06 139.844 233.227C139.266 233.378 139.187 233.674 139.187 235.667C139.187 236.913 139.315 238.074 139.473 238.245C139.963 238.784 140.831 241.75 140.831 242.891C140.831 244.302 141.031 244.269 141.663 242.753ZM187.329 242.839C187.608 241.714 189.289 239.873 190.482 239.379C191.692 238.876 191.719 238.613 190.607 238.107C189.64 237.666 189.187 237.88 186.602 239.981C184.596 241.612 184.284 242.303 185.215 243.056C186.254 243.897 187.082 243.812 187.329 242.839ZM184.455 241.293C184.629 240.902 186.244 239.455 188.039 238.081L191.304 235.582L192.034 232.81C192.432 231.287 192.715 229.995 192.662 229.939C192.606 229.886 191.952 230.173 191.209 230.58L189.854 231.323L188.49 230.008C187.74 229.285 186.661 228.015 186.092 227.19C184.455 224.813 178.507 217.372 178.234 217.358C177.658 217.335 178.181 218.105 181.778 222.564L185.57 227.266L184.797 230.117C184.077 232.78 183.965 232.977 183.067 233.135C181.884 233.339 181.739 233.951 182.403 235.91C182.686 236.739 183.084 238.449 183.294 239.712C183.695 242.138 183.932 242.46 184.455 241.293ZM182.679 241.066C182.906 240.839 182.081 236.177 181.745 235.805C181.686 235.739 180.828 236.022 179.842 236.43C178.165 237.127 177.951 237.143 176.603 236.7C175.314 236.275 175.067 236.282 174.278 236.759L173.397 237.291L174.294 237.956C174.788 238.321 175.728 238.718 176.386 238.843C177.675 239.083 180.289 240.793 180.289 241.395C180.289 241.8 182.209 241.536 182.679 241.066ZM130.766 239.021C131.959 238.459 132.939 237.844 132.939 237.65C132.939 237.456 132.778 236.374 132.584 235.249C132.255 233.372 132.147 233.188 131.285 233.014C130.197 232.796 129.97 232.162 127.514 222.498C122.775 203.831 121.638 191.178 124.196 185.588C126.458 180.649 136.595 176.733 149.705 175.73C152.481 175.516 152.977 175.378 154.214 174.471C154.976 173.912 155.608 173.34 155.614 173.205C155.621 173.07 145.852 172.958 133.902 172.958C113.368 172.958 112.187 172.991 112.352 173.534C112.444 173.849 116.015 188.758 120.28 206.662C128.382 240.652 128.23 240.037 128.454 240.037C128.53 240.037 129.569 239.58 130.766 239.021ZM222.9 238.475C222.713 237.873 214.486 203.808 214.486 203.637C214.486 203.581 213.526 203.538 212.349 203.538H210.211V221.123V238.709L216.377 238.804C219.767 238.857 222.664 238.936 222.812 238.975C222.96 239.018 222.999 238.791 222.9 238.475ZM172.078 237.028C174.061 236.098 175.689 235.174 175.689 234.973C175.692 234.776 175.784 234.279 175.893 233.872C176.054 233.273 175.955 233.132 175.389 233.132C174.775 233.132 174.709 232.987 174.847 231.899C174.932 231.221 175.087 228.89 175.189 226.72C175.291 224.55 175.528 221.206 175.712 219.285L176.05 215.8L174.061 213.038C172.963 211.522 171.309 208.763 170.382 206.909L168.695 203.538H166.6H164.506V221.13V238.722H166.488C168.188 238.722 168.984 238.482 172.078 237.028ZM173.568 238.219C172.874 237.693 172.407 237.627 171.601 237.936C170.579 238.327 171.108 238.722 172.644 238.712C174.087 238.702 174.156 238.666 173.568 238.219ZM201.017 238.058C201.734 237.693 202.32 237.245 202.32 237.061C202.32 236.788 200.136 232.201 199.853 231.882C199.804 231.83 198.801 231.951 197.621 232.159C195.776 232.478 195.234 232.75 193.737 234.089L191.995 235.647L193.047 236.269C193.626 236.611 194.099 237.005 194.099 237.15C194.099 237.548 193.774 237.462 192.659 236.775C191.742 236.206 191.564 236.193 190.975 236.627C190.413 237.045 190.39 237.157 190.811 237.403C191.084 237.561 191.6 237.916 191.962 238.196C192.458 238.577 193.494 238.702 196.167 238.712C199.091 238.718 199.946 238.607 201.017 238.058ZM202.977 238.393C202.977 238.212 202.764 238.064 202.504 238.064C202.244 238.064 201.938 238.212 201.826 238.393C201.715 238.574 201.928 238.722 202.3 238.722C202.671 238.722 202.977 238.574 202.977 238.393ZM203.964 221.064C203.964 211.279 203.839 203.87 203.678 204.048C203.24 204.528 198.371 225.178 198.571 225.701C198.666 225.954 198.591 226.256 198.397 226.378C197.723 226.796 198.055 227.963 199.469 230.13C200.255 231.327 201.537 233.678 202.32 235.351C203.102 237.025 203.793 238.393 203.855 238.393C203.914 238.393 203.964 230.593 203.964 221.064ZM138.582 235.897C138.644 234.707 138.631 233.671 138.555 233.595C138.397 233.441 132.939 233.408 132.939 233.566C132.939 233.96 133.689 237.62 133.814 237.818C133.896 237.952 134.978 238.064 136.217 238.064H138.473L138.582 235.897ZM158.192 235.68L158.288 233.461H156.302C155.207 233.461 154.312 233.526 154.312 233.609C154.312 233.865 155.006 237.222 155.154 237.673C155.246 237.959 155.756 238.067 156.693 238.002L158.094 237.9L158.192 235.68ZM180.289 235.48C180.743 235.148 181.157 234.483 181.216 234.003C181.318 233.135 181.311 233.132 179.033 233.132C176.583 233.132 176.359 233.313 176.346 235.328C176.34 236.555 178.701 236.647 180.289 235.48ZM193.892 231.632L193.287 230.708L192.896 232.004C192.682 232.714 192.495 233.589 192.481 233.947C192.458 234.51 192.593 234.46 193.478 233.579L194.497 232.556L193.892 231.632ZM198.9 231.264C199.202 231.149 199.035 230.63 198.295 229.406C197.733 228.469 197.216 227.637 197.144 227.549C196.947 227.302 193.442 229.229 193.442 229.587C193.442 229.761 193.757 230.35 194.145 230.893C194.823 231.846 194.911 231.873 196.661 231.655C197.66 231.531 198.666 231.356 198.9 231.264ZM78.181 225.066C82.3767 223.971 85.7471 221.14 87.6608 217.105C88.6374 215.044 88.713 214.633 88.713 211.43C88.713 208.227 88.6374 207.816 87.6608 205.754C83.2316 196.403 71.3975 194.427 64.4298 201.878C59.3858 207.267 59.4285 215.688 64.5252 221.077C68.0994 224.859 73.2257 226.355 78.181 225.066ZM200.501 213.824C201.807 208.438 202.816 203.92 202.741 203.785C202.668 203.65 201.965 203.538 201.179 203.538H199.748L197.91 211.127C196.897 215.3 196.072 219.068 196.072 219.502C196.072 220.321 197.733 224.017 197.989 223.764C198.068 223.685 199.199 219.213 200.501 213.824ZM197.262 211.18C198.186 207.247 198.88 203.92 198.805 203.785C198.726 203.65 197.502 203.538 196.082 203.538H193.497L192.343 206.501L191.186 209.467L193.211 213.899C194.323 216.339 195.313 218.335 195.408 218.332C195.503 218.332 196.335 215.113 197.262 211.18ZM99.3437 204.709C99.735 203.002 100.057 201.434 100.057 201.227C100.057 201.016 99.2681 201.562 98.3079 202.44L96.5553 204.031L97.0321 205.922C97.3774 207.3 97.6602 207.813 98.0712 207.813C98.5085 207.813 98.7847 207.139 99.3437 204.709ZM173.897 202.187C176.304 201.286 178.766 199.231 180.17 196.945C181.177 195.308 181.594 193.733 184.268 181.491C187.48 166.793 187.589 165.8 186.25 163.179C185.205 161.131 184.037 159.93 182.189 159.01C180.654 158.244 180.115 158.161 176.669 158.161C170.727 158.161 167.57 159.391 164.062 163.071C161.306 165.961 160.514 167.957 158.587 176.904C156.38 187.143 156.16 187.854 154.71 189.465C152.704 191.691 151.297 192.135 145.599 192.342C140.091 192.543 139.519 192.753 138.223 195.035C136.684 197.738 137.914 201.322 140.821 202.611C141.097 202.733 148.236 202.844 156.683 202.858C171.529 202.881 172.105 202.858 173.897 202.187ZM219.602 202.187C222.009 201.286 224.472 199.227 225.876 196.942C226.886 195.301 227.3 193.739 229.973 181.488C233.268 166.398 233.33 165.728 231.723 162.771C231.226 161.864 230.733 161.121 230.628 161.121C230.519 161.121 230.006 162.785 229.487 164.82C228.54 168.549 224.225 181.863 223.177 184.302C222.867 185.026 222.549 185.434 222.47 185.21C222.391 184.983 223.157 182.491 224.173 179.666C226.198 174.033 229.562 162.696 229.694 161.058C229.769 160.115 229.621 159.944 228.013 159.092C226.366 158.224 225.991 158.161 222.401 158.161C216.432 158.161 213.282 159.385 209.767 163.071C207.005 165.968 206.216 167.96 204.289 176.904C202.083 187.157 201.866 187.857 200.416 189.465C198.41 191.691 197.003 192.135 191.304 192.342C185.797 192.543 185.224 192.753 183.929 195.035C182.39 197.738 183.62 201.322 186.526 202.611C186.803 202.733 193.941 202.844 202.389 202.858C217.235 202.881 217.81 202.858 219.602 202.187ZM35.4708 191.217C39.9526 189.889 42.6226 185.381 41.5507 180.965C40.8141 177.943 40.778 177.933 36.6776 179.84C34.7047 180.758 32.837 181.507 32.5279 181.507C31.65 181.507 29.4206 180.258 29.0424 179.554C28.8583 179.206 28.7038 178.377 28.7038 177.713C28.7038 176.746 28.5985 176.546 28.1842 176.703C27.8982 176.815 27.4575 176.904 27.2044 176.904C26.5106 176.904 24.8336 180.087 24.587 181.872C24.1496 185.059 26.2409 189.106 29.0885 190.58C31.1995 191.671 33.2546 191.875 35.4708 191.217ZM187.72 186.229C189.874 185.21 191.689 184.227 191.758 184.043C191.83 183.859 192.679 182.971 193.649 182.066C194.619 181.165 195.793 179.65 196.256 178.703C197.207 176.763 197.693 173.514 197.091 173.142C196.884 173.014 195.793 173.491 194.668 174.201C191.354 176.289 187.526 178.219 186.691 178.219C186.267 178.219 185.82 178.377 185.698 178.571C185.497 178.9 183.577 187.275 183.577 187.834C183.577 188.202 183.488 188.235 187.72 186.229ZM201.264 187.268C201.317 187.219 202.02 184.164 202.826 180.478C205.799 166.888 206.085 166.066 208.932 162.952C211.832 159.776 215.354 157.964 219.418 157.556L221.555 157.339L221.437 155.531C221.158 151.273 219.362 146.508 217.195 144.272C216.067 143.108 213.368 141.744 212.973 142.135C212.875 142.237 213.098 142.414 213.473 142.536C214.703 142.924 214.233 143.621 212.497 143.996C210.379 144.45 208.021 144.446 205.388 143.989C203.253 143.618 202.734 143.072 203.882 142.404C204.398 142.105 204.381 142.069 203.73 142.059C202.635 142.043 199.41 143.325 197.516 144.532C194.671 146.34 193.613 148.359 191.304 156.353C189.89 161.262 188.545 164.409 187.862 164.409C187.7 164.409 187.648 165.185 187.74 166.135C187.861 167.372 187.618 169.147 186.895 172.379C186.336 174.865 185.879 177.111 185.879 177.371C185.879 178.061 187.329 177.575 190.755 175.73C194.675 173.622 197.266 171.725 199.449 169.368C200.465 168.266 201.379 167.368 201.481 167.368C201.984 167.368 201.478 168.131 199.659 170.114C197.746 172.205 197.667 172.356 197.877 173.593C198.364 176.473 196.503 180.669 193.76 182.872C192.33 184.02 192.179 184.585 192.991 185.746C193.997 187.183 195.934 187.801 198.703 187.568C200.057 187.452 201.212 187.321 201.264 187.268ZM46.4599 172.955C54.687 169.121 61.454 165.954 61.4935 165.918C61.6053 165.816 58.3434 163.419 57.8239 163.219C57.574 163.123 51.0667 165.974 43.3658 169.555L29.3614 176.066V177.473C29.3614 178.943 30.3413 180.403 31.114 180.084C31.3244 179.998 38.2329 176.789 46.4599 172.955ZM157.732 177.644C157.827 177.328 158.271 175.368 158.722 173.287C160.096 166.901 161.168 164.738 164.42 161.765C167.698 158.766 171.105 157.504 175.909 157.504H178.974V154.268V151.036L177.001 150.487C174.804 149.875 172.736 148.264 172.062 146.64C171.802 146.012 171.713 144.805 171.815 143.355C171.989 140.931 171.753 140.57 170.779 141.77C170.355 142.293 169.734 142.52 168.402 142.628C165.956 142.832 162.832 142.168 162.631 141.402C162.5 140.898 162.293 140.859 161.161 141.112C158.297 141.757 155.286 143.95 153.822 146.462C153.392 147.199 152.227 149.925 151.241 152.516C150.251 155.11 149.097 157.602 148.673 158.056C147.292 159.536 143.274 161.157 135.57 163.34C133.468 163.939 133.429 163.968 133.33 165.165L133.228 166.382L141.551 166.379C149.479 166.372 149.946 166.339 151.428 165.639C153.868 164.485 158.561 159.674 160.063 156.787C161.49 154.041 161.487 154.045 161.72 154.278C162.023 154.584 160.698 157.27 159.073 159.638L157.495 161.936L158.044 164.077C159.228 168.703 158.551 171.396 155.496 174.185C154.546 175.056 153.829 175.95 153.908 176.181C154.098 176.753 156.318 178.219 156.995 178.219C157.304 178.219 157.633 177.96 157.732 177.644ZM41.9847 169.489C49.9618 165.77 56.6007 162.617 56.7388 162.482C56.8736 162.347 56.5448 161.907 56.0055 161.509L55.0224 160.782L42.9778 166.395C34.9217 170.15 30.6471 171.975 30.0684 171.909C29.5192 171.844 29.0688 171.508 28.8386 170.985C28.4111 170.019 25.899 128.324 26.208 127.348C26.3494 126.904 27.6121 126.131 30.0256 125.007C33.4552 123.409 33.636 123.277 33.636 122.33C33.636 121.781 33.5045 121.334 33.3467 121.334C32.7449 121.334 23.2651 125.908 23.0086 126.325C22.6042 126.98 25.6096 175.194 26.0897 175.776C26.3067 176.033 26.7078 176.246 26.9808 176.246C27.2537 176.246 34.0076 173.205 41.9847 169.489ZM42.501 165.905C48.88 162.929 54.1872 160.407 54.2924 160.305C54.3976 160.2 52.9935 158.602 51.1752 156.754C44.3851 149.855 39.7521 143.082 36.8058 135.739C35.5465 132.602 33.9649 126.733 33.9649 125.194C33.9649 123.994 33.6656 124.043 29.5982 125.924C27.0169 127.114 26.7309 127.338 26.721 128.153C26.6881 130.952 29.1345 169.956 29.3811 170.574C29.5423 170.982 29.95 171.314 30.2887 171.314C30.6241 171.314 36.1186 168.881 42.501 165.905ZM70.3781 165.254C71.6277 164.596 73.1599 163.616 73.7781 163.074C75.0704 161.943 75.2052 162.117 71.5323 160.105C68.8689 158.645 68.7176 158.293 69.9605 156.461C70.5261 155.626 71.2528 155.094 72.3445 154.702C75.7971 153.472 77.3853 152.805 77.2307 152.65C77.1419 152.562 74.37 152.825 71.072 153.236L65.0776 153.982L63.9761 152.7C60.9805 149.214 57.2353 142.838 55.5485 138.357C53.7531 133.586 53.2303 130.439 53.2336 124.458C53.2402 118.036 53.8255 114.767 55.8411 109.888C56.4922 108.316 57.0512 106.816 57.084 106.557C57.1235 106.261 54.1576 104.317 49.1431 101.355C39.9493 95.9195 41.1528 95.9852 38.782 100.783C35.5596 107.293 34.2937 112.587 34.2937 119.525C34.2937 131.747 39.3147 142.904 50.2874 155.064C53.8156 158.97 60.6846 164.82 63.3941 166.227C64.979 167.049 67.6753 166.671 70.3781 165.254ZM132.61 165.438C132.61 164.212 132.558 164.149 131.144 163.755C130.338 163.528 129.187 163.436 128.586 163.551C127.405 163.771 123.403 166.004 123.403 166.441C123.403 166.589 125.475 166.711 128.007 166.711H132.61V165.438ZM157.929 166.375C157.929 166.194 157.683 165.159 157.383 164.077L156.834 162.111L154.93 163.926C153.881 164.925 152.537 165.954 151.941 166.214C150.916 166.661 151.037 166.684 154.394 166.698C156.574 166.704 157.929 166.582 157.929 166.375ZM188.716 162.084C189.118 161.282 189.552 160.19 189.686 159.658L189.93 158.691L189.006 159.417C188.496 159.815 187.513 160.233 186.816 160.345C185.464 160.562 185.277 160.812 186.007 161.42C186.26 161.63 186.648 162.245 186.875 162.788C187.398 164.054 187.815 163.893 188.716 162.084ZM80.3545 157.155C84.228 155.337 87.5392 153.709 87.7101 153.538C88.0883 153.163 85.369 105.449 84.9053 104.298C84.6587 103.686 84.3891 103.558 83.5309 103.64C82.5181 103.735 82.4622 103.814 82.3734 105.222C82.3241 106.037 82.8699 116.313 83.5835 128.058C84.3562 140.714 84.7705 149.629 84.5995 149.944C84.445 150.237 81.1897 151.937 77.3688 153.722C71.0358 156.678 69.3095 157.777 69.9605 158.424C70.0723 158.54 70.8615 159.026 71.7131 159.513C72.5615 159.996 73.2717 160.407 73.2849 160.427C73.298 160.447 76.481 158.974 80.3545 157.155ZM23.9852 157.586C23.8701 156.366 23.7748 154.972 23.7748 154.492C23.7715 153.782 23.492 153.482 22.282 152.897C20.4767 152.022 19.3259 150.589 18.8491 148.619C18.5499 147.383 16.5342 122.176 16.5375 119.706C16.5375 119.223 16.6526 119.025 16.8269 119.213C16.988 119.384 17.5897 125.888 18.1619 133.664C18.859 143.069 19.3752 148.271 19.7073 149.198C20.2367 150.681 22.1932 152.571 23.1928 152.571C23.7024 152.571 23.7551 152.348 23.6038 150.845C23.0185 145.065 22.134 126.526 22.4168 126.019C22.591 125.704 25.1525 124.319 28.102 122.945L33.4716 120.449L33.6755 116.862C34.0109 110.953 35.7733 104.919 38.8511 99.1616L40.4656 96.1398L39.0089 95.367C38.1737 94.9231 37.618 94.4201 37.7101 94.1833C38.1902 92.9338 49.6363 78.1271 51.3462 76.5455C53.6446 74.4181 56.2028 72.8266 59.3003 71.5935C61.3389 70.7846 68.6716 69.1109 75.5603 67.8845C79.6081 67.1643 80.1473 66.7237 84.1556 60.8708C87.1807 56.4482 87.4175 55.5768 85.3558 56.4449C81.4626 58.0857 77.1945 55.9878 75.7017 51.6967C75.1855 50.2204 75.751 48.9511 77.4116 47.8529C79.4469 46.508 79.5719 45.7254 78.1974 42.9469C77.5628 41.6579 77.04 40.3459 77.04 40.0303C77.04 39.491 74.9948 39.4581 40.1302 39.4614C11.4902 39.468 3.04282 39.5601 2.43122 39.8725C1.99389 40.0961 1.33625 40.6879 0.967976 41.1877L0.293903 42.092L4.50606 97.2512C6.82094 127.585 8.8333 153.492 8.97798 154.817C9.17527 156.655 9.4186 157.425 10.0105 158.063C11.4178 159.592 12.3385 159.779 18.4742 159.792L24.1957 159.805L23.9852 157.586ZM146.378 158.944C147.894 158.188 148.242 157.816 149.14 155.991L150.172 153.903L149.784 148.422C149.571 145.41 149.475 142.815 149.574 142.661C149.669 142.506 151.297 142.378 153.191 142.378C156.219 142.378 156.834 142.279 158.268 141.553C159.166 141.096 160.455 140.609 161.135 140.468L162.368 140.215L162.467 138.173L162.566 136.131H161.569C160.872 136.131 160.415 135.884 160.037 135.309C159.498 134.487 159.491 134.487 154.154 134.487H148.814L148.617 132.76C148.509 131.81 148.318 129.308 148.196 127.197L147.973 123.363L157.143 123.251C162.187 123.192 169.099 123.192 172.499 123.251C177.925 123.346 178.707 123.428 178.872 123.908C178.974 124.211 179.404 125.197 179.825 126.102C180.381 127.289 180.782 129.252 181.272 133.171C182.18 140.464 183.294 144.966 185.05 148.465C186.701 151.756 186.691 151.776 183.209 151.483L180.923 151.292L181.137 152.427C181.334 153.482 181.292 153.558 180.489 153.558C179.661 153.558 179.631 153.624 179.631 155.531C179.631 157.02 179.746 157.504 180.101 157.504C180.358 157.504 181.565 158.023 182.778 158.655C185.195 159.914 186.29 160.055 188.039 159.325C190.4 158.339 190.443 160.743 187.349 120.308C185.82 100.345 184.508 83.8486 184.432 83.6513C184.356 83.4507 183.429 83.1876 182.374 83.0627C179.717 82.7503 176.991 82.0401 173.775 80.8267L171.046 79.7942L169.106 81.902C168.04 83.0627 167.159 84.1083 167.153 84.2234C167.116 84.7232 168.52 84.9863 172.065 85.154L175.843 85.3282L176.064 86.8704C176.185 87.7187 176.389 90.198 176.521 92.3781L176.757 96.3436L162 96.3469C147.351 96.3535 147.223 96.3568 144.776 97.1394C143.422 97.5701 141.09 98.185 139.598 98.504C136.977 99.0663 136.885 99.1189 136.885 100.017C136.885 101.161 137.299 101.151 126.363 100.299C121.934 99.9541 118.205 99.7732 118.083 99.8982C117.758 100.23 115.41 108.507 113.871 114.757C110.609 128.015 108.278 142.825 108.278 150.306V152.9H122.121C137.483 152.9 137.408 152.91 139.075 150.724C140.301 149.116 140.43 148.007 140.025 142.434C139.824 139.662 139.775 137.324 139.917 137.235C140.239 137.038 140.157 136.453 140.64 142.368C140.87 145.167 140.946 147.948 140.811 148.553C140.41 150.326 139.032 152.101 137.46 152.861C136.033 153.551 135.783 153.558 113.157 153.558H90.2979L89.9428 154.334C89.7094 154.85 88.6604 155.547 86.8519 156.389C85.3459 157.093 83.1494 158.138 81.9723 158.714L79.835 159.756L112.24 159.782L144.648 159.805L146.378 158.944ZM68.6551 152.881C70.559 152.614 72.2162 152.045 75.5011 150.533C77.8851 149.435 80.0191 148.366 80.2427 148.162C80.6965 147.744 80.6373 146.357 79.0326 119.913C78.2764 107.405 78.0297 104.758 77.5957 104.321C77.1156 103.841 76.1456 104.229 66.1759 108.865C60.1848 111.653 55.1605 114.156 55.0158 114.429C54.8711 114.702 54.516 116.316 54.2233 118.023C52.3195 129.173 55.5452 140.8 63.3086 150.756C64.3674 152.114 65.4393 153.229 65.6892 153.229C65.9391 153.229 67.2708 153.071 68.6551 152.881ZM180.489 152.381C180.378 152.095 180.289 151.723 180.289 151.559C180.289 151.391 180.141 151.256 179.96 151.256C179.779 151.256 179.631 151.624 179.631 152.078C179.631 152.614 179.815 152.9 180.161 152.9C180.506 152.9 180.621 152.723 180.489 152.381ZM78.2007 151.782C80.3709 151.654 83.475 150.493 83.9353 149.632C84.3266 148.899 81.3936 100.618 80.9266 100.053C80.7326 99.8192 80.3808 99.6318 80.144 99.6318C79.9073 99.6318 74.4884 102.055 68.0994 105.015C57.061 110.134 56.4593 110.456 55.8773 111.611C55.5419 112.278 55.3347 112.89 55.4169 112.972C55.4991 113.057 60.3426 110.897 66.1791 108.178C72.7555 105.11 77.0104 103.301 77.3787 103.417C77.7009 103.518 78.1415 103.811 78.352 104.068C78.7729 104.574 81.5086 147.317 81.1765 148.182C81.0746 148.451 79.3253 149.477 77.2899 150.46C74.2615 151.924 73.8274 152.22 74.9027 152.075C75.6261 151.976 77.1091 151.845 78.2007 151.782ZM153.605 145.581C154 144.943 154.539 144.243 154.809 144.019C155.743 143.243 155.286 143.036 152.635 143.036H149.972L150.179 145.42C150.291 146.732 150.472 148.665 150.574 149.717L150.764 151.631L151.83 149.181C152.415 147.837 153.214 146.215 153.605 145.581ZM212.312 143.407L213.266 143.2L212.099 142.644C211.023 142.135 210.892 141.905 210.353 139.619C209.813 137.337 209.81 137.048 210.293 135.818C210.793 134.539 210.79 134.467 210.139 134.013C209.613 133.645 209.508 133.319 209.662 132.54C209.922 131.241 209.034 130.646 207.959 131.399C207.186 131.938 207.032 131.886 205.18 130.445C204.496 129.913 203.898 129.531 203.855 129.597C202.306 131.991 201.688 133.303 201.961 133.628C202.135 133.839 202.323 134.733 202.382 135.618C202.481 137.186 202.517 137.235 203.799 137.591L205.115 137.959L205.213 139.876C205.289 141.319 205.177 141.947 204.759 142.408C204.171 143.059 204.24 143.131 205.772 143.473C206.755 143.69 211.224 143.644 212.312 143.407ZM170.27 141.658C170.382 141.543 170.03 140.142 169.481 138.544C168.721 136.325 168.274 135.506 167.587 135.078C167.09 134.769 166.501 134.177 166.275 133.763C165.926 133.115 165.966 132.905 166.531 132.3C167.429 131.336 167.241 130.018 166.219 130.126C165.808 130.172 164.423 129.682 163.144 129.038C161.868 128.394 160.796 127.913 160.764 127.973C160.731 128.029 160.395 128.841 160.014 129.775L159.323 131.475L160.024 133.474C160.711 135.44 160.744 135.473 161.957 135.473H163.19V138.426V141.379L164.095 141.579C164.591 141.688 165.147 141.836 165.328 141.905C165.837 142.102 170.033 141.891 170.27 141.658ZM173.272 137.939C174.298 134.727 174.275 134.487 172.927 134.487C172.312 134.487 171.236 134.746 170.536 135.062C169.106 135.706 169.096 135.828 170.165 138.699C170.743 140.254 170.908 140.432 171.677 140.343C172.43 140.254 172.631 139.951 173.272 137.939ZM159.031 132.711C158.521 131.646 158.531 131.521 159.238 130.064C159.751 129.005 159.915 128.223 159.777 127.529C159.606 126.684 159.757 126.345 160.724 125.378C161.359 124.744 161.875 124.168 161.875 124.096C161.875 124.024 158.896 123.964 155.253 123.964H148.634L148.851 127.499C148.972 129.442 149.156 131.662 149.262 132.431L149.456 133.829H154.509H159.563L159.031 132.711ZM174.495 132.796C174.752 131.514 174.15 129.133 173.611 129.314C173.397 129.387 173.124 130.117 173.006 130.939C172.887 131.761 172.624 132.747 172.42 133.132C172.072 133.78 172.124 133.829 173.167 133.829C174.16 133.829 174.311 133.71 174.495 132.796ZM172.749 127.068C172.437 126.24 172.045 125.608 171.878 125.661C171.526 125.77 171.624 126.329 172.259 127.851C172.953 129.521 173.407 128.798 172.749 127.068ZM173.088 124.418C173.397 124.043 173.196 123.964 171.943 123.964C171.108 123.964 170.424 124.099 170.424 124.267C170.424 124.967 172.535 125.086 173.088 124.418ZM140.995 97.5175C147.673 95.8932 154.118 93.1212 159.478 89.5634C163.059 87.1861 165.847 84.6279 165.591 83.9571C165.443 83.5723 165.551 83.4869 166.018 83.6184C166.485 83.7499 167.113 83.2501 168.511 81.6389L170.378 79.4819L167.412 77.6175C163.289 75.0297 157.886 69.9494 156.367 67.2367C156.117 66.7928 155.703 66.921 153.418 68.1409L150.761 69.5614L151.425 70.4722C151.79 70.9753 151.984 71.4883 151.859 71.6165C151.652 71.8204 151.057 71.2154 150.426 70.1566C150.268 69.8869 149.37 70.0514 147.318 70.7221C145.733 71.2417 143.188 71.8467 141.663 72.067L138.891 72.4682L138.707 74.1287C138.443 76.4995 137.214 95.3111 137.214 96.9487C137.214 97.7017 137.325 98.3165 137.46 98.3165C137.595 98.3165 139.187 97.9548 140.995 97.5175ZM175.853 92.1512C175.722 90.2079 175.56 88.5244 175.495 88.4158C175.429 88.304 174.699 88.0245 173.877 87.7944C172.187 87.3209 171.381 86.5777 172.92 86.9131C173.446 87.0282 174.209 87.2157 174.617 87.3307C175.248 87.5116 175.357 87.4162 175.357 86.683V85.8215H170.408H165.456L163.256 87.5774C159.438 90.6222 155.96 92.7332 151.692 94.5976L149.216 95.6794L162.654 95.6827L176.093 95.686L175.853 92.1512ZM167.287 85.1441C167.057 84.7692 166.15 84.7298 166.15 85.0948C166.15 85.2362 166.449 85.3743 166.814 85.4039C167.179 85.4302 167.393 85.3151 167.287 85.1441ZM186.208 79.6167V76.3712L184.215 76.1444C179.204 75.5788 173.193 73.2244 169.231 70.2815L167.212 68.7821L166.104 69.9856C165.492 70.6465 164.502 71.725 163.904 72.3794L162.815 73.5697L165.058 75.2598C169.668 78.7322 176.119 81.4482 181.933 82.359C186.632 83.0956 186.208 83.3718 186.208 79.6167ZM188.509 79.5739V76.2857H187.687H186.865V79.5739V82.8621H187.687H188.509V79.5739ZM195.49 82.0138C201.537 80.7708 209.179 76.9861 212.332 73.6782L213.305 72.6589L211.191 70.5249C210.03 69.3543 209.001 68.3941 208.903 68.3941C208.807 68.3941 207.693 69.1734 206.43 70.1237C202.28 73.2409 196.391 75.5887 191.386 76.1246L189.167 76.3614V79.643V82.9279L191.222 82.6977C192.353 82.5727 194.273 82.2637 195.49 82.0138ZM90.0283 75.2434C92.6128 74.8554 97.9232 73.2508 99.8435 72.2775C102.056 71.1562 100.883 71.2614 97.6306 72.4813C88.0784 76.0589 79.3023 76.0457 70.8582 72.4452C67.6358 71.0707 66.9025 71.2022 69.7567 72.6457C75.3137 75.4505 82.5017 76.3712 90.0283 75.2434ZM193.941 75.0066C211.753 71.3305 222.381 53.1172 216.886 35.6833C213.789 25.8582 205.917 18.3743 195.546 15.3887C193.313 14.7475 192.212 14.6455 187.687 14.6587C183.324 14.6719 181.979 14.8001 179.796 15.3985C171.776 17.6016 164.358 23.5894 160.602 30.8957C159.524 32.987 159.027 34.2957 157.748 38.3895C157.653 38.6986 158.39 38.8005 160.708 38.8005H163.795L164.483 36.729C166.511 30.6392 172.019 24.829 178.237 22.2248C181.098 21.0246 184.435 20.3867 187.792 20.3933C190.347 20.3966 194.905 21.0838 195.352 21.531C195.812 21.9913 194.984 21.9979 193.077 21.5507C190.334 20.903 185.468 20.9095 182.492 21.5639C181.19 21.8532 178.773 22.7345 177.122 23.5269C171.93 26.0161 167.307 31.0437 165.298 36.3804C164.864 37.5378 164.506 38.5572 164.506 38.6427C164.506 38.7315 166.577 38.8005 169.109 38.8005H173.712V37.7088C173.712 36.1272 174.587 33.8025 175.616 32.6483C176.738 31.389 186.457 25.1973 187.352 25.171C188.687 25.1348 188.263 26.4337 185.898 29.6133C184.185 31.9151 183.488 33.1646 183.202 34.447C182.988 35.3972 182.883 36.2456 182.972 36.3311C183.057 36.4166 184.143 36.1963 185.382 35.8411C187.885 35.1276 188.509 35.3085 188.509 36.752C188.509 37.3734 187.707 38.35 185.323 40.6287L182.133 43.6736L183.104 56.2805L184.07 68.8873L188.345 68.8578C192.084 68.8314 192.948 68.7164 195.25 67.9338C202.047 65.6255 207.896 60.0882 210.136 53.8439C210.734 52.1735 211.418 51.677 211.043 53.1863C210.247 56.3956 206.778 61.4396 203.559 64.08C199.071 67.7562 194.665 69.3707 188.427 69.6239L184.235 69.7982L184.238 70.9852C184.238 71.6396 184.333 72.9515 184.448 73.9018L184.656 75.6281L187.815 75.6248C189.598 75.6215 192.268 75.3519 193.941 75.0066ZM183.787 73.7736C183.672 72.9351 183.577 71.6198 183.577 70.8504V69.4529L181.348 68.9038C180.124 68.6046 178.908 68.2264 178.645 68.0653C177.74 67.5063 178.589 67.3616 180.013 67.8318C183.173 68.8775 183.248 68.8709 183.248 67.5655C183.248 65.8852 181.588 44.9231 181.446 44.7784C181.377 44.7127 181.078 45.1335 180.779 45.7123C180.355 46.531 180.21 47.8923 180.138 51.7461C180.003 58.8979 178.717 65.0895 176.169 70.8471C175.722 71.8599 175.357 72.7641 175.357 72.8595C175.357 73.3658 181.318 75.2434 183.048 75.2796C183.988 75.2993 183.995 75.2861 183.787 73.7736ZM166.261 67.6773C165.962 67.3485 165.617 67.0788 165.489 67.0788C165.364 67.0788 164.331 68.1212 163.2 69.3937C161.165 71.6856 161.148 71.7185 161.757 72.3925C162.368 73.0732 162.372 73.0699 164.588 70.6761C166.679 68.4138 166.774 68.2462 166.261 67.6773ZM175.603 70.4492C178.211 64.6061 179.332 59.1872 179.477 51.7198L179.582 46.3863L180.769 44.5943C181.423 43.6111 183.202 41.6744 184.725 40.2933C188.677 36.7059 188.904 35.4137 185.386 36.5251C182.571 37.4129 182.258 37.3702 182.272 36.0878C182.291 34.1675 183.393 31.7507 185.478 29.0576C187.283 26.7197 187.878 25.6478 187.365 25.6478C186.822 25.6478 176.978 32.1748 176.136 33.0922C174.998 34.3352 174.61 35.6044 174.058 39.8922C173.4 45.0415 171.266 50.7037 168.376 54.9784L166.889 57.1814L167.712 58.4309C168.165 59.1182 169.435 60.6011 170.53 61.7257C171.628 62.8535 172.42 63.8794 172.289 64.0077C171.983 64.3168 169.379 61.7684 167.873 59.6804C167.218 58.7762 166.64 57.9772 166.584 57.9048C166.531 57.8292 165.545 58.7729 164.39 59.9961L162.293 62.2189L164.187 64.5667C165.226 65.8589 167.018 67.674 168.169 68.6046C170.105 70.1665 173.939 72.6655 174.41 72.6688C174.518 72.6688 175.057 71.6691 175.603 70.4492ZM213.006 68.7229L210.721 66.4212L210.063 67.0788L209.406 67.7365L211.691 70.0382L213.976 72.3399L214.634 71.6823L215.291 71.0247L213.006 68.7229ZM143.32 71.1365C143.899 70.9129 143.895 70.6794 143.185 61.7191C142.873 57.7766 142.685 54.4851 142.764 54.4029C142.846 54.3207 144.606 54.2549 146.677 54.2549C150.412 54.2549 150.435 54.2517 150.251 53.5151C149.63 51.026 149.324 47.3202 149.439 43.6604L149.567 39.4581H146.72H143.872L143.665 40.4841C143.553 41.0496 143.461 42.0131 143.461 42.6214C143.461 43.233 143.294 43.7328 143.086 43.7328C142.823 43.7328 142.777 43.1014 142.932 41.5955L143.152 39.4581H124.705H106.262L103.405 41.1351C101.836 42.0591 99.9487 43.2724 99.2155 43.8314L97.8772 44.8475L98.8538 47.6589C99.6331 49.908 99.8304 51.0358 99.8337 53.2685C99.8435 57.553 98.8571 59.1872 96.2594 59.1872C95.5919 59.1872 95.2467 59.618 94.1418 61.8112C93.4184 63.2547 92.8233 64.6259 92.8233 64.8626C92.8233 65.2013 93.5072 65.2309 96.1936 65.0139C98.0482 64.8626 100.896 64.8166 102.523 64.9152C105.006 65.0599 128.875 66.9276 136.796 67.5918L139.17 67.7924L138.963 69.785L138.753 71.7777L140.801 71.5475C141.926 71.4192 143.06 71.2351 143.32 71.1365ZM88.3842 70.4032C90.0119 70.0678 92.3794 69.3115 93.6453 68.7196L95.947 67.651L94.5134 67.2104C93.7242 66.967 92.8759 66.5988 92.6227 66.3916C91.8533 65.7537 92.1097 64.1129 93.3165 61.9164C94.6877 59.424 94.714 59.1872 93.6519 59.1872C92.6391 59.1872 90.1927 58.2337 90.1927 57.8358C90.1927 57.4511 90.2388 57.4576 91.6231 58.0364C93.3132 58.7433 97.1538 58.694 98.0548 57.9542C99.199 57.0137 99.5838 53.8801 98.9426 50.7136C98.4099 48.0896 96.8052 43.769 95.9273 42.5951C95.4735 41.99 95.3913 41.9835 94.5463 42.48C93.1455 43.302 90.2322 44.0616 88.4894 44.0616C87.3616 44.0616 86.7204 44.2457 86.2666 44.6995C85.6057 45.3604 84.9382 47.307 84.9349 48.5828C84.9316 49.1813 84.7475 49.3227 83.9682 49.3227C82.7877 49.3227 82.4721 50.0823 82.7844 52.1735C83.0607 53.9985 83.9222 54.9126 85.369 54.9126C86.0989 54.9126 86.7073 55.1756 87.2071 55.705L87.9535 56.5008L84.7902 61.1108C81.2489 66.2732 79.5982 67.9108 76.4218 69.42C74.5936 70.2881 74.3503 70.4986 74.9027 70.7156C76.2541 71.2548 85.2802 71.0444 88.3842 70.4032ZM147.571 69.9889C149.373 69.397 149.692 69.1833 149.528 68.6736C149.423 68.3382 149.495 68.0653 149.686 68.0653C149.88 68.0653 150.038 68.2133 150.038 68.3941C150.038 68.963 150.866 68.7591 152.869 67.697C155.72 66.1878 155.729 66.1746 154.947 65.0731C154.01 63.7578 151.866 59.0721 151.162 56.8033L150.574 54.9126H147.634H144.691L144.885 55.9812C144.994 56.5698 145.178 57.382 145.296 57.7897C145.424 58.2336 145.368 58.5296 145.158 58.5296C144.961 58.5296 144.642 57.9015 144.444 57.1321C143.432 53.1731 143.277 55.0211 143.935 63.2119C144.218 66.7106 144.448 69.8278 144.448 70.1336C144.448 70.8668 144.974 70.8438 147.571 69.9889ZM165.581 56.0437L165.042 54.9126H161.977C159.711 54.9126 158.916 55.0211 158.916 55.3335C158.916 55.8333 161.099 60.4597 161.648 61.1174C161.961 61.4922 162.398 61.1766 164.075 59.3746L166.12 57.1716L165.581 56.0437ZM223.979 55.8826C224.239 55.1329 224.225 54.8435 223.926 54.7317C221.95 53.982 218.231 53.012 218.054 53.1994C217.932 53.3277 217.781 53.7979 217.721 54.2418C217.62 54.9882 217.817 55.1165 220.405 55.9418C221.94 56.4317 223.295 56.846 223.413 56.8592C223.532 56.8756 223.785 56.435 223.979 55.8826ZM167.07 55.8333C167.682 55.2217 167.541 54.9126 166.643 54.9126C165.748 54.9126 165.725 54.9389 166.021 55.7083C166.258 56.3298 166.541 56.3627 167.07 55.8333ZM164.154 52.384C163.47 50.3881 162.756 45.1862 163 43.9695C163.082 43.5684 163.233 42.3879 163.338 41.3488L163.526 39.4581H160.589H157.653L157.41 40.5268C157.038 42.1742 157.137 48.2606 157.577 50.5886C158.297 54.4194 158.113 54.2549 161.684 54.2549H164.798L164.154 52.384ZM169.678 51.46C171.246 48.4941 172.907 43.6999 173.242 41.1548L173.469 39.4581H168.843H164.216L163.96 41.02C163.355 44.7225 163.861 50.0329 165.137 53.3704C165.459 54.2089 165.62 54.2845 166.889 54.1925C168.274 54.0905 168.3 54.0675 169.678 51.46ZM160.889 28.7749C160.889 28.4986 157.127 26.0884 155.611 25.3913C155.503 25.342 155.243 25.6741 155.036 26.1312C154.615 27.0486 154.332 26.7822 158.094 29.0412C159.886 30.1197 160.103 30.1756 160.478 29.6824C160.704 29.3832 160.889 28.9754 160.889 28.7749ZM163.006 25.9339L164.568 23.9215L162.335 21.6691C160.185 19.5022 160.076 19.4364 159.468 19.9823C158.396 20.949 155.798 24.7731 156.131 24.8948C156.308 24.9573 157.485 25.6609 158.751 26.4567C160.017 27.2524 161.142 27.9133 161.247 27.9265C161.352 27.9397 162.145 27.042 163.006 25.9339ZM165.959 22.5865C166.248 22.1294 165.926 21.6494 164.108 19.831C161.921 17.6444 161.898 17.6312 161.221 18.2461L160.537 18.8676L162.76 21.1068C163.983 22.3432 165.127 23.3033 165.298 23.2474C165.469 23.1882 165.768 22.8923 165.959 22.5865ZM213.97 17.7299C213.654 17.3813 213.302 17.0985 213.187 17.0985C213.072 17.0985 212.043 18.1409 210.898 19.4167C208.857 21.702 208.834 21.7447 209.432 22.4089C210.037 23.0764 210.05 23.0666 212.289 20.7188C214.46 18.4467 214.519 18.3382 213.97 17.7299ZM211.24 15.4709C206.92 11.7026 199.492 8.55255 192.619 7.57268C188.858 7.03999 189.167 6.77694 189.167 10.4827V13.7347L191.386 13.9715C196.296 14.4976 202.777 17.0689 206.311 19.8935L208.074 21.3041L210.376 19.0155L212.677 16.727L211.24 15.4709ZM188.509 10.5222V7.23399H187.523H186.536V10.5222V13.8104H187.523H188.509V10.5222ZM236.3 153.147C238.46 144.433 239.045 130.965 237.664 121.827C235.846 109.822 231.127 98.2804 224.459 89.5404C223.285 88.0048 222.417 86.66 222.522 86.5514C223.163 85.9135 228.77 94.2951 231.598 100.118C235.05 107.228 237.086 113.879 238.388 122.32C239.262 127.969 239.187 139.997 238.243 145.995C237.319 151.871 236.862 153.887 236.454 153.887C236.267 153.887 236.198 153.555 236.3 153.147ZM186.865 89.7969C186.865 89.4713 190.446 89.1294 190.972 89.4056C191.15 89.4976 190.929 89.6785 190.479 89.8034C189.259 90.1421 186.865 90.1388 186.865 89.7969ZM194.099 89.1524C194.099 88.9946 194.727 88.7644 195.497 88.6427C196.266 88.5211 197.226 88.3369 197.634 88.235C198.042 88.1363 198.374 88.2021 198.374 88.3895C198.374 88.5737 197.627 88.8861 196.713 89.0833C194.704 89.5141 194.099 89.5305 194.099 89.1524ZM201.333 87.5083C201.333 87.1926 205.249 85.6834 205.48 85.9102C205.739 86.17 204.822 86.7027 203.165 87.2551C201.274 87.8864 201.333 87.8766 201.333 87.5083ZM208.245 84.5884C208.255 84.1642 211.832 82.2275 212.023 82.5399C212.125 82.7043 211.425 83.283 210.468 83.8321C208.676 84.8613 208.235 85.0126 208.245 84.5884ZM214.486 80.6294C214.486 80.225 217.353 77.9266 217.837 77.943C218.073 77.9529 217.531 78.6171 216.633 79.4227C215.042 80.8497 214.486 81.1621 214.486 80.6294ZM220.082 75.7333C220.076 75.296 222.404 72.3925 222.789 72.3597C222.923 72.3498 223.035 72.4978 223.035 72.6885C223.035 73.1751 220.092 76.2101 220.082 75.7333ZM224.679 69.8672C224.679 69.3214 226.767 66.1253 227.024 66.2831C227.195 66.3883 227.004 67.0131 226.6 67.6806C226.198 68.3448 225.712 69.1471 225.524 69.4628C225.202 69.9987 224.679 70.2519 224.679 69.8672ZM228.296 63.1758C228.296 62.5839 229.71 59.516 229.983 59.516C230.371 59.516 230.368 59.5325 229.565 61.6238C228.951 63.2284 228.296 64.0307 228.296 63.1758ZM230.864 56.389C230.631 56.0174 231.282 52.8016 231.667 52.4201C232.041 52.0453 231.913 53.9196 231.466 55.4058C231.249 56.1292 230.976 56.5731 230.864 56.389ZM231.946 44.545C231.943 41.7993 232.064 40.1684 232.255 40.2901C232.67 40.5432 232.673 48.9939 232.262 48.9939C232.081 48.9939 231.949 47.1163 231.946 44.545ZM230.983 35.486C230.522 33.4901 230.486 32.6286 230.881 33.0626C231.157 33.3652 231.913 36.1108 231.913 36.8079C231.913 36.9986 231.792 37.1564 231.64 37.1564C231.492 37.1564 231.196 36.4067 230.983 35.486ZM143.905 35.2526C144.168 33.6019 144.73 32.0696 144.98 32.3162C145.082 32.4182 144.977 33.3356 144.75 34.3516C144.26 36.5481 143.583 37.2682 143.905 35.2526ZM19.6909 32.7996C23.2454 28.6006 29.2628 22.8463 33.8004 19.3049C39.7751 14.6456 49.6725 8.6775 50.9746 8.95042C51.3297 9.02276 50.0769 9.83166 47.7752 11.0121C39.8047 15.1026 31.8177 21.1529 24.2351 28.8406C21.6835 31.4251 19.4804 33.5394 19.3325 33.5394C19.1878 33.5394 19.3489 33.2073 19.6909 32.7996ZM228.671 28.0843C227.869 25.9931 227.865 25.9766 228.253 25.9766C228.526 25.9766 229.94 29.0445 229.94 29.6364C229.94 30.4913 229.286 29.689 228.671 28.0843ZM145.947 28.525C146.338 27.2656 147.443 25.2466 147.637 25.4406C147.9 25.7037 146.407 29.2648 146.033 29.2648C145.858 29.2648 145.822 28.9327 145.947 28.525ZM30.8805 28.3408C30.7819 28.183 31.9919 26.9433 33.567 25.5853C42.0965 18.2264 52.2175 11.6007 60.6155 7.8719C65.6958 5.6195 72.8936 3.30791 74.8862 3.29147C76.0535 3.28489 74.9487 3.83073 72.9298 4.26477C67.6259 5.39919 58.0705 9.43708 51.8032 13.1856C45.4472 16.99 38.6998 21.9058 33.2513 26.7C32.0446 27.7588 30.9792 28.4986 30.8805 28.3408ZM225.38 21.6724C224.36 20.0283 224.071 19.1898 224.653 19.5482C225.222 19.9001 226.961 22.9909 226.685 23.1619C226.534 23.254 225.948 22.5832 225.38 21.6724ZM149.051 22.4254C149.051 21.9026 151.017 19.0714 151.379 19.0714C151.58 19.0714 151.428 19.5515 151.037 20.1401C150.649 20.7287 150.166 21.5409 149.969 21.9486C149.613 22.6654 149.051 22.9581 149.051 22.4254ZM220.776 15.5498C220.046 14.6949 219.52 13.9287 219.606 13.8432C219.793 13.6558 222.706 16.4672 222.706 16.8388C222.706 17.4569 222.009 16.99 220.776 15.5498ZM153.326 16.1811C153.326 15.7175 156.154 13.1297 156.394 13.373C156.522 13.5013 156.002 14.2444 155.236 15.0237C153.901 16.3883 153.326 16.7335 153.326 16.1811ZM215.308 10.3643C214.404 9.56203 213.861 8.89781 214.101 8.89123C214.614 8.87479 217.445 11.1239 217.445 11.5481C217.445 12.0972 216.949 11.821 215.308 10.3643ZM159.863 9.85139C161.069 8.75971 162.204 8.18756 162.204 8.67093C162.204 8.9274 159.116 11.1798 158.781 11.1667C158.584 11.1601 159.07 10.5682 159.863 9.85139ZM209.389 6.40208C208.666 5.95818 207.926 5.54058 207.745 5.47153C207.564 5.40577 207.512 5.24794 207.63 5.1197C207.867 4.86322 211.033 6.37249 211.359 6.8986C211.721 7.48389 210.747 7.24057 209.389 6.40208ZM164.834 6.58294C164.834 6.18507 168.113 4.48507 168.376 4.74484C168.603 4.97172 168.642 4.93885 166.748 6.02395C165.055 6.99396 164.834 7.05972 164.834 6.58294ZM202.504 3.32435C201.613 3.00868 200.823 2.57793 200.751 2.36091C200.679 2.14718 200.695 1.97291 200.784 1.97291C201.317 1.97291 204.621 3.42957 204.621 3.66303C204.621 4.03131 204.434 4.00171 202.504 3.32435ZM171.411 3.34736C171.411 3.1994 172.2 2.83112 173.167 2.52532C175.169 1.89399 175.357 1.87098 175.357 2.24254C175.357 2.39051 174.567 2.75878 173.601 3.06458C171.598 3.69592 171.411 3.71893 171.411 3.34736ZM178.645 1.35473C178.645 1.17059 179.2 0.927268 179.878 0.818758C180.555 0.710248 181.433 0.552415 181.831 0.473499C182.226 0.391294 182.633 0.457057 182.732 0.621466C182.831 0.782586 182.36 1.00947 181.683 1.12456C181.006 1.24293 180.046 1.41721 179.549 1.51585C179.029 1.62107 178.645 1.55202 178.645 1.35473ZM194.921 1.40405C194.379 1.32843 193.787 1.10812 193.606 0.920691C193.178 0.470211 197.078 0.874653 197.532 1.32842C197.858 1.65395 196.865 1.68026 194.921 1.40405ZM186.043 0.328818C186.155 0.147968 187.043 0 188.016 0C188.989 0 189.877 0.147968 189.989 0.328818C190.117 0.535973 189.384 0.657636 188.016 0.657636C186.648 0.657636 185.915 0.535973 186.043 0.328818ZM13.1277 75.901C13.0159 74.7567 12.6903 70.6531 12.4043 66.7829L11.8814 59.7462L12.8153 57.9213C13.5847 56.412 14.0516 55.9352 15.5083 55.1756C17.0307 54.3799 17.6456 54.2549 20.0263 54.2549C21.5454 54.2549 22.785 54.3898 22.785 54.5509C22.785 54.7153 21.404 54.8994 19.7172 54.9619C17.0505 55.0638 16.4783 55.1921 15.3176 55.9582C14.4923 56.5073 13.7064 57.4182 13.2526 58.3553L12.5194 59.8712L13.2066 68.644C13.588 73.5007 13.7689 77.5418 13.611 77.6997C13.4565 77.8542 13.2395 77.0519 13.1277 75.901ZM32.6496 54.5838C32.6496 54.37 38.7886 54.2549 50.4057 54.2549C62.0229 54.2549 68.1619 54.37 68.1619 54.5838C68.1619 54.7975 62.0229 54.9126 50.4057 54.9126C38.7886 54.9126 32.6496 54.7975 32.6496 54.5838ZM138.707 124.704C138.595 123.303 138.42 121.452 138.319 120.594C138.21 119.654 138.269 119.032 138.466 119.032C138.647 119.032 138.877 119.884 138.976 120.923C139.519 126.477 139.552 127.253 139.239 127.253C139.062 127.253 138.822 126.105 138.707 124.704ZM147.259 115.004C147.035 114.277 146.463 104.761 146.628 104.492C146.717 104.35 153.658 104.235 162.053 104.235H177.316L177.471 104.975C177.553 105.383 177.711 107.27 177.816 109.168C177.925 111.065 178.096 113.248 178.201 114.018L178.392 115.415H162.888C150.774 115.415 147.358 115.326 147.259 115.004ZM177.454 112.702C177.356 111.571 177.175 109.388 177.057 107.852L176.836 105.057L161.918 104.972L147.003 104.886L147.193 106.287C147.302 107.057 147.486 109.279 147.608 111.223L147.825 114.757H162.73H177.632L177.454 112.702ZM180.946 89.5272C179.454 89.353 178.835 88.7808 180.141 88.7841C181.696 88.7907 183.577 89.1721 183.577 89.4812C183.577 89.7673 183.077 89.7771 180.946 89.5272ZM160.806 81.0109C159.455 79.9981 158.86 79.2451 159.406 79.2451C159.682 79.2451 162.69 81.606 162.806 81.9118C163.016 82.4741 162.355 82.1749 160.806 81.0109ZM155.2 76.026C153.451 74.2339 153.694 73.5631 155.463 75.2993C156.275 76.0983 156.943 76.8678 156.943 77.0124C156.943 77.5517 156.38 77.2327 155.2 76.026ZM210.685 37.7319C210.376 36.7816 209.846 35.4564 209.508 34.7856C208.751 33.2764 208.695 32.6352 209.369 33.1942C209.787 33.5427 211.096 36.6566 211.688 38.7183C212.135 40.2736 211.224 39.3759 210.685 37.7319ZM142.991 49.2865C142.787 47.4977 142.889 46.6494 143.261 47.0473C143.576 47.3892 143.829 51.2956 143.537 51.2956C143.359 51.2956 143.116 50.3913 142.991 49.2865ZM146.937 63.8334C146.056 62.0973 145.908 61.4889 146.361 61.4889C146.703 61.4889 148.203 65.0796 147.959 65.3197C147.861 65.4183 147.4 64.7508 146.937 63.8334Z" fill="#1A1A1A"/>
</svg>
