<svg width="248" height="247" viewBox="0 0 248 247" fill="none" xmlns="http://www.w3.org/2000/svg">
<path d="M77.488 237.061C16.4162 229.139 1.90304 227.164 1.45856 226.719C1.0042 226.265 0.92189 225.577 0.984447 222.805C1.02396 220.954 1.19846 219.183 1.36637 218.864C1.53758 218.548 5.39305 216.164 9.93335 213.569L18.1875 208.854L9.09377 208.766L0 208.68L0.0987748 206.955L0.19755 205.233L3.06528 205.137L5.9363 205.042L6.0285 189.169C6.12068 173.981 6.15361 173.247 6.78247 172.176C8.05665 170.017 8.85013 169.694 13.3081 169.51L17.3183 169.345L17.5192 154.2C17.6311 145.87 17.8287 130.017 17.9538 118.97C18.1382 103.124 18.2896 98.4353 18.6748 96.7463C18.9415 95.5676 19.3103 93.9411 19.4946 93.1246C19.9622 91.0701 21.154 89.1473 22.9353 87.5768C24.8844 85.8647 27.1957 85.0712 30.2149 85.0778C32.2167 85.0844 32.8818 85.2424 34.6235 86.1413C36.4113 87.0632 40.01 87.8896 62.8497 92.6307C77.2477 95.6203 89.3014 98.0633 89.6372 98.0633C90.2232 98.0633 90.2463 97.3817 90.2463 80.5803C90.2463 61.0791 90.1673 61.7705 92.528 60.6478C93.6441 60.1177 94.1643 60.1605 107.028 61.8001C114.367 62.7352 120.557 63.499 120.784 63.4957C121.034 63.4957 121.195 63.0447 121.195 62.3598C121.195 60.279 120.837 60.2 111.163 60.1934C103.505 60.1868 102.448 60.121 101.237 59.5711C100.492 59.232 99.6759 58.6657 99.4257 58.3101C99.0569 57.7899 98.1877 57.5693 94.8031 57.1413C90.3286 56.575 89.0281 56.71 87.5267 57.892C85.6632 59.3571 85.6369 59.5975 85.6369 74.3246C85.6369 83.1254 85.5216 87.8566 85.3076 87.8566C85.0936 87.8566 84.9784 83.1353 84.9784 74.3477C84.9784 59.8905 85.0047 59.6205 86.6641 57.8393C87.8823 56.5289 92.4786 53.6579 93.733 53.4241C94.352 53.3056 95.4879 53.3056 96.2583 53.4208L97.6543 53.6315L97.5457 51.7087C97.4864 50.6519 97.5753 49.0254 97.7432 48.0969C97.9441 46.9939 97.9375 46.2926 97.7235 46.0786C97.2889 45.644 98.1647 42.0289 99.8504 37.3174C100.996 34.1105 101.181 33.1722 101.451 29.1521C101.888 22.5968 102.577 20.5061 105.02 18.3002C106.541 16.9239 107.505 16.3938 109.919 15.6036C111.17 15.1954 111.693 14.8431 111.812 14.3262C112.763 10.181 112.862 9.52576 112.579 9.24261C112.381 9.04506 112.516 8.18902 112.945 6.91813C113.317 5.81187 113.623 4.15576 113.623 3.23717C113.623 1.90043 113.784 1.40326 114.429 0.754648C115.48 -0.295646 115.993 -0.26272 117.356 0.935735C118.334 1.79177 118.535 1.85762 118.891 1.4296C119.536 0.649291 119.957 0.823791 121.689 2.58196C122.684 3.58946 123.599 4.22819 124.053 4.22819C124.932 4.22819 125.476 5.10728 125.476 6.53291C125.476 8.56765 124.415 9.35126 122.819 8.49522C122.236 8.18573 122.183 8.27463 122.177 9.56527C122.173 11.1983 121.936 11.679 121.057 11.8437C120.629 11.926 120.257 12.4956 119.905 13.6117C119.506 14.8727 119.21 15.281 118.644 15.3633C117.393 15.5411 117.817 16.3543 119.631 17.2696C122.45 18.6887 126.23 21.5103 128.307 23.7426C130.806 26.426 133.16 29.8007 132.726 30.0707C132.541 30.1859 132.39 30.4098 132.39 30.5712C132.39 30.9465 135.327 33.89 136.617 34.8118L137.598 35.5098L141.105 29.1686C143.031 25.6819 144.95 22.5244 145.365 22.1458C146.044 21.5334 146.969 21.4017 154.36 20.8617C158.891 20.5292 162.838 20.3514 163.135 20.4633C163.428 20.5785 163.668 20.9901 163.668 21.3819C163.668 21.7737 161.373 26.235 158.565 31.2988C155.756 36.3626 153.461 40.6494 153.461 40.8239C153.461 40.9984 153.942 41.7425 154.532 42.4767C155.579 43.7805 155.602 43.8826 155.579 46.9841C155.556 50.451 154.867 52.973 152.619 57.8426C151.993 59.1958 151.519 60.3416 151.565 60.3877C151.611 60.4305 172.08 63.071 197.047 66.2548C247.646 72.7048 244.103 72.0693 246.167 75.049L247.132 76.4417L247.218 128.489C247.283 167.784 247.211 180.77 246.918 181.478C246.704 181.995 245.631 183.163 244.528 184.075C243.425 184.987 242.476 185.857 242.417 186.005C242.253 186.43 240.182 187.628 239.062 187.947C238.311 188.165 218.886 185.794 164.557 178.867C124.139 173.714 90.569 169.335 89.9566 169.134C88.442 168.64 86.3217 166.662 85.594 165.065C85.031 163.833 84.9915 162.335 84.9849 142.265C84.9816 128.463 85.0936 120.781 85.301 120.781C85.5084 120.781 85.6566 128.66 85.7126 142.646L85.8015 164.515L86.7925 165.924C88.791 168.769 82.8481 167.827 164.353 178.215C242.565 188.181 239.194 187.826 241.126 186.304C243.145 184.717 243.016 188.395 243.016 131.969V80.5375L242.147 78.944C241.314 77.413 239.632 75.9511 238.242 75.5494C237.88 75.4474 220.713 73.2118 200.093 70.5811C179.475 67.9504 162.065 65.649 161.406 65.4679C159.266 64.8687 149.751 63.8118 149.372 64.1312C148.905 64.5263 147.719 66.752 147.894 66.9133C147.97 66.9858 166.845 69.432 189.843 72.3558C212.841 75.2795 232.457 77.8146 233.435 77.9891C235.536 78.3612 237.304 79.5959 237.949 81.14C238.334 82.0619 238.407 90.1482 238.407 131.666C238.407 186.861 238.604 182.367 236.115 183.555C234.973 184.102 233.551 183.934 165.644 175.291C127.524 170.441 95.6295 166.326 94.7635 166.151C92.9264 165.776 91.3295 164.551 90.6941 163.033C90.3286 162.158 90.2463 157.252 90.2463 136.46V110.963L89.0116 110.762C86.5225 110.357 41.7385 104.648 41.6858 104.73C41.6595 104.777 43.1543 119.184 45.0145 136.75C46.8747 154.315 48.4024 168.871 48.4123 169.098C48.4255 169.398 49.3276 169.51 51.7575 169.51C55.5734 169.51 56.9497 169.974 57.944 171.604C58.2897 172.173 59.2873 175.12 60.1565 178.152C61.029 181.185 61.8587 183.667 62.0069 183.667C62.155 183.667 65.9381 181.57 70.4158 179.005C82.3213 172.183 84.0663 171.485 89.1762 171.485C90.8488 171.485 119.352 175.028 162.117 180.546C200.728 185.531 234.094 189.834 236.267 190.107C241.548 190.769 242.493 191.049 242.964 192.076C243.174 192.537 243.346 194.312 243.346 196.014V199.109L242.276 199.899C241.686 200.334 223.739 210.659 202.394 222.847C173.295 239.458 162.964 245.2 161.123 245.786C156.155 247.363 159.997 247.765 77.488 237.061ZM160.188 240.416C161.261 240.143 162.852 239.56 163.721 239.119C167.359 237.275 241.591 194.766 242.177 194.19C243.082 193.301 242.559 191.856 241.202 191.497C240.659 191.355 228.144 189.686 213.384 187.789C198.624 185.893 165.288 181.586 139.304 178.218C96.7291 172.703 91.6983 172.111 88.4354 172.239C85.6599 172.348 84.3133 172.568 82.6736 173.181C80.4479 174.014 3.3188 217.853 2.18949 218.929C1.66599 219.427 1.60672 219.71 1.86683 220.447C2.04462 220.961 2.54178 221.468 3.00273 221.616C3.4505 221.758 37.0797 226.16 77.735 231.395C118.39 236.63 152.095 240.982 152.638 241.065C154.156 241.302 158.015 240.972 160.188 240.416ZM42.7954 194.812C52.6859 189.172 60.8841 184.467 61.0126 184.355C61.2331 184.164 58.3819 173.829 57.6674 172.226C56.9892 170.708 55.4746 170.171 51.8892 170.171H48.5967L48.5473 172.884C48.4683 177.323 46.9999 180.52 43.579 183.72C35.9306 190.871 23.2645 187.733 19.4156 177.734C18.9909 176.628 18.6551 174.814 18.5497 173.049L18.3785 170.168H16.8607C14.9642 170.171 13.4925 171.031 12.7649 172.565C12.2743 173.599 12.215 175.439 12.215 189.396V205.068H18.5135H24.8087L42.7954 194.812ZM36.8722 186.611C40.9286 185.676 44.7676 182.607 46.4928 178.919C48.5078 174.613 48.6329 176.954 44.0103 132.963C39.8519 93.3781 39.8388 93.2859 38.8543 91.2446C37.1356 87.6821 34.0572 85.7725 29.9943 85.7495C26.7414 85.7297 24.6408 86.645 22.4513 89.0419C19.5901 92.1698 19.814 88.8378 19.4255 133.875C19.1753 162.503 19.1786 174.274 19.4354 175.466C21.1343 183.387 29.0131 188.421 36.8722 186.611ZM236.109 182.841C236.639 182.568 237.222 182.057 237.409 181.711C237.636 181.283 237.748 164.89 237.748 131.551V82.029L237.008 80.926C236.599 80.3202 235.819 79.5662 235.272 79.2469C234.509 78.7991 224.427 77.413 191.483 73.225C167.945 70.2288 148.361 67.7266 147.963 67.6607C147.377 67.5652 146.942 67.9867 145.691 69.8798C142.636 74.5024 140.239 77.65 139.768 77.65C138.642 77.65 138.296 81.005 139.136 83.7707C139.844 86.1083 139.827 86.1577 138.31 85.8812C137.582 85.7462 136.917 85.7495 136.831 85.8877C136.66 86.1676 137.786 86.5298 138.853 86.5364C139.238 86.5364 139.739 86.7602 139.962 87.0335C140.315 87.4583 140.173 87.5274 138.932 87.534C137.882 87.5373 137.628 87.6229 137.987 87.8566C138.26 88.0311 138.892 88.1793 139.396 88.1793C139.903 88.1826 140.397 88.4065 140.502 88.6798C140.604 88.953 141.036 89.1736 141.457 89.1736C141.879 89.1736 142.613 89.3218 143.087 89.5029C143.874 89.7992 143.94 89.9671 143.848 91.396C143.749 92.9534 143.742 92.9599 142.435 93.1246C141.454 93.2464 141.088 93.4571 140.996 93.9477C140.683 95.6137 138.833 95.5215 137.319 93.76C136.258 92.5253 135.979 92.3904 134.026 92.1533C132.854 92.0084 131.863 91.9195 131.82 91.9525C131.731 92.0249 130.796 98.2048 130.862 98.2839C130.905 98.3332 142.708 99.7095 143.097 99.7095C143.182 99.7095 143.255 100.526 143.255 101.52C143.255 103.249 143.215 103.331 142.402 103.331C141.638 103.331 135.439 102.646 131.814 102.162C130.111 101.932 130.039 102.268 131.402 103.99C131.945 104.675 132.39 105.323 132.39 105.432C132.39 105.537 131.721 105.794 130.908 105.998C130.095 106.206 129.427 106.505 129.427 106.67C129.427 106.831 129.835 106.854 130.332 106.719C131.688 106.354 133.463 106.41 133.608 106.828C133.677 107.039 133.163 107.285 132.403 107.407C131.672 107.522 131.073 107.766 131.073 107.944C131.073 108.355 131.264 108.349 132.87 107.904C134.066 107.572 134.224 107.608 134.797 108.319C135.34 108.991 135.942 109.159 139.419 109.587L143.42 110.081V111.892C143.42 113.376 143.321 113.696 142.873 113.663C142.57 113.64 141.23 113.518 139.89 113.393C137.5 113.169 137.447 113.179 137.068 114.009C136.449 115.368 134.461 115.181 130.872 113.423L127.945 111.99L119.302 111.052L110.66 110.117V108.191V106.265L111.73 106.439C112.951 106.64 121.63 107.611 122.196 107.611C122.404 107.611 122.186 107.157 121.719 106.597C120.563 105.224 120.616 103.967 121.897 102.508C122.466 101.863 122.871 101.29 122.802 101.234C122.733 101.178 120.306 100.878 117.409 100.569C109.701 99.7457 110.33 99.9828 110.33 97.8723C110.33 96.6607 110.462 96.0878 110.742 96.0911C110.969 96.0944 113.672 96.3907 116.751 96.7463C119.829 97.1019 122.509 97.3982 122.707 97.4015C122.96 97.4048 122.94 96.7463 122.638 95.1824C122.4 93.9609 122.203 92.4924 122.196 91.9195C122.183 90.777 122.193 90.7803 117.903 90.326C116.909 90.2206 115.536 90.0527 114.857 89.9539L113.623 89.7729V87.9455V86.1182L115.845 86.3421C117.067 86.4639 118.845 86.6516 119.796 86.7603C121.403 86.9446 121.525 86.9117 121.525 86.2565C121.525 85.868 121.465 85.5519 121.39 85.5519C120.758 85.5519 103.156 83.5205 102.84 83.4118C102.392 83.2571 102.247 80.0963 102.675 79.8527C102.81 79.7737 107.035 80.1786 112.059 80.7515L121.195 81.7919V81.038C121.195 80.5408 121.001 80.284 120.619 80.2807C120.303 80.2807 115.522 79.7638 110.001 79.1349C104.48 78.5028 99.7747 77.9859 99.5475 77.9826C99.2643 77.9793 99.1359 77.3735 99.1359 76.0631V74.1436L108.602 75.2169C113.807 75.8062 118.782 76.3791 119.658 76.4911C121.172 76.682 121.241 76.6557 121.139 75.9347C121.031 75.1906 120.84 75.1609 108.355 73.7649C101.385 72.9846 95.4945 72.2866 95.2673 72.2109C95.0105 72.1253 94.8557 71.4503 94.8557 70.4165C94.8557 68.8624 94.9084 68.7604 95.692 68.7604C96.153 68.7604 101.721 69.353 108.065 70.0774C114.413 70.8017 119.961 71.3944 120.399 71.3944C121.192 71.3944 121.195 71.3845 121.195 67.7726C121.195 65.3099 121.077 64.1509 120.827 64.1509C120.623 64.1509 114.541 63.397 107.311 62.4718C100.081 61.5499 93.789 60.8881 93.3313 61.0034C92.8704 61.1186 92.1362 61.5729 91.6983 62.0108L90.9048 62.8043V80.5737V98.3464L92.4687 97.4673C93.6902 96.7825 94.4639 96.5915 96.0081 96.5981C98.326 96.6113 99.7681 97.2632 101.441 99.0609L102.593 100.299L109.672 101.076L116.751 101.853L116.849 103.746C116.902 104.786 116.853 105.636 116.734 105.636C116.619 105.636 113.86 105.323 110.607 104.944C107.351 104.563 104.615 104.329 104.522 104.421C104.345 104.599 106.998 110.841 107.337 111.049C107.443 111.115 109.678 111.411 112.306 111.711C119.131 112.484 118.561 112.241 118.561 114.391C118.561 115.971 118.486 116.195 117.985 116.053C117.021 115.783 109.343 115.075 109.175 115.24C109.089 115.326 109.211 115.658 109.441 115.974C109.777 116.429 110.89 116.666 114.706 117.094L119.549 117.634V119.54V121.446L118.315 121.275C115.364 120.86 111.812 120.505 111.703 120.613C111.641 120.679 111.674 121.005 111.779 121.341C111.95 121.874 112.869 122.052 119.138 122.763L126.299 123.58V125.391C126.299 127.119 126.262 127.198 125.476 127.139C125.021 127.103 122.315 126.823 119.457 126.517C116.599 126.21 114.192 126.029 114.107 126.115C114.021 126.201 114.61 127.738 115.42 129.533L116.886 132.799L119.042 133.085L121.195 133.368V135.179V136.987L120.043 136.852C118.914 136.72 118.634 137.006 119.144 137.77C119.401 138.152 120.178 138.284 127.079 139.084L131.484 139.598L133.47 138.537C135.392 137.513 135.472 137.5 135.926 138.103C136.528 138.903 139.05 143.868 138.912 143.986C138.856 144.033 138.29 144.349 137.658 144.684L136.505 145.297L137.822 145.468L139.139 145.639L139.126 147.355C139.12 148.296 139.044 149.129 138.962 149.202C138.879 149.277 137.032 149.129 134.859 148.876C131.731 148.51 130.737 148.497 130.085 148.813C129.374 149.159 130.306 149.33 136.835 150.061L144.407 150.907L144.506 152.8C144.559 153.841 144.486 154.694 144.341 154.694C143.979 154.69 133.223 153.442 131.465 153.199L130.049 153.001L130.131 154.424C130.177 155.207 130.187 156.471 130.151 157.232L130.085 158.618L128.004 158.424C126.47 158.282 125.673 158.365 124.959 158.737L123.994 159.244L125.146 159.435C126.17 159.603 135.047 160.62 135.501 160.62C135.6 160.62 135.682 161.433 135.682 162.431C135.682 164.14 135.636 164.242 134.866 164.242C134.418 164.242 129.535 163.721 124.017 163.089C118.499 162.457 113.754 161.937 113.475 161.937C113.079 161.937 112.964 161.548 112.964 160.192C112.964 159.231 113.149 158.246 113.376 157.999C113.603 157.756 112.493 158.243 110.91 159.086C107.841 160.722 106.379 160.979 105.135 160.106C104.173 159.435 103.416 157.937 103.416 156.712C103.416 155.892 103.255 155.698 102.428 155.517C101.493 155.313 101.441 155.214 101.441 153.67C101.441 152.603 101.595 151.981 101.885 151.869C102.129 151.773 103.541 151.849 105.02 152.033C107.321 152.323 107.874 152.293 108.855 151.826C110.113 151.227 110.189 151.042 109.606 149.979C109.392 149.584 109.04 148.174 108.829 146.848C108.447 144.457 108.45 144.428 109.221 144.079C110.176 143.644 110.189 143.384 109.316 141.975C108.516 140.684 108.681 140.727 102.264 140.042C94.9874 139.265 95.5142 139.456 95.5142 137.566C95.5142 136.687 95.6525 135.88 95.8204 135.775C95.9916 135.67 98.0264 135.808 100.348 136.081C105.141 136.648 106.053 136.687 106.044 136.338C106.027 135.413 105.181 135.166 100.084 134.58C97.1177 134.241 94.6549 133.958 94.6088 133.958C94.3948 133.944 94.5594 130.678 94.78 130.54C94.9183 130.454 96.7983 130.589 98.9581 130.843C101.118 131.093 102.942 131.245 103.008 131.176C103.228 130.958 91.7411 111.124 91.3098 110.983C90.9739 110.871 90.9114 115.971 90.9805 136.868L91.0694 162.888L92.1888 164.044C92.8045 164.68 93.7692 165.305 94.3289 165.434C95.8007 165.769 232.401 183.259 233.896 183.302C234.584 183.321 235.579 183.114 236.109 182.841ZM135.024 162.467C135.024 161.104 135.261 161.176 128.11 160.422L122.677 159.85L120.906 160.864L119.131 161.878L120.906 162.092C121.88 162.21 124.899 162.572 127.616 162.902C130.332 163.228 133.111 163.517 133.789 163.54C134.981 163.583 135.024 163.544 135.024 162.467ZM115.434 160.291C114.726 159.566 114.031 158.974 113.886 158.974C113.741 158.974 113.623 159.481 113.623 160.103C113.623 161.282 113.886 161.45 115.911 161.562C116.681 161.604 116.658 161.545 115.434 160.291ZM123.533 158.463L129.153 155.648L127.639 153.936C125.515 151.539 121.67 143.884 121.179 141.083L120.804 138.923L115.042 141.787L109.277 144.652L109.487 146.739C109.771 149.57 113.623 157.41 115.865 159.715C116.701 160.574 117.501 161.278 117.646 161.278C117.791 161.278 120.441 160.011 123.533 158.463ZM129.697 157.077C129.822 156.192 129.772 156.185 128.248 156.913C127.099 157.459 127.082 157.492 127.826 157.706C129.048 158.055 129.581 157.874 129.697 157.077ZM104.917 153.953L106.439 152.883L105.01 152.659C102.247 152.231 102.099 152.274 102.099 153.485C102.099 155.388 102.728 155.494 104.917 153.953ZM143.913 152.718C143.913 151.576 143.815 151.398 143.173 151.385C142.764 151.375 139.469 151.026 135.847 150.608C132.225 150.189 129.229 149.87 129.19 149.9C129.022 150.025 129.805 152.389 130.019 152.409C130.144 152.418 133.14 152.771 136.67 153.192C140.199 153.614 143.275 153.976 143.502 153.996C143.769 154.022 143.913 153.574 143.913 152.718ZM138.645 147.312C138.645 146.271 138.58 146.212 137.161 146.018C135.949 145.853 135.34 145.978 133.868 146.703C132.874 147.19 132.061 147.684 132.061 147.802C132.061 148.036 137.99 148.698 138.399 148.51C138.533 148.451 138.645 147.908 138.645 147.312ZM128.119 144.316C129.018 143.861 129.756 143.341 129.756 143.16C129.756 142.979 128.867 143.279 127.78 143.828C126.694 144.378 125.805 144.898 125.805 144.984C125.805 145.327 126.552 145.112 128.119 144.316ZM114.637 141.329C117.432 139.924 118.259 139.364 118.147 138.942C118.064 138.643 114.248 129.977 109.669 119.685C101.023 100.266 100.604 99.4922 98.2503 98.511C96.8839 97.9381 94.4771 97.9381 93.1107 98.5077C90.7863 99.479 88.9491 102.775 89.4396 105.086C89.5615 105.662 94.3322 114.354 100.041 124.403C105.75 134.455 110.482 142.788 110.561 142.923C110.765 143.288 110.692 143.315 114.637 141.329ZM128.436 141.277C129.338 140.78 130.078 140.282 130.082 140.171C130.082 140.062 129.012 139.874 127.698 139.756C126.384 139.637 124.57 139.449 123.665 139.338L122.019 139.137L123.171 140.361C125.113 142.429 126.048 142.594 128.436 141.277ZM107.416 138.653L106.758 137.365L102.702 136.957C100.469 136.733 98.0758 136.463 97.3843 136.358L96.1266 136.164L96.232 137.444L96.3373 138.725L102.099 139.397C105.266 139.766 107.907 140.039 107.966 140.006C108.026 139.97 107.775 139.361 107.416 138.653ZM120.537 135.143C120.537 133.951 120.04 133.635 118.156 133.625C117.304 133.622 117.277 133.668 117.643 134.527C118.14 135.696 118.828 136.256 119.776 136.256C120.422 136.256 120.537 136.085 120.537 135.143ZM104.588 133.704C104.318 133.207 103.979 132.621 103.831 132.404C103.683 132.186 102.158 131.847 100.443 131.656C98.7277 131.462 96.8345 131.225 96.2353 131.126C95.1455 130.952 95.1422 130.952 95.2475 132.203L95.3496 133.457L99.959 133.991C102.494 134.284 104.684 134.544 104.825 134.567C104.964 134.59 104.858 134.201 104.588 133.704ZM125.805 125.391C125.805 124.558 125.653 124.07 125.393 124.07C125.166 124.067 122.463 123.771 119.385 123.415C116.306 123.06 113.452 122.763 113.04 122.76L112.289 122.757L112.921 123.991L113.554 125.226L119.431 125.927C122.664 126.313 125.423 126.645 125.558 126.668C125.693 126.691 125.805 126.115 125.805 125.391ZM118.891 119.464C118.891 118.434 118.766 118.144 118.315 118.134C117.998 118.124 116.036 117.917 113.952 117.667C111.868 117.42 110.123 117.258 110.07 117.311C110.018 117.364 110.225 117.94 110.538 118.588C111.147 119.869 110.916 119.793 116.092 120.419C117.36 120.574 118.509 120.715 118.644 120.738C118.779 120.761 118.891 120.189 118.891 119.464ZM117.903 114.252V112.995L112.908 112.445C110.162 112.142 107.848 111.961 107.765 112.043C107.683 112.122 107.904 112.678 108.253 113.274L108.885 114.361L113.31 114.894C115.746 115.191 117.775 115.451 117.821 115.47C117.867 115.494 117.903 114.947 117.903 114.252ZM136.176 113.867C136.064 113.686 135.718 113.538 135.409 113.538C133.904 113.538 126.292 108.411 123.089 105.241L121.525 103.693V104.724C121.525 105.531 121.867 106.074 123.089 107.216C126.858 110.736 132.791 114.196 135.06 114.196C135.857 114.196 136.298 114.065 136.176 113.867ZM142.926 111.743C142.926 110.529 143.038 110.568 138.043 110.045L135.962 109.824L136.644 111.105C137.315 112.359 137.378 112.392 139.88 112.734C141.283 112.929 142.544 113.031 142.679 112.962C142.814 112.896 142.926 112.346 142.926 111.743ZM126.612 110.96C123.671 108.395 123.665 108.392 118.068 107.809C115.17 107.506 112.467 107.187 112.059 107.101C111.387 106.956 111.318 107.065 111.318 108.263C111.318 109.297 111.443 109.59 111.894 109.603C112.21 109.613 115.285 109.969 118.726 110.39C125.785 111.259 127.059 111.352 126.612 110.96ZM90.1376 108.188C89.5187 107.055 88.9227 105.659 88.8174 105.079C88.6132 103.963 89.3672 100.536 89.9829 99.7951C90.2002 99.535 90.2265 99.2452 90.052 99.0872C89.7656 98.837 38.8247 88.1859 37.8995 88.1859C37.59 88.1859 37.6624 88.4131 38.13 88.9267C39.9112 90.8692 40.5005 93.2266 41.35 101.767C41.4718 102.989 41.6694 103.996 41.7912 104.003C41.913 104.009 52.6036 105.402 65.5529 107.098C78.5021 108.793 89.5812 110.196 90.1804 110.212L91.267 110.245L90.1376 108.188ZM116.257 103.66C116.257 102.719 116.118 102.343 115.769 102.343C115.503 102.343 112.602 102.037 109.326 101.665C106.05 101.293 103.248 101.033 103.097 101.089C102.945 101.145 103.038 101.721 103.298 102.373L103.772 103.552L109.438 104.217C112.556 104.582 115.364 104.905 115.681 104.931C116.141 104.968 116.257 104.714 116.257 103.66ZM129.496 100.78C129.413 99.7391 129.328 98.8666 129.305 98.8436C129.282 98.8205 128.409 98.7349 127.369 98.6526C125.509 98.5045 125.476 98.5176 125.476 99.3638C125.476 101.046 127.016 102.673 128.61 102.673H129.644L129.496 100.78ZM142.596 101.527C142.596 100.164 142.899 100.263 136.42 99.5613C129.825 98.8469 130.085 98.8205 130.085 100.203C130.085 100.836 130.197 101.366 130.332 101.375C130.467 101.385 132.801 101.662 135.518 101.994C142.847 102.883 142.596 102.9 142.596 101.527ZM124.103 100.035C124.524 99.6864 124.817 99.1366 124.758 98.8172C124.659 98.3135 123.76 98.1357 118.229 97.5101C114.699 97.1084 111.628 96.7759 111.4 96.766C111.14 96.7529 110.989 97.2072 110.989 98.0007V99.2551L116.998 99.9334C120.303 100.305 123.082 100.625 123.171 100.641C123.26 100.661 123.681 100.388 124.103 100.035ZM130.246 97.6517C130.632 96.5389 135.682 57.3553 135.676 55.5444C135.666 52.6273 134.885 51.0535 132.778 49.7036C130.553 48.2747 125.798 46.6087 121.426 45.7263C118.091 45.0514 117.748 45.0382 115.829 45.5057C112.214 46.3848 108.641 46.7668 103.607 46.8161L98.6849 46.8655L98.3787 48.0179C97.865 49.9604 98.3293 54.7806 99.1985 56.5124C100.641 59.3835 100.525 59.3538 111.206 59.5415C120.418 59.7028 120.606 59.7193 121.189 60.437C121.729 61.1054 121.795 62.2841 121.94 74.1008C122.058 83.5139 122.249 88.153 122.647 91.1491C123.421 96.9537 123.494 97.1677 124.837 97.6319C126.391 98.1719 130.065 98.1851 130.246 97.6517ZM139.798 94.4416C139.91 94.2572 138.899 92.5912 137.552 90.7375C136.206 88.8806 134.622 86.5759 134.036 85.6178C133.45 84.6564 132.92 83.9254 132.854 83.988C132.791 84.0539 132.706 84.5543 132.663 85.1041C132.584 86.1281 134.78 89.6313 137.74 93.2069C139.06 94.8004 139.436 95.0276 139.798 94.4416ZM143.255 91.3499C143.255 90.2074 142.84 89.8321 141.582 89.8321C140.884 89.8321 140.858 89.9408 141.154 91.4388C141.329 92.3048 141.513 92.4661 142.307 92.4661C143.166 92.4661 143.255 92.3607 143.255 91.3499ZM135.478 91.396C134.566 89.8486 133.542 88.8444 132.88 88.8444C132.291 88.8444 132.1 89.0683 131.972 89.9144C131.883 90.5038 131.873 91.0536 131.949 91.1359C132.024 91.2182 132.785 91.3829 133.638 91.5047C134.49 91.6232 135.307 91.7384 135.455 91.7648C135.6 91.7878 135.613 91.6232 135.478 91.396ZM121.791 88.93C121.676 87.5537 121.841 87.613 116.481 87.0467L114.238 86.8129L114.341 88.0739L114.446 89.3382L117.574 89.7037C119.296 89.9045 120.968 90.0889 121.297 90.1153C121.791 90.1548 121.877 89.9506 121.791 88.93ZM133.048 87.8764C133.048 87.7052 132.9 87.4747 132.719 87.3628C132.538 87.2508 132.39 87.3891 132.39 87.6723C132.39 87.9554 132.538 88.1859 132.719 88.1859C132.9 88.1859 133.048 88.0476 133.048 87.8764ZM121.518 83.988C121.518 83.4908 121.406 82.9245 121.271 82.7336C121.139 82.5426 117.251 81.9763 112.635 81.4726C108.019 80.9721 104.019 80.5375 103.745 80.5046C103.4 80.4651 103.222 80.8174 103.149 81.6833C103.067 82.6875 103.159 82.9213 103.643 82.941C103.973 82.9542 107.723 83.3822 111.977 83.8925C122.091 85.1041 121.525 85.1009 121.518 83.988ZM138.105 80.0371C138.221 79.1777 138.352 78.1933 138.399 77.8542C138.458 77.4064 138.099 77.0705 137.101 76.6425L135.722 76.0466L135.043 77.1957C134.369 78.3381 134.369 78.3414 135.017 79.6123C135.567 80.689 136.578 81.4298 137.694 81.5746C137.806 81.5878 137.99 80.8964 138.105 80.0371ZM121.195 78.4896C121.195 77.1232 122.209 77.3504 110.143 76.0071C98.7672 74.7428 99.4652 74.7329 99.4652 76.1684C99.4652 76.8598 99.6298 77.3307 99.8767 77.3438C100.104 77.357 104.437 77.8607 109.507 78.46C114.578 79.0592 119.282 79.5695 119.961 79.5893C121.156 79.6255 121.195 79.5893 121.195 78.4896ZM134.497 76.8368C134.839 76.1783 134.892 75.747 134.665 75.477C134.438 75.2004 134.698 73.8209 135.504 71.0256C136.143 68.7933 136.67 66.7816 136.67 66.5479C136.67 66.3174 136.331 66.1264 135.916 66.1264C135.188 66.1264 135.136 66.324 134.428 71.6413C133.489 78.7234 133.489 78.776 134.497 76.8368ZM142.56 73.3007C150.479 62.1162 154.686 53.4142 155.029 47.501C155.193 44.6859 154.857 43.5204 153.541 42.3285C152.922 41.7688 152.276 41.7919 137.819 42.9047C129.525 43.5434 122.391 44.0669 121.959 44.0669C121.426 44.0669 121.077 43.8003 120.86 43.2241C120.593 42.5228 120.359 42.3977 119.49 42.4833C118.667 42.5623 118.39 42.7763 118.203 43.4809C117.982 44.3172 118.048 44.3929 119.167 44.5806C122.483 45.137 128.376 46.803 130.503 47.7874C133.519 49.1801 135.155 50.6091 135.867 52.4693L136.423 53.9246L138.283 53.7303C139.663 53.5887 140.246 53.6546 140.525 53.9937C140.822 54.3493 140.249 56.7462 137.951 64.7732C136.324 70.4527 135.037 75.128 135.09 75.1675C135.3 75.3223 139.482 76.9619 139.706 76.9751C139.837 76.9849 141.121 75.3321 142.56 73.3007ZM121.195 73.3599C121.195 72.8101 121.011 72.2965 120.784 72.2208C120.323 72.0627 96.9892 69.4123 96.0904 69.4156C95.6525 69.4189 95.5142 69.6954 95.5142 70.5712C95.5142 71.4437 95.6558 71.7269 96.0904 71.7401C96.4065 71.7466 101.48 72.3228 107.367 73.0175C113.254 73.7122 118.772 74.2983 119.631 74.3181C121.162 74.3576 121.195 74.3345 121.195 73.3599ZM137.289 64.7271C137.437 64.3189 137.661 63.5781 137.78 63.0809C137.987 62.2281 137.934 62.1755 136.881 62.1755C135.893 62.1755 135.741 62.294 135.557 63.2027C135.182 65.086 135.287 65.4679 136.183 65.4679C136.746 65.4679 137.105 65.2276 137.289 64.7271ZM139.505 56.9898C139.804 55.9494 140.12 54.9123 140.206 54.6851C140.374 54.2406 138.448 54.1155 137.082 54.481C136.42 54.6588 136.341 54.886 136.341 56.5947C136.341 58.6558 136.239 58.5505 138.553 58.8336C138.777 58.86 139.199 58.0434 139.505 56.9898ZM129.097 41.7622C129.729 41.5811 130.902 40.9161 131.695 40.2806C132.93 39.2962 133.391 39.1283 134.849 39.1283C135.791 39.1283 136.663 39.0262 136.788 38.9011C137.035 38.6508 133.292 37.1495 132.433 37.1561C132.136 37.1594 131.228 37.6895 130.414 38.3414C129.117 39.3752 128.768 39.497 127.616 39.339C125.298 39.0229 120.438 37.4985 118.255 36.4021C116.435 35.4901 116.069 35.151 115.621 33.969C115.338 33.215 115.015 32.5071 114.904 32.3985C114.703 32.1943 109.05 34.0612 108.608 34.476C108.223 34.8415 109.563 37.2384 110.976 38.7068C112.487 40.2806 114.94 41.3079 118.173 41.726C121.288 42.1277 127.731 42.1474 129.097 41.7622ZM133.094 41.8873C133.924 41.7491 134.405 41.4462 134.652 40.9029C134.994 40.1522 134.955 40.116 133.825 40.116C132.979 40.116 132.321 40.3991 131.517 41.1037C130.47 42.0223 130.444 42.0915 131.145 42.0882C131.557 42.0849 132.436 41.996 133.094 41.8873ZM129.594 38.1372C130.177 37.4952 130.171 37.4491 129.397 36.6161C128.962 36.142 128.044 35.3979 127.356 34.96C126.671 34.5254 125.541 33.6529 124.843 33.024L123.579 31.8783L123.092 32.6224C122.825 33.0306 122.209 34.1468 121.729 35.1016L120.85 36.8334L121.725 37.1659C123.28 37.7586 127.263 38.7595 128.142 38.7793C128.61 38.7891 129.265 38.5027 129.594 38.1372ZM137.322 36.0827C137.325 35.9477 137.197 35.8358 137.032 35.8358C136.871 35.8358 135.6 34.7756 134.211 33.4751L131.685 31.1177L130.019 32.7837L128.353 34.4497L129.446 35.8127C130.2 36.7511 130.701 37.1067 131.053 36.9552C132.235 36.4548 132.979 36.4811 134.533 37.0771C136.176 37.7092 136.176 37.7092 136.746 37.0178C137.058 36.6392 137.319 36.2177 137.322 36.0827ZM106.432 30.3506C105.889 28.7504 105.197 26.291 104.891 24.8884C104.588 23.4858 104.223 22.4092 104.081 22.498C103.617 22.7845 105.727 31.0058 106.771 32.9845C107.519 34.397 107.344 33.0471 106.432 30.3506ZM150.59 31.8058C151.796 30.4131 150.462 29.7349 149 30.9926C148.375 31.5293 148.154 31.9606 148.302 32.3491C148.575 33.0635 149.748 32.7837 150.59 31.8058ZM114.785 27.3577C114.657 25.774 114.403 24.3287 114.222 24.1476C113.903 23.8282 114.173 29.4254 114.505 29.9917C114.917 30.6963 114.996 29.9621 114.785 27.3577ZM118.716 18.1783C119.154 18.0104 119.062 17.8557 118.249 17.3618C117.672 17.0095 117.244 16.4728 117.244 16.0975C117.244 15.7386 116.912 15.2744 116.504 15.0637C114.666 14.1154 114.275 13.4504 114.489 11.6329C114.65 10.2534 114.591 9.88793 114.166 9.7266C113.501 9.46979 113.488 9.49613 112.816 12.5614C112.329 14.7904 112.118 15.2184 111.255 15.7419L110.258 16.3477L111.107 16.9042C112.921 18.0927 117.113 18.794 118.716 18.1783ZM121.396 11.0337C121.416 11.0041 121.521 9.89122 121.627 8.56765L121.821 6.15428L120.652 5.667C118.884 4.92949 118.499 5.15337 118.025 7.19141C117.36 10.0361 117.429 10.4509 118.644 10.9876C119.48 11.3564 121.159 11.386 121.396 11.0337ZM116.915 6.91813C116.915 5.82174 116.695 5.52542 116.059 5.76906C115.486 5.98636 115.45 7.40541 116.01 7.63259C116.79 7.94538 116.915 7.8466 116.915 6.91813ZM51.7245 156.422C51.7245 155.938 77.6032 130.306 77.8436 130.55C78.0872 130.79 52.4555 156.669 51.9715 156.669C51.8365 156.669 51.7245 156.557 51.7245 156.422ZM57.8781 139.647C57.6312 139.249 78.1992 118.687 78.6832 118.849C78.8873 118.914 74.3338 123.692 68.5589 129.463C62.7872 135.232 57.9802 139.815 57.8781 139.647ZM62.7707 81.5187C62.6983 81.2915 62.5073 80.6626 62.3427 80.1194C61.9377 78.776 60.9895 78.7036 59.8108 79.9317L58.8626 80.926L57.5983 80.2149C56.2484 79.4543 56.143 79.181 56.6731 77.7916C56.9398 77.087 56.897 76.7742 56.4788 76.3133C55.9981 75.7799 55.8236 75.7667 54.6548 76.1816L53.3642 76.6359L52.4917 75.319L51.6192 74.002L52.6892 72.899C54.0589 71.4865 53.7296 70.6009 51.7179 70.2782L50.3713 70.0642L50.4734 68.5332C50.5689 67.0582 50.6183 66.9923 51.8892 66.64C53.6309 66.1528 53.8251 65.1486 52.4028 63.9534L51.3887 63.1006L52.1097 61.8133C52.8901 60.4272 53.0119 60.3778 54.5824 60.8289C55.4252 61.0692 55.7314 61.0132 56.1661 60.5358C56.65 59.9959 56.6533 59.8279 56.2023 58.748L55.7051 57.5561L57.0188 56.6869L58.3358 55.8144L59.4388 56.8845C60.8512 58.2541 61.7369 57.9249 62.0596 55.9132L62.2736 54.5666L63.8046 54.6687C65.2796 54.7641 65.3454 54.8135 65.6977 56.0844C66.1883 57.8459 67.367 58.0632 68.4535 56.5915L69.1976 55.5873L70.5014 56.2556C71.8974 56.9668 71.9731 57.1578 71.5089 58.7776C71.2686 59.6139 71.3245 59.9267 71.7855 60.3449C72.3156 60.8223 72.4736 60.8223 73.6161 60.3449C74.9792 59.7753 74.9462 59.7555 75.9636 61.6355C76.4542 62.5442 76.4377 62.6167 75.4928 63.611C74.1692 65.0037 74.4952 65.9453 76.4081 66.2515L77.7712 66.4688L77.6691 67.9998C77.5736 69.4748 77.5242 69.5407 76.2533 69.893C74.5643 70.3638 74.3898 71.2363 75.7298 72.5171L76.7143 73.462L76.0657 74.7329C75.3808 76.0762 75.0285 76.2112 73.5963 75.6647C72.8917 75.398 72.579 75.4408 72.118 75.8589C71.5781 76.3429 71.5682 76.5075 72.0028 77.729C72.2629 78.4665 72.4341 79.0954 72.388 79.125C72.3419 79.158 71.7361 79.5234 71.0447 79.9383L69.787 80.6955L68.74 79.7243C67.5152 78.5851 66.6229 78.6509 66.3463 79.8955C65.892 81.9467 65.9051 81.9302 64.3676 81.9302C63.4786 81.9302 62.8464 81.7689 62.7707 81.5187ZM65.7372 79.8955C65.9842 78.8024 66.2377 78.4534 66.9818 78.213C67.7917 77.9463 68.0518 78.0385 68.9573 78.9143C69.9911 79.9119 70.0043 79.9152 70.8043 79.3094C71.555 78.7431 71.5846 78.618 71.2225 77.436C70.8636 76.2738 70.8965 76.1092 71.6143 75.3914C72.3353 74.6704 72.4835 74.6407 73.6358 75.0226C74.7454 75.3881 74.9298 75.3651 75.3216 74.8317C75.9439 73.9822 75.8714 73.5904 74.9364 72.7113C73.5173 71.3779 74.0145 69.6329 75.9142 69.2773C76.9612 69.0798 77.0765 68.9546 77.0765 67.9867C77.0765 66.9923 76.9711 66.887 75.6969 66.6005C74.5511 66.3437 74.2713 66.1231 74.0573 65.3099C73.84 64.4802 73.9519 64.174 74.7948 63.3048C75.7694 62.2973 75.7759 62.2709 75.1833 61.5367C74.6335 60.8585 74.4622 60.8223 73.2803 61.1482C72.1081 61.4709 71.904 61.4347 71.2389 60.7696C70.5804 60.1111 70.5376 59.8938 70.8504 58.7678C71.15 57.6846 71.1138 57.4442 70.5969 57.0524C69.731 56.3972 69.405 56.4663 68.3844 57.5298C67.6567 58.2904 67.3011 58.4352 66.6196 58.2541C65.6944 58.0072 65.3652 57.5627 65.0722 56.1667C64.9141 55.4226 64.7067 55.2613 63.8902 55.2613C63.3436 55.2613 62.8497 55.4457 62.7905 55.6729C62.2703 57.6286 62.0233 58.0303 61.1607 58.3167C60.3508 58.5867 60.0907 58.4978 59.1852 57.6187C58.1613 56.631 58.1317 56.6211 57.3612 57.2039C56.6336 57.757 56.6072 57.8821 56.9859 59.0246C57.3546 60.1473 57.325 60.3185 56.6369 61.0527C56.222 61.4906 55.6524 61.7837 55.3693 61.7014C53.3642 61.1087 53.1699 61.135 52.7584 62.0405C52.3929 62.8471 52.4423 63.0216 53.272 63.8941C54.7075 65.3922 54.2367 66.8771 52.2052 67.259C51.2076 67.4467 51.066 67.5948 51.066 68.4575C51.066 68.9974 51.2504 69.488 51.4776 69.5473C53.4333 70.0675 53.835 70.3144 54.1214 71.177C54.3914 71.987 54.3025 72.2471 53.4234 73.1525C52.4258 74.1864 52.4225 74.1995 53.0283 74.9996C53.5946 75.7503 53.723 75.7766 54.8919 75.421C56.0245 75.072 56.222 75.105 56.9167 75.7569C57.4205 76.231 57.6246 76.7084 57.5061 77.1463C57.4073 77.515 57.2427 78.1208 57.1373 78.4929C56.9958 79.0065 57.1637 79.2699 57.8419 79.5761C58.6519 79.9449 58.8264 79.8988 59.6989 79.0658C61.1969 77.6303 62.6818 78.1011 63.0638 80.1325C63.2547 81.1565 63.3864 81.2717 64.3511 81.2717C65.3454 81.2717 65.4508 81.1664 65.7372 79.8955ZM17.0319 78.3809C16.8574 78.0945 20.5021 72.0002 22.9386 68.5036C26.5636 63.3015 30.1688 59.0378 35.2622 53.9279C42.6505 46.5198 48.1325 42.21 56.8278 36.975C62.4645 33.5805 71.6801 29.1455 71.4101 29.9522C71.3443 30.153 69.5927 31.0947 67.5152 32.0495C59.8898 35.5526 51.4348 40.7909 44.4943 46.3091C40.4512 49.5225 31.1664 58.8073 27.9694 62.834C24.947 66.6367 21.0816 72.2537 18.9646 75.9215C17.3249 78.7563 17.292 78.7991 17.0319 78.3809ZM29.214 75.7437C28.9934 75.3881 33.4876 68.6583 36.1611 65.3395C49.7062 48.5216 68.1901 36.7741 89.0939 31.6972C92.6597 30.8313 93.5256 30.7226 93.0284 31.1967C92.8572 31.3613 91.1484 31.8717 89.2289 32.3293C75.8648 35.523 62.6752 41.9762 51.6521 50.7111C47.5892 53.9311 40.1943 61.27 37.1159 65.1387C35.8944 66.6763 33.6555 69.7613 32.1443 71.9903C30.6363 74.2193 29.3161 75.9083 29.214 75.7437ZM182.241 57.3388C181.493 54.9782 180.94 54.7082 179.808 56.1503L179.11 57.0392L177.974 56.4268C176.716 55.7519 176.693 55.6893 177.18 54.402C177.687 53.0685 177.009 52.4858 175.541 52.9994C174.54 53.3484 174.388 53.3122 173.839 52.5944C173.058 51.577 173.065 51.2182 173.888 50.4741C174.862 49.5917 174.586 48.6632 173.216 48.2253C172.205 47.8994 172.051 47.7018 171.962 46.6351C171.866 45.4662 171.912 45.407 173.197 45.0613C174.774 44.6365 174.981 43.7772 173.71 42.9442C172.719 42.2956 172.712 42.2166 173.536 40.87C174.138 39.8756 174.244 39.8328 175.208 40.172C176.68 40.6823 177.325 40.0139 176.805 38.5191C176.601 37.9298 176.486 37.4096 176.552 37.3668C178.431 36.0729 178.507 36.063 179.452 36.9684C180.575 38.045 181.312 37.8113 181.599 36.2902C181.806 35.1773 181.856 35.1444 183.176 35.2432C184.404 35.332 184.565 35.4473 184.812 36.412C185.148 37.7191 185.958 37.8146 187.031 36.6721C187.815 35.8391 188.075 35.8621 189.451 36.8927C189.949 37.2647 189.988 37.4886 189.692 38.2722C189.079 39.8822 189.991 40.4024 192.039 39.6188C192.313 39.5135 192.731 39.8987 193.113 40.6099L193.741 41.7754L192.843 42.7137C192.01 43.5797 191.983 43.6916 192.48 44.1888C192.777 44.4851 193.379 44.7254 193.817 44.7254C194.624 44.7254 194.66 44.8473 194.611 47.2771C194.611 47.4121 194.127 47.6854 193.541 47.8829C192.201 48.334 192.062 48.9859 193.103 49.9604C193.89 50.7045 193.899 50.7539 193.383 51.8404C192.816 53.0257 192.51 53.141 191.206 52.6438C190.011 52.1894 189.488 52.9204 189.981 54.3394C190.317 55.2975 190.278 55.4687 189.606 55.9856C188.622 56.7429 187.937 56.7264 187.209 55.9198C186.261 54.8695 185.507 55.0835 185.174 56.496C184.908 57.622 184.776 57.7405 183.657 57.8327C182.705 57.9117 182.386 57.7998 182.241 57.3388ZM184.539 56.7166C184.651 56.4301 184.74 55.9264 184.74 55.6004C184.74 54.4547 186.478 54.267 187.568 55.2909C188.161 55.8441 188.427 55.9066 188.971 55.6169C189.547 55.3074 189.596 55.1197 189.306 54.2966C189.043 53.5361 189.089 53.1541 189.54 52.4693C189.876 51.9524 190.298 51.6791 190.581 51.7878C192.115 52.3771 192.582 52.3442 192.806 51.6396C192.964 51.1424 192.823 50.7012 192.342 50.1909C191.101 48.8706 191.522 47.6788 193.383 47.2343C194.821 46.8886 194.505 45.7165 192.823 45.1633C191.45 44.7156 191.134 43.3755 192.171 42.401C192.793 41.8149 192.879 41.5449 192.606 41.0346C192.326 40.5111 192.039 40.4321 191.038 40.6033C190.06 40.7679 189.692 40.6757 189.214 40.1489C188.72 39.6024 188.678 39.3159 188.964 38.4862C189.267 37.617 189.227 37.4392 188.638 37.1264C188.085 36.8268 187.812 36.9058 187.094 37.5676C185.912 38.6574 184.71 38.3611 184.285 36.8762C184.025 35.9774 183.838 35.8193 183.127 35.9016C182.475 35.9774 182.234 36.2276 182.106 36.9618C181.987 37.6598 181.678 38.0088 180.977 38.2426C180.14 38.5224 179.916 38.4533 179.301 37.7355C178.629 36.9552 178.191 36.9355 177.25 37.6434C177.203 37.6763 177.329 38.18 177.533 38.7595C177.842 39.6518 177.809 39.9184 177.302 40.4782C176.825 41.005 176.456 41.0971 175.485 40.9325C174.51 40.7679 174.194 40.8469 173.924 41.3276C173.657 41.8017 173.759 42.1079 174.408 42.7862C175.511 43.9451 175.231 45.1831 173.766 45.6045C172.959 45.835 172.722 46.0852 172.722 46.7108C172.722 47.3495 172.926 47.5537 173.7 47.6886C174.309 47.7907 174.836 48.1661 175.086 48.6731C175.449 49.3974 175.399 49.5917 174.655 50.3687C173.937 51.1161 173.871 51.3466 174.201 51.9623C174.411 52.3541 174.757 52.6142 174.971 52.5319C176.469 51.9721 176.746 51.9952 177.447 52.7393C178.066 53.3978 178.125 53.6546 177.826 54.4349C177.635 54.9386 177.519 55.3864 177.569 55.4259C177.618 55.4687 177.984 55.6696 178.376 55.8737C178.991 56.1931 179.179 56.1239 179.722 55.3798C180.275 54.6193 180.47 54.5501 181.306 54.83C181.971 55.0506 182.353 55.4654 182.56 56.1931C182.781 56.9668 183.051 57.2368 183.601 57.2368C184.006 57.2368 184.43 57.003 184.539 56.7166ZM210.039 57.1676L208.502 56.8483L208.281 54.9419C208.097 53.3352 207.932 52.9763 207.237 52.6603C206.516 52.3343 206.236 52.4133 205.058 53.2792C204.314 53.8258 203.589 54.2736 203.444 54.2736C203.299 54.2736 202.592 53.7402 201.871 53.0916L200.563 51.9096L201.383 50.2897C202.164 48.7521 202.177 48.6336 201.657 47.8401C201.146 47.0631 200.988 47.0203 199.243 47.2178L197.376 47.4318L196.961 46.0424C196.734 45.2819 196.468 44.4555 196.372 44.2085C196.267 43.9287 196.771 43.415 197.715 42.8454C198.996 42.0717 199.227 41.7754 199.227 40.8996C199.227 39.9744 199.055 39.7933 197.58 39.1612C195.832 38.4072 195.796 38.3216 196.204 36.0004L196.435 34.6834L198.381 34.5188C200.149 34.3707 200.356 34.2719 200.629 33.4488C200.879 32.6882 200.768 32.3227 199.925 31.1803C198.815 29.6657 198.865 29.3595 200.478 27.8252L201.456 26.8968L203.072 27.7166C204.636 28.5101 204.712 28.5167 205.466 27.9471C206.167 27.417 206.223 27.1832 206.052 25.5304L205.864 23.6965L207.379 23.1829C208.212 22.8997 209.074 22.666 209.295 22.666C209.519 22.666 210.098 23.3475 210.589 24.1805C211.409 25.5798 211.557 25.6819 212.489 25.4942C213.045 25.3855 213.516 25.2571 213.532 25.2143C214.326 23.1631 215.119 21.991 215.613 22.1326C215.926 22.2248 216.739 22.3993 217.417 22.5211C218.494 22.7121 218.652 22.8569 218.652 23.6504C218.652 25.4942 219.041 26.5379 219.867 26.9165C220.578 27.2392 220.865 27.1569 222.04 26.2943C222.784 25.7477 223.509 25.2999 223.653 25.2999C223.798 25.2999 224.506 25.8333 225.227 26.4819L226.534 27.6639L225.701 29.3069C224.924 30.8444 224.905 31.0058 225.385 31.7433C225.863 32.4709 226.054 32.517 227.812 32.3326L229.718 32.1351L230.136 33.5245C230.363 34.2916 230.624 35.1049 230.712 35.3353C230.805 35.5724 230.228 36.1585 229.372 36.6984C228.115 37.4952 227.871 37.8113 227.871 38.6772C227.871 39.5991 228.042 39.7802 229.55 40.4288L231.233 41.1498L231.005 42.6512C230.65 45.0185 230.614 45.0547 228.668 45.0547C227.091 45.0547 226.857 45.1469 226.442 45.9371C226.011 46.7602 226.054 46.9182 227.091 48.3636L228.2 49.9078L226.926 51.3433L225.652 52.7788L224.042 51.903C222.471 51.047 222.409 51.0404 221.648 51.6133C220.95 52.1401 220.884 52.3969 221.019 54.0497L221.174 55.8967L219.689 56.4005C217.589 57.1182 217.464 57.0787 216.476 55.3963C215.663 54.0069 215.508 53.8982 214.593 54.0826C213.411 54.3164 213.621 54.0958 212.788 56.0021C212.413 56.8614 211.985 57.5496 211.84 57.5265C211.692 57.5068 210.882 57.3454 210.039 57.1676ZM212.429 55.2613C212.818 54.3559 213.322 53.6151 213.549 53.6151C213.776 53.6151 214.402 53.5262 214.938 53.4208C215.831 53.2397 215.998 53.3583 216.805 54.7378C217.757 56.3577 217.964 56.4433 219.456 55.8046C220.381 55.4128 220.42 55.3074 220.341 53.5624C220.259 51.8174 220.305 51.6989 221.326 51.0535L222.399 50.3753L223.937 51.1556L225.477 51.9359L226.343 51.0272C226.821 50.53 227.209 49.9835 227.203 49.8123C227.199 49.6411 226.762 48.9266 226.228 48.2253L225.263 46.9511L225.915 45.6737C226.554 44.4258 226.607 44.3962 228.372 44.3962C229.682 44.3962 230.176 44.2711 230.176 43.9418C230.176 43.6949 230.265 43.0529 230.37 42.5162C230.554 41.5976 230.466 41.4988 228.888 40.8206C227.252 40.116 227.213 40.0666 227.213 38.7068C227.213 37.4228 227.325 37.2483 228.671 36.3955L230.13 35.4736L229.705 34.2554C229.28 33.0471 229.26 33.0372 227.456 33.0372C225.879 33.0372 225.543 32.922 224.941 32.1614C224.075 31.0683 224.078 30.7983 224.974 29.2048L225.698 27.9141L224.677 26.8935L223.657 25.8695L222.205 26.9132C220.796 27.924 220.723 27.9405 219.584 27.4631C218.497 27.0087 218.399 26.8474 218.251 25.3065C218.162 24.3879 218.004 23.5549 217.901 23.4529C217.799 23.3508 217.174 23.1434 216.509 22.9952L215.3 22.7219L214.629 24.3385C214.257 25.2308 213.769 25.9584 213.546 25.9584C213.322 25.9584 212.69 26.0473 212.143 26.156C211.231 26.3403 211.073 26.2284 210.26 24.839C209.275 23.1598 209.213 23.1335 207.665 23.7788C206.589 24.2299 206.575 24.2595 206.724 26.0309C206.868 27.766 206.836 27.845 205.785 28.5101L204.699 29.1982L203.108 28.3915L201.515 27.5849L200.712 28.5002C199.691 29.6591 199.701 29.804 200.87 31.3482L201.834 32.6224L201.182 33.8998C200.547 35.1444 200.484 35.1773 198.766 35.1773C197.057 35.1773 196.998 35.2069 196.797 36.2046C196.458 37.9068 196.53 38.0319 198.239 38.7661C199.842 39.4575 199.885 39.5102 199.885 40.8667C199.885 42.1507 199.773 42.3252 198.427 43.178L196.968 44.0999L197.393 45.3181C197.818 46.5264 197.837 46.5363 199.642 46.5363C201.219 46.5363 201.554 46.6515 202.157 47.4121C203.023 48.5085 203.02 48.7422 202.108 50.3325L201.367 51.6231L202.41 52.6668L203.454 53.7138L204.804 52.6438C206.128 51.5935 206.177 51.5836 207.382 52.061C208.538 52.522 208.617 52.6438 208.712 54.1452C208.837 56.0581 209.153 56.4993 210.526 56.6705C211.103 56.7429 211.606 56.8252 211.646 56.8549C211.685 56.8845 212.038 56.1667 212.429 55.2613ZM81.3698 26.0868C81.0011 24.8917 80.6982 23.7591 80.6982 23.5747C80.6982 23.252 84.9191 23.4858 85.2582 23.8249C85.4591 24.0257 82.6506 28.2631 82.3181 28.2631C82.1666 28.2631 81.7386 27.2853 81.3698 26.0868ZM84.0268 24.2167C83.8721 24.062 83.2301 23.9862 82.5979 24.0422L81.4488 24.1476L81.9197 25.7609L82.3938 27.3775L83.3486 25.9354C83.8721 25.1419 84.1783 24.3682 84.0268 24.2167ZM189.349 13.4668C189.349 12.9335 189.497 12.4067 189.679 12.2947C189.876 12.1729 190.008 12.5647 190.008 13.2627C190.008 13.908 189.86 14.4348 189.679 14.4348C189.497 14.4348 189.349 14.0002 189.349 13.4668ZM191.654 10.8131C191.654 10.632 192.098 10.4839 192.642 10.4839C193.185 10.4839 193.629 10.632 193.629 10.8131C193.629 10.9942 193.185 11.1424 192.642 11.1424C192.098 11.1424 191.654 10.9942 191.654 10.8131ZM186.057 10.4839C186.057 10.3028 186.491 10.1546 187.025 10.1546C187.558 10.1546 188.085 10.3028 188.197 10.4839C188.319 10.6814 187.927 10.8131 187.229 10.8131C186.584 10.8131 186.057 10.6649 186.057 10.4839ZM167.938 8.99238C166.22 7.16507 167.461 4.22819 169.953 4.22819C170.921 4.22819 171.363 4.4422 172.034 5.24227C172.505 5.7987 172.887 6.60206 172.887 7.02678C172.887 7.45151 172.505 8.25487 172.034 8.8113C170.908 10.1513 169.101 10.2303 167.938 8.99238ZM171.57 8.50839C172.93 7.1486 171.909 4.88669 169.937 4.88669C168.781 4.88669 167.619 5.98966 167.619 7.08934C167.619 8.14951 168.745 9.16688 169.924 9.16688C170.474 9.16688 171.205 8.87385 171.57 8.50839ZM189.679 8.03427C189.679 7.59309 189.827 7.13873 190.008 7.02678C190.199 6.90825 190.337 7.24409 190.337 7.83014C190.337 8.38328 190.189 8.83764 190.008 8.83764C189.827 8.83764 189.679 8.47546 189.679 8.03427ZM116.919 208.98C45.9858 199.718 50.3252 200.413 50.3252 198.319C50.3252 197.831 50.6018 197.17 50.9409 196.847C52.1657 195.688 83.4375 178.297 85.4294 177.668C89.7689 176.295 87.5234 176.062 157.248 185.122C192.922 189.758 222.554 193.666 223.097 193.805C224.46 194.16 225.191 195.655 224.546 196.771C224.035 197.65 193.412 215.146 190.433 216.259C188.513 216.977 185.174 217.589 183.423 217.543C182.791 217.527 152.862 213.675 116.919 208.98ZM189.567 215.864C191.825 215.094 222.511 197.989 223.732 196.817C224.266 196.304 224.309 196.073 223.989 195.378C223.782 194.924 223.275 194.473 222.86 194.378C222.448 194.282 192.997 190.413 157.412 185.781C87.4872 176.677 89.6899 176.904 85.4064 178.36C83.342 179.061 51.4381 196.903 50.9903 197.607C50.638 198.161 50.6808 198.612 51.1483 199.247C51.4941 199.718 62.1913 201.2 116.751 208.351C187.555 217.629 185.112 217.375 189.567 215.864ZM30.3696 183.829C28.3744 183.269 28.0188 183.094 28.0188 182.676C28.0188 182.512 28.6477 182.617 29.4181 182.91C30.2412 183.219 31.9072 183.453 33.458 183.47C35.8088 183.499 36.3389 183.384 38.2715 182.433C40.2799 181.445 42.5484 179.44 43.4177 177.889C43.6119 177.54 43.8819 177.359 44.0103 177.491C44.3231 177.803 42.667 180.18 41.3763 181.27C38.479 183.723 33.8366 184.8 30.3696 183.829ZM31.1467 180.414C24.6869 178.715 22.122 171.432 26.1355 166.171C27.7488 164.051 30.1556 162.925 33.0563 162.925C35.7726 162.925 37.4879 163.613 39.3054 165.434C40.9878 167.113 41.6364 168.663 41.7846 171.36C41.9295 173.971 41.3566 175.736 39.7433 177.642C37.9851 179.72 33.7312 181.092 31.1467 180.414ZM44.626 173.872C44.8071 173.052 44.5108 170.886 43.9576 168.933C43.8391 168.525 43.8885 168.193 44.063 168.193C44.2342 168.193 44.547 168.766 44.7577 169.467C45.245 171.093 45.2647 174.778 44.784 174.778C44.5667 174.778 44.5075 174.422 44.626 173.872ZM34.5214 101.514C35.2655 100.878 36.2105 99.8148 36.6187 99.1531C37.027 98.488 37.4221 98.1192 37.4912 98.3332C37.8106 99.2914 34.8507 102.673 33.695 102.673C33.3691 102.673 33.6819 102.235 34.5214 101.514ZM28.3876 101.306C25.7832 100.556 24.0679 98.3069 24.0679 95.6334C24.0679 89.381 32.5196 87.2936 35.2227 92.8776C36.4903 95.4951 35.9866 98.0567 33.8399 99.9433C33.1814 100.519 32.085 101.145 31.4035 101.336C29.968 101.734 29.8758 101.734 28.3876 101.306ZM36.8887 92.5681C36.4113 91.3038 34.7091 89.5852 33.1221 88.7621C31.3607 87.8501 28.5687 87.8468 26.7381 88.7489C25.9874 89.1209 25.2927 89.2921 25.1906 89.1275C24.8383 88.5546 27.9925 87.4747 29.9877 87.4846C32.2595 87.4945 33.7115 88.041 35.3873 89.5127C36.7801 90.7375 38.0707 92.9764 37.5637 93.2925C37.3826 93.4011 37.0797 93.0785 36.8887 92.5681ZM203.507 172.265C187.117 170.402 173.378 168.871 172.969 168.864C172.284 168.851 172.229 168.7 172.229 166.895V164.943L173.299 165.098C175.063 165.355 232.757 171.814 233.297 171.814C233.682 171.814 233.797 172.223 233.797 173.605C233.797 174.59 233.686 175.456 233.551 175.528C233.416 175.597 219.897 174.132 203.507 172.265ZM233.044 172.598C232.968 172.522 219.439 170.939 202.98 169.082L173.052 165.7L172.946 166.816C172.89 167.429 172.903 167.992 172.979 168.064C173.055 168.14 186.584 169.72 203.046 171.581L232.974 174.962L233.08 173.849C233.136 173.237 233.119 172.674 233.044 172.598ZM189.349 165.539C173.865 163.761 160.86 162.296 160.442 162.286C159.73 162.266 159.691 162.154 159.783 160.373C159.879 158.572 159.921 158.483 160.705 158.565C161.159 158.612 174.695 160.129 190.791 161.94C206.885 163.748 220.107 165.229 220.177 165.229C220.242 165.229 220.298 166.043 220.298 167.04V168.851L218.899 168.812C218.129 168.792 204.834 167.317 189.349 165.539ZM219.64 167.047C219.64 166.125 219.495 165.871 218.899 165.743C217.855 165.526 162.019 159.3 161.116 159.3C160.491 159.303 160.376 159.481 160.376 160.455C160.376 161.088 160.488 161.614 160.623 161.624C160.758 161.634 173.611 163.099 189.185 164.884C204.758 166.665 217.981 168.14 218.57 168.16C219.577 168.189 219.64 168.127 219.64 167.047ZM151.568 166.141L148.852 165.822V164.005V162.19L151.074 162.411C155.667 162.869 155.483 162.77 155.371 164.689C155.256 166.642 155.388 166.593 151.568 166.141ZM154.778 164.755C154.778 164.133 154.667 163.557 154.532 163.481C154.397 163.402 153.211 163.237 151.898 163.112L149.511 162.885V164.038C149.511 165.144 149.563 165.196 150.91 165.371C151.68 165.47 152.678 165.605 153.132 165.674C153.587 165.743 154.14 165.819 154.367 165.842C154.624 165.871 154.778 165.466 154.778 164.755ZM213.055 163.066C203.187 161.92 194.927 160.976 194.7 160.966C194.423 160.956 194.288 160.36 194.288 159.138C194.288 157.509 194.357 157.328 194.989 157.328C195.378 157.328 204.202 158.289 214.599 159.468C224.997 160.646 233.574 161.608 233.653 161.608C233.732 161.608 233.797 162.421 233.797 163.419V165.229L232.398 165.19C231.628 165.167 222.922 164.212 213.055 163.066ZM233.139 163.425C233.139 162.503 232.994 162.25 232.398 162.121C231.588 161.953 196.03 157.976 195.358 157.983C195.108 157.986 194.946 158.437 194.946 159.138C194.946 159.771 194.983 160.304 195.029 160.317C195.358 160.422 231.229 164.508 232.069 164.535C233.076 164.568 233.139 164.505 233.139 163.425ZM151.733 160.864L149.181 160.541V158.625V156.712L150.251 156.87C150.841 156.959 152.21 157.133 153.297 157.262L155.272 157.492L155.371 159.385C155.457 161.038 155.394 161.272 154.877 161.232C154.551 161.206 153.136 161.041 151.733 160.864ZM154.778 159.349C154.778 158.085 154.769 158.075 153.251 157.867C152.411 157.752 151.298 157.657 150.781 157.657C149.929 157.657 149.84 157.762 149.84 158.789C149.84 159.873 149.899 159.929 151.239 160.103C152.576 160.274 154.001 160.478 154.532 160.574C154.667 160.6 154.778 160.047 154.778 159.349ZM206.141 157.156C193.011 155.655 180.018 154.17 177.266 153.857L172.261 153.284L172.163 152.168C172.067 151.085 171.978 151.019 169.413 150.134C167.958 149.63 165.897 148.747 164.837 148.174C163.777 147.602 162.193 147.035 161.314 146.92C159.869 146.726 159.717 146.624 159.704 145.843C159.694 145.205 159.101 144.447 157.422 142.916C155.223 140.915 155.085 140.845 152.744 140.539C151.42 140.368 150.074 140.223 149.757 140.217C149.366 140.21 149.181 139.943 149.181 139.38V138.551L147.173 139.565C146.067 140.121 145.125 140.533 145.082 140.477C144.522 139.775 141.912 134.521 141.997 134.267C142.06 134.079 143.186 133.342 144.499 132.627L146.89 131.33L147.775 133.135C148.263 134.126 148.74 134.939 148.839 134.939C149.326 134.939 148.832 130.899 148.095 128.848C146.702 124.992 146.146 121.644 146.152 117.16C146.159 112.55 146.722 109.287 148.22 105.182C148.75 103.733 149.181 102.129 149.181 101.622C149.181 101.03 149.356 100.697 149.662 100.697C149.929 100.697 150.297 100.411 150.485 100.062C150.772 99.5284 150.706 99.4099 150.087 99.321C149.432 99.2288 149.336 98.9983 149.247 97.3258L149.148 95.4359L151.134 95.6433C152.517 95.7882 153.271 95.7256 153.62 95.4359C154.38 94.8037 154.222 94.4416 153.178 94.4416C152.661 94.4416 151.549 94.3461 150.709 94.2308L149.181 94.0234V92.2191V90.4116L152.062 90.6519C153.646 90.7803 155.055 90.9548 155.19 91.0372C155.325 91.1195 155.437 91.643 155.437 92.1994V93.2069L156.886 91.8734C158.901 90.0165 162.206 87.6196 164.162 86.5956L165.808 85.7363L163.668 85.4564C159.809 84.956 160.046 85.1107 160.046 83.076C160.046 82.085 160.158 81.275 160.293 81.2783C160.428 81.2816 163.681 81.6405 167.52 82.0784C172.917 82.6941 174.968 82.806 176.575 82.5723C181.276 81.894 187.232 82.5229 192.405 84.2448C195.032 85.1206 197.119 85.4433 207.952 86.6516L220.463 88.0443L220.565 89.6412C220.621 90.5202 220.545 91.3631 220.394 91.5146C220.242 91.666 216.344 91.3499 211.731 90.8166C207.115 90.2799 203.207 89.8387 203.046 89.8354C202.601 89.8288 203.836 91.1063 204.455 91.2973C204.748 91.3862 210.987 92.1303 218.323 92.9501C225.659 93.7699 232.214 94.5272 232.892 94.6358L234.127 94.8301V96.6113C234.127 97.9908 234.015 98.3925 233.623 98.3925C233.343 98.3925 227.904 97.7999 221.533 97.0755C215.162 96.3512 209.578 95.7585 209.124 95.7585H208.301L208.972 96.4335C209.555 97.013 210.787 97.2369 217.981 98.0666C222.564 98.5966 226.389 99.1037 226.482 99.1959C226.574 99.2881 226.65 100.072 226.65 100.938C226.65 102.232 226.541 102.525 226.027 102.597C225.682 102.646 222.402 102.337 218.734 101.912C215.067 101.487 212.067 101.237 212.067 101.349C212.067 101.464 212.252 101.8 212.479 102.097C212.778 102.488 213.934 102.755 216.677 103.068L220.463 103.496V105.307C220.463 107.364 220.796 107.236 216.594 106.808C214.737 106.62 214.372 106.666 214.372 107.078C214.372 107.351 214.537 107.674 214.737 107.799C214.938 107.921 219.347 108.517 224.532 109.119C229.718 109.722 233.998 110.222 234.044 110.229C234.291 110.275 234.077 113.867 233.827 113.867C233.663 113.867 229.498 113.413 224.572 112.86C219.646 112.306 215.554 111.915 215.482 111.99C215.406 112.066 215.435 112.366 215.547 112.659C215.794 113.304 215.88 113.317 225.566 114.374C229.82 114.838 233.488 115.28 233.715 115.355C234.163 115.503 234.308 118.661 233.88 118.908C233.745 118.987 230.001 118.631 225.566 118.118C215.788 116.985 215.607 116.978 215.752 117.736C215.831 118.147 216.351 118.394 217.585 118.605L219.311 118.898V120.709V122.52L217.335 122.316C215.521 122.125 215.36 122.161 215.36 122.757C215.36 123.162 215.636 123.458 216.101 123.557C216.815 123.702 225.803 124.742 226.307 124.735C226.442 124.732 226.554 125.545 226.554 126.543V128.354L225.484 128.337C224.895 128.328 222.155 128.061 219.396 127.741C214.5 127.178 214.372 127.178 214.178 127.784C214.072 128.123 214.033 128.449 214.095 128.502C214.158 128.558 215.541 128.733 217.171 128.891L220.134 129.177L220.233 131.07C220.305 132.46 220.216 132.96 219.903 132.95C219.666 132.944 217.957 132.753 216.101 132.522C212.782 132.114 212.067 132.219 212.067 133.121C212.067 133.345 215.824 133.882 222.192 134.57C227.759 135.169 232.648 135.736 233.057 135.831C233.712 135.979 233.797 136.203 233.797 137.774C233.797 139.245 233.699 139.548 233.221 139.545C232.905 139.542 227.535 138.952 221.289 138.238C211.379 137.099 209.871 136.993 209.456 137.411C209.193 137.672 209.068 137.974 209.176 138.083C209.285 138.192 214.869 138.9 221.586 139.654L233.797 141.03V142.933V144.839L232.234 144.635C231.374 144.526 225.076 143.805 218.241 143.038C206.625 141.731 205.775 141.675 205.308 142.192C204.847 142.702 204.946 142.762 206.618 142.933C207.613 143.035 208.581 143.216 208.765 143.328C209.2 143.598 209.209 146.36 208.775 146.627C208.594 146.739 206.701 146.65 204.564 146.429C200.982 146.061 200.61 146.074 199.78 146.62C199.283 146.943 198.92 147.253 198.97 147.305C199.062 147.394 219.271 149.755 219.959 149.755C220.15 149.755 220.298 150.538 220.298 151.566C220.298 153.304 220.265 153.377 219.426 153.377C218.945 153.377 212.624 152.705 205.38 151.882C193.504 150.538 192.023 150.43 190.367 150.802L188.526 151.213L189.843 151.46C190.567 151.595 199.977 152.682 210.75 153.87C221.523 155.062 230.673 156.109 231.081 156.195C231.74 156.336 231.822 156.551 231.822 158.157C231.822 159.915 231.799 159.961 230.917 159.922C230.419 159.902 219.271 158.658 206.141 157.156ZM231.164 158.052V156.804L209.68 154.364C190.436 152.181 187.647 151.934 182.929 152.01C179.462 152.063 176.845 151.934 175.274 151.632L172.887 151.174V151.944C172.887 152.369 172.999 152.725 173.134 152.738C173.269 152.748 186.047 154.21 201.531 155.987C217.016 157.765 230.014 159.24 230.423 159.263C231.068 159.296 231.164 159.142 231.164 158.052ZM219.64 151.566C219.64 150.934 219.604 150.407 219.558 150.397C219.512 150.39 214.586 149.824 208.61 149.139L197.745 147.895L195.605 148.909C193.626 149.844 193.541 149.926 194.453 150.018C194.996 150.074 200.33 150.69 206.305 151.385C212.281 152.079 217.727 152.665 218.405 152.682C219.604 152.718 219.64 152.685 219.64 151.566ZM188.964 147.934C190.09 147.618 190.963 147.309 190.9 147.246C190.735 147.078 164.58 144.125 164.445 144.256C164.238 144.464 169.199 146.775 170.638 147.144C173.206 147.799 181.885 148.724 184.427 148.616C185.793 148.556 187.835 148.25 188.964 147.934ZM193.988 146.156C195.806 145.343 196.395 145.458 183.1 143.977C177.22 143.321 172.291 142.716 172.153 142.63C172.015 142.544 171.899 141.813 171.899 141.01C171.899 139.466 171.379 139.081 170.582 140.042C170.072 140.658 169.137 140.681 168.646 140.092C168.445 139.848 168.185 138.959 168.07 138.116C167.952 137.273 167.794 136.585 167.718 136.585C167.639 136.585 167.102 136.944 166.526 137.385C165.95 137.826 165.048 138.35 164.524 138.547L163.569 138.91L164.689 139.749C165.304 140.21 166.368 140.878 167.056 141.234C167.741 141.586 168.208 142.024 168.1 142.205C167.882 142.554 166.513 141.823 163.997 140.019C161.884 138.501 158.693 135.084 157.129 132.667L155.793 130.596L153.969 130.547C152.964 130.517 152.145 130.573 152.145 130.668C152.145 130.764 152.375 131.172 152.658 131.574C153.017 132.088 153.504 132.305 154.304 132.305H155.437V134.244C155.437 136.075 155.523 136.289 156.991 138.03C157.844 139.048 159.5 140.655 160.672 141.606L162.799 143.331L177.473 145.024C185.543 145.952 192.243 146.732 192.359 146.752C192.474 146.775 193.208 146.505 193.988 146.156ZM161.034 145.988C161.034 145.909 160.886 145.751 160.705 145.639C160.524 145.527 160.376 145.593 160.376 145.784C160.376 145.975 160.524 146.133 160.705 146.133C160.886 146.133 161.034 146.067 161.034 145.988ZM208.446 144.987C208.446 143.743 208.297 143.661 205.647 143.404C204.557 143.298 204.086 143.463 202.918 144.349L201.502 145.425L203.411 145.633C204.458 145.751 205.538 145.893 205.812 145.952C206.085 146.008 206.786 146.074 207.376 146.094C208.386 146.13 208.446 146.067 208.446 144.987ZM198.239 143.828C199.052 143.285 199.648 142.831 199.556 142.818C199.464 142.801 197.268 142.535 194.673 142.225L189.955 141.662L189.369 142.874L188.786 144.089L191.618 144.405C196.319 144.928 196.622 144.902 198.239 143.828ZM233.274 142.89C233.29 142.284 233.225 141.741 233.126 141.678C233.027 141.619 227.423 140.948 220.67 140.19L208.396 138.811L207.464 139.92C206.556 141.004 206.549 141.033 207.244 141.132C209.743 141.494 232.401 144.072 232.777 144.036C233.067 144.01 233.254 143.582 233.274 142.89ZM186.36 142.528C185.728 141.741 184.918 141.142 184.312 141.007C183.449 140.819 183.183 140.934 182.458 141.817C181.994 142.383 181.355 142.844 181.042 142.844C180.611 142.841 179.663 141.813 179.317 140.967C179.301 140.931 178.665 141.043 177.898 141.214C176.604 141.507 175.63 141.395 173.299 140.684C172.663 140.49 172.558 140.579 172.558 141.32C172.558 141.794 172.67 142.192 172.805 142.202C172.94 142.212 175.942 142.564 179.472 142.986C188.335 144.042 187.614 144.089 186.36 142.528ZM189.784 140.184C192.671 133.046 194.081 124.584 193.376 118.585C193.169 116.804 192.816 114.562 192.592 113.6L192.191 111.852L189.478 110.558C185.29 108.56 180.318 107.312 176.469 107.295C172.41 107.276 172.133 107.394 170.477 109.87C167.349 114.549 165.222 120.021 164.185 126.049C163.53 129.842 163.112 137.724 163.55 137.994C164.106 138.337 166.065 137.135 168.199 135.14C170.856 132.654 173.631 128.466 177.668 120.864C179.423 117.558 180.963 114.855 181.089 114.855C181.217 114.855 181.579 117.93 181.892 121.687C182.544 129.51 183.087 133.009 184.236 136.766C185.105 139.604 187.459 143.631 188.125 143.42C188.345 143.348 189.092 141.892 189.784 140.184ZM182.722 140.151C184.006 138.136 184.009 138.113 183.535 136.776C182.787 134.666 181.842 128.598 181.299 122.408C181.026 119.286 180.753 116.682 180.69 116.623C180.628 116.56 180.18 117.36 179.696 118.397C177.282 123.583 177.799 138.481 180.506 141.744C181.105 142.465 181.375 142.274 182.722 140.151ZM201.202 141.688C201.426 141.415 201.482 141.181 201.324 141.165C201.166 141.145 199.556 140.961 197.745 140.753L194.453 140.371L194.351 138.761C194.295 137.876 194.367 137.036 194.515 136.898C194.663 136.756 197.077 136.904 199.885 137.227C204.468 137.754 205.048 137.764 205.568 137.313C205.884 137.036 206.082 136.743 205.999 136.664C205.798 136.463 192.54 134.932 192.378 135.09C192.158 135.311 190.278 140.918 190.393 141.017C190.531 141.135 198.407 142.077 199.763 142.136C200.33 142.162 200.978 141.962 201.202 141.688ZM184.74 140.233C184.74 140.068 184.648 139.693 184.536 139.4C184.355 138.923 184.289 138.929 183.907 139.453C183.584 139.891 183.574 140.098 183.864 140.282C184.388 140.615 184.74 140.595 184.74 140.233ZM203.586 139.466L204.587 138.396L201.166 138.004C199.286 137.79 197.116 137.533 196.346 137.434L194.946 137.257V138.534V139.812L197.663 140.128C202.325 140.671 202.473 140.655 203.586 139.466ZM154.242 139.795C153.218 138.08 152.247 137.244 151.275 137.244C150.222 137.244 149.84 137.688 149.84 138.903C149.84 139.515 150.251 139.657 152.968 139.989C153.511 140.055 154.074 140.131 154.222 140.157C154.367 140.184 154.377 140.022 154.242 139.795ZM171.208 138.719C172.887 137.201 174.905 134.07 176.341 130.761C177.226 128.713 177.556 127.399 177.773 125.019C177.928 123.323 178.02 121.887 177.977 121.832C177.934 121.779 177.207 123.037 176.357 124.63C174.402 128.308 171.675 132.407 169.809 134.488L168.35 136.104L168.676 137.991C169.064 140.233 169.417 140.335 171.208 138.719ZM233.468 137.744C233.468 136.822 233.323 136.565 232.727 136.437C232.319 136.348 227.838 135.824 222.768 135.275C217.697 134.725 213.091 134.198 212.535 134.109C211.672 133.968 211.448 134.079 211.066 134.853C210.819 135.354 210.609 135.907 210.599 136.085C210.589 136.358 229.244 138.722 232.398 138.847C233.409 138.886 233.468 138.827 233.468 137.744ZM163.161 128.765L163.405 126.378L161.972 126.372C159.931 126.365 159.658 126.099 159.78 124.205L159.882 122.592L162.104 122.704C163.974 122.796 164.327 122.73 164.327 122.283C164.327 121.624 163.036 121.11 161.377 121.11C159.839 121.11 159.437 120.403 160.422 119.418C160.981 118.855 161.393 118.76 162.638 118.888C163.474 118.977 164.366 119.105 164.613 119.175C164.909 119.257 165.423 118.411 166.134 116.666C166.727 115.217 167.734 113.143 168.376 112.056C169.111 110.818 169.43 109.962 169.239 109.765C169.068 109.59 168.228 109.412 167.369 109.37C166.51 109.327 165.696 109.284 165.561 109.274C165.117 109.244 165.301 108.171 165.858 107.555C166.529 106.815 168.195 106.772 169.832 107.457C171.014 107.951 171.05 107.944 171.797 107.045C172.357 106.373 172.538 105.781 172.485 104.813L172.41 103.496L174.378 103.489C175.518 103.489 176.729 103.272 177.266 102.979C178.142 102.498 177.776 102.426 169.858 101.553C159.852 100.45 160.05 100.49 160.033 99.591C160.023 98.9424 159.958 98.9654 159.19 99.8741C158.733 100.417 157.702 101.971 156.899 103.325C155.585 105.534 155.437 105.998 155.437 107.852C155.437 109.696 155.368 109.916 154.778 109.916C154.416 109.916 154.12 109.979 154.12 110.054C154.12 110.13 154.034 110.413 153.929 110.687C153.791 111.045 153.998 111.213 154.67 111.292C155.565 111.394 155.602 111.467 155.602 113.209V115.019L154.367 114.947C153.261 114.881 153.132 114.957 153.132 115.671C153.132 116.323 153.343 116.511 154.285 116.689C155.437 116.903 155.437 116.906 155.437 118.72V120.534L154.449 120.337C153.564 120.159 153.461 120.225 153.461 120.952C153.461 121.641 153.616 121.769 154.449 121.769H155.437V123.781C155.437 125.47 155.355 125.759 154.92 125.592C154.512 125.437 154.456 125.549 154.64 126.131C154.769 126.536 155.095 127.03 155.365 127.228C155.635 127.425 155.783 127.797 155.694 128.054C155.351 129.022 158.209 133.605 160.916 136.42L162.496 138.067L162.707 134.61C162.822 132.707 163.026 130.079 163.161 128.765ZM151.618 136.124C151.483 135.768 149.181 135.153 149.181 135.472C149.181 136.157 149.761 136.585 150.689 136.585C151.499 136.585 151.746 136.463 151.618 136.124ZM207.379 134.771C207.787 134.139 208.077 133.622 208.021 133.622C207.965 133.622 204.742 133.253 200.856 132.802C196.971 132.351 193.62 131.979 193.409 131.979C192.984 131.976 192.454 133.872 192.787 134.205C192.971 134.392 203.757 135.775 205.812 135.877C206.414 135.907 206.836 135.61 207.379 134.771ZM150.278 133.869C149.827 133.023 149.682 132.924 149.583 133.395C149.399 134.247 149.738 134.939 150.33 134.939C150.785 134.939 150.778 134.814 150.278 133.869ZM154.778 133.951C154.778 133.177 154.634 132.963 154.11 132.963C153.478 132.963 153.468 133.009 153.955 133.951C154.235 134.494 154.535 134.939 154.624 134.939C154.709 134.939 154.778 134.494 154.778 133.951ZM208.781 132.463C209.012 132.186 209.137 131.9 209.065 131.827C208.953 131.715 194.456 130 193.61 130C193.244 130 193.185 131.307 193.547 131.337C193.682 131.347 196.685 131.699 200.214 132.12C208.189 133.069 208.274 133.072 208.781 132.463ZM219.64 131.021V129.737L217.253 129.516C215.939 129.394 214.619 129.226 214.319 129.141C213.924 129.029 213.664 129.315 213.381 130.175C213.167 130.827 213.042 131.409 213.104 131.469C213.2 131.554 215.047 131.794 219.228 132.259C219.495 132.288 219.64 131.854 219.64 131.021ZM210.013 129.941C210.23 129.361 210.375 128.858 210.332 128.818C210.243 128.733 198.7 127.366 198.074 127.366C197.844 127.366 197.58 127.662 197.485 128.025C197.278 128.815 196.576 128.861 195.249 128.176C194.709 127.896 194.123 127.758 193.949 127.867C193.485 128.153 193.557 129.338 194.041 129.365C194.268 129.375 197.268 129.73 200.708 130.152C209.509 131.225 209.529 131.225 210.013 129.941ZM155.108 129.414C155.108 128.16 154.199 127.435 152.474 127.317C151.2 127.228 150.857 127.304 150.989 127.639C151.081 127.88 151.157 128.216 151.157 128.38C151.157 128.548 151.453 128.979 151.815 129.342C152.701 130.227 155.108 130.28 155.108 129.414ZM210.964 127.518C211.073 127.238 211.106 126.955 211.037 126.885C210.971 126.82 208.949 126.536 206.549 126.26C204.146 125.98 202.029 125.657 201.841 125.545C201.38 125.259 201.561 122.395 202.055 122.207C202.272 122.121 204.564 122.296 207.142 122.595C211.017 123.04 211.883 123.056 212.11 122.697C212.456 122.154 212.472 121.769 212.15 121.766C212.015 121.766 208.126 121.321 203.507 120.785C198.888 120.248 194.999 119.803 194.864 119.8C194.729 119.797 194.617 118.977 194.617 117.983C194.617 116.313 194.677 116.172 195.375 116.172C196.086 116.172 209.318 117.62 211.675 117.956C212.65 118.095 212.755 118.035 212.663 117.39C212.564 116.699 212.232 116.629 205.232 115.836C198.897 115.115 197.837 115.066 197.436 115.47C197.031 115.875 196.81 115.866 195.826 115.398C193.88 114.473 193.508 114.631 193.778 116.254C193.909 117.025 194.077 119.356 194.153 121.44L194.295 125.226L195.197 125.516C195.694 125.677 196.303 125.973 196.556 126.174C196.807 126.378 199.546 126.856 202.648 127.238C209.858 128.13 210.721 128.16 210.964 127.518ZM225.896 126.543C225.896 125.911 225.859 125.384 225.813 125.378C224.187 125.144 215.198 124.123 215.156 124.172C215.119 124.209 214.991 124.772 214.869 125.424L214.645 126.606L219.037 127.106C221.451 127.383 223.983 127.626 224.661 127.653C225.859 127.695 225.896 127.662 225.896 126.543ZM154.113 126.625C154.113 126.398 154.001 126.046 153.866 125.842C153.58 125.397 150.166 124.877 150.176 125.279C150.189 126.036 150.933 126.53 152.368 126.727C153.241 126.849 153.992 126.968 154.038 126.994C154.084 127.017 154.117 126.853 154.113 126.625ZM163.823 124.485C164.03 123.507 163.981 123.415 163.24 123.415C162.796 123.415 161.959 123.32 161.383 123.204C160.333 122.994 160.33 122.997 160.435 124.275C160.537 125.496 160.6 125.562 161.857 125.733C163.418 125.947 163.53 125.875 163.823 124.485ZM211.708 125.009C211.906 124.436 212.024 123.922 211.969 123.866C211.857 123.751 203.642 122.763 202.766 122.76C202.325 122.757 202.19 123.03 202.19 123.909C202.19 124.541 202.226 125.075 202.272 125.091C202.572 125.206 209.167 125.97 210.141 126.006C211.211 126.046 211.386 125.934 211.708 125.009ZM154.778 123.744C154.778 122.793 154.64 122.427 154.285 122.427C153.712 122.427 153.633 123.491 154.133 124.426C154.634 125.364 154.778 125.213 154.778 123.744ZM153.284 123.662C152.954 122.131 152.915 122.098 151.302 122.098C149.856 122.098 149.84 122.111 149.84 123.228C149.84 124.426 150.07 124.551 152.582 124.683C153.468 124.729 153.501 124.679 153.284 123.662ZM218.652 120.653C218.652 119.438 218.251 119.135 216.65 119.135C215.775 119.135 215.689 119.237 215.689 120.261C215.689 121.486 215.966 121.703 217.582 121.743C218.583 121.766 218.652 121.697 218.652 120.653ZM152.803 120.824C152.803 120.37 152.48 120.156 151.568 120.004C149.837 119.718 149.181 119.744 149.181 120.1C149.181 120.801 150.291 121.44 151.509 121.44C152.553 121.44 152.803 121.321 152.803 120.824ZM212.571 120.083C212.713 119.438 212.657 118.967 212.423 118.822C212.113 118.631 196.487 116.791 195.44 116.824C195.078 116.834 194.858 119.119 195.216 119.161C201.676 119.961 210.81 121.031 211.465 121.064C212.196 121.104 212.383 120.939 212.571 120.083ZM154.716 118.559C154.634 117.568 154.469 117.304 153.873 117.219C153.228 117.127 153.132 117.258 153.132 118.262C153.132 119.356 153.429 119.711 154.387 119.767C154.686 119.787 154.788 119.418 154.716 118.559ZM152.474 118.351C152.474 117.472 152.316 117.192 151.733 117.038C150.156 116.616 149.84 116.768 149.84 117.96C149.84 119.122 150.126 119.342 151.733 119.425C152.362 119.458 152.474 119.296 152.474 118.351ZM233.468 116.975C233.468 116.29 233.307 115.843 233.057 115.839C232.592 115.836 219.248 114.315 217.088 114.019L215.689 113.828V115.01C215.689 115.661 215.873 116.257 216.101 116.336C216.795 116.583 232.958 118.378 233.221 118.239C233.356 118.167 233.468 117.597 233.468 116.975ZM152.474 115.717C152.474 114.884 151.779 114.539 150.087 114.529C149.346 114.526 149.181 114.67 149.181 115.329C149.181 115.987 149.372 116.155 150.251 116.264C152.457 116.537 152.474 116.531 152.474 115.717ZM212.719 115.102C212.719 114.693 212.597 114.173 212.449 113.943C212.278 113.67 209.71 113.238 205.13 112.715C201.248 112.27 197.445 111.819 196.675 111.714C195.546 111.559 195.276 111.622 195.276 112.036C195.276 112.32 195.414 112.55 195.579 112.55C195.747 112.55 196.366 112.958 196.955 113.456C197.939 114.288 198.496 114.417 203.813 115.062C206.994 115.447 210.302 115.783 211.162 115.803C212.578 115.839 212.726 115.773 212.719 115.102ZM155.108 113.209C155.108 112.023 155.025 111.892 154.285 111.892C153.567 111.892 153.461 112.036 153.461 113.018C153.461 113.637 153.646 114.216 153.873 114.308C154.871 114.71 155.108 114.499 155.108 113.209ZM152.866 113.034C152.941 112.395 152.931 111.803 152.849 111.717C152.764 111.631 152.052 111.562 151.265 111.562C149.86 111.562 149.84 111.579 149.84 112.692C149.84 113.6 149.985 113.851 150.581 113.963C152.51 114.335 152.724 114.246 152.866 113.034ZM233.406 111.974L233.304 110.739L225.566 109.86C221.312 109.376 217.141 108.892 216.298 108.784L214.767 108.586L215.034 109.771C215.182 110.423 215.36 111.012 215.429 111.085C215.554 111.21 231.252 113.103 232.747 113.172C233.429 113.205 233.498 113.083 233.406 111.974ZM212.396 112.379C212.396 112.102 212.064 111.74 211.656 111.569C210.862 111.24 192.322 109.136 192.108 109.35C192.039 109.422 192.181 110.061 192.424 110.769C192.773 111.776 193.06 112.079 193.741 112.162C194.446 112.244 194.617 112.129 194.617 111.569C194.617 110.775 193.62 110.726 204.794 112.06C212.578 112.991 212.396 112.981 212.396 112.379ZM153.264 110.71C153.373 110.423 153.379 110.051 153.277 109.886C153.099 109.597 150.169 109.445 150.169 109.725C150.169 109.801 150.083 110.087 149.978 110.364C149.827 110.752 150.1 110.891 151.213 110.989C151.996 111.062 152.734 111.144 152.849 111.177C152.968 111.207 153.152 110.996 153.264 110.71ZM211.939 110.384C211.827 110.097 211.735 109.689 211.731 109.478C211.718 108.392 210.994 108.227 201.34 107.111C195.921 106.485 191.226 105.972 190.907 105.972C190.363 105.965 190.37 106.057 190.996 107.282C191.466 108.207 191.884 108.606 192.401 108.619C192.931 108.632 207.188 110.282 211.857 110.868C212.011 110.887 212.047 110.67 211.939 110.384ZM154.054 108.039C154.258 107.371 154.397 106.798 154.357 106.765C154.318 106.736 153.57 106.634 152.698 106.541C151.246 106.383 151.088 106.436 150.804 107.177C150.258 108.616 150.416 108.882 151.898 109.017C152.668 109.086 153.382 109.169 153.488 109.202C153.593 109.231 153.85 108.711 154.054 108.039ZM154.673 108.537C154.568 108.273 154.492 108.352 154.476 108.737C154.462 109.083 154.538 109.277 154.647 109.169C154.759 109.06 154.769 108.774 154.673 108.537ZM211.08 107.157C211.08 106.907 210.895 106.561 210.668 106.383C210.253 106.064 188.401 103.509 188.157 103.753C188.088 103.825 188.339 104.164 188.717 104.507C189.29 105.024 191.154 105.336 199.668 106.334C211.985 107.779 211.08 107.713 211.08 107.157ZM219.903 105.247L220.002 104.085L216.644 103.703C214.797 103.496 213.23 103.377 213.164 103.44C213.101 103.506 213.269 104.088 213.539 104.734C214.016 105.883 214.086 105.916 216.259 106.126C217.483 106.245 218.636 106.393 218.817 106.456C219.515 106.693 219.808 106.367 219.903 105.247ZM155.052 105.142C154.989 105.079 154.202 104.977 153.307 104.921C151.983 104.833 151.651 104.918 151.558 105.369C151.466 105.824 151.743 105.945 153.03 106.028C154.08 106.097 154.706 105.982 154.89 105.692C155.042 105.455 155.118 105.205 155.052 105.142ZM174.122 104.997C175.103 104.177 175.057 103.99 173.875 103.99C173.042 103.99 172.887 104.118 172.887 104.813C172.887 105.791 173.127 105.824 174.122 104.997ZM209.779 104.023C209.16 102.811 209.025 102.729 207.385 102.604C206.431 102.528 205.598 102.501 205.538 102.541C205.479 102.584 205.591 102.916 205.785 103.282C206.352 104.342 205.663 104.388 205.041 103.331C204.406 102.255 204.873 102.353 195.77 101.349C192.51 100.99 189.428 100.625 188.918 100.536C188.108 100.398 187.934 100.523 187.499 101.56C187.229 102.212 187.051 102.781 187.107 102.831C187.278 102.972 207.527 105.224 209.028 105.267L210.434 105.307L209.779 104.023ZM154.778 103.002C154.778 101.846 154.686 101.685 154.018 101.685C153.471 101.685 153.099 102.008 152.714 102.818C152.125 104.056 152.243 104.187 154.038 104.279C154.69 104.316 154.778 104.161 154.778 103.002ZM156.25 103.022C156.527 102.488 157.491 101.073 158.397 99.8774C159.306 98.679 160.046 97.4838 160.046 97.2237C160.046 96.9603 160.32 96.7463 160.656 96.7463C160.988 96.7463 161.544 96.4368 161.887 96.0549C162.947 94.886 167.659 91.9261 170.088 90.9087C172.192 90.0264 172.403 89.8519 172.495 88.9004C172.554 88.3275 172.736 87.8566 172.903 87.8566C173.417 87.8566 182.425 88.8147 185.412 89.1868C193.3 90.1712 198.193 90.6816 198.084 90.5137C198.018 90.4116 197.32 90 196.537 89.6016C195.358 89.0057 193.228 88.6732 184.266 87.6854C178.3 87.0269 172.92 86.5825 172.311 86.6977C170.319 87.073 166.026 89.0781 163.214 90.9483C160.412 92.8151 155.279 97.869 155.621 98.4254C155.901 98.8798 155.437 100.078 155.068 99.8511C154.719 99.6338 153.791 100.276 153.791 100.73C153.791 100.888 154.16 101.105 154.614 101.221C155.315 101.395 155.437 101.616 155.437 102.709C155.437 104.243 155.588 104.302 156.25 103.022ZM186.887 101.458L187.324 100.411L185.514 100.184C183.62 99.9465 183.304 100.075 182.955 101.237C182.774 101.84 182.926 101.991 183.989 102.281C185.843 102.781 186.399 102.623 186.887 101.458ZM182.392 101.01C182.652 100.259 182.643 99.9762 182.34 99.8807C182.122 99.8083 177.348 99.2354 171.735 98.6065C164.603 97.8064 161.403 97.5661 161.116 97.8032C160.889 97.9908 160.705 98.5374 160.705 99.0214V99.8972L169.512 100.918C174.355 101.478 179.156 101.955 180.18 101.975C181.971 102.014 182.053 101.978 182.392 101.01ZM208.469 101.402C208.146 100.796 206.622 100.378 204.702 100.371C203.869 100.368 203.81 100.431 204.195 100.898C204.817 101.649 205.756 101.968 207.389 101.994C208.663 102.011 208.768 101.955 208.469 101.402ZM226.225 100.862C226.225 100.23 226.189 99.6963 226.143 99.6799C225.84 99.5778 210.237 97.8427 210.161 97.9052C210.082 97.9678 211.356 100.299 211.524 100.398C211.669 100.487 224.249 101.938 225.155 101.975C226.166 102.011 226.225 101.952 226.225 100.862ZM203.836 101.405C203.836 100.658 202.44 100.095 199.727 99.7556C196.945 99.4066 196.734 99.423 196.115 100.042C195.608 100.546 195.569 100.701 195.944 100.717C196.211 100.727 197.91 100.931 199.721 101.171C203.988 101.738 203.836 101.731 203.836 101.405ZM195.055 99.9696C195.618 99.6799 195.621 99.6305 195.105 99.2518C194.67 98.9325 194.574 98.4419 194.667 96.9735L194.782 95.1H193.392C192.306 95.1 191.749 95.3239 190.824 96.1405C189.843 96.9998 188.362 99.2288 188.362 99.8445C188.362 100.012 190.475 100.197 192.971 100.249C193.784 100.266 194.723 100.141 195.055 99.9696ZM207.448 99.7918C207.445 99.6568 207.02 99.0378 206.51 98.4221C205.677 97.4212 205.334 97.2698 203.329 97.0294C202.094 96.878 201.047 96.7924 201.005 96.8352C200.962 96.878 201.466 97.5035 202.124 98.2213C203.072 99.2551 203.639 99.5745 204.814 99.7424C207.043 100.055 207.458 100.062 207.448 99.7918ZM188.76 97.7208C189.435 96.6442 190.472 95.4655 191.065 95.1033C192.424 94.2736 194.472 94.2539 195.786 95.0572C196.705 95.617 201.554 96.417 204.027 96.417C204.893 96.417 204.906 96.394 204.353 95.7816C203.803 95.1758 203.375 95.0638 199.806 94.6029C198.476 94.4317 198.275 94.4778 198.443 94.9157C198.703 95.5939 198.278 95.5676 197.492 94.8564C197.001 94.4119 195.19 94.0958 189.399 93.4439L181.938 92.6077L182.682 94.0761C183.196 95.0902 183.423 96.124 183.423 97.441C183.423 99.3341 183.426 99.3374 184.493 99.4724C187.41 99.8346 187.453 99.8148 188.76 97.7208ZM182.741 96.3709C182.59 95.5807 182.458 94.8366 182.448 94.7148C182.442 94.593 182.06 94.0465 181.602 93.4999C180.934 92.7064 180.414 92.4661 178.975 92.2883C176.657 91.9985 175.725 92.2488 175.248 93.2958C174.724 94.4448 174.754 94.6621 175.547 95.4556C176.351 96.259 176.189 96.6212 175.258 96.124C174.072 95.4886 174.01 93.6843 175.129 92.3838C175.587 91.8504 175.537 91.8076 174.444 91.8076C173.796 91.8076 173.032 91.5738 172.745 91.2907C172.14 90.6849 171.583 90.8166 168.771 92.2224C166.457 93.3814 164.208 94.8498 162.908 96.0516L161.982 96.9076L172.291 98.0698L182.6 99.2321L182.81 98.5176C182.922 98.1258 182.893 97.1578 182.741 96.3709ZM201.202 98.2279C200.586 97.5957 200.224 97.0624 200.396 97.0426C201.005 96.98 199.046 96.4829 198.058 96.45C197.126 96.4203 197.05 96.5026 197.021 97.5727C196.985 98.8139 197.136 98.9061 199.556 99.1564C202.532 99.4626 202.447 99.5119 201.202 98.2279ZM152.066 97.5661L152.81 96.417H151.845C151.315 96.417 150.646 96.3281 150.36 96.2162C149.939 96.0549 149.84 96.2722 149.84 97.3686C149.84 98.5538 149.932 98.7217 150.581 98.7185C151.061 98.7152 151.582 98.3135 152.066 97.5661ZM196.425 98.0764C196.645 97.3751 196.109 96.0878 195.592 96.0878C195.417 96.0878 195.276 96.6804 195.276 97.4048C195.276 98.8304 196.043 99.2782 196.425 98.0764ZM233.406 96.5059L233.304 95.2778L219.64 93.7238C212.123 92.8678 205.881 92.1994 205.762 92.2356C205.644 92.2718 206.052 92.8842 206.674 93.5987L207.8 94.8959L219.729 96.2787C234.94 98.0402 233.531 98.0172 233.406 96.5059ZM202.509 93.9345C202.279 93.6579 201.541 92.9962 200.873 92.4661C199.839 91.6496 199.194 91.452 196.563 91.1557C194.858 90.9647 192.945 90.7342 192.313 90.6421C191.331 90.5038 191.499 90.6552 193.465 91.6693C194.732 92.3245 195.97 93.0225 196.217 93.2266C196.464 93.4308 197.946 93.7666 199.51 93.9773C201.074 94.188 202.483 94.379 202.641 94.3988C202.799 94.4218 202.74 94.2144 202.509 93.9345ZM155.052 92.9995C155.111 92.4792 155.035 91.936 154.887 91.7911C154.736 91.6463 153.541 91.4224 152.227 91.294L149.84 91.0635V92.2455C149.84 93.5098 149.837 93.5065 152.968 93.8983C154.653 94.1057 154.94 93.9839 155.052 92.9995ZM192.806 92.1237C189.402 90.4741 186.498 89.8255 181.612 89.6181C177.46 89.4403 173.555 89.9704 173.295 90.7474C173.16 91.1557 174.474 91.2709 177.885 91.1557C178.734 91.126 179.748 91.2742 180.144 91.4849C180.772 91.8208 192.471 93.3583 194.617 93.388C195.17 93.3946 194.578 92.9797 192.806 92.1237ZM219.969 89.8321C219.969 88.6896 219.87 88.5118 219.228 88.4987C218.82 88.4888 213.634 87.9324 207.705 87.2574C201.775 86.5857 196.922 86.0557 196.922 86.0853C196.922 86.1116 197.995 86.7833 199.309 87.5735L201.696 89.009L210.256 90.0329C214.965 90.5993 219.077 91.08 219.393 91.103C219.854 91.1392 219.969 90.8824 219.969 89.8321ZM175.686 88.7884C173.592 88.4131 173.216 88.4624 173.216 89.1176C173.216 89.6708 173.368 89.6905 175.109 89.3745L177.003 89.0255L175.686 88.7884ZM192.945 87.8599C192.658 87.692 191.101 87.1619 189.488 86.6812C187.157 85.9832 185.632 85.7692 182.106 85.6441C179.663 85.5552 177.141 85.6211 176.509 85.7923C175.488 86.0655 175.784 86.1479 179.143 86.5166C181.227 86.7438 185.079 87.1949 187.703 87.5142C193.764 88.255 193.6 88.2452 192.945 87.8599ZM169.529 84.2613C172.67 83.1682 172.831 83.2571 166.467 82.5887C164.656 82.3977 162.618 82.1574 161.94 82.0586L160.705 81.871V83.1781V84.4852L163.586 84.8045C165.169 84.9823 166.539 85.1469 166.631 85.17C166.724 85.193 168.027 84.7848 169.529 84.2613ZM152.309 155.793C149.02 155.392 149.181 155.51 149.181 153.489V151.655L151.404 151.872C155.582 152.277 155.437 152.195 155.437 154.226V156.011L154.367 155.961C153.778 155.935 152.852 155.859 152.309 155.793ZM154.778 154.219C154.778 153.597 154.667 153.021 154.532 152.942C154.397 152.863 153.274 152.695 152.039 152.567L149.797 152.333L149.899 153.594C150.004 154.848 150.018 154.861 151.651 155.052C154.897 155.438 154.778 155.471 154.778 154.219ZM152.474 150.858C152.019 150.789 151.022 150.654 150.251 150.555L148.852 150.374V148.543V146.716L151.404 146.943C155.552 147.315 155.437 147.249 155.437 149.297V151.072L154.367 151.026C153.778 151.003 152.928 150.927 152.474 150.858ZM154.778 149.281C154.778 148.658 154.667 148.082 154.532 148C154.397 147.921 153.211 147.75 151.898 147.618L149.511 147.384V148.563C149.511 149.831 149.682 149.936 152.145 150.189C154.877 150.469 154.778 150.506 154.778 149.281ZM150.663 145.504L149.017 145.31V143.499C149.017 141.432 148.75 141.524 153.215 141.998L155.437 142.235V144.019V145.804L153.873 145.751C153.014 145.725 151.568 145.613 150.663 145.504ZM154.778 144.023C154.778 142.963 154.703 142.887 153.461 142.706C152.737 142.597 151.552 142.426 150.828 142.317L149.511 142.123V143.45C149.511 144.74 149.543 144.78 150.745 144.905C151.423 144.978 152.609 145.06 153.379 145.089C154.762 145.145 154.778 145.132 154.778 144.023ZM139.709 143.582C139.363 143.084 138.356 141.303 137.467 139.627C135.649 136.197 135.669 135.946 137.855 134.698C139.406 133.809 140.351 133.757 141.019 134.527C141.293 134.843 142.317 136.615 143.291 138.465C145.286 142.245 145.276 142.472 143.057 143.74C141.342 144.724 140.473 144.681 139.709 143.582ZM126.134 132.453C121.156 131.857 116.968 131.36 116.833 131.343C116.698 131.33 116.586 130.504 116.586 129.506C116.586 128.13 116.701 127.695 117.073 127.695C117.34 127.695 122.074 128.216 127.593 128.848C133.111 129.48 137.707 130 137.806 130C137.905 130 137.987 130.813 137.987 131.811V133.622L136.588 133.576C135.817 133.553 131.112 133.046 126.134 132.453ZM137.328 131.818C137.328 130.418 138.04 130.593 127.945 129.5C123.599 129.029 119.414 128.558 118.644 128.453L117.244 128.265V129.556V130.85L126.216 131.864C138.175 133.217 137.328 133.22 137.328 131.818ZM105.721 94.1255L95.3496 92.9534L95.2508 91.0635C95.1982 90.0231 95.2311 89.1736 95.3266 89.1736C95.422 89.1736 100.015 89.6938 105.533 90.326C111.051 90.9581 115.796 91.4783 116.076 91.4783C116.474 91.4783 116.586 91.8734 116.586 93.2694C116.586 94.2539 116.474 95.1132 116.339 95.1791C116.204 95.2416 111.427 94.7675 105.721 94.1255ZM115.927 93.3089C115.927 91.9821 116.965 92.2191 105.721 90.9746C101.645 90.5235 97.7564 90.0692 97.0781 89.9638L95.8435 89.7729V91.1195C95.8435 92.2916 95.939 92.4694 96.5843 92.4858C96.9925 92.4957 100.881 92.9204 105.227 93.4341C109.573 93.9444 113.758 94.3823 114.528 94.402C115.911 94.4416 115.927 94.4284 115.927 93.3089ZM152.145 89.2856C148.898 88.7884 149.181 89.009 149.181 86.9808V85.1469L151.074 85.361C152.115 85.4828 153.596 85.6639 154.367 85.7659L155.766 85.9569V87.7282V89.5029L154.367 89.4568C153.596 89.4337 152.599 89.358 152.145 89.2856ZM155.108 87.6986C155.108 86.4211 155.065 86.4014 151.733 86.0392L149.84 85.8351V87.1553V88.4789L151.404 88.6007C155.332 88.9135 155.108 88.9662 155.108 87.6986ZM152.062 84.146L149.181 83.8267V81.8545C149.181 79.9778 149.218 79.8922 149.922 80.0568C150.33 80.1556 151.812 80.3367 153.215 80.4618L155.766 80.689V82.6282C155.766 83.9814 155.641 84.551 155.355 84.5148C155.127 84.4885 153.646 84.3238 152.062 84.146ZM155.108 82.6216V81.3376L153.05 81.117C151.917 80.9952 150.732 80.8207 150.416 80.7318C149.935 80.5968 149.84 80.7877 149.84 81.8841V83.2011L151.733 83.4085C152.773 83.5238 153.847 83.6653 154.12 83.7246C154.393 83.7806 154.726 83.8464 154.861 83.8662C154.996 83.8892 155.108 83.3262 155.108 82.6216ZM152.309 79.4082C149.02 79.0065 149.181 79.125 149.181 77.1035V75.2696L151.074 75.4836C152.115 75.6054 153.596 75.7865 154.367 75.8886L155.766 76.0795V77.8509V79.6255L154.532 79.5761C153.853 79.5498 152.852 79.474 152.309 79.4082ZM155.17 77.8245C155.318 76.5503 155.348 76.5635 151.733 76.1651L149.84 75.9577V77.278V78.6015L151.404 78.7234C155.243 79.0263 155.022 79.0789 155.17 77.8245ZM118.232 157.495C118.232 157.407 119.566 156.666 121.195 155.846C122.825 155.026 124.159 154.506 124.159 154.687C124.159 154.868 122.977 155.609 121.531 156.336C119.055 157.581 118.232 157.871 118.232 157.495ZM112.964 147.453C112.964 146.989 118.183 144.428 118.838 144.569C119.154 144.638 118.107 145.34 116.346 146.235C113.06 147.904 112.964 147.941 112.964 147.453ZM94.0129 108.418C93.4136 107.941 93.4466 107.924 94.5265 108.155C95.1586 108.29 96.1595 108.369 96.7489 108.336C97.3382 108.3 97.8189 108.418 97.8189 108.599C97.8189 109.133 94.724 108.984 94.0129 108.418ZM95.0204 106.904C93.3412 105.982 93.035 104.135 94.3454 102.821C95.3628 101.807 96.5382 101.794 97.6905 102.785C98.3326 103.334 98.5861 103.868 98.5861 104.648C98.5861 105.428 98.3326 105.962 97.6905 106.512C96.7094 107.355 96.0279 107.453 95.0204 106.904ZM91.7345 105.198C91.0529 103.631 92.9988 100.789 95.1027 100.279C96.2517 100.003 95.9752 100.635 94.7174 101.158C93.3972 101.711 92.528 102.906 92.2152 104.595C92.0374 105.557 91.9419 105.679 91.7345 105.198ZM62.9189 75.0062C59.5277 74.4102 57.3217 71.7565 57.3217 68.2698C57.3217 64.3156 60.1038 61.517 64.035 61.517C66.3068 61.517 67.1596 61.8429 68.8321 63.3542C70.6397 64.9872 71.3838 67.4006 70.8109 69.7843C69.9582 73.3468 66.4978 75.6383 62.9189 75.0062ZM67.3143 73.5937C71.3114 71.3548 71.2554 65.2638 67.2188 62.8965C64.035 61.0297 60.0973 62.3072 58.3029 65.7807C57.7234 66.9034 57.7827 69.7284 58.4115 70.94C59.0963 72.2701 61.0521 73.9691 62.1847 74.216C62.6785 74.3246 63.2317 74.4695 63.4128 74.5354C64.0647 74.7724 66.0698 74.2884 67.3143 73.5937ZM180.845 51.61C177.477 49.8979 176.601 45.6342 179.027 42.7533C180.186 41.377 181.461 40.7745 183.222 40.7745C186.719 40.7745 189.073 43.0002 189.119 46.3486C189.175 50.721 184.697 53.569 180.845 51.61ZM186.386 50.6519C188.948 48.8278 189.267 45.3411 187.087 43.0068C184.411 40.1357 179.571 41.3013 178.435 45.0909C177.76 47.3396 178.968 49.9769 181.187 51.1095C182.639 51.8503 184.993 51.6429 186.386 50.6519ZM209.921 47.8994C203.016 44.6859 202.769 35.2662 209.502 31.9046C213.272 30.018 217.286 30.7753 220.173 33.9196C221.816 35.7107 222.415 37.3372 222.399 39.9514C222.356 46.2959 215.649 50.5663 209.921 47.8994ZM217.299 47.152C220.618 45.4959 222.468 41.6338 221.655 38.0582C220.437 32.6948 214.563 29.9456 209.723 32.4742C206.322 34.2521 204.623 37.8837 205.456 41.6042C206.628 46.8425 212.449 49.5686 217.299 47.152Z" fill="#1A1A1A"/>
</svg>
