<svg width="248" height="247" viewBox="0 0 248 247" fill="none" xmlns="http://www.w3.org/2000/svg">
<path d="M162.17 239.29C162.152 239.29 162.134 239.288 162.116 239.285L27.9921 215.015C27.8513 214.99 27.7487 214.867 27.748 214.724C27.7475 214.581 27.8493 214.458 27.99 214.431L236.626 175.023C238.557 170.14 240.228 165.057 241.595 159.912C241.619 159.823 241.681 159.754 241.759 159.718C244.373 150.405 245.813 140.903 246.042 131.466L73.4087 100.228C73.2675 100.203 73.1647 100.08 73.1647 99.936C73.1647 99.7923 73.2675 99.6693 73.4089 99.6438L229.14 71.4833C229.301 71.4531 229.456 71.5614 229.485 71.7227C229.514 71.8841 229.407 72.0384 229.245 72.0677L75.13 99.9361L246.398 130.927C246.541 130.953 246.645 131.08 246.642 131.226C246.43 140.867 244.96 150.578 242.272 160.089C242.248 160.174 242.188 160.241 242.113 160.277C240.736 165.425 239.056 170.51 237.118 175.394C237.08 175.489 236.997 175.557 236.897 175.576L29.6783 214.717L162.222 238.7C162.384 238.729 162.491 238.884 162.461 239.045C162.435 239.189 162.311 239.29 162.17 239.29Z" fill="#1A1A1A"/>
<path d="M100.04 246.62C100.038 246.62 100.037 246.62 100.036 246.62C66.9789 246.19 43.248 236.28 25.3557 215.432C25.3389 215.42 25.3237 215.406 25.3101 215.39C24.1923 214.086 23.1161 212.765 22.111 211.465C17.1122 204.997 12.8741 197.509 9.51411 189.209C9.48082 189.126 9.48594 189.033 9.52866 188.955C9.57111 188.877 9.64645 188.822 9.73364 188.806L199.921 152.496L0.340518 115.42C0.179204 115.39 0.0728726 115.235 0.102656 115.074C0.132573 114.912 0.288092 114.806 0.448867 114.836L201.579 152.2C201.72 152.226 201.822 152.348 201.822 152.491C201.822 152.634 201.721 152.757 201.581 152.783L10.201 189.321C13.5187 197.438 17.6826 204.764 22.5808 211.102C23.5685 212.38 24.6259 213.678 25.7238 214.96C25.7404 214.972 25.7557 214.986 25.7692 215.002C43.5465 235.74 67.1476 245.598 100.043 246.026C100.207 246.028 100.339 246.163 100.337 246.327C100.334 246.489 100.202 246.62 100.04 246.62Z" fill="#1A1A1A"/>
<path d="M4.88851 84.391C4.74768 84.391 4.62276 84.2906 4.59661 84.1472C4.56737 83.9858 4.67437 83.8312 4.83555 83.8018L208.163 46.7952C208.326 46.766 208.479 46.873 208.509 47.0342C208.538 47.1956 208.431 47.3502 208.27 47.3796L4.94201 84.3862C4.92409 84.3895 4.90603 84.391 4.88851 84.391Z" fill="#1A1A1A"/>
<path d="M237.539 126.107L178.682 136.397L119.223 125.98C119.139 125.965 119.139 125.844 119.223 125.83L179.362 115.299L237.54 125.724C237.754 125.762 237.754 126.07 237.539 126.107Z" fill="white"/>
<path d="M178.851 144.291L178.815 136.703L237.811 126.019L246.761 132.247L178.851 144.291Z" fill="white"/>
<path d="M178.851 144.588C178.782 144.588 178.715 144.564 178.661 144.519C178.594 144.463 178.555 144.38 178.554 144.292L178.519 136.704C178.518 136.56 178.621 136.436 178.763 136.41L237.758 125.727C237.836 125.713 237.916 125.73 237.981 125.775L246.931 132.003C247.029 132.071 247.077 132.193 247.051 132.31C247.025 132.427 246.931 132.518 246.813 132.539L178.903 144.583C178.886 144.587 178.869 144.588 178.851 144.588ZM179.114 136.95L179.147 143.937L246.001 132.079L237.743 126.333L179.114 136.95Z" fill="#1A1A1A"/>
<path d="M246.653 165.905L237.774 172.541L178.718 183.09L178.744 177.949L246.653 165.905Z" fill="white"/>
<path d="M178.718 183.387C178.648 183.387 178.58 183.363 178.527 183.318C178.459 183.261 178.42 183.177 178.421 183.089L178.447 177.948C178.447 177.804 178.551 177.682 178.692 177.657L246.601 165.612C246.737 165.589 246.871 165.66 246.926 165.787C246.981 165.913 246.941 166.06 246.831 166.142L237.952 172.779C237.915 172.807 237.872 172.825 237.826 172.833L178.77 183.383C178.753 183.386 178.735 183.387 178.718 183.387ZM179.039 178.198L179.016 182.735L237.653 172.261L245.474 166.416L179.039 178.198Z" fill="#1A1A1A"/>
<path d="M178.851 177.764V144.218L246.76 132.448V165.719L178.851 177.764Z" fill="white"/>
<path d="M178.851 178.061C178.782 178.061 178.714 178.036 178.66 177.991C178.593 177.935 178.554 177.852 178.554 177.764V144.218C178.554 144.073 178.658 143.95 178.8 143.925L246.71 132.156C246.797 132.141 246.885 132.165 246.952 132.221C247.019 132.278 247.057 132.361 247.057 132.448V165.719C247.057 165.863 246.954 165.987 246.812 166.012L178.903 178.056C178.885 178.059 178.868 178.061 178.851 178.061ZM179.148 144.468V177.41L246.464 165.47V132.801L179.148 144.468Z" fill="#1A1A1A"/>
<path d="M178.85 177.764V144.218L111.529 132.434V165.778L178.85 177.764Z" fill="white"/>
<path d="M175.604 173.948C175.586 173.948 175.569 173.947 175.551 173.944L114.542 163.003C114.401 162.978 114.298 162.855 114.298 162.711V136.817C114.298 136.729 114.337 136.645 114.404 136.589C114.471 136.533 114.56 136.509 114.646 136.524L175.655 147.308C175.797 147.333 175.901 147.456 175.901 147.6V173.651C175.901 173.739 175.862 173.823 175.794 173.879C175.74 173.924 175.673 173.948 175.604 173.948ZM114.892 162.462L175.307 173.296V147.849L114.892 137.171V162.462Z" fill="#1A1A1A"/>
<path d="M161.206 158.136C161.188 158.136 161.171 158.134 161.153 158.131L128.941 152.355C128.799 152.329 128.696 152.206 128.696 152.062V144.983C128.696 144.895 128.735 144.812 128.802 144.755C128.87 144.699 128.959 144.675 129.045 144.69L161.257 150.384C161.399 150.409 161.503 150.533 161.503 150.677V157.839C161.503 157.927 161.464 158.01 161.396 158.067C161.342 158.111 161.275 158.136 161.206 158.136ZM129.29 151.814L160.909 157.484V150.926L129.29 145.337V151.814Z" fill="#1A1A1A"/>
<path d="M150.546 166.939C150.529 166.939 150.511 166.937 150.493 166.935L139.602 164.981C139.46 164.956 139.357 164.833 139.357 164.689V158.468C139.357 158.38 139.396 158.297 139.464 158.241C139.531 158.184 139.62 158.16 139.706 158.176L150.598 160.101C150.74 160.126 150.843 160.25 150.843 160.394V166.642C150.843 166.73 150.804 166.814 150.736 166.87C150.683 166.915 150.615 166.939 150.546 166.939ZM139.951 164.441L150.249 166.287V160.642L139.951 158.822V164.441Z" fill="#1A1A1A"/>
<path d="M193.22 175.164C193.122 175.164 193.028 175.115 192.973 175.032C192.907 174.934 192.906 174.806 192.97 174.707L208.465 150.56C208.511 150.489 208.583 150.441 208.666 150.427L217.254 148.973C217.359 148.954 217.467 148.996 217.534 149.079L232.698 167.75C232.765 167.832 232.783 167.943 232.746 168.041C232.709 168.14 232.623 168.212 232.519 168.23L193.271 175.16C193.254 175.163 193.237 175.164 193.22 175.164ZM208.894 150.991L193.836 174.457L231.919 167.733L217.182 149.588L208.894 150.991Z" fill="#1A1A1A"/>
<path d="M178.85 144.437L178.815 136.703L119.204 126.236L111.529 132.451L178.85 144.437Z" fill="white"/>
<path d="M178.851 144.734C178.834 144.734 178.816 144.733 178.799 144.729L111.478 132.743C111.364 132.723 111.272 132.638 111.243 132.525C111.214 132.413 111.253 132.294 111.343 132.22L119.018 126.005C119.085 125.951 119.172 125.929 119.256 125.944L178.867 136.41C179.008 136.435 179.112 136.558 179.113 136.701L179.148 144.436C179.149 144.524 179.11 144.608 179.043 144.664C178.988 144.71 178.92 144.734 178.851 144.734ZM112.222 132.273L178.552 144.082L178.52 136.952L119.287 126.552L112.222 132.273Z" fill="#1A1A1A"/>
<path d="M178.717 183.09L178.669 177.893L111.529 165.778L119.075 172.336L178.717 183.09Z" fill="white"/>
<path d="M178.851 178.061C178.834 178.061 178.816 178.059 178.799 178.056L111.478 166.07C111.337 166.045 111.233 165.922 111.233 165.778V132.433C111.233 132.346 111.272 132.262 111.339 132.206C111.406 132.15 111.495 132.126 111.581 132.141L178.902 143.925C179.044 143.95 179.148 144.073 179.148 144.218V177.764C179.148 177.852 179.109 177.935 179.042 177.991C178.988 178.037 178.92 178.061 178.851 178.061ZM111.827 165.529L178.554 177.409V144.467L111.827 132.787V165.529Z" fill="#1A1A1A"/>
<path d="M178.717 183.09L178.669 177.893L111.529 165.778L119.075 172.336L178.717 183.09Z" fill="white"/>
<path d="M178.718 183.387C178.7 183.387 178.683 183.386 178.665 183.383L119.023 172.628C118.97 172.619 118.921 172.595 118.881 172.56L111.335 166.002C111.235 165.914 111.205 165.77 111.263 165.649C111.32 165.529 111.452 165.461 111.583 165.485L178.723 177.601C178.863 177.626 178.966 177.748 178.967 177.891L179.014 183.087C179.015 183.176 178.977 183.26 178.909 183.317C178.855 183.363 178.787 183.387 178.718 183.387ZM119.209 172.058L178.417 182.735L178.375 178.142L112.54 166.262L119.209 172.058Z" fill="#1A1A1A"/>
<path d="M186.12 159.931C187.459 159.931 188.544 158.738 188.544 157.266C188.544 155.793 187.459 154.6 186.12 154.6C184.782 154.6 183.697 155.793 183.697 157.266C183.697 158.738 184.782 159.931 186.12 159.931Z" fill="#1A1A1A"/>
<path d="M186.12 170.534C187.459 170.534 188.544 169.341 188.544 167.869C188.544 166.397 187.459 165.203 186.12 165.203C184.782 165.203 183.697 166.397 183.697 167.869C183.697 169.341 184.782 170.534 186.12 170.534Z" fill="#1A1A1A"/>
<path d="M238.96 150.698C240.299 150.698 241.384 149.505 241.384 148.033C241.384 146.561 240.299 145.367 238.96 145.367C237.622 145.367 236.537 146.561 236.537 148.033C236.537 149.505 237.622 150.698 238.96 150.698Z" fill="#1A1A1A"/>
<path d="M238.96 161.302C240.299 161.302 241.384 160.108 241.384 158.636C241.384 157.164 240.299 155.971 238.96 155.971C237.622 155.971 236.537 157.164 236.537 158.636C236.537 160.108 237.622 161.302 238.96 161.302Z" fill="#1A1A1A"/>
<path d="M182.418 151.623C182.349 151.623 182.281 151.598 182.227 151.553C182.16 151.496 182.121 151.413 182.121 151.326V148.103C182.121 147.959 182.225 147.835 182.367 147.81L243.24 137.207C243.326 137.192 243.415 137.216 243.482 137.272C243.549 137.329 243.588 137.412 243.588 137.499V140.722C243.588 140.866 243.484 140.99 243.342 141.015L182.469 151.618C182.452 151.621 182.435 151.623 182.418 151.623ZM182.715 148.353V150.972L242.994 140.472V137.853L182.715 148.353Z" fill="#1A1A1A"/>
<path d="M143.646 126.043C143.646 128.969 159.54 131.34 179.145 131.34C198.75 131.34 214.643 128.969 214.643 126.043C214.643 125.882 211.292 119.895 211.292 119.895C211.292 119.895 197.671 120.747 179.145 120.747C159.862 120.747 146.901 120.189 146.901 120.189C146.901 120.189 143.646 125.995 143.646 126.043Z" fill="#1A1A1A"/>
<path d="M179.145 125.206C196.816 125.206 211.141 123.069 211.141 120.432C211.141 117.795 196.816 115.658 179.145 115.658C161.474 115.658 147.149 117.795 147.149 120.432C147.149 123.069 161.474 125.206 179.145 125.206Z" fill="#1A1A1A"/>
<path d="M142.097 64.5239L179.315 71.0305L216.234 64.5623C216.286 64.5532 216.286 64.4781 216.234 64.4691L178.893 57.9305L142.097 64.5239Z" fill="white"/>
<path d="M192.909 60.5112L156.719 67.0426L164.844 68.4632L201.054 61.9162L192.909 60.5112Z" fill="white"/>
<path d="M164.843 68.76C164.826 68.76 164.809 68.7585 164.792 68.7556L156.667 67.3351C156.525 67.3103 156.421 67.1876 156.421 67.0435C156.42 66.8996 156.523 66.776 156.665 66.7505L192.856 60.2189C192.89 60.2127 192.925 60.2125 192.959 60.2185L201.104 61.6235C201.246 61.6481 201.35 61.7708 201.35 61.915C201.351 62.0589 201.248 62.1828 201.106 62.2084L164.896 68.7554C164.878 68.7585 164.861 68.76 164.843 68.76ZM158.416 67.038L164.842 68.1615L199.346 61.923L192.909 60.8126L158.416 67.038Z" fill="#1A1A1A"/>
<path d="M179.307 126.173V70.9761L141.943 64.5006V119.547L179.307 126.173Z" fill="white"/>
<path d="M164.693 74.5324V68.3977L156.557 66.9875V73.0892L164.693 74.5324Z" fill="white"/>
<path d="M164.694 74.8293C164.677 74.8293 164.659 74.8278 164.642 74.8249L156.506 73.3818C156.364 73.3566 156.261 73.2333 156.261 73.0894V66.9877C156.261 66.9001 156.299 66.8169 156.366 66.7605C156.433 66.7041 156.521 66.6802 156.608 66.6952L164.745 68.1054C164.887 68.13 164.991 68.2536 164.991 68.3979V74.5326C164.991 74.6204 164.952 74.7037 164.885 74.7602C164.831 74.8051 164.763 74.8293 164.694 74.8293ZM156.855 72.8403L164.397 74.1781V68.6478L156.855 67.3404V72.8403Z" fill="#1A1A1A"/>
<path d="M179.307 126.471C179.29 126.471 179.273 126.469 179.255 126.466L141.891 119.839C141.75 119.814 141.646 119.691 141.646 119.547V64.5007C141.646 64.4131 141.685 64.3299 141.752 64.2735C141.819 64.2171 141.907 64.1931 141.994 64.2082L179.358 70.6836C179.5 70.7083 179.604 70.8319 179.604 70.9762V126.174C179.604 126.261 179.565 126.345 179.498 126.401C179.444 126.446 179.376 126.471 179.307 126.471ZM142.24 119.298L179.01 125.819V71.2262L142.24 64.8535V119.298Z" fill="#1A1A1A"/>
<path d="M172.58 105.579C172.563 105.579 172.545 105.577 172.528 105.574L148.377 101.248C148.236 101.223 148.133 101.099 148.133 100.956V74.6661C148.133 74.5784 148.171 74.4952 148.239 74.4388C148.306 74.3826 148.394 74.3583 148.481 74.3737L172.631 78.6007C172.773 78.6255 172.877 78.7489 172.877 78.8931V105.281C172.877 105.369 172.838 105.453 172.771 105.509C172.717 105.554 172.649 105.579 172.58 105.579ZM148.727 100.707L172.283 104.927V79.1427L148.727 75.0196V100.707Z" fill="#1A1A1A"/>
<path d="M157.814 100.213C157.806 100.213 157.769 100.212 157.762 100.211C156.871 100.19 156.019 99.8045 155.381 99.1269C154.73 98.4365 154.372 97.5211 154.372 96.5489L154.373 95.9878C154.374 95.3731 154.863 94.8727 155.462 94.8727C155.759 94.8727 156.037 94.9936 156.244 95.213C156.442 95.4232 156.551 95.6996 156.55 95.9915L156.55 96.5757C156.55 96.9571 156.688 97.3137 156.94 97.5797C157.182 97.8367 157.501 97.9782 157.839 97.9782C157.842 97.9782 157.846 97.9783 157.851 97.9785C158.181 97.973 158.494 97.8319 158.731 97.5806C158.982 97.3141 159.121 96.9576 159.121 96.5762L159.126 80.1433C159.126 79.8239 159.26 79.519 159.492 79.307C159.719 79.101 160.023 79.0002 160.323 79.0318C160.872 79.0874 161.302 79.5847 161.302 80.1639V96.5513C161.302 97.523 160.944 98.4383 160.293 99.1284C159.651 99.8086 158.795 100.194 157.884 100.212L157.843 99.916L157.852 100.213L157.814 100.213ZM155.462 95.4667C155.189 95.4667 154.968 95.7011 154.967 95.9892L154.966 96.55C154.965 97.3692 155.266 98.1399 155.813 98.7195C156.342 99.2808 157.045 99.6 157.792 99.6183L157.813 99.9163L157.814 99.6194L157.835 99.6192C157.836 99.6192 157.871 99.6188 157.872 99.6187C158.622 99.6033 159.329 99.2845 159.861 98.7209C160.407 98.1414 160.708 97.3711 160.708 96.5514V80.164C160.708 79.8904 160.508 79.6477 160.263 79.6228C160.128 79.6082 159.994 79.6539 159.892 79.7466C159.783 79.846 159.72 79.9908 159.72 80.1435L159.715 96.5765C159.715 97.1098 159.518 97.6114 159.163 97.9884C158.813 98.3593 158.347 98.5669 157.852 98.5726C157.841 98.5725 157.831 98.5724 157.822 98.5714C157.82 98.5714 157.819 98.5714 157.818 98.5714C157.334 98.5714 156.862 98.3638 156.507 97.9876C156.152 97.6108 155.956 97.1095 155.956 96.5758L155.956 95.9911C155.956 95.8512 155.905 95.7197 155.812 95.6204C155.719 95.5214 155.594 95.4667 155.462 95.4667Z" fill="#1A1A1A"/>
<path d="M152.81 88.5158C152.316 88.4312 151.998 87.9371 152.126 87.4497C153.249 83.1511 157.032 81.8185 161.065 82.5176C164.945 83.1902 167.879 86.2143 168.858 90.0279C169.014 90.6358 168.504 91.2063 167.889 91.1009L152.81 88.5158Z" fill="white"/>
<path d="M168.034 91.4101C167.969 91.4101 167.904 91.4047 167.839 91.3935L152.76 88.8086C152.443 88.7541 152.161 88.5674 151.986 88.2958C151.81 88.0233 151.756 87.6875 151.838 87.3744C152.896 83.3263 156.363 81.4014 161.115 82.2248C164.959 82.8912 168.112 85.9249 169.145 89.9538C169.245 90.3419 169.143 90.7483 168.874 91.041C168.654 91.2788 168.35 91.4101 168.034 91.4101ZM152.86 88.223L167.939 90.808C168.127 90.8407 168.308 90.778 168.437 90.6384C168.569 90.4945 168.619 90.2937 168.57 90.1015C167.594 86.2987 164.628 83.4367 161.013 82.8101C156.599 82.0442 153.384 83.8075 152.413 87.5247C152.372 87.6794 152.398 87.8391 152.485 87.974C152.571 88.1081 152.704 88.1965 152.86 88.223Z" fill="#1A1A1A"/>
<path d="M179.308 126.173V70.9761L216.348 64.4926V119.579L179.308 126.173Z" fill="#1A1A1A"/>
<path d="M179.308 126.471C179.239 126.471 179.171 126.446 179.117 126.401C179.05 126.345 179.011 126.262 179.011 126.174V70.9762C179.011 70.8319 179.114 70.7085 179.257 70.6837L216.297 64.2001C216.383 64.1844 216.472 64.209 216.539 64.2652C216.606 64.3216 216.645 64.4048 216.645 64.4925V119.579C216.645 119.723 216.541 119.846 216.4 119.871L179.36 126.466C179.343 126.469 179.325 126.471 179.308 126.471ZM179.605 71.2258V125.819L216.051 119.33V64.8461L179.605 71.2258Z" fill="#1A1A1A"/>
<path d="M207.442 94.3004V98.3597L189.165 101.473V97.5031L207.442 94.3004Z" fill="white"/>
<path d="M190.047 85.412L193.82 79.989L197.572 84.0875L195.645 84.4248V94.0438L191.995 94.6656V85.0644L190.047 85.412Z" fill="white"/>
<path d="M199.036 83.898L202.809 78.4752L206.561 82.5737L204.634 82.911V92.53L200.984 93.1518V83.5506L199.036 83.898Z" fill="white"/>
<path d="M186.229 105.578C186.16 105.578 186.092 105.554 186.038 105.509C185.971 105.453 185.932 105.369 185.932 105.282V78.8933C185.932 78.7489 186.035 78.6256 186.177 78.6008L210.328 74.3738C210.414 74.3584 210.503 74.3827 210.57 74.4389C210.637 74.4953 210.676 74.5785 210.676 74.6662V100.956C210.676 101.099 210.573 101.223 210.431 101.248L186.281 105.574C186.264 105.577 186.246 105.578 186.229 105.578ZM186.526 79.1427V104.927L210.082 100.707V75.0197L186.526 79.1427Z" fill="white"/>
<path d="M179.315 71.3275C179.298 71.3275 179.281 71.326 179.264 71.323L142.046 64.8164C141.904 64.7916 141.8 64.6687 141.8 64.5245C141.8 64.3805 141.903 64.257 142.044 64.2315L178.84 57.6382C178.874 57.6321 178.909 57.632 178.944 57.638L216.286 64.1766C216.45 64.205 216.57 64.3473 216.57 64.5151C216.57 64.6829 216.451 64.8257 216.286 64.8547L179.366 71.3229C179.349 71.3261 179.332 71.3275 179.315 71.3275ZM143.801 64.5202L179.315 70.7291L214.779 64.5158L178.893 58.2321L143.801 64.5202Z" fill="#1A1A1A"/>
<path d="M179.307 126.471C179.166 126.471 179.041 126.369 179.015 126.226C178.987 126.064 179.094 125.91 179.256 125.881L211.541 120.14C211.704 120.111 211.857 120.219 211.885 120.38C211.914 120.542 211.806 120.696 211.645 120.725L179.36 126.466C179.342 126.469 179.325 126.471 179.307 126.471Z" fill="white"/>
<path d="M101.87 20.9897L107.172 21.86C109.743 22.2821 111.631 24.5046 111.631 27.1104V35.2799C111.631 37.2449 113.03 38.9316 114.961 39.2954C118.261 39.917 120.651 42.7996 120.651 46.1579L120.583 86.2127L86.7207 62.4785L94.941 21.5584C94.941 21.5584 100.689 20.7959 101.87 20.9897Z" fill="#1A1A1A"/>
<path d="M120.583 86.5098C120.523 86.5098 120.464 86.4917 120.413 86.456L86.5504 62.7216C86.4538 62.6538 86.4065 62.5356 86.4296 62.42L94.6499 21.4999C94.675 21.3755 94.7762 21.2807 94.9021 21.264C95.1387 21.2326 100.708 20.4981 101.918 20.6966L107.22 21.5669C109.948 22.0147 111.928 24.346 111.928 27.1105V35.2799C111.928 37.1006 113.226 38.6666 115.015 39.0036C118.453 39.6512 120.948 42.6599 120.948 46.158L120.88 86.2133C120.88 86.3241 120.818 86.4254 120.72 86.4765C120.677 86.4987 120.63 86.5098 120.583 86.5098ZM87.0501 62.3467L120.287 85.6427L120.354 46.1576C120.354 42.9454 118.063 40.1821 114.906 39.5874C112.836 39.1975 111.334 37.386 111.334 35.2801V27.1106C111.334 24.6385 109.563 22.5535 107.124 22.1531L101.822 21.2828C100.928 21.1357 96.9183 21.6013 95.1905 21.8252L87.0501 62.3467Z" fill="#1A1A1A"/>
<path d="M96.9952 21.5998L102.297 22.4702C104.868 22.8922 106.756 25.1148 106.756 27.7206V35.8901C106.756 37.8551 108.155 39.5418 110.086 39.9055C113.386 40.5272 115.776 43.4098 115.776 46.768V84.1122L91.8287 82.9378L81.8457 63.0886L90.9632 25.5931C91.6206 22.8897 94.2498 21.1492 96.9952 21.5998Z" fill="white"/>
<path d="M115.775 84.4091C115.77 84.4091 115.766 84.4089 115.761 84.4088L91.8134 83.2345C91.7065 83.2291 91.6107 83.1669 91.5626 83.0712L81.5795 63.2221C81.5478 63.1592 81.5396 63.0869 81.5563 63.0185L90.6738 25.5229C91.3637 22.6859 94.161 20.8338 97.0424 21.3068L102.344 22.1771C105.072 22.6249 107.052 24.9562 107.052 27.7205V35.89C107.052 37.7107 108.35 39.2767 110.139 39.6137C113.577 40.2614 116.072 43.2703 116.072 46.7681V84.1122C116.072 84.1936 116.039 84.2712 115.98 84.3273C115.925 84.38 115.851 84.4091 115.775 84.4091ZM92.0156 82.6497L115.478 83.8003V46.768C115.478 43.5554 113.187 40.7921 110.03 40.1974C107.96 39.8075 106.458 37.996 106.458 35.89V27.7205C106.458 25.2485 104.688 23.1636 102.248 22.7632L96.9463 21.8929C94.3704 21.4707 91.8681 23.1259 91.251 25.6632L82.1592 63.0527L92.0156 82.6497Z" fill="#1A1A1A"/>
<path d="M150.454 50.5164L198.772 58.9636L208.171 57.4642L158.448 48.7578L150.454 50.2018C150.278 50.2332 150.279 50.4855 150.454 50.5164Z" fill="white"/>
<path d="M198.772 59.2605C198.755 59.2605 198.737 59.259 198.72 59.2561L150.402 50.8089C150.18 50.7702 150.025 50.5856 150.024 50.3602C150.024 50.1348 150.178 49.9496 150.4 49.9096L158.395 48.4658C158.429 48.4596 158.464 48.4594 158.499 48.4656L208.221 57.1719C208.364 57.1969 208.468 57.3215 208.467 57.4667C208.466 57.6117 208.36 57.7347 208.217 57.7575L198.819 59.2568C198.803 59.2592 198.787 59.2605 198.772 59.2605ZM151.266 50.3567L198.774 58.6624L206.37 57.4505L158.448 49.0594L151.266 50.3567Z" fill="#1A1A1A"/>
<path d="M208.171 60.5704L198.772 62.0698V58.9634L208.171 57.4641V60.5704Z" fill="#1A1A1A"/>
<path d="M198.772 62.3668C198.701 62.3668 198.633 62.342 198.579 62.2958C198.513 62.2393 198.475 62.1569 198.475 62.0699V58.9636C198.475 58.8177 198.581 58.6933 198.725 58.6704L208.123 57.1711C208.209 57.1567 208.297 57.1819 208.363 57.2383C208.429 57.2948 208.467 57.3773 208.467 57.4642V60.5705C208.467 60.7165 208.361 60.8408 208.217 60.8638L198.818 62.3631C198.803 62.3656 198.787 62.3668 198.772 62.3668ZM199.069 59.2168V61.7217L207.873 60.3172V57.8123L199.069 59.2168Z" fill="#1A1A1A"/>
<path d="M198.772 62.1343L150.454 53.6871V50.5161L198.772 58.9632V62.1343Z" fill="white"/>
<path d="M198.772 62.4314C198.755 62.4314 198.738 62.43 198.721 62.427L150.403 53.9798C150.261 53.955 150.157 53.8315 150.157 53.6873V50.5162C150.157 50.4285 150.196 50.3452 150.263 50.2888C150.33 50.2326 150.418 50.2081 150.505 50.2237L198.823 58.671C198.965 58.6957 199.069 58.8192 199.069 58.9634V62.1345C199.069 62.2223 199.031 62.3056 198.963 62.3619C198.909 62.407 198.842 62.4314 198.772 62.4314ZM150.751 53.4378L198.475 61.7812V59.213L150.751 50.8695V53.4378Z" fill="#1A1A1A"/>
<path d="M178.035 54.0709C179.123 54.0709 180.005 53.1887 180.005 52.1005V44.53H176.064V52.1005C176.064 53.1887 176.947 54.0709 178.035 54.0709Z" fill="white"/>
<path d="M178.034 54.3678C176.784 54.3678 175.767 53.3506 175.767 52.1004V44.5299C175.767 44.3659 175.9 44.2329 176.064 44.2329H180.004C180.168 44.2329 180.301 44.3659 180.301 44.5299V52.1004C180.301 53.3506 179.284 54.3678 178.034 54.3678ZM176.361 44.8269V52.1004C176.361 53.0231 177.111 53.7739 178.034 53.7739C178.957 53.7739 179.708 53.0232 179.708 52.1004V44.8269H176.361Z" fill="#1A1A1A"/>
<path d="M99.4453 36.9011C99.7722 37.2902 100.28 37.4758 100.781 37.3876C103.527 36.904 113.263 35.185 113.682 35.0655C116.096 34.3762 117.649 31.7863 116.844 29.1992C116.179 27.0631 117.511 24.3475 119.62 23.6036L132.029 19.1166C133.377 18.6413 134.875 19.1232 136.217 19.6149L140.835 21.3064C142.868 22.0511 145.044 22.322 147.197 22.0984L150.858 21.7184C153.875 21.4053 155.987 18.5923 155.448 15.608L153.763 6.29368C153.047 2.33051 149.253 -0.301181 145.29 0.4155L89.4476 10.5137C86.0515 11.1278 83.7963 14.3788 84.4104 17.775L99.4453 36.9011Z" fill="#1A1A1A"/>
<path d="M100.536 37.706C100.034 37.706 99.547 37.4843 99.2175 37.0923C99.2155 37.0899 99.2134 37.0872 99.2114 37.0847L84.1768 17.9586C84.1467 17.9205 84.1266 17.8756 84.118 17.828C83.8068 16.1075 84.1843 14.3687 85.1809 12.932C86.1776 11.4953 87.674 10.5328 89.3944 10.2216L145.237 0.123394C147.231 -0.237777 149.247 0.200078 150.913 1.35582C152.579 2.51116 153.694 4.24613 154.055 6.24106L155.74 15.5553C156.011 17.0586 155.641 18.6217 154.724 19.8433C153.806 21.0649 152.408 21.856 150.888 22.0138L147.227 22.3939C145.042 22.6212 142.796 22.341 140.732 21.5851L136.115 19.8937C134.775 19.4032 133.364 18.961 132.127 19.3967L119.721 23.8829C117.765 24.5726 116.505 27.1129 117.127 29.111C117.527 30.3969 117.396 31.7536 116.76 32.9311C116.125 34.1064 115.032 34.9885 113.763 35.351C113.342 35.4713 104.579 37.0199 100.832 37.6801C100.734 37.6974 100.635 37.706 100.536 37.706ZM99.6753 36.7137C99.9331 37.018 100.336 37.164 100.729 37.0952C106.46 36.0856 113.27 34.8734 113.6 34.78C114.717 34.461 115.678 33.6842 116.238 32.6487C116.798 31.6129 116.912 30.4193 116.56 29.2874C115.851 27.0085 117.29 24.1102 119.521 23.3236L131.928 18.8374C133.352 18.3349 134.878 18.8083 136.319 19.336L140.937 21.0275C142.916 21.7525 145.071 22.0207 147.167 21.8031L150.828 21.423C152.203 21.2802 153.418 20.5926 154.249 19.4864C155.08 18.3806 155.402 17.0219 155.156 15.6607L153.471 6.34644C153.139 4.50784 152.11 2.90858 150.575 1.84354C149.04 0.778488 147.182 0.375003 145.343 0.707603L89.5005 10.8058C86.295 11.3857 84.1509 14.4466 84.6902 17.6503L99.6753 36.7137Z" fill="#1A1A1A"/>
<path d="M101.398 37.2643C105.311 36.5718 110.817 35.5911 111.13 35.5017C113.544 34.8124 115.097 32.2225 114.292 29.6354C113.627 27.4994 114.771 25.2203 116.881 24.4763L129.503 20.0259C130.852 19.5505 132.323 19.5594 133.665 20.0512L138.283 21.7426C140.316 22.4873 142.492 22.7582 144.645 22.5348L148.306 22.1547C151.323 21.8417 153.436 19.0287 152.896 16.0444L151.212 6.73008C150.495 2.76691 146.701 0.13522 142.738 0.851901L86.8959 10.9501C83.4997 11.5642 81.2445 14.8152 81.8586 18.2114C81.8586 18.2114 100.069 37.4995 101.398 37.2643Z" fill="white"/>
<path d="M101.359 37.5665C100.961 37.5665 99.6813 36.935 90.9181 28.0344C86.251 23.2945 81.6879 18.4635 81.6423 18.4153C81.6027 18.3734 81.5762 18.3209 81.566 18.2642C80.9239 14.7123 83.2909 11.3002 86.8426 10.6579L142.685 0.559587C146.803 -0.185799 150.759 2.5595 151.503 6.67725L153.188 15.9915C153.46 17.4951 153.089 19.058 152.172 20.2796C151.254 21.5013 149.856 22.2923 148.336 22.4501L144.676 22.8301C142.49 23.0571 140.244 22.7776 138.18 22.0215L133.563 20.33C132.288 19.8633 130.882 19.8546 129.602 20.3058L116.979 24.7562C115.011 25.4503 113.955 27.5545 114.575 29.5471C114.975 30.8331 114.845 32.1896 114.208 33.3673C113.573 34.5426 112.481 35.4245 111.212 35.7869C110.956 35.8601 107.671 36.4555 101.449 37.5565C101.423 37.5615 101.394 37.5665 101.359 37.5665ZM82.1356 18.0724C88.9462 25.2837 100.109 36.7053 101.369 36.9677C107.289 35.9201 110.817 35.2817 111.048 35.216C112.165 34.8972 113.126 34.1204 113.686 33.085C114.245 32.0492 114.36 30.8556 114.008 29.7236C113.293 27.4247 114.511 24.9969 116.782 24.1964L129.404 19.746C130.814 19.2487 132.363 19.2581 133.767 19.7725L138.385 21.4639C140.364 22.189 142.518 22.4573 144.614 22.2394L148.275 21.8595C149.651 21.7166 150.866 21.0289 151.697 19.923C152.528 18.8172 152.849 17.4585 152.603 16.0972L150.919 6.7829C150.233 2.98738 146.588 0.458379 142.791 1.14406L86.9483 11.2424C83.7476 11.8212 81.6049 14.8742 82.1356 18.0724Z" fill="#1A1A1A"/>
<path d="M157.539 10.2759L181.783 39.4389C183.099 41.0212 183.019 43.3382 181.597 44.8262C181.258 45.1814 180.869 45.4618 180.452 45.6664C179.003 46.3766 174.44 47.0355 174.44 47.0355L152.11 23.3907C149.895 21.3797 147.006 20.2716 144.014 20.2846L137.332 20.314C132.981 20.3331 129.444 16.8117 129.444 12.4611C129.444 8.25685 132.756 4.79838 136.956 4.61564L144.058 4.30648C149.238 4.08116 154.225 6.28942 157.539 10.2759Z" fill="#1A1A1A"/>
<path d="M174.44 47.3324C174.359 47.3324 174.281 47.2993 174.224 47.2393L151.894 23.5947C149.757 21.6562 146.974 20.5816 144.068 20.5816C144.05 20.5816 144.033 20.5816 144.016 20.5817L137.333 20.6111C135.148 20.6115 133.095 19.7774 131.547 18.2368C130 16.696 129.147 14.6449 129.147 12.4613C129.147 8.0859 132.572 4.50924 136.943 4.31908L144.046 4.00993C149.284 3.78097 154.415 6.05337 157.767 10.0862L182.012 39.2492C183.424 40.948 183.338 43.4338 181.813 45.0316C181.456 45.4045 181.042 45.708 180.583 45.9332C179.109 46.6558 174.671 47.3023 174.483 47.3293C174.469 47.3315 174.454 47.3324 174.44 47.3324ZM144.068 19.9877C147.122 19.9877 150.047 21.117 152.31 23.1711L174.55 46.7191C175.35 46.598 179.076 46.0103 180.321 45.4001C180.718 45.2056 181.075 44.9437 181.383 44.6214C182.7 43.2419 182.774 41.0958 181.555 39.629L157.31 10.4659C154.076 6.57491 149.124 4.3808 144.071 4.6033L136.969 4.91245C132.916 5.08899 129.741 8.40489 129.741 12.4615C129.741 14.4859 130.531 16.3877 131.966 17.8161C133.393 19.2364 135.285 20.0175 137.296 20.0175C137.308 20.0175 137.319 20.0173 137.331 20.0173L144.013 19.9878C144.031 19.9877 144.049 19.9877 144.068 19.9877Z" fill="#1A1A1A"/>
<path d="M153.15 11.251L177.395 40.4142C178.71 41.9965 178.63 44.3135 177.209 45.8014C175.691 47.3902 173.184 47.4796 171.557 46.0029L147.721 24.3658C145.506 22.3548 142.618 21.2467 139.626 21.2598L132.943 21.2891C128.593 21.3083 125.056 17.7869 125.056 13.4362C125.056 9.23197 128.367 5.77363 132.567 5.59075L139.67 5.2816C144.849 5.05614 149.836 7.26453 153.15 11.251Z" fill="white"/>
<path d="M174.282 47.3608C173.241 47.3608 172.196 46.984 171.358 46.2226L147.522 24.5855C145.369 22.6312 142.585 21.5564 139.678 21.5564C139.661 21.5564 139.644 21.5564 139.627 21.5566L132.944 21.5859C132.932 21.5859 132.92 21.5861 132.908 21.5861C130.738 21.5861 128.697 20.7437 127.159 19.2116C125.611 17.6709 124.759 15.6197 124.759 13.436C124.759 9.06046 128.183 5.48393 132.554 5.29391L139.657 4.98463C144.895 4.75688 150.026 7.02834 153.379 11.0609L177.623 40.2239C179.035 41.9227 178.95 44.4085 177.424 46.0062C176.565 46.9061 175.425 47.3608 174.282 47.3608ZM139.679 20.9626C142.733 20.9626 145.658 22.092 147.921 24.1461L171.757 45.7831C173.276 47.162 175.577 47.0805 176.994 45.5963C178.312 44.2169 178.386 42.0708 177.166 40.604L152.922 11.441C149.687 7.55002 144.738 5.35577 139.683 5.5784L132.58 5.88769C128.528 6.06396 125.353 9.37972 125.353 13.4364C125.353 15.461 126.143 17.3627 127.578 18.791C129.013 20.2194 130.916 20.9878 132.942 20.9923L139.625 20.9629C139.643 20.9626 139.661 20.9626 139.679 20.9626Z" fill="#1A1A1A"/>
<path d="M77.1507 35.4207L101.967 37.0075C105.227 37.216 107.684 34.0927 106.714 30.9737C106.049 28.8377 107.595 25.7037 109.705 24.9599L121.961 20.9179C123.31 20.4426 124.745 20.8977 126.087 21.3895L130.705 23.0809C132.738 23.8256 134.914 24.0965 137.067 23.8729L140.728 23.4929C143.745 23.1798 145.858 20.3669 145.318 17.3825L143.634 8.06822C142.917 4.10504 139.123 1.47336 135.16 2.19004L79.3177 12.2883C75.9217 12.9024 73.6664 16.1533 74.2805 19.5495L77.1507 35.4207Z" fill="#1A1A1A"/>
<path d="M102.266 37.3141C102.161 37.3141 102.055 37.3107 101.949 37.304L77.1323 35.717C76.9962 35.7082 76.8834 35.6078 76.8592 35.4733L73.9891 19.6022C73.6779 17.8818 74.0554 16.1429 75.052 14.7063C76.0486 13.2696 77.545 12.3071 79.2657 11.9959L135.108 1.89771C139.225 1.15286 143.182 3.89749 143.926 8.01537L145.611 17.3297C145.883 18.8332 145.512 20.3961 144.595 21.6176C143.677 22.8394 142.279 23.6303 140.759 23.7881L137.099 24.1682C134.913 24.3955 132.667 24.1153 130.603 23.3594L125.986 21.668C124.681 21.19 123.303 20.7605 122.061 21.1977L109.798 25.2418C107.844 25.9309 106.376 28.8855 106.998 30.8855C107.482 32.4434 107.17 34.1392 106.161 35.4217C105.218 36.621 103.78 37.3141 102.266 37.3141ZM77.4021 35.1391L101.987 36.7113C103.443 36.8041 104.793 36.2008 105.694 35.0548C106.595 33.9091 106.864 32.4539 106.431 31.0619C105.714 28.7575 107.347 25.4769 109.607 24.68L121.869 20.636C123.291 20.1344 124.784 20.5956 126.19 21.1108L130.808 22.8022C132.787 23.5272 134.941 23.7953 137.038 23.5778L140.698 23.1977C142.074 23.0549 143.289 22.3673 144.12 21.2612C144.951 20.1553 145.273 18.7966 145.027 17.4354L143.343 8.12116C142.656 4.32577 139.011 1.79663 135.214 2.48232L79.3713 12.5804C77.8068 12.8634 76.4463 13.7387 75.5401 15.0448C74.6338 16.3511 74.2907 17.9321 74.5736 19.4965L77.4021 35.1391Z" fill="#1A1A1A"/>
<path d="M74.1809 36.0145L98.9976 37.6014C102.257 37.8099 104.714 34.6866 103.744 31.5676C103.079 29.4315 104.223 27.1524 106.333 26.4085L118.955 21.958C120.304 21.4827 121.775 21.4916 123.118 21.9833L127.735 23.6748C129.768 24.4195 131.944 24.6904 134.098 24.4668L137.758 24.0868C140.775 23.7737 142.888 20.9607 142.348 17.9764L140.664 8.66209C139.947 4.69892 136.153 2.06723 132.19 2.78391L76.348 12.8821C72.9518 13.4962 70.6966 16.7472 71.3108 20.1434L74.1809 36.0145Z" fill="white"/>
<path d="M99.2963 37.9078C99.1909 37.9078 99.0854 37.9045 98.9793 37.8977L74.1626 36.3109C74.0265 36.3021 73.9137 36.2017 73.8894 36.0672L71.0194 20.1961C70.7082 18.4757 71.0857 16.7368 72.0823 15.3002C73.0788 13.8635 74.5753 12.901 76.2959 12.5898L132.138 2.49158C136.255 1.74673 140.212 4.49136 140.957 8.60924L142.641 17.9235C142.913 19.4271 142.543 20.99 141.625 22.2115C140.707 23.4333 139.31 24.2242 137.79 24.382L134.129 24.762C131.943 24.9893 129.697 24.7092 127.634 23.9533L123.016 22.2619C121.742 21.7951 120.335 21.7867 119.055 22.2378L106.432 26.6881C104.464 27.3821 103.408 29.4865 104.028 31.4791C104.513 33.037 104.2 34.7328 103.191 36.0153C102.248 37.2147 100.81 37.9078 99.2963 37.9078ZM74.4324 35.7329L99.0173 37.305C100.472 37.3994 101.823 36.7943 102.724 35.6485C103.625 34.5029 103.894 33.0477 103.461 31.6557C102.746 29.3567 103.964 26.9288 106.235 26.1283L118.857 21.6779C120.267 21.1808 121.817 21.1905 123.22 21.7044L127.838 23.3958C129.817 24.1207 131.971 24.3889 134.068 24.1714L137.728 23.7913C139.104 23.6485 140.32 22.9609 141.15 21.8549C141.981 20.749 142.303 19.3903 142.057 18.0292L140.373 8.71489C139.686 4.9195 136.041 2.3901 132.244 3.07605L76.4019 13.1743C74.8374 13.4573 73.4768 14.3326 72.5706 15.6387C71.6643 16.945 71.3211 18.5259 71.6041 20.0904L74.4324 35.7329Z" fill="#1A1A1A"/>
<path d="M133.991 17.1485C135.639 16.3656 136.216 14.1336 135.28 12.1632C134.344 10.1928 132.249 9.2301 130.601 10.0129C128.953 10.7958 128.376 13.0278 129.312 14.9982C130.248 16.9686 132.343 17.9313 133.991 17.1485Z" fill="white"/>
<path d="M132.761 17.7143C132.261 17.7143 131.75 17.5998 131.252 17.371C130.305 16.9358 129.518 16.1368 129.036 15.1211C128.553 14.1053 128.431 12.9903 128.692 11.9813C128.958 10.953 129.587 10.1571 130.465 9.74016C132.259 8.88831 134.535 9.91616 135.54 12.031C136.544 14.146 135.903 16.5598 134.11 17.4118C133.685 17.6135 133.228 17.7143 132.761 17.7143ZM131.813 10.0334C131.438 10.0334 131.068 10.1116 130.72 10.2768C130.004 10.6169 129.488 11.2753 129.267 12.1302C129.041 13.0044 129.149 13.9761 129.572 14.8662C129.995 15.7563 130.68 16.4542 131.5 16.8312C132.302 17.1999 133.139 17.2154 133.855 16.8753C135.352 16.1639 135.868 14.1052 135.003 12.286C134.339 10.889 133.053 10.0334 131.813 10.0334Z" fill="#1A1A1A"/>
<path d="M83.0596 23.8203L88.3614 24.6906C90.9329 25.1127 92.8203 27.3351 92.8203 29.9411V38.1105C92.8203 40.0755 94.219 41.7623 96.1499 42.126C99.45 42.7477 101.84 45.6303 101.84 48.9885V89.3884L96.4154 90.4507L67.9102 65.3091L75.4101 25.0674C75.4101 25.0674 79.123 24.3001 81.0515 23.8739C81.6942 23.7319 82.3733 23.7076 83.0596 23.8203Z" fill="#1A1A1A"/>
<path d="M96.4157 90.7477C96.3442 90.7477 96.2741 90.7217 96.2192 90.6735L67.7137 65.5318C67.6354 65.4627 67.5992 65.3575 67.6183 65.2548L75.1183 25.0131C75.1404 24.8945 75.232 24.8011 75.3499 24.7766C75.3871 24.7691 79.0828 24.0048 80.9873 23.5839C81.6846 23.4298 82.3979 23.4109 83.1078 23.5272L88.4096 24.3974C91.1374 24.8453 93.1172 27.1768 93.1172 29.9409V38.1104C93.1172 39.9311 94.4157 41.497 96.2048 41.8341C99.6424 42.4818 102.137 45.4905 102.137 48.9885V89.3884C102.137 89.5303 102.037 89.6525 101.897 89.6799L96.4726 90.7423C96.4539 90.7458 96.4347 90.7477 96.4157 90.7477ZM68.2331 65.1979L96.5024 90.131L101.544 89.1438V48.9885C101.544 45.776 99.2523 43.0127 96.0953 42.4179C94.0257 42.028 92.5236 40.2165 92.5236 38.1104V29.9409C92.5236 27.4689 90.753 25.384 88.3136 24.9835L83.0119 24.1133C82.3768 24.0088 81.7387 24.026 81.1158 24.1638C79.4605 24.5296 76.4576 25.1537 75.6658 25.3178L68.2331 65.1979Z" fill="#1A1A1A"/>
<path d="M77.8855 24.8983L83.1873 25.7686C85.7587 26.1907 87.6461 28.4131 87.6461 31.0191V39.1885C87.6461 41.1535 89.0447 42.8402 90.9759 43.204C94.276 43.8256 96.6663 46.7083 96.6663 50.0665V90.4664L72.7191 86.2362L65.991 72.8588C63.8897 68.681 63.3427 63.8922 64.4477 59.348L71.8535 28.8915C72.5109 26.1881 75.14 24.4477 77.8855 24.8983Z" fill="white"/>
<path d="M96.6665 90.7634C96.6492 90.7634 96.632 90.762 96.6149 90.759L72.6676 86.5287C72.5753 86.5123 72.4961 86.4535 72.4539 86.3697L65.7256 72.9922C63.5951 68.7562 63.0387 63.8855 64.1591 59.278L71.5651 28.8215C72.2549 25.9843 75.0519 24.1328 77.9337 24.6053L83.2354 25.4756C85.9633 25.9234 87.9431 28.2547 87.9431 31.0191V39.1886C87.9431 41.0093 89.2416 42.5752 91.0307 42.9121C94.4683 43.5598 96.9632 46.5687 96.9632 50.0667V90.4666C96.9632 90.5543 96.9244 90.6377 96.857 90.694C96.8035 90.7392 96.7357 90.7634 96.6665 90.7634ZM72.9176 85.9698L96.3695 90.1125V50.0667C96.3695 46.8542 94.078 44.0907 90.921 43.4959C88.8514 43.1062 87.3494 41.2947 87.3494 39.1887V31.0193C87.3494 28.5471 85.5788 26.4622 83.1393 26.0618L77.8376 25.1915C75.262 24.7686 72.7592 26.4247 72.1425 28.9619L64.7365 59.4184C63.6494 63.8893 64.189 68.6152 66.2565 72.7255L72.9176 85.9698Z" fill="#1A1A1A"/>
<path d="M80.7857 36.9593C82.4336 36.1764 83.0108 33.9444 82.0748 31.974C81.1388 30.0036 79.044 29.0409 77.396 29.8237C75.7481 30.6066 75.1709 32.8385 76.1069 34.809C77.0429 36.7794 79.1377 37.7421 80.7857 36.9593Z" fill="white"/>
<path d="M79.5584 37.5246C79.0593 37.5246 78.5482 37.41 78.0501 37.1812C77.1032 36.746 76.316 35.9472 75.8335 34.9313C75.3509 33.9156 75.2288 32.8005 75.4897 31.7915C75.7554 30.7633 76.3853 29.9674 77.2632 29.5504C79.0564 28.6984 81.3327 29.7264 82.3375 31.8413C83.3422 33.9563 82.7008 36.3701 80.9078 37.222C80.483 37.4239 80.026 37.5246 79.5584 37.5246ZM78.6107 29.8438C78.2359 29.8438 77.8656 29.9219 77.518 30.087C76.8019 30.4272 76.2856 31.0855 76.0646 31.9403C75.8386 32.8147 75.9469 33.7863 76.37 34.6765C76.7928 35.5666 77.4775 36.2644 78.298 36.6415C79.1002 37.0101 79.9368 37.0257 80.6529 36.6855C82.1502 35.9741 82.6652 33.9154 81.8011 32.0962C81.1373 30.6994 79.8504 29.8438 78.6107 29.8438Z" fill="#1A1A1A"/>
<path d="M87.026 51.9574L83.3624 65.4144C80.4697 76.0398 66.7474 78.9016 59.8488 70.3182C54.0712 63.1299 57.0563 52.3926 65.7149 49.2175L78.2759 44.6115C83.0506 42.8607 87.9237 46.9517 87.026 51.9574Z" fill="white"/>
<path d="M70.241 75.666C66.1317 75.666 62.2993 73.8411 59.6175 70.5043C56.803 67.0026 55.8791 62.5117 57.0824 58.1833C58.2856 53.8551 61.3949 50.4854 65.6129 48.9387L78.1738 44.3327C80.5171 43.4734 83.0573 43.9184 84.9692 45.5234C86.8808 47.1283 87.759 49.5531 87.3186 52.01C87.3169 52.0185 87.3151 52.0271 87.3128 52.0355L83.6493 65.4926C82.261 70.5925 78.3429 74.2813 73.1689 75.3603C72.1852 75.5655 71.2052 75.666 70.241 75.666ZM80.5666 44.4975C79.8357 44.4975 79.0969 44.6268 78.3782 44.8904L65.8173 49.4964C61.7813 50.9764 58.806 54.2006 57.6546 58.3425C56.5032 62.4843 57.3874 66.7815 60.0804 70.1321C63.249 74.0743 68.0974 75.8115 73.0475 74.779C77.9987 73.7464 81.7478 70.2165 83.0763 65.3365L86.7362 51.8924C87.1335 49.6517 86.3309 47.4419 84.5874 45.9782C83.4268 45.0041 82.0127 44.4975 80.5666 44.4975Z" fill="#1A1A1A"/>
<path d="M83.1256 52.6886L79.462 66.1456C76.5694 76.771 62.847 79.6328 55.9484 71.0494C50.1708 63.8611 53.1559 53.1238 61.8145 49.9487L74.3755 45.3427C79.1501 43.5919 84.0232 47.6829 83.1256 52.6886Z" fill="white"/>
<path d="M66.3408 76.3972C62.2315 76.3972 58.3991 74.5722 55.7172 71.2354C52.9028 67.7338 51.9786 63.2429 53.182 58.9146C54.3854 54.5863 57.4945 51.2166 61.7125 49.6699L74.2736 45.0638C76.6166 44.2048 79.1573 44.6496 81.0688 46.2545C82.9805 47.8595 83.8589 50.2843 83.4183 52.7411C83.4167 52.7498 83.4148 52.7583 83.4125 52.7667L79.749 66.2236C78.3606 71.3235 74.4426 75.0123 69.2685 76.0914C68.2849 76.2965 67.305 76.3972 66.3408 76.3972ZM76.6662 45.2286C75.9355 45.2286 75.1966 45.3579 74.478 45.6214L61.917 50.2275C57.881 51.7074 54.9057 54.9318 53.7542 59.0737C52.6028 63.2155 53.487 67.5127 56.1802 70.8633C59.3488 74.8055 64.196 76.5424 69.1472 75.51C74.0984 74.4774 77.8474 70.9477 79.1758 66.0677L82.8359 52.6234C83.233 50.3829 82.4302 48.1731 80.6869 46.7094C79.5264 45.7352 78.1124 45.2286 76.6662 45.2286Z" fill="#1A1A1A"/>
<path d="M68.5623 69.6561C71.6396 68.1943 72.7173 64.0266 70.9695 60.3473C69.2217 56.668 65.3102 54.8704 62.233 56.3322C59.1557 57.794 58.078 61.9617 59.8258 65.641C61.5736 69.3203 65.4851 71.1179 68.5623 69.6561Z" fill="white"/>
<path d="M66.276 70.4575C65.3809 70.4575 64.4626 70.2515 63.5673 69.8402C61.8541 69.0527 60.4286 67.6047 59.5533 65.7625C57.738 61.9413 58.8808 57.588 62.1009 56.0582C65.3212 54.5282 69.4177 56.3927 71.233 60.2138C73.0483 64.0349 71.9053 68.3882 68.6852 69.9181C67.9276 70.2779 67.112 70.4575 66.276 70.4575ZM64.5044 56.116C63.7679 56.116 63.0398 56.2697 62.3557 56.5947C59.4315 57.984 58.4151 61.9822 60.0898 65.5075C60.9052 67.2241 62.2282 68.5711 63.8151 69.3004C65.3839 70.0214 67.0228 70.0501 68.4303 69.3816C71.3547 67.9923 72.3711 63.9941 70.6963 60.4688C69.4132 57.7678 66.9166 56.116 64.5044 56.116Z" fill="#1A1A1A"/>
<path d="M96.665 90.4434V55.9502L120.584 51.7906V86.2127L96.665 90.4434Z" fill="#1A1A1A"/>
<path d="M101.831 55.3444C101.689 55.3444 101.564 55.243 101.539 55.0986C101.51 54.937 101.618 54.7831 101.78 54.755L115.731 52.3152C115.894 52.2863 116.046 52.395 116.074 52.5564C116.103 52.718 115.995 52.8719 115.833 52.9001L101.882 55.3399C101.865 55.3431 101.848 55.3444 101.831 55.3444Z" fill="#1A1A1A"/>
<path d="M96.6652 90.7406C96.5959 90.7406 96.5283 90.7163 96.4744 90.6712C96.4071 90.6147 96.3682 90.5316 96.3682 90.4437V55.9503C96.3682 55.7863 96.5012 55.6534 96.6652 55.6534C96.8292 55.6534 96.9621 55.7864 96.9621 55.9503V90.0895L120.287 85.9638V51.7909C120.287 51.6269 120.42 51.4939 120.584 51.4939C120.748 51.4939 120.881 51.6269 120.881 51.7909V86.2129C120.881 86.3568 120.777 86.4802 120.635 86.5053L96.7169 90.736C96.6997 90.7391 96.6824 90.7406 96.6652 90.7406Z" fill="#1A1A1A"/>
<path d="M10.0946 188.972L68.9516 199.261L128.411 188.844C128.495 188.83 128.495 188.709 128.411 188.694L68.2718 178.164L10.0937 188.589C9.8798 188.627 9.88035 188.934 10.0946 188.972Z" fill="white"/>
<path d="M68.7829 207.156L68.8186 199.568L9.82293 188.884L0.873047 195.112L68.7829 207.156Z" fill="white"/>
<path d="M68.7829 207.453C68.7656 207.453 68.7482 207.452 68.731 207.449L0.821266 195.404C0.702942 195.383 0.609011 195.293 0.583136 195.175C0.557261 195.058 0.604834 194.936 0.703482 194.868L9.65323 188.64C9.71819 188.595 9.79864 188.578 9.87586 188.592L68.8716 199.275C69.0133 199.301 69.1163 199.425 69.1156 199.569L69.0798 207.158C69.0794 207.245 69.0403 207.328 68.973 207.384C68.9194 207.429 68.8519 207.453 68.7829 207.453ZM1.63282 194.945L68.4875 206.802L68.5205 199.816L9.89136 189.198L1.63282 194.945Z" fill="#1A1A1A"/>
<path d="M0.981445 228.77L9.86058 235.406L68.9169 245.955L68.8912 240.814L0.981445 228.77Z" fill="white"/>
<path d="M68.917 246.252C68.8996 246.252 68.8822 246.25 68.8648 246.247L9.80848 235.698C9.76293 235.69 9.71981 235.671 9.68289 235.644L0.803753 229.007C0.693515 228.925 0.654433 228.778 0.709013 228.651C0.763727 228.525 0.898763 228.454 1.03339 228.477L68.9431 240.522C69.0844 240.547 69.1875 240.669 69.1881 240.813L69.214 245.954C69.2144 246.042 69.1757 246.126 69.1083 246.182C69.0543 246.228 68.9865 246.252 68.917 246.252ZM9.9822 235.126L68.6183 245.6L68.5956 241.063L2.16097 229.28L9.9822 235.126Z" fill="#1A1A1A"/>
<path d="M68.7829 240.629V207.083L0.873047 195.313V228.584L68.7829 240.629Z" fill="white"/>
<path d="M68.7838 240.926C68.7665 240.926 68.7491 240.924 68.7319 240.921L0.82215 228.877C0.680378 228.852 0.577148 228.728 0.577148 228.584V195.313C0.577148 195.226 0.615826 195.143 0.682804 195.086C0.749647 195.03 0.837782 195.006 0.92484 195.021L68.8346 206.79C68.9767 206.815 69.0808 206.938 69.0808 207.083V240.629C69.0808 240.717 69.042 240.8 68.9746 240.856C68.9207 240.901 68.853 240.926 68.7838 240.926ZM1.17106 228.335L68.4869 240.274V207.332L1.17106 195.666V228.335Z" fill="#1A1A1A"/>
<path d="M68.7832 240.629V207.083L136.104 195.298V228.643L68.7832 240.629Z" fill="white"/>
<path d="M68.7834 240.926C68.7142 240.926 68.6464 240.901 68.5927 240.856C68.5253 240.8 68.4863 240.717 68.4863 240.629V207.083C68.4863 206.938 68.59 206.815 68.7321 206.79L136.053 195.006C136.139 194.99 136.228 195.015 136.295 195.071C136.362 195.128 136.401 195.211 136.401 195.298V228.643C136.401 228.787 136.298 228.91 136.156 228.935L68.8354 240.921C68.8183 240.924 68.8006 240.926 68.7834 240.926ZM69.0804 207.332V240.274L135.807 228.394V195.652L69.0804 207.332Z" fill="#1A1A1A"/>
<path d="M72.0304 236.813C71.9613 236.813 71.8936 236.789 71.8399 236.744C71.7725 236.688 71.7334 236.604 71.7334 236.516V210.465C71.7334 210.321 71.8368 210.198 71.9787 210.173L132.988 199.389C133.073 199.373 133.163 199.398 133.23 199.454C133.297 199.511 133.336 199.594 133.336 199.682V225.576C133.336 225.72 133.233 225.843 133.092 225.868L72.0828 236.809C72.0653 236.812 72.0478 236.813 72.0304 236.813ZM72.3274 210.714V236.161L132.742 225.327V200.036L72.3274 210.714Z" fill="#1A1A1A"/>
<path d="M86.4287 220.704V213.541L118.641 207.848V214.927L86.4287 220.704Z" fill="white"/>
<path d="M86.4289 221C86.3597 221 86.2921 220.976 86.2383 220.931C86.1709 220.875 86.1318 220.791 86.1318 220.704V213.541C86.1318 213.397 86.2352 213.274 86.3772 213.249L118.589 207.555C118.675 207.54 118.765 207.564 118.832 207.62C118.899 207.677 118.938 207.76 118.938 207.848V214.927C118.938 215.071 118.835 215.194 118.693 215.219L86.4813 220.996C86.4638 220.999 86.4462 221 86.4289 221ZM86.7257 213.791V220.348L118.344 214.678V208.202L86.7257 213.791Z" fill="#1A1A1A"/>
<path d="M86.4289 221C86.3597 221 86.2921 220.976 86.2383 220.931C86.1709 220.875 86.1318 220.791 86.1318 220.704V213.541C86.1318 213.397 86.2352 213.274 86.3772 213.249L118.589 207.555C118.675 207.54 118.765 207.564 118.832 207.62C118.899 207.677 118.938 207.76 118.938 207.848V214.927C118.938 215.071 118.835 215.194 118.693 215.219L86.4813 220.996C86.4638 220.999 86.4462 221 86.4289 221ZM86.7257 213.791V220.348L118.344 214.678V208.202L86.7257 213.791Z" fill="#1A1A1A"/>
<path d="M97.0889 229.507V223.258L107.98 221.333V227.554L97.0889 229.507Z" fill="#1A1A1A"/>
<path d="M54.4148 237.732L38.9192 213.584L30.3312 212.131L15.167 230.802L54.4148 237.732Z" fill="white"/>
<path d="M54.4148 238.029C54.3977 238.029 54.3805 238.027 54.3632 238.024L15.1155 231.095C15.0118 231.077 14.9256 231.005 14.8888 230.906C14.8521 230.807 14.8702 230.697 14.9365 230.615L30.1007 211.943C30.1682 211.86 30.2753 211.819 30.3808 211.838L38.969 213.292C39.0514 213.306 39.1241 213.354 39.1694 213.424L54.6648 237.571C54.7284 237.67 54.7274 237.798 54.662 237.896C54.6063 237.98 54.5131 238.029 54.4148 238.029ZM15.7158 230.598L53.7987 237.321L38.7403 213.855L30.4524 212.452L15.7158 230.598Z" fill="#1A1A1A"/>
<path d="M68.7832 207.302L68.8189 199.568L128.429 189.101L136.104 195.316L68.7832 207.302Z" fill="white"/>
<path d="M68.7832 207.599C68.7138 207.599 68.6459 207.575 68.592 207.529C68.5246 207.473 68.4858 207.389 68.4863 207.301L68.5222 199.566C68.5229 199.423 68.6262 199.3 68.7679 199.275L128.378 188.809C128.463 188.794 128.55 188.816 128.617 188.87L136.291 195.085C136.381 195.158 136.421 195.278 136.392 195.39C136.363 195.503 136.271 195.588 136.156 195.608L68.8355 207.594C68.8181 207.598 68.8005 207.599 68.7832 207.599ZM69.1149 199.817L69.0819 206.947L135.412 195.138L128.348 189.417L69.1149 199.817Z" fill="#1A1A1A"/>
<path d="M68.917 245.955L68.9646 240.758L136.104 228.642L128.559 235.201L68.917 245.955Z" fill="white"/>
<path d="M68.917 246.252C68.8476 246.252 68.7796 246.227 68.7255 246.182C68.658 246.125 68.6193 246.041 68.6201 245.952L68.6677 240.755C68.669 240.613 68.7715 240.491 68.9119 240.466L136.051 228.35C136.183 228.327 136.314 228.393 136.372 228.514C136.43 228.635 136.4 228.779 136.299 228.867L128.754 235.425C128.713 235.46 128.664 235.483 128.612 235.493L68.9696 246.247C68.9523 246.25 68.9347 246.252 68.917 246.252ZM69.2593 241.007L69.2174 245.599L128.426 234.923L135.095 229.126L69.2593 241.007Z" fill="#1A1A1A"/>
<path d="M61.514 222.796C62.8523 222.796 63.9372 221.602 63.9372 220.13C63.9372 218.658 62.8523 217.465 61.514 217.465C60.1757 217.465 59.0908 218.658 59.0908 220.13C59.0908 221.602 60.1757 222.796 61.514 222.796Z" fill="#1A1A1A"/>
<path d="M61.514 233.399C62.8523 233.399 63.9372 232.206 63.9372 230.733C63.9372 229.261 62.8523 228.068 61.514 228.068C60.1757 228.068 59.0908 229.261 59.0908 230.733C59.0908 232.206 60.1757 233.399 61.514 233.399Z" fill="#1A1A1A"/>
<path d="M8.67321 213.563C10.0115 213.563 11.0964 212.37 11.0964 210.898C11.0964 209.426 10.0115 208.232 8.67321 208.232C7.33491 208.232 6.25 209.426 6.25 210.898C6.25 212.37 7.33491 213.563 8.67321 213.563Z" fill="#1A1A1A"/>
<path d="M8.67321 224.166C10.0115 224.166 11.0964 222.973 11.0964 221.501C11.0964 220.029 10.0115 218.835 8.67321 218.835C7.33491 218.835 6.25 220.029 6.25 221.501C6.25 222.973 7.33491 224.166 8.67321 224.166Z" fill="#1A1A1A"/>
<path d="M65.2169 214.191L4.34375 203.587V200.364L65.2169 210.968V214.191Z" fill="white"/>
<path d="M65.216 214.487C65.1991 214.487 65.1821 214.486 65.1651 214.483L4.29198 203.879C4.14967 203.855 4.0459 203.731 4.0459 203.587V200.364C4.0459 200.277 4.08458 200.194 4.15169 200.137C4.21867 200.08 4.30762 200.057 4.39373 200.072L65.2668 210.675C65.4091 210.7 65.5129 210.824 65.5129 210.968V214.19C65.5129 214.278 65.4742 214.361 65.4071 214.418C65.3531 214.463 65.2853 214.487 65.216 214.487ZM4.63981 203.337L64.9189 213.837V211.217L4.63981 200.717V203.337Z" fill="#1A1A1A"/>
<path d="M102.894 182.832C102.894 182.832 102.789 182.837 102.589 182.845C101.727 180.146 86.7902 177.997 68.4889 177.997C50.8824 177.997 36.3906 179.986 34.5484 182.54C34.3105 182.526 34.1869 182.518 34.1869 182.518C34.1869 182.518 30.6113 188.907 30.6113 189.079C30.6113 192.2 47.5698 194.73 68.4889 194.73C89.4081 194.73 106.367 192.2 106.367 189.079C106.367 189.027 102.894 182.832 102.894 182.832Z" fill="#1A1A1A"/>
<path d="M120.022 108.278L69.8083 116.999L19.6377 108.267L70.3778 99.4404L120.022 108.278Z" fill="white"/>
<path d="M69.8083 116.999L19.6377 108.267L69.884 99.8917L69.8083 116.999Z" fill="#1A1A1A"/>
<path d="M69.8174 190.91V116.926L120.228 108.247V182.028L69.8174 190.91Z" fill="#1A1A1A"/>
<path d="M78.8937 171.625C78.8246 171.625 78.7568 171.601 78.703 171.556C78.6356 171.499 78.5967 171.416 78.5967 171.328V135.959C78.5967 135.814 78.7004 135.691 78.8428 135.666L111.426 130C111.512 129.985 111.601 130.009 111.668 130.066C111.735 130.122 111.774 130.205 111.774 130.293V165.53C111.774 165.674 111.671 165.797 111.529 165.822L78.9457 171.62C78.9283 171.624 78.911 171.625 78.8937 171.625ZM79.1906 136.208V170.973L111.18 165.281V130.646L79.1906 136.208Z" fill="white"/>
<path d="M92.0857 164.739C92.0728 164.739 92.0594 164.738 92.0472 164.738C90.93 164.71 89.8849 164.241 89.0947 163.408C88.2866 162.557 87.8421 161.427 87.8428 160.226L87.8445 159.475C87.8455 158.87 88.3246 158.377 88.9123 158.377C89.2023 158.377 89.4737 158.495 89.6764 158.708C89.8727 158.915 89.9807 159.189 89.9804 159.478L89.9801 160.262C89.9801 160.875 90.2055 161.45 90.6149 161.881C91.0184 162.306 91.5527 162.54 92.1195 162.54C92.1237 162.54 92.1283 162.54 92.1325 162.54C92.6909 162.534 93.2165 162.301 93.6142 161.882C94.024 161.45 94.2495 160.875 94.2495 160.262L94.2568 138.237C94.2568 137.92 94.3891 137.619 94.6201 137.41C94.8411 137.21 95.1355 137.112 95.4307 137.143C95.9697 137.197 96.3917 137.69 96.3917 138.264V160.229C96.3917 161.429 95.9466 162.559 95.1385 163.41C94.3449 164.245 93.2943 164.715 92.172 164.738C92.1651 164.738 92.1581 164.739 92.1508 164.739H92.1257C92.1123 164.739 92.0989 164.739 92.0857 164.739Z" fill="white"/>
<path d="M105.569 148.856C106.235 148.743 106.664 148.081 106.492 147.427C104.976 141.665 99.873 139.879 94.4319 140.816C89.1971 141.718 85.2374 145.771 83.9172 150.883C83.7067 151.697 84.3942 152.462 85.2238 152.321L105.569 148.856Z" fill="white"/>
<path d="M69.8173 190.91V116.926L19.8438 108.236V182.071L69.8173 190.91Z" fill="white"/>
<path d="M69.8165 191.207C69.7992 191.207 69.782 191.206 69.7648 191.203L19.791 182.363C19.6493 182.338 19.5459 182.215 19.5459 182.071V108.236C19.5459 108.148 19.5846 108.065 19.6517 108.008C19.7189 107.952 19.8071 107.928 19.8937 107.943L69.8674 116.633C70.0096 116.658 70.1135 116.782 70.1135 116.926V190.91C70.1135 190.998 70.0747 191.081 70.0073 191.137C69.9534 191.183 69.8859 191.207 69.8165 191.207ZM20.1398 181.822L69.5196 190.556V117.176L20.1398 108.589V181.822Z" fill="#1A1A1A"/>
<path d="M56.5165 166.521C56.4999 166.521 56.4835 166.519 56.4669 166.516L31.808 162.343C31.6651 162.319 31.5605 162.195 31.5605 162.05V156.609C31.5605 156.522 31.5992 156.439 31.6663 156.382C31.7334 156.326 31.8219 156.302 31.9084 156.317L56.5673 160.61C56.7095 160.635 56.8134 160.758 56.8134 160.902V166.224C56.8134 166.311 56.7748 166.394 56.7081 166.451C56.6541 166.496 56.586 166.521 56.5165 166.521ZM32.1546 161.799L56.2196 165.872V161.152L32.1546 156.962V161.799Z" fill="#1A1A1A"/>
<path d="M52.6989 157.395C52.6823 157.395 52.6659 157.394 52.6493 157.391L47.7248 156.558C47.582 156.534 47.4774 156.41 47.4774 156.265V143.622L45.124 143.213C45.017 143.194 44.9286 143.119 44.8937 143.016C44.8588 142.913 44.8828 142.799 44.9565 142.719L50.0181 137.225C50.0789 137.159 50.1649 137.123 50.2564 137.13C50.346 137.136 50.4282 137.183 50.4798 137.256L55.5705 144.525C55.6393 144.623 55.642 144.754 55.5776 144.855C55.513 144.956 55.3938 145.01 55.2755 144.988L52.9959 144.584V157.099C52.9959 157.186 52.9574 157.269 52.8906 157.325C52.8365 157.371 52.7684 157.395 52.6989 157.395ZM48.0715 156.014L52.4019 156.747V144.23C52.4019 144.142 52.4407 144.058 52.508 144.002C52.5754 143.945 52.6638 143.922 52.7506 143.937L54.6721 144.278L50.2051 137.899L45.7625 142.721L47.8255 143.08C47.9678 143.105 48.0716 143.228 48.0716 143.372L48.0715 156.014Z" fill="#1A1A1A"/>
<path d="M40.5711 155.366C40.5545 155.366 40.5381 155.364 40.5215 155.362L35.5969 154.528C35.4541 154.504 35.3495 154.38 35.3495 154.236V141.593L32.9961 141.183C32.8891 141.165 32.8007 141.089 32.7658 140.986C32.7309 140.883 32.7548 140.769 32.8286 140.69L37.8903 135.196C37.9513 135.13 38.0368 135.094 38.1286 135.101C38.2182 135.107 38.3004 135.153 38.352 135.227L43.4427 142.496C43.5115 142.594 43.5144 142.724 43.4498 142.826C43.3854 142.927 43.2664 142.98 43.1477 142.959L40.8681 142.554V155.069C40.8681 155.157 40.8296 155.24 40.7629 155.296C40.7087 155.341 40.6406 155.366 40.5711 155.366ZM35.9435 153.985L40.2742 154.717V142.2C40.2742 142.112 40.313 142.029 40.3804 141.973C40.4478 141.916 40.5366 141.892 40.623 141.908L42.5444 142.248L38.0774 135.87L33.6347 140.691L35.6977 141.05C35.84 141.075 35.9438 141.198 35.9438 141.343V153.985H35.9435Z" fill="#1A1A1A"/>
<path d="M60.479 171.625C60.4618 171.625 60.4444 171.623 60.427 171.62L27.8435 165.822C27.7019 165.797 27.5986 165.674 27.5986 165.53V130.293C27.5986 130.205 27.6373 130.122 27.7044 130.065C27.7715 130.009 27.8603 129.985 27.9465 130L60.53 135.666C60.6723 135.691 60.776 135.814 60.776 135.958V171.328C60.776 171.416 60.7372 171.499 60.6697 171.556C60.6158 171.601 60.5482 171.625 60.479 171.625ZM28.1924 165.281L60.182 170.973V136.208L28.1924 130.646V165.281Z" fill="#1A1A1A"/>
<path d="M136.637 105.671L119.091 108.083L69.2412 99.8126L87.9002 97.1733L136.637 105.671Z" fill="white"/>
<path d="M119.09 108.38C119.074 108.38 119.057 108.378 119.041 108.376L69.1918 100.106C69.047 100.082 68.9416 99.9557 68.9434 99.8092C68.9451 99.6626 69.0536 99.5393 69.1988 99.5186L87.8578 96.8795C87.8885 96.8755 87.9196 96.8756 87.9505 96.881L136.687 105.379C136.831 105.404 136.936 105.53 136.933 105.677C136.93 105.823 136.822 105.946 136.677 105.966L119.13 108.377C119.117 108.379 119.103 108.38 119.09 108.38ZM71.1956 99.836L119.094 107.782L134.708 105.637L87.8944 97.4741L71.1956 99.836Z" fill="#1A1A1A"/>
<path d="M70.6223 99.6428L20.4147 108.316L0.296875 106.947L50.0414 98.1913L70.6223 99.6428Z" fill="white"/>
<path d="M20.4148 108.613C20.4082 108.613 20.4013 108.612 20.3946 108.612L0.276825 107.243C0.126966 107.233 0.00837361 107.113 0.000422467 106.963C-0.00752867 106.813 0.0975872 106.68 0.245424 106.655L49.9898 97.8988C50.0135 97.8945 50.0379 97.8936 50.0621 97.8951L70.6433 99.3465C70.7931 99.3571 70.9114 99.4779 70.9189 99.6277C70.9266 99.7777 70.821 99.9098 70.673 99.9353L20.4652 108.608C20.4486 108.611 20.4317 108.613 20.4148 108.613ZM2.75233 106.816L20.3995 108.017L68.1602 99.7667L50.0572 98.4901L2.75233 106.816Z" fill="#1A1A1A"/>
<path d="M69.809 116.999L58.5049 129.206L5.66504 119.935L19.8625 108.311L69.809 116.999Z" fill="white"/>
<path d="M58.5041 129.503C58.487 129.503 58.4699 129.502 58.4527 129.499L5.61285 120.228C5.49843 120.208 5.40639 120.123 5.37688 120.01C5.3475 119.898 5.38617 119.779 5.47606 119.705L19.6734 108.081C19.74 108.026 19.8276 108.004 19.9124 108.018L69.859 116.706C69.9661 116.725 70.0545 116.801 70.0894 116.904C70.1242 117.007 70.1 117.121 70.0261 117.201L58.722 129.408C58.6653 129.469 58.586 129.503 58.5041 129.503ZM6.35338 119.754L58.396 128.886L69.2191 117.198L19.9444 108.627L6.35338 119.754Z" fill="#1A1A1A"/>
<path d="M120.065 108.289L133.869 120.515L81.7473 129.789L69.8867 117.142L120.065 108.289Z" fill="white"/>
<path d="M81.7463 130.085C81.6649 130.085 81.5863 130.052 81.5297 129.992L69.6692 117.346C69.5947 117.266 69.5696 117.152 69.6041 117.049C69.6385 116.945 69.7269 116.869 69.8342 116.85L120.012 107.997C120.102 107.981 120.193 108.007 120.261 108.067L134.065 120.293C134.15 120.368 134.185 120.486 134.154 120.596C134.123 120.705 134.032 120.788 133.92 120.807L81.7985 130.081C81.7809 130.084 81.7636 130.085 81.7463 130.085ZM70.4778 117.34L81.8528 129.468L133.211 120.33L119.974 108.606L70.4778 117.34Z" fill="#1A1A1A"/>
<path d="M69.8182 191.207C69.6767 191.207 69.5514 191.106 69.526 190.962C69.4976 190.8 69.6055 190.646 69.767 190.618L103.989 184.588C104.15 184.559 104.305 184.667 104.333 184.829C104.362 184.99 104.254 185.144 104.092 185.173L69.87 191.203C69.8526 191.206 69.8353 191.207 69.8182 191.207Z" fill="white"/>
<path d="M219.374 37.0346C226.831 37.0346 232.876 30.9895 232.876 23.5325C232.876 16.0755 226.831 10.0304 219.374 10.0304C211.917 10.0304 205.872 16.0755 205.872 23.5325C205.872 30.9895 211.917 37.0346 219.374 37.0346Z" fill="white"/>
<path d="M219.374 37.3315C211.765 37.3315 205.575 31.1414 205.575 23.5325C205.575 15.9237 211.765 9.7334 219.374 9.7334C226.983 9.7334 233.173 15.9237 233.173 23.5325C233.173 31.1414 226.983 37.3315 219.374 37.3315ZM219.374 10.3274C212.093 10.3274 206.169 16.2512 206.169 23.5327C206.169 30.8139 212.093 36.7378 219.374 36.7378C226.656 36.7378 232.579 30.814 232.579 23.5327C232.579 16.2512 226.656 10.3274 219.374 10.3274Z" fill="#1A1A1A"/>
<path d="M219.374 14.8711C216.12 14.8711 213.481 17.5017 213.481 20.7469C213.481 21.558 213.85 22.6925 214.402 23.9381C215.795 27.0774 218.357 30.9219 219.14 32.0705C219.253 32.235 219.495 32.2354 219.607 32.0709C220.701 30.4672 225.267 23.6031 225.267 20.7469C225.267 17.5017 222.628 14.8711 219.374 14.8711Z" fill="#1A1A1A"/>
<path d="M221.195 22.557C222.202 21.5502 222.202 19.9178 221.195 18.911C220.188 17.9041 218.555 17.9041 217.549 18.911C216.542 19.9178 216.542 21.5502 217.549 22.557C218.555 23.5639 220.188 23.5639 221.195 22.557Z" fill="white"/>
<path d="M22.947 87.4849C32.785 87.4849 40.7603 79.5096 40.7603 69.6716C40.7603 59.8337 32.785 51.8584 22.947 51.8584C13.1091 51.8584 5.13379 59.8337 5.13379 69.6716C5.13379 79.5096 13.1091 87.4849 22.947 87.4849Z" fill="white"/>
<path d="M22.9461 87.7818C12.9601 87.7818 4.83594 79.6576 4.83594 69.6717C4.83594 59.6857 12.9601 51.5615 22.9461 51.5615C32.932 51.5615 41.0563 59.6857 41.0563 69.6717C41.0563 79.6576 32.932 87.7818 22.9461 87.7818ZM22.9461 52.1554C13.2876 52.1554 5.42984 60.0132 5.42984 69.6717C5.42984 79.3301 13.2876 87.1879 22.9461 87.1879C32.6047 87.1879 40.4624 79.3301 40.4624 69.6717C40.4624 60.0132 32.6045 52.1554 22.9461 52.1554Z" fill="#1A1A1A"/>
<path d="M22.947 58.2445C18.6533 58.2445 15.1729 61.7151 15.1729 65.9963C15.1729 67.0665 15.6587 68.5632 16.3875 70.2065C18.2245 74.3483 21.6051 79.4201 22.6386 80.9356C22.7868 81.1527 23.1066 81.1532 23.2547 80.9361C24.6979 78.8203 30.721 69.7646 30.721 65.9963C30.7211 61.7151 27.2405 58.2445 22.947 58.2445Z" fill="#1A1A1A"/>
<path d="M22.9464 69.3791C24.825 69.3791 26.3479 67.8562 26.3479 65.9776C26.3479 64.0991 24.825 62.5762 22.9464 62.5762C21.0678 62.5762 19.5449 64.0991 19.5449 65.9776C19.5449 67.8562 21.0678 69.3791 22.9464 69.3791Z" fill="white"/>
</svg>
