<svg width="621" height="621" viewBox="0 0 621 621" fill="none" xmlns="http://www.w3.org/2000/svg">
<path d="M152.687 619.115C149.681 617.276 143.503 605.898 140.894 597.393C138.725 590.304 137.06 576.441 137.789 571.564C138.451 567.133 141.366 564.168 146.592 562.603C148.389 562.065 149.863 561.154 149.863 560.574C149.863 560.003 150.087 558.943 150.368 558.223C150.741 557.237 150.335 556.914 148.712 556.914H146.551L146.575 547.598C146.584 542.472 146.94 532.509 147.37 525.445C147.793 518.381 148.397 508.419 148.704 503.293L149.258 493.977H121.823H94.3786L94.3869 496.668C94.3952 498.15 95.1322 521.719 96.0349 549.047C96.9375 576.375 97.6746 600.689 97.6829 603.082L97.6911 607.43H92.8383H87.9855L87.5052 603.082C87.2402 600.689 84.9297 575.448 82.3708 546.977C79.8119 518.506 77.5677 494.449 77.3772 493.513C77.1288 492.271 75.7541 491.409 72.3008 490.316C69.7005 489.496 64.4751 487.203 60.6905 485.223C55.0096 482.25 53.7922 481.869 53.7591 483.037C53.08 506.539 48.956 582.793 48.3349 583.414C47.8711 583.878 46.0244 584.342 44.2274 584.458L40.9646 584.656L39.4657 525.967L37.975 467.278L34.7868 463.03C27.491 453.299 21.7769 439.759 19.8888 427.727C19.2014 423.404 18.9861 409.442 19.1683 381.766L19.4333 342.016L21.5947 337.461C22.7872 334.952 25.2964 331.175 27.1846 329.055C29.0727 326.935 30.613 325.022 30.613 324.807C30.613 324.592 29.5282 324.203 28.1949 323.938C24.0046 323.093 20.0047 318.679 16.1374 310.63C12.4936 303.052 10.0175 300.021 5.2641 297.305C-0.242932 294.167 -1.55136 287.351 1.91848 279.898C3.93911 275.559 8.56832 270.871 12.2783 269.414C13.4791 268.942 18.6218 268.495 23.7064 268.428C32.584 268.321 33.0974 268.213 36.5424 265.795C39.3249 263.849 40.5754 262.16 42.0825 258.342C46.0079 248.396 51.2913 244.504 60.8479 244.504C67.9118 244.504 74.6858 247.734 82.6275 254.889C85.9483 257.886 90.3457 260.984 92.3829 261.762C95.8941 263.104 96.3413 263.095 100.995 261.688C113.724 257.837 128.862 265.398 131.644 277C132.787 281.77 132.232 285.157 129.491 290.158C127.984 292.9 127.504 295.044 127.504 299.019C127.504 302.357 127.123 304.493 126.452 304.916C125.872 305.28 124.754 306.588 123.968 307.822C120.473 313.321 117.177 314.654 113.492 312.071C111.645 310.779 111.463 310.787 110.403 312.228C108.689 314.58 108.962 314.895 113.558 315.88C119.09 317.064 124.489 319.474 127.777 322.232C134.021 327.457 140.224 338.902 143.544 351.315C145.582 358.909 148.521 365.617 149.813 365.617C150.989 365.617 155.726 360.591 158.136 356.789C160.455 353.146 175.734 338.289 177.175 338.289C179.005 338.289 176.901 345.336 174.177 348.351C173.473 349.138 173.142 350.189 173.456 350.694C174.566 352.491 174.011 359.083 172.562 361.311C170.856 363.928 169.44 365.104 165.92 366.818C164.107 367.696 162.84 369.294 161.614 372.234L159.883 376.399L164.802 378.884C170.674 381.848 177.87 383.836 182.715 383.836C187.021 383.836 194.408 381.178 199.965 377.633C204.064 375.025 204.138 374.909 207.244 365.41C208.966 360.143 210.979 355.332 211.716 354.719C212.701 353.899 217.695 353.502 230.936 353.195L248.824 352.781L249.371 342.844C249.677 337.378 250.116 330.165 250.348 326.82L250.778 320.733L247.83 321.288L244.874 321.843L245.387 312.882C245.669 307.955 246.108 293.115 246.364 279.906C246.613 266.698 246.969 254.773 247.159 253.406C247.449 251.187 246.986 250.566 242.712 247.518C237.379 243.717 232.104 236.521 229.462 229.457C227.467 224.124 225.678 211.694 226.332 207.669C226.788 204.862 226.738 204.795 224.353 205.143C221.189 205.607 221.189 204.679 224.287 192.423C227.293 180.54 232.386 167.488 237.263 159.157C242.182 150.777 251.143 141.353 257.345 138.04C263.598 134.711 275.059 130.927 284.433 129.105C290.702 127.887 292.317 127.233 294.578 124.989C296.623 122.96 297.269 121.594 297.269 119.333C297.269 116.948 296.955 116.352 295.688 116.352C293.427 116.352 289.816 111.731 289.816 108.832C289.816 106.994 289.435 106.414 288.218 106.414C285.444 106.414 284.293 104.294 283.779 98.2405C283.373 93.338 282.404 89.8681 281.013 88.2698C280.848 88.0794 280.003 88.5763 279.133 89.363C277.618 90.7294 277.386 90.6963 273.991 88.5514C270.72 86.4894 270.264 86.3983 268.326 87.4914C266.48 88.5348 266.215 89.2305 266.215 93.0978V97.52L262.488 98.6463C260.434 99.2673 258.314 99.6069 257.768 99.4081C257.213 99.2094 255.996 97.5366 255.051 95.6899C253.635 92.8991 252.931 92.3359 250.869 92.3359C248.749 92.3359 248.128 92.8825 246.58 96.0625C244.609 100.12 244.294 100.236 238.787 98.845L235.052 97.9092L235.259 93.3628C235.45 89.247 235.276 88.717 233.388 87.7316C231.516 86.7461 230.945 86.8786 227.657 89.0566L224.013 91.4664L220.891 88.4189C219.177 86.7461 217.769 85.0733 217.769 84.7006C217.769 84.328 218.705 82.5392 219.856 80.7174C221.852 77.5539 221.885 77.3303 220.552 75.3014C219.318 73.4216 218.68 73.2063 214.945 73.4133L210.73 73.6369L209.364 69.5294C207.832 64.925 208.039 64.5441 213.538 61.5297C217.678 59.2606 217.098 56.4284 211.964 53.8199C208.155 51.8903 207.857 51.5342 208.37 49.4639C210.059 42.6567 209.654 43.0791 214.598 42.8141C218.473 42.607 219.351 42.2592 220.262 40.5616C221.214 38.7811 221.09 38.1848 219.136 35.2367C217.927 33.4148 216.941 31.6095 216.941 31.2369C216.941 30.8642 218.341 29.1997 220.047 27.5352L223.152 24.5042L226.937 26.8561C230.514 29.0837 230.821 29.1417 232.485 27.8581C233.835 26.823 234.315 25.4317 234.497 22.0033C234.762 17.1505 234.34 17.5397 241.164 15.8503C243.251 15.3369 243.607 15.6102 245.263 19.0303C246.878 22.3511 247.391 22.7734 249.826 22.7734C252.261 22.7734 252.774 22.3511 254.381 19.0469C256.318 15.0636 256.865 14.8731 262.033 16.4383L265.312 17.4237L265.088 21.6223C264.89 25.3738 265.097 25.9783 267.051 27.2536C269.179 28.6531 269.328 28.6283 273.105 26.1688L276.964 23.6595L280.077 26.6988C281.792 28.3633 283.191 30.0361 283.191 30.4088C283.191 30.7814 282.264 32.5619 281.129 34.3589C279.365 37.1497 279.2 37.9364 280.019 39.7252C280.872 41.605 281.444 41.8203 285.676 41.8203H290.379L291.34 45.0252C292.814 49.9277 292.574 50.6564 288.781 52.7433C285.866 54.3581 285.261 55.1117 285.261 57.1572C285.261 59.2606 285.849 59.9314 289.187 61.6953C291.737 63.0369 292.988 64.2045 292.773 65.0078C292.582 65.6869 292.193 67.0864 291.895 68.1133C291.472 69.5791 291.696 69.9766 292.922 69.9766C295.936 69.9766 303.522 67.3183 307.596 64.8256C312.432 61.8775 316.308 61.1819 320.987 62.4406C331.388 65.2397 333.243 75.4505 324.871 83.8228C320.813 87.8806 320.887 89.3547 325.376 93.9425C328.349 96.9817 328.481 97.7602 326.254 99.1514C324.953 99.963 324.597 101.089 324.597 104.335C324.589 109.627 322.395 113.362 318.444 114.786C314.933 116.053 314.536 118.505 317.144 122.786C319.09 125.983 320.225 126.471 329.74 128.268C333.707 129.014 337.524 129.85 338.228 130.115C339.355 130.554 339.504 128.268 339.504 110.563V90.5141L342.319 87.6984L345.135 84.8828H381.655H418.176V46.582C418.184 10.0783 418.258 8.15703 419.799 5.63125C420.685 4.18203 422.432 2.31875 423.691 1.49063C425.852 0.082815 430.332 0 507.994 0H590.012L592.794 1.9875C597.365 5.25031 597.879 7.57734 597.879 25.1998V40.9259L602.458 47.6503C608.404 56.3787 612.305 64.2045 615.336 73.4961C618.06 81.8188 620.23 93.7603 620.238 100.41V104.758H609.058H597.879V145.957C597.87 185.608 597.812 187.256 596.231 189.856C595.32 191.338 593.365 193.293 591.883 194.204C589.25 195.81 587.577 195.843 519.828 195.852H450.472V208.257V220.67L448.054 223.37L445.644 226.078L401.63 226.31L357.615 226.534L358.294 250.74C359.097 279.782 359.064 308.708 358.203 318.596L357.582 325.818L354.749 326.348L351.926 326.877L351.934 365.087C351.934 386.105 352.174 406.932 352.472 411.371L353.002 419.445H379.792C394.524 419.445 406.582 419.255 406.582 419.031C406.582 418.799 402.06 404.92 396.528 388.184C390.996 371.447 386.284 356.665 386.061 355.34C385.291 350.786 385.788 350.711 417.712 350.728C443.955 350.744 446.92 350.885 448.559 352.177C449.86 353.204 452.394 359.588 457.478 374.669C461.379 386.254 464.766 395.918 464.998 396.15C465.776 396.929 473.743 388.432 477.478 382.85C482.314 375.604 486.123 367.224 489.427 356.558L492.102 347.92L490.04 346.206L487.978 344.5L489.104 337.875C490.612 329.022 494.761 315.019 497.684 308.891C503.207 297.313 509.394 293.57 523.008 293.57C530.188 293.57 530.801 293.446 530.801 291.955C530.801 290.746 531.571 290.192 533.798 289.769L536.804 289.206L536.291 284.974C536.009 282.639 535.778 279.898 535.778 278.871C535.769 277.563 535.272 277.008 534.113 277.008C533.202 277.008 531.703 276.254 530.792 275.343C529.343 273.894 529.136 272.693 529.26 266.226C529.36 260.719 529.716 258.516 530.643 257.754C531.331 257.183 532.548 255.659 533.335 254.359C534.718 252.09 534.709 251.932 533.103 250.326C531.753 248.976 531.513 247.899 531.827 244.603C532.043 242.343 532.871 239.825 533.707 238.906C535.802 236.595 539.968 236.753 542.295 239.229C543.661 240.678 545.425 241.34 548.986 241.746C557.276 242.682 563.926 248.984 563.917 255.891C563.909 260.338 560.224 266.607 554.7 271.575L550.328 275.501L551.678 280.602C553.988 289.347 554.444 290.109 557.673 290.722C559.363 291.036 560.613 291.757 560.613 292.419C560.613 293.131 561.507 293.57 562.965 293.57C566.683 293.57 577.747 296.651 581.995 298.862C584.132 299.98 588.007 301.106 590.616 301.371C605.514 302.912 616.826 313.594 619.443 328.592C620.934 337.179 620.014 406.601 618.309 413.648C615.46 425.449 610.019 437.407 603.783 445.614L600.57 449.846L599.957 478.532L599.344 507.227H604.86C609.613 507.227 610.657 507.508 612.412 509.256C613.53 510.373 614.433 512.146 614.425 513.189C614.416 514.241 615.948 534.008 617.828 557.121C619.708 580.234 621 600.109 620.71 601.293C620.412 602.469 619.269 604.333 618.168 605.434L616.172 607.43H554.816C487.473 607.43 489.991 607.612 487.341 602.486C486.645 601.153 486.082 598.826 486.082 597.327C486.074 593.376 501.733 518.067 503.108 515.408C503.746 514.175 505.534 512.113 507.083 510.821L509.899 508.469L511.24 495.202C511.977 487.898 512.582 480.718 512.582 479.244V476.553L494.156 476.776L475.73 477L473.113 481.969L470.496 486.938L469.892 513.57L469.296 540.211L473.461 542.323C478.852 545.055 481.113 547.937 481.113 552.094C481.113 554.678 479.937 557.187 475.233 564.607C465.412 580.11 462.778 582.015 449.81 582.975C443.45 583.447 441.744 583.315 440.079 582.222C438.962 581.485 438.051 580.3 438.051 579.572C438.051 578.843 440.411 575.936 443.293 573.112C448.179 568.326 448.717 567.415 451.16 559.862C452.601 555.399 453.785 551.217 453.785 550.571C453.785 549.138 448.709 542.082 447.64 542.041C447.218 542.024 446.208 542.612 445.396 543.349C443.996 544.616 443.707 544.368 440.411 539.209C438.489 536.194 436.692 533.727 436.427 533.727C436.154 533.727 433.761 535.921 431.103 538.596L426.283 543.474L427.078 566.131C427.517 578.603 427.716 589.078 427.533 589.418C427.343 589.758 425.206 590.039 422.788 590.039H418.391L417.919 586.934C417.662 585.228 416.793 576.797 415.989 568.21C414.913 556.782 414.209 552.475 413.381 552.152C412.718 551.896 410.043 553.891 406.963 556.947C402.383 561.485 401.861 562.297 403.021 563.142C404.131 563.961 404.255 565.146 403.774 570.495C403.079 578.131 402.052 580.656 399.004 582.238C395.949 583.812 348.688 583.986 347.122 582.42C345.301 580.598 346.096 578.603 349.988 575.282C353.764 572.052 366.716 563.912 367.155 564.491C367.279 564.649 367.726 566.057 368.157 567.613C368.579 569.17 369.382 570.603 369.937 570.785C370.674 571.034 370.608 570.172 369.697 567.597C369.018 565.651 368.745 563.821 369.093 563.523C371.03 561.85 384.678 557.56 388.081 557.543C390.284 557.535 399.394 545.32 398.648 543.383C398.392 542.703 400.975 535.482 404.396 527.325L410.606 512.51L408.801 494.755C407.054 477.538 406.938 476.992 405.116 476.735C401.746 476.255 400.487 473.108 401.083 466.682C401.481 462.408 401.207 459.253 399.982 454.086C399.079 450.293 398.243 444.67 398.118 441.598L397.886 436.008H375.022H352.166L351.603 443.668C350.89 453.365 347.702 475.667 344.572 492.751C342.576 503.666 341.856 506.142 340.415 507.102C339.462 507.74 338.676 509.14 338.676 510.224C338.676 511.756 339.123 512.195 340.68 512.195C342.866 512.195 345.284 513.984 353.689 521.785C356.712 524.592 360.994 528.12 363.213 529.619C377.2 539.109 383.038 547.358 378.599 551.374C377.788 552.111 375.27 553.544 373.01 554.57C366.153 557.676 358.128 557.196 337.433 552.459C316.051 547.565 316.316 547.738 316.316 538.198C316.316 530.306 317.741 518.771 318.867 517.62C319.728 516.725 319.877 512.99 319.124 511.019C318.85 510.299 317.948 509.711 317.111 509.711C315.91 509.711 315.513 508.85 315.14 505.363C314.751 501.686 311.323 440.115 311.339 437.043C311.347 436.248 307.497 436.008 294.843 436.008H278.338L277.866 440.356C277.601 442.749 277.03 453.465 276.599 464.164C276.16 474.863 275.564 489.496 275.266 496.668C274.827 507.417 274.521 509.711 273.502 509.711C271.862 509.711 272.227 513.288 276.425 538.182C280.011 559.465 279.995 560.682 276.028 563.282C274.09 564.558 271.871 564.773 260.724 564.773C248.807 564.773 247.491 564.624 245.379 563.042C244.104 562.098 242.845 560.425 242.572 559.324C241.363 554.438 249.089 529.329 254.157 521.719C255.896 519.094 256.294 517.669 256.02 514.887C255.706 511.516 255.573 511.367 252.931 511.367C249.677 511.367 249.776 511.616 248.037 499.359C245.42 480.843 244.195 467.493 243.698 451.949L243.193 436.008H225.554H207.915L208.792 438.525C209.356 440.14 211.351 442.177 214.382 444.239C224.767 451.295 232.8 462.872 236.013 475.435C238.928 486.855 237.868 493.977 233.247 493.977C231.748 493.977 231.251 495.567 230.771 501.844C230.531 504.933 231.897 511.922 236.162 529.42C239.301 542.306 241.661 553.527 241.396 554.355C240.518 557.113 243.143 565.965 245.362 567.713C249.238 570.76 258.927 597.534 259.763 607.496C260.169 612.365 260.02 613.21 258.455 614.775C255.846 617.384 252.633 616.961 246.886 613.251C239.988 608.788 232.245 600.863 227.044 592.954C224.676 589.343 222.713 586.561 222.68 586.768C222.639 586.975 222.175 591.613 221.645 597.078L220.668 607.016L215.906 607.264L211.144 607.513L211.153 600.639C211.161 596.855 211.533 583.687 211.997 571.373L212.834 548.981L205.033 530.795C200.751 520.791 196.048 509.959 194.598 506.721L191.957 500.833L196.221 487.675C205.198 460.023 206.432 450.111 201.687 443.883C198.987 440.347 192.578 436.008 190.068 436.016C188.926 436.024 189.729 436.803 192.578 438.434C197.381 441.192 201.762 445.813 202.548 448.951C204.196 455.51 201.008 468.942 190.126 501.248L184.752 517.214L189.141 560.459C191.559 584.242 193.373 603.985 193.182 604.324C192.983 604.664 188.421 604.945 183.046 604.945H173.258L172.835 602.668C172.603 601.418 171.162 591.911 169.647 581.551C168.123 571.191 166.641 562.711 166.343 562.711C165.026 562.711 164.786 569.46 166.028 571.845C167.129 573.982 167.187 575.986 166.442 586.528C165.051 606.303 162.873 616.133 159.271 618.966C156.596 621.069 155.917 621.086 152.687 619.115ZM158.89 617.45C160.529 615.81 162.666 607.778 163.618 599.72L164.173 595.008H159.966C157.647 595.008 155.527 594.635 155.246 594.18C154.923 593.666 156.621 593.352 159.751 593.352H164.769V590.867C164.769 588.408 164.72 588.383 160.264 588.383C157.788 588.383 155.527 588.01 155.246 587.555C154.923 587.041 156.579 586.727 159.643 586.727H164.554L165.067 583.621C166.691 573.8 164.67 569.336 158.6 569.336C155.494 569.336 154.741 568.963 152.819 566.438C150.244 563.067 149.441 562.951 144.546 565.253C139.545 567.605 138.716 569.916 139.404 579.638C140.141 590.097 142.484 598.892 146.965 608.001C151.958 618.146 155.436 620.903 158.89 617.45ZM257.594 613.55C259.176 611.645 258.728 606.436 256.252 597.898C255.068 593.824 253.967 590.345 253.793 590.18C253.619 590.006 251.805 590.503 249.76 591.281C244.261 593.385 243.201 592.325 248.609 590.13C253.138 588.292 253.23 588.192 252.418 585.882L251.598 583.522L247.863 585.128C243.979 586.793 240.849 587.281 242.24 586.006C242.671 585.609 244.799 584.631 246.961 583.828C249.122 583.017 250.894 582.213 250.894 582.031C250.894 580.673 246.248 571.034 244.874 569.543C242.828 567.324 241.164 567.216 237.338 569.038C234.613 570.338 234.365 570.321 231.541 568.574C228.154 566.479 226.721 566.901 223.243 571.034C220.643 574.123 220.51 576.988 222.73 582.155C227.102 592.358 236.849 604.258 246.232 610.842C252.277 615.09 255.648 615.893 257.594 613.55ZM96.0266 600.598C96.0183 597.749 95.2813 573.245 94.3786 546.148C93.476 519.052 92.7389 496.279 92.7307 495.542C92.7224 494.523 91.5216 494.093 87.5466 493.695C84.6979 493.413 81.551 492.95 80.549 492.66C78.8761 492.188 78.7519 492.387 79.108 494.929C79.315 496.453 81.5261 520.435 84.0271 548.219C86.5197 576.002 88.7722 600.316 89.0372 602.254C89.501 605.716 89.559 605.773 92.7721 605.773H96.0349L96.0266 600.598ZM220.221 594.387C220.966 586.048 220.999 582.379 220.336 580.665C218.987 577.203 219.227 573.593 220.982 571.116C221.835 569.907 222.804 566.943 223.136 564.525L223.74 560.119L220.759 560.682C217.86 561.22 217.736 561.138 216.237 557.626L214.697 554.016L214.2 556.5C213.927 557.866 213.455 569.51 213.148 582.379L212.593 605.773H215.889H219.194L220.221 594.387ZM585.821 605.136C583.9 603.803 582.144 600.291 582.144 597.782C582.144 596.325 585.515 578.793 589.647 558.835C593.771 538.878 597.68 519.806 598.342 516.46C598.997 513.115 599.742 510.042 599.999 509.628C600.272 509.189 582.633 508.883 557.11 508.883C513.799 508.883 513.758 508.883 510.081 510.746C508.06 511.773 505.766 513.736 504.971 515.11C503.34 517.967 487.738 592.689 487.738 597.666C487.738 600.175 488.301 601.492 490.156 603.355L492.583 605.773L539.637 605.757C565.524 605.757 586.302 605.475 585.821 605.136ZM617.381 603.745C618.822 602.295 619.41 600.805 619.402 598.569C619.402 596.838 617.911 577.344 616.097 555.258C614.284 533.172 612.793 514.282 612.793 513.288C612.785 512.295 612.197 510.903 611.485 510.183C609.787 508.485 603.411 508.444 602.019 510.125C600.777 511.624 583.817 593.244 583.809 597.766C583.801 600.167 584.389 601.517 586.219 603.355L588.645 605.773H601.994C615.062 605.773 615.385 605.732 617.381 603.745ZM191.609 600.598C191.402 599.115 187.7 562.752 183.394 519.781C176.115 447.088 175.659 441.49 176.852 439.18C179.51 434.037 168.256 434.352 348.116 434.352C450.174 434.352 513.261 434.65 514.544 435.138C518.627 436.687 518.627 437.043 515.083 472.305C513.253 490.482 511.754 505.893 511.754 506.564C511.754 508.494 524.689 507.541 526.776 505.454C527.621 504.61 528.846 503.914 529.492 503.914C530.237 503.914 530.999 502.332 531.596 499.583C532.101 497.206 533.301 494.424 534.262 493.405C535.761 491.807 536.697 486.996 540.804 459.841C546.063 425.043 546.055 425.491 541.028 422.559C538.527 421.11 532.2 421.027 395.576 420.588C293.501 420.265 252.575 420.389 252.178 421.035C251.789 421.665 236.559 421.93 201.43 421.93C155.883 421.93 151.097 422.054 149.722 423.296C148.886 424.058 148.207 425.441 148.207 426.377C148.207 428.149 173.556 598.138 174.309 601.426C174.723 603.215 175.096 603.289 183.369 603.289H191.99L191.609 600.598ZM426.043 580.309C425.819 575.87 425.405 566.007 425.124 558.405L424.627 544.567L420.146 547.954C416.072 551.026 415.699 551.581 416.08 553.925C416.304 555.341 417.074 562.835 417.786 570.578C419.525 589.501 419.194 588.383 423.161 588.383H426.465L426.043 580.309ZM47.2583 581.907C47.5233 581.601 48.7655 558.703 50.0077 531.019L52.2685 480.702L46.2066 475.004C40.5588 469.704 40.1199 469.448 39.8714 471.319C39.7224 472.429 40.1944 494.838 40.9066 521.123C41.6271 547.416 42.2068 572.226 42.2068 576.259V583.596L44.4841 583.033C45.7346 582.718 46.985 582.213 47.2583 581.907ZM451.557 578.404C459.027 577.303 461.346 576.408 463.913 573.626C465.718 571.671 478.629 550.794 478.629 549.834C478.629 547.879 476.07 551.341 470.008 561.469C465.13 569.609 462.074 573.858 460.509 574.669C459.242 575.323 454.878 576.309 450.82 576.855C446.754 577.402 443.077 578.172 442.647 578.561C441.595 579.514 444.278 579.464 451.557 578.404ZM387.328 576.996C380.612 576.855 369.614 576.855 362.898 576.996C356.182 577.137 361.681 577.253 375.113 577.253C388.545 577.253 394.044 577.137 387.328 576.996ZM377.084 564.723C376.322 562.935 375.552 561.899 375.361 562.429C374.931 563.655 377.672 570.048 378.127 568.864C378.31 568.375 377.846 566.512 377.084 564.723ZM164.421 562.993C165.026 560.367 165.374 558.065 165.175 557.875C164.985 557.684 162.169 557.336 158.914 557.105C154.409 556.782 152.828 556.955 152.273 557.833C151.097 559.697 151.403 561.585 153.383 564.657C154.989 567.158 155.759 567.589 158.972 567.82C161.026 567.97 162.84 568.019 163.005 567.928C163.171 567.829 163.809 565.609 164.421 562.993ZM236.361 567.746C236.626 567.324 237.901 566.744 239.209 566.454C241.785 565.891 241.76 566.264 239.706 557.187L239.301 555.382L233.297 557.071C229.992 557.999 227.177 558.86 227.036 558.993C226.887 559.125 227.011 560.492 227.301 562.032C227.69 564.119 228.601 565.278 230.87 566.578C234.323 568.558 235.682 568.847 236.361 567.746ZM457.097 566.943C457.097 566.106 451.367 564.848 450.679 565.535C450.439 565.783 450.754 566.148 451.392 566.355C452.021 566.553 453.098 566.91 453.785 567.133C455.797 567.804 457.097 567.729 457.097 566.943ZM226.034 563.696C226.026 561.957 225.852 561.742 225.222 562.711C224.162 564.351 224.162 567.092 225.222 566.438C225.678 566.156 226.042 564.922 226.034 563.696ZM271.515 562.86C274.016 562.471 275.63 561.651 276.682 560.227C278.181 558.198 278.164 557.833 275.721 542.422C272.922 524.708 272.384 522.108 271.838 523.582C271.142 525.478 270.132 524.65 269.585 521.719C269.014 518.696 268.533 518.481 264.211 519.342C262.463 519.698 261.18 520.659 260.36 522.241C258.886 525.106 258.049 525.23 256.94 522.754C256.161 521.023 255.929 521.238 253.619 525.859C250.803 531.474 247.656 540.757 245.081 551.051C243.358 557.941 243.35 558.057 244.915 560.16C246.05 561.684 247.557 562.438 250.149 562.794C255.25 563.489 267.167 563.523 271.515 562.86ZM404.404 557.022L410.888 550.504L406.358 547.912C403.866 546.488 401.497 545.329 401.1 545.337C400.18 545.362 391.618 557.378 391.096 559.374C390.64 561.104 393.646 563.539 396.23 563.539C397.249 563.539 400.512 560.939 404.404 557.022ZM461.238 562.81C461.238 562.123 455.085 560.227 452.841 560.227C451.036 560.227 453.189 561.701 456.269 562.57C460.062 563.638 461.238 563.696 461.238 562.81ZM369.879 554.016C375.254 552.417 378.426 549.925 378.426 547.291C378.426 544.534 372.165 537.942 364.314 532.418C360.878 530.008 354.609 524.841 350.377 520.94C346.013 516.924 341.955 513.852 341.011 513.852C339.288 513.852 335.396 517.363 332.316 521.686L330.576 524.137L325.359 521.884C319.753 519.466 318.916 519.706 318.734 523.789C318.676 524.932 318.37 529.586 318.047 534.141C317.724 538.695 317.741 543.242 318.097 544.252C318.867 546.463 321.682 547.341 342.402 551.879C358.882 555.481 363.685 555.854 369.879 554.016ZM419.476 546.347C440.295 530.099 458.952 506.713 472.161 480.313C475.888 472.868 479.945 468.164 484.84 465.597C487.606 464.148 490.256 463.775 500.856 463.319C509.162 462.963 513.766 462.442 514.164 461.804C514.495 461.266 515.224 455.899 515.787 449.871C516.805 439.03 516.797 438.898 515.025 437.457C513.377 436.132 510.528 436.008 481.817 436.008C450.547 436.008 450.398 436.016 447.88 437.871C442.589 441.772 439.707 447.61 419.865 494.68C408.851 520.8 399.965 542.298 400.122 542.447C400.652 542.977 413.621 550.281 414.035 550.273C414.267 550.273 416.71 548.509 419.476 546.347ZM460.973 549.8C463.168 549.362 463.474 548.881 464.252 544.625C464.989 540.641 464.882 539.225 463.524 535.184L461.917 530.439L455.781 535.159C452.41 537.76 449.644 540.194 449.644 540.567C449.644 541.851 456.468 550.289 457.511 550.289C458.083 550.289 459.64 550.074 460.973 549.8ZM454.704 534L463.482 527.118L460.874 517.793C459.441 512.667 458.05 508.469 457.801 508.469C457.545 508.469 455.077 511.45 452.327 515.094C449.57 518.738 445.214 524.038 442.638 526.87C438.374 531.557 438.051 532.178 438.97 533.909C441.487 538.646 444.121 541.942 444.982 541.428C445.495 541.13 449.868 537.784 454.704 534ZM467.863 533.106C467.863 529.578 468.087 518.489 468.36 508.469L468.857 490.25L464.228 497.703C461.677 501.802 459.59 505.728 459.59 506.432C459.582 507.127 460.865 512.146 462.431 517.586C464.534 524.891 465.039 527.748 464.377 528.551C463.714 529.346 463.88 530.961 464.973 534.58C465.793 537.296 466.786 539.523 467.167 539.523C467.548 539.523 467.863 536.633 467.863 533.106ZM333.558 517.885C335.852 515.069 337.019 512.816 337.019 511.226V508.825L329.359 509.371C325.144 509.67 321.451 510.15 321.144 510.431C320.838 510.721 320.788 512.676 321.028 514.771C321.451 518.381 321.682 518.688 325.31 520.278C327.421 521.205 329.367 522.009 329.624 522.05C329.889 522.1 331.661 520.22 333.558 517.885ZM264.79 517.578C267.142 517.206 268.757 517.346 269.552 518.017C270.595 518.878 270.769 518.415 270.769 514.779V510.539H264.144H257.519V513.338C257.519 514.87 257.759 517.338 258.058 518.82C258.588 521.454 258.629 521.479 259.921 519.831C260.683 518.862 262.745 517.909 264.79 517.578ZM416.453 498.291C416.528 497.09 410.838 484.081 409.687 482.797C409.232 482.3 409.116 483.12 409.389 484.867C409.646 486.457 410.292 492.61 410.83 498.531L411.824 509.297L414.109 504.328C415.36 501.595 416.42 498.879 416.453 498.291ZM543.222 504.428C543.222 502.896 543.438 500.552 543.703 499.227C544.109 497.223 543.819 496.618 542.022 495.658C540.076 494.614 539.695 494.656 538.287 496.097C537.417 496.983 536.473 499.028 536.183 500.651C535.703 503.252 535.894 503.707 537.782 504.56C538.949 505.098 539.91 505.918 539.91 506.382C539.91 506.846 540.655 507.227 541.566 507.227C542.891 507.227 543.222 506.672 543.222 504.428ZM557.301 501.604L557.715 496.395L551.504 496.635L545.293 496.875L545.044 502.084L544.796 507.301L550.841 507.053L556.887 506.813L557.301 501.604ZM580.074 505.57C580.902 504.659 582.219 503.914 583.006 503.914C584.703 503.914 585.631 499.558 584.546 496.668C583.817 494.747 581.805 494.175 580.902 495.633C580.604 496.113 575.925 496.461 569.673 496.461H558.957V500.535C558.957 502.771 558.733 505.198 558.452 505.918C558.013 507.069 559.197 507.227 568.265 507.227C577.523 507.227 578.724 507.061 580.074 505.57ZM598.16 489.215C598.458 479.311 598.707 466.996 598.707 461.845V452.496L592.703 457.622C589.399 460.438 586.608 462.814 586.5 462.897C586.384 462.98 586.616 469.448 587.014 477.265C587.477 486.432 588.099 491.923 588.761 492.726C589.44 493.538 589.672 495.699 589.44 498.945C589.167 502.697 589.349 503.914 590.177 503.914C590.773 503.914 591.908 504.659 592.686 505.57C593.465 506.481 594.897 507.227 595.858 507.227C597.581 507.227 597.63 506.837 598.16 489.215ZM534.113 502.233C534.113 499.202 536.465 494.83 538.626 493.844C539.786 493.314 540.738 492.37 540.738 491.749C540.738 489.902 536.001 492.776 534.651 495.442C533.045 498.614 532.167 503.914 533.244 503.914C533.724 503.914 534.113 503.16 534.113 502.233ZM588.181 499.691C588.728 495.575 587.635 492.826 584.952 491.6C582.409 490.441 582.211 492.196 584.629 494.391C585.854 495.5 586.285 496.941 586.285 499.947C586.285 504.759 587.519 504.593 588.181 499.691ZM229.322 494.449C228.005 493.107 227.483 494.614 228.146 497.869L228.783 501.016L229.429 498.117C229.794 496.494 229.744 494.879 229.322 494.449ZM428.088 471.203C439.425 444.123 438.995 444.976 443.632 440.016L447.384 436.008H423.26C399.982 436.008 399.129 436.066 399.129 437.606C399.129 441.614 401.091 452.62 402.963 459.104C406.706 472.056 416.842 495.724 418.051 494.333C418.424 493.91 422.937 483.501 428.088 471.203ZM150.352 484.453C150.848 479.898 151.503 474.83 151.817 473.182L152.381 470.193L124.829 469.704C95.5794 469.174 80.3171 467.824 72.7232 465.092C70.2885 464.214 65.6758 462.731 62.4793 461.796C52.2022 458.781 46.7946 452.247 45.8091 441.639C45.3371 436.621 45.5193 435.809 48.7489 428.638C53.5438 417.988 54.67 413.168 55.2249 400.995L55.6969 390.42L52.7074 384.018C48.7324 375.497 47.1341 369.244 46.5793 360.044C45.6435 344.409 51.1919 329.395 60.0943 323.499C62.0652 322.19 63.4482 320.882 63.1583 320.592C62.8685 320.31 60.5497 320.079 58.0074 320.079C54.5293 320.087 52.1774 320.708 48.5088 322.563C44.6497 324.526 42.5546 325.039 38.4802 325.039H33.3375L29.0644 329.561C20.7914 338.306 21.131 336.153 20.8163 382.18C20.6258 410.974 20.8329 423.983 21.5533 428.132C25.5697 451.353 40.2441 472.147 60.6408 483.542C67.9035 487.592 79.6877 491.351 87.853 492.204C91.6707 492.61 107.09 492.892 122.121 492.834L149.449 492.734L150.352 484.453ZM233.86 492.337C235.831 491.592 235.988 491.153 235.988 486.3C235.988 479.559 234.224 472.752 230.473 464.992C228.146 460.173 225.827 457.15 220.179 451.535C216.171 447.552 212.536 444.289 212.105 444.289C211.666 444.289 212.544 447.602 214.051 451.651C216.527 458.301 220.361 470.516 225.198 487.145C226.854 492.809 227.086 493.148 229.346 493.148C230.663 493.148 232.692 492.784 233.86 492.337ZM542.138 488.039C543.711 486.557 544.051 485.381 544.051 481.414C544.051 476.876 543.935 476.586 542.071 476.586C539.86 476.586 539.471 477.53 538.585 485.107C537.956 490.44 538.817 491.153 542.138 488.039ZM585.738 480.52C585.548 475.393 585.2 469.655 584.968 467.758L584.546 464.305L577.755 467.882C574.02 469.853 568.861 472.114 566.294 472.909C561.93 474.251 561.582 474.549 561.127 477.331C560.853 478.971 560.63 481.712 560.621 483.418L560.613 486.523H570.973C580.306 486.523 581.474 486.689 582.749 488.18C585.622 491.534 586.103 490.308 585.738 480.52ZM559.238 480.983C559.52 477.944 559.619 475.319 559.462 475.162C559.305 475.004 557.541 475.253 555.545 475.708C553.549 476.172 550.518 476.553 548.812 476.569L545.707 476.586V481.555V486.523H552.216H558.717L559.238 480.983ZM331.429 467.477C333.491 460.918 338.038 450.931 342.7 442.724C344.613 439.362 345.971 436.405 345.723 436.157C344.878 435.312 343.586 437.391 337.839 448.744C331.968 460.346 328.2 470.607 327.91 475.758C327.645 480.321 328.034 480.636 328.92 476.586C329.367 474.541 330.494 470.441 331.429 467.477ZM513.41 473.356C513.41 472.528 513.642 470.151 513.923 468.081L514.445 464.313L502.537 464.702C495.034 464.959 489.353 465.555 487.167 466.342C483.995 467.468 476.972 473.24 476.972 474.723C476.972 475.062 485.171 475.236 495.191 475.104C512.184 474.888 513.41 474.764 513.41 473.356ZM404.661 469.754L402.855 464.578L402.599 468.578C402.342 472.611 403.36 474.93 405.389 474.93C406.209 474.93 406.027 473.654 404.661 469.754ZM557.317 473.754C588.446 467.154 612.412 441.184 617.373 408.68C618.888 398.717 619.112 334.256 617.654 327.358C615.89 319.035 611.725 312.683 605.083 308.187C600.802 305.297 593.564 302.68 589.821 302.68H587.867L590.351 305.785C595.063 311.673 596.297 316.932 598.202 339.324L599.32 352.367L596.637 360.441C595.162 364.88 592.976 370.702 591.775 373.377C590.434 376.383 589.597 379.72 589.597 382.097C589.597 396.887 583.643 422.692 578.393 430.617C576.886 432.894 574.882 436.72 573.946 439.105C571.544 445.2 568.754 449.365 564.787 452.761C562.062 455.096 559.586 456.148 552.506 457.986C547.628 459.245 543.214 460.785 542.709 461.406C542.196 462.028 541.525 464.793 541.21 467.543C540.895 470.301 540.44 473.091 540.192 473.746C539.579 475.344 549.806 475.352 557.317 473.754ZM67.2741 459.402C66.239 455.709 66.7027 445.225 68.2347 437.664C70.4541 426.749 73.5761 422.435 80.8636 420.257C83.406 419.495 87.7205 419.478 99.4219 420.182C118.162 421.317 144.894 421.4 144.894 420.323C144.894 419.893 144.522 419.313 144.066 419.031C142.766 418.228 143.072 414.477 144.431 414.477C145.375 414.477 145.184 413.284 143.478 408.663C142.294 405.475 141.549 402.643 141.805 402.386C142.07 402.121 144.638 403.024 147.519 404.398C161.225 410.899 174.409 409.698 188.089 400.688C195.451 395.835 198.168 392.556 200.403 385.774C201.439 382.66 202.449 379.654 202.648 379.091C202.855 378.536 200.611 379.339 197.654 380.88C186.474 386.701 178.036 386.66 165.25 380.697C161.026 378.735 158.575 377.981 158.376 378.594C157.548 381.062 152.356 388.018 148.215 392.2C143.602 396.854 135.702 402.03 133.193 402.046C130.742 402.063 126.733 390.478 126.692 383.223L126.676 379.712L131.918 377.335C136.133 375.422 143.71 370.934 147.619 368.035C147.975 367.77 147.321 365.717 146.161 363.481C145.002 361.236 143.147 356.028 142.046 351.895C138.427 338.355 132.39 327.557 125.682 322.621C122.063 319.963 113.252 316.758 109.558 316.758C107.827 316.758 107.604 317.039 108.084 318.621C108.399 319.648 109.028 320.948 109.475 321.511C110.701 323.035 109.831 324.476 105.658 327.896L101.898 330.985L94.4532 325.321C90.3539 322.207 86.9918 319.193 86.9669 318.621C86.909 317.263 86.5694 317.288 76.7065 319.3C62.5207 322.182 57.9494 325.089 53.3947 334.124C48.956 342.943 47.7552 348.815 48.2189 359.406C48.6496 369.087 50.7282 376.979 55.1669 385.732C57.2621 389.873 57.32 390.362 56.848 400.382C56.2683 412.829 54.8357 419.106 50.3472 428.861C47.2583 435.569 47.0016 436.646 47.3743 441.308C48.1527 451.038 53.8916 457.912 63.7297 460.91C67.506 462.052 67.9615 461.862 67.2741 459.402ZM552.514 456.38C560.588 454.16 564.364 452.14 566.948 448.645C569.797 444.786 572.96 438.02 574.285 432.952C576.314 425.143 575.726 414.94 573.449 418.617C573.167 419.073 572.066 419.445 570.998 419.445C569.59 419.445 568.48 418.476 566.973 415.926C565.839 413.988 563.76 411.321 562.369 410.005L559.843 407.595L553.392 410.137C544.862 413.508 535.438 415.86 525.592 417.069C521.169 417.607 517.551 418.336 517.551 418.683C517.551 419.04 522.677 419.445 528.937 419.586C539.264 419.835 540.572 420.033 543.007 421.772C547.024 424.638 547.297 427.13 545.177 441.358C544.15 448.206 543.115 454.839 542.875 456.09C542.32 458.972 543.04 458.988 552.514 456.38ZM251.863 418.907C252.7 418.145 253.379 417.218 253.379 416.837C253.379 416.448 228.966 416.133 199.136 416.133C169.307 416.133 144.894 416.34 144.894 416.605C144.894 416.862 145.283 417.789 145.756 418.675C146.584 420.232 148.041 420.273 198.482 420.273C245.586 420.273 250.489 420.149 251.863 418.907ZM310.056 416.133C309.857 404.978 305.915 336.782 305.493 337.271C303.811 339.217 294.851 373.128 292.375 386.9C290.429 397.757 288.996 403.496 286.114 411.934C284.963 415.313 284.019 418.394 284.019 418.783C284.019 419.172 289.891 419.387 297.062 419.263L310.105 419.031L310.056 416.133ZM515.422 418.145C516.134 417.425 516.722 416.497 516.722 416.075C516.722 415.619 507.124 415.305 493.212 415.305H469.701L464.766 401.02C462.058 393.161 457.47 379.67 454.58 371.041C451.682 362.412 448.642 354.678 447.814 353.85C446.406 352.442 444.386 352.359 417.132 352.566L387.949 352.781L388.015 355.266C388.115 358.81 407.799 417.83 409.166 418.7C409.795 419.098 433.67 419.429 462.215 419.429C508.309 419.445 514.263 419.296 515.422 418.145ZM531.753 414.51C559.727 409.69 578.029 396.879 589.506 374.097C592.703 367.737 597.191 354.628 596.388 353.957C596.073 353.684 591.9 352.632 587.113 351.614C582.327 350.603 577.83 349.601 577.101 349.403C576.149 349.129 575.503 349.99 574.741 352.558C572.911 358.744 566.476 370.255 561.574 376.101C552.597 386.825 536.945 397.434 521.65 403.181C516.499 405.119 516.416 405.202 516.366 408.332C516.317 410.849 515.886 411.736 514.304 412.522C512.358 413.499 512.4 413.541 515.547 413.798C517.6 413.963 518.718 414.443 518.586 415.098C518.304 416.522 520.747 416.414 531.753 414.51ZM193.025 407.164C194.292 403.371 195.567 399.546 195.849 398.659C196.23 397.459 194.665 398.196 189.803 401.508C176.106 410.841 163.229 412.473 148.944 406.7L143.917 404.672L144.381 406.518C144.638 407.529 145.424 409.748 146.128 411.429L147.412 414.501L169.059 414.286L190.706 414.063L193.025 407.164ZM262.952 385.492C268.152 369.783 272.235 356.458 272.028 355.887C271.738 355.083 265.113 354.852 242.737 354.852C216.9 354.852 213.711 354.992 212.701 356.218C212.08 356.963 207.211 370.387 201.894 386.039L192.222 414.493L222.862 414.278L253.503 414.063L262.952 385.492ZM479.059 411.719C478.364 410.659 478.041 409.541 478.347 409.235C478.654 408.928 476.641 408.68 473.867 408.68H468.832L469.776 411.164C470.67 413.533 470.935 413.648 475.515 413.648H480.326L479.059 411.719ZM494.984 413.077C494.189 412.87 492.881 412.87 492.086 413.077C491.291 413.284 491.945 413.458 493.535 413.458C495.125 413.458 495.779 413.284 494.984 413.077ZM510.097 412.348C514.139 410.965 516.035 409.177 515.348 407.38C515.108 406.758 511.745 404.523 507.886 402.419L500.864 398.585L495.746 400.456C488.881 402.974 481.676 406.593 480.343 408.199C479.44 409.284 479.449 409.74 480.376 410.858C481.32 411.992 482.629 412.133 488.55 411.711C493.527 411.363 496.707 411.553 499.332 412.373C504.176 413.889 505.609 413.88 510.097 412.348ZM479.738 405.168C483.697 402.345 491.953 391.256 495.315 384.25C498.893 376.772 501.601 367.058 502.33 359.025L502.826 353.609L498.537 351.125C496.177 349.759 494.048 348.641 493.8 348.641C493.552 348.641 492.442 351.779 491.34 355.613C486.852 371.149 480.293 383.43 471.366 392.987C466.745 397.939 465.726 399.488 466.24 400.813C468.658 407.123 468.244 406.758 472.964 406.808C476.128 406.833 478.041 406.369 479.738 405.168ZM139.594 397.235C146.89 392.515 153.457 384.755 158.26 375.166C161.978 367.729 162.782 366.694 166.276 364.814C171.593 361.94 173.638 357.833 172.396 352.475C171.634 349.162 171.717 348.417 173.009 346.984C174.814 344.98 176.628 341.602 175.891 341.602C174.698 341.602 161.241 354.52 160.066 356.789C156.654 363.39 145.987 372.193 134.659 377.749L128.15 380.938L128.572 385.906C129.044 391.521 132.191 400.398 133.698 400.398C134.253 400.398 136.903 398.974 139.594 397.235ZM107.09 320.31C105.956 317.594 106.006 317.18 108.051 313.28C109.243 310.994 110.022 308.609 109.782 307.971C109.053 306.075 110.477 306.663 113.011 309.305C116.374 312.816 118.684 312.543 121.69 308.27C123.048 306.332 124.481 304.369 124.87 303.897C125.259 303.425 125.806 299.839 126.079 295.922L126.584 288.8L122.692 288.32C120.556 288.055 117.003 287.583 114.792 287.277C110.121 286.622 109.318 287.326 109.301 292.121C109.285 295.723 108.887 295.914 106.726 293.363C105.169 291.533 105.128 291.525 103.902 293.107C102.801 294.531 102.801 294.895 103.919 296.419C104.606 297.355 105.384 298.58 105.649 299.135C105.923 299.707 102.486 304.046 97.7905 309.073C93.211 313.984 89.3519 318.257 89.2277 318.571C89.0952 318.886 91.9771 321.379 95.6208 324.12L102.246 329.089L105.268 326.149C108.266 323.234 108.283 323.176 107.09 320.31ZM355.47 324.31C357.076 322.704 357.847 301.288 357.283 274.109C356.961 258.623 356.464 243.154 356.174 239.742L355.652 233.531L354.542 237.879L353.433 242.227H327.446H301.46L295.34 246.375C287.572 251.651 280.574 254.491 272.417 255.675C266.008 256.611 262.173 256.065 250.397 252.553C248.667 252.04 248.65 252.164 248.103 275.492C247.805 288.395 247.325 303.649 247.043 309.396L246.53 319.83L252.65 318.207C260.84 316.037 280.607 315.897 293.543 317.934C302.992 319.416 314.122 321.983 317.351 323.416C321.136 325.105 329.483 325.776 341.963 325.395C349.011 325.18 355.089 324.691 355.47 324.31ZM555.106 295.417C558.038 293.703 558.228 292.461 555.603 292.055C553.582 291.74 552.042 288.527 549.939 280.238C549.16 277.182 548.084 274.151 547.545 273.497C546.378 272.097 547.338 270.631 550.883 268.445C552.522 267.426 553.16 266.358 553.16 264.619C553.16 261.265 552.059 260.909 549.177 263.335C545.997 266.01 545.707 265.961 545.707 262.698C545.707 261.207 545.127 259.153 544.407 258.135C542.85 255.907 536.631 252.578 535.836 253.547C531.645 258.615 531.09 260.106 530.908 266.731C530.767 271.94 531.016 273.67 532.018 274.499C533.285 275.55 536.896 275.352 540.324 274.027C541.798 273.455 541.856 273.538 540.846 274.78C540.216 275.55 539.156 276.18 538.486 276.18C537.484 276.18 537.318 277.472 537.558 283.426L537.84 290.672L535.148 290.929C532.092 291.227 531.811 291.898 533.939 293.827C538.038 297.537 549.947 298.431 555.106 295.417ZM276.475 253.381C287.266 250.831 301.559 241.332 310.296 230.898C313.732 226.799 313.848 226.741 317.741 227.105C320.656 227.378 323.173 226.923 327.297 225.358C336.953 221.714 348.464 214.186 347.296 212.29C346.576 211.13 341.673 211.487 334.378 213.234C326.096 215.221 319.032 215.387 316.556 213.648C315.538 212.936 314.213 210.46 313.467 207.893C311.389 200.746 310.213 201.127 310.751 208.779C311.008 212.373 311.463 216.116 311.77 217.085C312.25 218.642 311.77 219.072 307.902 220.513C299.663 223.585 291.141 225.018 282.934 224.712C276.293 224.463 274.512 224.066 270.314 221.921C262.099 217.714 257.188 209.632 256.12 198.543C255.846 195.694 255.399 193.384 255.126 193.4C254.844 193.425 248.658 196.125 241.371 199.413L228.121 205.392L227.872 209.309C227.086 221.424 232.651 236.529 240.551 243.742C250.571 252.901 263.631 256.404 276.475 253.381ZM446.266 222.691L448.816 220.546V199.711L448.808 178.875L445.893 183.72C444.286 186.378 441.678 190.253 440.096 192.324C437.645 195.537 437.222 196.738 437.222 200.522V204.961H432.693C428.825 204.961 427.434 205.441 423.086 208.249C407.377 218.401 386.939 219.776 365.49 212.124L362.078 210.907L360.314 217.35C359.346 220.894 358.551 224.024 358.551 224.314C358.551 224.604 377.713 224.836 401.133 224.836H443.723L446.266 222.691ZM296.027 222.194C298.304 221.706 300.565 220.993 301.062 220.604C301.551 220.215 304.532 210.584 307.687 199.189L313.418 178.478L342.294 178.469C370.765 178.461 371.163 178.486 370.732 180.117C370.07 182.643 371.072 181.608 375.511 175.173L379.577 169.277L368.024 157.658C354.7 144.243 342.94 134.057 338.783 132.318C337.185 131.655 333.508 130.612 330.601 129.999C325.467 128.931 325.235 128.956 322.328 130.927C314.701 136.102 301.691 136.798 291.307 132.599L285.758 130.347L278.711 132.02C268.757 134.388 259.325 138.198 253.983 142.032C245.967 147.771 238.091 159.24 231.823 174.329C229.322 180.341 223.566 199.86 223.566 202.319C223.566 204.605 230.315 202.725 243.714 196.713C250.869 193.508 256.84 190.883 256.998 190.883C257.155 190.883 257.486 193.823 257.735 197.425C259.134 217.921 273.262 227.055 296.027 222.194ZM408.652 213.209C428.635 207.106 445.537 188.026 453.884 162.147C455.739 156.416 455.93 156.168 458.803 155.679C464.766 154.669 470.339 149.361 470.347 144.673C470.347 142.239 468.261 138.189 466.505 137.204C465.329 136.55 465.586 135.953 468.418 132.815C473.726 126.927 475.316 124.525 475.316 122.422C475.316 120.641 475.126 120.534 473.536 121.387C469.768 123.407 458.828 135.316 454.207 142.438C441.761 161.625 424.304 175.563 407.41 179.803C400.454 181.55 389.191 180.97 381.829 178.494C378.914 177.509 376.272 177.012 375.941 177.376C370.914 183.065 368.521 187.885 365.706 198.03C364.049 204 362.691 209.06 362.691 209.284C362.691 209.905 374.583 213.292 381.208 214.559C389.125 216.074 401.232 215.478 408.652 213.209ZM436.245 200.613C436.585 197.665 435.624 197.74 432.618 200.887L430.183 203.429L433.082 203.164C435.55 202.932 436.022 202.551 436.245 200.613ZM593.009 190.982L596.222 187.769V146.371V104.981L592.38 104.46C590.268 104.17 583.279 103.88 576.853 103.83C570.426 103.772 561.284 103.491 556.53 103.209L547.893 102.688L546.949 98.4475C544.581 87.9138 534.544 78.2164 523.662 75.9556L520.664 75.3263L520.78 52.1553C520.838 39.4105 521.12 26.8395 521.401 24.2227L521.907 19.4609H474.596C443.607 19.4609 427.285 19.1711 427.285 18.6328C427.285 18.0945 443.582 17.8047 474.529 17.8047H521.782L521.526 13.8711L521.277 9.9375L509.683 9.54828L498.09 9.15906L509.683 8.72016L521.277 8.28125L521.534 4.76172L521.782 1.24219H474.91C423.948 1.24219 425.314 1.12625 421.563 5.88797C419.865 8.04938 419.832 8.80297 419.832 46.4827V84.8828H432.303H444.775L447.947 87.9469C450.58 90.4809 453.421 91.7894 464.567 95.607L478.016 100.203L478.124 107.656C478.256 116.724 480.575 122.48 486.471 128.376L490.305 132.21L478.157 150.992C471.474 161.319 465.503 170.296 464.898 170.942C463.954 171.952 463.126 171.67 459.126 169.02C456.559 167.314 454.373 166.039 454.274 166.188C454.166 166.329 453.271 168.457 452.278 170.908C450.787 174.585 450.472 177.028 450.472 184.78V194.195H520.134H589.796L593.009 190.982ZM404.719 178.767L406.582 178.27V141.51V104.758H395.402H384.222V141.179V177.6L386.5 178.105C387.75 178.378 389.15 178.734 389.605 178.883C391.071 179.372 402.797 179.281 404.719 178.767ZM411.07 177.128C412.163 176.705 412.379 174.958 412.379 166.362V156.102H424.801C436.668 156.102 437.222 156.176 437.222 157.758C437.222 160.466 438.473 159.712 443.781 153.833L448.816 148.259V119.432V90.6052L446.787 88.568L444.75 86.5391H395.137H345.524L343.346 88.7253L341.16 90.9033L341.21 111.292L341.251 131.672L347.006 136.061L352.754 140.45V132.541V124.633H365.176H377.597V144.673V164.706L379.659 166.851L381.713 169.004L379.651 172.043C377.639 174.999 377.631 175.107 379.196 175.943C380.073 176.415 381.2 176.805 381.68 176.805C382.293 176.805 382.566 165.484 382.566 139.953V103.102H394.988H407.41V140.367C407.41 179.894 407.277 178.585 411.07 177.128ZM419.766 173.459C427.79 169.186 435.98 162.47 435.98 160.176V158.172L425.008 157.94L414.035 157.708V166.842C414.035 171.869 414.258 175.977 414.54 175.977C414.822 175.977 417.165 174.842 419.766 173.459ZM476.732 150.255L488.293 132.401L484.98 129.138C483.167 127.341 480.525 123.457 479.126 120.492C476.989 115.979 476.55 113.975 476.401 108.087L476.219 101.064L463.341 96.7581L450.472 92.4602L450.522 118.695C450.564 139.307 450.779 144.591 451.557 143.382C456.137 136.243 463.275 127.805 468.178 123.747C471.424 121.064 474.513 118.852 475.051 118.852C476.368 118.828 477.237 121.809 476.625 124.244C476.351 125.328 474.231 128.5 471.913 131.291L467.697 136.359L469.42 138.198C472.053 140.997 472.426 144.549 470.538 148.831C468.6 153.211 464.874 156.102 460.418 156.706C457.735 157.062 457.039 157.567 456.311 159.638C454.944 163.571 455.193 164.184 459.375 167.232C462.397 169.426 463.524 169.865 464.236 169.103C464.749 168.557 470.372 160.077 476.732 150.255ZM376.521 144.715L376.355 126.703L365.383 126.471L354.41 126.239V134.098V141.965L364.968 152.317C370.774 158.015 375.784 162.685 376.107 162.702C376.421 162.718 376.604 154.619 376.521 144.715ZM318.337 131.399L322.436 129.552L319.355 127.018C315.861 124.136 313.832 120.708 313.832 117.677C313.832 116.037 313.095 115.267 310.312 114.016C306.561 112.327 302.412 108.451 303.348 107.507C303.662 107.201 305.128 108.103 306.594 109.528C311.704 114.447 316.813 115.151 320.523 111.449C322.66 109.304 322.941 108.451 322.941 104.021C322.941 99.7808 323.206 98.8781 324.688 98.0831C326.411 97.1639 326.403 97.1225 323.894 94.5305C322.494 93.0978 320.763 90.2491 320.043 88.2036C317.517 81.0403 313.724 77.3717 310.577 79.0528C309.633 79.558 308.863 80.6759 308.863 81.5289C308.863 84.5433 307.853 85.6364 303.82 86.978C301.584 87.7233 299.754 88.4355 299.754 88.5763C299.754 88.7088 300.308 90.158 300.996 91.7894C302.371 95.0936 302.23 95.3503 297.476 98.166C294.205 100.104 294.006 102.398 296.855 105.246C298.743 107.143 298.926 107.938 298.926 114.53C298.917 122.993 297.518 126.09 292.541 128.666C290.338 129.809 289.775 130.438 290.644 130.769C297.94 133.535 298.917 133.709 306.379 133.477C312.349 133.295 315.231 132.79 318.337 131.399ZM618.582 99.4827C618.582 93.0481 616.387 81.4378 613.596 73.1069C601.87 38.1103 569.731 10.9892 531.811 4.07437C527.579 3.30422 523.944 2.85704 523.728 3.07235C523.505 3.28766 523.14 14.6164 522.917 28.2308C522.685 41.8534 522.329 57.7203 522.122 63.4841L521.749 73.9681L525.865 74.9536C536.308 77.4545 546.709 88.1622 548.63 98.3812C549.144 101.114 549.483 101.454 551.802 101.528C571.188 102.116 617.489 103.714 617.961 103.805C618.3 103.872 618.582 101.926 618.582 99.4827ZM245.752 94.4063C247.441 90.9281 247.781 90.6797 250.803 90.6797C253.776 90.6797 254.232 90.9944 256.252 94.4477C257.801 97.0811 258.877 98.0914 259.855 97.8181C265.494 96.253 265.196 96.6008 264.774 92.22C264.418 88.4934 264.583 87.9966 266.67 86.5142C269.552 84.4605 270.231 84.477 274.14 86.6716C276.773 88.1539 277.543 88.2781 278.603 87.4003C280.119 86.1416 280.276 81.6863 278.91 78.6884C278.123 76.9577 278.198 76.0136 279.307 73.6783C280.624 70.9206 280.864 70.8047 285.162 70.8047H289.651L290.404 67.6992C291.149 64.6186 291.125 64.5772 287.381 62.5234C283.97 60.6519 283.58 60.1302 283.357 57.1158C283.125 53.9027 283.249 53.7205 286.876 51.9483C290.785 50.0519 291.199 49.1741 289.833 45.6049C289.112 43.6919 288.591 43.4766 284.64 43.4766C280.5 43.4766 280.168 43.3192 278.744 40.6609C277.237 37.8619 277.237 37.8288 279.374 34.185L281.518 30.5247L279.067 28.1728L276.624 25.8292L273.105 28.1563L269.585 30.4833L266.662 28.7608C263.854 27.1128 263.738 26.8644 263.962 22.8728L264.186 18.7073L260.766 17.7881C258.894 17.283 257.246 16.9848 257.122 17.1256C256.998 17.2747 256.095 18.9723 255.118 20.9102C253.445 24.2227 253.138 24.4297 249.801 24.4297C246.406 24.4297 246.174 24.2641 244.41 20.6286C243.068 17.8709 242.199 16.96 241.263 17.3161C240.559 17.5894 239.077 18.0366 237.984 18.3098C236.187 18.7653 235.988 19.2539 235.988 23.1958C235.988 27.2287 235.773 27.7173 233.338 29.2577L230.688 30.9305L227.061 28.8022L223.425 26.6739L221.007 29.0837L218.597 31.5019L220.668 34.5494C223.094 38.1103 223.152 38.6238 221.471 41.8617C220.312 44.1059 219.848 44.3047 215.765 44.3047C211.765 44.3047 211.277 44.5034 210.821 46.3005C210.548 47.3936 210.101 48.8594 209.836 49.5633C209.488 50.4577 210.482 51.4017 213.264 52.8178C216.875 54.648 217.19 55.062 217.272 57.9853C217.347 60.8672 217.032 61.3558 213.836 63.2853C210.233 65.4633 209.745 66.6972 211.078 70.225C211.774 72.0552 212.196 72.1959 215.923 71.8398C219.873 71.4589 220.063 71.5417 221.835 74.407L223.666 77.3717L221.454 81.148C219.624 84.27 219.426 85.1313 220.303 86.183C222.639 88.9986 224.27 89.1891 227.839 87.0608C231.102 85.1147 231.384 85.0816 234.001 86.332C236.559 87.5494 236.758 87.9469 236.982 92.2283C237.205 96.3275 237.454 96.8824 239.301 97.3958C243.234 98.4806 243.921 98.1659 245.752 94.4063ZM282.992 75.3511C284.806 72.552 284.814 72.4609 283.224 72.4609C281.535 72.4609 279.879 74.6886 279.879 76.9577C279.879 79.028 280.98 78.4649 282.992 75.3511ZM595.204 7.26266C594.624 6.08672 593.1 4.33937 591.817 3.38703C589.556 1.71422 588.496 1.64797 558.692 1.50719L527.902 1.34985L534.544 2.86532C538.196 3.70172 544.067 5.35796 547.603 6.54218C552.009 8.01625 556.034 8.73672 560.423 8.83609L566.824 8.97687L561.855 9.45719L556.887 9.9375L564.34 13.8628L571.793 17.7964H580.231C590.906 17.8047 592.479 19.3119 582.161 19.6349L574.658 19.875L580.264 24.1647C583.345 26.5331 588.107 30.7317 590.84 33.5142L595.808 38.5658L596.032 23.9908C596.198 13.4653 595.966 8.81954 595.204 7.26266ZM583.825 243.419C583.875 242.086 587.039 238.748 587.966 239.063C588.455 239.22 587.718 240.446 586.326 241.771C584.935 243.104 583.809 243.841 583.825 243.419ZM597.879 240.984C596.81 239.85 596.123 238.74 596.347 238.508C596.57 238.285 597.821 239.22 599.129 240.579C600.438 241.937 601.125 243.055 600.661 243.055C600.197 243.055 598.947 242.127 597.879 240.984ZM585.084 229.026C582.608 226.293 584.09 225.432 586.658 228.107C588.355 229.879 588.695 230.633 587.809 230.633C587.113 230.633 585.887 229.912 585.084 229.026ZM596.222 229.945C596.222 228.968 600.272 225.3 600.785 225.813C601.349 226.368 597.986 230.633 596.993 230.633C596.57 230.633 596.222 230.326 596.222 229.945ZM64.1107 212.87C59.5643 208.315 62.3964 200.787 68.6405 200.845C71.9033 200.878 73.7335 201.955 75.1993 204.696C76.7479 207.619 76.3255 209.897 73.7418 212.48C70.6529 215.569 66.9677 215.718 64.1107 212.87ZM72.8143 211.429C76.1185 207.876 73.9819 202.468 69.2782 202.493C66.1727 202.501 65.1541 203.073 63.8622 205.524C62.5704 207.984 62.6449 208.538 64.6241 211.064C66.7855 213.805 70.4458 213.971 72.8143 211.429ZM132.265 204.787L125.847 203.123V195.413V187.711L122.096 185.616L118.345 183.521L111.96 187.612L105.567 191.703L100.258 186.394L94.95 181.086L98.7511 174.635L102.552 168.192L100.556 164.838L98.5607 161.484L90.6852 161.244L82.8097 161.012L81.5013 156.275C80.7808 153.675 79.8616 150.528 79.4641 149.286C78.7768 147.133 79.0004 146.876 83.8697 144.16C86.6854 142.578 89.65 141.046 90.445 140.74C91.5879 140.309 91.8943 139.2 91.8943 135.473V130.753L86.0477 127.92C82.8263 126.364 79.8616 124.683 79.4475 124.194C78.9921 123.647 79.4227 120.6 80.5407 116.385L82.3708 109.478L89.824 109.635L97.2771 109.801L99.4716 105.826L101.674 101.859L97.6746 95.6899L93.6747 89.5203L96.0266 86.5805C97.3185 84.9656 99.6207 82.4481 101.136 80.9989L103.902 78.3572L110.444 82.3405L116.978 86.3238L120.539 84.1541L124.092 81.9844L124.348 74.2083L124.605 66.4239L131.23 64.5192C134.874 63.4675 138.112 62.863 138.435 63.1859C138.75 63.5006 140.431 66.3742 142.178 69.5625L145.341 75.3594L149.904 75.5995L154.467 75.848L157.714 69.1816C159.502 65.5212 161.349 62.5317 161.829 62.54C163.254 62.5649 174.814 65.6703 175.311 66.1672C175.56 66.4156 175.692 69.8855 175.609 73.8853L175.46 81.1563L179.195 83.1189C183.452 85.3548 183.733 85.2969 190.416 80.7588C193.108 78.9286 195.633 77.4297 196.006 77.4297C196.387 77.4297 199.004 79.7567 201.811 82.6055L206.921 87.7813L203.244 93.5781C201.223 96.7664 199.567 99.8636 199.559 100.452C199.559 101.048 200.387 103.044 201.414 104.882L203.277 108.236L210.912 107.764L218.539 107.292L220.278 113.271C221.239 116.559 222.191 119.871 222.407 120.625C222.705 121.652 221.115 122.91 216.146 125.593L209.488 129.188V133.477V137.767L215.906 141.27C219.434 143.191 222.465 144.88 222.639 145.021C222.928 145.253 222.175 148.69 220.179 156.309L219.359 159.414L211.732 159.422L204.105 159.431L202.242 162.693C201.215 164.482 200.379 166.337 200.379 166.801C200.379 167.265 202.085 170.279 204.171 173.509L207.964 179.372L203.277 184.713C200.693 187.653 198.192 190.055 197.72 190.055C197.248 190.055 194.126 188.398 190.789 186.37L184.711 182.676L180.835 184.846L176.968 187.007L177.423 194.676C177.862 202.013 177.804 202.352 176.081 202.8C175.096 203.056 171.817 203.984 168.786 204.862L163.279 206.452L159.759 199.909L156.231 193.367H151.561H146.882L143.652 199.992C141.872 203.636 140.033 206.584 139.553 206.534C139.073 206.493 135.793 205.706 132.265 204.787ZM142.824 198.336L146.054 191.711H151.643H157.225L160.314 197.591C162.012 200.82 163.858 203.644 164.413 203.86C164.968 204.067 167.792 203.545 170.682 202.684L175.949 201.127L175.659 193.649L175.361 186.171L180.048 183.521L184.735 180.879L191.037 184.705L197.331 188.523L201.853 184.009L206.366 179.496L202.159 173.269L197.961 167.041L200.47 162.395L202.987 157.758H210.664H218.332L219.31 153.41C219.848 151.017 220.486 148.309 220.734 147.39C221.107 145.974 220.146 145.212 214.506 142.462L207.832 139.208V133.734V128.268L214.391 124.765L220.949 121.271L219.359 115.714C218.481 112.65 217.769 109.859 217.769 109.503C217.769 109.155 214.324 109.089 210.109 109.362L202.449 109.867L199.782 105.222L197.124 100.584L200.933 94.3069L204.743 88.0297L200.288 83.5827L195.824 79.1356L189.613 83.1686L183.402 87.1933L178.591 84.593L173.779 81.9844L174.036 74.5395L174.293 67.0864L169.324 65.7034C166.591 64.9333 163.776 64.2791 163.072 64.2459C162.26 64.2045 160.604 66.6144 158.558 70.8047L155.329 77.4297L149.904 77.4131L144.48 77.3966L141.068 70.9952C137.276 63.8981 137.549 64.0058 129.889 66.5067L125.591 67.9063L125.765 75.3677L125.938 82.8291L121.657 85.3052C119.297 86.6633 116.978 87.6653 116.498 87.5245C116.018 87.3838 113.061 85.7441 109.914 83.8808L104.208 80.4938L99.8028 84.8414L95.389 89.1974L99.4468 95.5739L103.505 101.942L100.904 106.754L98.2957 111.565L90.8094 111.267L83.3232 110.969L82.3626 114.695C80.019 123.838 79.5221 122.563 86.9172 126.281L93.5505 129.618L93.5422 135.2L93.5339 140.781L87.3313 144.085C83.9194 145.907 81.1286 147.87 81.1286 148.45C81.1286 149.029 81.7497 151.729 82.5033 154.462L83.8863 159.414H91.4885H99.099L101.708 163.613C103.14 165.915 104.316 167.952 104.316 168.134C104.316 168.316 102.594 171.306 100.49 174.776L96.656 181.078L99.7283 184.216C105.244 189.873 105.765 189.922 112.39 185.525L118.212 181.658L122.825 184.258L127.446 186.866L127.678 194.427L127.918 201.98L133.301 203.388C136.265 204.166 138.89 204.837 139.139 204.878C139.387 204.928 141.043 201.98 142.824 198.336ZM327.082 27.0548C327.082 25.9369 331.173 22.4422 331.777 23.0467C332.084 23.3531 331.463 24.5373 330.394 25.6719C328.432 27.7588 327.082 28.3219 327.082 27.0548ZM341.566 25.2495C340.257 23.8914 339.57 22.7734 340.034 22.7734C341.102 22.7734 344.895 26.7733 344.348 27.3199C344.125 27.5434 342.874 26.6077 341.566 25.2495ZM328.738 13.25C327.67 12.1155 327.049 10.9313 327.355 10.6248C327.96 10.0203 332.051 13.515 332.051 14.633C332.051 15.9 330.701 15.3369 328.738 13.25ZM339.504 13.8048C339.504 12.6869 343.595 9.19219 344.199 9.79672C344.506 10.1031 343.884 11.2873 342.816 12.4219C340.853 14.5088 339.504 15.0719 339.504 13.8048ZM155.072 613.715C149.383 608.929 144.836 596.043 143.263 580.218C142.791 575.506 142.41 571.497 142.41 571.315C142.41 571.141 142.741 570.992 143.155 570.992C143.561 570.992 144.141 573.692 144.447 576.996C145.954 593.633 149.408 604.796 155.006 611.165C158.757 615.421 158.798 616.854 155.072 613.715ZM248.824 608.349C241.934 604.39 234.042 595.033 226.92 582.387C225.454 579.779 224.394 577.195 224.576 576.648C224.759 576.102 226.258 578.064 227.906 581.013C232.444 589.128 236.568 594.958 241.263 599.869C245.934 604.755 252.062 609.086 254.323 609.086C255.118 609.086 255.996 609.459 256.277 609.914C257.321 611.595 252.84 610.659 248.824 608.349ZM491.879 599.148C491.879 598.61 506.926 598.32 535.355 598.32C563.785 598.32 578.832 598.61 578.832 599.148C578.832 599.687 563.785 599.977 535.355 599.977C506.926 599.977 491.879 599.687 491.879 599.148ZM529.525 558.33C529.269 557.287 529.442 555.399 529.923 554.14C532.051 548.558 532.217 548.633 517.551 548.633C509.269 548.633 504.301 548.318 504.301 547.805C504.301 547.266 518.784 546.977 546.088 546.977C585.987 546.977 587.916 546.91 588.711 545.436C589.159 544.592 591.055 537.412 592.91 529.495C596.786 512.999 596.902 512.601 597.622 513.322C598.574 514.274 590.972 545.304 589.366 547.035C587.991 548.509 586.624 548.633 571.379 548.633H554.882L553.98 552.152C553.483 554.09 552.68 556.699 552.191 557.949L551.305 560.227H540.655C530.246 560.227 529.997 560.185 529.525 558.33ZM549.359 558.902C550.071 558.628 551.056 556.856 551.545 554.968C552.034 553.08 552.622 550.869 552.862 550.057C553.259 548.691 552.539 548.6 543.148 548.815L533.003 549.047L531.778 553.477C530.718 557.262 530.709 558.007 531.711 558.637C533.012 559.465 547.338 559.672 549.359 558.902ZM591.626 599.215C591.883 598.801 595.071 596.739 598.715 594.643L605.332 590.826V552.335C605.332 526.986 605.613 513.852 606.168 513.852C606.723 513.852 606.93 527.035 606.789 552.939L606.574 592.018L599.676 596.002C592.976 599.861 590.657 600.788 591.626 599.215ZM249.238 557.974C244.021 557.038 246.836 556.459 256.501 556.475C262.298 556.492 268.815 556.194 270.976 555.829C273.295 555.432 274.91 555.465 274.91 555.912C274.91 557.717 256.178 559.216 249.238 557.974ZM254.207 542.836C254.207 542.347 257.105 542.008 261.246 542.008C265.386 542.008 268.285 542.347 268.285 542.836C268.285 543.325 265.386 543.664 261.246 543.664C257.105 543.664 254.207 543.325 254.207 542.836ZM350.269 550.529C340.166 548.757 320.457 542.513 320.457 541.08C320.457 540.087 320.622 540.111 325.599 542.082C328.009 543.035 335.015 545.113 341.16 546.703C349.83 548.948 354.103 549.618 360.207 549.676C367.734 549.759 369.349 549.403 375.32 546.331C375.66 546.157 375.941 546.43 375.941 546.952C375.941 547.465 374.359 548.608 372.422 549.486C369.631 550.745 367.18 551.059 360.621 550.985C356.066 550.935 351.412 550.728 350.269 550.529ZM342.824 533.106C342.849 531.963 351.818 524.601 352.282 525.346C352.53 525.752 350.725 527.806 348.265 529.909C343.826 533.702 342.808 534.298 342.824 533.106ZM97.2771 409.533C88.383 408.481 77.0957 404.282 71.6632 400.018C68.4418 397.483 71.0835 397.972 75.7293 400.763C89.12 408.829 107.645 410.543 124.63 405.301C127.669 404.365 130.361 403.81 130.617 404.067C131.47 404.92 130.328 405.376 122.452 407.346C113.483 409.591 104.399 410.377 97.2771 409.533ZM107.836 380.093C93.1447 376.905 80.7477 363.895 75.34 345.991C74.3463 342.711 73.7004 339.357 73.8908 338.538C74.3049 336.798 74.2386 336.641 76.9632 345.742C79.6297 354.653 83.2735 361.063 89.3022 367.464C97.3019 375.96 106.229 379.695 118.56 379.695C121.616 379.695 123.272 380.01 122.949 380.523C122.237 381.675 114.038 381.443 107.836 380.093ZM131.653 367.688C131.561 367.232 131.545 363.505 131.611 359.406C131.752 350.479 129.549 340.997 125.789 334.331C124.332 331.747 123.711 329.966 124.34 330.157C126.129 330.687 130.733 340.749 132.05 346.984C133.35 353.162 133.566 363.033 132.472 366.445C132.108 367.588 131.735 368.143 131.653 367.688ZM422.614 385.84C420.61 382.784 421.894 379.381 425.19 379C428.014 378.677 429.769 380.532 429.769 383.828C429.769 388.25 425.057 389.575 422.614 385.84ZM231.558 388.117C229.852 386.229 229.827 384.722 231.483 382.362C232.883 380.358 235.897 379.936 237.479 381.517C238.961 383 238.679 386.71 236.957 388.266C234.986 390.047 233.263 389.997 231.558 388.117ZM271.597 296.162C271.597 295.649 272.301 295.227 273.163 295.227C276.334 295.227 289.609 290.929 296.383 287.715C300.217 285.885 305.625 282.78 308.391 280.809C315.082 276.031 324.755 265.745 328.059 259.899C329.516 257.307 330.858 255.617 331.032 256.139C331.603 257.862 326.991 265.166 321.6 271.07C314.925 278.383 307.927 283.666 298.926 288.188C288.135 293.595 271.597 298.423 271.597 296.162ZM494.015 182.568C485.187 181.177 471.176 176.805 471.176 175.438C471.176 174.95 487.15 149.932 493.634 140.268L496.756 135.622L501.129 136.748C517.931 141.113 535.239 132.078 540.672 116.111L542.146 111.797L564.008 112.095C576.033 112.261 586.136 112.642 586.467 112.94C586.79 113.238 586.368 116.857 585.531 120.972C579.61 149.841 555.843 173.592 525.418 181.028C517.724 182.916 501.294 183.72 494.015 182.568ZM525.799 179.306C555.636 171.927 579.147 147.613 584.529 118.563C585.051 115.73 584.993 114.488 584.331 114.29C583.809 114.132 574.377 113.793 563.371 113.528L543.355 113.047L541.964 117.229C538.378 128.02 527.596 136.732 515.19 138.86C510.495 139.663 508.027 139.663 503.274 138.852C497.783 137.908 497.195 137.941 496.201 139.299C490.968 146.437 473.635 174.436 474.041 175.099C474.753 176.242 486.968 179.968 493.121 180.92C500.955 182.121 517.766 181.293 525.799 179.306ZM457.926 85.9428C445.404 81.6614 434.837 77.852 434.456 77.4794C432.883 75.9142 441.115 63.542 448.94 55.7163C462.845 41.812 485.394 31.9325 503.315 31.8911L508.532 31.8828L508.011 53.6211C507.721 65.5792 507.356 75.7734 507.207 76.2786C507.05 76.7838 505.352 77.4463 503.431 77.7527C496.168 78.912 488.69 83.7648 482.753 91.1683L480.699 93.7272L457.926 85.9428ZM484.972 86.5391C489.767 81.3633 496.798 77.2806 502.851 76.1627L505.957 75.5913V69.6039C505.957 66.308 506.205 56.7928 506.503 48.4453L507.058 33.2741L499.671 33.7709C482.612 34.9138 464.567 43.1039 451.06 55.8322C445.578 60.9914 435.003 75.4836 435.989 76.4774C436.568 77.0488 477.701 91.2263 479.291 91.3919C479.887 91.4581 482.446 89.2719 484.972 86.5391ZM428.279 11.0141C426.954 9.68907 427.028 8.28953 428.486 7.07218C430.291 5.58156 433.082 6.79891 433.082 9.07626C433.082 11.7263 430.167 12.9022 428.279 11.0141ZM439.748 10.8153C437.512 8.11562 441.206 4.87766 443.69 7.35375C444.742 8.41375 444.849 9.05969 444.162 10.1611C442.953 12.0823 441.032 12.3639 439.748 10.8153ZM450.787 10.8153C450.017 8.7864 450.829 6.65812 452.501 6.33515C454.688 5.91281 456.46 8.45516 455.383 10.4675C454.406 12.2894 451.441 12.513 450.787 10.8153ZM470.993 8.91062C473.403 8.745 477.13 8.745 479.275 8.91891C481.428 9.08454 479.457 9.22532 474.902 9.21704C470.347 9.21704 468.592 9.07625 470.993 8.91062ZM241.321 77.1233C236.104 74.6886 231.359 69.2561 229.761 63.8567C228.22 58.6892 228.22 56.4202 229.752 51.2858C233.148 39.9156 245.843 33.39 257.221 37.1663C272.442 42.2261 276.914 62.4158 265.254 73.4464C259.176 79.2019 249.114 80.7505 241.321 77.1233ZM258.165 76.1461C271.324 70.6556 274.546 53.4058 264.268 43.46C256.641 36.0731 245.553 35.6591 237.611 42.458C232.692 46.6649 230.671 51.0622 230.663 57.5547C230.655 65.9602 234.771 72.5106 242.182 75.8811C246.315 77.7609 253.991 77.8852 258.165 76.1461ZM576.588 8.91062C579.221 8.745 583.32 8.745 585.697 8.91062C588.065 9.08453 585.912 9.21704 580.902 9.21704C575.892 9.20875 573.946 9.07625 576.588 8.91062ZM141.665 169.699C115.43 162.644 105.616 131.026 123.272 110.406C133.259 98.7291 151.95 94.7458 165.953 101.296C193.762 114.314 194.292 153.394 166.84 167.083C158.997 170.991 149.971 171.927 141.665 169.699ZM165.929 165.749C173.332 162.089 178.798 156.491 182.425 148.831C184.884 143.622 185.058 142.678 185.058 134.156C185.058 125.585 184.901 124.724 182.4 119.614C179.079 112.832 171.643 105.528 165.001 102.522C158.625 99.64 148.149 98.9775 141.085 101.006C131.412 103.781 123.52 110.671 118.949 120.343C116.548 125.42 116.332 126.554 116.349 134.156C116.365 140.823 116.738 143.365 118.27 147.199C122.088 156.781 130.336 164.424 140.472 167.77C144.215 169.004 146.956 169.294 152.604 169.045C158.948 168.764 160.687 168.341 165.929 165.749ZM489.991 175.463C486.902 174.801 483.357 173.857 482.123 173.36C478.339 171.853 481.494 171.662 486.628 173.086C489.287 173.823 495.845 174.643 501.195 174.9C506.545 175.165 510.926 175.695 510.926 176.093C510.926 177.227 496.152 176.788 489.991 175.463ZM525.832 173.6C525.832 173.194 527.786 172.225 530.179 171.455C536.68 169.352 547.653 163.298 553.781 158.42C563.934 150.338 573.366 136.127 576.877 123.631C577.614 120.989 578.567 118.836 578.997 118.836C579.42 118.836 579.585 119.49 579.354 120.285C579.122 121.08 578.534 123.283 578.045 125.171C573.3 143.539 555.487 162.884 535.902 170.95C529.177 173.716 525.832 174.594 525.832 173.6ZM455.855 57.8031C460.816 53.207 470.861 46.5489 472.161 46.9795C472.674 47.1534 469.958 49.3811 466.132 51.94C462.298 54.4906 458.075 57.7286 456.733 59.1364C455.4 60.5442 453.719 61.6788 453.006 61.6622C452.228 61.6456 453.346 60.1219 455.855 57.8031ZM477.801 44.462C477.801 42.9548 493.667 38.5409 499.174 38.5161C503.588 38.4995 501.468 39.8742 496.243 40.4208C492.243 40.8431 483.755 43.0211 478.943 44.8678C478.314 45.1162 477.801 44.9258 477.801 44.462Z" fill="#1A1A1A"/>
</svg>
