<svg width="654" height="393" viewBox="0 0 654 393" fill="none" xmlns="http://www.w3.org/2000/svg">
<path d="M502.612 0.215902C491.877 1.14158 471.335 3.38965 460.534 4.71204C453.444 5.63771 442.378 6.96011 436.017 7.68742C418.192 9.73713 390.493 12.977 385.325 13.6382C382.807 13.9688 374.126 14.9606 366.108 15.8863C358.09 16.8781 350.934 17.7376 350.205 17.936C349.476 18.0682 338.874 19.4567 326.682 20.9114C305.875 23.4239 295.14 24.8785 279.303 27.1927C275.658 27.7217 270.424 28.5151 267.707 28.8457C258.562 30.102 247.298 31.9533 243.521 32.8129C228.214 36.2511 224.039 37.7057 225.431 39.0943C225.563 39.2265 227.617 38.962 229.937 38.4992C238.021 36.7801 256.111 33.5402 263.068 32.4823C281.423 29.7053 287.851 28.7796 294.875 27.8539C299.05 27.325 309.652 26.0026 318.399 24.8785C344.109 21.5725 359.084 19.7212 387.975 16.3491C394.204 15.6218 402.222 14.5639 405.867 14.0349C409.511 13.506 415.607 12.7786 419.451 12.3158C423.294 11.9191 433.896 10.7289 442.974 9.67101C464.51 7.15847 470.01 6.49727 478.425 5.70383C482.269 5.37323 491.082 4.44756 497.973 3.72024C504.931 2.99293 511.623 2.33173 512.882 2.26561C514.406 2.13337 515.202 1.73665 515.202 1.07546C515.202 0.282022 514.208 0.0836628 510.232 0.0175431C507.515 -0.0485765 504.069 0.0836628 502.612 0.215902Z" fill="black"/>
<path d="M515.2 17.6053C514.471 18.7293 515.399 79.5594 516.526 106.867C517.056 119.43 517.52 132.323 517.52 135.497C517.52 140.125 517.718 141.381 518.58 141.712C519.11 141.91 519.839 141.844 520.17 141.514C520.501 141.183 520.435 131.199 520.17 119.099C519.375 91.6593 517.652 35.5899 517.188 25.6058C516.923 18.3326 516.261 15.8862 515.2 17.6053Z" fill="black"/>
<path d="M464.709 30.234C450.992 31.0936 433.101 33.6061 431.577 34.9285C430.451 35.7881 430.451 50.4666 431.445 61.178C432.306 70.4347 432.505 70.6331 438.601 70.1042C440.986 69.9058 450.462 69.5091 459.673 69.2446C472.197 68.8479 476.636 68.5173 477.498 67.79C478.425 66.9965 478.558 65.0129 478.359 49.4748C478.094 32.0854 478.094 32.0192 476.504 30.763C475.642 30.1018 474.45 29.5728 473.853 29.5728C473.257 29.6389 469.149 29.9034 464.709 30.234ZM474.383 34.0028C475.112 35.3913 475.642 63.2277 474.98 64.2856C474.648 64.7485 470.606 65.2113 464.378 65.4758C458.811 65.7403 450.065 66.2692 445.029 66.5998C439.926 66.9304 435.487 66.9304 435.222 66.6659C434.36 65.8064 433.101 38.1022 433.896 37.3088C435.155 36.0525 458.745 33.0771 469.281 32.8788C472.926 32.8127 473.853 33.011 474.383 34.0028Z" fill="black"/>
<path d="M266.712 43.7889C264.194 45.0452 260.219 47.161 257.966 48.4173L253.791 50.7315L253.857 54.1697C253.857 56.0872 254.387 60.4511 254.984 63.8893C255.911 69.245 256.309 70.1706 257.436 70.3029C258.164 70.4351 262.074 68.7821 266.05 66.6663L273.339 62.8975L273.935 55.6243C274.266 51.591 274.532 46.8304 274.598 45.0452C274.664 42.0037 274.532 41.7392 273.007 41.607C272.08 41.5408 269.297 42.4665 266.712 43.7889ZM271.02 53.0457V60.6494L265.387 63.2942C262.273 64.6827 259.357 65.8729 258.893 65.8729C258.297 65.8729 257.634 63.8893 256.905 60.0543C256.243 56.8806 255.779 53.9052 255.779 53.5085C255.779 52.7812 269.098 45.508 270.556 45.4419C270.821 45.3758 271.02 48.814 271.02 53.0457Z" fill="black"/>
<path d="M548.134 42.797C540.845 43.7227 541.11 43.1276 540.182 58.6657C538.857 79.8901 538.526 90.6676 538.923 92.3867C539.718 95.4944 541.375 95.8911 555.622 96.2878C568.411 96.6184 568.874 96.6845 568.742 97.9408C567.615 107.198 567.615 106.669 569.471 107.859C571.127 108.917 572.585 108.983 584.977 108.652C604.127 108.057 610.952 107.264 612.476 105.412C613.536 104.156 613.669 102.305 613.47 81.0803L613.271 58.1368L610.554 54.5663C608.434 51.7893 606.777 50.4008 603.398 48.7478C598.229 46.2352 589.085 43.7888 580.802 42.797C574.043 42.0036 554.429 41.9374 548.134 42.797ZM576.495 45.7063C590.013 47.1609 600.217 50.004 604.657 53.5745L606.645 55.1614L606.976 79.2289C607.175 92.9157 607.042 103.429 606.711 103.627C605.452 104.553 579.609 106.14 574.374 105.611C571.923 105.412 571.856 105.346 571.856 102.635C571.923 97.6102 576.031 83.1961 577.621 82.601C578.085 82.4027 579.675 82.7333 581.133 83.3283C584.844 84.783 586.898 84.6507 587.826 82.9316C588.488 81.6754 588.356 81.2786 586.699 79.9562C585.639 79.1628 583.121 77.5759 581.133 76.518C576.296 73.9394 575.037 72.4847 572.254 66.3356C570.664 62.9635 569.537 61.2444 568.808 61.2444C566.688 61.2444 565.959 63.3602 565.893 69.1787C565.893 75.5262 566.82 77.7743 569.537 77.7743C570.399 77.7743 571.26 78.0388 571.459 78.3694C571.923 79.0306 570.597 89.3452 569.868 91.3949C569.338 92.7173 568.808 92.7835 556.152 92.8496C548.929 92.9818 542.634 92.7173 542.104 92.3867C541.309 91.9239 541.309 89.2791 541.971 75.394C543.164 49.8057 543.429 46.6319 544.224 46.3013C545.55 45.9046 557.278 44.9128 562.579 44.7806C565.296 44.7806 571.591 45.1773 576.495 45.7063Z" fill="black"/>
<path d="M224.964 74.0055C225.428 102.437 225.76 107.33 226.952 107.065C228.476 106.669 228.675 101.379 227.946 80.4191C226.886 50.7314 226.488 45.9046 225.362 45.5079C224.633 45.2434 224.567 49.6735 224.964 74.0055Z" fill="black"/>
<path d="M294.872 51.7892C288.114 52.1198 277.975 53.5083 277.047 54.2356C276.319 54.8307 276.252 57.0126 276.584 66.3355C276.849 72.5507 277.313 78.5015 277.578 79.5594L278.041 81.4108H284.005C299.378 81.4108 314.221 80.5512 314.818 79.6917C315.414 78.766 315.348 77.8403 314.023 62.8973C312.83 50.4668 313.492 51.3263 305.342 51.4586C301.565 51.5247 296.86 51.6569 294.872 51.7892ZM309.318 54.8307C310.113 55.7563 312.432 75.3278 311.902 76.7163C311.637 77.3775 308.191 77.7081 297.722 78.0387C290.168 78.3031 283.21 78.5676 282.282 78.6337C280.758 78.766 280.626 78.5015 280.162 75.1294C279.963 73.1458 279.764 68.0546 279.698 63.8229L279.632 56.0869L284.469 55.6241C301.764 53.8389 308.324 53.6405 309.318 54.8307Z" fill="black"/>
<path d="M422.564 54.6321C413.486 58.1364 410.703 64.3516 414.413 72.6166C416.335 77.0466 420.708 82.0056 422.299 81.675C423.293 81.4766 423.094 80.8816 420.708 77.7739C417.196 73.0794 414.811 68.1205 414.811 65.2773C414.811 62.2358 418.588 58.6654 424.154 56.4834C426.473 55.5577 428.461 54.4337 428.594 54.037C428.925 52.9791 426.142 53.1774 422.564 54.6321Z" fill="black"/>
<path d="M335.03 69.906C331.055 70.2366 327.476 70.7656 327.145 71.0962C325.82 72.4186 327.543 98.9987 329.067 101.379L329.994 102.834L349.741 102.437C360.542 102.239 370.084 101.776 370.945 101.511C371.74 101.181 372.602 100.453 372.867 99.7921C373.728 97.544 370.68 72.4186 369.355 71.1623C368.427 70.3028 355.903 69.1787 348.681 69.2448C345.169 69.311 339.006 69.6416 335.03 69.906ZM359.747 72.4186C363.59 72.7492 366.837 73.3443 367.102 73.741C367.831 74.9311 369.885 92.9818 369.62 95.9572L369.421 98.602L359.15 99.1309C353.518 99.3954 344.837 99.5276 339.934 99.4615L330.988 99.2632L330.591 95.6266C330.326 93.643 329.928 87.9567 329.663 82.9977C329.265 75.6584 329.332 73.8732 330.061 73.4104C332.049 72.2202 349.741 71.6251 359.747 72.4186Z" fill="black"/>
<path d="M450.329 71.9555C450.13 72.4184 449.732 74.9309 449.401 77.5757C448.606 83.1297 446.552 87.692 443.901 89.6095C441.714 91.2625 441.383 92.9816 443.239 92.9816C445.16 92.9816 449.666 87.4275 450.991 83.5265C452.383 79.427 452.648 71.7572 451.455 71.3604C450.991 71.1621 450.461 71.4266 450.329 71.9555Z" fill="black"/>
<path d="M424.75 83.7251C424.75 84.6508 431.31 89.6759 432.503 89.6759C433.232 89.6759 432.967 89.0808 431.708 87.494C428.792 84.1219 424.75 81.8738 424.75 83.7251Z" fill="black"/>
<path d="M164.731 88.3533C150.617 91.3287 139.154 100.189 134.316 111.892C131.666 118.372 129.877 127.959 129.877 136.422C129.877 150.307 127.756 157.448 120.799 167.102C113.642 177.02 111.323 182.706 111.323 190.508C111.323 195.335 113.046 199.368 116.492 202.939C119.473 206.046 121.064 206.906 126.1 208.03C129.082 208.691 130.804 208.757 133.389 208.228C139.419 206.972 139.154 208.559 132.925 211.336C130.738 212.328 127.226 213.518 125.238 213.981C120.997 214.972 117.618 216.956 113.245 221.055C110.196 223.899 110.064 223.965 106.751 223.502C103.636 223.105 103.371 223.171 102.775 224.692C101.847 227.138 101.648 231.37 102.377 231.635C102.775 231.767 104.166 230.841 105.558 229.585C106.883 228.395 108.01 227.601 108.01 227.932C108.01 228.263 108.54 228.527 109.203 228.527C111.257 228.527 111.323 229.254 109.666 232.097C106.95 236.858 102.112 248.231 101.648 251.008L101.185 253.652H105.757C111.323 253.652 114.504 255.041 116.094 258.149C116.69 259.339 117.684 260.926 118.347 261.719C119.407 262.777 119.672 264.694 120.004 273.356C120.534 284.464 121.329 288.101 126.1 301.325C129.148 309.656 130.804 317.127 130.208 319.904C129.678 322.483 126.829 325.723 125.106 325.723C122.058 325.723 110.13 309.92 102.444 295.837C99.4618 290.283 99.3955 289.952 100.058 287.307C100.986 284.001 100.058 279.042 97.9377 275.538C97.1425 274.216 94.6245 271.108 92.3716 268.662C88.6608 264.628 87.9982 263.504 86.209 257.752C83.7573 250.148 83.5585 245.652 85.4801 243.735C88.3295 240.891 90.9138 243.007 91.8414 248.892C92.1065 250.809 91.9077 252.33 90.8475 254.644C88.8596 259.14 89.9198 259.735 93.6968 256.297C97.1425 253.124 100.058 248.495 100.058 246.247C100.058 242.941 98.004 238.511 96.0823 237.519C95.0221 237.056 94.0281 236.726 93.8956 236.924C93.6968 237.056 94.2932 238.643 95.0884 240.362C95.9498 242.082 96.8775 244.66 97.1425 245.983C97.8714 250.082 95.8173 248.76 92.5703 243.073C90.5162 239.437 89.3897 238.048 88.2632 237.916C84.4862 237.387 80.8417 242.875 80.8417 249.222C80.8417 253.52 83.426 262.512 86.0102 266.876C86.9379 268.529 89.3234 271.505 91.2451 273.554C94.9558 277.456 96.5462 280.894 95.2209 281.952C93.8294 283.076 80.9742 268.728 77.8598 262.579C75.4081 257.818 75.2093 256.892 74.9442 251.14C74.6792 243.933 75.2755 238.379 76.402 236.858C77.0646 235.999 78.7875 235.668 84.4862 235.337C91.1125 235.007 92.0402 234.742 94.5583 233.023C97.7389 230.907 99.0642 228.659 100.389 223.634C101.45 219.336 102.709 210.08 102.709 206.112C102.709 203.269 102.907 202.939 105.889 200.757C108.474 198.839 109.004 198.046 109.203 196.128C109.335 194.145 108.805 193.219 105.492 189.45C103.371 187.07 101.118 184.028 100.522 182.772C99.7268 181.053 96.745 165.912 96.745 163.399C96.745 163.267 98.0702 163.267 99.7268 163.531C101.648 163.796 103.04 163.598 103.703 163.069C105.094 161.945 104.962 161.085 103.438 161.085C101.781 161.085 100.986 159.895 101.98 158.903C102.377 158.506 102.709 157.779 102.709 157.25C102.709 155.729 91.3113 137.084 88.462 134.042C83.2934 128.356 77.3297 125.777 65.6673 124.058C59.2397 123.066 46.5171 123.529 39.6257 124.984C30.7463 126.901 26.1741 128.819 19.0177 133.844C6.75889 142.307 0.0662637 155.2 0 170.342C0 181.516 2.25296 189.186 10.4034 205.517C17.2286 219.27 18.1562 221.518 19.5478 227.138C21.6682 235.866 20.1442 245.321 15.2406 253.652C11.1986 260.463 6.62637 269.587 5.63241 272.893C2.58428 282.745 1.52406 293.655 2.58428 304.565C3.57824 314.483 4.63846 319.574 8.7468 333.988C10.6022 340.534 13.2527 350.055 14.6443 355.146C17.7587 366.254 18.2225 367.378 19.5478 367.378C21.4032 367.378 20.608 363.279 15.3069 345.162C6.82516 316.202 4.43967 302.317 5.8312 289.886C6.75889 281.423 8.68054 273.819 11.3311 268.199C13.2527 264.033 17.096 257.62 17.9575 256.958C18.2225 256.76 22.5296 256.826 27.6319 257.091C50.8905 258.149 69.9082 265.752 84.7512 279.902C91.0463 285.853 92.5703 287.969 102.974 304.565C111.058 317.458 112.714 320.169 113.51 321.227C114.504 322.747 113.311 326.12 109.931 331.079C103.968 339.939 92.3716 347.41 82.9621 348.6L79.3839 349.063L75.6731 345.162C71.1009 340.335 65.2034 332.467 60.83 325.26C58.9747 322.219 56.9868 319.375 56.4566 318.913C55.5952 318.251 55.529 318.45 55.8603 320.433C56.9868 326.252 66.0649 340.005 74.5466 348.666C77.8598 352.105 78.9863 352.832 80.7754 352.832C82.432 352.832 83.8235 353.625 86.7391 356.204C96.1486 364.469 106.817 370.949 116.558 374.321C122.919 376.569 131.666 377.561 136.437 376.635C139.816 375.908 143.593 374.255 142.997 373.66C142.864 373.527 140.744 373.66 138.292 373.99C127.756 375.246 112.449 370.684 100.588 362.684C95.751 359.378 88.1307 352.964 88.1307 352.105C88.1307 351.774 88.9258 351.179 89.9861 350.848C92.6366 349.857 99.3292 346.286 102.444 344.17C107.016 341.063 116.16 330.153 117.485 326.186C117.618 325.789 119.738 327.178 122.323 329.293C127.027 333.327 130.738 335.376 131.931 334.583C132.329 334.318 131.467 333.062 129.943 331.608C127.16 328.897 126.431 327.045 128.22 327.045C128.75 327.045 130.208 326.186 131.401 325.062C135.443 321.557 135.178 316.664 130.473 302.25C124.973 285.654 123.913 281.092 123.449 271.505C123.052 261.917 122.72 260.793 119.01 256.363C115.961 252.793 115.034 249.222 115.895 245.189C116.226 243.47 116.359 241.949 116.16 241.751C115.763 241.354 112.648 245.123 112.648 246.049C112.648 246.445 111.787 247.768 110.793 249.024C108.474 251.801 106.685 251.471 106.685 248.231C106.685 245.586 111.919 236.329 114.239 234.808C116.889 233.023 118.546 234.544 118.479 238.776C118.479 241.024 120.335 249.95 121.064 251.338C121.461 252.066 123.515 254.314 125.57 256.297C131.202 261.785 132.461 264.099 134.25 272.43C136.636 283.605 141.208 297.49 144.919 304.895C148.828 312.631 156.449 333.194 157.641 339.41C160.226 351.906 159.364 357.857 153.599 367.18C152.009 369.825 152.87 369.957 155.72 367.643C158.436 365.329 160.226 361.626 161.418 355.94C163.472 346.088 160.557 332.599 151.876 312.102C149.69 307.011 147.702 302.184 147.437 301.259C147.172 300.333 145.184 295.242 143.063 289.886C141.009 284.53 138.756 277.852 138.16 275.009C135.774 264.033 134.648 261.124 131.003 256.958C123.383 248.032 123.449 248.231 122.919 242.809C122.19 234.808 120.6 232.494 112.251 227.469C111.058 226.742 111.257 226.411 114.305 223.502C117.684 220.262 119.01 219.402 126.166 216.361C130.871 214.311 132.461 214.245 134.714 215.964C138.425 218.874 142.268 220.064 147.437 219.865C151.678 219.667 152.539 219.799 153.864 221.055C157.177 224.031 168.707 226.61 178.846 226.61C187.261 226.61 194.616 225.089 200.713 222.047C208.598 218.146 212.508 213.452 214.098 206.046C214.959 201.947 215.821 201.616 224.104 202.674C230.863 203.534 235.037 205.319 240.206 209.551C247.296 215.369 258.428 226.147 258.428 227.205C258.428 227.866 257.567 230.246 256.507 232.56C252.928 240.429 252.067 248.032 254.784 248.032C255.844 248.032 256.175 247.305 256.904 243.073C257.501 239.106 258.693 236.065 262.802 227.998C265.651 222.51 268.169 217.948 268.434 217.948C268.765 217.948 270.356 219.402 271.946 221.122C273.603 222.907 276.518 225.221 278.44 226.213C281.554 227.932 282.813 228.196 289.572 228.527C296.662 228.858 297.193 228.924 297.06 230.18C296.066 241.883 292.687 256.429 289.44 263.438C283.874 275.34 274.133 279.109 260.284 274.811C256.109 273.554 254.452 273.621 254.452 275.274C254.452 276.53 258.163 277.984 264.326 279.175C277.115 281.687 287.253 276.86 292.554 265.686C296.729 256.958 300.241 239.238 302.494 215.634C303.09 209.286 303.819 204.79 304.349 204.327C304.747 203.93 309.054 202.344 313.758 200.757C318.529 199.17 323.632 197.319 325.222 196.591C328.535 195.07 333.505 189.384 334.698 185.748C335.095 184.359 336.222 182.177 337.017 180.921C338.143 179.268 338.607 177.681 338.607 175.367C338.607 172.193 338.409 171.862 334.897 168.556C332.909 166.639 329.927 164.457 328.27 163.796C326.68 163.069 325.355 162.209 325.355 161.878C325.355 161.548 327.077 160.358 329.198 159.3C332.71 157.448 333.704 157.25 342.252 156.787C348.017 156.523 351.728 156.06 352.059 155.597C352.722 154.605 351.993 131.728 351.197 129.744C350.601 128.091 346.426 126.703 338.342 125.38C332.644 124.455 314.289 123.727 311.903 124.322C309.65 124.851 308.656 128.157 308.921 133.976C309.12 137.745 309.253 138.274 310.445 138.274C311.638 138.274 311.771 137.745 312.102 132.654L312.433 127.033L315.084 126.835C321.18 126.306 345.83 129.215 347.553 130.67C348.083 131.133 348.613 133.645 348.812 137.15C349.077 140.323 349.342 144.82 349.541 147.2C349.673 149.58 349.541 151.96 349.21 152.489C348.746 153.217 346.493 153.547 339.8 153.878C329.794 154.341 326.68 155.333 325.355 158.506C324.891 159.564 324.228 160.424 323.831 160.424C323.168 160.424 323.3 159.035 324.957 151.498C327.21 141.447 327.011 141.249 314.222 141.249C301.367 141.249 282.151 142.439 281.289 143.299C280.892 143.695 280.428 149.712 280.229 157.316C279.898 168.16 280.03 170.937 280.825 172.259C281.687 173.648 281.422 174.639 278.241 183.5C270.82 204.261 263.531 220.857 261.41 221.651C259.886 222.246 258.097 220.923 249.35 212.592C236.76 200.691 233.381 199.302 216.152 199.104C203.496 199.038 203.231 198.905 202.568 194.674C202.104 191.831 202.767 191.169 206.478 190.574C208.863 190.178 214.098 187.533 216.748 185.417C218.273 184.161 222.712 178.21 223.375 176.491C224.501 173.582 225.296 174.904 225.363 179.731C225.429 187.136 226.092 190.442 227.483 190.707C228.676 190.971 228.676 190.111 228.146 170.209C227.881 158.837 227.616 145.084 227.616 139.596V129.744L230.2 129.215C233.049 128.62 237.224 126.306 237.224 125.314C237.224 124.984 235.899 124.719 234.308 124.719C229.869 124.719 227.881 122.669 224.965 115.132C221.983 107.462 219.598 103.891 214.761 99.5276C209.857 95.1637 206.676 93.3123 199.917 90.9981C187.592 86.8326 176.129 85.973 164.731 88.3533ZM195.147 92.6511C208.598 97.1473 215.026 102.371 219.73 112.619C221.321 116.19 223.375 120.554 224.303 122.339C225.164 124.124 225.76 125.843 225.495 126.24C224.899 127.166 211.315 126.438 208.996 125.314C207.206 124.455 207.008 123.992 206.544 119.496C205.947 114.074 204.556 110.768 201.64 108.057C198.924 105.478 196.008 105.015 194.153 106.867C192.894 108.123 192.761 108.784 193.092 111.231C193.556 114.735 195.544 118.768 198.526 122.471C199.785 123.992 200.779 125.38 200.779 125.645C200.779 126.835 196.207 128.686 193.291 128.686C188.388 128.686 184.279 125.909 182.821 121.612C181.629 117.909 180.502 118.967 179.707 124.719C179.309 127.628 178.448 130.934 177.918 132.058C176.195 135.298 172.551 138.935 169.635 140.257C167.051 141.381 166.852 141.381 163.075 140.257C158.039 138.737 155.057 139.265 152.141 142.175C147.834 146.473 148.099 154.87 152.671 161.746C153.798 163.399 154.328 165.317 154.593 168.49C154.858 172.127 155.388 173.78 157.641 177.747C159.165 180.392 161.683 185.086 163.207 188.194C165.792 193.417 165.99 194.211 165.924 199.104C165.924 205.055 165.195 206.972 161.352 210.873C157.774 214.51 154.196 216.097 148.563 216.493C143.66 216.824 137.828 215.369 137.828 213.848C137.828 213.452 138.889 211.997 140.148 210.609C142.533 207.964 143.063 205.716 141.804 203.335C140.943 201.815 139.087 201.749 136.304 203.203C134.913 203.93 132.527 204.327 129.479 204.327C125.371 204.393 124.443 204.129 121.594 202.41C117.022 199.633 115.233 195.864 115.166 189.45C115.166 182.772 116.492 179.4 122.389 170.738C127.558 163.201 130.539 157.514 131.798 152.82C132.196 151.365 132.792 145.282 133.19 139.265C133.985 126.769 135.31 118.57 137.365 113.809C140.943 105.28 147.503 98.5358 156.183 94.5025C163.009 91.3287 169.436 90.3369 180.568 90.6014C188.454 90.7998 190.641 91.1304 195.147 92.6511ZM200.249 111.297C202.303 113.479 203.429 116.124 203.429 118.834C203.429 121.876 201.707 121.016 199.122 116.785C196.14 112.024 195.544 109.512 197.267 109.512C197.996 109.512 199.321 110.305 200.249 111.297ZM67.3239 127.43C78.655 129.48 83.691 132.786 89.9198 142.439C94.9558 150.241 99.528 158.903 98.7991 159.366C97.2088 160.358 85.8115 156.919 83.426 154.737C82.6971 154.142 82.1669 152.952 82.1669 152.159C82.1669 151.299 81.7031 150.307 81.1067 149.845C79.6489 148.588 78.655 149.911 76.8659 155.795C75.6068 159.63 74.6129 161.349 72.2937 163.796C69.0467 167.102 65.8661 168.49 64.9384 167.036C64.6071 166.507 64.8721 164.722 65.601 162.804C67.2576 158.242 67.6552 156.06 67.1914 154.87C66.3299 152.622 65.0047 154.01 62.6192 159.763C59.9686 166.242 56.1253 171.929 51.8182 175.83C49.0351 178.276 49.0351 178.276 44.5292 177.879C40.5534 177.549 39.8245 177.681 37.8366 179.069C34.1921 181.516 32.8005 184.491 32.8005 189.847C32.8005 193.417 33.1981 195.335 34.5234 198.178C36.0474 201.352 36.18 202.013 35.3848 203.071C34.7222 203.93 34.4571 206.443 34.3908 210.939C34.3908 218.477 33.5294 221.584 31.0777 223.37C29.0898 224.824 24.9814 225.948 23.9212 225.287C23.5236 225.023 22.2646 222.51 21.2044 219.733C20.1442 216.956 17.2286 210.873 14.6443 206.245C6.95769 192.095 3.31318 180.524 3.31318 170.342C3.31318 163.069 4.30714 159.035 7.75285 151.96C13.9816 139.265 26.1079 130.538 41.5473 127.761C47.7761 126.637 61.8903 126.438 67.3239 127.43ZM207.803 128.29C211.116 129.281 217.345 130.207 220.989 130.273L222.977 130.339L223.375 138.274C224.17 152.952 223.971 161.878 222.977 166.308C220.592 176.16 214.562 184.227 207.472 186.938C204.423 188.062 202.899 188.26 198.791 187.93C196.074 187.731 192.032 187.004 189.845 186.277C186.864 185.351 185.671 185.219 184.942 185.748C183.55 186.872 186.068 188.525 191.303 189.781C199.851 191.897 199.122 191.368 199.321 195.93C199.586 201.352 201.11 202.74 206.875 202.74H210.851L210.387 205.187C208.996 212.791 202.237 218.741 191.635 221.717C185.538 223.502 171.557 223.304 163.539 221.386C159.96 220.527 156.912 219.601 156.714 219.27C156.515 219.006 157.708 217.948 159.298 217.022C165.792 213.253 169.635 206.509 169.635 198.972C169.635 192.955 168.575 189.715 163.274 180.194C157.31 169.416 157.045 166.375 161.948 166.375C163.141 166.375 164.4 166.044 164.864 165.581C166.057 164.391 164.533 163.069 161.948 163.069C160.292 163.069 158.967 162.407 157.111 160.688C152.009 156.126 150.949 148.522 154.792 144.423C156.449 142.77 157.045 142.505 159.364 142.77C160.822 142.968 163.274 143.497 164.731 143.96C167.117 144.687 167.912 144.621 170.563 143.629C174.605 142.109 179.243 137.48 181.297 132.984C182.225 131.001 183.087 129.348 183.219 129.348C183.352 129.348 184.478 129.943 185.737 130.67C190.641 133.579 197.93 132.984 202.237 129.281C203.429 128.29 204.423 127.43 204.49 127.364C204.49 127.364 206.014 127.761 207.803 128.29ZM321.644 148.258C321.578 150.109 320.915 153.018 320.054 154.87C317.535 160.49 317.337 161.548 318.795 163.333C319.523 164.193 321.18 165.317 322.572 165.779C332.18 168.887 338.077 175.631 334.168 179.136C333.041 180.061 332.577 179.863 328.138 176.557C323.433 173.119 319.855 171.73 317.734 172.59C316.011 173.251 313.891 178.805 314.289 181.384C314.885 184.756 316.475 186.872 318.397 186.872C320.65 186.872 325.09 190.905 324.493 192.36C323.963 193.682 320.517 193.88 319.523 192.624C319.126 192.227 318.596 190.971 318.397 189.979C317.801 187.731 316.939 187.202 315.746 188.194C314.222 189.45 314.554 192.029 316.409 193.219C317.337 193.814 318.066 194.541 318.066 194.872C318.066 195.864 314.487 197.319 307.795 199.038C304.283 199.897 301.102 200.889 300.771 201.22C300.439 201.55 299.711 206.509 299.048 212.328L297.855 222.907L295.536 224.031C290.434 226.61 281.024 224.824 276.253 220.46C274.928 219.27 273.338 216.824 272.675 215.105C271.35 211.6 271.416 211.204 274.663 203.402C275.524 201.418 278.042 194.674 280.295 188.525C285.066 175.499 287.651 171.267 293.15 167.168C298.584 163.201 301.964 161.614 309.981 159.101C313.692 157.977 316.873 156.787 317.072 156.457C317.867 155.134 315.548 154.473 312.367 155.068C304.614 156.523 295.536 160.622 288.446 165.846C286.524 167.234 284.669 168.358 284.271 168.358C283.807 168.358 283.609 164.722 283.741 156.919L283.94 145.547L289.904 145.15C293.217 144.952 301.698 144.82 308.789 144.82L321.71 144.886L321.644 148.258ZM85.8115 159.961C90.0523 161.151 91.9077 162.143 92.7029 163.598C93.3655 164.788 95.6847 174.639 96.4136 179.268C97.01 182.971 99.3955 187.863 102.642 192.161C104.1 194.145 105.359 196.128 105.359 196.591C105.359 197.054 104.166 198.178 102.775 199.038C99.8593 200.889 99.6606 201.286 99.0642 207.369C98.3353 213.915 96.2148 225.089 95.2872 227.072C94.8233 228.064 93.1005 229.585 91.5101 230.444C89.0584 231.767 87.468 232.097 80.7091 232.362C73.8177 232.626 72.7575 232.825 72.1611 233.949C71.6973 234.742 71.5648 239.767 71.6973 247.239C71.8961 258.744 71.9623 259.471 73.6852 263.108C74.6792 265.223 75.2755 266.876 75.0105 266.744C58.047 257.95 47.246 254.975 29.2885 253.917C24.8489 253.652 21.0056 253.19 20.8068 252.925C20.608 252.595 20.9393 250.809 21.5357 248.892C22.1321 246.974 22.9935 241.685 23.3911 237.123L24.1862 228.924L27.1018 228.395C31.3427 227.667 34.6559 225.221 36.445 221.452C37.704 218.807 37.9691 217.022 38.1016 211.005C38.1679 206.972 38.3004 203.666 38.3004 203.534C38.3667 203.402 39.2281 203.93 40.1558 204.658C42.475 206.509 46.5834 206.509 48.3725 204.724C50.2941 202.806 49.4327 201.881 46.252 202.344C43.1376 202.873 40.7522 201.616 38.5655 198.509C35.5173 194.079 34.9872 188.987 37.1077 184.822C38.963 181.251 40.8847 180.458 45.2581 181.384C48.505 182.111 48.8363 182.045 51.2881 180.392C52.6796 179.466 55.794 176.821 58.2458 174.573C61.9565 171.135 62.9505 170.54 64.4745 170.805C68.7154 171.598 74.0165 167.961 78.5887 161.085C79.7815 159.3 80.7754 158.44 81.438 158.705C82.0344 158.837 84.0223 159.432 85.8115 159.961ZM326.15 179.731C330.987 183.037 331.915 184.69 330.324 187.136C328.933 189.252 328.668 189.252 326.282 187.136C325.222 186.21 322.969 184.756 321.313 183.896C317.469 181.913 316.21 179.069 318.198 177.086C319.391 175.896 321.511 176.623 326.15 179.731Z" fill="black"/>
<path d="M215.357 141.976C214.43 143.695 215.424 146.538 217.014 146.538C218.538 146.538 220.393 143.299 219.532 141.976C218.472 140.323 216.219 140.257 215.357 141.976Z" fill="black"/>
<path d="M191.9 143.563C190.508 144.952 190.575 146.076 192.033 147.398C193.755 148.985 194.749 148.787 195.213 146.737C196.008 143.762 193.822 141.646 191.9 143.563Z" fill="black"/>
<path d="M208.399 143.894C207.736 145.944 208.664 150.308 210.519 154.605C212.242 158.506 213.17 159.366 214.694 158.44C215.423 157.977 215.423 157.448 214.495 155.333C213.899 153.944 213.104 151.498 212.706 149.845C211.381 144.357 210.652 142.572 209.724 142.572C209.194 142.572 208.598 143.167 208.399 143.894Z" fill="black"/>
<path d="M198.329 166.441C196.142 168.622 203.232 172.854 207.672 172.061C210.322 171.532 213.702 169.085 212.907 168.292C212.575 167.961 210.72 167.961 208.732 168.292C204.955 168.887 201.973 168.358 200.118 166.705C199.323 165.978 198.859 165.912 198.329 166.441Z" fill="black"/>
<path d="M308.257 165.185C307.794 165.647 307.462 166.573 307.462 167.3C307.462 169.615 305.541 175.169 303.884 177.681C302.36 179.929 297.456 182.905 295.27 182.905C294.806 182.905 294.011 183.301 293.613 183.83C292.553 185.153 294.408 185.682 297.987 185.153C302.691 184.491 306.004 180.987 309.384 173.053C311.836 167.565 312.167 166.242 311.438 165.383C310.444 164.193 309.318 164.127 308.257 165.185Z" fill="black"/>
<path d="M80.3786 170.673C78.3907 171.532 77.0654 173.648 77.7943 174.904C78.3245 175.698 87.6676 172.788 87.999 171.73C88.6616 169.681 84.0894 169.02 80.3786 170.673Z" fill="black"/>
<path d="M85.0178 181.45C84.6865 181.714 84.0239 182.574 83.6263 183.367C82.9636 184.491 83.0962 185.02 84.0901 186.276C86.1443 188.789 88.7286 186.739 87.8671 183.301C87.4696 181.648 86.1443 180.788 85.0178 181.45Z" fill="black"/>
<path d="M79.3179 206.509C76.8662 208.89 84.6853 216.626 89.5888 216.626C91.5767 216.559 97.8055 210.807 96.8116 209.815C96.414 209.419 95.2212 209.419 93.167 209.948C88.2635 211.138 86.6069 210.873 83.6913 208.361C80.9745 206.046 80.1131 205.65 79.3179 206.509Z" fill="black"/>
<path d="M404.869 90.0064C404.074 90.932 399.568 111.826 399.568 114.603C399.568 116.52 401.755 118.504 404.406 118.967C405.598 119.165 411.628 120.421 417.791 121.678C424.02 123 430.116 124.058 431.441 124.058C434.357 124.058 434.556 123.661 437.007 113.214C437.935 109.313 439.128 105.28 439.592 104.288C440.784 101.974 441.381 96.9489 440.586 95.5604C440.188 94.8331 438.796 94.238 436.809 93.9735C435.086 93.7091 432.038 93.114 430.05 92.6512C428.062 92.1883 424.02 91.461 421.104 90.9982C418.188 90.6014 414.345 89.9402 412.622 89.6096C408.116 88.7501 405.797 88.8823 404.869 90.0064ZM416.466 93.3123C423.622 94.4364 436.543 97.2795 437.14 97.8085C437.339 98.073 436.742 101.445 435.748 105.346C434.754 109.313 433.495 114.338 432.899 116.586C431.905 120.62 431.839 120.752 429.785 120.752C426.869 120.686 404.207 115.727 403.412 114.933C402.815 114.338 405.267 98.0068 406.592 93.4446C406.99 92.0561 408.514 92.0561 416.466 93.3123Z" fill="black"/>
<path d="M453.576 101.974C451.389 102.503 447.811 102.834 445.624 102.701C442.51 102.635 441.648 102.767 441.648 103.561C441.648 105.611 444.962 105.809 452.913 104.288C457.353 103.429 461.528 102.966 462.787 103.164C465.57 103.693 467.558 105.809 469.082 109.908C469.81 111.694 470.804 113.214 471.401 113.347C473.786 113.875 471.732 106.933 468.419 103.429C466.1 100.982 465.901 100.916 461.793 100.982C459.473 101.048 455.763 101.445 453.576 101.974Z" fill="black"/>
<path d="M354.908 105.346C353.848 106.404 356.631 114.867 358.818 116.983C360.607 118.834 361.137 117.644 359.878 114.603C359.216 113.016 358.42 110.503 358.155 108.983C357.758 106.338 355.902 104.354 354.908 105.346Z" fill="black"/>
<path d="M274.796 106.933C272.941 107.991 274.266 109.512 277.049 109.512C279.7 109.512 280.296 108.851 278.838 107.726C277.38 106.602 275.923 106.338 274.796 106.933Z" fill="black"/>
<path d="M467.159 115.727C464.376 116.19 461.725 116.785 461.262 117.049C459.671 118.041 461.46 144.82 463.183 145.877C464.508 146.671 500.423 145.877 501.55 144.952C502.279 144.423 502.345 142.638 502.014 136.29C501.417 125.513 500.291 116.917 499.363 116.19C498.104 115.132 472.858 114.801 467.159 115.727ZM497.773 121.413C497.972 123.066 498.369 128.422 498.7 133.381L499.164 142.373L482.4 142.836C473.189 143.1 465.436 143.1 465.171 142.77C464.906 142.505 464.508 136.951 464.243 130.538L463.846 118.835L468.948 118.57C471.797 118.438 479.352 118.372 485.713 118.372L497.309 118.438L497.773 121.413Z" fill="black"/>
<path d="M362.795 118.702C362.398 119.033 360.476 119.628 358.422 120.025C356.301 120.355 353.32 121.347 351.663 122.075C348.615 123.529 347.091 125.38 348.946 125.38C350.338 125.38 361.205 121.546 362.199 120.686C363.392 119.694 375.518 121.149 380.024 122.802C383.867 124.256 385.921 124.124 385.259 122.537C384.861 121.347 381.084 119.694 377.042 118.769C373.265 117.975 363.59 117.909 362.795 118.702Z" fill="black"/>
<path d="M257.832 119.43C256.043 120.488 257.567 122.074 260.35 122.074C262.934 122.074 264.392 121.149 263.332 120.091C262.404 119.297 258.759 118.835 257.832 119.43Z" fill="black"/>
<path d="M402.683 122.471C402.418 122.735 402.219 124.983 402.219 127.43V131.86L392.147 131.529C382.738 131.199 381.943 131.265 380.883 132.389C380.22 133.116 378.895 137.678 377.768 142.902C376.642 147.993 375.118 154.671 374.389 157.779C372.6 165.581 372.666 166.903 374.853 167.763C377.901 168.887 396.057 170.342 407.587 170.342C417.526 170.342 418.719 170.209 419.117 169.151C420.309 166.044 423.424 144.026 423.424 138.604C423.424 133.91 422.761 133.447 415.141 132.984C411.496 132.786 407.587 132.455 406.46 132.257L404.472 131.992V127.232C404.539 122.868 403.942 121.281 402.683 122.471ZM405.798 135.298C413.087 135.629 419.315 136.224 419.713 136.621C420.309 137.216 418.918 152.82 417.328 162.606C416.665 166.573 416.4 167.102 414.942 167.498C412.888 167.961 383.864 166.573 379.822 165.779C378.298 165.449 376.774 165.052 376.575 164.788C376.31 164.523 376.774 161.482 377.636 157.911C378.431 154.407 379.69 148.059 380.485 143.894C381.214 139.728 381.943 135.893 382.075 135.43C382.34 134.439 387.509 134.439 405.798 135.298Z" fill="black"/>
<path d="M545.018 139.265C531.037 141.183 519.043 146.671 512.483 154.076C506.784 160.556 504.266 167.697 504.266 177.417C504.266 180.127 504.001 182.838 503.67 183.5C503.073 184.491 500.224 186.012 496.778 187.136C496.116 187.334 495.652 187.93 495.784 188.392C496.116 189.318 498.766 189.979 502.808 190.112C505.459 190.178 505.591 190.244 505.658 192.293C505.989 213.32 508.242 227.866 512.483 236.726C515.465 242.875 521.495 249.487 526.73 252.264C528.982 253.454 530.772 254.512 530.772 254.644C530.772 254.843 529.579 255.57 528.187 256.297C526.73 257.025 524.211 258.81 522.489 260.264C520.832 261.719 519.175 262.909 518.91 262.909C518.049 262.909 514.338 271.703 512.947 276.927C509.501 290.084 508.772 294.448 505.923 319.442C503.736 338.815 502.941 350.716 502.742 365.064C502.61 376.569 502.676 376.966 503.935 376.966C505.061 376.966 505.26 376.503 505.393 373.66C505.79 366.783 506.254 364.733 507.579 364.733C508.242 364.733 509.037 364.998 509.236 365.395C509.435 365.725 511.621 366.651 514.073 367.444C521.097 369.626 530.639 369.362 538.657 366.717C542.103 365.593 545.018 364.866 545.217 364.998C545.35 365.196 546.344 368.833 547.404 373.131C549.458 381.396 550.518 383.379 551.91 381.66C552.639 380.801 552.44 379.148 551.048 372.536C548.729 361.295 547.603 356.204 545.747 348.534C540.38 326.516 539.32 321.491 538.657 315.805C538.326 312.367 537.928 309.127 537.862 308.598C537.53 306.416 539.518 307.408 542.036 310.714C545.35 315.144 547.735 316.334 550.386 314.879C551.446 314.35 557.078 310.119 562.909 305.424C573.247 297.225 575.433 295.638 585.505 289.093C593.258 284.134 609.625 276.464 614.131 275.736C616.451 275.406 616.981 275.67 620.89 278.844C636.992 291.936 644.348 302.846 647.661 318.78C649.317 326.516 650.179 342.319 649.715 354.22C649.317 363.345 649.45 365.262 650.245 365.924C651.769 367.18 653.161 366.188 653.624 363.543C654.221 359.708 654.088 342.054 653.359 333.327C652.365 322.417 650.974 315.144 648.456 308.532C644.016 296.63 638.516 289.357 624.336 276.53C616.914 269.786 614.728 267.273 610.288 260.727C607.372 256.363 604.987 252.462 604.987 251.999C604.987 251.338 605.848 251.206 608.499 251.471C615.457 252.198 622.613 247.107 625.529 239.371C628.047 232.626 626.854 222.047 622.944 216.427C621.884 214.906 617.908 210.741 614.065 207.17C608.83 202.344 606.643 199.831 605.384 197.12C603.728 193.682 603.33 191.764 601.607 177.681C599.222 157.713 588.686 145.282 570.198 140.588C564.235 139.001 551.38 138.34 545.018 139.265ZM568.873 143.629C582.391 146.34 592.331 156.06 596.041 170.077C596.571 172.193 597.499 177.813 598.029 182.574C599.686 197.186 601.409 200.823 610.354 208.691C620.095 217.287 622.878 222.18 622.878 230.841C622.878 236.924 621.95 239.371 617.908 243.668C613.071 248.826 609.162 249.487 604.457 245.916C602.734 244.594 602.071 244.462 601.342 245.057C600.083 246.115 600.083 247.966 601.276 251.933C602.204 254.909 602.138 255.041 600.812 255.901C598.692 257.289 590.541 259.603 589.481 259.207C588.156 258.678 587.825 257.62 587.029 250.479C585.572 237.123 584.644 234.478 581.331 234.478C579.74 234.478 579.74 234.346 580.204 231.635C580.801 228.593 580.933 224.097 580.469 222.642C580.271 222.113 581.066 221.188 582.457 220.46C589.349 216.559 592.397 211.931 592.397 205.385C592.331 195.467 585.837 191.236 576.162 194.872C571.855 196.459 569.602 196.195 565.229 193.417C560.789 190.64 558.072 186.541 555.952 179.598C554.693 175.301 553.434 174.97 551.843 178.408C550.319 181.582 547.735 182.904 543.03 182.904C539.121 182.904 536.537 181.913 534.549 179.731C533.422 178.474 533.488 178.342 536.205 174.243C540.645 167.499 541.506 164.259 539.518 161.746C538.458 160.49 537.928 160.292 535.808 160.688C532.693 161.283 528.452 165.052 527.392 168.16C526.995 169.416 526.796 172.259 526.928 174.375C527.193 177.681 526.995 178.474 525.868 179.532C523.615 181.648 516.922 184.756 513.145 185.549C507.115 186.806 507.248 186.872 507.447 178.937C507.579 175.102 507.977 170.672 508.308 169.019C510.76 157.911 521.693 148.192 536.006 144.489C545.946 141.91 558.536 141.58 568.873 143.629ZM536.338 165.581C536.802 166.308 533.886 172.458 532.561 173.515C530.904 174.904 529.91 173.846 530.44 171.069C531.103 167.499 535.145 163.73 536.338 165.581ZM533.157 184.028C537.398 186.409 546.476 187.004 549.988 185.219C552.175 184.095 552.307 184.095 552.97 185.219C555.024 188.723 559.397 194.145 561.187 195.401C563.506 197.054 570 199.434 572.319 199.434C573.18 199.434 575.036 198.839 576.494 198.112C579.873 196.393 583.783 196.393 585.969 198.178C589.017 200.558 589.68 206.179 587.361 210.741C585.969 213.452 581.463 217.154 578.349 218.014C576.759 218.411 575.102 218.874 574.638 219.006C573.114 219.469 574.108 220.857 576.361 221.584C578.879 222.312 578.813 222.444 576.096 231.304C574.506 236.263 574.373 236.461 568.674 241.222C565.494 243.933 559.331 248.826 554.892 252.198L546.94 258.281L543.163 256.496C541.109 255.438 539.518 254.38 539.585 253.983C539.717 253.652 541.109 253.124 542.765 252.859C548.663 251.867 553.566 249.156 552.837 247.305C552.44 246.313 549.325 246.049 548.265 246.974C546.874 248.297 540.181 249.884 535.808 249.95C529.91 250.016 527.127 248.76 522.157 243.735C517.784 239.305 515.531 235.337 512.88 227.139C511.158 221.981 510.694 219.204 510.164 210.675C509.832 204.988 509.567 197.848 509.7 194.806L509.899 189.186L513.344 188.723C517.32 188.128 524.41 185.417 526.796 183.566C528.982 181.913 529.38 181.913 533.157 184.028ZM581.662 239.9C581.993 240.362 582.789 244.66 583.385 249.355C583.915 254.115 585.174 261.388 586.168 265.554C587.096 269.72 587.957 274.811 588.023 276.927C588.09 281.555 587.692 282.084 577.222 289.622C572.982 292.663 566.62 297.556 563.042 300.531C555.687 306.614 549.193 311.177 547.868 311.177C546.874 311.177 541.771 303.705 540.181 300.002C539.585 298.482 539.187 295.242 539.121 291.341C539.055 285.39 539.121 285.059 540.38 285.258C541.639 285.456 544.024 287.77 547.205 291.936C549.193 294.514 550.651 293.985 550.651 290.746C550.651 288.96 551.313 287.44 553.301 284.795C555.554 281.819 555.952 280.828 555.952 278.051C555.952 272.827 552.042 266.876 548.597 266.876C548 266.876 545.88 266.083 544.024 265.157C539.783 263.041 531.964 262.513 531.567 264.298C531.434 265.091 532.362 265.488 535.94 266.149C538.458 266.612 542.368 267.934 544.753 269.058C550.121 271.769 551.976 274.348 551.976 279.109C551.976 282.084 551.777 282.613 550.319 283.274C548.928 283.935 548.331 283.737 545.217 281.423C543.295 279.968 541.175 278.778 540.512 278.778C539.187 278.778 535.41 282.348 535.41 283.671C535.344 284.068 535.278 288.233 535.145 292.994C535.012 299.936 534.681 302.25 533.555 305.094C531.699 309.59 531.699 310.648 533.753 312.367C535.012 313.425 535.344 314.218 535.012 315.342C534.814 316.202 535.609 320.896 536.802 325.789C539.253 336.104 539.253 336.236 541.97 349.195L544.091 359.113L542.036 360.832C535.344 366.519 518.712 367.114 510.495 362.023C506.32 359.444 506.122 358.783 506.917 348.468C508.176 332.665 508.838 322.814 508.905 321.425C508.971 318.384 509.832 318.185 513.941 320.169C518.977 322.615 523.814 322.748 528.32 320.499C531.5 318.979 533.422 316.202 532.229 315.012C531.898 314.681 529.844 315.408 527.591 316.598C522.555 319.111 518.38 319.309 513.676 316.995C511.953 316.202 510.429 315.408 510.23 315.276C509.567 314.813 510.429 305.292 511.621 299.341C514.139 287.44 517.585 273.951 518.977 271.042C520.832 267.141 525.669 261.851 529.049 260.066C532.958 258.082 538.657 258.215 543.229 260.529C545.085 261.455 547.139 262.248 547.801 262.182C549.392 262.116 556.879 256.363 569.337 245.652C576.295 239.701 580.005 237.916 581.662 239.9ZM608.896 265.356C611.149 268.463 612.939 271.306 612.939 271.571C612.939 271.902 611.945 272.364 610.818 272.761C609.625 273.092 605.053 274.877 600.68 276.728C596.306 278.58 592.662 280.1 592.596 280.1C592.463 280.1 592.397 279.307 592.397 278.249C592.397 277.257 591.8 273.753 591.138 270.513C590.409 267.207 589.945 264.43 590.078 264.364C590.541 263.901 602.734 259.735 603.794 259.669C604.523 259.603 606.445 261.719 608.896 265.356Z" fill="black"/>
<path d="M543.694 201.418C542.7 202.476 542.567 203.137 543.097 204.525C544.091 207.302 545.748 207.964 547.471 206.244C548.862 204.79 548.862 204.658 547.802 202.41C546.543 199.765 545.417 199.5 543.694 201.418Z" fill="black"/>
<path d="M515.531 201.749C514.537 202.939 515.73 206.377 517.453 207.369C519.11 208.228 520.832 206.906 520.832 204.724C520.832 201.418 517.387 199.5 515.531 201.749Z" fill="black"/>
<path d="M526.994 203.534C526.597 203.997 525.735 207.765 525.073 211.799C524.145 217.551 524.079 219.469 524.675 220.064C526.928 222.312 529.711 214.576 529.314 207.104C529.115 203.203 528.253 201.947 526.994 203.534Z" fill="black"/>
<path d="M538.525 228.593C537.134 229.32 534.351 230.114 532.23 230.378L528.453 230.841L529.977 232.362C531.833 234.213 535.212 234.279 538.591 232.56C541.573 231.04 543.628 228.858 543.031 227.932C542.435 226.94 541.441 227.072 538.525 228.593Z" fill="black"/>
<path d="M575.036 248.76C570.463 251.206 570.861 257.752 575.433 256.562C578.813 255.702 581.132 250.611 579.011 248.495C578.018 247.504 577.222 247.504 575.036 248.76Z" fill="black"/>
<path d="M441.316 185.153C433.894 187.269 408.25 195.005 406.196 195.732L403.877 196.525L404.076 201.815C404.275 208.691 405.534 223.899 405.931 225.42C406.66 227.8 408.383 227.998 422.298 227.205C429.654 226.808 439.394 226.015 443.966 225.486C454.37 224.296 454.9 223.833 454.304 217.022C453.376 207.038 449.533 188.326 448.009 186.211C446.551 184.227 445.225 184.029 441.316 185.153ZM445.159 188.988C446.418 190.574 451.255 214.311 451.255 219.006C451.255 220.791 450.924 221.32 449.798 221.518C446.882 222.18 427.666 223.833 418.919 224.229C410.238 224.626 410.172 224.626 409.642 223.105C409.311 222.246 408.515 216.56 407.919 210.477C406.66 198.773 406.859 197.451 409.576 197.451C410.238 197.451 415.804 195.93 421.901 194.079C442.045 187.93 443.9 187.533 445.159 188.988Z" fill="black"/>
<path d="M480.677 200.228C480.147 201.087 482.864 203.6 483.924 203.203C484.322 203.071 484.918 202.476 485.316 201.881C485.846 201.021 485.78 200.558 485.051 200.095C483.659 199.236 481.274 199.302 480.677 200.228Z" fill="black"/>
<path d="M329.662 206.707C328.536 208.559 333.572 210.212 335.825 208.757C336.487 208.36 336.487 208.096 335.692 207.435C334.234 206.245 330.258 205.782 329.662 206.707Z" fill="black"/>
<path d="M390.294 208.493C381.216 209.154 374.126 210.146 372.536 210.939C368.493 213.055 366.903 216.03 364.451 225.816C363.457 229.717 363.259 231.569 363.722 232.031C364.849 233.155 365.445 231.965 367.367 224.626C369.355 216.89 370.879 214.245 374.258 212.857C376.18 212.063 393.144 210.08 398.776 210.014C399.637 210.014 400.234 209.617 400.234 209.022C400.234 208.03 398.246 207.898 390.294 208.493Z" fill="black"/>
<path d="M434.824 229.651C435.287 230.841 439.793 236.924 441.781 239.106C443.372 240.825 444.1 241.222 444.631 240.693C446.42 238.908 439.329 229.188 436.215 229.188C435.354 229.188 434.691 229.386 434.824 229.651Z" fill="black"/>
<path d="M240.537 232.692C240.537 233.155 241.73 237.122 243.188 241.42C248.224 256.429 248.091 254.909 248.157 285.72C248.29 314.879 248.489 317.524 251.802 334.252C253.193 340.996 254.32 343.046 255.711 341.327C256.374 340.534 256.308 339.211 255.513 334.781C252.465 318.78 252.2 314.945 252.133 287.043C252.133 272.1 251.868 258.744 251.537 257.289C250.212 250.346 249.483 247.635 247.296 242.412C244.049 234.345 242.658 231.833 241.531 231.833C241.001 231.833 240.537 232.23 240.537 232.692Z" fill="black"/>
<path d="M338.076 232.693C337.48 233.42 335.691 238.908 333.968 245.388C333.703 246.445 332.245 251.933 330.655 257.554C328.932 263.901 328.137 267.934 328.534 268.331C330.588 270.381 350.269 273.819 367.762 275.141C372.865 275.538 373.527 275.406 374.588 274.282C376.31 272.364 379.889 256.694 381.943 242.214C382.473 238.181 381.346 237.519 371.738 236.528C363.919 235.668 360.805 235.271 345.763 232.825C338.275 231.635 338.938 231.635 338.076 232.693ZM355.835 237.387C361.865 238.313 369.485 239.503 372.732 239.966L378.696 240.825L378.497 243.404C378.166 247.305 373.726 269.587 372.997 271.042C372.401 272.1 371.672 272.232 365.907 271.835C351.528 270.91 332.643 267.802 331.715 266.281C331.516 266.017 332.112 263.438 332.908 260.529C333.769 257.686 335.161 252.793 335.956 249.685C338.275 240.759 339.932 235.932 340.793 235.536C341.721 235.139 341.124 235.073 355.835 237.387Z" fill="black"/>
<path d="M442.774 243.668C441.25 243.933 439.593 244.528 439.196 244.924C438.135 245.982 440.322 270.116 441.581 271.372C442.708 272.496 481.538 274.612 482.598 273.554C483.857 272.298 482.664 248.627 481.14 245.85C480.743 245.057 479.484 244.396 477.96 244.197C473.719 243.536 445.822 243.139 442.774 243.668ZM473.984 246.842C476.502 247.106 478.026 247.569 478.357 248.297C479.153 249.751 480.478 269.719 479.815 270.381C479.351 270.843 446.683 269.719 444.828 269.19C444.43 269.058 443.9 267.339 443.701 265.422C442.111 250.346 441.912 247.569 442.244 246.577C442.641 245.652 444.099 245.586 456.424 245.982C463.978 246.181 471.864 246.577 473.984 246.842Z" fill="black"/>
<path d="M516.855 257.091C516.855 260.595 517.849 262.446 518.843 260.926C520.169 258.876 519.44 254.314 517.783 254.314C517.121 254.314 516.855 255.173 516.855 257.091Z" fill="black"/>
<path d="M110.86 262.248C108.474 263.636 107.944 265.554 109.866 265.554C110.992 265.554 114.637 262.38 114.637 261.388C114.637 260.529 112.98 260.925 110.86 262.248Z" fill="black"/>
<path d="M282.746 297.622C282.15 299.011 282.614 299.143 290.168 299.87C309.583 301.854 400.895 305.16 406.196 304.036C408.25 303.573 408.647 303.374 407.455 303.308C406.461 303.242 399.768 302.779 392.545 302.25C377.769 301.193 362.064 300.267 341.92 299.275C334.432 298.878 319.722 298.151 309.119 297.622C284.801 296.366 283.21 296.366 282.746 297.622Z" fill="black"/>
<path d="M432.37 305.887C432.105 306.284 432.171 306.879 432.436 307.209C433.231 307.937 462.189 309.854 472.393 309.854C476.833 309.854 480.411 309.59 480.411 309.259C480.411 308.135 464.972 306.614 442.243 305.49C435.219 305.16 432.767 305.226 432.37 305.887Z" fill="black"/>
<path d="M598.162 327.971C597.234 330.285 591.734 364.271 591.734 367.378C591.734 370.089 592.728 371.279 593.855 370.155C594.252 369.759 595.246 364.8 596.108 358.981C596.969 353.229 598.096 346.22 598.692 343.377C599.222 340.468 599.885 335.641 600.084 332.599C600.481 327.839 600.415 327.045 599.553 327.045C598.957 327.045 598.361 327.442 598.162 327.971Z" fill="black"/>
<path d="M501.617 381.991C501.617 384.173 515.268 392.967 517.388 392.173C518.978 391.578 517.918 390.256 514.472 388.537C512.617 387.611 509.436 385.627 507.382 384.04C503.738 381.33 501.617 380.536 501.617 381.991Z" fill="black"/>
</svg>
